<?xml version="1.0" encoding="UTF-8" standalone="no"?>
<!DOCTYPE svg PUBLIC "-//W3C//DTD SVG 1.1//EN" "http://www.w3.org/Graphics/SVG/1.1/DTD/svg11.dtd">
<svg width="612pt" height="792pt" viewBox="0 0 612 792" overflow="visible" version="1.1" xmlns="http://www.w3.org/2000/svg">
  <path d="M531.6567,351.6479 C533.2377,350.1086 534.2125,347.7553 534.183,345.549 L534.183,335.3083 C534.1904,334.7539 533.9455,334.1626 533.5482,333.7758 L531.7216,331.9492 C531.044,331.1187 529.3343,331.1187 528.6567,331.9492 L516.7251,343.8808 C515.1441,345.4201 514.1694,347.7734 514.1989,349.9798 L514.1989,360.2204 C514.1914,360.7748 514.4363,361.3661 514.8336,361.7529 L516.6602,363.5795 C517.3378,364.41 519.0475,364.41 519.7252,363.5795 z" stroke="#8B8B00" stroke-width="0.24" fill-opacity="0" />
  <path d="M533.5482,333.7758 C532.8706,332.9453 531.1609,332.9453 530.4833,333.7758 L518.5517,345.7074 C516.9707,347.2467 515.996,349.6 516.0255,351.8064 L516.0255,362.047 C516.018,362.6014 516.2629,363.1927 516.6602,363.5795" stroke="#8B8B00" stroke-width="0.24" fill-opacity="0" />
  <path d="M498.497,386.5787 L487.5869,397.4888 C486.5088,398.8101 483.7888,398.8101 482.7108,397.4888 L480.7758,395.5539 C480.1439,394.9385 479.7542,393.9978 479.766,393.1158 L479.766,384.9983 C479.7188,381.4704 481.2775,377.7075 483.8055,375.2462 L494.7156,364.3361 C495.7936,363.0147 498.5136,363.0147 499.5916,364.3361 L501.5266,366.271 C502.1534,366.8816 502.5421,367.8115 502.5364,368.6866 L502.5365,376.8265 C502.5836,380.3545 501.0249,384.1174 498.497,386.5787 z" stroke="#8B8B00" stroke-width="0.24" fill-opacity="0" />
  <path d="M482.7108,397.4888 C482.0788,396.8735 481.6891,395.9327 481.7009,395.0508 L481.7009,386.9333 C481.6538,383.4053 483.2124,379.6424 485.7404,377.1811 L496.6505,366.271 C497.7286,364.9497 500.4485,364.9497 501.5266,366.271" stroke="#8B8B00" stroke-width="0.24" fill-opacity="0" />
  <path d="M470.0293,409.3337 C470.0764,412.8616 468.5178,416.6245 465.9898,419.0858 L455.0797,429.9959 C454.0016,431.3173 451.2817,431.3173 450.2036,429.9959 L448.2687,428.061 C447.6367,427.4457 447.247,426.5049 447.2588,425.623 L447.2588,417.5055 C447.2117,413.9775 448.7703,410.2146 451.2983,407.7533 L462.2084,396.8432 C463.2865,395.5219 466.0064,395.5219 467.0845,396.8432 L469.0194,398.7781 C469.6462,399.3888 470.0349,400.3187 470.0292,401.1937 z" stroke="#8B8B00" stroke-width="0.24" fill-opacity="0" />
  <path d="M450.2036,429.9959 C449.5717,429.3806 449.182,428.4399 449.1938,427.5579 L449.1938,419.4404 C449.1466,415.9125 450.7053,412.1495 453.2332,409.6883 L464.1434,398.7781 C465.2214,397.4568 467.9414,397.4568 469.0194,398.7781" stroke="#8B8B00" stroke-width="0.24" fill-opacity="0" />
  <path d="M530.405,350.2727 C531.665,349.046 532.4418,347.1705 532.4183,345.4121 L532.4183,338.6429 C532.4471,337.9937 531.9616,337.267 531.3507,337.0452 C530.7619,336.7701 529.9047,336.9406 529.466,337.4201 L519.8034,347.0826 C518.5435,348.3094 517.7666,350.1849 517.7901,351.9432 L517.7901,358.7124 C517.7613,359.3617 518.2468,360.0883 518.8577,360.3102 C519.4465,360.5852 520.3036,360.4148 520.7424,359.9353 L531.1132,349.5645" stroke="#8B8B00" stroke-width="0.24" fill-opacity="0" />
  <path d="M499.0845,374.0151 L499.0845,379.4695 C499.1025,380.8134 498.5087,382.2469 497.5457,383.1845 L487.3951,393.3351 C487.0619,393.6992 486.4109,393.8287 485.9637,393.6198 C485.4998,393.4513 485.131,392.8994 485.1529,392.4063 L485.1529,388.1935 C485.1521,387.5659 485.2682,386.9284 485.4901,386.3413 L487.8491,380.0793 C488.1081,379.3871 488.5269,378.7379 489.0506,378.2163 L495.2337,372.0333 C495.6066,371.6059 496.4294,371.5209 496.8818,371.8631 L498.4904,372.9162 C498.8473,373.1364 499.0957,373.5959 499.0845,374.0151 z" stroke="#8B8B00" stroke-width="0.24" fill-opacity="0" />
  <path d="M498.039,383.9407 L487.2535,394.7263 C486.7536,395.2725 485.7772,395.4668 485.1063,395.1534 C484.4104,394.9006 483.8572,394.0728 483.8901,393.3331 L483.8901,388.2133 C483.8889,387.2719 484.063,386.3156 484.396,385.4351 L486.1012,380.9084 C486.4898,379.87 487.118,378.8961 487.9036,378.1139 L496.4041,369.6133 C496.9636,368.9721 498.1978,368.8447 498.8764,369.358 L499.4562,369.7375 C499.9915,370.0679 500.3641,370.7571 500.3473,371.386 L500.3473,378.368 C500.3743,380.384 499.4836,382.5342 498.039,383.9407 z" stroke="#8B8B00" stroke-width="0.24" fill-opacity="0" />
  <path d="M466.5774,406.5222 L466.5774,411.9766 C466.5953,413.3206 466.0016,414.7541 465.0385,415.6917 L454.888,425.8422 C454.5548,426.2064 453.9038,426.3359 453.4566,426.127 C452.9926,425.9585 452.6238,425.4066 452.6457,424.9135 L452.6457,420.7006 C452.6449,420.073 452.761,419.4355 452.983,418.8485 L455.3419,412.5865 C455.601,411.8943 456.0197,411.245 456.5435,410.7235 L462.7265,404.5405 C463.0995,404.113 463.9222,404.028 464.3747,404.3703 L465.9833,405.4233 C466.3402,405.6436 466.5886,406.103 466.5774,406.5222 z" stroke="#8B8B00" stroke-width="0.24" fill-opacity="0" />
  <path d="M465.5319,416.4478 L454.7463,427.2334 C454.2465,427.7797 453.27,427.9739 452.5992,427.6605 C451.9032,427.4078 451.3501,426.58 451.3829,425.8403 L451.3829,420.7204 C451.3817,419.7791 451.5558,418.8228 451.8888,417.9423 L453.5941,413.4155 C453.9827,412.3771 454.6108,411.4033 455.3964,410.621 L463.897,402.1204 C464.4565,401.4792 465.6906,401.3518 466.3693,401.8652 L466.949,402.2447 C467.4844,402.5751 467.8569,403.2643 467.8402,403.8931 L467.8402,410.8752 C467.8671,412.8911 466.9764,415.0414 465.5319,416.4478 z" stroke="#8B8B00" stroke-width="0.24" fill-opacity="0" />
  <path d="M436.611,438.9255 C434.349,440.7537 432.9796,444.038 433.273,446.9316 C433.221,447.678 433.7675,448.5288 434.468,448.7919 C435.1416,449.1177 436.1346,448.9267 436.6393,448.3742 C438.9235,446.5307 440.2951,443.1977 439.97,440.2804 C439.9838,439.5466 439.4236,438.7402 438.7311,438.4969 C438.062,438.1951 437.1002,438.3922 436.6037,438.9328 z" stroke="#8B8B00" stroke-width="0.24" fill-opacity="0" />
  <path d="M436.6168,439.8534 C434.8071,441.3159 433.7116,443.9434 433.9464,446.2582 C433.9048,446.8554 434.342,447.536 434.9024,447.7465 C435.4413,448.0071 436.2357,447.8543 436.6394,447.4123 C438.4668,445.9375 439.564,443.2711 439.3039,440.9373 C439.315,440.3502 438.8669,439.7051 438.3128,439.5105 C437.7776,439.269 437.0081,439.4267 436.611,439.8592 z" stroke="#8B8B00" stroke-width="0.24" fill-opacity="0" />
  <path d="M525.8527,348.409 L525.8527,344.0307 L524.3048,345.5787 L524.3048,349.957 z" stroke="#8B8B00" stroke-width="0.24" fill-opacity="0" />
  <path d="M521.6987,355.9817 L521.6987,351.6034 L520.1508,353.1513 L520.1508,357.5296 z" stroke="#8B8B00" stroke-width="0.24" fill-opacity="0" />
  <path d="M530.0577,347.6227 L530.0577,343.2444 L528.5098,344.7923 L528.5098,349.1706 z" stroke="#8B8B00" stroke-width="0.24" fill-opacity="0" />
  <path d="M492.8799,381.5985 L492.8799,377.2202 L491.332,378.7682 L491.332,383.1465 z" stroke="#8B8B00" stroke-width="0.24" fill-opacity="0" />
  <path d="M488.726,389.1711 L488.726,384.7928 L487.178,386.3408 L487.178,390.7191 z" stroke="#8B8B00" stroke-width="0.24" fill-opacity="0" />
  <path d="M497.0849,380.8122 L497.0849,376.4339 L495.537,377.9818 L495.537,382.3601 z" stroke="#8B8B00" stroke-width="0.24" fill-opacity="0" />
  <path d="M460.3728,414.1057 L460.3728,409.7274 L458.8249,411.2753 L458.8249,415.6536 z" stroke="#8B8B00" stroke-width="0.24" fill-opacity="0" />
  <path d="M456.2188,421.6783 L456.2188,417.3 L454.6708,418.848 L454.6708,423.2263 z" stroke="#8B8B00" stroke-width="0.24" fill-opacity="0" />
  <path d="M464.5778,413.3193 L464.5778,408.941 L463.0298,410.489 L463.0298,414.8673 z" stroke="#8B8B00" stroke-width="0.24" fill-opacity="0" />
  <path d="M432.3752,453.4337 L440.9045,444.9044 L440.9045,443.5282 L440.9045,433.8711 L432.3752,442.4004 z" stroke="#8B8B00" stroke-width="0.24" fill-opacity="0" />
  <path d="M530.0577,343.2444 L526.8497,340.0364" stroke="#8B8B00" stroke-width="0.24" fill-opacity="0" />
  <path d="M528.5098,344.7923 L525.3018,341.5844" stroke="#8B8B00" stroke-width="0.24" fill-opacity="0" />
  <path d="M528.5098,349.1706 L525.8527,346.5136" stroke="#8B8B00" stroke-width="0.24" fill-opacity="0" />
  <path d="M525.8527,344.0307 L524.3541,342.532" stroke="#8B8B00" stroke-width="0.24" fill-opacity="0" />
  <path d="M524.3048,345.5787 L522.8061,344.08" stroke="#8B8B00" stroke-width="0.24" fill-opacity="0" />
  <path d="M524.3048,349.957 L520.6169,346.2692" stroke="#8B8B00" stroke-width="0.24" fill-opacity="0" />
  <path d="M521.6987,351.6034 L518.6713,348.576" stroke="#8B8B00" stroke-width="0.24" fill-opacity="0" />
  <path d="M520.1508,353.1513 L517.8738,350.8743" stroke="#8B8B00" stroke-width="0.24" fill-opacity="0" />
  <path d="M520.1508,357.5296 L517.7902,355.169" stroke="#8B8B00" stroke-width="0.24" fill-opacity="0" />
  <path d="M483.8901,391.6876 L485.5376,393.3351" stroke="#8B8B00" stroke-width="0.24" fill-opacity="0" />
  <path d="M495.8097,370.2078 L498.7978,373.1959" stroke="#8B8B00" stroke-width="0.24" fill-opacity="0" />
  <path d="M485.4902,386.3414 L487.8491,380.0794" stroke="#8B8B00" stroke-width="0.24" fill-opacity="0" />
  <path d="M497.0849,380.8122 L495.537,379.2642" stroke="#8B8B00" stroke-width="0.24" fill-opacity="0" />
  <path d="M492.8799,381.5985 L491.332,380.0506" stroke="#8B8B00" stroke-width="0.24" fill-opacity="0" />
  <path d="M488.726,389.1711 L487.178,387.6232" stroke="#8B8B00" stroke-width="0.24" fill-opacity="0" />
  <path d="M451.3829,424.1947 L453.0305,425.8423" stroke="#8B8B00" stroke-width="0.24" fill-opacity="0" />
  <path d="M463.3025,402.715 L466.2906,405.7031" stroke="#8B8B00" stroke-width="0.24" fill-opacity="0" />
  <path d="M464.5778,413.3193 L463.0298,411.7714" stroke="#8B8B00" stroke-width="0.24" fill-opacity="0" />
  <path d="M460.3728,414.1057 L458.8249,412.5577" stroke="#8B8B00" stroke-width="0.24" fill-opacity="0" />
  <path d="M456.2188,421.6783 L454.6708,420.1303" stroke="#8B8B00" stroke-width="0.24" fill-opacity="0" />
  <path d="M434.4066,447.4103 L433.2444,446.2481" stroke="#8B8B00" stroke-width="0.24" fill-opacity="0" />
  <path d="M438.8664,439.8844 L437.4232,438.4413" stroke="#8B8B00" stroke-width="0.24" fill-opacity="0" />
</svg>