G75*
%MOIN*%
%OFA0B0*%
%FSLAX24Y24*%
%IPPOS*%
%LPD*%
%AMOC8*
5,1,8,0,0,1.08239X$1,22.5*
%
%ADD10C,0.0000*%
%ADD11C,0.0765*%
%ADD12C,0.0860*%
%ADD13R,0.0512X0.0591*%
%ADD14C,0.0520*%
%ADD15C,0.2250*%
%ADD16C,0.0645*%
%ADD17C,0.0515*%
%ADD18C,0.0120*%
%ADD19C,0.0400*%
%ADD20C,0.0160*%
D10*
X001180Y001180D02*
X001180Y033180D01*
X043180Y033180D01*
X043180Y001180D01*
X001180Y001180D01*
X012555Y003180D02*
X012557Y003230D01*
X012563Y003279D01*
X012573Y003328D01*
X012586Y003375D01*
X012604Y003422D01*
X012625Y003467D01*
X012649Y003510D01*
X012677Y003551D01*
X012708Y003590D01*
X012742Y003626D01*
X012779Y003660D01*
X012819Y003690D01*
X012860Y003717D01*
X012904Y003741D01*
X012949Y003761D01*
X012996Y003777D01*
X013044Y003790D01*
X013093Y003799D01*
X013143Y003804D01*
X013192Y003805D01*
X013242Y003802D01*
X013291Y003795D01*
X013340Y003784D01*
X013387Y003770D01*
X013433Y003751D01*
X013478Y003729D01*
X013521Y003704D01*
X013561Y003675D01*
X013599Y003643D01*
X013635Y003609D01*
X013668Y003571D01*
X013697Y003531D01*
X013723Y003489D01*
X013746Y003445D01*
X013765Y003399D01*
X013781Y003352D01*
X013793Y003303D01*
X013801Y003254D01*
X013805Y003205D01*
X013805Y003155D01*
X013801Y003106D01*
X013793Y003057D01*
X013781Y003008D01*
X013765Y002961D01*
X013746Y002915D01*
X013723Y002871D01*
X013697Y002829D01*
X013668Y002789D01*
X013635Y002751D01*
X013599Y002717D01*
X013561Y002685D01*
X013521Y002656D01*
X013478Y002631D01*
X013433Y002609D01*
X013387Y002590D01*
X013340Y002576D01*
X013291Y002565D01*
X013242Y002558D01*
X013192Y002555D01*
X013143Y002556D01*
X013093Y002561D01*
X013044Y002570D01*
X012996Y002583D01*
X012949Y002599D01*
X012904Y002619D01*
X012860Y002643D01*
X012819Y002670D01*
X012779Y002700D01*
X012742Y002734D01*
X012708Y002770D01*
X012677Y002809D01*
X012649Y002850D01*
X012625Y002893D01*
X012604Y002938D01*
X012586Y002985D01*
X012573Y003032D01*
X012563Y003081D01*
X012557Y003130D01*
X012555Y003180D01*
X040555Y003680D02*
X040557Y003730D01*
X040563Y003779D01*
X040573Y003828D01*
X040586Y003875D01*
X040604Y003922D01*
X040625Y003967D01*
X040649Y004010D01*
X040677Y004051D01*
X040708Y004090D01*
X040742Y004126D01*
X040779Y004160D01*
X040819Y004190D01*
X040860Y004217D01*
X040904Y004241D01*
X040949Y004261D01*
X040996Y004277D01*
X041044Y004290D01*
X041093Y004299D01*
X041143Y004304D01*
X041192Y004305D01*
X041242Y004302D01*
X041291Y004295D01*
X041340Y004284D01*
X041387Y004270D01*
X041433Y004251D01*
X041478Y004229D01*
X041521Y004204D01*
X041561Y004175D01*
X041599Y004143D01*
X041635Y004109D01*
X041668Y004071D01*
X041697Y004031D01*
X041723Y003989D01*
X041746Y003945D01*
X041765Y003899D01*
X041781Y003852D01*
X041793Y003803D01*
X041801Y003754D01*
X041805Y003705D01*
X041805Y003655D01*
X041801Y003606D01*
X041793Y003557D01*
X041781Y003508D01*
X041765Y003461D01*
X041746Y003415D01*
X041723Y003371D01*
X041697Y003329D01*
X041668Y003289D01*
X041635Y003251D01*
X041599Y003217D01*
X041561Y003185D01*
X041521Y003156D01*
X041478Y003131D01*
X041433Y003109D01*
X041387Y003090D01*
X041340Y003076D01*
X041291Y003065D01*
X041242Y003058D01*
X041192Y003055D01*
X041143Y003056D01*
X041093Y003061D01*
X041044Y003070D01*
X040996Y003083D01*
X040949Y003099D01*
X040904Y003119D01*
X040860Y003143D01*
X040819Y003170D01*
X040779Y003200D01*
X040742Y003234D01*
X040708Y003270D01*
X040677Y003309D01*
X040649Y003350D01*
X040625Y003393D01*
X040604Y003438D01*
X040586Y003485D01*
X040573Y003532D01*
X040563Y003581D01*
X040557Y003630D01*
X040555Y003680D01*
X012555Y029180D02*
X012557Y029230D01*
X012563Y029279D01*
X012573Y029328D01*
X012586Y029375D01*
X012604Y029422D01*
X012625Y029467D01*
X012649Y029510D01*
X012677Y029551D01*
X012708Y029590D01*
X012742Y029626D01*
X012779Y029660D01*
X012819Y029690D01*
X012860Y029717D01*
X012904Y029741D01*
X012949Y029761D01*
X012996Y029777D01*
X013044Y029790D01*
X013093Y029799D01*
X013143Y029804D01*
X013192Y029805D01*
X013242Y029802D01*
X013291Y029795D01*
X013340Y029784D01*
X013387Y029770D01*
X013433Y029751D01*
X013478Y029729D01*
X013521Y029704D01*
X013561Y029675D01*
X013599Y029643D01*
X013635Y029609D01*
X013668Y029571D01*
X013697Y029531D01*
X013723Y029489D01*
X013746Y029445D01*
X013765Y029399D01*
X013781Y029352D01*
X013793Y029303D01*
X013801Y029254D01*
X013805Y029205D01*
X013805Y029155D01*
X013801Y029106D01*
X013793Y029057D01*
X013781Y029008D01*
X013765Y028961D01*
X013746Y028915D01*
X013723Y028871D01*
X013697Y028829D01*
X013668Y028789D01*
X013635Y028751D01*
X013599Y028717D01*
X013561Y028685D01*
X013521Y028656D01*
X013478Y028631D01*
X013433Y028609D01*
X013387Y028590D01*
X013340Y028576D01*
X013291Y028565D01*
X013242Y028558D01*
X013192Y028555D01*
X013143Y028556D01*
X013093Y028561D01*
X013044Y028570D01*
X012996Y028583D01*
X012949Y028599D01*
X012904Y028619D01*
X012860Y028643D01*
X012819Y028670D01*
X012779Y028700D01*
X012742Y028734D01*
X012708Y028770D01*
X012677Y028809D01*
X012649Y028850D01*
X012625Y028893D01*
X012604Y028938D01*
X012586Y028985D01*
X012573Y029032D01*
X012563Y029081D01*
X012557Y029130D01*
X012555Y029180D01*
X040555Y031180D02*
X040557Y031230D01*
X040563Y031279D01*
X040573Y031328D01*
X040586Y031375D01*
X040604Y031422D01*
X040625Y031467D01*
X040649Y031510D01*
X040677Y031551D01*
X040708Y031590D01*
X040742Y031626D01*
X040779Y031660D01*
X040819Y031690D01*
X040860Y031717D01*
X040904Y031741D01*
X040949Y031761D01*
X040996Y031777D01*
X041044Y031790D01*
X041093Y031799D01*
X041143Y031804D01*
X041192Y031805D01*
X041242Y031802D01*
X041291Y031795D01*
X041340Y031784D01*
X041387Y031770D01*
X041433Y031751D01*
X041478Y031729D01*
X041521Y031704D01*
X041561Y031675D01*
X041599Y031643D01*
X041635Y031609D01*
X041668Y031571D01*
X041697Y031531D01*
X041723Y031489D01*
X041746Y031445D01*
X041765Y031399D01*
X041781Y031352D01*
X041793Y031303D01*
X041801Y031254D01*
X041805Y031205D01*
X041805Y031155D01*
X041801Y031106D01*
X041793Y031057D01*
X041781Y031008D01*
X041765Y030961D01*
X041746Y030915D01*
X041723Y030871D01*
X041697Y030829D01*
X041668Y030789D01*
X041635Y030751D01*
X041599Y030717D01*
X041561Y030685D01*
X041521Y030656D01*
X041478Y030631D01*
X041433Y030609D01*
X041387Y030590D01*
X041340Y030576D01*
X041291Y030565D01*
X041242Y030558D01*
X041192Y030555D01*
X041143Y030556D01*
X041093Y030561D01*
X041044Y030570D01*
X040996Y030583D01*
X040949Y030599D01*
X040904Y030619D01*
X040860Y030643D01*
X040819Y030670D01*
X040779Y030700D01*
X040742Y030734D01*
X040708Y030770D01*
X040677Y030809D01*
X040649Y030850D01*
X040625Y030893D01*
X040604Y030938D01*
X040586Y030985D01*
X040573Y031032D01*
X040563Y031081D01*
X040557Y031130D01*
X040555Y031180D01*
D11*
X008860Y005180D03*
X007300Y005180D03*
X005740Y005180D03*
X004180Y005180D03*
D12*
X003180Y018511D03*
X003180Y019889D03*
D13*
X005345Y029680D03*
X006015Y029680D03*
X007845Y031180D03*
X008515Y031180D03*
X003515Y031680D03*
X002845Y031680D03*
X026345Y027680D03*
X027015Y027680D03*
X029345Y027680D03*
X030015Y027680D03*
X027015Y003680D03*
X026345Y003680D03*
D14*
X029180Y003420D02*
X029180Y003940D01*
X030180Y003940D02*
X030180Y003420D01*
X031180Y003420D02*
X031180Y003940D01*
X030200Y024180D02*
X029680Y024180D01*
X029680Y025180D02*
X030200Y025180D01*
X026680Y025180D02*
X026160Y025180D01*
X026160Y024180D02*
X026680Y024180D01*
X027920Y029680D02*
X028440Y029680D01*
X028440Y030680D02*
X027920Y030680D01*
X027920Y031680D02*
X028440Y031680D01*
X010440Y030680D02*
X009920Y030680D01*
X009920Y029680D02*
X010440Y029680D01*
X010440Y028680D02*
X009920Y028680D01*
X008680Y025940D02*
X008680Y025420D01*
X007680Y025420D02*
X007680Y025940D01*
X006680Y025940D02*
X006680Y025420D01*
X004180Y024680D02*
X004180Y024160D01*
X003180Y024160D02*
X003180Y024680D01*
X003180Y027680D02*
X003180Y028200D01*
X004180Y028200D02*
X004180Y027680D01*
D15*
X015180Y024680D03*
X019180Y027680D03*
X022680Y025180D03*
X018180Y020180D03*
X019180Y013180D03*
X022680Y008180D03*
X019180Y005180D03*
X015180Y008180D03*
X033180Y007680D03*
X036680Y004180D03*
X040180Y007680D03*
X037180Y013180D03*
X036180Y020180D03*
X033180Y025180D03*
X036180Y028680D03*
X040180Y025180D03*
D16*
X031180Y018680D03*
X031180Y014680D03*
X013180Y014680D03*
X013180Y018680D03*
D17*
X003680Y014180D03*
X003680Y012180D03*
X026180Y014680D03*
X026180Y016680D03*
D18*
X026150Y016690D01*
X026040Y016690D01*
X024720Y018010D01*
X014105Y018010D01*
X013445Y018670D01*
X013225Y018670D01*
X013180Y018680D01*
X007680Y025680D02*
X007670Y025710D01*
X007670Y026095D01*
X006020Y027745D01*
X006020Y029670D01*
X006015Y029680D01*
X005345Y029680D02*
X005305Y029670D01*
X004755Y029670D01*
X003545Y028845D02*
X004150Y028240D01*
X004150Y027690D01*
X004180Y027680D01*
X003545Y028845D02*
X003545Y031650D01*
X003515Y031680D01*
X002845Y031680D02*
X002830Y031650D01*
X002830Y031045D01*
X007835Y031155D02*
X007835Y030550D01*
X007835Y031155D02*
X007845Y031180D01*
X008515Y031180D02*
X008550Y031210D01*
X008935Y031210D01*
X009100Y031375D01*
X003325Y019880D02*
X004150Y019055D01*
X004150Y014655D01*
X003710Y014215D01*
X003680Y014180D01*
X003325Y019880D02*
X003215Y019880D01*
X003180Y019889D01*
X025765Y027690D02*
X026315Y027690D01*
X026345Y027680D01*
X027015Y027680D02*
X027030Y027635D01*
X027030Y026260D01*
X026425Y025655D01*
X026425Y025380D01*
X026645Y025160D01*
X026680Y025180D01*
X029680Y024180D02*
X029725Y024225D01*
X030220Y024225D01*
X030880Y024885D01*
X030880Y025490D01*
X030000Y026370D01*
X030000Y027635D01*
X030015Y027680D01*
X029395Y027690D02*
X029345Y027680D01*
X029395Y027690D02*
X029395Y028240D01*
X030055Y028900D01*
X029505Y004645D02*
X028900Y004645D01*
X027965Y003710D01*
X027030Y003710D01*
X027015Y003680D01*
X026345Y003680D02*
X026315Y003655D01*
X025765Y003655D01*
X029505Y004645D02*
X030165Y003985D01*
X030165Y003710D01*
X030180Y003680D01*
D19*
X025765Y003655D03*
X025765Y027690D03*
X030055Y028900D03*
X009100Y031375D03*
X007835Y030550D03*
X004755Y029670D03*
X002830Y031045D03*
D20*
X003175Y031205D02*
X003176Y031205D01*
X003180Y031209D01*
X003184Y031205D01*
X003305Y031205D01*
X003305Y028797D01*
X003342Y028709D01*
X003747Y028304D01*
X003740Y028288D01*
X003740Y027592D01*
X003807Y027431D01*
X003931Y027307D01*
X004092Y027240D01*
X004268Y027240D01*
X004429Y027307D01*
X004553Y027431D01*
X004620Y027592D01*
X004620Y028288D01*
X004553Y028449D01*
X004429Y028573D01*
X004268Y028640D01*
X004092Y028640D01*
X004090Y028639D01*
X003785Y028944D01*
X003785Y031205D01*
X003845Y031205D01*
X003951Y031310D01*
X003951Y032050D01*
X003845Y032155D01*
X003184Y032155D01*
X003180Y032151D01*
X003176Y032155D01*
X002515Y032155D01*
X002409Y032050D01*
X002409Y031310D01*
X002494Y031226D01*
X002450Y031121D01*
X002450Y030969D01*
X002508Y030830D01*
X002615Y030723D01*
X002754Y030665D01*
X002906Y030665D01*
X003045Y030723D01*
X003152Y030830D01*
X003210Y030969D01*
X003210Y031121D01*
X003175Y031205D01*
X003203Y031137D02*
X003305Y031137D01*
X003305Y030978D02*
X003210Y030978D01*
X003142Y030820D02*
X003305Y030820D01*
X003305Y030661D02*
X001660Y030661D01*
X001660Y030503D02*
X003305Y030503D01*
X003305Y030344D02*
X001660Y030344D01*
X001660Y030186D02*
X003305Y030186D01*
X003305Y030027D02*
X001660Y030027D01*
X001660Y029869D02*
X003305Y029869D01*
X003305Y029710D02*
X001660Y029710D01*
X001660Y029552D02*
X003305Y029552D01*
X003305Y029393D02*
X001660Y029393D01*
X001660Y029235D02*
X003305Y029235D01*
X003305Y029076D02*
X001660Y029076D01*
X001660Y028918D02*
X003305Y028918D01*
X003321Y028759D02*
X001660Y028759D01*
X001660Y028601D02*
X002997Y028601D01*
X002931Y028573D02*
X002807Y028449D01*
X002740Y028288D01*
X002740Y027592D01*
X002807Y027431D01*
X002931Y027307D01*
X003092Y027240D01*
X003268Y027240D01*
X003429Y027307D01*
X003553Y027431D01*
X003620Y027592D01*
X003620Y028288D01*
X003553Y028449D01*
X003429Y028573D01*
X003268Y028640D01*
X003092Y028640D01*
X002931Y028573D01*
X002804Y028442D02*
X001660Y028442D01*
X001660Y028284D02*
X002740Y028284D01*
X002740Y028125D02*
X001660Y028125D01*
X001660Y027967D02*
X002740Y027967D01*
X002740Y027808D02*
X001660Y027808D01*
X001660Y027650D02*
X002740Y027650D01*
X002782Y027491D02*
X001660Y027491D01*
X001660Y027333D02*
X002905Y027333D01*
X003455Y027333D02*
X003905Y027333D01*
X003782Y027491D02*
X003578Y027491D01*
X003620Y027650D02*
X003740Y027650D01*
X003740Y027808D02*
X003620Y027808D01*
X003620Y027967D02*
X003740Y027967D01*
X003740Y028125D02*
X003620Y028125D01*
X003620Y028284D02*
X003740Y028284D01*
X003609Y028442D02*
X003556Y028442D01*
X003450Y028601D02*
X003363Y028601D01*
X003812Y028918D02*
X005780Y028918D01*
X005780Y029076D02*
X003785Y029076D01*
X003785Y029235D02*
X004985Y029235D01*
X005015Y029205D02*
X005676Y029205D01*
X005680Y029209D01*
X005684Y029205D01*
X005780Y029205D01*
X005780Y027697D01*
X005817Y027609D01*
X007286Y026139D01*
X007240Y026028D01*
X007240Y025332D01*
X007307Y025171D01*
X007431Y025047D01*
X007592Y024980D01*
X007768Y024980D01*
X007929Y025047D01*
X008053Y025171D01*
X008120Y025332D01*
X008120Y026028D01*
X008053Y026189D01*
X007929Y026313D01*
X007768Y026380D01*
X007724Y026380D01*
X006260Y027844D01*
X006260Y029205D01*
X006345Y029205D01*
X006451Y029310D01*
X006451Y030050D01*
X006345Y030155D01*
X005684Y030155D01*
X005680Y030151D01*
X005676Y030155D01*
X005015Y030155D01*
X004909Y030050D01*
X004909Y030017D01*
X004831Y030050D01*
X004679Y030050D01*
X004540Y029992D01*
X004433Y029885D01*
X004375Y029746D01*
X004375Y029594D01*
X004433Y029455D01*
X004540Y029348D01*
X004679Y029290D01*
X004831Y029290D01*
X004909Y029323D01*
X004909Y029310D01*
X005015Y029205D01*
X004495Y029393D02*
X003785Y029393D01*
X003785Y029552D02*
X004393Y029552D01*
X004375Y029710D02*
X003785Y029710D01*
X003785Y029869D02*
X004426Y029869D01*
X004624Y030027D02*
X003785Y030027D01*
X003785Y030186D02*
X007722Y030186D01*
X007759Y030170D02*
X007911Y030170D01*
X008050Y030228D01*
X008157Y030335D01*
X008215Y030474D01*
X008215Y030626D01*
X008181Y030708D01*
X008184Y030705D01*
X008845Y030705D01*
X008951Y030810D01*
X008951Y030970D01*
X008983Y030970D01*
X009043Y030995D01*
X009176Y030995D01*
X009315Y031053D01*
X009422Y031160D01*
X009480Y031299D01*
X009480Y031451D01*
X009422Y031590D01*
X009315Y031697D01*
X009176Y031755D01*
X009024Y031755D01*
X008885Y031697D01*
X008843Y031655D01*
X008184Y031655D01*
X008180Y031651D01*
X008176Y031655D01*
X007515Y031655D01*
X007409Y031550D01*
X007409Y030810D01*
X007496Y030724D01*
X007455Y030626D01*
X007455Y030474D01*
X007513Y030335D01*
X007620Y030228D01*
X007759Y030170D01*
X007948Y030186D02*
X012712Y030186D01*
X012753Y030210D02*
X012502Y030064D01*
X012296Y029858D01*
X012150Y029607D01*
X012075Y029325D01*
X012075Y029035D01*
X012150Y028753D01*
X012296Y028502D01*
X012502Y028296D01*
X012753Y028150D01*
X013035Y028075D01*
X013325Y028075D01*
X013607Y028150D01*
X013858Y028296D01*
X014064Y028502D01*
X014210Y028753D01*
X014285Y029035D01*
X014285Y029325D01*
X014210Y029607D01*
X014064Y029858D01*
X013858Y030064D01*
X013607Y030210D01*
X013325Y030285D01*
X013035Y030285D01*
X012753Y030210D01*
X012464Y030027D02*
X010715Y030027D01*
X010689Y030053D02*
X010528Y030120D01*
X009832Y030120D01*
X009671Y030053D01*
X009547Y029929D01*
X009480Y029768D01*
X009480Y029592D01*
X009547Y029431D01*
X009671Y029307D01*
X009832Y029240D01*
X010528Y029240D01*
X010689Y029307D01*
X010813Y029431D01*
X010880Y029592D01*
X010880Y029768D01*
X010813Y029929D01*
X010689Y030053D01*
X010838Y029869D02*
X012306Y029869D01*
X012210Y029710D02*
X010880Y029710D01*
X010863Y029552D02*
X012136Y029552D01*
X012093Y029393D02*
X010775Y029393D01*
X010609Y029088D02*
X010543Y029109D01*
X010475Y029120D01*
X010180Y029120D01*
X010180Y028680D01*
X010180Y028680D01*
X010880Y028680D01*
X010880Y028715D01*
X010869Y028783D01*
X010848Y028849D01*
X010816Y028911D01*
X010776Y028967D01*
X010727Y029016D01*
X010671Y029056D01*
X010609Y029088D01*
X010632Y029076D02*
X012075Y029076D01*
X012075Y029235D02*
X006375Y029235D01*
X006451Y029393D02*
X009585Y029393D01*
X009497Y029552D02*
X006451Y029552D01*
X006451Y029710D02*
X009480Y029710D01*
X009522Y029869D02*
X006451Y029869D01*
X006451Y030027D02*
X009645Y030027D01*
X009671Y030307D02*
X009832Y030240D01*
X010528Y030240D01*
X010689Y030307D01*
X010813Y030431D01*
X010880Y030592D01*
X010880Y030768D01*
X010813Y030929D01*
X010689Y031053D01*
X010528Y031120D01*
X009832Y031120D01*
X009671Y031053D01*
X009547Y030929D01*
X009480Y030768D01*
X009480Y030592D01*
X009547Y030431D01*
X009671Y030307D01*
X009634Y030344D02*
X008161Y030344D01*
X008215Y030503D02*
X009517Y030503D01*
X009480Y030661D02*
X008200Y030661D01*
X007470Y030661D02*
X003785Y030661D01*
X003785Y030503D02*
X007455Y030503D01*
X007509Y030344D02*
X003785Y030344D01*
X003785Y030820D02*
X007409Y030820D01*
X007409Y030978D02*
X003785Y030978D01*
X003785Y031137D02*
X007409Y031137D01*
X007409Y031295D02*
X003935Y031295D01*
X003951Y031454D02*
X007409Y031454D01*
X007472Y031612D02*
X003951Y031612D01*
X003951Y031771D02*
X027481Y031771D01*
X027480Y031768D02*
X027480Y031592D01*
X027547Y031431D01*
X027671Y031307D01*
X027832Y031240D01*
X028528Y031240D01*
X028689Y031307D01*
X028813Y031431D01*
X028880Y031592D01*
X028880Y031768D01*
X028813Y031929D01*
X040366Y031929D01*
X040296Y031858D02*
X040150Y031607D01*
X040075Y031325D01*
X040075Y031035D01*
X040150Y030753D01*
X040296Y030502D01*
X040502Y030296D01*
X040753Y030150D01*
X041035Y030075D01*
X041325Y030075D01*
X041607Y030150D01*
X041858Y030296D01*
X042064Y030502D01*
X042210Y030753D01*
X042285Y031035D01*
X042285Y031325D01*
X042210Y031607D01*
X042064Y031858D01*
X041858Y032064D01*
X041607Y032210D01*
X041325Y032285D01*
X041035Y032285D01*
X040753Y032210D01*
X040502Y032064D01*
X040296Y031858D01*
X040245Y031771D02*
X028879Y031771D01*
X028880Y031612D02*
X040153Y031612D01*
X040109Y031454D02*
X028822Y031454D01*
X028660Y031295D02*
X040075Y031295D01*
X040075Y031137D02*
X009399Y031137D01*
X009478Y031295D02*
X027700Y031295D01*
X027832Y031120D02*
X027671Y031053D01*
X027547Y030929D01*
X027480Y030768D01*
X027480Y030592D01*
X027547Y030431D01*
X027671Y030307D01*
X027832Y030240D01*
X028528Y030240D01*
X028689Y030307D01*
X028813Y030431D01*
X028880Y030592D01*
X028880Y030768D01*
X028813Y030929D01*
X028689Y031053D01*
X028528Y031120D01*
X027832Y031120D01*
X027596Y030978D02*
X010764Y030978D01*
X010858Y030820D02*
X027502Y030820D01*
X027480Y030661D02*
X010880Y030661D01*
X010843Y030503D02*
X027517Y030503D01*
X027634Y030344D02*
X010726Y030344D01*
X009596Y030978D02*
X009002Y030978D01*
X008951Y030820D02*
X009502Y030820D01*
X009479Y031454D02*
X027538Y031454D01*
X027480Y031612D02*
X009400Y031612D01*
X009817Y029109D02*
X009885Y029120D01*
X010180Y029120D01*
X010180Y028680D01*
X010180Y028680D01*
X010880Y028680D01*
X010880Y028645D01*
X010869Y028577D01*
X010848Y028511D01*
X010816Y028449D01*
X010776Y028393D01*
X010727Y028344D01*
X010671Y028304D01*
X010609Y028272D01*
X010543Y028251D01*
X010475Y028240D01*
X010180Y028240D01*
X010180Y028680D01*
X010180Y028680D01*
X010180Y028680D01*
X009480Y028680D01*
X009480Y028715D01*
X009491Y028783D01*
X009512Y028849D01*
X009544Y028911D01*
X009584Y028967D01*
X009633Y029016D01*
X009689Y029056D01*
X009751Y029088D01*
X009817Y029109D01*
X009728Y029076D02*
X006260Y029076D01*
X006260Y028918D02*
X009549Y028918D01*
X009487Y028759D02*
X006260Y028759D01*
X006260Y028601D02*
X009487Y028601D01*
X009491Y028577D02*
X009512Y028511D01*
X009544Y028449D01*
X009584Y028393D01*
X009633Y028344D01*
X009689Y028304D01*
X009751Y028272D01*
X009817Y028251D01*
X009885Y028240D01*
X010180Y028240D01*
X010180Y028680D01*
X009480Y028680D01*
X009480Y028645D01*
X009491Y028577D01*
X009549Y028442D02*
X006260Y028442D01*
X006260Y028284D02*
X009729Y028284D01*
X010180Y028284D02*
X010180Y028284D01*
X010180Y028442D02*
X010180Y028442D01*
X010180Y028601D02*
X010180Y028601D01*
X010180Y028759D02*
X010180Y028759D01*
X010180Y028918D02*
X010180Y028918D01*
X010180Y029076D02*
X010180Y029076D01*
X010811Y028918D02*
X012106Y028918D01*
X012149Y028759D02*
X010873Y028759D01*
X010873Y028601D02*
X012239Y028601D01*
X012355Y028442D02*
X010811Y028442D01*
X010631Y028284D02*
X012523Y028284D01*
X012848Y028125D02*
X006260Y028125D01*
X006260Y027967D02*
X017285Y027967D01*
X017275Y027931D02*
X017275Y027429D01*
X017405Y026945D01*
X017656Y026510D01*
X018010Y026156D01*
X018445Y025905D01*
X018929Y025775D01*
X019431Y025775D01*
X019915Y025905D01*
X020350Y026156D01*
X020704Y026510D01*
X020955Y026945D01*
X021085Y027429D01*
X021085Y027931D01*
X020955Y028415D01*
X020704Y028850D01*
X020350Y029204D01*
X019915Y029455D01*
X019431Y029585D01*
X018929Y029585D01*
X018445Y029455D01*
X018010Y029204D01*
X017656Y028850D01*
X017405Y028415D01*
X017275Y027931D01*
X017275Y027808D02*
X006296Y027808D01*
X006455Y027650D02*
X017275Y027650D01*
X017275Y027491D02*
X006613Y027491D01*
X006772Y027333D02*
X017301Y027333D01*
X017343Y027174D02*
X006930Y027174D01*
X007089Y027016D02*
X017386Y027016D01*
X017455Y026857D02*
X007247Y026857D01*
X007406Y026699D02*
X017547Y026699D01*
X017638Y026540D02*
X015599Y026540D01*
X015431Y026585D02*
X015915Y026455D01*
X016350Y026204D01*
X016704Y025850D01*
X016955Y025415D01*
X017085Y024931D01*
X017085Y024429D01*
X016955Y023945D01*
X016704Y023510D01*
X016350Y023156D01*
X015915Y022905D01*
X015431Y022775D01*
X014929Y022775D01*
X014445Y022905D01*
X014010Y023156D01*
X013656Y023510D01*
X013405Y023945D01*
X013275Y024429D01*
X013275Y024931D01*
X013405Y025415D01*
X013656Y025850D01*
X014010Y026204D01*
X014445Y026455D01*
X014929Y026585D01*
X015431Y026585D01*
X014761Y026540D02*
X007564Y026540D01*
X007723Y026382D02*
X014317Y026382D01*
X014043Y026223D02*
X009019Y026223D01*
X009053Y026189D02*
X008929Y026313D01*
X008768Y026380D01*
X008592Y026380D01*
X008431Y026313D01*
X008307Y026189D01*
X008240Y026028D01*
X008240Y025332D01*
X008307Y025171D01*
X008431Y025047D01*
X008592Y024980D01*
X008768Y024980D01*
X008929Y025047D01*
X009053Y025171D01*
X009120Y025332D01*
X009120Y026028D01*
X009053Y026189D01*
X009105Y026065D02*
X013870Y026065D01*
X013712Y025906D02*
X009120Y025906D01*
X009120Y025748D02*
X013597Y025748D01*
X013505Y025589D02*
X009120Y025589D01*
X009120Y025431D02*
X013414Y025431D01*
X013366Y025272D02*
X009095Y025272D01*
X008996Y025114D02*
X013324Y025114D01*
X013281Y024955D02*
X004527Y024955D01*
X004553Y024929D02*
X004429Y025053D01*
X004268Y025120D01*
X004092Y025120D01*
X003931Y025053D01*
X003807Y024929D01*
X003740Y024768D01*
X003740Y024072D01*
X003807Y023911D01*
X003931Y023787D01*
X004092Y023720D01*
X004268Y023720D01*
X004429Y023787D01*
X004553Y023911D01*
X004620Y024072D01*
X004620Y024768D01*
X004553Y024929D01*
X004608Y024797D02*
X013275Y024797D01*
X013275Y024638D02*
X004620Y024638D01*
X004620Y024480D02*
X013275Y024480D01*
X013304Y024321D02*
X004620Y024321D01*
X004620Y024163D02*
X013346Y024163D01*
X013389Y024004D02*
X004592Y024004D01*
X004488Y023846D02*
X013462Y023846D01*
X013554Y023687D02*
X001660Y023687D01*
X001660Y023529D02*
X013645Y023529D01*
X013796Y023370D02*
X001660Y023370D01*
X001660Y023212D02*
X013954Y023212D01*
X014188Y023053D02*
X001660Y023053D01*
X001660Y022895D02*
X014483Y022895D01*
X015877Y022895D02*
X042700Y022895D01*
X042700Y023053D02*
X016172Y023053D01*
X016406Y023212D02*
X042700Y023212D01*
X042700Y023370D02*
X040785Y023370D01*
X040915Y023405D02*
X040431Y023275D01*
X039929Y023275D01*
X039445Y023405D01*
X039010Y023656D01*
X038656Y024010D01*
X038405Y024445D01*
X038275Y024929D01*
X038275Y025431D01*
X038405Y025915D01*
X038656Y026350D01*
X039010Y026704D01*
X039445Y026955D01*
X039929Y027085D01*
X040431Y027085D01*
X040915Y026955D01*
X041350Y026704D01*
X041704Y026350D01*
X041955Y025915D01*
X042085Y025431D01*
X042085Y024929D01*
X041955Y024445D01*
X041704Y024010D01*
X041350Y023656D01*
X040915Y023405D01*
X041130Y023529D02*
X042700Y023529D01*
X042700Y023687D02*
X041381Y023687D01*
X041540Y023846D02*
X042700Y023846D01*
X042700Y024004D02*
X041698Y024004D01*
X041792Y024163D02*
X042700Y024163D01*
X042700Y024321D02*
X041884Y024321D01*
X041965Y024480D02*
X042700Y024480D01*
X042700Y024638D02*
X042007Y024638D01*
X042049Y024797D02*
X042700Y024797D01*
X042700Y024955D02*
X042085Y024955D01*
X042085Y025114D02*
X042700Y025114D01*
X042700Y025272D02*
X042085Y025272D01*
X042085Y025431D02*
X042700Y025431D01*
X042700Y025589D02*
X042043Y025589D01*
X042000Y025748D02*
X042700Y025748D01*
X042700Y025906D02*
X041958Y025906D01*
X041869Y026065D02*
X042700Y026065D01*
X042700Y026223D02*
X041778Y026223D01*
X041673Y026382D02*
X042700Y026382D01*
X042700Y026540D02*
X041514Y026540D01*
X041356Y026699D02*
X042700Y026699D01*
X042700Y026857D02*
X041085Y026857D01*
X040690Y027016D02*
X042700Y027016D01*
X042700Y027174D02*
X037368Y027174D01*
X037350Y027156D02*
X037704Y027510D01*
X037955Y027945D01*
X038085Y028429D01*
X038085Y028931D01*
X037955Y029415D01*
X037704Y029850D01*
X037350Y030204D01*
X036915Y030455D01*
X036431Y030585D01*
X035929Y030585D01*
X035445Y030455D01*
X035010Y030204D01*
X034656Y029850D01*
X034405Y029415D01*
X034275Y028931D01*
X034275Y028429D01*
X034405Y027945D01*
X034656Y027510D01*
X035010Y027156D01*
X035445Y026905D01*
X035929Y026775D01*
X036431Y026775D01*
X036915Y026905D01*
X037350Y027156D01*
X037527Y027333D02*
X042700Y027333D01*
X042700Y027491D02*
X037685Y027491D01*
X037785Y027650D02*
X042700Y027650D01*
X042700Y027808D02*
X037876Y027808D01*
X037961Y027967D02*
X042700Y027967D01*
X042700Y028125D02*
X038003Y028125D01*
X038046Y028284D02*
X042700Y028284D01*
X042700Y028442D02*
X038085Y028442D01*
X038085Y028601D02*
X042700Y028601D01*
X042700Y028759D02*
X038085Y028759D01*
X038085Y028918D02*
X042700Y028918D01*
X042700Y029076D02*
X038046Y029076D01*
X038004Y029235D02*
X042700Y029235D01*
X042700Y029393D02*
X037961Y029393D01*
X037877Y029552D02*
X042700Y029552D01*
X042700Y029710D02*
X037785Y029710D01*
X037686Y029869D02*
X042700Y029869D01*
X042700Y030027D02*
X037527Y030027D01*
X037369Y030186D02*
X040692Y030186D01*
X040453Y030344D02*
X037108Y030344D01*
X036739Y030503D02*
X040295Y030503D01*
X040204Y030661D02*
X028880Y030661D01*
X028858Y030820D02*
X040133Y030820D01*
X040090Y030978D02*
X028764Y030978D01*
X028843Y030503D02*
X035621Y030503D01*
X035252Y030344D02*
X028726Y030344D01*
X028689Y030053D02*
X028528Y030120D01*
X027832Y030120D01*
X027671Y030053D01*
X027547Y029929D01*
X027480Y029768D01*
X027480Y029592D01*
X027547Y029431D01*
X027671Y029307D01*
X027832Y029240D01*
X028528Y029240D01*
X028689Y029307D01*
X028813Y029431D01*
X028880Y029592D01*
X028880Y029768D01*
X028813Y029929D01*
X028689Y030053D01*
X028715Y030027D02*
X034833Y030027D01*
X034674Y029869D02*
X028838Y029869D01*
X028880Y029710D02*
X034575Y029710D01*
X034483Y029552D02*
X028863Y029552D01*
X028775Y029393D02*
X034399Y029393D01*
X034356Y029235D02*
X030240Y029235D01*
X030270Y029222D02*
X030131Y029280D01*
X029979Y029280D01*
X029840Y029222D01*
X029733Y029115D01*
X029675Y028976D01*
X029675Y028859D01*
X029192Y028376D01*
X029155Y028288D01*
X029155Y028155D01*
X029015Y028155D01*
X028909Y028050D01*
X028909Y027310D01*
X029015Y027205D01*
X029676Y027205D01*
X029680Y027209D01*
X029684Y027205D01*
X029760Y027205D01*
X029760Y026322D01*
X029797Y026234D01*
X030640Y025391D01*
X030640Y024984D01*
X030276Y024620D01*
X029592Y024620D01*
X029431Y024553D01*
X029307Y024429D01*
X029240Y024268D01*
X029240Y024092D01*
X029307Y023931D01*
X029431Y023807D01*
X029592Y023740D01*
X030288Y023740D01*
X030449Y023807D01*
X030573Y023931D01*
X030640Y024092D01*
X030640Y024268D01*
X030629Y024294D01*
X031083Y024749D01*
X031120Y024837D01*
X031120Y025538D01*
X031083Y025626D01*
X031016Y025693D01*
X030240Y026469D01*
X030240Y027205D01*
X030345Y027205D01*
X030451Y027310D01*
X030451Y028050D01*
X030345Y028155D01*
X029684Y028155D01*
X029680Y028151D01*
X029676Y028155D01*
X029650Y028155D01*
X030014Y028520D01*
X030131Y028520D01*
X030270Y028578D01*
X030377Y028685D01*
X030435Y028824D01*
X030435Y028976D01*
X030377Y029115D01*
X030270Y029222D01*
X030393Y029076D02*
X034314Y029076D01*
X034275Y028918D02*
X030435Y028918D01*
X030408Y028759D02*
X034275Y028759D01*
X034275Y028601D02*
X030293Y028601D01*
X029936Y028442D02*
X034275Y028442D01*
X034314Y028284D02*
X029778Y028284D01*
X029416Y028601D02*
X020848Y028601D01*
X020757Y028759D02*
X029575Y028759D01*
X029675Y028918D02*
X020637Y028918D01*
X020478Y029076D02*
X029717Y029076D01*
X029870Y029235D02*
X020297Y029235D01*
X020023Y029393D02*
X027585Y029393D01*
X027497Y029552D02*
X019556Y029552D01*
X018804Y029552D02*
X014224Y029552D01*
X014267Y029393D02*
X018337Y029393D01*
X018063Y029235D02*
X014285Y029235D01*
X014285Y029076D02*
X017882Y029076D01*
X017723Y028918D02*
X014254Y028918D01*
X014211Y028759D02*
X017603Y028759D01*
X017512Y028601D02*
X014121Y028601D01*
X014005Y028442D02*
X017420Y028442D01*
X017370Y028284D02*
X013837Y028284D01*
X013512Y028125D02*
X017327Y028125D01*
X017784Y026382D02*
X016043Y026382D01*
X016317Y026223D02*
X017943Y026223D01*
X018168Y026065D02*
X016490Y026065D01*
X016648Y025906D02*
X018443Y025906D01*
X019917Y025906D02*
X020902Y025906D01*
X020905Y025915D02*
X020775Y025431D01*
X020775Y024929D01*
X020905Y024445D01*
X021156Y024010D01*
X021510Y023656D01*
X021945Y023405D01*
X022429Y023275D01*
X022931Y023275D01*
X023415Y023405D01*
X023850Y023656D01*
X024204Y024010D01*
X024455Y024445D01*
X024585Y024929D01*
X024585Y025431D01*
X024455Y025915D01*
X024204Y026350D01*
X023850Y026704D01*
X023415Y026955D01*
X022931Y027085D01*
X022429Y027085D01*
X021945Y026955D01*
X021510Y026704D01*
X021156Y026350D01*
X020905Y025915D01*
X020991Y026065D02*
X020192Y026065D01*
X020417Y026223D02*
X021082Y026223D01*
X021187Y026382D02*
X020576Y026382D01*
X020722Y026540D02*
X021346Y026540D01*
X021504Y026699D02*
X020813Y026699D01*
X020905Y026857D02*
X021775Y026857D01*
X022170Y027016D02*
X020974Y027016D01*
X021017Y027174D02*
X026790Y027174D01*
X026790Y027205D02*
X026790Y026359D01*
X026289Y025858D01*
X026222Y025791D01*
X026185Y025703D01*
X026185Y025620D01*
X026072Y025620D01*
X025911Y025553D01*
X025787Y025429D01*
X025720Y025268D01*
X025720Y025092D01*
X025787Y024931D01*
X025911Y024807D01*
X026072Y024740D01*
X026768Y024740D01*
X026929Y024807D01*
X027053Y024931D01*
X027120Y025092D01*
X027120Y025268D01*
X027053Y025429D01*
X026929Y025553D01*
X026768Y025620D01*
X026729Y025620D01*
X027233Y026124D01*
X027270Y026212D01*
X027270Y027205D01*
X027345Y027205D01*
X027451Y027310D01*
X027451Y028050D01*
X027345Y028155D01*
X026684Y028155D01*
X026680Y028151D01*
X026676Y028155D01*
X026015Y028155D01*
X025909Y028050D01*
X025909Y028041D01*
X025841Y028070D01*
X025689Y028070D01*
X025550Y028012D01*
X025443Y027905D01*
X025385Y027766D01*
X025385Y027614D01*
X025443Y027475D01*
X025550Y027368D01*
X025689Y027310D01*
X025841Y027310D01*
X025909Y027339D01*
X025909Y027310D01*
X026015Y027205D01*
X026676Y027205D01*
X026680Y027209D01*
X026684Y027205D01*
X026790Y027205D01*
X026790Y027016D02*
X023190Y027016D01*
X023585Y026857D02*
X026790Y026857D01*
X026790Y026699D02*
X023856Y026699D01*
X024014Y026540D02*
X026790Y026540D01*
X026790Y026382D02*
X024173Y026382D01*
X024278Y026223D02*
X026654Y026223D01*
X026495Y026065D02*
X024369Y026065D01*
X024458Y025906D02*
X026337Y025906D01*
X026204Y025748D02*
X024500Y025748D01*
X024543Y025589D02*
X025998Y025589D01*
X025788Y025431D02*
X024585Y025431D01*
X024585Y025272D02*
X025722Y025272D01*
X025720Y025114D02*
X024585Y025114D01*
X024585Y024955D02*
X025777Y024955D01*
X025936Y024797D02*
X024549Y024797D01*
X024507Y024638D02*
X030294Y024638D01*
X030288Y024740D02*
X030449Y024807D01*
X030573Y024931D01*
X030640Y025092D01*
X030640Y025268D01*
X030573Y025429D01*
X030449Y025553D01*
X030288Y025620D01*
X029592Y025620D01*
X029431Y025553D01*
X029307Y025429D01*
X029240Y025268D01*
X029240Y025092D01*
X029307Y024931D01*
X029431Y024807D01*
X029592Y024740D01*
X030288Y024740D01*
X030424Y024797D02*
X030452Y024797D01*
X030583Y024955D02*
X030611Y024955D01*
X030640Y025114D02*
X030640Y025114D01*
X030638Y025272D02*
X030640Y025272D01*
X030600Y025431D02*
X030572Y025431D01*
X030442Y025589D02*
X030362Y025589D01*
X030283Y025748D02*
X026857Y025748D01*
X026842Y025589D02*
X029518Y025589D01*
X029308Y025431D02*
X027052Y025431D01*
X027118Y025272D02*
X029242Y025272D01*
X029240Y025114D02*
X027120Y025114D01*
X027063Y024955D02*
X029297Y024955D01*
X029456Y024797D02*
X026904Y024797D01*
X026768Y024620D02*
X026072Y024620D01*
X025911Y024553D01*
X025787Y024429D01*
X025720Y024268D01*
X025720Y024092D01*
X025787Y023931D01*
X025911Y023807D01*
X026072Y023740D01*
X026768Y023740D01*
X026929Y023807D01*
X027053Y023931D01*
X027120Y024092D01*
X027120Y024268D01*
X027053Y024429D01*
X026929Y024553D01*
X026768Y024620D01*
X027003Y024480D02*
X029357Y024480D01*
X029262Y024321D02*
X027098Y024321D01*
X027120Y024163D02*
X029240Y024163D01*
X029277Y024004D02*
X027083Y024004D01*
X026968Y023846D02*
X029392Y023846D01*
X030488Y023846D02*
X031820Y023846D01*
X031662Y024004D02*
X030603Y024004D01*
X030640Y024163D02*
X031568Y024163D01*
X031656Y024010D02*
X031405Y024445D01*
X031275Y024929D01*
X031275Y025431D01*
X031405Y025915D01*
X031656Y026350D01*
X032010Y026704D01*
X032445Y026955D01*
X032929Y027085D01*
X033431Y027085D01*
X033915Y026955D01*
X034350Y026704D01*
X034704Y026350D01*
X034955Y025915D01*
X035085Y025431D01*
X035085Y024929D01*
X034955Y024445D01*
X034704Y024010D01*
X034350Y023656D01*
X033915Y023405D01*
X033431Y023275D01*
X032929Y023275D01*
X032445Y023405D01*
X032010Y023656D01*
X031656Y024010D01*
X031476Y024321D02*
X030655Y024321D01*
X030814Y024480D02*
X031395Y024480D01*
X031353Y024638D02*
X030972Y024638D01*
X031103Y024797D02*
X031311Y024797D01*
X031275Y024955D02*
X031120Y024955D01*
X031120Y025114D02*
X031275Y025114D01*
X031275Y025272D02*
X031120Y025272D01*
X031120Y025431D02*
X031275Y025431D01*
X031317Y025589D02*
X031099Y025589D01*
X031016Y025693D02*
X031016Y025693D01*
X030962Y025748D02*
X031360Y025748D01*
X031402Y025906D02*
X030803Y025906D01*
X030645Y026065D02*
X031491Y026065D01*
X031582Y026223D02*
X030486Y026223D01*
X030328Y026382D02*
X031687Y026382D01*
X031846Y026540D02*
X030240Y026540D01*
X030240Y026699D02*
X032004Y026699D01*
X032275Y026857D02*
X030240Y026857D01*
X030240Y027016D02*
X032670Y027016D01*
X033690Y027016D02*
X035253Y027016D01*
X034992Y027174D02*
X030240Y027174D01*
X030451Y027333D02*
X034833Y027333D01*
X034675Y027491D02*
X030451Y027491D01*
X030451Y027650D02*
X034575Y027650D01*
X034484Y027808D02*
X030451Y027808D01*
X030451Y027967D02*
X034399Y027967D01*
X034356Y028125D02*
X030375Y028125D01*
X029760Y027174D02*
X027270Y027174D01*
X027270Y027016D02*
X029760Y027016D01*
X029760Y026857D02*
X027270Y026857D01*
X027270Y026699D02*
X029760Y026699D01*
X029760Y026540D02*
X027270Y026540D01*
X027270Y026382D02*
X029760Y026382D01*
X029808Y026223D02*
X027270Y026223D01*
X027174Y026065D02*
X029966Y026065D01*
X030125Y025906D02*
X027015Y025906D01*
X027451Y027333D02*
X028909Y027333D01*
X028909Y027491D02*
X027451Y027491D01*
X027451Y027650D02*
X028909Y027650D01*
X028909Y027808D02*
X027451Y027808D01*
X027451Y027967D02*
X028909Y027967D01*
X028985Y028125D02*
X027375Y028125D01*
X025985Y028125D02*
X021033Y028125D01*
X021075Y027967D02*
X025504Y027967D01*
X025403Y027808D02*
X021085Y027808D01*
X021085Y027650D02*
X025385Y027650D01*
X025436Y027491D02*
X021085Y027491D01*
X021059Y027333D02*
X025635Y027333D01*
X025895Y027333D02*
X025909Y027333D01*
X027480Y029710D02*
X014150Y029710D01*
X014054Y029869D02*
X027522Y029869D01*
X027645Y030027D02*
X013896Y030027D01*
X013648Y030186D02*
X034991Y030186D01*
X035623Y026857D02*
X034085Y026857D01*
X034356Y026699D02*
X039004Y026699D01*
X038846Y026540D02*
X034514Y026540D01*
X034673Y026382D02*
X038687Y026382D01*
X038582Y026223D02*
X034778Y026223D01*
X034869Y026065D02*
X038491Y026065D01*
X038402Y025906D02*
X034958Y025906D01*
X035000Y025748D02*
X038360Y025748D01*
X038317Y025589D02*
X035043Y025589D01*
X035085Y025431D02*
X038275Y025431D01*
X038275Y025272D02*
X035085Y025272D01*
X035085Y025114D02*
X038275Y025114D01*
X038275Y024955D02*
X035085Y024955D01*
X035049Y024797D02*
X038311Y024797D01*
X038353Y024638D02*
X035007Y024638D01*
X034965Y024480D02*
X038395Y024480D01*
X038476Y024321D02*
X034884Y024321D01*
X034792Y024163D02*
X038568Y024163D01*
X038662Y024004D02*
X034698Y024004D01*
X034540Y023846D02*
X038820Y023846D01*
X038979Y023687D02*
X034381Y023687D01*
X034130Y023529D02*
X039230Y023529D01*
X039575Y023370D02*
X033785Y023370D01*
X032575Y023370D02*
X023285Y023370D01*
X023630Y023529D02*
X032230Y023529D01*
X031979Y023687D02*
X023881Y023687D01*
X024040Y023846D02*
X025872Y023846D01*
X025757Y024004D02*
X024198Y024004D01*
X024292Y024163D02*
X025720Y024163D01*
X025742Y024321D02*
X024384Y024321D01*
X024465Y024480D02*
X025837Y024480D01*
X022075Y023370D02*
X016564Y023370D01*
X016715Y023529D02*
X021730Y023529D01*
X021479Y023687D02*
X016806Y023687D01*
X016898Y023846D02*
X021320Y023846D01*
X021162Y024004D02*
X016971Y024004D01*
X017014Y024163D02*
X021068Y024163D01*
X020976Y024321D02*
X017056Y024321D01*
X017085Y024480D02*
X020895Y024480D01*
X020853Y024638D02*
X017085Y024638D01*
X017085Y024797D02*
X020811Y024797D01*
X020775Y024955D02*
X017079Y024955D01*
X017036Y025114D02*
X020775Y025114D01*
X020775Y025272D02*
X016994Y025272D01*
X016946Y025431D02*
X020775Y025431D01*
X020817Y025589D02*
X016855Y025589D01*
X016763Y025748D02*
X020860Y025748D01*
X020990Y028284D02*
X029155Y028284D01*
X029258Y028442D02*
X020940Y028442D01*
X027480Y031768D02*
X027547Y031929D01*
X003951Y031929D01*
X003913Y032088D02*
X027754Y032088D01*
X027832Y032120D02*
X027671Y032053D01*
X027547Y031929D01*
X027832Y032120D02*
X028528Y032120D01*
X028689Y032053D01*
X028813Y031929D01*
X028606Y032088D02*
X040542Y032088D01*
X040889Y032246D02*
X001660Y032246D01*
X001660Y032088D02*
X002447Y032088D01*
X002409Y031929D02*
X001660Y031929D01*
X001660Y031771D02*
X002409Y031771D01*
X002409Y031612D02*
X001660Y031612D01*
X001660Y031454D02*
X002409Y031454D01*
X002425Y031295D02*
X001660Y031295D01*
X001660Y031137D02*
X002457Y031137D01*
X002450Y030978D02*
X001660Y030978D01*
X001660Y030820D02*
X002518Y030820D01*
X001660Y032405D02*
X042700Y032405D01*
X042700Y032563D02*
X001660Y032563D01*
X001660Y032700D02*
X042700Y032700D01*
X042700Y001660D01*
X001660Y001660D01*
X001660Y032700D01*
X004886Y030027D02*
X004909Y030027D01*
X004363Y028601D02*
X005780Y028601D01*
X005780Y028759D02*
X003970Y028759D01*
X004556Y028442D02*
X005780Y028442D01*
X005780Y028284D02*
X004620Y028284D01*
X004620Y028125D02*
X005780Y028125D01*
X005780Y027967D02*
X004620Y027967D01*
X004620Y027808D02*
X005780Y027808D01*
X005800Y027650D02*
X004620Y027650D01*
X004578Y027491D02*
X005935Y027491D01*
X006093Y027333D02*
X004455Y027333D01*
X006252Y027174D02*
X001660Y027174D01*
X001660Y027016D02*
X006410Y027016D01*
X006569Y026857D02*
X001660Y026857D01*
X001660Y026699D02*
X006727Y026699D01*
X006886Y026540D02*
X001660Y026540D01*
X001660Y026382D02*
X007044Y026382D01*
X006929Y026313D02*
X006768Y026380D01*
X006592Y026380D01*
X006431Y026313D01*
X006307Y026189D01*
X006240Y026028D01*
X006240Y025332D01*
X006307Y025171D01*
X006431Y025047D01*
X006592Y024980D01*
X006768Y024980D01*
X006929Y025047D01*
X007053Y025171D01*
X007120Y025332D01*
X007120Y026028D01*
X007053Y026189D01*
X006929Y026313D01*
X007019Y026223D02*
X007203Y026223D01*
X007255Y026065D02*
X007105Y026065D01*
X007120Y025906D02*
X007240Y025906D01*
X007240Y025748D02*
X007120Y025748D01*
X007120Y025589D02*
X007240Y025589D01*
X007240Y025431D02*
X007120Y025431D01*
X007095Y025272D02*
X007265Y025272D01*
X007364Y025114D02*
X006996Y025114D01*
X006364Y025114D02*
X004283Y025114D01*
X004077Y025114D02*
X003283Y025114D01*
X003268Y025120D02*
X003092Y025120D01*
X002931Y025053D01*
X002807Y024929D01*
X002740Y024768D01*
X002740Y024072D01*
X002807Y023911D01*
X002931Y023787D01*
X003092Y023720D01*
X003268Y023720D01*
X003429Y023787D01*
X003553Y023911D01*
X003620Y024072D01*
X003620Y024768D01*
X003553Y024929D01*
X003429Y025053D01*
X003268Y025120D01*
X003077Y025114D02*
X001660Y025114D01*
X001660Y025272D02*
X006265Y025272D01*
X006240Y025431D02*
X001660Y025431D01*
X001660Y025589D02*
X006240Y025589D01*
X006240Y025748D02*
X001660Y025748D01*
X001660Y025906D02*
X006240Y025906D01*
X006255Y026065D02*
X001660Y026065D01*
X001660Y026223D02*
X006341Y026223D01*
X008019Y026223D02*
X008341Y026223D01*
X008255Y026065D02*
X008105Y026065D01*
X008120Y025906D02*
X008240Y025906D01*
X008240Y025748D02*
X008120Y025748D01*
X008120Y025589D02*
X008240Y025589D01*
X008240Y025431D02*
X008120Y025431D01*
X008095Y025272D02*
X008265Y025272D01*
X008364Y025114D02*
X007996Y025114D01*
X003833Y024955D02*
X003527Y024955D01*
X003608Y024797D02*
X003752Y024797D01*
X003740Y024638D02*
X003620Y024638D01*
X003620Y024480D02*
X003740Y024480D01*
X003740Y024321D02*
X003620Y024321D01*
X003620Y024163D02*
X003740Y024163D01*
X003768Y024004D02*
X003592Y024004D01*
X003488Y023846D02*
X003872Y023846D01*
X002872Y023846D02*
X001660Y023846D01*
X001660Y024004D02*
X002768Y024004D01*
X002740Y024163D02*
X001660Y024163D01*
X001660Y024321D02*
X002740Y024321D01*
X002740Y024480D02*
X001660Y024480D01*
X001660Y024638D02*
X002740Y024638D01*
X002752Y024797D02*
X001660Y024797D01*
X001660Y024955D02*
X002833Y024955D01*
X001660Y022736D02*
X042700Y022736D01*
X042700Y022578D02*
X001660Y022578D01*
X001660Y022419D02*
X042700Y022419D01*
X042700Y022261D02*
X001660Y022261D01*
X001660Y022102D02*
X042700Y022102D01*
X042700Y021944D02*
X036935Y021944D01*
X036915Y021955D02*
X036431Y022085D01*
X035929Y022085D01*
X035445Y021955D01*
X035010Y021704D01*
X034656Y021350D01*
X034405Y020915D01*
X034275Y020431D01*
X034275Y019929D01*
X034405Y019445D01*
X034656Y019010D01*
X035010Y018656D01*
X035445Y018405D01*
X035929Y018275D01*
X036431Y018275D01*
X036915Y018405D01*
X037350Y018656D01*
X037704Y019010D01*
X037955Y019445D01*
X038085Y019929D01*
X038085Y020431D01*
X037955Y020915D01*
X037704Y021350D01*
X037350Y021704D01*
X036915Y021955D01*
X037210Y021785D02*
X042700Y021785D01*
X042700Y021627D02*
X037428Y021627D01*
X037586Y021468D02*
X042700Y021468D01*
X042700Y021310D02*
X037728Y021310D01*
X037819Y021151D02*
X042700Y021151D01*
X042700Y020993D02*
X037911Y020993D01*
X037977Y020834D02*
X042700Y020834D01*
X042700Y020676D02*
X038019Y020676D01*
X038062Y020517D02*
X042700Y020517D01*
X042700Y020359D02*
X038085Y020359D01*
X038085Y020200D02*
X042700Y020200D01*
X042700Y020042D02*
X038085Y020042D01*
X038073Y019883D02*
X042700Y019883D01*
X042700Y019725D02*
X038030Y019725D01*
X037988Y019566D02*
X042700Y019566D01*
X042700Y019408D02*
X037934Y019408D01*
X037842Y019249D02*
X042700Y019249D01*
X042700Y019091D02*
X037751Y019091D01*
X037626Y018932D02*
X042700Y018932D01*
X042700Y018774D02*
X037468Y018774D01*
X037279Y018615D02*
X042700Y018615D01*
X042700Y018457D02*
X037005Y018457D01*
X036517Y018298D02*
X042700Y018298D01*
X042700Y018140D02*
X024930Y018140D01*
X024923Y018146D02*
X024856Y018213D01*
X024768Y018250D01*
X014204Y018250D01*
X013682Y018772D01*
X013682Y018780D01*
X013606Y018965D01*
X013465Y019106D01*
X013280Y019182D01*
X013080Y019182D01*
X012895Y019106D01*
X012754Y018965D01*
X012678Y018780D01*
X012678Y018580D01*
X012754Y018395D01*
X012895Y018254D01*
X013080Y018178D01*
X013280Y018178D01*
X013465Y018254D01*
X013493Y018282D01*
X013969Y017807D01*
X014057Y017770D01*
X024621Y017770D01*
X025743Y016648D01*
X025743Y016593D01*
X025809Y016432D01*
X025932Y016309D01*
X026093Y016243D01*
X026267Y016243D01*
X026428Y016309D01*
X026551Y016432D01*
X026617Y016593D01*
X026617Y016767D01*
X026551Y016928D01*
X026428Y017051D01*
X026267Y017117D01*
X026093Y017117D01*
X025993Y017076D01*
X024923Y018146D01*
X025088Y017981D02*
X042700Y017981D01*
X042700Y017823D02*
X025247Y017823D01*
X025405Y017664D02*
X042700Y017664D01*
X042700Y017506D02*
X025564Y017506D01*
X025722Y017347D02*
X042700Y017347D01*
X042700Y017189D02*
X025881Y017189D01*
X025519Y016872D02*
X004390Y016872D01*
X004390Y017030D02*
X025361Y017030D01*
X025202Y017189D02*
X004390Y017189D01*
X004390Y017347D02*
X025044Y017347D01*
X024885Y017506D02*
X004390Y017506D01*
X004390Y017664D02*
X024727Y017664D01*
X025678Y016713D02*
X004390Y016713D01*
X004390Y016555D02*
X025758Y016555D01*
X025845Y016396D02*
X004390Y016396D01*
X004390Y016238D02*
X042700Y016238D01*
X042700Y016396D02*
X026515Y016396D01*
X026602Y016555D02*
X042700Y016555D01*
X042700Y016713D02*
X026617Y016713D01*
X026574Y016872D02*
X042700Y016872D01*
X042700Y017030D02*
X026449Y017030D01*
X026267Y015117D02*
X026093Y015117D01*
X025932Y015051D01*
X025809Y014928D01*
X025743Y014767D01*
X025743Y014593D01*
X025809Y014432D01*
X025932Y014309D01*
X026093Y014243D01*
X026267Y014243D01*
X026428Y014309D01*
X026551Y014432D01*
X026617Y014593D01*
X026617Y014767D01*
X026551Y014928D01*
X026428Y015051D01*
X026267Y015117D01*
X026509Y014970D02*
X030759Y014970D01*
X030754Y014965D02*
X030678Y014780D01*
X030678Y014580D01*
X030754Y014395D01*
X030895Y014254D01*
X031080Y014178D01*
X031280Y014178D01*
X031465Y014254D01*
X031606Y014395D01*
X031682Y014580D01*
X031682Y014780D01*
X031606Y014965D01*
X031465Y015106D01*
X031280Y015182D01*
X031080Y015182D01*
X030895Y015106D01*
X030754Y014965D01*
X030690Y014811D02*
X026599Y014811D01*
X026617Y014653D02*
X030678Y014653D01*
X030713Y014494D02*
X026576Y014494D01*
X026454Y014336D02*
X030814Y014336D01*
X031546Y014336D02*
X035647Y014336D01*
X035656Y014350D02*
X035405Y013915D01*
X035275Y013431D01*
X035275Y012929D01*
X035405Y012445D01*
X035656Y012010D01*
X036010Y011656D01*
X036445Y011405D01*
X036929Y011275D01*
X037431Y011275D01*
X037915Y011405D01*
X038350Y011656D01*
X038704Y012010D01*
X038955Y012445D01*
X039085Y012929D01*
X039085Y013431D01*
X038955Y013915D01*
X038704Y014350D01*
X038350Y014704D01*
X037915Y014955D01*
X037431Y015085D01*
X036929Y015085D01*
X036445Y014955D01*
X036010Y014704D01*
X035656Y014350D01*
X035556Y014177D02*
X020804Y014177D01*
X020713Y014336D02*
X025906Y014336D01*
X025784Y014494D02*
X020560Y014494D01*
X020704Y014350D02*
X020350Y014704D01*
X019915Y014955D01*
X019431Y015085D01*
X018929Y015085D01*
X018445Y014955D01*
X018010Y014704D01*
X017656Y014350D01*
X017405Y013915D01*
X017275Y013431D01*
X017275Y012929D01*
X017405Y012445D01*
X017656Y012010D01*
X018010Y011656D01*
X018445Y011405D01*
X018929Y011275D01*
X019431Y011275D01*
X019915Y011405D01*
X020350Y011656D01*
X020704Y012010D01*
X020955Y012445D01*
X021085Y012929D01*
X021085Y013431D01*
X020955Y013915D01*
X020704Y014350D01*
X020896Y014019D02*
X035464Y014019D01*
X035390Y013860D02*
X020970Y013860D01*
X021012Y013702D02*
X035348Y013702D01*
X035305Y013543D02*
X021055Y013543D01*
X021085Y013385D02*
X035275Y013385D01*
X035275Y013226D02*
X021085Y013226D01*
X021085Y013068D02*
X035275Y013068D01*
X035280Y012909D02*
X021080Y012909D01*
X021037Y012751D02*
X035323Y012751D01*
X035365Y012592D02*
X020995Y012592D01*
X020949Y012434D02*
X035411Y012434D01*
X035503Y012275D02*
X020857Y012275D01*
X020766Y012117D02*
X035594Y012117D01*
X035708Y011958D02*
X020652Y011958D01*
X020494Y011800D02*
X035866Y011800D01*
X036036Y011641D02*
X020324Y011641D01*
X020050Y011483D02*
X036310Y011483D01*
X036746Y011324D02*
X019614Y011324D01*
X018746Y011324D02*
X001660Y011324D01*
X001660Y011166D02*
X042700Y011166D01*
X042700Y011324D02*
X037614Y011324D01*
X038050Y011483D02*
X042700Y011483D01*
X042700Y011641D02*
X038324Y011641D01*
X038494Y011800D02*
X042700Y011800D01*
X042700Y011958D02*
X038652Y011958D01*
X038766Y012117D02*
X042700Y012117D01*
X042700Y012275D02*
X038857Y012275D01*
X038949Y012434D02*
X042700Y012434D01*
X042700Y012592D02*
X038995Y012592D01*
X039037Y012751D02*
X042700Y012751D01*
X042700Y012909D02*
X039080Y012909D01*
X039085Y013068D02*
X042700Y013068D01*
X042700Y013226D02*
X039085Y013226D01*
X039085Y013385D02*
X042700Y013385D01*
X042700Y013543D02*
X039055Y013543D01*
X039012Y013702D02*
X042700Y013702D01*
X042700Y013860D02*
X038970Y013860D01*
X038896Y014019D02*
X042700Y014019D01*
X042700Y014177D02*
X038804Y014177D01*
X038713Y014336D02*
X042700Y014336D01*
X042700Y014494D02*
X038560Y014494D01*
X038402Y014653D02*
X042700Y014653D01*
X042700Y014811D02*
X038165Y014811D01*
X037862Y014970D02*
X042700Y014970D01*
X042700Y015128D02*
X031411Y015128D01*
X031601Y014970D02*
X036498Y014970D01*
X036195Y014811D02*
X031670Y014811D01*
X031682Y014653D02*
X035958Y014653D01*
X035800Y014494D02*
X031647Y014494D01*
X030949Y015128D02*
X013411Y015128D01*
X013465Y015106D02*
X013280Y015182D01*
X013080Y015182D01*
X012895Y015106D01*
X012754Y014965D01*
X012678Y014780D01*
X012678Y014580D01*
X012754Y014395D01*
X012895Y014254D01*
X013080Y014178D01*
X013280Y014178D01*
X013465Y014254D01*
X013606Y014395D01*
X013682Y014580D01*
X013682Y014780D01*
X013606Y014965D01*
X013465Y015106D01*
X013601Y014970D02*
X018498Y014970D01*
X018195Y014811D02*
X013670Y014811D01*
X013682Y014653D02*
X017958Y014653D01*
X017800Y014494D02*
X013647Y014494D01*
X013546Y014336D02*
X017647Y014336D01*
X017556Y014177D02*
X004117Y014177D01*
X004117Y014093D02*
X004051Y013932D01*
X003928Y013809D01*
X003767Y013743D01*
X003593Y013743D01*
X003432Y013809D01*
X003309Y013932D01*
X003243Y014093D01*
X003243Y014267D01*
X003309Y014428D01*
X003432Y014551D01*
X003593Y014617D01*
X003767Y014617D01*
X003771Y014616D01*
X003910Y014754D01*
X003910Y018956D01*
X003503Y019362D01*
X003301Y019279D01*
X003059Y019279D01*
X002834Y019372D01*
X002663Y019543D01*
X002570Y019767D01*
X002570Y020010D01*
X002663Y020234D01*
X002834Y020406D01*
X003059Y020499D01*
X003301Y020499D01*
X003526Y020406D01*
X003697Y020234D01*
X003790Y020010D01*
X003790Y019767D01*
X003786Y019758D01*
X004286Y019258D01*
X004353Y019191D01*
X004390Y019103D01*
X004390Y014607D01*
X004353Y014519D01*
X004113Y014278D01*
X004117Y014267D01*
X004117Y014093D01*
X004087Y014019D02*
X017464Y014019D01*
X017390Y013860D02*
X003979Y013860D01*
X003381Y013860D02*
X001660Y013860D01*
X001660Y013702D02*
X017348Y013702D01*
X017305Y013543D02*
X001660Y013543D01*
X001660Y013385D02*
X017275Y013385D01*
X017275Y013226D02*
X001660Y013226D01*
X001660Y013068D02*
X017275Y013068D01*
X017280Y012909D02*
X001660Y012909D01*
X001660Y012751D02*
X017323Y012751D01*
X017365Y012592D02*
X003828Y012592D01*
X003767Y012617D02*
X003593Y012617D01*
X003432Y012551D01*
X003309Y012428D01*
X003243Y012267D01*
X003243Y012093D01*
X003309Y011932D01*
X003432Y011809D01*
X003593Y011743D01*
X003767Y011743D01*
X003928Y011809D01*
X004051Y011932D01*
X004117Y012093D01*
X004117Y012267D01*
X004051Y012428D01*
X003928Y012551D01*
X003767Y012617D01*
X003532Y012592D02*
X001660Y012592D01*
X001660Y012434D02*
X003315Y012434D01*
X003246Y012275D02*
X001660Y012275D01*
X001660Y012117D02*
X003243Y012117D01*
X003298Y011958D02*
X001660Y011958D01*
X001660Y011800D02*
X003455Y011800D01*
X003905Y011800D02*
X017866Y011800D01*
X017708Y011958D02*
X004062Y011958D01*
X004117Y012117D02*
X017594Y012117D01*
X017503Y012275D02*
X004114Y012275D01*
X004045Y012434D02*
X017411Y012434D01*
X018036Y011641D02*
X001660Y011641D01*
X001660Y011483D02*
X018310Y011483D01*
X016474Y009581D02*
X021386Y009581D01*
X021510Y009704D02*
X021156Y009350D01*
X020905Y008915D01*
X020775Y008431D01*
X020775Y007929D01*
X020905Y007445D01*
X021156Y007010D01*
X021510Y006656D01*
X021945Y006405D01*
X022429Y006275D01*
X022931Y006275D01*
X023415Y006405D01*
X023850Y006656D01*
X024204Y007010D01*
X024455Y007445D01*
X024585Y007929D01*
X024585Y008431D01*
X024455Y008915D01*
X024204Y009350D01*
X023850Y009704D01*
X023415Y009955D01*
X022931Y010085D01*
X022429Y010085D01*
X021945Y009955D01*
X021510Y009704D01*
X021570Y009739D02*
X016290Y009739D01*
X016350Y009704D02*
X015915Y009955D01*
X015431Y010085D01*
X014929Y010085D01*
X014445Y009955D01*
X014010Y009704D01*
X013656Y009350D01*
X013405Y008915D01*
X013275Y008431D01*
X013275Y007929D01*
X013405Y007445D01*
X013656Y007010D01*
X014010Y006656D01*
X014445Y006405D01*
X014929Y006275D01*
X015431Y006275D01*
X015915Y006405D01*
X016350Y006656D01*
X016704Y007010D01*
X016955Y007445D01*
X017085Y007929D01*
X017085Y008431D01*
X016955Y008915D01*
X016704Y009350D01*
X016350Y009704D01*
X016015Y009898D02*
X021845Y009898D01*
X022321Y010056D02*
X015539Y010056D01*
X014821Y010056D02*
X001660Y010056D01*
X001660Y009898D02*
X014345Y009898D01*
X014070Y009739D02*
X001660Y009739D01*
X001660Y009581D02*
X013886Y009581D01*
X013728Y009422D02*
X001660Y009422D01*
X001660Y009264D02*
X013606Y009264D01*
X013514Y009105D02*
X001660Y009105D01*
X001660Y008947D02*
X013423Y008947D01*
X013371Y008788D02*
X001660Y008788D01*
X001660Y008630D02*
X013328Y008630D01*
X013286Y008471D02*
X001660Y008471D01*
X001660Y008313D02*
X013275Y008313D01*
X013275Y008154D02*
X001660Y008154D01*
X001660Y007996D02*
X013275Y007996D01*
X013300Y007837D02*
X001660Y007837D01*
X001660Y007679D02*
X013342Y007679D01*
X013385Y007520D02*
X001660Y007520D01*
X001660Y007362D02*
X013453Y007362D01*
X013544Y007203D02*
X001660Y007203D01*
X001660Y007045D02*
X013636Y007045D01*
X013780Y006886D02*
X001660Y006886D01*
X001660Y006728D02*
X013938Y006728D01*
X014160Y006569D02*
X001660Y006569D01*
X001660Y006411D02*
X014435Y006411D01*
X015925Y006411D02*
X017716Y006411D01*
X017656Y006350D02*
X017405Y005915D01*
X017275Y005431D01*
X017275Y004929D01*
X017405Y004445D01*
X017656Y004010D01*
X018010Y003656D01*
X018445Y003405D01*
X018929Y003275D01*
X019431Y003275D01*
X019915Y003405D01*
X020350Y003656D01*
X020704Y004010D01*
X020955Y004445D01*
X021085Y004929D01*
X021085Y005431D01*
X020955Y005915D01*
X020704Y006350D01*
X020350Y006704D01*
X019915Y006955D01*
X019431Y007085D01*
X018929Y007085D01*
X018445Y006955D01*
X018010Y006704D01*
X017656Y006350D01*
X017599Y006252D02*
X001660Y006252D01*
X001660Y006094D02*
X017508Y006094D01*
X017416Y005935D02*
X001660Y005935D01*
X001660Y005777D02*
X017368Y005777D01*
X017325Y005618D02*
X009217Y005618D01*
X009179Y005657D02*
X008972Y005742D01*
X008748Y005742D01*
X008541Y005657D01*
X008383Y005499D01*
X008298Y005292D01*
X008298Y005068D01*
X008383Y004861D01*
X008541Y004703D01*
X008748Y004618D01*
X008972Y004618D01*
X009179Y004703D01*
X009337Y004861D01*
X009422Y005068D01*
X009422Y005292D01*
X009337Y005499D01*
X009179Y005657D01*
X009353Y005460D02*
X017283Y005460D01*
X017275Y005301D02*
X009419Y005301D01*
X009422Y005143D02*
X017275Y005143D01*
X017275Y004984D02*
X009388Y004984D01*
X009301Y004826D02*
X017303Y004826D01*
X017345Y004667D02*
X009091Y004667D01*
X008629Y004667D02*
X007531Y004667D01*
X007619Y004703D02*
X007412Y004618D01*
X007188Y004618D01*
X006981Y004703D01*
X006823Y004861D01*
X006738Y005068D01*
X006738Y005292D01*
X006823Y005499D01*
X006981Y005657D01*
X007188Y005742D01*
X007412Y005742D01*
X007619Y005657D01*
X007777Y005499D01*
X007862Y005292D01*
X007862Y005068D01*
X007777Y004861D01*
X007619Y004703D01*
X007741Y004826D02*
X008419Y004826D01*
X008332Y004984D02*
X007828Y004984D01*
X007862Y005143D02*
X008298Y005143D01*
X008301Y005301D02*
X007859Y005301D01*
X007793Y005460D02*
X008367Y005460D01*
X008503Y005618D02*
X007657Y005618D01*
X006943Y005618D02*
X006097Y005618D01*
X006059Y005657D02*
X005852Y005742D01*
X005628Y005742D01*
X005421Y005657D01*
X005263Y005499D01*
X005178Y005292D01*
X005178Y005068D01*
X005263Y004861D01*
X005421Y004703D01*
X005628Y004618D01*
X005852Y004618D01*
X006059Y004703D01*
X006217Y004861D01*
X006302Y005068D01*
X006302Y005292D01*
X006217Y005499D01*
X006059Y005657D01*
X006233Y005460D02*
X006807Y005460D01*
X006741Y005301D02*
X006299Y005301D01*
X006302Y005143D02*
X006738Y005143D01*
X006772Y004984D02*
X006268Y004984D01*
X006181Y004826D02*
X006859Y004826D01*
X007069Y004667D02*
X005971Y004667D01*
X005509Y004667D02*
X004411Y004667D01*
X004499Y004703D02*
X004292Y004618D01*
X004068Y004618D01*
X003861Y004703D01*
X003703Y004861D01*
X003618Y005068D01*
X003618Y005292D01*
X003703Y005499D01*
X003861Y005657D01*
X004068Y005742D01*
X004292Y005742D01*
X004499Y005657D01*
X004657Y005499D01*
X004742Y005292D01*
X004742Y005068D01*
X004657Y004861D01*
X004499Y004703D01*
X004621Y004826D02*
X005299Y004826D01*
X005212Y004984D02*
X004708Y004984D01*
X004742Y005143D02*
X005178Y005143D01*
X005181Y005301D02*
X004739Y005301D01*
X004673Y005460D02*
X005247Y005460D01*
X005383Y005618D02*
X004537Y005618D01*
X003823Y005618D02*
X001660Y005618D01*
X001660Y005460D02*
X003687Y005460D01*
X003621Y005301D02*
X001660Y005301D01*
X001660Y005143D02*
X003618Y005143D01*
X003652Y004984D02*
X001660Y004984D01*
X001660Y004826D02*
X003739Y004826D01*
X003949Y004667D02*
X001660Y004667D01*
X001660Y004509D02*
X017388Y004509D01*
X017459Y004350D02*
X001660Y004350D01*
X001660Y004192D02*
X012722Y004192D01*
X012753Y004210D02*
X012502Y004064D01*
X012296Y003858D01*
X012150Y003607D01*
X012075Y003325D01*
X012075Y003035D01*
X012150Y002753D01*
X012296Y002502D01*
X012502Y002296D01*
X012753Y002150D01*
X013035Y002075D01*
X013325Y002075D01*
X013607Y002150D01*
X013858Y002296D01*
X014064Y002502D01*
X014210Y002753D01*
X014285Y003035D01*
X014285Y003325D01*
X014210Y003607D01*
X014064Y003858D01*
X013858Y004064D01*
X013607Y004210D01*
X013325Y004285D01*
X013035Y004285D01*
X012753Y004210D01*
X012470Y004033D02*
X001660Y004033D01*
X001660Y003875D02*
X012312Y003875D01*
X012214Y003716D02*
X001660Y003716D01*
X001660Y003558D02*
X012137Y003558D01*
X012095Y003399D02*
X001660Y003399D01*
X001660Y003241D02*
X012075Y003241D01*
X012075Y003082D02*
X001660Y003082D01*
X001660Y002924D02*
X012105Y002924D01*
X012147Y002765D02*
X001660Y002765D01*
X001660Y002607D02*
X012235Y002607D01*
X012349Y002448D02*
X001660Y002448D01*
X001660Y002290D02*
X012512Y002290D01*
X012826Y002131D02*
X001660Y002131D01*
X001660Y001973D02*
X042700Y001973D01*
X042700Y002131D02*
X013534Y002131D01*
X013848Y002290D02*
X036375Y002290D01*
X036429Y002275D02*
X035945Y002405D01*
X035510Y002656D01*
X035156Y003010D01*
X034905Y003445D01*
X034775Y003929D01*
X034775Y004431D01*
X034905Y004915D01*
X035156Y005350D01*
X035510Y005704D01*
X035945Y005955D01*
X036429Y006085D01*
X036931Y006085D01*
X037415Y005955D01*
X037850Y005704D01*
X038204Y005350D01*
X038455Y004915D01*
X038585Y004431D01*
X038585Y003929D01*
X038455Y003445D01*
X038204Y003010D01*
X037850Y002656D01*
X037415Y002405D01*
X036931Y002275D01*
X036429Y002275D01*
X036985Y002290D02*
X042700Y002290D01*
X042700Y002448D02*
X037490Y002448D01*
X037765Y002607D02*
X040917Y002607D01*
X041035Y002575D02*
X041325Y002575D01*
X041607Y002650D01*
X041858Y002796D01*
X042064Y003002D01*
X042210Y003253D01*
X042285Y003535D01*
X042285Y003825D01*
X042210Y004107D01*
X042064Y004358D01*
X041858Y004564D01*
X041607Y004710D01*
X041325Y004785D01*
X041035Y004785D01*
X040753Y004710D01*
X040502Y004564D01*
X040296Y004358D01*
X040150Y004107D01*
X040075Y003825D01*
X040075Y003535D01*
X040150Y003253D01*
X040296Y003002D01*
X040502Y002796D01*
X040753Y002650D01*
X041035Y002575D01*
X041443Y002607D02*
X042700Y002607D01*
X042700Y002765D02*
X041805Y002765D01*
X041986Y002924D02*
X042700Y002924D01*
X042700Y003082D02*
X042111Y003082D01*
X042202Y003241D02*
X042700Y003241D01*
X042700Y003399D02*
X042249Y003399D01*
X042285Y003558D02*
X042700Y003558D01*
X042700Y003716D02*
X042285Y003716D01*
X042272Y003875D02*
X042700Y003875D01*
X042700Y004033D02*
X042229Y004033D01*
X042161Y004192D02*
X042700Y004192D01*
X042700Y004350D02*
X042069Y004350D01*
X041914Y004509D02*
X042700Y004509D01*
X042700Y004667D02*
X041680Y004667D01*
X040680Y004667D02*
X038522Y004667D01*
X038564Y004509D02*
X040446Y004509D01*
X040291Y004350D02*
X038585Y004350D01*
X038585Y004192D02*
X040199Y004192D01*
X040131Y004033D02*
X038585Y004033D01*
X038570Y003875D02*
X040088Y003875D01*
X040075Y003716D02*
X038528Y003716D01*
X038485Y003558D02*
X040075Y003558D01*
X040111Y003399D02*
X038429Y003399D01*
X038337Y003241D02*
X040158Y003241D01*
X040249Y003082D02*
X038246Y003082D01*
X038118Y002924D02*
X040374Y002924D01*
X040555Y002765D02*
X037959Y002765D01*
X035870Y002448D02*
X014011Y002448D01*
X014125Y002607D02*
X035595Y002607D01*
X035401Y002765D02*
X014213Y002765D01*
X014255Y002924D02*
X035242Y002924D01*
X035114Y003082D02*
X031464Y003082D01*
X031429Y003047D02*
X031553Y003171D01*
X031620Y003332D01*
X031620Y004028D01*
X031553Y004189D01*
X031429Y004313D01*
X031268Y004380D01*
X031092Y004380D01*
X030931Y004313D01*
X030807Y004189D01*
X030740Y004028D01*
X030740Y003332D01*
X030807Y003171D01*
X030931Y003047D01*
X031092Y002980D01*
X031268Y002980D01*
X031429Y003047D01*
X031582Y003241D02*
X035023Y003241D01*
X034931Y003399D02*
X031620Y003399D01*
X031620Y003558D02*
X034875Y003558D01*
X034832Y003716D02*
X031620Y003716D01*
X031620Y003875D02*
X034790Y003875D01*
X034775Y004033D02*
X031618Y004033D01*
X031551Y004192D02*
X034775Y004192D01*
X034775Y004350D02*
X031340Y004350D01*
X031020Y004350D02*
X030340Y004350D01*
X030268Y004380D02*
X030109Y004380D01*
X029641Y004848D01*
X029553Y004885D01*
X028852Y004885D01*
X028764Y004848D01*
X028697Y004781D01*
X027866Y003950D01*
X027451Y003950D01*
X027451Y004050D01*
X027345Y004155D01*
X026684Y004155D01*
X026680Y004151D01*
X026676Y004155D01*
X026015Y004155D01*
X025909Y004050D01*
X025909Y004006D01*
X025841Y004035D01*
X025689Y004035D01*
X025550Y003977D01*
X025443Y003870D01*
X025385Y003731D01*
X025385Y003579D01*
X025443Y003440D01*
X025550Y003333D01*
X025689Y003275D01*
X025841Y003275D01*
X025914Y003305D01*
X026015Y003205D01*
X026676Y003205D01*
X026680Y003209D01*
X026684Y003205D01*
X027345Y003205D01*
X027451Y003310D01*
X027451Y003470D01*
X028013Y003470D01*
X028101Y003507D01*
X028999Y004405D01*
X029406Y004405D01*
X029753Y004058D01*
X029740Y004028D01*
X029740Y003332D01*
X029807Y003171D01*
X029931Y003047D01*
X030092Y002980D01*
X030268Y002980D01*
X030429Y003047D01*
X030553Y003171D01*
X030620Y003332D01*
X030620Y004028D01*
X030553Y004189D01*
X030429Y004313D01*
X030268Y004380D01*
X029981Y004509D02*
X034796Y004509D01*
X034838Y004667D02*
X029822Y004667D01*
X029664Y004826D02*
X034881Y004826D01*
X034944Y004984D02*
X021085Y004984D01*
X021085Y005143D02*
X035036Y005143D01*
X035128Y005301D02*
X021085Y005301D01*
X021077Y005460D02*
X035265Y005460D01*
X035424Y005618D02*
X021035Y005618D01*
X020992Y005777D02*
X032924Y005777D01*
X032929Y005775D02*
X033431Y005775D01*
X033915Y005905D01*
X034350Y006156D01*
X034704Y006510D01*
X034955Y006945D01*
X035085Y007429D01*
X035085Y007931D01*
X034955Y008415D01*
X034704Y008850D01*
X034350Y009204D01*
X033915Y009455D01*
X033431Y009585D01*
X032929Y009585D01*
X032445Y009455D01*
X032010Y009204D01*
X031656Y008850D01*
X031405Y008415D01*
X031275Y007931D01*
X031275Y007429D01*
X031405Y006945D01*
X031656Y006510D01*
X032010Y006156D01*
X032445Y005905D01*
X032929Y005775D01*
X033436Y005777D02*
X035635Y005777D01*
X035910Y005935D02*
X033968Y005935D01*
X034242Y006094D02*
X039118Y006094D01*
X039010Y006156D02*
X039445Y005905D01*
X039929Y005775D01*
X040431Y005775D01*
X040915Y005905D01*
X041350Y006156D01*
X041704Y006510D01*
X041955Y006945D01*
X042085Y007429D01*
X042085Y007931D01*
X041955Y008415D01*
X041704Y008850D01*
X041350Y009204D01*
X040915Y009455D01*
X040431Y009585D01*
X039929Y009585D01*
X039445Y009455D01*
X039010Y009204D01*
X038656Y008850D01*
X038405Y008415D01*
X038275Y007931D01*
X038275Y007429D01*
X038405Y006945D01*
X038656Y006510D01*
X039010Y006156D01*
X038914Y006252D02*
X034446Y006252D01*
X034605Y006411D02*
X038755Y006411D01*
X038622Y006569D02*
X034738Y006569D01*
X034830Y006728D02*
X038530Y006728D01*
X038439Y006886D02*
X034921Y006886D01*
X034982Y007045D02*
X038378Y007045D01*
X038336Y007203D02*
X035024Y007203D01*
X035067Y007362D02*
X038293Y007362D01*
X038275Y007520D02*
X035085Y007520D01*
X035085Y007679D02*
X038275Y007679D01*
X038275Y007837D02*
X035085Y007837D01*
X035068Y007996D02*
X038292Y007996D01*
X038335Y008154D02*
X035025Y008154D01*
X034983Y008313D02*
X038377Y008313D01*
X038437Y008471D02*
X034923Y008471D01*
X034832Y008630D02*
X038528Y008630D01*
X038620Y008788D02*
X034740Y008788D01*
X034608Y008947D02*
X038752Y008947D01*
X038911Y009105D02*
X034449Y009105D01*
X034247Y009264D02*
X039113Y009264D01*
X039387Y009422D02*
X033973Y009422D01*
X033448Y009581D02*
X039912Y009581D01*
X040448Y009581D02*
X042700Y009581D01*
X042700Y009739D02*
X023790Y009739D01*
X023974Y009581D02*
X032912Y009581D01*
X032387Y009422D02*
X024132Y009422D01*
X024254Y009264D02*
X032113Y009264D01*
X031911Y009105D02*
X024346Y009105D01*
X024437Y008947D02*
X031752Y008947D01*
X031620Y008788D02*
X024489Y008788D01*
X024532Y008630D02*
X031528Y008630D01*
X031437Y008471D02*
X024574Y008471D01*
X024585Y008313D02*
X031377Y008313D01*
X031335Y008154D02*
X024585Y008154D01*
X024585Y007996D02*
X031292Y007996D01*
X031275Y007837D02*
X024560Y007837D01*
X024518Y007679D02*
X031275Y007679D01*
X031275Y007520D02*
X024475Y007520D01*
X024407Y007362D02*
X031293Y007362D01*
X031336Y007203D02*
X024316Y007203D01*
X024224Y007045D02*
X031378Y007045D01*
X031439Y006886D02*
X024080Y006886D01*
X023922Y006728D02*
X031530Y006728D01*
X031622Y006569D02*
X023700Y006569D01*
X023425Y006411D02*
X031755Y006411D01*
X031914Y006252D02*
X020761Y006252D01*
X020852Y006094D02*
X032118Y006094D01*
X032392Y005935D02*
X020944Y005935D01*
X020644Y006411D02*
X021935Y006411D01*
X021660Y006569D02*
X020485Y006569D01*
X020310Y006728D02*
X021438Y006728D01*
X021280Y006886D02*
X020035Y006886D01*
X019582Y007045D02*
X021136Y007045D01*
X021044Y007203D02*
X016816Y007203D01*
X016907Y007362D02*
X020953Y007362D01*
X020885Y007520D02*
X016975Y007520D01*
X017018Y007679D02*
X020842Y007679D01*
X020800Y007837D02*
X017060Y007837D01*
X017085Y007996D02*
X020775Y007996D01*
X020775Y008154D02*
X017085Y008154D01*
X017085Y008313D02*
X020775Y008313D01*
X020786Y008471D02*
X017074Y008471D01*
X017032Y008630D02*
X020828Y008630D01*
X020871Y008788D02*
X016989Y008788D01*
X016937Y008947D02*
X020923Y008947D01*
X021014Y009105D02*
X016846Y009105D01*
X016754Y009264D02*
X021106Y009264D01*
X021228Y009422D02*
X016632Y009422D01*
X016724Y007045D02*
X018778Y007045D01*
X018325Y006886D02*
X016580Y006886D01*
X016422Y006728D02*
X018050Y006728D01*
X017875Y006569D02*
X016200Y006569D01*
X017551Y004192D02*
X013638Y004192D01*
X013890Y004033D02*
X017643Y004033D01*
X017791Y003875D02*
X014048Y003875D01*
X014146Y003716D02*
X017950Y003716D01*
X018180Y003558D02*
X014223Y003558D01*
X014265Y003399D02*
X018466Y003399D01*
X019894Y003399D02*
X025484Y003399D01*
X025394Y003558D02*
X020180Y003558D01*
X020410Y003716D02*
X025385Y003716D01*
X025447Y003875D02*
X020569Y003875D01*
X020717Y004033D02*
X025685Y004033D01*
X025845Y004033D02*
X025909Y004033D01*
X025979Y003241D02*
X014285Y003241D01*
X014285Y003082D02*
X028897Y003082D01*
X028893Y003084D02*
X028949Y003044D01*
X029011Y003012D01*
X029077Y002991D01*
X029145Y002980D01*
X029180Y002980D01*
X029215Y002980D01*
X029283Y002991D01*
X029349Y003012D01*
X029411Y003044D01*
X029467Y003084D01*
X029516Y003133D01*
X029556Y003189D01*
X029588Y003251D01*
X029609Y003317D01*
X029620Y003385D01*
X029620Y003680D01*
X029620Y003975D01*
X029609Y004043D01*
X029588Y004109D01*
X029556Y004171D01*
X029516Y004227D01*
X029467Y004276D01*
X029411Y004316D01*
X029349Y004348D01*
X029283Y004369D01*
X029215Y004380D01*
X029180Y004380D01*
X029180Y003680D01*
X029620Y003680D01*
X029180Y003680D01*
X029180Y003680D01*
X029180Y003680D01*
X029180Y002980D01*
X029180Y003680D01*
X029180Y003680D01*
X029180Y003680D01*
X028740Y003680D01*
X028740Y003975D01*
X028751Y004043D01*
X028772Y004109D01*
X028804Y004171D01*
X028844Y004227D01*
X028893Y004276D01*
X028949Y004316D01*
X029011Y004348D01*
X029077Y004369D01*
X029145Y004380D01*
X029180Y004380D01*
X029180Y003680D01*
X028740Y003680D01*
X028740Y003385D01*
X028751Y003317D01*
X028772Y003251D01*
X028804Y003189D01*
X028844Y003133D01*
X028893Y003084D01*
X028778Y003241D02*
X027381Y003241D01*
X027451Y003399D02*
X028740Y003399D01*
X028740Y003558D02*
X028152Y003558D01*
X028310Y003716D02*
X028740Y003716D01*
X028740Y003875D02*
X028469Y003875D01*
X028627Y004033D02*
X028749Y004033D01*
X028786Y004192D02*
X028819Y004192D01*
X028944Y004350D02*
X029018Y004350D01*
X029180Y004350D02*
X029180Y004350D01*
X029180Y004192D02*
X029180Y004192D01*
X029180Y004033D02*
X029180Y004033D01*
X029180Y003875D02*
X029180Y003875D01*
X029180Y003716D02*
X029180Y003716D01*
X029180Y003558D02*
X029180Y003558D01*
X029180Y003399D02*
X029180Y003399D01*
X029180Y003241D02*
X029180Y003241D01*
X029180Y003082D02*
X029180Y003082D01*
X029463Y003082D02*
X029896Y003082D01*
X029778Y003241D02*
X029582Y003241D01*
X029620Y003399D02*
X029740Y003399D01*
X029740Y003558D02*
X029620Y003558D01*
X029620Y003716D02*
X029740Y003716D01*
X029740Y003875D02*
X029620Y003875D01*
X029611Y004033D02*
X029742Y004033D01*
X029619Y004192D02*
X029541Y004192D01*
X029461Y004350D02*
X029342Y004350D01*
X028741Y004826D02*
X021057Y004826D01*
X021015Y004667D02*
X028583Y004667D01*
X028424Y004509D02*
X020972Y004509D01*
X020901Y004350D02*
X028266Y004350D01*
X028107Y004192D02*
X020809Y004192D01*
X027451Y004033D02*
X027949Y004033D01*
X030551Y004192D02*
X030809Y004192D01*
X030742Y004033D02*
X030618Y004033D01*
X030620Y003875D02*
X030740Y003875D01*
X030740Y003716D02*
X030620Y003716D01*
X030620Y003558D02*
X030740Y003558D01*
X030740Y003399D02*
X030620Y003399D01*
X030582Y003241D02*
X030778Y003241D01*
X030896Y003082D02*
X030464Y003082D01*
X037450Y005935D02*
X039392Y005935D01*
X039924Y005777D02*
X037725Y005777D01*
X037936Y005618D02*
X042700Y005618D01*
X042700Y005460D02*
X038095Y005460D01*
X038232Y005301D02*
X042700Y005301D01*
X042700Y005143D02*
X038324Y005143D01*
X038416Y004984D02*
X042700Y004984D01*
X042700Y004826D02*
X038479Y004826D01*
X040436Y005777D02*
X042700Y005777D01*
X042700Y005935D02*
X040968Y005935D01*
X041242Y006094D02*
X042700Y006094D01*
X042700Y006252D02*
X041446Y006252D01*
X041605Y006411D02*
X042700Y006411D01*
X042700Y006569D02*
X041738Y006569D01*
X041830Y006728D02*
X042700Y006728D01*
X042700Y006886D02*
X041921Y006886D01*
X041982Y007045D02*
X042700Y007045D01*
X042700Y007203D02*
X042024Y007203D01*
X042067Y007362D02*
X042700Y007362D01*
X042700Y007520D02*
X042085Y007520D01*
X042085Y007679D02*
X042700Y007679D01*
X042700Y007837D02*
X042085Y007837D01*
X042068Y007996D02*
X042700Y007996D01*
X042700Y008154D02*
X042025Y008154D01*
X041983Y008313D02*
X042700Y008313D01*
X042700Y008471D02*
X041923Y008471D01*
X041832Y008630D02*
X042700Y008630D01*
X042700Y008788D02*
X041740Y008788D01*
X041608Y008947D02*
X042700Y008947D01*
X042700Y009105D02*
X041449Y009105D01*
X041247Y009264D02*
X042700Y009264D01*
X042700Y009422D02*
X040973Y009422D01*
X042700Y009898D02*
X023515Y009898D01*
X023039Y010056D02*
X042700Y010056D01*
X042700Y010215D02*
X001660Y010215D01*
X001660Y010373D02*
X042700Y010373D01*
X042700Y010532D02*
X001660Y010532D01*
X001660Y010690D02*
X042700Y010690D01*
X042700Y010849D02*
X001660Y010849D01*
X001660Y011007D02*
X042700Y011007D01*
X042700Y015287D02*
X004390Y015287D01*
X004390Y015445D02*
X042700Y015445D01*
X042700Y015604D02*
X004390Y015604D01*
X004390Y015762D02*
X042700Y015762D01*
X042700Y015921D02*
X004390Y015921D01*
X004390Y016079D02*
X042700Y016079D01*
X035843Y018298D02*
X031509Y018298D01*
X031465Y018254D02*
X031606Y018395D01*
X031682Y018580D01*
X031682Y018780D01*
X031606Y018965D01*
X031465Y019106D01*
X031280Y019182D01*
X031080Y019182D01*
X030895Y019106D01*
X030754Y018965D01*
X030678Y018780D01*
X030678Y018580D01*
X030754Y018395D01*
X030895Y018254D01*
X031080Y018178D01*
X031280Y018178D01*
X031465Y018254D01*
X031631Y018457D02*
X035355Y018457D01*
X035081Y018615D02*
X031682Y018615D01*
X031682Y018774D02*
X034892Y018774D01*
X034734Y018932D02*
X031620Y018932D01*
X031480Y019091D02*
X034609Y019091D01*
X034518Y019249D02*
X019842Y019249D01*
X019751Y019091D02*
X030880Y019091D01*
X030740Y018932D02*
X019626Y018932D01*
X019704Y019010D02*
X019955Y019445D01*
X020085Y019929D01*
X020085Y020431D01*
X019955Y020915D01*
X019704Y021350D01*
X019350Y021704D01*
X018915Y021955D01*
X018431Y022085D01*
X017929Y022085D01*
X017445Y021955D01*
X017010Y021704D01*
X016656Y021350D01*
X016405Y020915D01*
X016275Y020431D01*
X016275Y019929D01*
X016405Y019445D01*
X016656Y019010D01*
X017010Y018656D01*
X017445Y018405D01*
X017929Y018275D01*
X018431Y018275D01*
X018915Y018405D01*
X019350Y018656D01*
X019704Y019010D01*
X019468Y018774D02*
X030678Y018774D01*
X030678Y018615D02*
X019279Y018615D01*
X019005Y018457D02*
X030729Y018457D01*
X030851Y018298D02*
X018517Y018298D01*
X017843Y018298D02*
X014156Y018298D01*
X013998Y018457D02*
X017355Y018457D01*
X017081Y018615D02*
X013839Y018615D01*
X013682Y018774D02*
X016892Y018774D01*
X016734Y018932D02*
X013620Y018932D01*
X013480Y019091D02*
X016609Y019091D01*
X016518Y019249D02*
X004295Y019249D01*
X004390Y019091D02*
X012880Y019091D01*
X012740Y018932D02*
X004390Y018932D01*
X004390Y018774D02*
X012678Y018774D01*
X012678Y018615D02*
X004390Y018615D01*
X004390Y018457D02*
X012729Y018457D01*
X012851Y018298D02*
X004390Y018298D01*
X004390Y018140D02*
X013636Y018140D01*
X013795Y017981D02*
X004390Y017981D01*
X004390Y017823D02*
X013953Y017823D01*
X016372Y019566D02*
X003978Y019566D01*
X003820Y019725D02*
X016330Y019725D01*
X016287Y019883D02*
X003790Y019883D01*
X003777Y020042D02*
X016275Y020042D01*
X016275Y020200D02*
X003711Y020200D01*
X003573Y020359D02*
X016275Y020359D01*
X016298Y020517D02*
X001660Y020517D01*
X001660Y020359D02*
X002787Y020359D01*
X002649Y020200D02*
X001660Y020200D01*
X001660Y020042D02*
X002583Y020042D01*
X002570Y019883D02*
X001660Y019883D01*
X001660Y019725D02*
X002588Y019725D01*
X002653Y019566D02*
X001660Y019566D01*
X001660Y019408D02*
X002798Y019408D01*
X002946Y019076D02*
X002860Y019032D01*
X002783Y018976D01*
X002715Y018908D01*
X002658Y018830D01*
X002615Y018745D01*
X002585Y018654D01*
X002570Y018559D01*
X002570Y018529D01*
X003162Y018529D01*
X003162Y019121D01*
X003132Y019121D01*
X003037Y019106D01*
X002946Y019076D01*
X002991Y019091D02*
X001660Y019091D01*
X001660Y019249D02*
X003617Y019249D01*
X003775Y019091D02*
X003369Y019091D01*
X003414Y019076D02*
X003323Y019106D01*
X003228Y019121D01*
X003198Y019121D01*
X003198Y018529D01*
X003162Y018529D01*
X003162Y018492D01*
X003198Y018492D01*
X003198Y017901D01*
X003228Y017901D01*
X003323Y017916D01*
X003414Y017945D01*
X003500Y017989D01*
X003577Y018045D01*
X003645Y018113D01*
X003702Y018191D01*
X003745Y018277D01*
X003775Y018368D01*
X003790Y018463D01*
X003790Y018492D01*
X003198Y018492D01*
X003198Y018529D01*
X003790Y018529D01*
X003790Y018559D01*
X003775Y018654D01*
X003745Y018745D01*
X003702Y018830D01*
X003645Y018908D01*
X003577Y018976D01*
X003500Y019032D01*
X003414Y019076D01*
X003198Y019091D02*
X003162Y019091D01*
X003162Y018932D02*
X003198Y018932D01*
X003198Y018774D02*
X003162Y018774D01*
X003162Y018615D02*
X003198Y018615D01*
X003162Y018492D02*
X002570Y018492D01*
X002570Y018463D01*
X002585Y018368D01*
X002615Y018277D01*
X002658Y018191D01*
X002715Y018113D01*
X002783Y018045D01*
X002860Y017989D01*
X002946Y017945D01*
X003037Y017916D01*
X003132Y017901D01*
X003162Y017901D01*
X003162Y018492D01*
X003162Y018457D02*
X003198Y018457D01*
X003198Y018298D02*
X003162Y018298D01*
X003162Y018140D02*
X003198Y018140D01*
X003198Y017981D02*
X003162Y017981D01*
X002876Y017981D02*
X001660Y017981D01*
X001660Y017823D02*
X003910Y017823D01*
X003910Y017981D02*
X003484Y017981D01*
X003664Y018140D02*
X003910Y018140D01*
X003910Y018298D02*
X003752Y018298D01*
X003789Y018457D02*
X003910Y018457D01*
X003910Y018615D02*
X003781Y018615D01*
X003731Y018774D02*
X003910Y018774D01*
X003910Y018932D02*
X003621Y018932D01*
X004137Y019408D02*
X016426Y019408D01*
X016341Y020676D02*
X001660Y020676D01*
X001660Y020834D02*
X016383Y020834D01*
X016449Y020993D02*
X001660Y020993D01*
X001660Y021151D02*
X016541Y021151D01*
X016632Y021310D02*
X001660Y021310D01*
X001660Y021468D02*
X016774Y021468D01*
X016932Y021627D02*
X001660Y021627D01*
X001660Y021785D02*
X017150Y021785D01*
X017425Y021944D02*
X001660Y021944D01*
X001660Y018932D02*
X002739Y018932D01*
X002629Y018774D02*
X001660Y018774D01*
X001660Y018615D02*
X002579Y018615D01*
X002571Y018457D02*
X001660Y018457D01*
X001660Y018298D02*
X002608Y018298D01*
X002696Y018140D02*
X001660Y018140D01*
X001660Y017664D02*
X003910Y017664D01*
X003910Y017506D02*
X001660Y017506D01*
X001660Y017347D02*
X003910Y017347D01*
X003910Y017189D02*
X001660Y017189D01*
X001660Y017030D02*
X003910Y017030D01*
X003910Y016872D02*
X001660Y016872D01*
X001660Y016713D02*
X003910Y016713D01*
X003910Y016555D02*
X001660Y016555D01*
X001660Y016396D02*
X003910Y016396D01*
X003910Y016238D02*
X001660Y016238D01*
X001660Y016079D02*
X003910Y016079D01*
X003910Y015921D02*
X001660Y015921D01*
X001660Y015762D02*
X003910Y015762D01*
X003910Y015604D02*
X001660Y015604D01*
X001660Y015445D02*
X003910Y015445D01*
X003910Y015287D02*
X001660Y015287D01*
X001660Y015128D02*
X003910Y015128D01*
X003910Y014970D02*
X001660Y014970D01*
X001660Y014811D02*
X003910Y014811D01*
X003808Y014653D02*
X001660Y014653D01*
X001660Y014494D02*
X003375Y014494D01*
X003271Y014336D02*
X001660Y014336D01*
X001660Y014177D02*
X003243Y014177D01*
X003273Y014019D02*
X001660Y014019D01*
X004170Y014336D02*
X012814Y014336D01*
X012713Y014494D02*
X004328Y014494D01*
X004390Y014653D02*
X012678Y014653D01*
X012690Y014811D02*
X004390Y014811D01*
X004390Y014970D02*
X012759Y014970D01*
X012949Y015128D02*
X004390Y015128D01*
X018935Y021944D02*
X035425Y021944D01*
X035150Y021785D02*
X019210Y021785D01*
X019428Y021627D02*
X034932Y021627D01*
X034774Y021468D02*
X019586Y021468D01*
X019728Y021310D02*
X034632Y021310D01*
X034541Y021151D02*
X019819Y021151D01*
X019911Y020993D02*
X034449Y020993D01*
X034383Y020834D02*
X019977Y020834D01*
X020019Y020676D02*
X034341Y020676D01*
X034298Y020517D02*
X020062Y020517D01*
X020085Y020359D02*
X034275Y020359D01*
X034275Y020200D02*
X020085Y020200D01*
X020085Y020042D02*
X034275Y020042D01*
X034287Y019883D02*
X020073Y019883D01*
X020030Y019725D02*
X034330Y019725D01*
X034372Y019566D02*
X019988Y019566D01*
X019934Y019408D02*
X034426Y019408D01*
X025851Y014970D02*
X019862Y014970D01*
X020165Y014811D02*
X025761Y014811D01*
X025743Y014653D02*
X020402Y014653D01*
X036737Y026857D02*
X039275Y026857D01*
X039670Y027016D02*
X037107Y027016D01*
X041668Y030186D02*
X042700Y030186D01*
X042700Y030344D02*
X041907Y030344D01*
X042065Y030503D02*
X042700Y030503D01*
X042700Y030661D02*
X042156Y030661D01*
X042227Y030820D02*
X042700Y030820D01*
X042700Y030978D02*
X042270Y030978D01*
X042285Y031137D02*
X042700Y031137D01*
X042700Y031295D02*
X042285Y031295D01*
X042251Y031454D02*
X042700Y031454D01*
X042700Y031612D02*
X042207Y031612D01*
X042115Y031771D02*
X042700Y031771D01*
X042700Y031929D02*
X041994Y031929D01*
X041818Y032088D02*
X042700Y032088D01*
X042700Y032246D02*
X041471Y032246D01*
X042700Y001814D02*
X001660Y001814D01*
M02*
