G75*
%MOIN*%
%OFA0B0*%
%FSLAX24Y24*%
%IPPOS*%
%LPD*%
%AMOC8*
5,1,8,0,0,1.08239X$1,22.5*
%
%ADD10C,0.1330*%
%ADD11C,0.0845*%
%ADD12C,0.0940*%
%ADD13C,0.0600*%
%ADD14C,0.2330*%
%ADD15C,0.0725*%
%ADD16C,0.0595*%
%ADD17C,0.0480*%
D10*
X013180Y003180D03*
X041180Y003680D03*
X013180Y029180D03*
X041180Y031180D03*
D11*
X004180Y005180D03*
X005740Y005180D03*
X007300Y005180D03*
X008860Y005180D03*
D12*
X003180Y018511D03*
X003180Y019889D03*
D13*
X003180Y024160D02*
X003180Y024680D01*
X004180Y024680D02*
X004180Y024160D01*
X006680Y025420D02*
X006680Y025940D01*
X007680Y025940D02*
X007680Y025420D01*
X008680Y025420D02*
X008680Y025940D01*
X009920Y028680D02*
X010440Y028680D01*
X010440Y029680D02*
X009920Y029680D01*
X009920Y030680D02*
X010440Y030680D01*
X004180Y028200D02*
X004180Y027680D01*
X003180Y027680D02*
X003180Y028200D01*
X026160Y025180D02*
X026680Y025180D01*
X026680Y024180D02*
X026160Y024180D01*
X029680Y024180D02*
X030200Y024180D01*
X030200Y025180D02*
X029680Y025180D01*
X028440Y029680D02*
X027920Y029680D01*
X027920Y030680D02*
X028440Y030680D01*
X028440Y031680D02*
X027920Y031680D01*
X029180Y003940D02*
X029180Y003420D01*
X030180Y003420D02*
X030180Y003940D01*
X031180Y003940D02*
X031180Y003420D01*
D14*
X033180Y007680D03*
X036680Y004180D03*
X040180Y007680D03*
X037180Y013180D03*
X036180Y020180D03*
X033180Y025180D03*
X036180Y028680D03*
X040180Y025180D03*
X022680Y025180D03*
X019180Y027680D03*
X015180Y024680D03*
X018180Y020180D03*
X019180Y013180D03*
X022680Y008180D03*
X019180Y005180D03*
X015180Y008180D03*
D15*
X013180Y014680D03*
X013180Y018680D03*
X031180Y018680D03*
X031180Y014680D03*
D16*
X026180Y014680D03*
X026180Y016680D03*
X003680Y014180D03*
X003680Y012180D03*
D17*
X025765Y003655D03*
X025765Y027690D03*
X030055Y028900D03*
X009100Y031375D03*
X007835Y030550D03*
X004755Y029670D03*
X002830Y031045D03*
M02*
