%
M48
M72
T01C0.0240
T02C0.0315
T03C0.0320
T04C0.0394
T05C0.0430
T06C0.0510
T07C0.0780
T08C0.0810
T09C0.1150
T10C0.1250
%
T01
X25765Y3655
X25765Y27690
X30055Y28900
X9100Y31375
X7835Y30550
X4755Y29670
X2830Y31045
T02
X3680Y14180
X3680Y12180
X26180Y14680
X26180Y16680
T03
X26680Y24180
X26680Y25180
X29680Y25180
X29680Y24180
X28180Y29680
X28180Y30680
X28180Y31680
X10180Y30680
X10180Y29680
X10180Y28680
X8680Y25680
X7680Y25680
X6680Y25680
X4180Y24680
X3180Y24680
X3180Y27680
X4180Y27680
X29180Y3680
X30180Y3680
X31180Y3680
T04
X3180Y18511
X3180Y19889
T05
X13180Y18680
X13180Y14680
X31180Y14680
X31180Y18680
T06
X4180Y5180
X5740Y5180
X7300Y5180
X8860Y5180
T07
X18180Y20180
X36180Y20180
T08
X37180Y13180
X19180Y13180
T09
X22680Y8180
X19180Y5180
X15180Y8180
X33180Y7680
X36680Y4180
X40180Y7680
X40180Y25180
X36180Y28680
X33180Y25180
X22680Y25180
X19180Y27680
X15180Y24680
T10
X13180Y29180
X41180Y31180
X41180Y3680
X13180Y3180
M30
