<?xml version="1.0" encoding="UTF-8" standalone="no"?>
<svg
   xmlns:dc="http://purl.org/dc/elements/1.1/"
   xmlns:cc="http://creativecommons.org/ns#"
   xmlns:rdf="http://www.w3.org/1999/02/22-rdf-syntax-ns#"
   xmlns:svg="http://www.w3.org/2000/svg"
   xmlns="http://www.w3.org/2000/svg"
   viewBox="0 0 937.71863 377.95279"
   height="377.95279"
   width="937.71863"
   id="svg815"
   version="1.1">
  <metadata
     id="metadata821">
    <rdf:RDF>
      <cc:Work
         rdf:about="">
        <dc:format>image/svg+xml</dc:format>
        <dc:type
           rdf:resource="http://purl.org/dc/dcmitype/StillImage" />
        <dc:title></dc:title>
      </cc:Work>
    </rdf:RDF>
  </metadata>
  <defs
     id="defs819" />
  <path
     id="path4803"
     d="m 455.79492,104.47656 -0.41015,0.18164 0.41015,0.43555 0.41016,-0.18164 z"
     style="fill:#000000;stroke-width:0.41099542;fill-opacity:1" />
  <path
     id="path4801"
     d="m 463.77734,207.08594 0.61524,0.0371 -0.24024,-0.20313 z"
     style="fill:#000000;stroke-width:0.41099542;fill-opacity:1" />
  <path
     id="path4799"
     d="m 463.58984,207.07422 -0.0469,0.11523 0.23437,-0.10351 z"
     style="fill:#000000;stroke-width:0.41099542;fill-opacity:1" />
  <path
     id="path4797"
     d="m 880.79688,94.808594 0.37695,-0.400391 0.41015,-0.617187 -0.47851,-0.617188 -0.20899,0.271484 -0.10742,0.726563 z"
     style="fill:#000000;stroke-width:0.41099542;fill-opacity:1" />
  <path
     id="path4795"
     d="m 880.79883,94.863281 -0.002,-0.05469 -0.0332,0.03516 z"
     style="fill:#000000;stroke-width:0.41099542;fill-opacity:1" />
  <path
     id="path4812"
     d="m 514.86523,132.83789 0.0371,13.66992 0.25391,0.50781 0.0644,0.24805 1.56446,6.01367 1.48046,-0.66211 1.69727,-5.04687 1.61328,0.375 2.1211,1.58984 2.20507,9.1836 0.2461,3.14062 -0.63867,0.98438 -3.13477,3.53125 -3.18359,3.05078 -4.22461,1.71289 0.0391,14.64648 0.41211,-0.45508 2.4082,-3.27929 4.51172,-1.90625 2.56055,8.86719 -0.23047,5.21679 -1.26953,0.63477 -3.52344,2.20312 -3.38281,2.6211 -1.44922,0.14648 0.0254,9.625 2.27539,-0.14062 5.75391,-0.38477 3.8457,-0.82617 3.49414,-0.87305 9.52734,-2.26758 1.78321,3.2793 0.46093,4.82813 -2.00781,8.3789 -0.72461,3.26758 -7.95898,1.31836 -2.35938,0.93555 -2.72851,0.91796 -3.59766,-2.15234 -3.0293,-2.33594 0.6211,4.19336 0.84179,4.35938 0.3086,0.9707 0.0547,1.42774 2.31054,0.66601 6.2461,-1.9043 6.78711,-2.26757 1.43164,0.37695 0.58789,1.00391 0.84765,2.20117 2.04493,5.4707 0.79882,-2.77539 1.90821,-10.20117 0.38867,-2.53711 0.80273,-5.3457 0.80469,-4.85938 0.94141,-6.75781 1.12695,-3.05664 1.81445,-3.9043 1.92383,-3.06641 1.67578,-2.27734 1.3418,-1.88281 9.94922,-5.93945 1.12305,2.58203 -0.54297,5.85547 -1.1543,6.84374 -0.90039,2.09376 -0.41602,0.77343 -0.55273,6.32617 0.51758,13.56446 0.92968,14.97461 0.83594,6.63086 1.07227,5.13867 0.99218,4.76562 -0.16601,2.35742 -3.57813,-0.2539 -7.46289,0.66406 -7.99609,2.37695 -4.12109,1.39454 -8.66016,-0.25391 -1.60742,-0.62305 -1.66406,-7.14258 -1.08008,-6.07031 -1.1211,-0.52539 -1.25,7.16016 -6.01757,14.71679 v 0.002 l -3.19532,3.18164 -2.38867,0.8457 -1.72265,-1.91797 0.0234,8.97071 1.33008,-0.69336 2.17578,1.60156 4.49219,4.47266 1.71289,2.3164 1.80273,2.46484 1.01563,1.47071 3.47656,5.72265 0.78711,2.87696 1.45313,7.1914 1.45898,6.1543 0.56445,3.74609 0.76172,3.91602 2.16797,5.19141 3.24414,7.71289 0.6211,1.94922 0.44921,2.5664 0.21485,5.95899 -0.61914,6.66601 -0.67383,2.16406 1.10156,0.4375 3.59766,-8.44726 0.92383,-9.15235 -0.67188,-3.32226 -0.42969,-2.17383 -0.3789,-1.97656 -1.88477,-7.00586 -2.84765,-6.3418 -2.83985,-5.98828 -0.78906,-3.08203 -2.1582,-10.20703 -1.95118,-5.49805 -5.13085,-4.83984 -0.51368,-0.41016 -1.83203,-2.36328 -5.97851,-6.97852 3.02148,-2.99414 1.66602,-0.95507 2.09375,-1.30469 6.1914,-0.18555 6.65625,-1.51562 14.89453,-5.0586 11.29493,0.1211 3.57617,1.57226 4.54101,4.68555 2.92578,4.5 2.0918,5.72266 2.32617,5.77539 4.16797,6.36914 -1.01367,-7.39649 -1.29297,-4.91015 -0.72266,-2.9336 -0.14062,-0.80469 -0.11914,-0.24804 -0.94531,-1.25586 -1.33594,-2.20117 -0.76758,-2.31446 -0.94141,-2.58398 -0.60156,-1.70313 -0.73633,-3.93164 -1.47656,-2.52929 -2.74414,-3.92188 -2.52734,-6.30664 -1.29688,-5.66211 -0.26562,-7.60351 0.42969,-25.07032 0.53515,-9.24609 0.65625,-2.33984 0.41211,-1.35938 0.41211,-1.17969 2.73828,-9.60937 1.08203,-2.36328 -0.70898,-3.49414 -1.49805,-5.16407 -0.29297,-5.6289 0.5,-2.41602 -1.6289,-1.39453 -3.74024,2.31445 -1.30859,5.23047 -6.09961,7.4961 -7.12695,-1.51172 -0.62305,-0.56836 -1.54102,-0.47656 -3.48242,-1.16797 -2.36914,-1.39063 -4.05273,-2.48242 -3.40039,-1.67383 -3.03711,-1.06445 -2.45508,-0.9707 5.03125,-2.28125 2.92383,1.00781 1.08593,1.59961 2.04883,-0.22656 2.70899,-3.73829 0.58984,-0.82226 1.66211,-1.44141 2.11523,-2.05469 0.49414,-8.3164 0.73243,-8.26758 0.28125,-1.46875 0.64257,-2.59766 0.32813,-2.44531 -2.77344,1.70313 -3.38281,2.26562 -1.33594,0.99414 -4.61328,-5.07226 -3.38086,-2.57617 -2.92578,-0.004 -1.13867,0.56641 -4.00977,-3.72071 -13.05273,-2.77734 z"
     style="fill:#000000;stroke-width:0.41099542;fill-opacity:1" />
  <path
     id="path4999"
     d="m 456.61133,85.224609 -1.63086,3.304688 1.22656,1.767578 2.01953,3.494141 0.57032,1.044922 1.08398,2.568359 0.85156,1.935547 0.27539,2.626956 -2.32617,1.18359 -3.03516,0.66602 1.49024,1.79687 3.17969,0.89258 5.43164,3.22266 1.74609,2.60546 1.86328,2.88868 1.58399,2.94336 2.71289,5.01171 0.60547,1.08204 0.85156,1.63281 0.73242,1.89648 0.65234,6.2793 -0.38281,6.74219 0.23047,1.47851 0.27344,1.3125 -0.0176,1.88867 1.80469,-0.73828 2.72851,-0.53906 3.67383,5.39063 -2.77344,15.70117 0.27344,4.26172 1.16406,2.6289 -0.27148,3.58985 3.625,10.79101 -1.06836,2.9668 -2.8418,4.13672 -3.3789,3.22265 -3.60157,3.28516 -2.89453,3.13477 -2.46289,1.1289 -1.85547,2.71094 2.00196,1.99609 10.08007,-0.13086 0.33399,6.55469 -1.16406,7.33203 -5.56055,1.00196 -3.86523,1.82421 1.48632,3.625 5.95703,0.43165 2.97657,5.99218 -0.004,0.48047 0.43164,1.36133 3.16211,4.01562 0.625,0.3086 0.61719,0.79101 3.30859,4.01368 2.44336,4.96484 -2.10547,2.93555 -4.46875,6.66796 -0.41211,1.38282 0.43555,1.84961 0.58984,0.41406 1.86524,3.08789 1.63086,1.69141 0.99414,0.56054 1.1289,0.35157 6.54493,3.75781 0.37304,0.41015 0.61719,0.41211 0.61719,0.40625 1.64258,0.66797 1.64453,1.03321 0.41211,0.76953 0.41015,-0.41211 1.39258,0.13476 3.64258,1.26953 3.18555,1.08204 -3.22852,1.375 -6.04101,5.43945 -5.44922,7.33789 -0.0664,0.63867 0.0469,0.39063 -0.3125,0.98632 -0.36132,1.48438 0.25195,1.23437 0.18164,-0.37304 0.55664,-0.16797 1.30078,-0.75586 2.8086,-3.78516 3.32421,-4.38086 7.97461,-6.54492 2.58008,-1.34765 -0.0234,-8.97071 -5.51758,-6.14258 -2.82813,-7.89453 -1.95703,-5.30664 L 491.75781,243 l -6.30859,-4.18164 -2.42969,-7.60742 1.50977,-4.68164 2.05664,-3.98438 1.67187,-3.7168 0.64258,-3.77343 4.51758,-5.27149 3.81641,-0.48437 5.12109,-0.0625 8.92383,0.45508 1.13086,-0.0703 2.6582,-0.16406 -0.0254,-9.625 -2.20313,0.2207 -1.56054,0.15821 -3.39063,-0.57032 -1.15039,-5.0039 -0.52148,-5.75391 -0.74414,-7.24219 0.875,-0.29492 0.57812,0.85157 1.67578,3.70312 4.81836,1.32031 0.22266,0.0606 1.36328,-1.49805 -0.0391,-14.64648 -0.80469,0.32617 -0.0332,0.006 -1.61719,0.2832 -3.9043,-3.36914 -2.17383,-3.38281 1.20703,-2.89062 -0.0332,-1.48243 2.92969,-12.58398 3.17969,-3.9043 1.18554,2.36914 -0.0371,-13.66992 -1.17382,-0.25 -15.34571,5.20508 -0.71679,1.87695 -1.46094,-3.0664 -2.84961,-3.29102 -3.32227,-1.60156 -2.97461,-1.89258 -2.24804,-2.44922 -1.83789,-2.41211 -0.68164,-0.92578 -0.10352,-0.82813 -2.65234,-2.06835 -3.99805,-4.375 -1.71289,-2.88868 -0.31836,-0.96484 -0.53906,-1.31055 -1.92774,-3.91797 -0.41015,-0.32421 -0.41016,-0.56055 -0.94141,-1.97656 -2.92187,-9.556644 5.00195,-6.25586 1.22657,-1.929687 6.87109,-3.015625 7.13867,-0.580078 5.19336,-0.572266 3.14648,-1.007812 5.49219,-1.259766 10.48047,1.21289 7.79883,1.373047 1.39062,-0.568359 -1.92578,-1.214844 -1.74804,-1.683594 -3.82227,-2.773437 -2.66992,-1.246094 -1.90039,-0.96289 -1.4375,-0.365235 1.29883,-0.679687 2.63867,-3.326172 0.17578,-2.867188 0.7832,-6.628906 -0.40429,-4.746094 -0.14454,-0.820312 -1.18945,-0.951172 -1.25977,0.398437 0.0781,5.814454 -0.0781,0.513672 -0.46093,2.003906 -0.6211,2.519531 -1.27929,2.824219 -1.50586,3.234375 -0.50586,0.925781 -0.40235,0.820312 -2.67187,0.41211 -2.66602,1.226562 -7.8789,2.876954 -3.5586,-1.070313 -7.12109,-5.785156 0.40039,1.570312 1.32422,3.765625 0.0352,3.082032 -2.53907,0.632812 -1.83398,0.445312 -4.31641,1.867188 -4.31445,1.951172 -1.57031,1.216797 -2.89258,2.638672 -1.61524,2.005859 L 458.67188,87 Z"
     style="fill:#000000;stroke-width:0.41099542;fill-opacity:1" />
  <path
     id="path5019"
     d="m 397.64258,34.814453 -13.97852,0.310547 -3.90429,1.892578 -5.95899,3.650391 -4.31445,2.769531 -1.95313,0.947266 0.3418,2.658203 2.84375,5.609375 0.41016,1.271484 0.41211,1.644531 0.4121,1.644532 v 1.023437 l -0.4121,2.869141 -0.86914,3.800781 -0.20508,2.185547 0.0469,2.095703 1.33399,1.5625 2.77539,1.035156 10.83593,3.607422 4.1875,2.017578 4.29297,2.070313 7.74219,4 1.29883,2.296875 0.58008,1.103515 -0.61133,3.642579 -1.20899,2.638671 3.5293,-1.626953 2.81641,-2.05664 7.03711,4.078125 3.00586,2.232421 1.73828,1.234376 -0.28907,3.359372 -0.51953,5.01758 -0.29687,2.1582 -0.47266,1.86914 1.29102,3.88086 8.12109,8.15039 1.44336,5.64258 0.22852,1.33399 0.86523,0.70117 1.04297,2.66992 0.9375,5.87891 0.29102,4.26562 -0.32032,1.31445 -0.375,3.63086 1.91016,-1.09765 3.01758,-1.01563 1.96484,0.61133 0.44727,15.42578 -0.6211,3.25 -0.92968,3.04102 -4.82422,2.76953 -4.93164,0.97461 -5.95313,2.99219 -1.51562,1.42968 -1.5918,-1.72461 -7.22266,-3.93359 -3.85742,-1.80273 3.46094,-9.29493 1.41992,-4.34765 1.12695,-7.16016 7.07422,-5.7539 2.73438,3.18554 0.68945,2.15821 1.77734,-1.2461 -1.09765,-7.69531 0.30273,-1.64258 0.22266,-1.4375 0.39844,-0.71875 -0.0215,-0.61328 -0.32226,-1.87695 -0.87891,-0.93946 -12.57031,-0.57226 -4.16016,-1.53321 -2.10547,-0.94726 -0.30078,-3.64453 -0.75781,-4.46485 -0.4707,-1.10937 -0.52735,-0.80078 -0.51367,-1.64063 -0.35547,-1.3457 -0.58398,-1.91797 1.53906,-3.46484 3.46094,-2.88867 1.69336,-1.44532 1.32812,-1.65234 2.36524,-4.542969 -2.44532,-0.234375 -2.26367,1.320312 -8.03906,7.851562 -0.5586,0.0566 -0.82617,-0.7207 -1.16406,-0.82227 -1.60156,-0.82031 -0.97461,-0.41211 -0.97266,-0.41016 -2.91211,-1.87109 -3.67578,-2.662109 -3.71679,-3.267578 -2.375,-4.837891 -1.35938,-3.316406 -1.22266,-1.90625 -0.91015,-1.1875 -1.8125,1.833985 -1.26172,2.18164 -1.13477,2.097657 -4.96679,5.195312 -2.39453,1.662109 0.80859,0.158203 0.57422,0.177735 -0.66602,0.398437 -0.18555,0.580078 0.0508,0.845708 0.84375,1.67968 2.48242,0.15821 1.70508,-1.16993 1.52343,-1.337886 1.93555,-1.535156 1.27148,-0.865235 1.10938,-0.820312 1.19336,-0.8125 1.62109,2.412109 9.03125,7.69531 4.21289,3.36133 1.82032,2.77539 1.57812,1.76367 2.39453,9.33985 -0.24023,5.21289 -3.2461,2.11328 -9.47851,-0.74414 -4.125,0.10547 0.32617,4.90625 -0.33203,7.69531 -1.09961,2.63281 0.47266,3.41797 3.47461,-2.57812 2.67187,-2.45313 2.74219,4.39063 -0.6875,6.03906 -0.61719,1.18164 -0.34375,0.95312 -2.54687,7.77735 -1.23438,3.83789 -4.58789,6.24219 -0.98047,-1.30274 -0.89453,-6.38672 -0.92578,-5.46484 -0.9668,-0.11914 -0.25976,4.58203 -2.61719,8.41406 -5.37305,7.09375 -0.8457,3.60352 -0.45508,3.0332 2.06641,-1.98828 4.96679,-6.58594 1.47461,-0.79101 1.625,0.96875 1.4043,1.1914 0.61523,2.34571 0.1836,9.22656 -0.82031,3.82812 -2.0293,2.05469 -5.4668,3.71289 -5.67578,7.48828 -1.44336,2.19531 -6.41601,9.34376 -1.54883,4.10937 -1.29688,4.11133 -1.75976,7.43554 -2.63282,2.59766 -2.67187,1.44531 -2.66797,1.4375 -0.4707,1.05274 3.85937,0.66406 2.03516,-0.91406 1.53906,-0.6211 0.94531,-0.35742 4.52735,-8.90429 1.46875,-3.65235 1.04101,-2.68359 0.39258,-1.39453 0.16211,-0.8418 0.41016,-0.8457 1.10156,-1.64844 0.8418,-1.40234 0.3789,-0.43165 7.82813,-9.01953 0.39258,-0.77539 0.92382,-1.02148 2.83594,0.97461 3.22656,1.25781 3.02735,0.58008 6.00195,-0.24414 4.68164,-1.84375 6.84766,0.67969 -0.88672,10.59765 -9.71289,9.58594 -4.18945,0.84375 -3.9004,0.40234 -7.41601,6.49805 -6.81445,7.99609 -1.34766,1.33985 -6.08398,5.62109 -2.82422,2.11524 -1.54297,0.60156 -5.77735,3.5039 -2.92187,1.58985 -3.30859,2.36523 -0.99024,1.15821 -1.2832,3.51171 0.21289,5.46875 0.98633,9.47657 -0.74219,4.65039 -0.29297,1.13476 0.36914,2.22657 0.11914,0.45117 0.2793,0.875 0.3457,1.99219 0.58594,1.72265 0.4375,1.19531 0.32031,1.64649 0.16406,1.65625 -0.0527,0.94726 -0.27539,3.7461 -0.90039,4.3789 -1.97266,1.54883 -1.00976,0.65625 -0.39649,0.4043 -3.63476,2.05469 -4.27735,2.05468 -1.54101,0.59961 -3.43946,0.71875 -1.83789,1.20899 -0.49023,0.35547 -0.71875,0.27734 0.71875,0.73047 0.64844,0.79101 7.07226,-1.08789 3.97266,-0.4707 4.69531,-0.96484 1.82813,-0.92578 1.55859,-0.72852 3.37305,-1.70312 1.58984,3.09765 0.53906,1.8418 1.28125,2.11719 0.6211,0.71875 1.08398,1.54101 1.22461,1.86914 0.51367,0.75 0.58594,1.00391 1.42187,1.64844 1.36719,1.14453 1.04492,0.40039 1.33399,-0.50977 -0.82031,-1.27148 -0.375,-1.48242 -0.51368,-1.52735 -2.2207,-4.22851 -2.65039,-4.68164 -0.40625,-0.41407 -3.56445,-5.39062 -0.39453,-1.69336 1.54492,-2.77539 0.94922,-3.08399 0.37695,-2.10937 -0.10938,-2.4668 -1.70312,-5.69726 -0.61133,-2.05664 -1.04297,-7.55664 -0.21093,-9.29297 2.10156,-8.6875 3.35937,-0.98633 3.42383,-1.17188 1.77344,-1.48437 1.07617,-1.54102 1.45313,-0.31445 0.61914,2.67383 0.99414,3.39648 3.00195,7.06445 0.20898,1.56446 -1.48437,-0.16406 -1.48633,0.11328 4.72656,4.45703 8.51563,3.83789 1.29297,-0.12695 -2.4375,-1.66407 -2.96094,-2.74414 -1.64453,-2.03515 -2.39063,-5.57032 -0.83789,-2.20898 -0.56445,-1 -0.46875,-0.68945 -0.625,-1.57422 -0.92188,-2.9668 -0.25976,-1.84961 0.77148,-1.67969 1.29297,-2.66992 1.74805,-2.26562 6.51172,-7.04492 3.34375,-2.68165 4.0957,-2.92187 0.95117,-0.73438 5.39258,-3.73046 3.64844,-1.87891 1.64453,-0.89063 1.23242,-0.77343 2.7793,-1.51758 6.26367,-5.39258 0.61719,-0.58789 0.61523,-0.82227 0.57813,-0.80664 1.91211,-2.93554 1.66015,-2.91407 0.60352,-2.07226 0.8457,-2.08984 0.56641,-0.97071 0.36914,-0.98242 0.38476,-3.35742 0.25977,-5.65039 -4.46289,-3.90039 -4.31836,-6.4336 3.94726,-11.21289 1.46876,-1.17773 -0.74415,-1.13477 -0.16015,-1.50195 5.65039,3.02539 2.32422,7.37695 1.23633,1.95313 2.66015,-2.625 5.39258,-5.03906 7.13281,-3.88477 -1.68945,9.2207 -1.4043,5.91993 -1.39453,4.6914 -3.86328,1.58008 h -2.81836 l -0.19336,3.03906 -1.32422,4.96485 -0.88867,2.875 2.26758,0.0644 7.36328,-3.94531 6.88086,1.0332 1.66992,4.18164 -1.73828,4.24609 -3.02539,4.50196 -3.11524,4.0039 -1.42773,1.74805 -1.59766,1.44922 -6.08984,6.67578 -5.49805,5.9375 -0.23828,5.63281 0.14844,4.92969 -2.86133,0.65039 -4.35742,1.41016 -7.56836,2.34179 -4.3457,1.07422 -6.11133,0.52344 -3.73633,0.26367 6.98242,3.42383 8.35352,1.26953 4.31641,0.45313 5.54687,0.14453 4.09961,-0.29102 2.93164,1.00196 2.01562,4.41796 1.59766,4.04102 1.39453,2.87695 1.07617,4.26367 -0.55468,3.17383 -1.47071,4.75586 -3.64453,9.47266 -1.49414,2.49414 -4.86719,7.45508 1.48829,2.01562 1.48046,0.43945 0.62305,0.59376 0.4375,1 0.17188,0.77734 0.8125,-0.58984 1.58593,-0.1504 2.07227,0.79493 1.43945,0.35742 4.74805,3.14648 2.55273,2.9043 1.76563,1.89062 5.62695,9.2168 2.57422,1.48828 0.25586,-2.52929 -0.79297,-2.4375 -3.02148,-6.48829 -9.49219,-8.70507 -5.52734,-2.18555 -3.10352,-1.74414 4.47461,-8.70703 0.1875,-1.48438 0.21875,-1.21679 0.46289,-0.5918 2.22461,-0.25195 2.47656,3.43164 1.33985,2.46484 3.91601,4.75195 3.5957,3.13867 1.24414,0.57813 1.84766,1.23047 1.84961,1.30469 0.30859,0.30078 1.19922,0.22265 1.14453,2.03516 2.16797,7.74023 1.81055,1.03516 1.20898,-0.45703 -0.16992,-3.29492 -0.66211,-4.52735 -0.52343,-2.35937 -1.43165,-1.95313 -2.0957,-0.82812 -3.42187,-2.22461 -0.85547,-1.39453 -4.19922,-4.64453 -0.20898,-0.36524 -0.43555,-0.75195 -1.02735,-1.30273 -1.02734,-1.09571 -0.61719,-0.54687 -0.61718,-0.77344 -0.65821,-1.31836 -1.01953,-1.49219 -0.86719,-0.83789 -1.73242,-7.29297 -0.42773,-3.07226 -0.53516,-2.25977 -4.17383,-11.44336 -1.37304,-10.24218 5.30078,-2.55469 3.69726,-0.79883 4.25586,0.74609 0.49414,1.39063 0.23242,0.49219 0.0879,1.20312 -0.29883,1.45117 0.14062,0.83789 0.12891,0.60547 -0.32617,1.75977 1.51953,4.93164 0.48828,0.52148 1.02734,2.25196 1.02735,2.15429 1.27929,1.55078 3.24219,3.61133 0.41016,0.28711 0.48633,1.10742 0.13476,2.38672 0.59375,0.9082 0.22461,0.82032 0.44141,7.19922 0.58593,1.76367 0.38868,1.41992 1.2539,-2.29297 1.49024,-4.26953 0.45312,-3.08984 0.0625,-0.36524 0.21485,-0.91797 -0.25,-1.17578 -2.11915,-3.04101 -3.33007,-4.51953 -2.88867,-3.76563 -2.03516,-3.69922 -0.69531,-5.16797 0.96289,-5.9707 1.74218,-2.67188 4.36133,-6.65234 4.30274,-3.14453 1.85547,-1.04102 3.06054,-1.50976 2.11328,-0.81836 3.3125,-0.28906 6.6543,-2.32422 1.2832,-1.66992 3.56446,-6.63672 0.7539,0.0547 -1.48632,-3.625 -3.44922,1.62891 -13.14454,5.57422 -7.71484,3.17773 -5.0332,4.07618 -3.17774,0.91796 -2.59375,0.86719 -1.49804,0.38281 -3.36719,1.19141 -3.74805,1.45117 v -0.002 l -4.93359,-0.17969 -0.54102,-0.82226 -0.85742,-0.37305 0.92383,-2.41211 1.50391,-2.32031 1.4375,-1.75391 1.43945,-1.84765 2.5332,-2.38477 0.14258,-0.92383 1.875,-3.08789 3.48437,-3.22461 1.30079,-1.38281 0.93945,-1.50195 2.05469,-3.16993 2.15625,-2.95312 1.13086,-1.52149 4.51562,-4.42773 0.41602,-1.04102 4.27734,-1.09961 8.14648,-1.42187 3.90626,-0.13672 0.91796,0.0547 0.26368,-0.65234 -0.24219,-1.85743 -5.58789,-3.29492 -1.4375,-1.06445 -0.63477,-10.24219 1.17578,-7.64258 -2.17968,-7.09961 -1.00196,-0.7207 1.27735,-1.10352 2.60937,-3.92187 1.67969,-9.86523 0.61914,-8.35743 -0.39063,-2.63476 -0.55664,-1.38281 4.00977,-1.34766 7.19141,-0.10547 0.90234,1.23437 -0.94727,6.19727 -0.73828,3.81445 0.20899,3.40039 2.08593,5.49219 0.71094,-3.38281 -0.43164,-3.62891 1.05078,-5.13476 0.4375,-1.01953 0.3711,-1.78125 0.0625,-11.00977 0.16992,-2.5918 -0.87305,-1.54101 -0.41211,-0.78711 0.3086,-1.43164 -7.07813,0.10156 -4.4082,1.80078 -4.45703,1.50391 -3.3418,0.79883 -2.34961,0.35351 2.16992,-9.66601 2.26563,-1.61133 1.41211,-1.25 2.8457,-1.23242 1.75195,-3.18555 -0.18554,-1.4043 -0.55274,-2.20703 -0.63672,-2.23242 -1.82226,-1.70117 -0.50977,3.09375 -1.60351,4.15039 -1.53907,2.17383 -0.23828,-0.125 -0.35547,-0.41211 -1.49414,1.02734 -1.64453,1.41406 -1.68359,1.8418 -3.26758,3.00586 -7.66211,3.60351 -4.79492,-5.04101 -2.88867,-7.76172 1.55664,-3.49219 2.7207,-2.11132 0.97852,-1.32032 0.82226,-1.23437 0.82227,-1.45117 0.82226,-1.52149 0.25781,-1.13867 -0.63281,-3.53711 -0.32226,-0.9375 -0.38282,-0.44336 -0.0645,-0.52734 -1.16016,-12.457034 13.65821,-6.134766 1.69726,-0.265625 1.98243,3.005859 1.00195,1.445313 1.63086,-3.304688 -1.74024,-1.498047 -0.30859,-0.730468 -0.82227,-2.259766 -0.82226,-2.117187 -0.44141,-0.730469 3.30469,-7.708984 0.14648,-1.738282 0.0195,-0.841797 0.26367,-1.541015 -0.77344,-0.832032 -2.07617,1.863282 -2.6836,2.476562 -1.23632,3.583985 0.14062,7.046875 0.60547,1.529296 -1.86914,1.583985 0.13281,-0.783203 0.96485,-0.78125 -1.91797,-0.28711 h -2.38477 l -1.25586,-0.425781 -2.99804,-0.455078 -3.69336,0.878906 -2.52344,0.619141 -1.04102,0.574219 -0.67383,0.830078 -0.36132,2.818359 0.40039,4.203125 0.18554,1.849609 0.98633,12.398438 0.2461,1.3457 -1.60547,3.72266 -1.4375,2.11328 -0.20508,0.875 -0.82227,1.45508 -0.49414,1.43555 -2.38281,0.13476 -2.72266,-1.94726 -2.69336,-3.58008 0.60938,-3.15625 0.67969,-4.72656 0.67578,-3.357427 1.58008,-1.767578 1.18945,-1.472656 0.22656,-0.595703 0.45508,-0.615235 -1.9043,-0.617187 -5.10547,-1.400391 -5.83398,-4.443359 -0.7207,-1.101563 -0.82422,-1.070312 -1.95117,-1.183594 -3.35157,-2.269531 -2.81836,-1.939453 -4.33203,-2.208985 -1.98632,-1.376953 -1.88672,-1.541015 -5.94336,-5.75 0.77734,-2.019532 2.03516,-1.232422 2.43554,-1.232422 2.60547,-0.804687 2.99024,-0.574219 2.61914,-1.279297 2.63086,-2.816406 2.52734,-2.4375 1.53125,-1.130859 0.006,-1.607422 -3.8457,0.765625 -7.71485,3.089844 -3.59961,1.052734 -2.01562,1.083984 -2.45899,1.632813 -1.70312,1.380859 -3.04883,3.082031 -0.5918,2.964844 -0.23828,2.140625 -2.87695,-1.009765 -4.16602,-1.011719 -2.00781,-1.097656 1.17774,-12.824219 2.97851,-0.837891 5.50977,-1.263672 4.41797,-1.107421 0.57617,-1.925782 -3.5957,-0.265625 -4.43946,0.798828 -5.44336,-0.515625 -3.84375,-1.242187 -0.86914,-1.566406 -0.10156,-1.796875 1.07227,-0.591797 0.30859,-0.552735 1.82226,-2.224609 4.21289,-2.197266 2.60352,-1.609375 4.45508,-0.992187 5.10156,-0.556641 3.07422,-0.947265 z"
     style="fill:#000000;stroke-width:0.41099542;fill-opacity:1" />
  <path
     id="path4793"
     d="m 422.20312,200.98242 1.23438,0.0137 -0.72852,0.18946 z"
     style="fill:#000000;stroke-width:0.41099542;fill-opacity:1" />
  <path
     id="path4817"
     d="m 222.16602,144.5332 -24.61914,2.54102 0.16992,2.11523 0.50195,4.21875 -0.98828,2.93946 -1.50586,3.26757 -4.21094,4.29102 h -0.002 l -7.80078,0.60937 -1.18946,-0.34179 0.0742,-9.07813 0.58594,-6.53711 -14.44336,1.49024 0.0254,0.10937 -0.56055,2.55469 -1.07812,0.17773 -0.25977,0.26563 -0.61718,0.28711 -0.61524,0.57226 -0.36719,0.8086 -0.58398,1.33594 -0.86914,4.21289 -1.29297,6.57422 -1.23047,4.02734 -0.58984,1.0293 -4.00977,3.73047 -0.81836,3.0371 1.66797,1.9004 0.10547,1.52929 -0.44726,0.55469 -0.82618,0.11328 -1.01367,0.26563 0.61524,0.45898 0.14062,1.13477 0.26953,14.0664 -0.46289,2.36524 -4.11914,4.16015 -4.91406,7.04297 -1.1836,1.22656 -4.09765,2.63868 -2.625,0.99218 -1.38281,1.76758 0.35351,3.52149 0.85156,2.77734 0.37696,-0.38867 0.8789,-0.3125 7.4336,-0.27539 3.21289,0.45117 2.36914,4.58984 1.34375,2.87696 1.4707,6.02734 -0.39844,9.32812 -3.19726,1.375 -1.04492,-0.64062 -0.72071,-0.23828 -2.73437,-1.25586 -0.0918,5.02734 -0.27734,5.72071 -0.71875,1.84961 -0.83399,3.08203 -6.34179,7.84179 -3.94727,0.41211 -5.7207,-3.32031 -1.46094,-1.06836 -1.55273,-4.92969 -0.18946,-3.18554 -4.13476,-4.38086 -0.72656,-0.27735 -3.02344,-1.1582 0.082,2.3418 -1.53125,10.71679 -8.35938,4.36719 -5.1875,2.54102 -2.25976,1.39062 -2.466799,0.94336 -4.826172,0.65234 -5.65039,-1.15234 -4.476563,-0.86523 -4.40039,2.69531 -1.783204,4.1582 -0.234374,0.97656 -0.228516,1.3711 1.988281,2.53516 0.917969,-1.8125 1.916016,-2.98047 1.222656,-1.16602 1.001953,1.23242 6.728515,2.69336 6.179688,-0.71484 6.83203,-0.48828 8.92383,0.82617 13.31836,3.875 0.92969,3.47656 -0.41211,2.86719 -0.41016,0.43555 0.37695,0.20117 0.66407,1.10742 0.73437,1.89453 0.53906,1.16602 3.19727,2.66992 3.39062,2.67773 1.71094,2.09961 4.18164,4.64258 0.36524,0.95703 0.57617,1.56445 3.91211,12.34766 1.41797,-0.041 0.29882,-10.09179 -4.47656,-6.83399 -1.82812,-3.10546 -3.80664,-4.01172 -1.79688,-4.75196 1.91992,-5.29101 1.69922,-0.93946 2.54102,-3.85937 7.54492,-13.95898 1.08594,-2.37696 0.58789,-1.68945 0.84179,-2.75977 1.31446,-5.0039 11.21484,-3.64063 5.24805,1.9043 -2.08203,-2.19922 -0.99414,-1.24609 0.7207,-0.36133 -2.50391,-2.94922 -3.75,-5.30664 -1.24804,-2.56836 0.19531,-5.85742 3.37695,-11.56836 7.13672,-2.74805 0.90235,-0.17187 0.63671,-0.61524 1.84961,-0.62695 1.21289,-2.02149 -2.41797,-5.83007 -0.57617,-1.66993 -1.0957,-4.82812 -1.25391,-6.92578 v -3.25391 l 1.78125,-1.98047 3.31055,-6.42968 1.95703,-6.22657 0.98828,-2.85351 0.8086,-0.2793 0.82226,2.03125 1.63867,3.69922 2.75977,4.19922 1.21289,2.79297 -0.48242,3.71289 -0.41211,2.65234 0.5625,4.24219 0.88477,5.21094 0.30078,0.89648 1.53711,2.5957 0.92382,2.60352 0.3125,3.36719 0.41797,3.48632 0.67774,16.05469 1.57617,11.11328 3.89648,-0.0234 -0.59375,-4.36914 -0.9414,-10.0586 0.88867,-4.08984 2.40039,-8.86719 3.12109,-0.46094 2.46485,0.30664 1.50195,8.11133 0.84766,3.45313 1.84375,-6.41993 5.45117,-7.00781 1.73437,-0.40039 0.25,-1.18554 -1.44726,-4.09376 -1.89649,-2.68164 -1.74609,-2.625 -0.72852,-1.51562 -1.42968,-4.9707 -3.31836,-5.13868 -0.27539,-2.68554 -2.66407,-15.25782 -0.44336,-3.07812 0.125,-2.19336 2.67188,-1.74805 3.9043,-1.75 6.91015,-2.94921 0.83008,-2.62305 0.95313,-3.27539 1.5,-3.07227 3.67773,-7.25976 z"
     style="fill:#000000;stroke-width:0.41099542;fill-opacity:1" />
  <path
     id="path4849"
     d="m 159.37305,81.007812 -6.88867,0.576172 0.80273,1.931641 2.25,5.34375 1.48242,11.917965 -0.20312,9.78125 -0.91993,2.15625 -1.15429,0.18555 -3.05664,-0.0391 -3.9043,-0.32813 -3.52148,-0.1582 -7.60352,-1.08984 -4.65625,-0.70118 -5.17578,-1.36132 -5.79102,-1.31055 -1.16015,-2.75 0.82812,-3.35742 3.07031,-4.931643 3.07422,-6.164063 2.37305,-7.177734 -7.13086,0.595703 0.55078,3.742188 -0.57226,0.990234 -0.55469,0.976563 -1.27539,3.519531 -2.11719,4.689453 -1.39648,1.982418 -1.03516,1.12696 -0.81836,1.45703 -4.05273,3.875 -2.93555,1.90429 -3.07617,-0.15234 -7.177737,-0.23437 -4.238281,-0.44336 -5.185547,0.44922 -0.908203,1.96093 0.726562,4.0625 0.521485,2.97852 h 1.683593 l 3.328126,0.79492 2.732421,1.06836 1.544922,0.82617 -0.466797,9.54102 -0.0078,3.08203 1.330078,-0.51563 3.822268,-3.57617 1.51562,7.27539 -0.67969,4.31446 -0.66601,3.38671 -1.52344,2.98047 -3.509764,1.29297 -2.117187,-0.88672 -5.751953,-2.74023 -2.910156,-1.32227 -2.203126,-1.07031 -0.867187,-0.61328 -3.33009,-1.84957 -7.53125,-1.25195 -3.113281,0.002 -3.181641,-0.36719 -3.101563,-0.60742 -6.458984,-7.78906 -4.736328,-7.07031 -2.199219,-8.70508 -0.789062,-2.36328 -0.953125,-0.49219 -0.6875,1.38086 -0.0957,4.29297 2.265625,10.21289 1.671875,3.59375 2.304687,3.36523 1.212891,1.40821 2.298828,2.12304 2.785156,5.58008 -0.232422,4.24414 -2.160156,9.52148 -0.441406,3.26563 1.904297,-2.06641 1.974609,-2.83984 3.150391,-5.45312 0.36914,-3.22266 2.681641,-5.11719 1.765625,0.41602 4.193359,0.43945 7.384766,4.0918 5.150391,3.26562 3.943359,1.73047 1.644531,0.96484 1.66211,1.12891 2.617187,6.98438 0.455078,5.43164 -3.013672,12.24414 -3.197265,3.59179 -2.242188,4.89844 -3.326172,5.43359 -2.355468,1.82422 -1.269532,1.07422 1.767578,1.73242 1.552735,3.06641 -1.488281,3.33789 -1.269532,3.92578 -4.759765,7.7793 -0.583985,0.36133 -5.646484,1.72461 -6.457031,-0.56641 -2.095703,-7.84961 -1.458985,-3.57422 -1.365234,-1.95117 -6.15625,-5.12891 -2.302735,-1.47656 -2.978515,-2.6582 -1.13086,-3.49805 -0.626953,-3.74805 -1.695312,1.85547 -0.820313,2.05469 -2.18164,0.0977 -2.744141,0.5664 -0.5625,-0.20117 -0.410156,-0.66601 -0.41211,0.60156 -0.71875,0.98633 -10.550781,-0.34571 -2.386719,-0.27734 -1.61914,-0.17969 -2.779297,-0.60351 -3.478516,-0.80664 -6.2089841,1.44726 -3.3105469,2.05469 -5.33203125,3.42969 2.38671875,9.89258 2.3515625,-0.47266 3.8925781,-6.09766 8.8886719,-3.05273 4.777344,1.88672 0.248047,3.21679 1.414062,13.49219 1.585938,-4.40625 1.4375,-7.91211 8.207031,-4.63867 7.248047,0.25977 7.117187,3.50195 4.517578,5.11523 0.691407,3.32813 0.357421,3.28125 -1.371093,5.79687 -3.863281,3.79102 -0.34961,0.48242 -0.644531,1.19336 -1.054688,3.73242 -0.96289,5.07227 -0.8125,3.22265 -0.835938,0.6875 -0.521484,10.15235 -0.292969,11.19336 -0.992187,6.09961 -0.08594,1.13672 -0.02344,0.73242 0.613281,3.35547 1.095703,5.7539 0.556641,1.84961 1.455078,5.95899 2.496093,6.0625 3.248047,1.1289 3.542969,1.23438 2.576172,0.41015 -0.755859,-0.82226 -1.56836,-1.84571 -3.101562,-3.0664 -5.00586,-8.15039 -0.628906,-6.08203 0.283203,-6.78125 1.892578,-5.3086 1.169922,-2.58594 0.892578,-1.53124 1.845704,-0.96876 -2.390626,-8.12695 -0.945312,-5.40625 3.294922,-10.49414 1.669922,-1.84961 1.904297,0.48047 4.738281,-0.008 2.035156,0.76367 1.556641,1.82422 2.189453,-0.16992 1.767578,-0.36328 2.105469,-0.53125 2.488281,-0.625 4.011719,-0.62696 2.414062,-0.625 1.28125,1.13867 2.076172,4.7168 0.326172,2.68555 0.802734,3.74609 0.619141,3.23438 1.259766,-0.0488 1.046875,-1.25781 0.998047,-3.79297 1.683593,-5.20117 2.128907,-3.00196 3.472656,-2.63476 6.929688,-1.58008 4.04297,-2.6543 -0.15625,-3.31054 -1.41211,-1.47266 -1.95312,-0.43164 -1.50391,-3.01953 1.17773,-5.4043 1.44336,-3.75195 0.98047,-3.10157 1.26563,-3.5 2.55664,-0.69335 1.99609,0.42578 -0.0547,-2.83985 -0.82421,-5.83789 0.61132,-5.87109 0.86524,-4.16211 1.93554,-5.83984 1.63672,-0.74024 1.58985,1.38477 2.15234,-0.17969 1.0293,-1.23438 1.92383,5.05664 1.23437,2.6836 1.80078,8.27734 0.21485,3.0625 3.58593,-2.47656 0.92383,-1.375 0.66211,-4.82422 -0.59375,-8.83008 -0.58008,-4.38476 1.10938,-1.36914 4.80273,-6.65821 0.37305,-0.85351 2.51758,-16.03516 -0.4961,-2.04687 -0.54492,-1.70508 -2.38867,3.87109 -6.75,9.59961 -2.00977,3.11328 -2.41601,1.15039 -4.45899,-1.48828 -3.14257,-0.39258 0.3789,-1.54101 1.45117,-4.76367 2.70313,-6.45118 0.75,-4.16406 -0.23438,-2.61914 0.91993,-4.18945 0.64453,-2.38867 -1.21875,-5.93555 1.32226,-4.88086 2.66797,-1.50586 4.28711,-0.4082 8.27539,6.32422 1.89063,3.14062 2.08203,1.85156 2.84961,-3.11523 1.95898,0.23828 4.20508,9.80274 0.6875,1.78124 0.20312,3.9375 0.34375,3.58985 0.82032,-1.21094 0.80859,-2.05078 0.57422,-1.96875 0.63476,-1.19336 3.32618,-7.01758 -0.44336,-1.61914 -1.10742,-5.60156 -0.0234,-4.72852 -0.57813,-8.51757 1.60157,2.42382 1.37304,2.77344 0.3711,0.96875 1.21875,1.4375 1.65234,1.43945 5.39648,6.39649 -0.58789,11.65625 -0.42187,5.13672 0.82031,3.68164 14.44336,-1.49024 0.28711,-3.18945 4.78516,-9.48633 0.64062,-2.46484 0.43555,-3.98242 1.56836,-2.48633 2.54101,0.84375 8.11133,3.59961 0.006,9.09375 -2.30664,3.57422 -1.79492,1.85937 0.0918,1.1543 24.61914,-2.54102 0.25586,-1.58984 -2.65235,-9.82422 -1.31445,-4.72656 -0.87696,-4.49414 4.87305,-7.78711 3.18555,-3.60156 0.58398,-0.42969 1.09375,-3.875 -1.97656,-3.64649 -0.52344,-0.84375 -4.22265,-4.498043 -1.0625,-1.171875 -0.64258,-0.400391 -0.9082,0.0059 -1.09375,0.01367 0.75,1.605469 4.71484,7.51563 -2.36328,3.41992 -4.90235,5.4043 -4.21093,3.64843 -1.67383,0.75586 -2.06055,-1.28125 -3.65039,-1.70898 -2.10351,-1.04102 -1.85157,0.2793 -1.58789,0.56055 -1.46679,-0.51954 -1.66602,0.35352 -2.56641,-0.56445 -7.05468,-0.99219 -6.97657,-0.51367 -2.8789,0.16992 -6.89453,-1.86328 -0.77149,-8.57227 4.57422,-2.92578 3.59766,0.99414 1.29687,0.4043 0.59961,0.23047 1.02734,0.23047 0.42774,0.0918 6.27148,4.13282 1.74805,0.31445 4.31055,-0.7207 0.68359,-0.94922 -1.04687,-1.98633 -4.9961,-3.47656 -0.80468,-1.82813 1.39648,-0.113281 2.13867,1.285161 8.89649,-2.986333 3.85742,-2.021484 5.06836,-0.544922 1.6582,0.84375 0.43945,0.345703 2.23243,1.232422 2.67187,0.650391 -3.79883,-5.699219 -2.36328,-3.06836 -0.82617,-0.513671 -0.82227,-0.345704 -4.32812,-1.298828 -12.16406,3.892578 -12.96875,2.074219 -7.60352,-0.953125 -4.48242,-2.037109 -4.62305,-5.921875 z"
     style="fill:#000000;stroke-width:0.41099542;fill-opacity:1" />
  <path
     id="path4791"
     d="m 122.69531,11.544922 -2.33789,8.166016 -5.4043,11.107421 -0.66601,2.244141 2.53711,0.25 2.7207,-1.035156 5.58203,-8.765625 1.27344,-1.914063 2.98828,3.453125 2.10547,11.771485 -3.30664,6.939453 -2.42383,2.353515 -1.07812,3.044922 1.36328,2.585938 0.51953,2.289062 -2.40039,1.408203 -3.80664,1.601563 -6.42774,1.873047 -5.42968,0.361328 -3.69922,-0.271485 -4.861331,-0.65625 -10.292968,0.583985 -6.908203,0.119141 -5.367188,-1.523438 -0.115234,-2.3125 0.71875,-3.554688 -2.017578,-5.652343 -2.900391,-3.623047 -5.876953,-5.578125 -1.527344,-2.59375 -2.230469,-3.90625 -7.886719,-8.648438 -2.371093,6.150391 -3.917969,9.027344 -6.736328,5.039062 -2.833984,3.66211 -2.580079,2.865234 -0.220703,3.992188 -6.847656,17.019531 -0.869141,2.375 8.146485,-6.869141 5.09375,-6.208984 6.05664,-12.777344 5.371094,-8.654297 5.832031,3.060547 0.966797,1.044922 2.667969,2.363281 5.197266,5.501953 3.019531,3.576172 -0.482422,1.498047 v 1.539063 l 0.482422,0.982421 -3.447266,1.966797 -0.662109,0.576172 -2.261719,3.181641 -2.259766,3.236328 -1.453124,3.128906 -2.861329,10.732422 0.71875,4.757813 0.71875,1.90625 1.423829,1.441406 0.419921,-4.263672 5.179688,-15.794922 1.056641,-2.164062 3.90039,-4.027344 1.376953,0.412109 -0.386719,0.410156 -0.640624,0.699219 0.492187,0.205078 2.970703,0.708985 2.976563,1.740234 1.642578,1.238281 1.859375,1.16211 0.568359,0.6875 -0.642578,2.363281 -1.472656,3.931641 -1.302735,4.580078 0.669922,2.796875 1.035156,-0.05859 1.058594,-4.025391 5.927735,-9.513672 1.9375,-1.908203 6.654297,-0.267578 7.888672,0.09766 1.11328,2.244141 2.66211,0.185547 8.5625,-5.064453 2.91211,-0.308594 6.50781,6.171875 0.41406,7.158203 -3.71289,4.371094 -2.38476,0.0078 1.36328,2.230469 0.0508,0.34375 7.13086,-0.595703 0.53906,-1.632812 1.44922,-5.083985 8.71485,-7.662109 4.54492,-0.882813 5.91211,-0.896484 1.96875,0.792969 -1.36719,9.798828 1.50391,3.61914 6.88867,-0.576172 -1.14649,-8.302734 0.57227,-3.660156 5.89648,1.189453 1.96094,0.208984 1.41602,0.667969 0.41211,3.158203 0.17968,3.591797 1.08985,2.277344 0.66992,-4.490234 4.04492,-5.478516 4.80273,-1.082031 3.69922,-0.582032 5.38868,-0.552734 3.61718,-0.544922 0.57422,1.375 2.26172,0.695313 -2.56445,-5.175782 -0.0469,-0.755859 1.08985,-2.673828 6.76171,-10.375 0.91211,-2.332031 -5.96875,3.253906 -2.83203,5.380859 -8.56445,8.402344 -6.4082,0.673828 -5.32227,0.357422 -5.89453,-0.179687 -4.45313,-0.832032 -1.63281,-0.390625 0.24219,-1.330078 1.75,-2.458984 4.53711,-4.03711 5.62305,-2.689453 5.82421,-3.207031 6.33204,-3.4375 7.44726,-2.996094 3.08203,-1.77539 7.23438,-3.164063 3.6289,-0.863281 1.30469,-0.228516 2.29883,-0.132812 2.5625,0.55664 0.56641,4.824219 -1.47657,6.539063 -2.06054,5.794921 3.11718,-1.003906 1.6875,-2.537109 0.98828,-2.265625 1.04297,-3.216797 0.26172,-2.876953 0.5586,-4.863281 1.97851,0.04492 2.61524,2.22461 3.10937,3.582031 0.19336,10.550781 -0.91992,4.128907 5.4375,-3.5625 1.38281,-1.519532 1.44531,-7.564453 -1.32617,-11.767578 -6.5293,-6.1875 -9.36914,-0.925781 -8.21679,-0.552735 0.0781,-1.730468 -0.43554,-8.265625 -1.95313,1.474609 -1.76562,4.435547 -8.875,9.929687 -3.625,2.289063 -5.12891,3.496094 -10.27539,5.46875 -5.95899,3.658203 -4.34179,2.953125 -3.30664,2.414062 -6.13282,9.03125 -2.33984,1.748047 -6.92187,-3.11914 -12.09766,-4.570313 -4.21875,-1.318359 1.12891,-3.425782 1.44726,-5.292968 1,-3.212891 1.75391,-3.089844 2.58594,-3.4375 3.0371,-3.826171 5.19336,-5.457032 4.78711,-3.455078 10.48633,-3.361328 9.89453,-4.636719 1.94922,-1.644531 -0.35351,-1.089844 -2.76758,0.01953 -7.69727,3.826171 -5.95898,0.646485 -6.76367,1.414062 -3.21094,1.054688 -2.85938,0.662109 -5.00976,-0.05078 -5.45117,-1.871094 -5.05079,-5.71289 -2.04492,-2.201172 z"
     style="fill:#000000;stroke-width:0.41099542;fill-opacity:1" />
  <path
     id="path4789"
     d="m 331.83398,9.5898438 -2.625,2.7148442 -0.31445,0.580078 -0.16406,2.779296 -1.21875,5.197266 -5.96875,5.814453 -2.78711,2.1875 -3.98047,1.058594 -5.70508,1.197266 -4.0332,1.666015 -6.41211,6.31836 -4.86328,5.574218 -2.64844,2.054688 -3.41601,1.470703 0.96679,-1.748047 2.56055,-5.644531 -1.97656,-13.035156 -0.72852,-1.09375 -0.95898,-1.820313 -1.43946,-0.636719 -0.47851,-0.289062 -0.3086,-0.458985 -0.34179,4.28125 -1.13672,11.476563 -0.92383,3.660156 -1.23047,4.13086 -0.57812,4.179687 v 3.269531 l -2.15821,0.697266 -3.07226,1.267578 -3.08203,1.140625 -15.72657,8.498047 -4.83593,5.314453 -1.19727,-1.953125 -1.58984,-2.568359 -0.67969,-3.28711 0.93555,-3.904296 1.19726,-3.494141 0.76953,-1.439453 4.71875,-5.017578 2.97852,-2.6875 0.78125,-1.541016 0.79883,-1.621094 1.08984,-2.353515 0.8457,-2.107422 0.55274,-1.564453 2.0332,-4.66211 -3.20898,-0.279297 L 253.5625,45.5 l -6.47656,8.277344 -8.13282,7.648437 -7.57031,6.675781 -2.52343,1.228516 -7.53711,1.841797 -3.28711,0.414063 -5.13282,2.240234 3.39063,1.664062 2.95312,0.798828 9.70313,-0.361328 4.82031,1.832032 0.28711,9.044922 0.65039,13.029296 1.80274,5.671876 1.41601,4.21289 1.64649,11.88867 -0.53516,3.49805 -0.47266,5.81836 1.7168,3.75586 1.38477,0.62304 1.24023,0.61524 0.97656,0.65039 -0.99219,9.41992 -1.22851,3.40234 -2.88867,4.66407 -2.22071,2.29492 1.20508,2.22266 0.6211,4.67773 -0.82227,6.98633 -0.61719,7.74219 0.0449,8.07226 -1.6836,6.35156 -3.94922,6.90625 -3.60351,6.55469 -4.16602,3.42969 -4.06055,1.69141 -1.38867,0.5957 0.20508,2.88672 0.64649,3.32812 6.11523,0.36719 9.40234,1.6875 -1.01367,10.59766 -3.10742,6.83203 -0.79688,1.83008 -1.07421,2.4414 -0.81641,1.43164 -0.30859,0.6211 -1.12305,1.70507 -3.58594,4.66797 -4.60156,9.24805 0.27539,2.08398 -1.94336,1.72852 -5.42773,5.11133 -5.05664,3.80664 -6.00196,0.84375 -7.57226,0.0391 -11.71485,0.082 -7.25,0.4043 -6.95117,-0.76172 -1.8457,-0.60547 -3.99024,3.59961 -3.32422,6.41406 -1.91406,6.83789 0.41016,0.61719 2.69531,-1.70508 8.60156,-8.21093 3.60938,-0.70118 7.54101,0.35352 8.10547,0.91797 1.43555,4.41406 0.37891,0.71875 -0.13086,2.74023 -2.67188,5.78711 -3.45117,4.03711 0.48633,0.15039 0.93164,0.12305 1.75,0.40625 4.50976,-3.79883 1.36524,-1.52148 3.5,-5.76758 0.63281,-4.58203 2.32227,-2.46289 5.85937,-2.27149 11.14844,0.27539 3.96094,2.84766 2.88281,7.74219 -1.11524,5.02734 -1.43164,6.16602 -1.28906,5.13672 -1.55859,3.49414 -2.93946,6.00586 -5.54882,1.40039 -6.36914,1.625 -4.31641,1.36328 -11.60938,4.14062 -1.13085,1.69922 0.61718,0.61524 2.16211,-0.17774 9.96875,-2.71289 9.44531,-2.98633 3.9043,-1.33203 10.43359,-0.33203 2.69336,3.14844 0.0234,4.01562 4.14063,5.68555 5.31445,4.60156 3.6875,2.77149 2.66016,1.57226 2.35156,-0.5 10.71094,0.67578 2.74023,2.0254 2.64453,2.34374 1.27735,1.13868 1.46289,1.33593 2.1582,2.42188 1.13086,1.50586 1.26562,1.58203 3.10352,3.95117 2.23437,2.54102 0.16407,-0.62305 0.40429,-0.13281 0.63672,-0.40625 -3.36523,-6.46094 -3.27149,-5.7168 -2.84375,-5.7539 -0.90234,-1.44532 -6.17773,-6.20703 -10.71094,-1.55273 -5.9961,0.38281 -7.74023,-2.42187 -1.69922,-1.07422 0.61719,-1.54688 1.04297,-2.40625 -2.68164,-18.83007 -3.12305,-11.0918 -0.0254,-4.08985 -0.28516,-3.39843 -0.70508,-11.02344 0.92383,-12.30664 0.91211,-2.7793 0.37696,-1.49023 1.03906,-2.15235 1.16406,-2.23632 1.90234,-3.08204 2.61133,-3.83593 4.22852,-10.01758 0.6289,-2.42383 0.28711,-1.23242 0.47266,-2.9668 0.6582,-3.69922 0.16407,-1.84375 0.64648,-0.30859 0.61719,-0.37891 4.61914,-4.4082 5.6289,-1.50391 6.18555,1.62891 3.86719,5.68945 -0.28906,12.02149 -0.45118,9.98047 0.21485,0.40039 0.23633,5.37304 -4.59961,4.85743 -4.45117,4.78906 -1.84961,1.41797 -5.61133,6.375 -3.60352,4.86718 -0.54101,4.19141 5.45117,-1.87109 1.76953,-0.54102 0.85742,2.4668 1.72656,1.77344 2.18164,1.27148 2.16016,0.81445 -0.125,-2.49609 -1.01758,-5.17383 -0.44922,-2.0332 0.56641,-5.4961 1.82422,-2.62695 3.68945,-3.38281 3.01172,-3.27344 4.58594,-2.49805 4.54101,-3.33398 -0.43164,-2.39063 -4.79297,-4.90624 -0.39062,-9.27344 0.30273,-9.09766 4.15821,-7.65234 7.125,-2.56641 6.87695,-2.40234 5.88281,-2.5293 0.64649,-2.98047 2.86328,-14.66406 1.43359,-2.18555 1.05469,-1.13086 0.62695,-0.17187 0.26758,-0.86914 -0.98828,-0.41992 -1.50586,-0.12891 -4.0957,1.14844 -3.06055,3.26562 -9.9707,9.18164 -4.31641,1.37891 -4.4668,-0.89649 -2.375,-1.16211 -0.97656,1.22071 -0.97851,1.70117 -10.03516,3.64844 -2.99609,-2.98242 2.54296,-9.98243 1.45508,-4.41797 1.26367,-2.1582 0.78125,0.43946 1.95508,-0.22071 -0.51367,-1.84961 -0.0684,-6.77539 1.7461,-0.43945 3.20117,0.36719 2.31445,0.875 1.32422,1.84961 1.54297,3.28906 1.54883,4.84765 2.71875,1.0625 3.28711,-3.84961 0.76367,-3.2246 -0.28907,-9.35938 1.49805,-6.32812 1.28711,-4.19532 2.8457,-1.95312 2.64258,1.11328 1.81446,2.36328 1.39257,2.1582 0.64258,0.92383 2.2832,4.72656 1.1543,2.61329 0.85352,1.39843 3.45898,2.16993 0.0508,-2.38868 -0.20898,-3.4375 -1.74414,-5.92382 -3.48047,-4.41602 -2.5,-3.36328 -2.13086,-2.74024 -2.31836,-2.26172 -1.58008,-1.27539 -0.73047,-0.29687 -5.24804,5.06055 -2.81446,3.12304 -2.59961,-0.64648 -0.94922,1.04101 -3.375,6.58204 -4.125,0.61718 -3.18554,0.0352 v -2.30664 l 0.26562,-4.24805 1.24805,-1.75586 1.39258,-0.58008 -0.91211,-6.38085 -0.24024,-1.84961 1.10938,-1.99024 1.23242,-2.4668 2.95508,-8.01367 0.55273,-2.46679 2.67188,-0.24024 4.28906,-1.125 3.86133,-0.61914 10.14258,4.17578 2.86523,6.16602 1.41406,5 1.03321,1.54101 1.0957,2.29297 0.65625,2.87695 2.29883,5.54883 1.71289,-2.18164 1.07422,-3.25 1.20117,-3.91211 3.44922,-7.02929 2.01758,-3.32813 -0.11914,-8.2168 1,-9.04882 0.3457,-2.95899 5.17578,-11.96289 2.75586,-6.0957 0.17188,-8.732424 -0.41016,-1.207031 -0.61719,-1.462891 -0.64453,-1.591796 -0.72656,-3.72461 -1.82227,-2.943359 -1.13476,0.382812 -1.3711,10.958985 -4.0625,8.494144 -1.1289,1.79492 -0.8711,1.13281 -1.77734,5 -1.41016,6.7168 -3.07226,1.10156 -3.15821,0.63281 -2.93945,0.39844 -2.90625,-1.54102 -1.375,-3.77148 -5.31641,-4.96289 -3.94335,-2.57813 -1.83008,-3.10742 -3.91797,-5.72656 -3.39453,-0.27734 2.87695,5.57031 2.86914,4.93359 3.03906,6.53321 1.23243,2.74414 -3.75196,2.59961 -4.63867,2.05859 -2.17578,2.05859 -1.88867,-1.05468 -2.13477,-1.75196 -2.27539,-2.23828 -2.0293,-1.54297 -4.69726,0.26758 -4.69922,0.26953 -1.65625,-1.3125 -2.69336,-3.45117 -1.08789,-8.09961 1.20703,-9.6582 1.50781,-10.02344 0.63672,-7.332031 7.88086,-8.947266 2.73633,-2.748047 3.52734,-3.667968 3.08203,-2.832032 16.18555,-6.017578 1.83789,-0.251953 0.43946,1.630859 2.08593,2.832032 1.375,0.757812 1.80078,1.048828 1.45118,3.394532 -3.55469,7.25 -3.0293,3.597656 2.00586,4.921875 4.24609,-5.042969 6.72266,-6.427734 10.07813,0.716796 21.875,15.148438 3.30859,4.931641 1.58008,3.763671 3.40234,6.873048 3.15039,4.12891 1.79688,6.14843 -0.66211,5.66797 -1.47266,3.60156 -3.91992,5.44141 -4.38867,4.64258 -3.71289,4.7793 -4.75391,5.26953 -2.25586,2.40429 -1.0957,-5.24023 -0.1543,-0.49805 1.11914,-9.6289 0.19336,-6.44141 -1.26953,-0.49023 -0.94531,4.56445 -1.00782,2.25976 -3.96093,10.26563 0.58984,4.72656 0.71289,8.5918 -0.97656,6.08398 -1.51758,1.97266 -1.43555,1.81445 -0.63476,2.44141 4.49023,11.70117 4.25782,1.23438 4.02929,0.36328 2.94922,1.16601 2.38281,1.49414 0.78321,0.57813 1.24609,2.45508 2.71484,2.25976 2.52735,-0.96094 6.09765,1.41016 0.73829,5.68555 -0.92188,6.04492 -9.63086,8.55273 -3.9043,0.82227 -6.4414,-4.26953 -3.38672,-2.61133 -2.55078,-0.45508 -5.31055,-4.4668 -3.07812,-5.15429 -1.51172,-5.69727 -0.57032,-0.13086 -1.74609,-0.61328 -2.08594,0.92188 -0.55273,4.00781 0.57812,4.60937 0.16407,6.76172 -2.54297,10.04492 -1.46875,8.33008 -5.26367,7.6211 -0.89844,0.83203 -1.51367,1.67578 -3.3711,2.34375 -7.0039,2.78711 -2.9961,0.42578 -4.84179,2.94531 3.4414,0.26953 4.82813,0.72657 1.81445,5.43554 0.14063,7.91602 1.66211,7.88476 -0.7793,3.57618 -4.84961,9.67968 -5.28906,4.45899 -2.83399,2.74609 -6.61133,6.32617 -4.88086,1.22266 -5.13671,1.26758 -16.35157,7.10351 0.72461,1.7168 2.53711,-0.80078 6.32031,-0.81055 5.97461,0.22071 6.92579,-2.51172 5.95898,-2.26758 6.19726,-1.625 5.11133,0.29492 1.93946,3.44922 2.8164,8.36719 0.17774,2.05468 0.19336,0.87696 3.69531,5.05078 1.06836,1.54101 0.30859,0.54883 1.9668,3.26172 0.0644,0.43555 0.44336,2.90625 1.3418,5.27344 0.7168,8.46484 -3.58594,5.81641 -1.8711,1.70507 1.13868,0.29297 6.48437,-3.57617 5.58789,-13.69141 -0.56445,-6.20117 -8.94922,-14.75976 -5.55469,-11.0918 -0.69336,-9.04297 1.66406,-11.41406 2.03907,-6.78125 3.36523,-5.85156 2.0957,-8.83789 1.85157,-12.81055 4.95117,-5.71485 1.98437,1.23829 0.83399,2.29297 0.61133,1.07617 2.41406,7.61523 0.19531,9.51367 0.20703,3.15039 -0.24218,7.35157 -1.93946,6.63281 -0.59765,2.87695 -2.27539,5.30664 0.15429,4.14453 1.66797,-1.95117 1.88281,-4.43359 1.20899,-2.81836 2.83594,-3.54492 4.41211,-12.52735 -2.65235,-12.74023 -1.30664,-5.34375 -3.27539,-10.40235 -1.42578,-3.57031 -0.5957,-3.84961 0.95898,-6.21484 0.83008,-1.95898 4.1289,-2.08594 4.58985,1.41211 3.19922,-0.29493 5.46875,-0.91992 13.30273,0.61328 1.49414,0.35743 -0.16211,6.26562 -0.3789,7.21875 -7.78711,10.21875 -2.49024,1.96094 -2.48633,1.46875 -0.79687,2.7168 1.66992,4.04492 0.8125,8.99414 -1.47851,10.75586 -0.61524,1.83398 -0.99219,3.9043 -1.26562,4.80664 -2.23438,3.35742 -1.83984,2.22852 -2.07227,2.32422 -2.3125,3.13867 1.00196,1.20117 4.01172,-3.39453 1.26562,-1.30664 5.10156,-5.06055 1.16211,-1.74609 1.04688,-2.56836 1.27929,-4.21289 1.2129,-4.72657 3.03906,-7.60351 0.61133,-4.72266 -0.21289,-2.27344 -1.00391,-2.26953 -1.38867,-1.41406 -1.22461,-2.86133 0.29883,-3.40234 4.62304,-4.53906 2.15821,-1.96094 4.58789,-9.45508 2.66601,-11.90039 2.08008,-3.83203 8.20508,-6.78906 6.98437,-6.9668 2.08985,-7.06836 0.41797,-6.19141 -0.20508,-2.375 -0.51563,-2.49218 -1.95898,-2.41407 -3.54102,-1.75195 -10.06836,-0.42578 -1.78711,-4.19922 -0.79492,-3.11719 -3.42968,-1.05468 -4.01172,-0.90625 -5.34375,-9.20703 0.84961,-3.24415 2.56836,-2.70117 3.73828,-3.66015 1.59765,-3.17383 2.60938,-1.79883 7.64453,-2.04883 4.14844,5.00196 -0.37305,7.63671 1.67187,0.10352 4.35352,0.30664 2.43945,5.03516 0.79883,5.83789 0.0117,2.34375 1.27734,-0.16211 1.46094,-0.34766 1.8418,-4.23633 3.20312,-6.10742 1.26368,-4.41797 0.16406,-6.53906 0.85156,-4.31445 1.51758,-7.70899 7.60547,-6.83008 1.9707,-2.125 1.01953,-1.48242 2.9082,-5.27539 -1.32617,-5.54297 -1.27929,-0.91211 -0.93946,1.17774 -0.73437,1.51562 -0.43946,0.98243 -0.39843,1.04687 -2.31055,3.64258 -0.81445,0.92383 -2.65625,3.57031 -6.78907,7.50586 -1.19726,2.33984 -1.33399,2.65625 -2.81054,1.26367 -6.26953,-2.30078 -5.28711,-8.69726 -0.99219,-15.48243 3.09961,-12.529292 -3.04102,-13.710937 -4.83398,-5.035157 -1.79688,-1.644531 -4.5664,-3.863281 -0.25,-9.558594 2.35156,-14.279297 1.11523,-6.0625 -7.54296,2.726563 1.08203,8.55664 -0.56641,8.703125 -1.69141,3.789063 0.37305,3.648437 0.86914,2.488282 3.52539,6.390625 0.58399,0.902343 3.40234,5.720703 2.14648,4.853516 0.87305,3.84375 0.56445,2.748047 -3.43945,6.333985 -4.1582,0.88867 -1.31445,-0.51367 -1.22657,-1.77734 -2.37695,-10.265629 -4.375,-10.830079 -2.01172,-2.472656 -4.16016,-6.109375 -5.45117,-4.880859 -11.05273,-6.003906 -9.75195,0.08984 -4.52149,2.052735 -6.36328,-3.236328 1.08398,-4.580078 2.18164,-1.953126 8.78907,-7.080078 8.07617,-6.160156 7.19531,-5.167969 5.13867,-1.191406 7.11133,-1.275391 9.40821,-0.203124 4.90234,-0.246094 5.52539,-2.039063 7.03125,-1.175781 5.31445,-0.40625 3.32031,-1.048828 3.9043,-2.128906 3.00977,-2.40625 2.0625,-3.058594 -0.66211,-0.84961 -2.44336,1.652344 -12.9668,0.166016 -6.55664,-0.779297 -3.11523,1.478516 -7.53125,-0.640625 -3.1543,-8.574219 -1.38477,-2.685547 z"
     style="fill:#000000;stroke-width:0.41099542;fill-opacity:1" />
  <path
     id="path4892"
     d="m 821.9375,72.214844 -2.72656,0.359375 -2.35742,0.873047 -2.25977,1.044922 -2.87695,0.642578 -0.46875,-0.455078 -0.20117,2.261718 -0.35547,2.259766 -0.61914,0.77539 -3.05469,2.150391 -1.64258,-1.212891 -3.125,-2.535156 -0.70312,2.634766 -0.0117,1.734375 0.28515,1.664062 0.25977,2.556641 -0.4336,1.683594 -4.36523,6.28125 -1.29687,-2.169922 -6.87305,-3.546875 -9.3086,1.953125 -8.24218,0.654297 -7.07032,0.185547 -3.61523,-1.304688 -4.46484,-2.310547 -1.50782,-0.751953 -2.78125,-1.669922 -1.84765,-3.34375 -1.84961,-3.11914 -0.86524,-0.308594 -2.11523,-1.050781 -1.67774,-0.621094 1.33594,3.726562 1.875,3.845703 2.3086,3.44336 1.42578,1.394531 1.39844,1.179688 2.14648,1.714843 3.00391,3.28711 6.71875,0.746094 4.72656,-0.605469 9.31054,0.210937 4.93165,-0.611328 3.42187,-0.478516 8.9082,3.830079 -0.9375,1.896489 -1.04687,3.84765 2.9082,4.57227 1.13086,1.53515 -8.2207,9.58008 -2.16211,2.01953 -4.52149,0.94141 -6.46875,0.43164 -8.83593,1.44141 -8.01367,1.50781 -2.80665,2.44336 -2.58984,1.96679 -5.6543,-2.92578 -3.65429,-1.84765 -6.58399,2.08984 -2.17383,1.76367 -1.89843,1.76758 2.96289,4.56836 2.26172,5.77539 0.92187,3.74609 4.41406,5.18164 0.68555,12.14454 0.57617,6.98632 3.4668,6.72461 1.38867,1.53711 -1.55469,5.12891 -2.07617,6.10156 0.58985,7.01758 1.67773,20.50391 -2.08789,1.27929 h -1.42773 l -0.006,-2.36328 -4.92579,-14.6914 -2.05468,-2.97071 -2.31055,-2.98242 -1.87695,-1.44726 -3.62305,-6.11915 -1.37305,-1.20507 -0.26953,1.02929 -0.47656,1.52149 0.3418,1.94726 2.4082,4.61133 3.33984,5.20313 1.96289,2.73632 2.69141,10.6211 0.23633,6.55469 -0.33008,1.18164 2.41016,2.41992 1.55468,0.49414 9.56446,2.27148 6.57617,0.97266 5.2168,1.50195 0.94336,1.42774 0.61523,1.93164 1.17578,3.53906 -2.37109,3.04492 -2.64063,3.49414 -2.01172,7.14844 0.043,1.82812 -0.39844,0.61719 -1.32226,-2.26172 0.34961,3.78907 0.23047,2.87695 -0.66211,2.75391 -0.85352,2.17968 -0.64648,1.98438 -0.3711,1.62304 -2.83007,1.84961 -2.81446,1.84375 -2.50195,1.10743 -2.53516,2.23632 -2.25195,1.7168 -0.25977,0.23242 0.58008,0.71485 0.18164,1.52929 -0.57617,6.23829 -1.09766,5.15234 -1.22656,2.02539 0.12891,2.32812 0.19141,0.92579 2.16015,5.47851 0.34961,1.30469 0.17383,2.0664 3.36523,1.125 0.86719,-0.86718 -0.99805,-5.04297 -1.00781,-12.60938 -0.008,-7.5664 2.67187,-0.54492 4.93164,-1.83985 0.79102,-0.36133 0.55664,2.29297 2.3457,19.28321 2.67383,9.90234 0.60547,1.69531 0.57813,0.69727 0.80859,0.42383 2.11914,0.23046 -1.20703,-3.64843 -0.65039,-4.57422 -0.88086,-3.91602 -1.62109,-13.11914 0.86718,-9.06445 -0.11523,-2.29102 -0.0215,-3.82422 1.57618,-4.05273 1.33984,-3.14063 0.97461,-2.64257 0.35547,-1.51367 2.46875,-11.4004 8.50586,-9.97265 0.55078,0.7207 0.56445,-0.51367 -0.92187,-1.47656 0.23047,-1.38672 6.83984,0.22656 6.80078,1.625 4.83594,0.77539 5.85351,2.04297 3.1211,5.58984 0.64843,9.58008 -1.52343,1.1543 -1.41993,1.25 -2.23046,1.7832 -1.85547,1.67578 0.71875,0.60157 2.77539,-0.65821 2.90625,-1.34961 2.64258,-1.54101 2.02734,-4.5625 0.0254,-2.52149 0.46289,-11.10351 -0.72461,-2.56836 -0.58984,-2.43555 -1.375,-5.05859 -0.83399,-12.04297 -0.26757,-9.85156 -0.48047,-2.44336 1.64648,-1.95313 1.92383,-3.21875 1.25977,-1.79101 1.79492,-3.22266 -1.99414,0.16211 -2.93555,0.77148 -4.29492,3.97071 -2.41211,8.61523 -0.18555,0.20313 -0.39258,0.24414 -0.79297,5.97461 -3.55273,1.36132 -1.27734,2.68555 -0.60743,5.55469 -5.83203,3.96094 -7.0625,-2.13868 -7.8125,-0.46484 -1.68945,-3.96289 -0.83594,-3.36328 -0.75586,-7.69141 -0.60156,-7.52539 -0.83398,-4.73828 -1.08985,-5.52344 -0.0215,-2.5039 0.006,-1.03125 0.0742,-1.08008 1.92578,-0.53711 5.85547,21.18359 0.7832,7.17578 3.70508,-4.31445 3.14062,-4.78125 2.59571,-3.98633 0.0625,-6.73437 -0.70704,-5.69141 2.32422,-2.81445 0.71875,-1.0332 -0.51562,-2.08594 5.55859,-1.89063 5.04688,0.51563 3.45507,0.5039 2.14063,0.30665 0.84766,2.94726 2.71289,2.11133 -0.42774,-4.9043 -0.97265,-2.37305 -0.98438,-0.98437 -3.81055,-3.91797 -1.95312,-0.7207 -3.5625,0.5918 -2.74219,0.34765 -2.76172,0.69141 -1.63281,0.91797 -1.83203,-1.26172 -2.49805,-4.0586 -0.76758,-7.26171 -0.6289,-4.66602 -0.52735,-0.98047 -0.76171,-0.7793 -2.03711,2.77539 -2.62696,11.09571 -0.39062,4.625 -1.65625,-1.0293 -3.55274,-1.07227 -5.08203,0.5 -0.97461,-0.084 -0.39258,-7.08984 -4.74414,-25.68555 -1.63867,-2.7168 0.92578,-0.69726 4.12305,-1.60938 3.19727,-0.91015 4.20898,0.82617 14.80078,12.33984 -0.36523,8.28321 1.59375,0.73242 1.88086,-0.25782 4.13086,4.09766 5.89843,3.86328 -0.95898,-3.65234 -2.41602,-11.73242 -1.4414,-17.87696 1.54297,-5.40039 2.45898,-3.13672 2.77149,-2.61523 4.16406,-5.41992 0.8125,-0.95313 -1.50782,-2.74023 -2.45898,-3.875 -0.79102,-3.76953 -0.0605,-2.26758 -0.50586,-1.46485 7.05078,1.63282 2.84766,0.62304 3.9707,2.75196 2.46289,1.3457 2.93945,2.36328 1.65625,2.86719 0.78125,0.94727 0.42188,0.79687 0.41015,1.05273 0.41211,2.04883 -1.82226,3.08789 -3.11133,5.50391 -1.74609,0.66601 -2.65821,0.25 -3.20117,4.67774 -1.54297,3.69922 -2.61328,7.39648 1.32617,12.13086 0.23242,3.14258 1.1836,9.92773 1.21094,2.3125 0.66601,0.88477 1.69336,2.72656 3.5957,4.94727 4.32032,6.35156 6.51562,8.63281 9.82227,6.91797 9.71484,7.40625 1.10938,8.53711 -1.26954,7.28516 1.13086,1.40625 2.36329,-2.71485 6.01171,-2.32617 1.69922,1.53516 -0.24218,3.1289 -6.85352,11.42774 -7.125,0.63476 -9.13086,-4.20703 -9.45508,-9.94336 -3.31054,-5.23047 -2.64844,-3.49414 -1.49219,-2.61718 -0.94922,-1.60352 -1.08984,-2.63281 -1.28906,-4.08203 -0.78125,-2.00391 -1.60352,2.96289 2.40625,9.16016 0.31055,5.85742 2.95898,8.61523 0.41992,8.44141 -3.36914,9.94141 -1.60351,4.72656 -1.5,4.42773 -3.02735,6.0293 -3.54687,5.53711 -8.87891,2.20117 -7.60351,0.45703 -4.18946,0.42774 -5.13672,0.95312 -3.35937,1.44727 -0.20508,0.66015 -0.0117,0.33985 -2.23437,2.77734 0.44922,6.17188 3.50976,-3.68555 1.23633,-1.99023 0.55664,-0.73633 2.68164,-2.11328 4.07617,-0.96875 11.09571,2.35156 1.41992,1.82617 2.5664,3.66016 3.0293,4.62695 1.37891,2.90625 1.45312,6.24023 1.45313,7.32422 0.33008,-5.03515 -2.05274,-10.37891 -2.18164,-11.29687 3.77148,-5.56446 5.71094,-9.85351 1.76563,-4.93164 0.65429,-2.55274 2.90821,-6.91797 1.2207,-2.21093 1.84961,-2.3125 1.84961,-2.21875 2.4707,-0.22266 1.94922,0.61328 2.1543,1.02734 2.13476,1.02735 3.10547,0.79883 4.29688,1.07226 2.50586,0.74219 1.32226,3.88281 0.75391,3.41211 -1.66992,3.36914 -1.58985,5.91406 -1.63672,10.26172 v 10.08594 l -0.77539,34.25391 -7.5039,10.48047 -4.24805,5.89257 -1.23437,4.33008 -0.80274,3.80078 h -0.002 l 0.43945,1.16407 2.02735,-1.57813 6.37109,-6.08984 5.75781,-8.07422 0.82813,-1.78711 0.8457,-1.72461 0.83398,-2.41211 0.57032,-1.36133 1.1289,-2.75586 0.61524,-2.47461 0.26562,-2.58984 0.56055,-13.87305 -1.74219,-8.69726 0.10742,-7.82032 2.20117,-10.76953 0.56836,-3.08203 4.48243,-10.38086 1.88086,-2.5039 8.56054,-9.66797 4.64063,-3.99219 2.625,-2.55273 0.5332,-0.59961 0.13672,-0.84571 2.5332,-2 2.17969,-1.99414 1.68164,0.58008 3.31055,1.97461 7.50195,3.00195 14.59375,8.81641 3.83008,3.58984 0.24023,3.80664 0.98047,3.8086 2.75196,-6.76953 -2.34766,-4.21289 -2.81445,-2.375 -2.01954,-2.79297 -1.27929,-2.42383 -0.99024,-1.40235 -4.52148,-2.56054 -2.87695,-1.08985 1.95312,-0.81445 3.00781,-0.89258 2.05469,-0.0195 5.31445,0.29297 4.31641,-0.0801 2.67187,-1.86718 5.13672,-3.125 8.38086,-8.13868 1.34571,-2.10351 2.02148,2.01953 1.56836,3.29687 0.61719,3.65235 1.06836,5.47461 0.6582,4.5 0.4375,5.40234 0.0781,4.72656 -0.21093,3.1211 0.1875,2.64062 3.10156,1.89453 0.48633,-2.54297 0.3164,-4.33593 1.25,-2.19141 -1.5957,-14.15234 -1.63476,-5.98243 -0.97461,-5.01757 -0.65625,-5.34375 -1.88868,-10.89649 -3.01562,-1.68164 0.008,1.14453 -0.86133,0.59961 -0.64648,-0.59765 -0.38281,-0.19922 -0.39258,-0.43555 -1.27149,2.98047 -1.82226,4.00586 -2.11328,4.66406 -6.01367,7.76953 -3.46875,2.49024 -2.47266,2.1289 -4.48633,-0.0391 -3.64453,-0.70312 -4.52148,0.95898 -13.15235,0.41211 -2.05469,-1.25391 -4.60156,-3.6289 -0.88281,-3.69532 -0.85938,-6.88085 -1.0625,-4.48243 -1.44335,-2.16015 -2.04688,-0.91992 -1.17773,1.12695 -0.65821,-0.51758 -2.1875,-6.98242 -8.02539,-9.7793 -5.84179,-8.18359 -3.60743,-3.58594 -2.16601,-0.1875 -5.51172,-0.91797 -5.16016,-7.38281 -4.43945,-3.27734 -2.75391,-3.45899 -0.52929,-5.00586 0.97265,-3.58203 3.2793,-0.28906 4.41797,3.92968 0.92578,-0.42968 -0.30859,-0.24805 -0.36719,-1.34766 -0.74024,-2.85742 -0.48242,-5.89648 7.79883,-1.83008 7.03906,11.93164 1.66992,2.47266 1.88477,3.9707 3.56055,7.25 3.39062,3.4375 1.21485,0.76172 2.20703,1.41015 3.32617,3.20899 5.67187,4.4668 1.41211,1.44726 1.18555,1.4375 1.35938,1.33594 1.68359,2.56836 0.82422,2.77539 0.99609,1.29102 0.16016,-5.56446 -1.64453,-2.84961 -1.1543,-1.08398 -2.3125,-3.70508 -0.63086,-0.82227 -6.0625,-4.16796 -7.85352,-7.53125 -1.04882,-1.97266 -0.1543,-5.6582 4.74023,-7.0293 5.02539,1.4375 6.96875,2.2207 2.5,1.03907 6.24219,2.0664 6.07031,3.54492 3.36719,8.76953 0.82227,0.59571 0.81445,-0.51367 -2.04687,-7.70313 -0.66602,-1.94336 -1.51172,-2.65625 -2.63476,-3.75195 -4.76563,-1.92383 -5.16016,0.48242 -4.52148,-1.68359 -2.46484,-1.26758 -1.99219,-0.81055 -3.26172,-1.19922 -6.99023,-2.82617 -1.32227,-10.37109 2.70703,-13.49805 2.52344,-4.86328 6.23437,-7.12109 1.04297,-0.45703 2.18164,-1.28907 2.99024,-1.59765 2.10547,-0.76563 1.26757,1.54102 -0.57226,6.07812 -1.57422,8.50391 3.97266,11.72266 1.31445,-0.12696 -0.36524,-0.41601 -0.32421,-0.28321 -0.61719,-2.76953 -1.45117,-10.76562 2.15429,-5.94336 1.97461,-4.74414 -0.64062,-1.84766 1.21289,-7.925781 4.20703,-4.53125 0.42578,1.058594 1.79102,-0.546875 0.73437,-1.333984 0.35156,-0.466797 3.07618,-3.060547 5.18164,6.369141 1.44531,4.556639 0.34766,-3.595702 -1.47461,-5.8125 -1.17969,-3 2.02344,-3.603516 0.67578,-4.011718 0.65234,-4.833985 0.41602,-2.267578 -3.35547,3.541016 -0.63672,0.882812 -1.34375,3.41211 -2.04688,3.490234 -2.3164,1.875 -4.54883,3.796875 -3.63086,2.935547 -3.17773,2.669922 -0.625,-1.023438 -0.62305,-0.798828 -0.33203,-0.1875 0.0215,1.689453 -0.67773,3.785156 -5.27735,2.69922 -5.62109,3.0957 -2.20312,1.83789 -4.86914,4.875 -1.78321,1.01563 -0.54297,0.52539 -0.78515,2.21484 -0.90039,1.7461 -0.61914,0.30859 -0.61524,0.80273 -2.5957,5.50586 -1.59961,2.40235 -1.91016,-0.26758 -5.77343,-2.91211 -8.67188,-3.88477 -7.39258,-3.17578 -1.29883,-0.93554 -1.17187,-1.84961 -1.7832,-2.57422 -1.64258,-2.20899 -2.0625,-2.86914 -2.44336,-3.07422 -2.04688,-2.11523 -7.16992,-2.341797 -6.2793,-1.328125 1,-1.246094 0.9668,-2.169922 2.7461,-5.611328 1.14062,-1.335937 1.75977,-0.867188 1.28125,-0.617187 0.76757,-0.617188 1.03711,-2.107422 1.2168,-2.292968 0.31445,-2.052735 0.15821,-2.230468 6.79882,-1.589844 1.92579,-1.953125 z"
     style="fill:#000000;stroke-width:0.41099542;fill-opacity:1" />
  <path
     id="path5033"
     d="m 770.82227,0.02539063 -9.75782,2.73242187 -5.99804,0.9960937 -8.04493,0.085938 -2.0625,1.703125 -0.91406,0.890625 -1.43164,-0.3222657 -1.10547,1.53125 -5.53515,9.3749995 1.21093,1.765625 1.86524,-1.232422 8.61719,-9.2265618 2.55273,-0.7773438 2.58398,0.3457031 7.66797,-1.8242187 10.00977,-1.1289063 2.42773,0.7910157 0.92188,-0.2050782 0.38281,3.3945313 -4.17578,11.1660157 -4.35352,7.945312 -4.07031,5.478516 -8.21094,5.001953 -7.84765,4.839843 -3.28711,2.21875 -2.26953,1.033204 -2.87696,0.951172 -4.10937,0.980468 -5.13867,0.888672 -5.13672,-1.550781 -3.43164,-3.785156 -1.46875,-2.521485 -2.22461,-5.509765 0.76367,-3.904297 3.09375,-5.353516 -0.0742,-2.671875 -3.30469,-1.882812 -4.08593,-2.109375 -1.39258,-0.511719 -1.46875,-0.253906 -1.22266,1.257812 4.01563,3.326172 1.93359,3.806641 -2.16016,3.347656 -3.24804,3.527344 -6.57422,1.328125 -6.01563,0.464843 -4.52539,-0.01367 -5.39453,1.044922 -1.40234,2.167969 -3.07227,3.40625 -1.67968,2.517578 -0.62696,2.144531 0.41211,2.734376 1.02735,-0.447266 1.79101,-2.56836 3.46289,-4.589843 4.36133,-2.980469 5.88867,-0.544922 9.0586,-1.021484 7.56054,2.912109 2.85352,4.167969 1.52734,2.8125 -0.75,1.232422 -1.03711,2.779297 -0.6582,1.77539 -0.13477,0.611328 -0.16601,0.382813 -0.91016,1.541016 -2.87891,4.398437 -4.28124,3.339844 -2.8711,2.464843 -3.15625,2.640626 -8.56445,3.498046 -7.78711,4.283204 -3.64649,2.433593 -13.52148,-2.482422 -2.99414,-1.978515 -2.90625,-0.832032 -5.02149,-3.328124 -5.32421,-4.761719 -2.77539,-2.548828 -1.73633,-2.089844 -1.73828,-1.808594 -3.19922,0.09766 -7.72461,-2.208984 -2.95117,-1.384766 -6.54883,-4.177734 -4.66602,-3.871094 -2.11718,-1.015625 -2.28907,0.0078 0.12696,2.005859 1.76171,3.847656 7.71875,8.332032 11,2.896484 6.5,3.445312 5.42774,6.595704 2.47265,2.648437 0.01,3.560547 -1.43945,6.941406 -3.69727,5.814453 -2.25195,3.44336 -7.60352,6.759758 -16.95312,1.5 -1.74805,-1.19336 -0.53906,-0.3164 -1.69141,-1.20313 -6.91992,-3.335931 -1.12305,-2.560547 0.82032,-1.269531 1.63867,-1.990234 1.64453,-2.111328 0.82812,-1.390625 0.82227,-2.429688 0.39648,-1.382812 -0.24023,-8.507813 -2.70508,-2.876953 -4.65429,-6.048828 -3.07813,-6.5 -1.79492,2.207031 2.55078,9 2.60156,3.21875 2.01953,3.234375 0.97461,3.943359 -3.22851,10.085938 -2.35547,2.931641 -4.60156,-3.265625 -2.66211,-3.310547 -4.35547,-4.38086 -3.99414,-3.451171 -3.73047,-2.007813 -2.70703,0.386719 -4.7461,5.166015 -0.43164,5.109375 2.60547,-1.751953 4.46875,-3.30664 4.87305,0.226562 2.39453,2.136719 2.02148,1.849609 2.31836,2.488281 3.44922,4.802735 0.90235,4.10937 -8.3125,7.35742 -3.87305,1.73438 -10.47852,1.18945 -9.57031,0.15235 -8.39844,-3.28125 -12.60742,-4.03907 -4.2168,-1.12109 -1.99218,-3.873045 -0.55469,-1.49414 -1.29297,-5.453125 -1.15625,-5.353516 -0.69336,-3.15625 2.56641,-0.53125 10.60547,-5.736328 2.52148,-1.746094 2.98242,3.699219 3.58008,3.699219 1.16992,-0.417969 -5.02539,-9.134766 -0.51172,-1.564453 0.37696,-1.339843 0.61914,-3.777344 3.28711,-5.310547 4.78711,-3.486328 4.5332,-4.564453 1.74805,-1.619141 1.28125,-1.050781 0.97265,-1.15625 2.41016,-4.492188 -1.67774,0.525391 -2.05273,2.044922 -3.92188,3.552734 -5.1621,3.972657 -1.5254,-0.183594 -5.6582,1.789062 -2.02734,1.22461 -3.31641,-0.658204 -10.26172,-0.02344 -1.8789,1.066406 -1.2461,1.435547 4.17383,0.990234 6.46289,-0.226562 3.59961,0.285156 0.42188,1.583985 0.13086,8.435547 -3.68555,3.787109 -5.72461,3.261719 -4.9668,2.138672 -0.51367,-0.271485 -0.51367,1.164063 -0.92578,0.863281 -0.10938,3.908203 0.31446,11.025391 -4.01172,3.111329 -11.21289,-0.921876 -5.56055,-2.521485 -1.92383,0.429688 -3.73633,0.289062 -5.7539,-0.992187 -7.66407,-3.435547 -1.95507,1.232422 2.69921,5.265625 1.28516,1.591798 11.42773,4.39258 11.26368,2.03906 11.69531,4.14844 6.5625,3.63867 3.08203,1.625 4.58984,2.09961 3.49414,1.3164 10.11329,9.48047 2.48437,5.16407 0.55664,6.93945 0.32031,2.15625 2.09961,0.01 5.88086,2.09961 1.01172,2.63477 4.57031,7.44726 9.82422,5.48243 2.52735,0.30859 0.45312,3.31641 7.52539,14.05078 2.00977,3.32422 0.65234,2.15234 -1.17773,5.92969 -0.19531,1.65039 -1.39063,8.3125 -4.42578,2.25195 -4.03125,4.73438 0.75195,4.51758 1.95117,-0.81836 4.56641,0.26562 2.90234,1.44727 2.25977,1.13867 0.94726,5.8457 -2.43164,11.83203 -1.01367,3.3086 -0.91211,3.70898 0.49219,4.31445 1.52149,3.79297 1.91992,0.54883 2.49414,-13.39258 9.27539,-19.31054 5.83398,-2.16797 10.34375,0.40429 2.86524,3.25391 1.23437,1.7207 0.72071,1.17578 1.73046,-0.48828 1.90235,-1.43945 2.93164,-0.7168 3.69922,-0.89258 3.74218,-0.46679 1.61719,1.09765 -0.49414,4.2754 -2.04492,13.88867 -0.9668,4.52148 -1.89062,5.59961 -1.81055,5.18164 -6.04101,9.69922 -4.59376,1.95898 -6.07031,-1.00781 -6.19726,-1.21094 -4.52149,-1.46875 -2.43359,-0.21093 6.50391,5.1875 6.85351,1.73633 6.78125,1.63476 6.63672,5.82227 -0.0156,2.75781 0.55665,2.14453 0.63085,1.47656 -2.6914,6.3086 -0.59571,0.89453 -0.33007,0.69922 -1.89063,2.72265 -1.66601,5.60352 2.04101,5.82226 2.71094,-2.29687 1.21289,-2.05664 1.38281,-5.13672 2.64063,-10.90234 3.14453,-3.3711 5.86523,-1.1914 2.56055,0.625 8.27734,4.24218 3.24024,5.46094 5.48437,7.02344 9.24024,5.1289 0.30273,7.07422 -2.70703,8.42188 -4.08203,0.7207 -6.78125,-0.008 -5.04883,-0.86328 -2.37695,2.45117 -3.30274,4.08594 -1.83398,1.98242 -0.98633,1.98047 -1.88867,4.84765 0.82031,0.3086 0.82031,-0.39063 2.81446,-4.13086 2.47851,-1.64453 3.41211,-1.64258 3.76172,-1.00195 9.42383,-1.82422 2.64062,-0.39258 1.92774,-0.48047 1.2832,-0.4121 1.60547,-0.41016 2.13281,-0.86719 0.65235,-7.70508 -0.97657,-8.61914 -1.40625,-1.99609 -1.82421,-2.70508 -14.94532,-15.59375 -4.10937,-2.95117 -9.48633,-3.62695 -4.25195,-0.86914 -1.33399,-7.67774 0.82227,-10.68555 0.67773,-10.36914 2.23047,-12.64257 1.50195,-10.27539 2.20508,-4.93165 1.39649,-2.46679 4.65039,-4.03516 4.01953,-1.71875 3.18555,-2.30469 0.57421,-2.85351 -13.41796,4.11328 -1.62696,0.99219 -3.49804,1.91406 -2.65235,1.42773 -2.5664,0.75977 -6.58985,1.375 -1.0039,-0.20703 -1.6875,-0.89258 -3.79883,-2.06445 -2.25391,-3.02735 -1.26562,-3.02343 -2.04688,-2.84571 -2.08984,-10.9082 6.29492,-12.33203 8.62891,-2.17578 3.1582,-0.33203 0.4668,-5.01758 0.64257,-5.39844 0.38086,-1.70117 2.69532,-5.84375 1.82226,-3.39649 1.43359,-1.40234 1.03516,-0.95898 0.80664,-1.2168 2.4668,0.99805 1.66016,2.02734 1.23437,1.21289 1.23633,0.91406 0.48437,-1.0664 -1.96484,-8.32032 -0.32422,-7.14062 0.33203,-3.11133 -0.3789,-1.14453 -0.53711,-1.30859 -0.0391,-1.36329 5.71094,-6.32226 4.66602,-5.0918 3.75976,-2.1289 3.20508,-1.22461 2.44922,-0.69922 2.99219,0.22461 3.09765,3.11718 2.4336,0.38672 -1.63868,-7.31054 0.67188,-2.75 1.9082,-1.70704 1.53516,-2.38671 1.23047,-3.15039 -0.15235,-4.199223 -1.30859,-4.451172 -0.59961,-1.658203 -0.76758,-0.513672 -1.25195,2.568359 -0.59766,4.417969 -7.77343,12.156252 -1.89454,1.05273 -5.24414,-0.14062 -2.52539,-0.90625 -0.84179,1.00781 -2.71485,3.17969 -1.87304,2.70898 -14.58985,12.39258 -12.33984,4.02539 -8.72266,0.93359 -0.92578,2.05274 0.44531,2.70117 0.64844,3.77344 -0.59375,4.38086 -2.11523,3.79687 -0.45508,4.62891 2.60547,-4.10938 4.47851,-6.05273 8.34766,1.04492 -0.59766,4.96094 -2.06836,8.98633 -0.59375,2.77343 -3.80273,1.71875 -8.98438,8.19336 -5.24804,-4.2207 -6.42578,-3.93164 -2.04688,-5.3125 -1.96289,-6.87891 -1.60156,-4.97461 7.62109,-2.6875 1.49805,1.89258 1.00586,1.40625 0.18945,-4.625 -0.46094,-6.7539 -0.76171,-2.00782 -2.79493,0.0762 -10.49218,0.17578 -5.78516,1.03711 -3.96875,2.94726 -1.26172,-0.45508 -0.11914,-0.71875 -1.42383,-0.20507 -1.07422,-1.1836 -3.48437,-2.85156 -4.54102,-4.93164 -2.31836,-4.6836 -0.16797,-3.18554 2.53125,-4.50391 3.85157,-2.13476 2.40625,-0.48438 2.17187,-0.0176 7.43945,-1.1914 3.42188,-2.47266 3.04883,-2.57031 1.56836,-1.18164 1.3164,-1.11328 1.57032,-0.62305 7.31836,2.77344 5.95703,1.45507 7.85742,1.2129 9.49023,-0.42188 6.09961,-1.62305 5.89063,-4.81836 8.80469,-7.42773 4.14648,-2.601562 6.78125,-3.009766 8.63086,-3.087891 14.0293,-3.402343 7.24804,0.230468 7.44922,7.367188 1.80469,5.046875 0.4082,2.767578 1.93946,8.843753 -1.22657,8.5 -0.83593,2.87695 -4.05469,9.25195 -5.66211,2.97852 -0.68164,0.88672 -1.37305,-1.35742 -4.99023,-1.64649 -3.62891,-0.0176 -14.67773,1.24024 -7.89063,1.0957 -3.67578,0.3457 0.85547,9.31055 0.57812,15.92969 0.92383,7.66015 4.34961,3.0254 1.62305,-5.75 0.82422,-2.18165 1.71875,-1.33007 2.83398,-1.90625 -0.36133,-5.1211 0.67188,-4.31445 5.68164,-5.97266 1.46094,-0.55664 3.54101,-0.58984 3.12695,-0.2832 0.66797,1.66601 0.93164,3.31836 0.6211,1.65039 0.35937,0.43555 -0.41211,0.18164 0.043,1.10547 0.082,1.10351 -0.78711,12.29883 1.17774,8.50781 0.89453,9.31641 -3.48242,22.95508 1.59375,3.17969 2.12304,1.56445 -8.88476,5.95898 -5.86524,1.59375 -2.05078,7.54883 -0.62304,4.36524 -0.0645,1.91406 0.25391,2.8789 0.13086,6.45118 0.85742,2.55273 0.9375,2.36914 0.68359,4.31641 -0.78711,4.4414 -1.90624,2.10157 -1.9336,1.8457 -2.57031,5.20898 -0.60352,1.32422 0.41016,1.19336 4.95898,-2.41797 3.15625,-2.75586 2.55664,-3.49414 0.91016,-4.70898 -0.98437,-2.88281 -1.37305,-11.67774 0.22851,-5.42969 0.35938,-4.3164 0.0957,-1.90039 0.76367,-1.91211 -0.0977,-0.70508 -0.2461,-0.96484 12.99219,-0.41602 3.83985,2.79492 2.26953,2.32617 2.08789,-2.18945 2.08789,-2.18945 2.53906,0.20508 6.37109,2.51367 1.1211,13.29687 -2.45117,6.20313 -2.53321,5.46289 -1.38476,3.25 -1.0586,7.60351 3.24414,13.85157 3.11915,4.64257 4.97656,7.5625 1.03125,3.64844 1.05078,11.85352 1.56445,-1.50781 1.00391,-1.5293 1.66015,-4.30859 0.01,-6.32422 -5.37305,-10.43946 -1.41015,-1.8164 -0.54883,-1.01172 -1.70117,-7.01758 -0.69532,-4.4707 1.09961,-11.35352 4.21875,-9.57617 6.05469,2.74023 1.19922,2.67188 1.26172,8.27344 1.89062,4.52148 3.84766,8.2207 1.45703,4.31446 0.62695,7.95898 -0.66406,3.79688 0.44727,2.74804 -1.95899,4.40235 -0.34765,1.31445 -0.0488,1.31055 0.77734,-0.95899 0.125,2.93164 -4.19336,8.96485 -4.62695,6.79101 -4.67578,2.09571 -1.26953,0.13281 -8.86328,-0.39258 -2.75977,-0.40625 -1.33789,1.24609 -0.58594,1.47071 -0.38086,1.52734 -3.21679,2.63281 -4.55079,1.58594 -1.1289,1.17774 -2.69336,2.0664 -5.31445,4.33203 0.6582,0.40039 0.22461,-0.30859 2.01953,-0.37305 10.19727,-3.49023 0.76171,-0.52344 0.99024,-0.16211 3.22461,-1.50976 3.9043,-1.84571 8.63085,-2.70898 3.17579,-0.39258 6.28515,1.70508 7.27149,4.57422 3.63086,2.56836 1.41992,0.61718 1.07812,0.61719 0.56641,0.3125 7.16406,2.36524 0.84961,0.18164 2.12305,0.25 9.51562,4.49414 -0.8164,4.16406 -0.41797,1.95312 -0.63086,1.48438 -0.25586,0.51367 0.20117,1.61328 0.42578,1.01367 2.39063,-2.16015 4.41992,-3.03516 1.91601,-2.00781 7.74415,-2.74609 7.85742,2.14062 1.59765,2.6543 0.16993,0.69726 3.30664,3.58008 2.77929,6.63086 3.19336,5.45899 2.9043,3.07617 1.2793,3.9375 -3.04883,8.22461 -2.0586,4.00586 2.875,-1.53907 2.53907,-2.05664 6.84375,-8.32617 0.84961,-3.18164 0.25781,-2.59375 -4.95508,-7.10742 -5.125,-4.88086 -0.82812,-1.24609 -0.5879,-1.50196 -0.19921,-0.7539 -0.43946,-0.8086 -6.02343,-8.64258 -0.94922,-0.79492 -1.25196,-1.05664 -0.58789,-0.6543 -1.94922,-1.35937 -7.18945,-6.16992 -2.45898,0.0898 -5.36133,2.34375 -3.50586,0.56641 -3.13672,-1.45117 -4.98633,-2.05274 -2.67187,-0.98633 -5.75391,-0.28711 -10.48047,-2.79882 -3.90429,-1.61133 -7.8125,-3.9961 -1.02149,-1.86523 1.89258,-2.16602 2.7207,-3.49218 1.55664,-2.67188 4.69336,-9.51172 1.74024,-5.27344 0.54297,-1.82226 1.07226,-2.18555 0.80859,-2.71093 -0.36523,-7.36915 0.0879,-6.57617 -1.16406,-7.08984 -1.45508,-3.28711 -0.81641,-2.93164 -2.72656,-5.94336 -2.68555,-5.17578 -5.3125,-5.21094 -3.11328,-1.68164 -2.86328,-1.30469 -1.35547,-1.13086 2.84766,-5.41992 2.04492,-10.02734 -2.39844,-2.2168 -3.64843,-1.24609 -3.07422,-3.47657 -0.59961,-1.18945 -0.4668,-3.33984 -2.4043,-17.41992 -1.42968,-3.31055 -1.8086,-3.64063 -1.22851,-2.19726 1.59961,-0.19922 2.09961,-2.70508 3.01562,0.28125 0.97852,2.20313 0.38672,2.83398 3.01757,6.58203 2.38868,2.69922 1.47265,-4.63867 0.66602,-4.5957 3.82617,-4.54493 3.63867,-2.46875 1.69336,-2.37304 -3.41406,0.70898 -2.96875,1.23828 -3.20313,1.49805 -2.57617,1.21289 -2.29687,-3.27344 -5,-13.35742 -2.65625,-5.54883 -1.22461,-3.28711 -0.69922,-6.51757 -0.16016,-5.07813 1.76758,0.19922 13.50781,11.05469 0.33789,8.43554 -0.004,3.1875 1.78125,0.41797 1.74414,-1 2.49218,-1.21094 3.53126,-3.94921 0.18554,-0.83594 -0.94726,-3.76172 -0.39454,-3.65234 -0.67773,-6.28321 -0.84766,-3.96093 -0.30859,-2.75782 0.26563,-0.3164 0.35742,-0.71875 2.125,-3.97461 1.62695,-1.69532 2.58008,-1.96679 0.11914,-0.22852 0.75976,-1.32617 0.23829,-1.59766 0.92578,-2.53125 14.78125,-9.0039 6.89844,-1.49805 1.29101,-0.2793 3.49414,-0.63672 5.07813,-0.91406 1.84961,-0.12109 -0.14063,2.36914 1.19531,3.35156 0.83985,1.44141 1.97656,0.77539 0.31641,-2.98047 -0.53321,-3.94727 -1.4375,-4.93164 0.0703,-0.84765 -3.75977,-1.90821 -6.74609,0.69922 -5.82618,1.25782 -4.40429,-0.28907 -1.0586,-1.23242 -4.3789,-4.05078 -6.92969,-5.873047 -2.32617,-1.761719 -0.76367,-0.996093 -3.70704,-0.810547 -0.37695,-2.734375 0.79688,-3.044922 -6.5918,-16.652344 -0.85938,-4.058594 -0.5664,-2.644531 -1.55274,4.923828 -0.24804,2.388672 -0.45703,1.751953 -0.76954,2.75 1.24219,6.007813 4.83985,8.132812 0.0293,6.044922 -0.82226,1.091797 0.82226,0.347656 0.82227,0.376953 -3.08203,3.732426 -2.4668,4.25976 -0.01,1.92578 0.13868,1.21289 6.94531,-9.984371 4.19141,-1.894531 4.35742,3.800781 5.98828,5.201171 -1.28125,5.19727 -3.44336,4.37695 -1.0625,1.32031 -4.59766,2.41602 -0.33398,0.625 -1.79492,1.39453 -0.25196,0.32226 -2.14453,2.48633 -1.60547,2.56446 -0.0137,0.80273 -3.30859,1.03125 -7.65625,0.88867 -6.29297,0.56446 -2.92774,0.84179 -1.54101,0.27539 v -1.58008 l 0.42578,-2.00586 0.0469,-1.42773 1.01171,-5.25977 1.39258,-4.80468 3.3125,-1.76953 3.11133,1.01562 1.82031,2.76172 3.14063,2.34766 -0.29492,-3.61914 -2.78711,-3.88868 -2.40625,-0.93359 -2.47657,-1.27148 -0.95312,-0.62305 -0.7832,-1.22461 -1.14844,-5.77344 -0.0977,-0.92383 -0.14258,-0.64843 1.39844,-3.082035 -0.66601,-2.054687 -1.29102,-2.980469 -1.03711,-1.746094 -0.91406,-1.130859 -1.34961,-1.951172 -1.99414,-6.431641 1.16211,-7.748047 3.30078,-4.109375 1.91797,-1.410156 3.39062,-3.136719 1.95117,-2.53125 0.82227,-1.023437 0.82227,-0.748047 2.21289,-2.503906 4.05664,-1.857422 3.26758,-0.480469 4.18554,-0.433594 7.73242,-3.445312 3.82813,-0.925781 11.89453,-2.53711 8.46289,-7.064453 2.2793,-2.458984 1.625,1.68164 5.32422,2.94336 4.41797,1.267578 0.71874,0.371093 2.77344,1.466797 7.21094,4.501953 4.55273,2.13086 0.66993,0.158203 4.21289,0.460937 1.60351,1.263672 0.89063,6.208985 -0.26758,3.320312 -3.15234,1.923828 -3.42188,1.919922 -1.7168,0.9375 -2.25781,3.039063 0.79883,1.373047 3.80273,-0.888672 8.54883,-3.689453 0.92383,-4.355469 0.0352,-5.34375 1.625,-4.005859 2.76562,-1.748047 1.85156,-0.570313 0.29297,-1.644531 -1.32031,-1.072266 -0.41992,-1.439453 -0.21875,-12.880859 -3.03906,-5.408203 -0.80079,2.248046 -0.23632,2.251954 -0.49024,3.816406 -2.2207,9.357422 -5.79492,-0.01563 -12.25977,-3.414063 -4.49805,-4.474609 -1.83789,-3.177735 -2.90039,-0.933593 -3.0332,-2.337891 0.33594,-2.283203 0.375,-1.265625 0.38476,-1.544922 0.47852,-2.271484 0.65234,-2.046875 0.43555,-1.5 0.36914,-1.054688 0.34766,-0.878906 0.375,-1.083984 1.13281,-2.439453 0.79492,-1.746094 1.04297,-2.382813 0.34766,-0.873047 0.21093,-3.5097648 -2.37109,-5.7539063 -0.57031,-1.2070313 z"
     style="fill:#000000;stroke-width:0.41099542;fill-opacity:1" />
  <path
     id="path4529"
     d="m 724.89453,55.091797 h 1.02735 l -0.51368,0.207031 z"
     style="fill:#000000;stroke-width:0.41099542;fill-opacity:1" />
  <g
     id="layer1"
     style="display:inline"
     transform="translate(-12.260826,75.698135)" />
</svg>
