<?xml version="1.0" encoding="UTF-8" standalone="no"?>
<!-- Created with Inkscape (http://www.inkscape.org/) -->

<svg
   xmlns:dc="http://purl.org/dc/elements/1.1/"
   xmlns:cc="http://creativecommons.org/ns#"
   xmlns:rdf="http://www.w3.org/1999/02/22-rdf-syntax-ns#"
   xmlns:svg="http://www.w3.org/2000/svg"
   xmlns="http://www.w3.org/2000/svg"
   xmlns:sodipodi="http://sodipodi.sourceforge.net/DTD/sodipodi-0.dtd"
   xmlns:inkscape="http://www.inkscape.org/namespaces/inkscape"
   version="1.1"
   id="svg815"
   width="937.71863"
   height="377.95279"
   viewBox="0 0 937.71863 377.95279"
   sodipodi:docname="freshbytes_logo_split.svg"
   inkscape:version="0.92.3 (2405546, 2018-03-11)">
  <sodipodi:namedview
     pagecolor="#ffffff"
     bordercolor="#666666"
     borderopacity="1"
     objecttolerance="10"
     gridtolerance="10"
     guidetolerance="10"
     inkscape:pageopacity="0"
     inkscape:pageshadow="2"
     inkscape:window-width="1106"
     inkscape:window-height="957"
     id="namedview817"
     showgrid="false"
     inkscape:zoom="0.46762639"
     inkscape:cx="353.71866"
     inkscape:cy="290.86198"
     inkscape:window-x="754"
     inkscape:window-y="22"
     inkscape:window-maximized="0"
     inkscape:current-layer="svg815"
     fit-margin-top="0"
     fit-margin-left="0"
     fit-margin-right="0"
     fit-margin-bottom="0"
     showguides="false" />
  <metadata
     id="metadata821">
    <rdf:RDF>
      <cc:Work
         rdf:about="">
        <dc:format>image/svg+xml</dc:format>
        <dc:type
           rdf:resource="http://purl.org/dc/dcmitype/StillImage" />
        <dc:title></dc:title>
      </cc:Work>
    </rdf:RDF>
  </metadata>
  <defs
     id="defs819" />
  <path
     style="fill:#000000;stroke-width:0.41099542"
     d="M 771.36133 175.91602 L 772.15039 175.94727 L 771.61133 176.16406 L 771.36133 175.91602 z "
     id="path4807" />
  <path
     style="fill:#000000;stroke-width:0.41099542"
     d="M 455.79492 104.47656 L 455.38477 104.6582 L 455.79492 105.09375 L 456.20508 104.91211 L 455.79492 104.47656 z "
     id="path4803" />
  <path
     style="fill:#000000;stroke-width:0.41099542"
     d="M 463.77734 207.08594 L 464.39258 207.12305 L 464.15234 206.91992 L 463.77734 207.08594 z "
     id="path4801" />
  <path
     style="fill:#000000;stroke-width:0.41099542"
     d="M 463.58984 207.07422 L 463.54297 207.18945 L 463.77734 207.08594 L 463.58984 207.07422 z "
     id="path4799" />
  <path
     style="fill:#000000;stroke-width:0.41099542"
     d="M 880.79688 94.808594 L 881.17383 94.408203 L 881.58398 93.791016 L 881.10547 93.173828 L 880.89648 93.445312 L 880.78906 94.171875 L 880.79688 94.808594 z "
     id="path4797" />
  <path
     style="fill:#000000;stroke-width:0.41099542"
     d="M 880.79883 94.863281 L 880.79688 94.808594 L 880.76367 94.84375 L 880.79883 94.863281 z "
     id="path4795" />
  <path
     style="fill:#00e700;stroke-width:0.41099542;fill-opacity:1"
     d="M 514.86523 132.83789 L 514.90234 146.50781 L 515.15625 147.01562 L 515.2207 147.26367 L 516.78516 153.27734 L 518.26562 152.61523 L 519.96289 147.56836 L 521.57617 147.94336 L 523.69727 149.5332 L 525.90234 158.7168 L 526.14844 161.85742 L 525.50977 162.8418 L 522.375 166.37305 L 519.19141 169.42383 L 514.9668 171.13672 L 515.00586 185.7832 L 515.41797 185.32812 L 517.82617 182.04883 L 522.33789 180.14258 L 524.89844 189.00977 L 524.66797 194.22656 L 523.39844 194.86133 L 519.875 197.06445 L 516.49219 199.68555 L 515.04297 199.83203 L 515.06836 209.45703 L 517.34375 209.31641 L 523.09766 208.93164 L 526.94336 208.10547 L 530.4375 207.23242 L 539.96484 204.96484 L 541.74805 208.24414 L 542.20898 213.07227 L 540.20117 221.45117 L 539.47656 224.71875 L 531.51758 226.03711 L 529.1582 226.97266 L 526.42969 227.89062 L 522.83203 225.73828 L 519.80273 223.40234 L 520.42383 227.5957 L 521.26562 231.95508 L 521.57422 232.92578 L 521.62891 234.35352 L 523.93945 235.01953 L 530.18555 233.11523 L 536.97266 230.84766 L 538.4043 231.22461 L 538.99219 232.22852 L 539.83984 234.42969 L 541.88477 239.90039 L 542.68359 237.125 L 544.5918 226.92383 L 544.98047 224.38672 L 545.7832 219.04102 L 546.58789 214.18164 L 547.5293 207.42383 L 548.65625 204.36719 L 550.4707 200.46289 L 552.39453 197.39648 L 554.07031 195.11914 L 555.41211 193.23633 L 565.36133 187.29688 L 566.48438 189.87891 L 565.94141 195.73438 L 564.78711 202.57812 L 563.88672 204.67188 L 563.4707 205.44531 L 562.91797 211.77148 L 563.43555 225.33594 L 564.36523 240.31055 L 565.20117 246.94141 L 566.27344 252.08008 L 567.26562 256.8457 L 567.09961 259.20312 L 563.52148 258.94922 L 556.05859 259.61328 L 548.0625 261.99023 L 543.94141 263.38477 L 535.28125 263.13086 L 533.67383 262.50781 L 532.00977 255.36523 L 530.92969 249.29492 L 529.80859 248.76953 L 528.55859 255.92969 L 522.54102 270.64648 L 522.54102 270.64844 L 519.3457 273.83008 L 516.95703 274.67578 L 515.23438 272.75781 L 515.25781 281.72852 L 516.58789 281.03516 L 518.76367 282.63672 L 523.25586 287.10938 L 524.96875 289.42578 L 526.77148 291.89062 L 527.78711 293.36133 L 531.26367 299.08398 L 532.05078 301.96094 L 533.50391 309.15234 L 534.96289 315.30664 L 535.52734 319.05273 L 536.28906 322.96875 L 538.45703 328.16016 L 541.70117 335.87305 L 542.32227 337.82227 L 542.77148 340.38867 L 542.98633 346.34766 L 542.36719 353.01367 L 541.69336 355.17773 L 542.79492 355.61523 L 546.39258 347.16797 L 547.31641 338.01562 L 546.64453 334.69336 L 546.21484 332.51953 L 545.83594 330.54297 L 543.95117 323.53711 L 541.10352 317.19531 L 538.26367 311.20703 L 537.47461 308.125 L 535.31641 297.91797 L 533.36523 292.41992 L 528.23438 287.58008 L 527.7207 287.16992 L 525.88867 284.80664 L 519.91016 277.82812 L 522.93164 274.83398 L 524.59766 273.87891 L 526.69141 272.57422 L 532.88281 272.38867 L 539.53906 270.87305 L 554.43359 265.81445 L 565.72852 265.93555 L 569.30469 267.50781 L 573.8457 272.19336 L 576.77148 276.69336 L 578.86328 282.41602 L 581.18945 288.19141 L 585.35742 294.56055 L 584.34375 287.16406 L 583.05078 282.25391 L 582.32812 279.32031 L 582.1875 278.51562 L 582.06836 278.26758 L 581.12305 277.01172 L 579.78711 274.81055 L 579.01953 272.49609 L 578.07812 269.91211 L 577.47656 268.20898 L 576.74023 264.27734 L 575.26367 261.74805 L 572.51953 257.82617 L 569.99219 251.51953 L 568.69531 245.85742 L 568.42969 238.25391 L 568.85938 213.18359 L 569.39453 203.9375 L 570.05078 201.59766 L 570.46289 200.23828 L 570.875 199.05859 L 573.61328 189.44922 L 574.69531 187.08594 L 573.98633 183.5918 L 572.48828 178.42773 L 572.19531 172.79883 L 572.69531 170.38281 L 571.06641 168.98828 L 567.32617 171.30273 L 566.01758 176.5332 L 559.91797 184.0293 L 552.79102 182.51758 L 552.16797 181.94922 L 550.62695 181.47266 L 547.14453 180.30469 L 544.77539 178.91406 L 540.72266 176.43164 L 537.32227 174.75781 L 534.28516 173.69336 L 531.83008 172.72266 L 536.86133 170.44141 L 539.78516 171.44922 L 540.87109 173.04883 L 542.91992 172.82227 L 545.62891 169.08398 L 546.21875 168.26172 L 547.88086 166.82031 L 549.99609 164.76562 L 550.49023 156.44922 L 551.22266 148.18164 L 551.50391 146.71289 L 552.14648 144.11523 L 552.47461 141.66992 L 549.70117 143.37305 L 546.31836 145.63867 L 544.98242 146.63281 L 540.36914 141.56055 L 536.98828 138.98438 L 534.0625 138.98047 L 532.92383 139.54688 L 528.91406 135.82617 L 515.86133 133.04883 L 514.86523 132.83789 z "
     id="path4812" />
  <path
     style="fill:#cea413;stroke-width:0.41099542;fill-opacity:1"
     d="M 456.61133 85.224609 L 454.98047 88.529297 L 456.20703 90.296875 L 458.22656 93.791016 L 458.79688 94.835938 L 459.88086 97.404297 L 460.73242 99.339844 L 461.00781 101.9668 L 458.68164 103.15039 L 455.64648 103.81641 L 457.13672 105.61328 L 460.31641 106.50586 L 465.74805 109.72852 L 467.49414 112.33398 L 469.35742 115.22266 L 470.94141 118.16602 L 473.6543 123.17773 L 474.25977 124.25977 L 475.11133 125.89258 L 475.84375 127.78906 L 476.49609 134.06836 L 476.11328 140.81055 L 476.34375 142.28906 L 476.61719 143.60156 L 476.59961 145.49023 L 478.4043 144.75195 L 481.13281 144.21289 L 484.80664 149.60352 L 482.0332 165.30469 L 482.30664 169.56641 L 483.4707 172.19531 L 483.19922 175.78516 L 486.82422 186.57617 L 485.75586 189.54297 L 482.91406 193.67969 L 479.53516 196.90234 L 475.93359 200.1875 L 473.03906 203.32227 L 470.57617 204.45117 L 468.7207 207.16211 L 470.72266 209.1582 L 480.80273 209.02734 L 481.13672 215.58203 L 479.97266 222.91406 L 474.41211 223.91602 L 470.54688 225.74023 L 472.0332 229.36523 L 477.99023 229.79688 L 480.9668 235.78906 L 480.96289 236.26953 L 481.39453 237.63086 L 484.55664 241.64648 L 485.18164 241.95508 L 485.79883 242.74609 L 489.10742 246.75977 L 491.55078 251.72461 L 489.44531 254.66016 L 484.97656 261.32812 L 484.56445 262.71094 L 485 264.56055 L 485.58984 264.97461 L 487.45508 268.0625 L 489.08594 269.75391 L 490.08008 270.31445 L 491.20898 270.66602 L 497.75391 274.42383 L 498.12695 274.83398 L 498.74414 275.24609 L 499.36133 275.65234 L 501.00391 276.32031 L 502.64844 277.35352 L 503.06055 278.12305 L 503.4707 277.71094 L 504.86328 277.8457 L 508.50586 279.11523 L 511.69141 280.19727 L 508.46289 281.57227 L 502.42188 287.01172 L 496.97266 294.34961 L 496.90625 294.98828 L 496.95312 295.37891 L 496.64062 296.36523 L 496.2793 297.84961 L 496.53125 299.08398 L 496.71289 298.71094 L 497.26953 298.54297 L 498.57031 297.78711 L 501.37891 294.00195 L 504.70312 289.62109 L 512.67773 283.07617 L 515.25781 281.72852 L 515.23438 272.75781 L 509.7168 266.61523 L 506.88867 258.7207 L 504.93164 253.41406 L 491.75781 243 L 485.44922 238.81836 L 483.01953 231.21094 L 484.5293 226.5293 L 486.58594 222.54492 L 488.25781 218.82812 L 488.90039 215.05469 L 493.41797 209.7832 L 497.23438 209.29883 L 502.35547 209.23633 L 511.2793 209.69141 L 512.41016 209.62109 L 515.06836 209.45703 L 515.04297 199.83203 L 512.83984 200.05273 L 511.2793 200.21094 L 507.88867 199.64062 L 506.73828 194.63672 L 506.2168 188.88281 L 505.47266 181.64062 L 506.34766 181.3457 L 506.92578 182.19727 L 508.60156 185.90039 L 513.41992 187.2207 L 513.64258 187.28125 L 515.00586 185.7832 L 514.9668 171.13672 L 514.16211 171.46289 L 514.12891 171.46875 L 512.51172 171.75195 L 508.60742 168.38281 L 506.43359 165 L 507.64062 162.10938 L 507.60742 160.62695 L 510.53711 148.04297 L 513.7168 144.13867 L 514.90234 146.50781 L 514.86523 132.83789 L 513.69141 132.58789 L 498.3457 137.79297 L 497.62891 139.66992 L 496.16797 136.60352 L 493.31836 133.3125 L 489.99609 131.71094 L 487.02148 129.81836 L 484.77344 127.36914 L 482.93555 124.95703 L 482.25391 124.03125 L 482.15039 123.20312 L 479.49805 121.13477 L 475.5 116.75977 L 473.78711 113.87109 L 473.46875 112.90625 L 472.92969 111.5957 L 471.00195 107.67773 L 470.5918 107.35352 L 470.18164 106.79297 L 469.24023 104.81641 L 466.31836 95.259766 L 471.32031 89.003906 L 472.54688 87.074219 L 479.41797 84.058594 L 486.55664 83.478516 L 491.75 82.90625 L 494.89648 81.898438 L 500.38867 80.638672 L 510.86914 81.851562 L 518.66797 83.224609 L 520.05859 82.65625 L 518.13281 81.441406 L 516.38477 79.757812 L 512.5625 76.984375 L 509.89258 75.738281 L 507.99219 74.775391 L 506.55469 74.410156 L 507.85352 73.730469 L 510.49219 70.404297 L 510.66797 67.537109 L 511.45117 60.908203 L 511.04688 56.162109 L 510.90234 55.341797 L 509.71289 54.390625 L 508.45312 54.789062 L 508.53125 60.603516 L 508.45312 61.117188 L 507.99219 63.121094 L 507.37109 65.640625 L 506.0918 68.464844 L 504.58594 71.699219 L 504.08008 72.625 L 503.67773 73.445312 L 501.00586 73.857422 L 498.33984 75.083984 L 490.46094 77.960938 L 486.90234 76.890625 L 479.78125 71.105469 L 480.18164 72.675781 L 481.50586 76.441406 L 481.54102 79.523438 L 479.00195 80.15625 L 477.16797 80.601562 L 472.85156 82.46875 L 468.53711 84.419922 L 466.9668 85.636719 L 464.07422 88.275391 L 462.45898 90.28125 L 458.67188 87 L 456.61133 85.224609 z "
     id="path4999" />
  <path
     style="fill:#0000e3;stroke-width:0.41099542;fill-opacity:1"
     d="M 397.64258 34.814453 L 383.66406 35.125 L 379.75977 37.017578 L 373.80078 40.667969 L 369.48633 43.4375 L 367.5332 44.384766 L 367.875 47.042969 L 370.71875 52.652344 L 371.12891 53.923828 L 371.54102 55.568359 L 371.95312 57.212891 L 371.95312 58.236328 L 371.54102 61.105469 L 370.67188 64.90625 L 370.4668 67.091797 L 370.51367 69.1875 L 371.84766 70.75 L 374.62305 71.785156 L 385.45898 75.392578 L 389.64648 77.410156 L 393.93945 79.480469 L 401.68164 83.480469 L 402.98047 85.777344 L 403.56055 86.880859 L 402.94922 90.523438 L 401.74023 93.162109 L 405.26953 91.535156 L 408.08594 89.478516 L 415.12305 93.556641 L 418.12891 95.789062 L 419.86719 97.023438 L 419.57812 100.38281 L 419.05859 105.40039 L 418.76172 107.55859 L 418.28906 109.42773 L 419.58008 113.30859 L 427.70117 121.45898 L 429.14453 127.10156 L 429.37305 128.43555 L 430.23828 129.13672 L 431.28125 131.80664 L 432.21875 137.68555 L 432.50977 141.95117 L 432.18945 143.26562 L 431.81445 146.89648 L 433.72461 145.79883 L 436.74219 144.7832 L 438.70703 145.39453 L 439.1543 160.82031 L 438.5332 164.07031 L 437.60352 167.11133 L 432.7793 169.88086 L 427.84766 170.85547 L 421.89453 173.84766 L 420.37891 175.27734 L 418.78711 173.55273 L 411.56445 169.61914 L 407.70703 167.81641 L 411.16797 158.52148 L 412.58789 154.17383 L 413.71484 147.01367 L 420.78906 141.25977 L 423.52344 144.44531 L 424.21289 146.60352 L 425.99023 145.35742 L 424.89258 137.66211 L 425.19531 136.01953 L 425.41797 134.58203 L 425.81641 133.86328 L 425.79492 133.25 L 425.47266 131.37305 L 424.59375 130.43359 L 412.02344 129.86133 L 407.86328 128.32812 L 405.75781 127.38086 L 405.45703 123.73633 L 404.69922 119.27148 L 404.22852 118.16211 L 403.70117 117.36133 L 403.1875 115.7207 L 402.83203 114.375 L 402.24805 112.45703 L 403.78711 108.99219 L 407.24805 106.10352 L 408.94141 104.6582 L 410.26953 103.00586 L 412.63477 98.462891 L 410.18945 98.228516 L 407.92578 99.548828 L 399.88672 107.40039 L 399.32812 107.45703 L 398.50195 106.73633 L 397.33789 105.91406 L 395.73633 105.09375 L 394.76172 104.68164 L 393.78906 104.27148 L 390.87695 102.40039 L 387.20117 99.738281 L 383.48438 96.470703 L 381.10938 91.632812 L 379.75 88.316406 L 378.52734 86.410156 L 377.61719 85.222656 L 375.80469 87.056641 L 374.54297 89.238281 L 373.4082 91.335938 L 368.44141 96.53125 L 366.04688 98.193359 L 366.85547 98.351562 L 367.42969 98.529297 L 366.76367 98.927734 L 366.57812 99.507812 L 366.62891 100.35352 L 367.47266 102.0332 L 369.95508 102.19141 L 371.66016 101.02148 L 373.18359 99.683594 L 375.11914 98.148438 L 376.39062 97.283203 L 377.5 96.462891 L 378.69336 95.650391 L 380.31445 98.0625 L 389.3457 105.75781 L 393.55859 109.11914 L 395.37891 111.89453 L 396.95703 113.6582 L 399.35156 122.99805 L 399.11133 128.21094 L 395.86523 130.32422 L 386.38672 129.58008 L 382.26172 129.68555 L 382.58789 134.5918 L 382.25586 142.28711 L 381.15625 144.91992 L 381.62891 148.33789 L 385.10352 145.75977 L 387.77539 143.30664 L 390.51758 147.69727 L 389.83008 153.73633 L 389.21289 154.91797 L 388.86914 155.87109 L 386.32227 163.64844 L 385.08789 167.48633 L 380.5 173.72852 L 379.51953 172.42578 L 378.625 166.03906 L 377.69922 160.57422 L 376.73242 160.45508 L 376.47266 165.03711 L 373.85547 173.45117 L 368.48242 180.54492 L 367.63672 184.14844 L 367.18164 187.18164 L 369.24805 185.19336 L 374.21484 178.60742 L 375.68945 177.81641 L 377.31445 178.78516 L 378.71875 179.97656 L 379.33398 182.32227 L 379.51758 191.54883 L 378.69727 195.37695 L 376.66797 197.43164 L 371.20117 201.14453 L 365.52539 208.63281 L 364.08203 210.82812 L 357.66602 220.17188 L 356.11719 224.28125 L 354.82031 228.39258 L 353.06055 235.82812 L 350.42773 238.42578 L 347.75586 239.87109 L 345.08789 241.30859 L 344.61719 242.36133 L 348.47656 243.02539 L 350.51172 242.11133 L 352.05078 241.49023 L 352.99609 241.13281 L 357.52344 232.22852 L 358.99219 228.57617 L 360.0332 225.89258 L 360.42578 224.49805 L 360.58789 223.65625 L 360.99805 222.81055 L 362.09961 221.16211 L 362.94141 219.75977 L 363.32031 219.32812 L 371.14844 210.30859 L 371.54102 209.5332 L 372.46484 208.51172 L 375.30078 209.48633 L 378.52734 210.74414 L 381.55469 211.32422 L 387.55664 211.08008 L 392.23828 209.23633 L 399.08594 209.91602 L 398.19922 220.51367 L 388.48633 230.09961 L 384.29688 230.94336 L 380.39648 231.3457 L 372.98047 237.84375 L 366.16602 245.83984 L 364.81836 247.17969 L 358.73438 252.80078 L 355.91016 254.91602 L 354.36719 255.51758 L 348.58984 259.02148 L 345.66797 260.61133 L 342.35938 262.97656 L 341.36914 264.13477 L 340.08594 267.64648 L 340.29883 273.11523 L 341.28516 282.5918 L 340.54297 287.24219 L 340.25 288.37695 L 340.61914 290.60352 L 340.73828 291.05469 L 341.01758 291.92969 L 341.36328 293.92188 L 341.94922 295.64453 L 342.38672 296.83984 L 342.70703 298.48633 L 342.87109 300.14258 L 342.81836 301.08984 L 342.54297 304.83594 L 341.64258 309.21484 L 339.66992 310.76367 L 338.66016 311.41992 L 338.26367 311.82422 L 334.62891 313.87891 L 330.35156 315.93359 L 328.81055 316.5332 L 325.37109 317.25195 L 323.5332 318.46094 L 323.04297 318.81641 L 322.32422 319.09375 L 323.04297 319.82422 L 323.69141 320.61523 L 330.76367 319.52734 L 334.73633 319.05664 L 339.43164 318.0918 L 341.25977 317.16602 L 342.81836 316.4375 L 346.19141 314.73438 L 347.78125 317.83203 L 348.32031 319.67383 L 349.60156 321.79102 L 350.22266 322.50977 L 351.30664 324.05078 L 352.53125 325.91992 L 353.04492 326.66992 L 353.63086 327.67383 L 355.05273 329.32227 L 356.41992 330.4668 L 357.46484 330.86719 L 358.79883 330.35742 L 357.97852 329.08594 L 357.60352 327.60352 L 357.08984 326.07617 L 354.86914 321.84766 L 352.21875 317.16602 L 351.8125 316.75195 L 348.24805 311.36133 L 347.85352 309.66797 L 349.39844 306.89258 L 350.34766 303.80859 L 350.72461 301.69922 L 350.61523 299.23242 L 348.91211 293.53516 L 348.30078 291.47852 L 347.25781 283.92188 L 347.04688 274.62891 L 349.14844 265.94141 L 352.50781 264.95508 L 355.93164 263.7832 L 357.70508 262.29883 L 358.78125 260.75781 L 360.23438 260.44336 L 360.85352 263.11719 L 361.84766 266.51367 L 364.84961 273.57812 L 365.05859 275.14258 L 363.57422 274.97852 L 362.08789 275.0918 L 366.81445 279.54883 L 375.33008 283.38672 L 376.62305 283.25977 L 374.18555 281.5957 L 371.22461 278.85156 L 369.58008 276.81641 L 367.18945 271.24609 L 366.35156 269.03711 L 365.78711 268.03711 L 365.31836 267.34766 L 364.69336 265.77344 L 363.77148 262.80664 L 363.51172 260.95703 L 364.2832 259.27734 L 365.57617 256.60742 L 367.32422 254.3418 L 373.83594 247.29688 L 377.17969 244.61523 L 381.27539 241.69336 L 382.22656 240.95898 L 387.61914 237.22852 L 391.26758 235.34961 L 392.91211 234.45898 L 394.14453 233.68555 L 396.92383 232.16797 L 403.1875 226.77539 L 403.80469 226.1875 L 404.41992 225.36523 L 404.99805 224.55859 L 406.91016 221.62305 L 408.57031 218.70898 L 409.17383 216.63672 L 410.01953 214.54688 L 410.58594 213.57617 L 410.95508 212.59375 L 411.33984 209.23633 L 411.59961 203.58594 L 407.13672 199.68555 L 402.81836 193.25195 L 406.76562 182.03906 L 408.23438 180.86133 L 407.49023 179.72656 L 407.33008 178.22461 L 412.98047 181.25 L 415.30469 188.62695 L 416.54102 190.58008 L 419.20117 187.95508 L 424.59375 182.91602 L 431.72656 179.03125 L 430.03711 188.25195 L 428.63281 194.17188 L 427.23828 198.86328 L 423.375 200.44336 L 420.55664 200.44336 L 420.36328 203.48242 L 419.03906 208.44727 L 418.15039 211.32227 L 420.41797 211.38672 L 427.78125 207.44141 L 434.66211 208.47461 L 436.33203 212.65625 L 434.59375 216.90234 L 431.56836 221.4043 L 428.45312 225.4082 L 427.02539 227.15625 L 425.42773 228.60547 L 419.33789 235.28125 L 413.83984 241.21875 L 413.60156 246.85156 L 413.75 251.78125 L 410.88867 252.43164 L 406.53125 253.8418 L 398.96289 256.18359 L 394.61719 257.25781 L 388.50586 257.78125 L 384.76953 258.04492 L 391.75195 261.46875 L 400.10547 262.73828 L 404.42188 263.19141 L 409.96875 263.33594 L 414.06836 263.04492 L 417 264.04688 L 419.01562 268.46484 L 420.61328 272.50586 L 422.00781 275.38281 L 423.08398 279.64648 L 422.5293 282.82031 L 421.05859 287.57617 L 417.41406 297.04883 L 415.91992 299.54297 L 411.05273 306.99805 L 412.54102 309.01367 L 414.02148 309.45312 L 414.64453 310.04688 L 415.08203 311.04688 L 415.25391 311.82422 L 416.06641 311.23438 L 417.65234 311.08398 L 419.72461 311.87891 L 421.16406 312.23633 L 425.91211 315.38281 L 428.46484 318.28711 L 430.23047 320.17773 L 435.85742 329.39453 L 438.43164 330.88281 L 438.6875 328.35352 L 437.89453 325.91602 L 434.87305 319.42773 L 425.38086 310.72266 L 419.85352 308.53711 L 416.75 306.79297 L 421.22461 298.08594 L 421.41211 296.60156 L 421.63086 295.38477 L 422.09375 294.79297 L 424.31836 294.54102 L 426.79492 297.97266 L 428.13477 300.4375 L 432.05078 305.18945 L 435.64648 308.32812 L 436.89062 308.90625 L 438.73828 310.13672 L 440.58789 311.44141 L 440.89648 311.74219 L 442.0957 311.96484 L 443.24023 314 L 445.4082 321.74023 L 447.21875 322.77539 L 448.42773 322.31836 L 448.25781 319.02344 L 447.5957 314.49609 L 447.07227 312.13672 L 445.64062 310.18359 L 443.54492 309.35547 L 440.12305 307.13086 L 439.26758 305.73633 L 435.06836 301.0918 L 434.85938 300.72656 L 434.42383 299.97461 L 433.39648 298.67188 L 432.36914 297.57617 L 431.75195 297.0293 L 431.13477 296.25586 L 430.47656 294.9375 L 429.45703 293.44531 L 428.58984 292.60742 L 426.85742 285.31445 L 426.42969 282.24219 L 425.89453 279.98242 L 421.7207 268.53906 L 420.34766 258.29688 L 425.64844 255.74219 L 429.3457 254.94336 L 433.60156 255.68945 L 434.0957 257.08008 L 434.32812 257.57227 L 434.41602 258.77539 L 434.11719 260.22656 L 434.25781 261.06445 L 434.38672 261.66992 L 434.06055 263.42969 L 435.58008 268.36133 L 436.06836 268.88281 L 437.0957 271.13477 L 438.12305 273.28906 L 439.40234 274.83984 L 442.64453 278.45117 L 443.05469 278.73828 L 443.54102 279.8457 L 443.67578 282.23242 L 444.26953 283.14062 L 444.49414 283.96094 L 444.93555 291.16016 L 445.52148 292.92383 L 445.91016 294.34375 L 447.16406 292.05078 L 448.6543 287.78125 L 449.10742 284.69141 L 449.16992 284.32617 L 449.38477 283.4082 L 449.13477 282.23242 L 447.01562 279.19141 L 443.68555 274.67188 L 440.79688 270.90625 L 438.76172 267.20703 L 438.06641 262.03906 L 439.0293 256.06836 L 440.77148 253.39648 L 445.13281 246.74414 L 449.43555 243.59961 L 451.29102 242.55859 L 454.35156 241.04883 L 456.46484 240.23047 L 459.77734 239.94141 L 466.43164 237.61719 L 467.71484 235.94727 L 471.2793 229.31055 L 472.0332 229.36523 L 470.54688 225.74023 L 467.09766 227.36914 L 453.95312 232.94336 L 446.23828 236.12109 L 441.20508 240.19727 L 438.02734 241.11523 L 435.43359 241.98242 L 433.93555 242.36523 L 430.56836 243.55664 L 426.82031 245.00781 L 426.82031 245.00586 L 421.88672 244.82617 L 421.3457 244.00391 L 420.48828 243.63086 L 421.41211 241.21875 L 422.91602 238.89844 L 424.35352 237.14453 L 425.79297 235.29688 L 428.32617 232.91211 L 428.46875 231.98828 L 430.34375 228.90039 L 433.82812 225.67578 L 435.12891 224.29297 L 436.06836 222.79102 L 438.12305 219.62109 L 440.2793 216.66797 L 441.41016 215.14648 L 445.92578 210.71875 L 446.3418 209.67773 L 450.61914 208.57812 L 458.76562 207.15625 L 462.67188 207.01953 L 463.58984 207.07422 L 463.85352 206.42188 L 463.61133 204.56445 L 458.02344 201.26953 L 456.58594 200.20508 L 455.95117 189.96289 L 457.12695 182.32031 L 454.94727 175.2207 L 453.94531 174.5 L 455.22266 173.39648 L 457.83203 169.47461 L 459.51172 159.60938 L 460.13086 151.25195 L 459.74023 148.61719 L 459.18359 147.23438 L 463.19336 145.88672 L 470.38477 145.78125 L 471.28711 147.01562 L 470.33984 153.21289 L 469.60156 157.02734 L 469.81055 160.42773 L 471.89648 165.91992 L 472.60742 162.53711 L 472.17578 158.9082 L 473.22656 153.77344 L 473.66406 152.75391 L 474.03516 150.97266 L 474.09766 139.96289 L 474.26758 137.37109 L 473.39453 135.83008 L 472.98242 135.04297 L 473.29102 133.61133 L 466.21289 133.71289 L 461.80469 135.51367 L 457.34766 137.01758 L 454.00586 137.81641 L 451.65625 138.16992 L 453.82617 128.50391 L 456.0918 126.89258 L 457.50391 125.64258 L 460.34961 124.41016 L 462.10156 121.22461 L 461.91602 119.82031 L 461.36328 117.61328 L 460.72656 115.38086 L 458.9043 113.67969 L 458.39453 116.77344 L 456.79102 120.92383 L 455.25195 123.09766 L 455.01367 122.97266 L 454.6582 122.56055 L 453.16406 123.58789 L 451.51953 125.00195 L 449.83594 126.84375 L 446.56836 129.84961 L 438.90625 133.45312 L 434.11133 128.41211 L 431.22266 120.65039 L 432.7793 117.1582 L 435.5 115.04688 L 436.47852 113.72656 L 437.30078 112.49219 L 438.12305 111.04102 L 438.94531 109.51953 L 439.20312 108.38086 L 438.57031 104.84375 L 438.24805 103.90625 L 437.86523 103.46289 L 437.80078 102.93555 L 436.64062 90.478516 L 450.29883 84.34375 L 451.99609 84.078125 L 453.97852 87.083984 L 454.98047 88.529297 L 456.61133 85.224609 L 454.87109 83.726562 L 454.5625 82.996094 L 453.74023 80.736328 L 452.91797 78.619141 L 452.47656 77.888672 L 455.78125 70.179688 L 455.92773 68.441406 L 455.94727 67.599609 L 456.21094 66.058594 L 455.4375 65.226562 L 453.36133 67.089844 L 450.67773 69.566406 L 449.44141 73.150391 L 449.58203 80.197266 L 450.1875 81.726562 L 448.31836 83.310547 L 448.45117 82.527344 L 449.41602 81.746094 L 447.49805 81.458984 L 445.11328 81.458984 L 443.85742 81.033203 L 440.85938 80.578125 L 437.16602 81.457031 L 434.64258 82.076172 L 433.60156 82.650391 L 432.92773 83.480469 L 432.56641 86.298828 L 432.9668 90.501953 L 433.15234 92.351562 L 434.13867 104.75 L 434.38477 106.0957 L 432.7793 109.81836 L 431.3418 111.93164 L 431.13672 112.80664 L 430.31445 114.26172 L 429.82031 115.69727 L 427.4375 115.83203 L 424.71484 113.88477 L 422.02148 110.30469 L 422.63086 107.14844 L 423.31055 102.42188 L 423.98633 99.064453 L 425.56641 97.296875 L 426.75586 95.824219 L 426.98242 95.228516 L 427.4375 94.613281 L 425.5332 93.996094 L 420.42773 92.595703 L 414.59375 88.152344 L 413.87305 87.050781 L 413.04883 85.980469 L 411.09766 84.796875 L 407.74609 82.527344 L 404.92773 80.587891 L 400.5957 78.378906 L 398.60938 77.001953 L 396.72266 75.460938 L 390.7793 69.710938 L 391.55664 67.691406 L 393.5918 66.458984 L 396.02734 65.226562 L 398.63281 64.421875 L 401.62305 63.847656 L 404.24219 62.568359 L 406.87305 59.751953 L 409.40039 57.314453 L 410.93164 56.183594 L 410.9375 54.576172 L 407.0918 55.341797 L 399.37695 58.431641 L 395.77734 59.484375 L 393.76172 60.568359 L 391.30273 62.201172 L 389.59961 63.582031 L 386.55078 66.664062 L 385.95898 69.628906 L 385.7207 71.769531 L 382.84375 70.759766 L 378.67773 69.748047 L 376.66992 68.650391 L 377.84766 55.826172 L 380.82617 54.988281 L 386.33594 53.724609 L 390.75391 52.617188 L 391.33008 50.691406 L 387.73438 50.425781 L 383.29492 51.224609 L 377.85156 50.708984 L 374.00781 49.466797 L 373.13867 47.900391 L 373.03711 46.103516 L 374.10938 45.511719 L 374.41797 44.958984 L 376.24023 42.734375 L 380.45312 40.537109 L 383.05664 38.927734 L 387.51172 37.935547 L 392.61328 37.378906 L 395.6875 36.431641 L 397.64258 34.814453 z M 422.20312 200.98242 L 423.4375 200.99609 L 422.70898 201.18555 L 422.20312 200.98242 z "
     id="path4793" />
  <path
     style="fill:#ff00f7;stroke-width:0.41099542;fill-opacity:1"
     d="M 222.16602 144.5332 L 197.54688 147.07422 L 197.7168 149.18945 L 198.21875 153.4082 L 197.23047 156.34766 L 195.72461 159.61523 L 191.51367 163.90625 L 191.51172 163.90625 L 183.71094 164.51562 L 182.52148 164.17383 L 182.5957 155.0957 L 183.18164 148.55859 L 168.73828 150.04883 L 168.76367 150.1582 L 168.20312 152.71289 L 167.125 152.89062 L 166.86523 153.15625 L 166.24805 153.44336 L 165.63281 154.01562 L 165.26562 154.82422 L 164.68164 156.16016 L 163.8125 160.37305 L 162.51953 166.94727 L 161.28906 170.97461 L 160.69922 172.00391 L 156.68945 175.73438 L 155.87109 178.77148 L 157.53906 180.67188 L 157.64453 182.20117 L 157.19727 182.75586 L 156.37109 182.86914 L 155.35742 183.13477 L 155.97266 183.59375 L 156.11328 184.72852 L 156.38281 198.79492 L 155.91992 201.16016 L 151.80078 205.32031 L 146.88672 212.36328 L 145.70312 213.58984 L 141.60547 216.22852 L 138.98047 217.2207 L 137.59766 218.98828 L 137.95117 222.50977 L 138.80273 225.28711 L 139.17969 224.89844 L 140.05859 224.58594 L 147.49219 224.31055 L 150.70508 224.76172 L 153.07422 229.35156 L 154.41797 232.22852 L 155.88867 238.25586 L 155.49023 247.58398 L 152.29297 248.95898 L 151.24805 248.31836 L 150.52734 248.08008 L 147.79297 246.82422 L 147.70117 251.85156 L 147.42383 257.57227 L 146.70508 259.42188 L 145.87109 262.50391 L 139.5293 270.3457 L 135.58203 270.75781 L 129.86133 267.4375 L 128.40039 266.36914 L 126.84766 261.43945 L 126.6582 258.25391 L 122.52344 253.87305 L 121.79688 253.5957 L 118.77344 252.4375 L 118.85547 254.7793 L 117.32422 265.49609 L 108.96484 269.86328 L 103.77734 272.4043 L 101.51758 273.79492 L 99.050781 274.73828 L 94.224609 275.39062 L 88.574219 274.23828 L 84.097656 273.37305 L 79.697266 276.06836 L 77.914062 280.22656 L 77.679688 281.20312 L 77.451172 282.57422 L 79.439453 285.10938 L 80.357422 283.29688 L 82.273438 280.31641 L 83.496094 279.15039 L 84.498047 280.38281 L 91.226562 283.07617 L 97.40625 282.36133 L 104.23828 281.87305 L 113.16211 282.69922 L 126.48047 286.57422 L 127.41016 290.05078 L 126.99805 292.91797 L 126.58789 293.35352 L 126.96484 293.55469 L 127.62891 294.66211 L 128.36328 296.55664 L 128.90234 297.72266 L 132.09961 300.39258 L 135.49023 303.07031 L 137.20117 305.16992 L 141.38281 309.8125 L 141.74805 310.76953 L 142.32422 312.33398 L 146.23633 324.68164 L 147.6543 324.64062 L 147.95312 314.54883 L 143.47656 307.71484 L 141.64844 304.60938 L 137.8418 300.59766 L 136.04492 295.8457 L 137.96484 290.55469 L 139.66406 289.61523 L 142.20508 285.75586 L 149.75 271.79688 L 150.83594 269.41992 L 151.42383 267.73047 L 152.26562 264.9707 L 153.58008 259.9668 L 164.79492 256.32617 L 170.04297 258.23047 L 167.96094 256.03125 L 166.9668 254.78516 L 167.6875 254.42383 L 165.18359 251.47461 L 161.43359 246.16797 L 160.18555 243.59961 L 160.38086 237.74219 L 163.75781 226.17383 L 170.89453 223.42578 L 171.79688 223.25391 L 172.43359 222.63867 L 174.2832 222.01172 L 175.49609 219.99023 L 173.07812 214.16016 L 172.50195 212.49023 L 171.40625 207.66211 L 170.15234 200.73633 L 170.15234 197.48242 L 171.93359 195.50195 L 175.24414 189.07227 L 177.20117 182.8457 L 178.18945 179.99219 L 178.99805 179.71289 L 179.82031 181.74414 L 181.45898 185.44336 L 184.21875 189.64258 L 185.43164 192.43555 L 184.94922 196.14844 L 184.53711 198.80078 L 185.09961 203.04297 L 185.98438 208.25391 L 186.28516 209.15039 L 187.82227 211.74609 L 188.74609 214.34961 L 189.05859 217.7168 L 189.47656 221.20312 L 190.1543 237.25781 L 191.73047 248.37109 L 195.62695 248.34766 L 195.0332 243.97852 L 194.0918 233.91992 L 194.98047 229.83008 L 197.38086 220.96289 L 200.50195 220.50195 L 202.9668 220.80859 L 204.46875 228.91992 L 205.31641 232.37305 L 207.16016 225.95312 L 212.61133 218.94531 L 214.3457 218.54492 L 214.5957 217.35938 L 213.14844 213.26562 L 211.25195 210.58398 L 209.50586 207.95898 L 208.77734 206.44336 L 207.34766 201.47266 L 204.0293 196.33398 L 203.75391 193.64844 L 201.08984 178.39062 L 200.64648 175.3125 L 200.77148 173.11914 L 203.44336 171.37109 L 207.34766 169.62109 L 214.25781 166.67188 L 215.08789 164.04883 L 216.04102 160.77344 L 217.54102 157.70117 L 221.21875 150.44141 L 222.16602 144.5332 z "
     id="path4817" />
  <path
     style="fill:#007846;stroke-width:0.41099542;fill-opacity:1"
     d="M 159.37305 81.007812 L 152.48438 81.583984 L 153.28711 83.515625 L 155.53711 88.859375 L 157.01953 100.77734 L 156.81641 110.55859 L 155.89648 112.71484 L 154.74219 112.90039 L 151.68555 112.86133 L 147.78125 112.5332 L 144.25977 112.375 L 136.65625 111.28516 L 132 110.58398 L 126.82422 109.22266 L 121.0332 107.91211 L 119.87305 105.16211 L 120.70117 101.80469 L 123.77148 96.873047 L 126.8457 90.708984 L 129.21875 83.53125 L 122.08789 84.126953 L 122.63867 87.869141 L 122.06641 88.859375 L 121.51172 89.835938 L 120.23633 93.355469 L 118.11914 98.044922 L 116.72266 100.02734 L 115.6875 101.1543 L 114.86914 102.61133 L 110.81641 106.48633 L 107.88086 108.39062 L 104.80469 108.23828 L 97.626953 108.00391 L 93.388672 107.56055 L 88.203125 108.00977 L 87.294922 109.9707 L 88.021484 114.0332 L 88.542969 117.01172 L 90.226562 117.01172 L 93.554688 117.80664 L 96.287109 118.875 L 97.832031 119.70117 L 97.365234 129.24219 L 97.357422 132.32422 L 98.6875 131.80859 L 102.50977 128.23242 L 104.02539 135.50781 L 103.3457 139.82227 L 102.67969 143.20898 L 101.15625 146.18945 L 97.646484 147.48242 L 95.529297 146.5957 L 89.777344 143.85547 L 86.867188 142.5332 L 84.664062 141.46289 L 83.796875 140.84961 L 80.466797 139 L 72.935547 137.74805 L 69.822266 137.75 L 66.640625 137.38281 L 63.539062 136.77539 L 57.080078 128.98633 L 52.34375 121.91602 L 50.144531 113.21094 L 49.355469 110.84766 L 48.402344 110.35547 L 47.714844 111.73633 L 47.619141 116.0293 L 49.884766 126.24219 L 51.556641 129.83594 L 53.861328 133.20117 L 55.074219 134.60938 L 57.373047 136.73242 L 60.158203 142.3125 L 59.925781 146.55664 L 57.765625 156.07812 L 57.324219 159.34375 L 59.228516 157.27734 L 61.203125 154.4375 L 64.353516 148.98438 L 64.722656 145.76172 L 67.404297 140.64453 L 69.169922 141.06055 L 73.363281 141.5 L 80.748047 145.5918 L 85.898438 148.85742 L 89.841797 150.58789 L 91.486328 151.55273 L 93.148438 152.68164 L 95.765625 159.66602 L 96.220703 165.09766 L 93.207031 177.3418 L 90.009766 180.93359 L 87.767578 185.83203 L 84.441406 191.26562 L 82.085938 193.08984 L 80.816406 194.16406 L 82.583984 195.89648 L 84.136719 198.96289 L 82.648438 202.30078 L 81.378906 206.22656 L 76.619141 214.00586 L 76.035156 214.36719 L 70.388672 216.0918 L 63.931641 215.52539 L 61.835938 207.67578 L 60.376953 204.10156 L 59.011719 202.15039 L 52.855469 197.02148 L 50.552734 195.54492 L 47.574219 192.88672 L 46.443359 189.38867 L 45.816406 185.64062 L 44.121094 187.49609 L 43.300781 189.55078 L 41.119141 189.64844 L 38.375 190.21484 L 37.8125 190.01367 L 37.402344 189.34766 L 36.990234 189.94922 L 36.271484 190.93555 L 25.720703 190.58984 L 23.333984 190.3125 L 21.714844 190.13281 L 18.935547 189.5293 L 15.457031 188.72266 L 9.2480469 190.16992 L 5.9375 192.22461 L 0.60546875 195.6543 L 2.9921875 205.54688 L 5.34375 205.07422 L 9.2363281 198.97656 L 18.125 195.92383 L 22.902344 197.81055 L 23.150391 201.02734 L 24.564453 214.51953 L 26.150391 210.11328 L 27.587891 202.20117 L 35.794922 197.5625 L 43.042969 197.82227 L 50.160156 201.32422 L 54.677734 206.43945 L 55.369141 209.76758 L 55.726562 213.04883 L 54.355469 218.8457 L 50.492188 222.63672 L 50.142578 223.11914 L 49.498047 224.3125 L 48.443359 228.04492 L 47.480469 233.11719 L 46.667969 236.33984 L 45.832031 237.02734 L 45.310547 247.17969 L 45.017578 258.37305 L 44.025391 264.47266 L 43.939453 265.60938 L 43.916016 266.3418 L 44.529297 269.69727 L 45.625 275.45117 L 46.181641 277.30078 L 47.636719 283.25977 L 50.132812 289.32227 L 53.380859 290.45117 L 56.923828 291.68555 L 59.5 292.0957 L 58.744141 291.27344 L 57.175781 289.42773 L 54.074219 286.36133 L 49.068359 278.21094 L 48.439453 272.12891 L 48.722656 265.34766 L 50.615234 260.03906 L 51.785156 257.45312 L 52.677734 255.92188 L 54.523438 254.95312 L 52.132812 246.82617 L 51.1875 241.41992 L 54.482422 230.92578 L 56.152344 229.07617 L 58.056641 229.55664 L 62.794922 229.54883 L 64.830078 230.3125 L 66.386719 232.13672 L 68.576172 231.9668 L 70.34375 231.60352 L 72.449219 231.07227 L 74.9375 230.44727 L 78.949219 229.82031 L 81.363281 229.19531 L 82.644531 230.33398 L 84.720703 235.05078 L 85.046875 237.73633 L 85.849609 241.48242 L 86.46875 244.7168 L 87.728516 244.66797 L 88.775391 243.41016 L 89.773438 239.61719 L 91.457031 234.41602 L 93.585938 231.41406 L 97.058594 228.7793 L 103.98828 227.19922 L 108.03125 224.54492 L 107.875 221.23438 L 106.46289 219.76172 L 104.50977 219.33008 L 103.00586 216.31055 L 104.18359 210.90625 L 105.62695 207.1543 L 106.60742 204.05273 L 107.87305 200.55273 L 110.42969 199.85938 L 112.42578 200.28516 L 112.37109 197.44531 L 111.54688 191.60742 L 112.1582 185.73633 L 113.02344 181.57422 L 114.95898 175.73438 L 116.5957 174.99414 L 118.18555 176.37891 L 120.33789 176.19922 L 121.36719 174.96484 L 123.29102 180.02148 L 124.52539 182.70508 L 126.32617 190.98242 L 126.54102 194.04492 L 130.12695 191.56836 L 131.05078 190.19336 L 131.71289 185.36914 L 131.11914 176.53906 L 130.53906 172.1543 L 131.64844 170.78516 L 136.45117 164.12695 L 136.82422 163.27344 L 139.3418 147.23828 L 138.8457 145.19141 L 138.30078 143.48633 L 135.91211 147.35742 L 129.16211 156.95703 L 127.15234 160.07031 L 124.73633 161.2207 L 120.27734 159.73242 L 117.13477 159.33984 L 117.51367 157.79883 L 118.96484 153.03516 L 121.66797 146.58398 L 122.41797 142.41992 L 122.18359 139.80078 L 123.10352 135.61133 L 123.74805 133.22266 L 122.5293 127.28711 L 123.85156 122.40625 L 126.51953 120.90039 L 130.80664 120.49219 L 139.08203 126.81641 L 140.97266 129.95703 L 143.05469 131.80859 L 145.9043 128.69336 L 147.86328 128.93164 L 152.06836 138.73438 L 152.75586 140.51562 L 152.95898 144.45312 L 153.30273 148.04297 L 154.12305 146.83203 L 154.93164 144.78125 L 155.50586 142.8125 L 156.14062 141.61914 L 159.4668 134.60156 L 159.02344 132.98242 L 157.91602 127.38086 L 157.89258 122.65234 L 157.31445 114.13477 L 158.91602 116.55859 L 160.28906 119.33203 L 160.66016 120.30078 L 161.87891 121.73828 L 163.53125 123.17773 L 168.92773 129.57422 L 168.33984 141.23047 L 167.91797 146.36719 L 168.73828 150.04883 L 183.18164 148.55859 L 183.46875 145.36914 L 188.25391 135.88281 L 188.89453 133.41797 L 189.33008 129.43555 L 190.89844 126.94922 L 193.43945 127.79297 L 201.55078 131.39258 L 201.55664 140.48633 L 199.25 144.06055 L 197.45508 145.91992 L 197.54688 147.07422 L 222.16602 144.5332 L 222.42188 142.94336 L 219.76953 133.11914 L 218.45508 128.39258 L 217.57812 123.89844 L 222.45117 116.11133 L 225.63672 112.50977 L 226.2207 112.08008 L 227.31445 108.20508 L 225.33789 104.55859 L 224.81445 103.71484 L 220.5918 99.216797 L 219.5293 98.044922 L 218.88672 97.644531 L 217.97852 97.650391 L 216.88477 97.664062 L 217.63477 99.269531 L 222.34961 106.78516 L 219.98633 110.20508 L 215.08398 115.60938 L 210.87305 119.25781 L 209.19922 120.01367 L 207.13867 118.73242 L 203.48828 117.02344 L 201.38477 115.98242 L 199.5332 116.26172 L 197.94531 116.82227 L 196.47852 116.30273 L 194.8125 116.65625 L 192.24609 116.0918 L 185.19141 115.09961 L 178.21484 114.58594 L 175.33594 114.75586 L 168.44141 112.89258 L 167.66992 104.32031 L 172.24414 101.39453 L 175.8418 102.38867 L 177.13867 102.79297 L 177.73828 103.02344 L 178.76562 103.25391 L 179.19336 103.3457 L 185.46484 107.47852 L 187.21289 107.79297 L 191.52344 107.07227 L 192.20703 106.12305 L 191.16016 104.13672 L 186.16406 100.66016 L 185.35938 98.832031 L 186.75586 98.71875 L 188.89453 100.00391 L 197.79102 97.017578 L 201.64844 94.996094 L 206.7168 94.451172 L 208.375 95.294922 L 208.81445 95.640625 L 211.04688 96.873047 L 213.71875 97.523438 L 209.91992 91.824219 L 207.55664 88.755859 L 206.73047 88.242188 L 205.9082 87.896484 L 201.58008 86.597656 L 189.41602 90.490234 L 176.44727 92.564453 L 168.84375 91.611328 L 164.36133 89.574219 L 159.73828 83.652344 L 159.37305 81.007812 z "
     id="path4849" />
  <path
     style="fill:#9e0093;stroke-width:0.41099542;fill-opacity:1"
     d="M 122.69531 11.544922 L 120.35742 19.710938 L 114.95312 30.818359 L 114.28711 33.0625 L 116.82422 33.3125 L 119.54492 32.277344 L 125.12695 23.511719 L 126.40039 21.597656 L 129.38867 25.050781 L 131.49414 36.822266 L 128.1875 43.761719 L 125.76367 46.115234 L 124.68555 49.160156 L 126.04883 51.746094 L 126.56836 54.035156 L 124.16797 55.443359 L 120.36133 57.044922 L 113.93359 58.917969 L 108.50391 59.279297 L 104.80469 59.007812 L 99.943359 58.351562 L 89.650391 58.935547 L 82.742188 59.054688 L 77.375 57.53125 L 77.259766 55.21875 L 77.978516 51.664062 L 75.960938 46.011719 L 73.060547 42.388672 L 67.183594 36.810547 L 65.65625 34.216797 L 63.425781 30.310547 L 55.539062 21.662109 L 53.167969 27.8125 L 49.25 36.839844 L 42.513672 41.878906 L 39.679688 45.541016 L 37.099609 48.40625 L 36.878906 52.398438 L 30.03125 69.417969 L 29.162109 71.792969 L 37.308594 64.923828 L 42.402344 58.714844 L 48.458984 45.9375 L 53.830078 37.283203 L 59.662109 40.34375 L 60.628906 41.388672 L 63.296875 43.751953 L 68.494141 49.253906 L 71.513672 52.830078 L 71.03125 54.328125 L 71.03125 55.867188 L 71.513672 56.849609 L 68.066406 58.816406 L 67.404297 59.392578 L 65.142578 62.574219 L 62.882812 65.810547 L 61.429688 68.939453 L 58.568359 79.671875 L 59.287109 84.429688 L 60.005859 86.335938 L 61.429688 87.777344 L 61.849609 83.513672 L 67.029297 67.71875 L 68.085938 65.554688 L 71.986328 61.527344 L 73.363281 61.939453 L 72.976562 62.349609 L 72.335938 63.048828 L 72.828125 63.253906 L 75.798828 63.962891 L 78.775391 65.703125 L 80.417969 66.941406 L 82.277344 68.103516 L 82.845703 68.791016 L 82.203125 71.154297 L 80.730469 75.085938 L 79.427734 79.666016 L 80.097656 82.462891 L 81.132812 82.404297 L 82.191406 78.378906 L 88.119141 68.865234 L 90.056641 66.957031 L 96.710938 66.689453 L 104.59961 66.787109 L 105.71289 69.03125 L 108.375 69.216797 L 116.9375 64.152344 L 119.84961 63.84375 L 126.35742 70.015625 L 126.77148 77.173828 L 123.05859 81.544922 L 120.67383 81.552734 L 122.03711 83.783203 L 122.08789 84.126953 L 129.21875 83.53125 L 129.75781 81.898438 L 131.20703 76.814453 L 139.92188 69.152344 L 144.4668 68.269531 L 150.37891 67.373047 L 152.34766 68.166016 L 150.98047 77.964844 L 152.48438 81.583984 L 159.37305 81.007812 L 158.22656 72.705078 L 158.79883 69.044922 L 164.69531 70.234375 L 166.65625 70.443359 L 168.07227 71.111328 L 168.48438 74.269531 L 168.66406 77.861328 L 169.75391 80.138672 L 170.42383 75.648438 L 174.46875 70.169922 L 179.27148 69.087891 L 182.9707 68.505859 L 188.35938 67.953125 L 191.97656 67.408203 L 192.55078 68.783203 L 194.8125 69.478516 L 192.24805 64.302734 L 192.20117 63.546875 L 193.29102 60.873047 L 200.05273 50.498047 L 200.96484 48.166016 L 194.99609 51.419922 L 192.16406 56.800781 L 183.59961 65.203125 L 177.19141 65.876953 L 171.86914 66.234375 L 165.97461 66.054688 L 161.52148 65.222656 L 159.88867 64.832031 L 160.13086 63.501953 L 161.88086 61.042969 L 166.41797 57.005859 L 172.04102 54.316406 L 177.86523 51.109375 L 184.19727 47.671875 L 191.64453 44.675781 L 194.72656 42.900391 L 201.96094 39.736328 L 205.58984 38.873047 L 206.89453 38.644531 L 209.19336 38.511719 L 211.75586 39.068359 L 212.32227 43.892578 L 210.8457 50.431641 L 208.78516 56.226562 L 211.90234 55.222656 L 213.58984 52.685547 L 214.57812 50.419922 L 215.62109 47.203125 L 215.88281 44.326172 L 216.44141 39.462891 L 218.41992 39.507812 L 221.03516 41.732422 L 224.14453 45.314453 L 224.33789 55.865234 L 223.41797 59.994141 L 228.85547 56.431641 L 230.23828 54.912109 L 231.68359 47.347656 L 230.35742 35.580078 L 223.82812 29.392578 L 214.45898 28.466797 L 206.24219 27.914062 L 206.32031 26.183594 L 205.88477 17.917969 L 203.93164 19.392578 L 202.16602 23.828125 L 193.29102 33.757812 L 189.66602 36.046875 L 184.53711 39.542969 L 174.26172 45.011719 L 168.30273 48.669922 L 163.96094 51.623047 L 160.6543 54.037109 L 154.52148 63.068359 L 152.18164 64.816406 L 145.25977 61.697266 L 133.16211 57.126953 L 128.94336 55.808594 L 130.07227 52.382812 L 131.51953 47.089844 L 132.51953 43.876953 L 134.27344 40.787109 L 136.85938 37.349609 L 139.89648 33.523438 L 145.08984 28.066406 L 149.87695 24.611328 L 160.36328 21.25 L 170.25781 16.613281 L 172.20703 14.96875 L 171.85352 13.878906 L 169.08594 13.898438 L 161.38867 17.724609 L 155.42969 18.371094 L 148.66602 19.785156 L 145.45508 20.839844 L 142.5957 21.501953 L 137.58594 21.451172 L 132.13477 19.580078 L 127.08398 13.867188 L 125.03906 11.666016 L 122.69531 11.544922 z "
     id="path4791" />
  <path
     style="fill:#ff8e00;stroke-width:0.41099542;fill-opacity:1"
     d="M 331.83398 9.5898438 L 329.20898 12.304688 L 328.89453 12.884766 L 328.73047 15.664062 L 327.51172 20.861328 L 321.54297 26.675781 L 318.75586 28.863281 L 314.77539 29.921875 L 309.07031 31.119141 L 305.03711 32.785156 L 298.625 39.103516 L 293.76172 44.677734 L 291.11328 46.732422 L 287.69727 48.203125 L 288.66406 46.455078 L 291.22461 40.810547 L 289.24805 27.775391 L 288.51953 26.681641 L 287.56055 24.861328 L 286.12109 24.224609 L 285.64258 23.935547 L 285.33398 23.476562 L 284.99219 27.757812 L 283.85547 39.234375 L 282.93164 42.894531 L 281.70117 47.025391 L 281.12305 51.205078 L 281.12305 54.474609 L 278.96484 55.171875 L 275.89258 56.439453 L 272.81055 57.580078 L 257.08398 66.078125 L 252.24805 71.392578 L 251.05078 69.439453 L 249.46094 66.871094 L 248.78125 63.583984 L 249.7168 59.679688 L 250.91406 56.185547 L 251.68359 54.746094 L 256.40234 49.728516 L 259.38086 47.041016 L 260.16211 45.5 L 260.96094 43.878906 L 262.05078 41.525391 L 262.89648 39.417969 L 263.44922 37.853516 L 265.48242 33.191406 L 262.27344 32.912109 L 253.5625 45.5 L 247.08594 53.777344 L 238.95312 61.425781 L 231.38281 68.101562 L 228.85938 69.330078 L 221.32227 71.171875 L 218.03516 71.585938 L 212.90234 73.826172 L 216.29297 75.490234 L 219.24609 76.289062 L 228.94922 75.927734 L 233.76953 77.759766 L 234.05664 86.804688 L 234.70703 99.833984 L 236.50977 105.50586 L 237.92578 109.71875 L 239.57227 121.60742 L 239.03711 125.10547 L 238.56445 130.92383 L 240.28125 134.67969 L 241.66602 135.30273 L 242.90625 135.91797 L 243.88281 136.56836 L 242.89062 145.98828 L 241.66211 149.39062 L 238.77344 154.05469 L 236.55273 156.34961 L 237.75781 158.57227 L 238.37891 163.25 L 237.55664 170.23633 L 236.93945 177.97852 L 236.98438 186.05078 L 235.30078 192.40234 L 231.35156 199.30859 L 227.74805 205.86328 L 223.58203 209.29297 L 219.52148 210.98438 L 218.13281 211.58008 L 218.33789 214.4668 L 218.98438 217.79492 L 225.09961 218.16211 L 234.50195 219.84961 L 233.48828 230.44727 L 230.38086 237.2793 L 229.58398 239.10938 L 228.50977 241.55078 L 227.69336 242.98242 L 227.38477 243.60352 L 226.26172 245.30859 L 222.67578 249.97656 L 218.07422 259.22461 L 218.34961 261.30859 L 216.40625 263.03711 L 210.97852 268.14844 L 205.92188 271.95508 L 199.91992 272.79883 L 192.34766 272.83789 L 180.63281 272.91992 L 173.38281 273.32422 L 166.43164 272.5625 L 164.58594 271.95703 L 160.5957 275.55664 L 157.27148 281.9707 L 155.35742 288.80859 L 155.76758 289.42578 L 158.46289 287.7207 L 167.06445 279.50977 L 170.67383 278.80859 L 178.21484 279.16211 L 186.32031 280.08008 L 187.75586 284.49414 L 188.13477 285.21289 L 188.00391 287.95312 L 185.33203 293.74023 L 181.88086 297.77734 L 182.36719 297.92773 L 183.29883 298.05078 L 185.04883 298.45703 L 189.55859 294.6582 L 190.92383 293.13672 L 194.42383 287.36914 L 195.05664 282.78711 L 197.37891 280.32422 L 203.23828 278.05273 L 214.38672 278.32812 L 218.34766 281.17578 L 221.23047 288.91797 L 220.11523 293.94531 L 218.68359 300.11133 L 217.39453 305.24805 L 215.83594 308.74219 L 212.89648 314.74805 L 207.34766 316.14844 L 200.97852 317.77344 L 196.66211 319.13672 L 185.05273 323.27734 L 183.92188 324.97656 L 184.53906 325.5918 L 186.70117 325.41406 L 196.66992 322.70117 L 206.11523 319.71484 L 210.01953 318.38281 L 220.45312 318.05078 L 223.14648 321.19922 L 223.16992 325.21484 L 227.31055 330.90039 L 232.625 335.50195 L 236.3125 338.27344 L 238.97266 339.8457 L 241.32422 339.3457 L 252.03516 340.02148 L 254.77539 342.04688 L 257.41992 344.39062 L 258.69727 345.5293 L 260.16016 346.86523 L 262.31836 349.28711 L 263.44922 350.79297 L 264.71484 352.375 L 267.81836 356.32617 L 270.05273 358.86719 L 270.2168 358.24414 L 270.62109 358.11133 L 271.25781 357.70508 L 267.89258 351.24414 L 264.62109 345.52734 L 261.77734 339.77344 L 260.875 338.32812 L 254.69727 332.12109 L 243.98633 330.56836 L 237.99023 330.95117 L 230.25 328.5293 L 228.55078 327.45508 L 229.16797 325.9082 L 230.21094 323.50195 L 227.5293 304.67188 L 224.40625 293.58008 L 224.38086 289.49023 L 224.0957 286.0918 L 223.39062 275.06836 L 224.31445 262.76172 L 225.22656 259.98242 L 225.60352 258.49219 L 226.64258 256.33984 L 227.80664 254.10352 L 229.70898 251.02148 L 232.32031 247.18555 L 236.54883 237.16797 L 237.17773 234.74414 L 237.46484 233.51172 L 237.9375 230.54492 L 238.5957 226.8457 L 238.75977 225.00195 L 239.40625 224.69336 L 240.02344 224.31445 L 244.64258 219.90625 L 250.27148 218.40234 L 256.45703 220.03125 L 260.32422 225.7207 L 260.03516 237.74219 L 259.58398 247.72266 L 259.79883 248.12305 L 260.03516 253.49609 L 255.43555 258.35352 L 250.98438 263.14258 L 249.13477 264.56055 L 243.52344 270.93555 L 239.91992 275.80273 L 239.37891 279.99414 L 244.83008 278.12305 L 246.59961 277.58203 L 247.45703 280.04883 L 249.18359 281.82227 L 251.36523 283.09375 L 253.52539 283.9082 L 253.40039 281.41211 L 252.38281 276.23828 L 251.93359 274.20508 L 252.5 268.70898 L 254.32422 266.08203 L 258.01367 262.69922 L 261.02539 259.42578 L 265.61133 256.92773 L 270.15234 253.59375 L 269.7207 251.20312 L 264.92773 246.29688 L 264.53711 237.02344 L 264.83984 227.92578 L 268.99805 220.27344 L 276.12305 217.70703 L 283 215.30469 L 288.88281 212.77539 L 289.5293 209.79492 L 292.39258 195.13086 L 293.82617 192.94531 L 294.88086 191.81445 L 295.50781 191.64258 L 295.77539 190.77344 L 294.78711 190.35352 L 293.28125 190.22461 L 289.18555 191.37305 L 286.125 194.63867 L 276.1543 203.82031 L 271.83789 205.19922 L 267.37109 204.30273 L 264.99609 203.14062 L 264.01953 204.36133 L 263.04102 206.0625 L 253.00586 209.71094 L 250.00977 206.72852 L 252.55273 196.74609 L 254.00781 192.32812 L 255.27148 190.16992 L 256.05273 190.60938 L 258.00781 190.38867 L 257.49414 188.53906 L 257.42578 181.76367 L 259.17188 181.32422 L 262.37305 181.69141 L 264.6875 182.56641 L 266.01172 184.41602 L 267.55469 187.70508 L 269.10352 192.55273 L 271.82227 193.61523 L 275.10938 189.76562 L 275.87305 186.54102 L 275.58398 177.18164 L 277.08203 170.85352 L 278.36914 166.6582 L 281.21484 164.70508 L 283.85742 165.81836 L 285.67188 168.18164 L 287.06445 170.33984 L 287.70703 171.26367 L 289.99023 175.99023 L 291.14453 178.60352 L 291.99805 180.00195 L 295.45703 182.17188 L 295.50781 179.7832 L 295.29883 176.3457 L 293.55469 170.42188 L 290.07422 166.00586 L 287.57422 162.64258 L 285.44336 159.90234 L 283.125 157.64062 L 281.54492 156.36523 L 280.81445 156.06836 L 275.56641 161.12891 L 272.75195 164.25195 L 270.15234 163.60547 L 269.20312 164.64648 L 265.82812 171.22852 L 261.70312 171.8457 L 258.51758 171.88086 L 258.51758 169.57422 L 258.7832 165.32617 L 260.03125 163.57031 L 261.42383 162.99023 L 260.51172 156.60938 L 260.27148 154.75977 L 261.38086 152.76953 L 262.61328 150.30273 L 265.56836 142.28906 L 266.12109 139.82227 L 268.79297 139.58203 L 273.08203 138.45703 L 276.94336 137.83789 L 287.08594 142.01367 L 289.95117 148.17969 L 291.36523 153.17969 L 292.39844 154.7207 L 293.49414 157.01367 L 294.15039 159.89062 L 296.44922 165.43945 L 298.16211 163.25781 L 299.23633 160.00781 L 300.4375 156.0957 L 303.88672 149.06641 L 305.9043 145.73828 L 305.78516 137.52148 L 306.78516 128.47266 L 307.13086 125.51367 L 312.30664 113.55078 L 315.0625 107.45508 L 315.23438 98.722656 L 314.82422 97.515625 L 314.20703 96.052734 L 313.5625 94.460938 L 312.83594 90.736328 L 311.01367 87.792969 L 309.87891 88.175781 L 308.50781 99.134766 L 304.44531 107.62891 L 303.31641 109.42383 L 302.44531 110.55664 L 300.66797 115.55664 L 299.25781 122.27344 L 296.18555 123.375 L 293.02734 124.00781 L 290.08789 124.40625 L 287.18164 122.86523 L 285.80664 119.09375 L 280.49023 114.13086 L 276.54688 111.55273 L 274.7168 108.44531 L 270.79883 102.71875 L 267.4043 102.44141 L 270.28125 108.01172 L 273.15039 112.94531 L 276.18945 119.47852 L 277.42188 122.22266 L 273.66992 124.82227 L 269.03125 126.88086 L 266.85547 128.93945 L 264.9668 127.88477 L 262.83203 126.13281 L 260.55664 123.89453 L 258.52734 122.35156 L 253.83008 122.61914 L 249.13086 122.88867 L 247.47461 121.57617 L 244.78125 118.125 L 243.69336 110.02539 L 244.90039 100.36719 L 246.4082 90.34375 L 247.04492 83.011719 L 254.92578 74.064453 L 257.66211 71.316406 L 261.18945 67.648438 L 264.27148 64.816406 L 280.45703 58.798828 L 282.29492 58.546875 L 282.73438 60.177734 L 284.82031 63.009766 L 286.19531 63.767578 L 287.99609 64.816406 L 289.44727 68.210938 L 285.89258 75.460938 L 282.86328 79.058594 L 284.86914 83.980469 L 289.11523 78.9375 L 295.83789 72.509766 L 305.91602 73.226562 L 327.79102 88.375 L 331.09961 93.306641 L 332.67969 97.070312 L 336.08203 103.94336 L 339.23242 108.07227 L 341.0293 114.2207 L 340.36719 119.88867 L 338.89453 123.49023 L 334.97461 128.93164 L 330.58594 133.57422 L 326.87305 138.35352 L 322.11914 143.62305 L 319.86328 146.02734 L 318.76758 140.78711 L 318.61328 140.28906 L 319.73242 130.66016 L 319.92578 124.21875 L 318.65625 123.72852 L 317.71094 128.29297 L 316.70312 130.55273 L 312.74219 140.81836 L 313.33203 145.54492 L 314.04492 154.13672 L 313.06836 160.2207 L 311.55078 162.19336 L 310.11523 164.00781 L 309.48047 166.44922 L 313.9707 178.15039 L 318.22852 179.38477 L 322.25781 179.74805 L 325.20703 180.91406 L 327.58984 182.4082 L 328.37305 182.98633 L 329.61914 185.44141 L 332.33398 187.70117 L 334.86133 186.74023 L 340.95898 188.15039 L 341.69727 193.83594 L 340.77539 199.88086 L 331.14453 208.43359 L 327.24023 209.25586 L 320.79883 204.98633 L 317.41211 202.375 L 314.86133 201.91992 L 309.55078 197.45312 L 306.47266 192.29883 L 304.96094 186.60156 L 304.39062 186.4707 L 302.64453 185.85742 L 300.55859 186.7793 L 300.00586 190.78711 L 300.58398 195.39648 L 300.74805 202.1582 L 298.20508 212.20312 L 296.73633 220.5332 L 291.47266 228.1543 L 290.57422 228.98633 L 289.06055 230.66211 L 285.68945 233.00586 L 278.68555 235.79297 L 275.68945 236.21875 L 270.84766 239.16406 L 274.28906 239.43359 L 279.11719 240.16016 L 280.93164 245.5957 L 281.07227 253.51172 L 282.73438 261.39648 L 281.95508 264.97266 L 277.10547 274.65234 L 271.81641 279.11133 L 268.98242 281.85742 L 262.37109 288.18359 L 257.49023 289.40625 L 252.35352 290.67383 L 236.00195 297.77734 L 236.72656 299.49414 L 239.26367 298.69336 L 245.58398 297.88281 L 251.55859 298.10352 L 258.48438 295.5918 L 264.44336 293.32422 L 270.64062 291.69922 L 275.75195 291.99414 L 277.69141 295.44336 L 280.50781 303.81055 L 280.68555 305.86523 L 280.87891 306.74219 L 284.57422 311.79297 L 285.64258 313.33398 L 285.95117 313.88281 L 287.91797 317.14453 L 287.98242 317.58008 L 288.42578 320.48633 L 289.76758 325.75977 L 290.48438 334.22461 L 286.89844 340.04102 L 285.02734 341.74609 L 286.16602 342.03906 L 292.65039 338.46289 L 298.23828 324.77148 L 297.67383 318.57031 L 288.72461 303.81055 L 283.16992 292.71875 L 282.47656 283.67578 L 284.14062 272.26172 L 286.17969 265.48047 L 289.54492 259.62891 L 291.64062 250.79102 L 293.49219 237.98047 L 298.44336 232.26562 L 300.42773 233.50391 L 301.26172 235.79688 L 301.87305 236.87305 L 304.28711 244.48828 L 304.48242 254.00195 L 304.68945 257.15234 L 304.44727 264.50391 L 302.50781 271.13672 L 301.91016 274.01367 L 299.63477 279.32031 L 299.78906 283.46484 L 301.45703 281.51367 L 303.33984 277.08008 L 304.54883 274.26172 L 307.38477 270.7168 L 311.79688 258.18945 L 309.14453 245.44922 L 307.83789 240.10547 L 304.5625 229.70312 L 303.13672 226.13281 L 302.54102 222.2832 L 303.5 216.06836 L 304.33008 214.10938 L 308.45898 212.02344 L 313.04883 213.43555 L 316.24805 213.14062 L 321.7168 212.2207 L 335.01953 212.83398 L 336.51367 213.19141 L 336.35156 219.45703 L 335.97266 226.67578 L 328.18555 236.89453 L 325.69531 238.85547 L 323.20898 240.32422 L 322.41211 243.04102 L 324.08203 247.08594 L 324.89453 256.08008 L 323.41602 266.83594 L 322.80078 268.66992 L 321.80859 272.57422 L 320.54297 277.38086 L 318.30859 280.73828 L 316.46875 282.9668 L 314.39648 285.29102 L 312.08398 288.42969 L 313.08594 289.63086 L 317.09766 286.23633 L 318.36328 284.92969 L 323.46484 279.86914 L 324.62695 278.12305 L 325.67383 275.55469 L 326.95312 271.3418 L 328.16602 266.61523 L 331.20508 259.01172 L 331.81641 254.28906 L 331.60352 252.01562 L 330.59961 249.74609 L 329.21094 248.33203 L 327.98633 245.4707 L 328.28516 242.06836 L 332.9082 237.5293 L 335.06641 235.56836 L 339.6543 226.11328 L 342.32031 214.21289 L 344.40039 210.38086 L 352.60547 203.5918 L 359.58984 196.625 L 361.67969 189.55664 L 362.09766 183.36523 L 361.89258 180.99023 L 361.37695 178.49805 L 359.41797 176.08398 L 355.87695 174.33203 L 345.80859 173.90625 L 344.02148 169.70703 L 343.22656 166.58984 L 339.79688 165.53516 L 335.78516 164.62891 L 330.44141 155.42188 L 331.29102 152.17773 L 333.85938 149.47656 L 337.59766 145.81641 L 339.19531 142.64258 L 341.80469 140.84375 L 349.44922 138.79492 L 353.59766 143.79688 L 353.22461 151.43359 L 354.89648 151.53711 L 359.25 151.84375 L 361.68945 156.87891 L 362.48828 162.7168 L 362.5 165.06055 L 363.77734 164.89844 L 365.23828 164.55078 L 367.08008 160.31445 L 370.2832 154.20703 L 371.54688 149.78906 L 371.71094 143.25 L 372.5625 138.93555 L 374.08008 131.22656 L 381.68555 124.39648 L 383.65625 122.27148 L 384.67578 120.78906 L 387.58398 115.51367 L 386.25781 109.9707 L 384.97852 109.05859 L 384.03906 110.23633 L 383.30469 111.75195 L 382.86523 112.73438 L 382.4668 113.78125 L 380.15625 117.42383 L 379.3418 118.34766 L 376.68555 121.91797 L 369.89648 129.42383 L 368.69922 131.76367 L 367.36523 134.41992 L 364.55469 135.68359 L 358.28516 133.38281 L 352.99805 124.68555 L 352.00586 109.20312 L 355.10547 96.673828 L 352.06445 82.962891 L 347.23047 77.927734 L 345.43359 76.283203 L 340.86719 72.419922 L 340.61719 62.861328 L 342.96875 48.582031 L 344.08398 42.519531 L 336.54102 45.246094 L 337.62305 53.802734 L 337.05664 62.505859 L 335.36523 66.294922 L 335.73828 69.943359 L 336.60742 72.431641 L 340.13281 78.822266 L 340.7168 79.724609 L 344.11914 85.445312 L 346.26562 90.298828 L 347.13867 94.142578 L 347.70312 96.890625 L 344.26367 103.22461 L 340.10547 104.11328 L 338.79102 103.59961 L 337.56445 101.82227 L 335.1875 91.556641 L 330.8125 80.726562 L 328.80078 78.253906 L 324.64062 72.144531 L 319.18945 67.263672 L 308.13672 61.259766 L 298.38477 61.349609 L 293.86328 63.402344 L 287.5 60.166016 L 288.58398 55.585938 L 290.76562 53.632812 L 299.55469 46.552734 L 307.63086 40.392578 L 314.82617 35.224609 L 319.96484 34.033203 L 327.07617 32.757812 L 336.48438 32.554688 L 341.38672 32.308594 L 346.91211 30.269531 L 353.94336 29.09375 L 359.25781 28.6875 L 362.57812 27.638672 L 366.48242 25.509766 L 369.49219 23.103516 L 371.55469 20.044922 L 370.89258 19.195312 L 368.44922 20.847656 L 355.48242 21.013672 L 348.92578 20.234375 L 345.81055 21.712891 L 338.2793 21.072266 L 335.125 12.498047 L 333.74023 9.8125 L 331.83398 9.5898438 z "
     id="path4789" />
  <path
     style="fill:#d90000;stroke-width:0.41099542;fill-opacity:1"
     d="M 821.9375 72.214844 L 819.21094 72.574219 L 816.85352 73.447266 L 814.59375 74.492188 L 811.7168 75.134766 L 811.24805 74.679688 L 811.04688 76.941406 L 810.69141 79.201172 L 810.07227 79.976562 L 807.01758 82.126953 L 805.375 80.914062 L 802.25 78.378906 L 801.54688 81.013672 L 801.53516 82.748047 L 801.82031 84.412109 L 802.08008 86.96875 L 801.64648 88.652344 L 797.28125 94.933594 L 795.98438 92.763672 L 789.11133 89.216797 L 779.80273 91.169922 L 771.56055 91.824219 L 764.49023 92.009766 L 760.875 90.705078 L 756.41016 88.394531 L 754.90234 87.642578 L 752.12109 85.972656 L 750.27344 82.628906 L 748.42383 79.509766 L 747.55859 79.201172 L 745.44336 78.150391 L 743.76562 77.529297 L 745.10156 81.255859 L 746.97656 85.101562 L 749.28516 88.544922 L 750.71094 89.939453 L 752.10938 91.119141 L 754.25586 92.833984 L 757.25977 96.121094 L 763.97852 96.867188 L 768.70508 96.261719 L 778.01562 96.472656 L 782.94727 95.861328 L 786.36914 95.382812 L 795.27734 99.212891 L 794.33984 101.10938 L 793.29297 104.95703 L 796.20117 109.5293 L 797.33203 111.06445 L 789.11133 120.64453 L 786.94922 122.66406 L 782.42773 123.60547 L 775.95898 124.03711 L 767.12305 125.47852 L 759.10938 126.98633 L 756.30273 129.42969 L 753.71289 131.39648 L 748.05859 128.4707 L 744.4043 126.62305 L 737.82031 128.71289 L 735.64648 130.47656 L 733.74805 132.24414 L 736.71094 136.8125 L 738.97266 142.58789 L 739.89453 146.33398 L 744.30859 151.51562 L 744.99414 163.66016 L 745.57031 170.64648 L 749.03711 177.37109 L 750.42578 178.9082 L 748.87109 184.03711 L 746.79492 190.13867 L 747.38477 197.15625 L 749.0625 217.66016 L 746.97461 218.93945 L 745.54688 218.93945 L 745.54102 216.57617 L 740.61523 201.88477 L 738.56055 198.91406 L 736.25 195.93164 L 734.37305 194.48438 L 730.75 188.36523 L 729.37695 187.16016 L 729.10742 188.18945 L 728.63086 189.71094 L 728.97266 191.6582 L 731.38086 196.26953 L 734.7207 201.47266 L 736.68359 204.20898 L 739.375 214.83008 L 739.61133 221.38477 L 739.28125 222.56641 L 741.69141 224.98633 L 743.24609 225.48047 L 752.81055 227.75195 L 759.38672 228.72461 L 764.60352 230.22656 L 765.54688 231.6543 L 766.16211 233.58594 L 767.33789 237.125 L 764.9668 240.16992 L 762.32617 243.66406 L 760.31445 250.8125 L 760.35742 252.64062 L 759.95898 253.25781 L 758.63672 250.99609 L 758.98633 254.78516 L 759.2168 257.66211 L 758.55469 260.41602 L 757.70117 262.5957 L 757.05469 264.58008 L 756.68359 266.20312 L 753.85352 268.05273 L 751.03906 269.89648 L 748.53711 271.00391 L 746.00195 273.24023 L 743.75 274.95703 L 743.49023 275.18945 L 744.07031 275.9043 L 744.25195 277.43359 L 743.67578 283.67188 L 742.57812 288.82422 L 741.35156 290.84961 L 741.48047 293.17773 L 741.67188 294.10352 L 743.83203 299.58203 L 744.18164 300.88672 L 744.35547 302.95312 L 747.7207 304.07812 L 748.58789 303.21094 L 747.58984 298.16797 L 746.58203 285.55859 L 746.57422 277.99219 L 749.24609 277.44727 L 754.17773 275.60742 L 754.96875 275.24609 L 755.52539 277.53906 L 757.87109 296.82227 L 760.54492 306.72461 L 761.15039 308.41992 L 761.72852 309.11719 L 762.53711 309.54102 L 764.65625 309.77148 L 763.44922 306.12305 L 762.79883 301.54883 L 761.91797 297.63281 L 760.29688 284.51367 L 761.16406 275.44922 L 761.04883 273.1582 L 761.02734 269.33398 L 762.60352 265.28125 L 763.94336 262.14062 L 764.91797 259.49805 L 765.27344 257.98438 L 767.74219 246.58398 L 776.24805 236.61133 L 776.79883 237.33203 L 777.36328 236.81836 L 776.44141 235.3418 L 776.67188 233.95508 L 783.51172 234.18164 L 790.3125 235.80664 L 795.14844 236.58203 L 801.00195 238.625 L 804.12305 244.21484 L 804.77148 253.79492 L 803.24805 254.94922 L 801.82812 256.19922 L 799.59766 257.98242 L 797.74219 259.6582 L 798.46094 260.25977 L 801.23633 259.60156 L 804.14258 258.25195 L 806.78516 256.71094 L 808.8125 252.14844 L 808.83789 249.62695 L 809.30078 238.52344 L 808.57617 235.95508 L 807.98633 233.51953 L 806.61133 228.46094 L 805.77734 216.41797 L 805.50977 206.56641 L 805.0293 204.12305 L 806.67578 202.16992 L 808.59961 198.95117 L 809.85938 197.16016 L 811.6543 193.9375 L 809.66016 194.09961 L 806.72461 194.87109 L 802.42969 198.8418 L 800.01758 207.45703 L 799.83203 207.66016 L 799.43945 207.9043 L 798.64648 213.87891 L 795.09375 215.24023 L 793.81641 217.92578 L 793.20898 223.48047 L 787.37695 227.44141 L 780.31445 225.30273 L 772.50195 224.83789 L 770.8125 220.875 L 769.97656 217.51172 L 769.2207 209.82031 L 768.61914 202.29492 L 767.78516 197.55664 L 766.69531 192.0332 L 766.67383 189.5293 L 766.67969 188.49805 L 766.75391 187.41797 L 768.67969 186.88086 L 774.53516 208.06445 L 775.31836 215.24023 L 779.02344 210.92578 L 782.16406 206.14453 L 784.75977 202.1582 L 784.82227 195.42383 L 784.11523 189.73242 L 786.43945 186.91797 L 787.1582 185.88477 L 786.64258 183.79883 L 792.20117 181.9082 L 797.24805 182.42383 L 800.70312 182.92773 L 802.84375 183.23438 L 803.69141 186.18164 L 806.4043 188.29297 L 805.97656 183.38867 L 805.00391 181.01562 L 804.01953 180.03125 L 800.20898 176.11328 L 798.25586 175.39258 L 794.69336 175.98438 L 791.95117 176.33203 L 789.18945 177.02344 L 787.55664 177.94141 L 785.72461 176.67969 L 783.22656 172.62109 L 782.45898 165.35938 L 781.83008 160.69336 L 781.30273 159.71289 L 780.54102 158.93359 L 778.50391 161.70898 L 775.87695 172.80469 L 775.48633 177.42969 L 773.83008 176.40039 L 770.27734 175.32812 L 765.19531 175.82812 L 764.2207 175.74414 L 763.82812 168.6543 L 759.08398 142.96875 L 757.44531 140.25195 L 758.37109 139.55469 L 762.49414 137.94531 L 765.69141 137.03516 L 769.90039 137.86133 L 784.70117 150.20117 L 784.33594 158.48438 L 785.92969 159.2168 L 787.81055 158.95898 L 791.94141 163.05664 L 797.83984 166.91992 L 796.88086 163.26758 L 794.46484 151.53516 L 793.02344 133.6582 L 794.56641 128.25781 L 797.02539 125.12109 L 799.79688 122.50586 L 803.96094 117.08594 L 804.77344 116.13281 L 803.26562 113.39258 L 800.80664 109.51758 L 800.01562 105.74805 L 799.95508 103.48047 L 799.44922 102.01562 L 806.5 103.64844 L 809.34766 104.27148 L 813.31836 107.02344 L 815.78125 108.36914 L 818.7207 110.73242 L 820.37695 113.59961 L 821.1582 114.54688 L 821.58008 115.34375 L 821.99023 116.39648 L 822.40234 118.44531 L 820.58008 121.5332 L 817.46875 127.03711 L 815.72266 127.70312 L 813.06445 127.95312 L 809.86328 132.63086 L 808.32031 136.33008 L 805.70703 143.72656 L 807.0332 155.85742 L 807.26562 159 L 808.44922 168.92773 L 809.66016 171.24023 L 810.32617 172.125 L 812.01953 174.85156 L 815.61523 179.79883 L 819.93555 186.15039 L 826.45117 194.7832 L 836.27344 201.70117 L 845.98828 209.10742 L 847.09766 217.64453 L 845.82812 224.92969 L 846.95898 226.33594 L 849.32227 223.62109 L 855.33398 221.29492 L 857.0332 222.83008 L 856.79102 225.95898 L 849.9375 237.38672 L 842.8125 238.02148 L 833.68164 233.81445 L 824.22656 223.87109 L 820.91602 218.64062 L 818.26758 215.14648 L 816.77539 212.5293 L 815.82617 210.92578 L 814.73633 208.29297 L 813.44727 204.21094 L 812.66602 202.20703 L 811.0625 205.16992 L 813.46875 214.33008 L 813.7793 220.1875 L 816.73828 228.80273 L 817.1582 237.24414 L 813.78906 247.18555 L 812.18555 251.91211 L 810.68555 256.33984 L 807.6582 262.36914 L 804.11133 267.90625 L 795.23242 270.10742 L 787.62891 270.56445 L 783.43945 270.99219 L 778.30273 271.94531 L 774.94336 273.39258 L 774.73828 274.05273 L 774.72656 274.39258 L 772.49219 277.16992 L 772.94141 283.3418 L 776.45117 279.65625 L 777.6875 277.66602 L 778.24414 276.92969 L 780.92578 274.81641 L 785.00195 273.84766 L 796.09766 276.19922 L 797.51758 278.02539 L 800.08398 281.68555 L 803.11328 286.3125 L 804.49219 289.21875 L 805.94531 295.45898 L 807.39844 302.7832 L 807.72852 297.74805 L 805.67578 287.36914 L 803.49414 276.07227 L 807.26562 270.50781 L 812.97656 260.6543 L 814.74219 255.72266 L 815.39648 253.16992 L 818.30469 246.25195 L 819.52539 244.04102 L 821.375 241.72852 L 823.22461 239.50977 L 825.69531 239.28711 L 827.64453 239.90039 L 829.79883 240.92773 L 831.93359 241.95508 L 835.03906 242.75391 L 839.33594 243.82617 L 841.8418 244.56836 L 843.16406 248.45117 L 843.91797 251.86328 L 842.24805 255.23242 L 840.6582 261.14648 L 839.02148 271.4082 L 839.02148 281.49414 L 838.24609 315.74805 L 830.74219 326.22852 L 826.49414 332.12109 L 825.25977 336.45117 L 824.45703 340.25195 L 824.45508 340.25195 L 824.89453 341.41602 L 826.92188 339.83789 L 833.29297 333.74805 L 839.05078 325.67383 L 839.87891 323.88672 L 840.72461 322.16211 L 841.55859 319.75 L 842.12891 318.38867 L 843.25781 315.63281 L 843.87305 313.1582 L 844.13867 310.56836 L 844.69922 296.69531 L 842.95703 287.99805 L 843.06445 280.17773 L 845.26562 269.4082 L 845.83398 266.32617 L 850.31641 255.94531 L 852.19727 253.44141 L 860.75781 243.77344 L 865.39844 239.78125 L 868.02344 237.22852 L 868.55664 236.62891 L 868.69336 235.7832 L 871.22656 233.7832 L 873.40625 231.78906 L 875.08789 232.36914 L 878.39844 234.34375 L 885.90039 237.3457 L 900.49414 246.16211 L 904.32422 249.75195 L 904.56445 253.55859 L 905.54492 257.36719 L 908.29688 250.59766 L 905.94922 246.38477 L 903.13477 244.00977 L 901.11523 241.2168 L 899.83594 238.79297 L 898.8457 237.39062 L 894.32422 234.83008 L 891.44727 233.74023 L 893.40039 232.92578 L 896.4082 232.0332 L 898.46289 232.01367 L 903.77734 232.30664 L 908.09375 232.22656 L 910.76562 230.35938 L 915.90234 227.23438 L 924.2832 219.0957 L 925.62891 216.99219 L 927.65039 219.01172 L 929.21875 222.30859 L 929.83594 225.96094 L 930.9043 231.43555 L 931.5625 235.93555 L 932 241.33789 L 932.07812 246.06445 L 931.86719 249.18555 L 932.05469 251.82617 L 935.15625 253.7207 L 935.64258 251.17773 L 935.95898 246.8418 L 937.20898 244.65039 L 935.61328 230.49805 L 933.97852 224.51562 L 933.00391 219.49805 L 932.34766 214.1543 L 930.45898 203.25781 L 927.44336 201.57617 L 927.45117 202.7207 L 926.58984 203.32031 L 925.94336 202.72266 L 925.56055 202.52344 L 925.16797 202.08789 L 923.89648 205.06836 L 922.07422 209.07422 L 919.96094 213.73828 L 913.94727 221.50781 L 910.47852 223.99805 L 908.00586 226.12695 L 903.51953 226.08789 L 899.875 225.38477 L 895.35352 226.34375 L 882.20117 226.75586 L 880.14648 225.50195 L 875.54492 221.87305 L 874.66211 218.17773 L 873.80273 211.29688 L 872.74023 206.81445 L 871.29688 204.6543 L 869.25 203.73438 L 868.07227 204.86133 L 867.41406 204.34375 L 865.22656 197.36133 L 857.20117 187.58203 L 851.35938 179.39844 L 847.75195 175.8125 L 845.58594 175.625 L 840.07422 174.70703 L 834.91406 167.32422 L 830.47461 164.04688 L 827.7207 160.58789 L 827.19141 155.58203 L 828.16406 152 L 831.44336 151.71094 L 835.86133 155.64062 L 836.78711 155.21094 L 836.47852 154.96289 L 836.11133 153.61523 L 835.37109 150.75781 L 834.88867 144.86133 L 842.6875 143.03125 L 849.72656 154.96289 L 851.39648 157.43555 L 853.28125 161.40625 L 856.8418 168.65625 L 860.23242 172.09375 L 861.44727 172.85547 L 863.6543 174.26562 L 866.98047 177.47461 L 872.65234 181.94141 L 874.06445 183.38867 L 875.25 184.82617 L 876.60938 186.16211 L 878.29297 188.73047 L 879.11719 191.50586 L 880.11328 192.79688 L 880.27344 187.23242 L 878.62891 184.38281 L 877.47461 183.29883 L 875.16211 179.59375 L 874.53125 178.77148 L 868.46875 174.60352 L 860.61523 167.07227 L 859.56641 165.09961 L 859.41211 159.44141 L 864.15234 152.41211 L 869.17773 153.84961 L 876.14648 156.07031 L 878.64648 157.10938 L 884.88867 159.17578 L 890.95898 162.7207 L 894.32617 171.49023 L 895.14844 172.08594 L 895.96289 171.57227 L 893.91602 163.86914 L 893.25 161.92578 L 891.73828 159.26953 L 889.10352 155.51758 L 884.33789 153.59375 L 879.17773 154.07617 L 874.65625 152.39258 L 872.19141 151.125 L 870.19922 150.31445 L 866.9375 149.11523 L 859.94727 146.28906 L 858.625 135.91797 L 861.33203 122.41992 L 863.85547 117.55664 L 870.08984 110.43555 L 871.13281 109.97852 L 873.31445 108.68945 L 876.30469 107.0918 L 878.41016 106.32617 L 879.67773 107.86719 L 879.10547 113.94531 L 877.53125 122.44922 L 881.50391 134.17188 L 882.81836 134.04492 L 882.45312 133.62891 L 882.12891 133.3457 L 881.51172 130.57617 L 880.06055 119.81055 L 882.21484 113.86719 L 884.18945 109.12305 L 883.54883 107.27539 L 884.76172 99.349609 L 888.96875 94.818359 L 889.39453 95.876953 L 891.18555 95.330078 L 891.91992 93.996094 L 892.27148 93.529297 L 895.34766 90.46875 L 900.5293 96.837891 L 901.97461 101.39453 L 902.32227 97.798828 L 900.84766 91.986328 L 899.66797 88.986328 L 901.69141 85.382812 L 902.36719 81.371094 L 903.01953 76.537109 L 903.43555 74.269531 L 900.08008 77.810547 L 899.44336 78.693359 L 898.09961 82.105469 L 896.05273 85.595703 L 893.73633 87.470703 L 889.1875 91.267578 L 885.55664 94.203125 L 882.37891 96.873047 L 881.75391 95.849609 L 881.13086 95.050781 L 880.79883 94.863281 L 880.82031 96.552734 L 880.14258 100.33789 L 874.86523 103.03711 L 869.24414 106.13281 L 867.04102 107.9707 L 862.17188 112.8457 L 860.38867 113.86133 L 859.8457 114.38672 L 859.06055 116.60156 L 858.16016 118.34766 L 857.54102 118.65625 L 856.92578 119.45898 L 854.33008 124.96484 L 852.73047 127.36719 L 850.82031 127.09961 L 845.04688 124.1875 L 836.375 120.30273 L 828.98242 117.12695 L 827.68359 116.19141 L 826.51172 114.3418 L 824.72852 111.76758 L 823.08594 109.55859 L 821.02344 106.68945 L 818.58008 103.61523 L 816.5332 101.5 L 809.36328 99.158203 L 803.08398 97.830078 L 804.08398 96.583984 L 805.05078 94.414062 L 807.79688 88.802734 L 808.9375 87.466797 L 810.69727 86.599609 L 811.97852 85.982422 L 812.74609 85.365234 L 813.7832 83.257812 L 815 80.964844 L 815.31445 78.912109 L 815.47266 76.681641 L 822.27148 75.091797 L 824.19727 73.138672 L 821.9375 72.214844 z "
     id="path4892" />
  <path
     style="fill:#d90000;stroke-width:0.41099542;fill-opacity:1"
     d="M 770.82227 0.025390625 L 761.06445 2.7578125 L 755.06641 3.7539062 L 747.02148 3.8398438 L 744.95898 5.5429688 L 744.04492 6.4335938 L 742.61328 6.1113281 L 741.50781 7.6425781 L 735.97266 17.017578 L 737.18359 18.783203 L 739.04883 17.550781 L 747.66602 8.3242188 L 750.21875 7.546875 L 752.80273 7.8925781 L 760.4707 6.0683594 L 770.48047 4.9394531 L 772.9082 5.7304688 L 773.83008 5.5253906 L 774.21289 8.9199219 L 770.03711 20.085938 L 765.68359 28.03125 L 761.61328 33.509766 L 753.40234 38.511719 L 745.55469 43.351562 L 742.26758 45.570312 L 739.99805 46.603516 L 737.12109 47.554688 L 733.01172 48.535156 L 727.87305 49.423828 L 722.73633 47.873047 L 719.30469 44.087891 L 717.83594 41.566406 L 715.61133 36.056641 L 716.375 32.152344 L 719.46875 26.798828 L 719.39453 24.126953 L 716.08984 22.244141 L 712.00391 20.134766 L 710.61133 19.623047 L 709.14258 19.369141 L 707.91992 20.626953 L 711.93555 23.953125 L 713.86914 27.759766 L 711.70898 31.107422 L 708.46094 34.634766 L 701.88672 35.962891 L 695.87109 36.427734 L 691.3457 36.414062 L 685.95117 37.458984 L 684.54883 39.626953 L 681.47656 43.033203 L 679.79688 45.550781 L 679.16992 47.695312 L 679.58203 50.429688 L 680.60938 49.982422 L 682.40039 47.414062 L 685.86328 42.824219 L 690.22461 39.84375 L 696.11328 39.298828 L 705.17188 38.277344 L 712.73242 41.189453 L 715.58594 45.357422 L 717.11328 48.169922 L 716.36328 49.402344 L 715.32617 52.181641 L 714.66797 53.957031 L 714.5332 54.568359 L 714.36719 54.951172 L 713.45703 56.492188 L 710.57812 60.890625 L 706.29688 64.230469 L 703.42578 66.695312 L 700.26953 69.335938 L 691.70508 72.833984 L 683.91797 77.117188 L 680.27148 79.550781 L 666.75 77.068359 L 663.75586 75.089844 L 660.84961 74.257812 L 655.82812 70.929688 L 650.50391 66.167969 L 647.72852 63.619141 L 645.99219 61.529297 L 644.25391 59.720703 L 641.05469 59.818359 L 633.33008 57.609375 L 630.37891 56.224609 L 623.83008 52.046875 L 619.16406 48.175781 L 617.04688 47.160156 L 614.75781 47.167969 L 614.88477 49.173828 L 616.64648 53.021484 L 624.36523 61.353516 L 635.36523 64.25 L 641.86523 67.695312 L 647.29297 74.291016 L 649.76562 76.939453 L 649.77539 80.5 L 648.33594 87.441406 L 644.63867 93.255859 L 642.38672 96.699219 L 634.7832 103.45898 L 617.83008 104.95898 L 616.08203 103.76562 L 615.54297 103.44922 L 613.85156 102.24609 L 606.93164 98.910156 L 605.80859 96.349609 L 606.62891 95.080078 L 608.26758 93.089844 L 609.91211 90.978516 L 610.74023 89.587891 L 611.5625 87.158203 L 611.95898 85.775391 L 611.71875 77.267578 L 609.01367 74.390625 L 604.35938 68.341797 L 601.28125 61.841797 L 599.48633 64.048828 L 602.03711 73.048828 L 604.63867 76.267578 L 606.6582 79.501953 L 607.63281 83.445312 L 604.4043 93.53125 L 602.04883 96.462891 L 597.44727 93.197266 L 594.78516 89.886719 L 590.42969 85.505859 L 586.43555 82.054688 L 582.70508 80.046875 L 579.99805 80.433594 L 575.25195 85.599609 L 574.82031 90.708984 L 577.42578 88.957031 L 581.89453 85.650391 L 586.76758 85.876953 L 589.16211 88.013672 L 591.18359 89.863281 L 593.50195 92.351562 L 596.95117 97.154297 L 597.85352 101.26367 L 589.54102 108.62109 L 585.66797 110.35547 L 575.18945 111.54492 L 565.61914 111.69727 L 557.2207 108.41602 L 544.61328 104.37695 L 540.39648 103.25586 L 538.4043 99.382812 L 537.84961 97.888672 L 536.55664 92.435547 L 535.40039 87.082031 L 534.70703 83.925781 L 537.27344 83.394531 L 547.87891 77.658203 L 550.40039 75.912109 L 553.38281 79.611328 L 556.96289 83.310547 L 558.13281 82.892578 L 553.10742 73.757812 L 552.5957 72.193359 L 552.97266 70.853516 L 553.5918 67.076172 L 556.87891 61.765625 L 561.66602 58.279297 L 566.19922 53.714844 L 567.94727 52.095703 L 569.22852 51.044922 L 570.20117 49.888672 L 572.61133 45.396484 L 570.93359 45.921875 L 568.88086 47.966797 L 564.95898 51.519531 L 559.79688 55.492188 L 558.27148 55.308594 L 552.61328 57.097656 L 550.58594 58.322266 L 547.26953 57.664062 L 537.00781 57.640625 L 535.12891 58.707031 L 533.88281 60.142578 L 538.05664 61.132812 L 544.51953 60.90625 L 548.11914 61.191406 L 548.54102 62.775391 L 548.67188 71.210938 L 544.98633 74.998047 L 539.26172 78.259766 L 534.29492 80.398438 L 533.78125 80.126953 L 533.26758 81.291016 L 532.3418 82.154297 L 532.23242 86.0625 L 532.54688 97.087891 L 528.53516 100.19922 L 517.32227 99.277344 L 511.76172 96.755859 L 509.83789 97.185547 L 506.10156 97.474609 L 500.34766 96.482422 L 492.68359 93.046875 L 490.72852 94.279297 L 493.42773 99.544922 L 494.71289 101.13672 L 506.14062 105.5293 L 517.4043 107.56836 L 529.09961 111.7168 L 535.66211 115.35547 L 538.74414 116.98047 L 543.33398 119.08008 L 546.82812 120.39648 L 556.94141 129.87695 L 559.42578 135.04102 L 559.98242 141.98047 L 560.30273 144.13672 L 562.40234 144.14648 L 568.2832 146.24609 L 569.29492 148.88086 L 573.86523 156.32812 L 583.68945 161.81055 L 586.2168 162.11914 L 586.66992 165.43555 L 594.19531 179.48633 L 596.20508 182.81055 L 596.85742 184.96289 L 595.67969 190.89258 L 595.48438 192.54297 L 594.09375 200.85547 L 589.66797 203.10742 L 585.63672 207.8418 L 586.38867 212.35938 L 588.33984 211.54102 L 592.90625 211.80664 L 595.80859 213.25391 L 598.06836 214.39258 L 599.01562 220.23828 L 596.58398 232.07031 L 595.57031 235.37891 L 594.6582 239.08789 L 595.15039 243.40234 L 596.67188 247.19531 L 598.5918 247.74414 L 601.08594 234.35156 L 610.36133 215.04102 L 616.19531 212.87305 L 626.53906 213.27734 L 629.4043 216.53125 L 630.63867 218.25195 L 631.35938 219.42773 L 633.08984 218.93945 L 634.99219 217.5 L 637.92383 216.7832 L 641.62305 215.89062 L 645.36523 215.42383 L 646.98242 216.52148 L 646.48828 220.79688 L 644.44336 234.68555 L 643.47656 239.20703 L 641.58594 244.80664 L 639.77539 249.98828 L 633.73438 259.6875 L 629.14062 261.64648 L 623.07031 260.63867 L 616.87305 259.42773 L 612.35156 257.95898 L 609.91797 257.74805 L 616.42188 262.93555 L 623.27539 264.67188 L 630.05664 266.30664 L 636.69336 272.12891 L 636.67773 274.88672 L 637.23438 277.03125 L 637.86523 278.50781 L 635.17383 284.81641 L 634.57812 285.71094 L 634.24805 286.41016 L 632.35742 289.13281 L 630.69141 294.73633 L 632.73242 300.55859 L 635.44336 298.26172 L 636.65625 296.20508 L 638.03906 291.06836 L 640.67969 280.16602 L 643.82422 276.79492 L 649.68945 275.60352 L 652.25 276.22852 L 660.52734 280.4707 L 663.76758 285.93164 L 669.25195 292.95508 L 678.49219 298.08398 L 678.79492 305.1582 L 676.08789 313.58008 L 672.00586 314.30078 L 665.22461 314.29297 L 660.17578 313.42969 L 657.79883 315.88086 L 654.49609 319.9668 L 652.66211 321.94922 L 651.67578 323.92969 L 649.78711 328.77734 L 650.60742 329.08594 L 651.42773 328.69531 L 654.24219 324.56445 L 656.7207 322.91992 L 660.13281 321.27734 L 663.89453 320.27539 L 673.31836 318.45117 L 675.95898 318.05859 L 677.88672 317.57812 L 679.16992 317.16602 L 680.77539 316.75586 L 682.9082 315.88867 L 683.56055 308.18359 L 682.58398 299.56445 L 681.17773 297.56836 L 679.35352 294.86328 L 664.4082 279.26953 L 660.29883 276.31836 L 650.8125 272.69141 L 646.56055 271.82227 L 645.22656 264.14453 L 646.04883 253.45898 L 646.72656 243.08984 L 648.95703 230.44727 L 650.45898 220.17188 L 652.66406 215.24023 L 654.06055 212.77344 L 658.71094 208.73828 L 662.73047 207.01953 L 665.91602 204.71484 L 666.49023 201.86133 L 653.07227 205.97461 L 651.44531 206.9668 L 647.94727 208.88086 L 645.29492 210.30859 L 642.72852 211.06836 L 636.13867 212.44336 L 635.13477 212.23633 L 633.44727 211.34375 L 629.64844 209.2793 L 627.39453 206.25195 L 626.12891 203.22852 L 624.08203 200.38281 L 621.99219 189.47461 L 628.28711 177.14258 L 636.91602 174.9668 L 640.07422 174.63477 L 640.54102 169.61719 L 641.18359 164.21875 L 641.56445 162.51758 L 644.25977 156.67383 L 646.08203 153.27734 L 647.51562 151.875 L 648.55078 150.91602 L 649.35742 149.69922 L 651.82422 150.69727 L 653.48438 152.72461 L 654.71875 153.9375 L 655.95508 154.85156 L 656.43945 153.78516 L 654.47461 145.46484 L 654.15039 138.32422 L 654.48242 135.21289 L 654.10352 134.06836 L 653.56641 132.75977 L 653.52734 131.39648 L 659.23828 125.07422 L 663.9043 119.98242 L 667.66406 117.85352 L 670.86914 116.62891 L 673.31836 115.92969 L 676.31055 116.1543 L 679.4082 119.27148 L 681.8418 119.6582 L 680.20312 112.34766 L 680.875 109.59766 L 682.7832 107.89062 L 684.31836 105.50391 L 685.54883 102.35352 L 685.39648 98.154297 L 684.08789 93.703125 L 683.48828 92.044922 L 682.7207 91.53125 L 681.46875 94.099609 L 680.87109 98.517578 L 673.09766 110.67383 L 671.20312 111.72656 L 665.95898 111.58594 L 663.43359 110.67969 L 662.5918 111.6875 L 659.87695 114.86719 L 658.00391 117.57617 L 643.41406 129.96875 L 631.07422 133.99414 L 622.35156 134.92773 L 621.42578 136.98047 L 621.87109 139.68164 L 622.51953 143.45508 L 621.92578 147.83594 L 619.81055 151.63281 L 619.35547 156.26172 L 621.96094 152.15234 L 626.43945 146.09961 L 634.78711 147.14453 L 634.18945 152.10547 L 632.12109 161.0918 L 631.52734 163.86523 L 627.72461 165.58398 L 618.74023 173.77734 L 613.49219 169.55664 L 607.06641 165.625 L 605.01953 160.3125 L 603.05664 153.43359 L 601.45508 148.45898 L 609.07617 145.77148 L 610.57422 147.66406 L 611.58008 149.07031 L 611.76953 144.44531 L 611.30859 137.69141 L 610.54688 135.68359 L 607.75195 135.75977 L 597.25977 135.93555 L 591.47461 136.97266 L 587.50586 139.91992 L 586.24414 139.46484 L 586.125 138.74609 L 584.70117 138.54102 L 583.62695 137.35742 L 580.14258 134.50586 L 575.60156 129.57422 L 573.2832 124.89062 L 573.11523 121.70508 L 575.64648 117.20117 L 579.49805 115.06641 L 581.9043 114.58203 L 584.07617 114.56445 L 591.51562 113.37305 L 594.9375 110.90039 L 597.98633 108.33008 L 599.55469 107.14844 L 600.87109 106.03516 L 602.44141 105.41211 L 609.75977 108.18555 L 615.7168 109.64062 L 623.57422 110.85352 L 633.06445 110.43164 L 639.16406 108.80859 L 645.05469 103.99023 L 653.85938 96.5625 L 658.00586 93.960938 L 664.78711 90.951172 L 673.41797 87.863281 L 687.44727 84.460938 L 694.69531 84.691406 L 702.14453 92.058594 L 703.94922 97.105469 L 704.35742 99.873047 L 706.29688 108.7168 L 705.07031 117.2168 L 704.23438 120.09375 L 700.17969 129.3457 L 694.51758 132.32422 L 693.83594 133.21094 L 692.46289 131.85352 L 687.47266 130.20703 L 683.84375 130.18945 L 669.16602 131.42969 L 661.27539 132.52539 L 657.59961 132.87109 L 658.45508 142.18164 L 659.0332 158.11133 L 659.95703 165.77148 L 664.30664 168.79688 L 665.92969 163.04688 L 666.75391 160.86523 L 668.47266 159.53516 L 671.30664 157.62891 L 670.94531 152.50781 L 671.61719 148.19336 L 677.29883 142.2207 L 678.75977 141.66406 L 682.30078 141.07422 L 685.42773 140.79102 L 686.0957 142.45703 L 687.02734 145.77539 L 687.64844 147.42578 L 688.00781 147.86133 L 687.5957 148.04297 L 687.63867 149.14844 L 687.7207 150.25195 L 686.93359 162.55078 L 688.11133 171.05859 L 689.00586 180.375 L 685.52344 203.33008 L 687.11719 206.50977 L 689.24023 208.07422 L 680.35547 214.0332 L 674.49023 215.62695 L 672.43945 223.17578 L 671.81641 227.54102 L 671.75195 229.45508 L 672.00586 232.33398 L 672.13672 238.78516 L 672.99414 241.33789 L 673.93164 243.70703 L 674.61523 248.02344 L 673.82812 252.46484 L 671.92188 254.56641 L 669.98828 256.41211 L 667.41797 261.62109 L 666.81445 262.94531 L 667.22461 264.13867 L 672.18359 261.7207 L 675.33984 258.96484 L 677.89648 255.4707 L 678.80664 250.76172 L 677.82227 247.87891 L 676.44922 236.20117 L 676.67773 230.77148 L 677.03711 226.45508 L 677.13281 224.55469 L 677.89648 222.64258 L 677.79883 221.9375 L 677.55273 220.97266 L 690.54492 220.55664 L 694.38477 223.35156 L 696.6543 225.67773 L 698.74219 223.48828 L 700.83008 221.29883 L 703.36914 221.50391 L 709.74023 224.01758 L 710.86133 237.31445 L 708.41016 243.51758 L 705.87695 248.98047 L 704.49219 252.23047 L 703.43359 259.83398 L 706.67773 273.68555 L 709.79688 278.32812 L 714.77344 285.89062 L 715.80469 289.53906 L 716.85547 301.39258 L 718.41992 299.88477 L 719.42383 298.35547 L 721.08398 294.04688 L 721.09375 287.72266 L 715.7207 277.2832 L 714.31055 275.4668 L 713.76172 274.45508 L 712.06055 267.4375 L 711.36523 262.9668 L 712.46484 251.61328 L 716.68359 242.03711 L 722.73828 244.77734 L 723.9375 247.44922 L 725.19922 255.72266 L 727.08984 260.24414 L 730.9375 268.46484 L 732.39453 272.7793 L 733.02148 280.73828 L 732.35742 284.53516 L 732.80469 287.2832 L 730.8457 291.68555 L 730.49805 293 L 730.44922 294.31055 L 731.22656 293.35156 L 731.35156 296.2832 L 727.1582 305.24805 L 722.53125 312.03906 L 717.85547 314.13477 L 716.58594 314.26758 L 707.72266 313.875 L 704.96289 313.46875 L 703.625 314.71484 L 703.03906 316.18555 L 702.6582 317.71289 L 699.44141 320.3457 L 694.89062 321.93164 L 693.76172 323.10938 L 691.06836 325.17578 L 685.75391 329.50781 L 686.41211 329.9082 L 686.63672 329.59961 L 688.65625 329.22656 L 698.85352 325.73633 L 699.61523 325.21289 L 700.60547 325.05078 L 703.83008 323.54102 L 707.73438 321.69531 L 716.36523 318.98633 L 719.54102 318.59375 L 725.82617 320.29883 L 733.09766 324.87305 L 736.72852 327.44141 L 738.14844 328.05859 L 739.22656 328.67578 L 739.79297 328.98828 L 746.95703 331.35352 L 747.80664 331.53516 L 749.92969 331.78516 L 759.44531 336.2793 L 758.62891 340.44336 L 758.21094 342.39648 L 757.58008 343.88086 L 757.32422 344.39453 L 757.52539 346.00781 L 757.95117 347.02148 L 760.3418 344.86133 L 764.76172 341.82617 L 766.67773 339.81836 L 774.42188 337.07227 L 782.2793 339.21289 L 783.87695 341.86719 L 784.04688 342.56445 L 787.35352 346.14453 L 790.13281 352.77539 L 793.32617 358.23438 L 796.23047 361.31055 L 797.50977 365.24805 L 794.46094 373.47266 L 792.40234 377.47852 L 795.27734 375.93945 L 797.81641 373.88281 L 804.66016 365.55664 L 805.50977 362.375 L 805.76758 359.78125 L 800.8125 352.67383 L 795.6875 347.79297 L 794.85938 346.54688 L 794.27148 345.04492 L 794.07227 344.29102 L 793.63281 343.48242 L 787.60938 334.83984 L 786.66016 334.04492 L 785.4082 332.98828 L 784.82031 332.33398 L 782.87109 330.97461 L 775.68164 324.80469 L 773.22266 324.89453 L 767.86133 327.23828 L 764.35547 327.80469 L 761.21875 326.35352 L 756.23242 324.30078 L 753.56055 323.31445 L 747.80664 323.02734 L 737.32617 320.22852 L 733.42188 318.61719 L 725.60938 314.62109 L 724.58789 312.75586 L 726.48047 310.58984 L 729.20117 307.09766 L 730.75781 304.42578 L 735.45117 294.91406 L 737.19141 289.64062 L 737.73438 287.81836 L 738.80664 285.63281 L 739.61523 282.92188 L 739.25 275.55273 L 739.33789 268.97656 L 738.17383 261.88672 L 736.71875 258.59961 L 735.90234 255.66797 L 733.17578 249.72461 L 730.49023 244.54883 L 725.17773 239.33789 L 722.06445 237.65625 L 719.20117 236.35156 L 717.8457 235.2207 L 720.69336 229.80078 L 722.73828 219.77344 L 720.33984 217.55664 L 716.69141 216.31055 L 713.61719 212.83398 L 713.01758 211.64453 L 712.55078 208.30469 L 710.14648 190.88477 L 708.7168 187.57422 L 706.9082 183.93359 L 705.67969 181.73633 L 707.2793 181.53711 L 709.37891 178.83203 L 712.39453 179.11328 L 713.37305 181.31641 L 713.75977 184.15039 L 716.77734 190.73242 L 719.16602 193.43164 L 720.63867 188.79297 L 721.30469 184.19727 L 725.13086 179.65234 L 728.76953 177.18359 L 730.46289 174.81055 L 727.04883 175.51953 L 724.08008 176.75781 L 720.87695 178.25586 L 718.30078 179.46875 L 716.00391 176.19531 L 711.00391 162.83789 L 708.34766 157.28906 L 707.12305 154.00195 L 706.42383 147.48438 L 706.26367 142.40625 L 708.03125 142.60547 L 721.53906 153.66016 L 721.87695 162.0957 L 721.87305 165.2832 L 723.6543 165.70117 L 725.39844 164.70117 L 727.89062 163.49023 L 731.42188 159.54102 L 731.60742 158.70508 L 730.66016 154.94336 L 730.26562 151.29102 L 729.58789 145.00781 L 728.74023 141.04688 L 728.43164 138.28906 L 728.69727 137.97266 L 729.05469 137.25391 L 731.17969 133.2793 L 732.80664 131.58398 L 735.38672 129.61719 L 735.50586 129.38867 L 736.26562 128.0625 L 736.50391 126.46484 L 737.42969 123.93359 L 752.21094 114.92969 L 759.10938 113.43164 L 760.40039 113.15234 L 763.89453 112.51562 L 768.97266 111.60156 L 770.82227 111.48047 L 770.68164 113.84961 L 771.87695 117.20117 L 772.7168 118.64258 L 774.69336 119.41797 L 775.00977 116.4375 L 774.47656 112.49023 L 773.03906 107.55859 L 773.10938 106.71094 L 769.34961 104.80273 L 762.60352 105.50195 L 756.77734 106.75977 L 752.37305 106.4707 L 751.31445 105.23828 L 746.93555 101.1875 L 740.00586 95.314453 L 737.67969 93.552734 L 736.91602 92.556641 L 733.20898 91.746094 L 732.83203 89.011719 L 733.62891 85.966797 L 727.03711 69.314453 L 726.17773 65.255859 L 725.61133 62.611328 L 724.05859 67.535156 L 723.81055 69.923828 L 723.35352 71.675781 L 722.58398 74.425781 L 723.82617 80.433594 L 728.66602 88.566406 L 728.69531 94.611328 L 727.87305 95.703125 L 728.69531 96.050781 L 729.51758 96.427734 L 726.43555 100.16016 L 723.96875 104.41992 L 723.95898 106.3457 L 724.09766 107.55859 L 731.04297 97.574219 L 735.23438 95.679688 L 739.5918 99.480469 L 745.58008 104.68164 L 744.29883 109.87891 L 740.85547 114.25586 L 739.79297 115.57617 L 735.19531 117.99219 L 734.86133 118.61719 L 733.06641 120.01172 L 732.81445 120.33398 L 730.66992 122.82031 L 729.06445 125.38477 L 729.05078 126.1875 L 725.74219 127.21875 L 718.08594 128.10742 L 711.79297 128.67188 L 708.86523 129.51367 L 707.32422 129.78906 L 707.32422 128.20898 L 707.75 126.20312 L 707.79688 124.77539 L 708.80859 119.51562 L 710.20117 114.71094 L 713.51367 112.94141 L 716.625 113.95703 L 718.44531 116.71875 L 721.58594 119.06641 L 721.29102 115.44727 L 718.50391 111.55859 L 716.09766 110.625 L 713.62109 109.35352 L 712.66797 108.73047 L 711.88477 107.50586 L 710.73633 101.73242 L 710.63867 100.80859 L 710.49609 100.16016 L 711.89453 97.078125 L 711.22852 95.023438 L 709.9375 92.042969 L 708.90039 90.296875 L 707.98633 89.166016 L 706.63672 87.214844 L 704.64258 80.783203 L 705.80469 73.035156 L 709.10547 68.925781 L 711.02344 67.515625 L 714.41406 64.378906 L 716.36523 61.847656 L 717.1875 60.824219 L 718.00977 60.076172 L 720.22266 57.572266 L 724.2793 55.714844 L 727.54688 55.234375 L 731.73242 54.800781 L 739.46484 51.355469 L 743.29297 50.429688 L 755.1875 47.892578 L 763.65039 40.828125 L 765.92969 38.369141 L 767.55469 40.050781 L 772.87891 42.994141 L 777.29688 44.261719 L 778.01562 44.632812 L 780.78906 46.099609 L 788 50.601562 L 792.55273 52.732422 L 793.22266 52.890625 L 797.43555 53.351562 L 799.03906 54.615234 L 799.92969 60.824219 L 799.66211 64.144531 L 796.50977 66.068359 L 793.08789 67.988281 L 791.37109 68.925781 L 789.11328 71.964844 L 789.91211 73.337891 L 793.71484 72.449219 L 802.26367 68.759766 L 803.1875 64.404297 L 803.22266 59.060547 L 804.84766 55.054688 L 807.61328 53.306641 L 809.46484 52.736328 L 809.75781 51.091797 L 808.4375 50.019531 L 808.01758 48.580078 L 807.79883 35.699219 L 804.75977 30.291016 L 803.95898 32.539062 L 803.72266 34.791016 L 803.23242 38.607422 L 801.01172 47.964844 L 795.2168 47.949219 L 782.95703 44.535156 L 778.45898 40.060547 L 776.62109 36.882812 L 773.7207 35.949219 L 770.6875 33.611328 L 771.02344 31.328125 L 771.39844 30.0625 L 771.7832 28.517578 L 772.26172 26.246094 L 772.91406 24.199219 L 773.34961 22.699219 L 773.71875 21.644531 L 774.06641 20.765625 L 774.44141 19.681641 L 775.57422 17.242188 L 776.36914 15.496094 L 777.41211 13.113281 L 777.75977 12.240234 L 777.9707 8.7304688 L 775.59961 2.9765625 L 775.0293 1.7695312 L 770.82227 0.025390625 z M 724.89453 55.091797 L 725.92188 55.091797 L 725.4082 55.298828 L 724.89453 55.091797 z "
     id="path4529" />
  <g
     transform="translate(-12.260826,75.698135)"
     style="display:inline"
     inkscape:label="Foreground"
     id="layer1"
     inkscape:groupmode="layer" />
</svg>
