G75*
%MOIN*%
%OFA0B0*%
%FSLAX25Y25*%
%IPPOS*%
%LPD*%
%AMOC8*
5,1,8,0,0,1.08239X$1,22.5*
%
%ADD10C,0.05200*%
%ADD11C,0.22500*%
%ADD12C,0.06450*%
%ADD13C,0.05150*%
%ADD14C,0.05937*%
%ADD15C,0.05937*%
%ADD16C,0.13000*%
%ADD17C,0.06000*%
%ADD18C,0.10650*%
%ADD19C,0.15000*%
%ADD20OC8,0.05150*%
%ADD21C,0.01200*%
%ADD22C,0.04000*%
%ADD23C,0.24000*%
%ADD24C,0.03962*%
%ADD25C,0.01600*%
D10*
X0171598Y0317465D02*
X0176798Y0317465D01*
X0176798Y0327465D02*
X0171598Y0327465D01*
X0171598Y0352465D02*
X0176798Y0352465D01*
X0176798Y0362465D02*
X0171598Y0362465D01*
X0136798Y0364865D02*
X0136798Y0370065D01*
X0126798Y0370065D02*
X0126798Y0364865D01*
X0116798Y0364865D02*
X0116798Y0370065D01*
X0116798Y0345065D02*
X0116798Y0339865D01*
X0126798Y0339865D02*
X0126798Y0345065D01*
X0136798Y0345065D02*
X0136798Y0339865D01*
X0206798Y0327465D02*
X0211998Y0327465D01*
X0211998Y0317465D02*
X0206798Y0317465D01*
X0206798Y0352465D02*
X0211998Y0352465D01*
X0211998Y0362465D02*
X0206798Y0362465D01*
X0234198Y0362465D02*
X0239398Y0362465D01*
X0239398Y0372465D02*
X0234198Y0372465D01*
X0234198Y0352465D02*
X0239398Y0352465D01*
X0259198Y0352465D02*
X0264398Y0352465D01*
X0264398Y0362465D02*
X0259198Y0362465D01*
X0259198Y0372465D02*
X0264398Y0372465D01*
D11*
X0331798Y0232465D03*
X0341798Y0162465D03*
X0186798Y0162465D03*
X0176798Y0232465D03*
D12*
X0126798Y0217465D03*
X0126798Y0177465D03*
X0281798Y0177465D03*
X0281798Y0217465D03*
D13*
X0151798Y0287465D03*
X0131798Y0287465D03*
X0106798Y0307465D03*
X0086798Y0307465D03*
X0051798Y0304158D03*
X0041798Y0304158D03*
X0041798Y0314158D03*
X0041798Y0324158D03*
X0051798Y0324158D03*
X0051798Y0314158D03*
X0051798Y0294158D03*
X0041798Y0294158D03*
X0041798Y0284158D03*
X0041798Y0274158D03*
X0051798Y0274158D03*
X0051798Y0284158D03*
X0051798Y0264158D03*
X0041798Y0264158D03*
X0041798Y0254158D03*
X0041798Y0244158D03*
X0041798Y0234158D03*
X0041798Y0224158D03*
X0041798Y0214158D03*
X0041798Y0204158D03*
X0041798Y0194158D03*
X0041798Y0184158D03*
X0041798Y0174158D03*
X0041798Y0164158D03*
X0041798Y0154158D03*
X0041798Y0144158D03*
X0041798Y0134158D03*
X0051798Y0134158D03*
X0051798Y0144158D03*
X0051798Y0154158D03*
X0051798Y0164158D03*
X0051798Y0174158D03*
X0051798Y0184158D03*
X0051798Y0194158D03*
X0051798Y0204158D03*
X0051798Y0214158D03*
X0051798Y0224158D03*
X0051798Y0234158D03*
X0051798Y0244158D03*
X0051798Y0254158D03*
D14*
X0411798Y0267465D03*
X0441798Y0267465D03*
X0411798Y0157465D03*
X0471798Y0157465D03*
D15*
X0044767Y0357465D02*
X0038830Y0357465D01*
X0038830Y0367465D02*
X0044767Y0367465D01*
D16*
X0026298Y0035606D03*
X0083298Y0035606D03*
D17*
X0071298Y0046606D03*
X0071298Y0056606D03*
X0063048Y0056606D03*
X0054798Y0056606D03*
X0046548Y0056606D03*
X0038298Y0056606D03*
X0038298Y0046606D03*
X0051798Y0046606D03*
X0059798Y0046606D03*
D18*
X0169239Y0113803D03*
X0196798Y0113803D03*
X0224358Y0113803D03*
X0379239Y0113803D03*
X0406798Y0113803D03*
X0434358Y0113803D03*
D19*
X0361798Y0297465D03*
X0331798Y0297465D03*
X0301798Y0297465D03*
D20*
X0237444Y0387758D03*
X0227444Y0387758D03*
X0217444Y0387758D03*
X0167118Y0388091D03*
X0157118Y0388091D03*
X0147118Y0388091D03*
X0096791Y0387758D03*
X0086791Y0387758D03*
X0076791Y0387758D03*
X0076791Y0457758D03*
X0086791Y0457758D03*
X0096791Y0457758D03*
X0147118Y0458091D03*
X0157118Y0458091D03*
X0167118Y0458091D03*
X0217444Y0457758D03*
X0227444Y0457758D03*
X0237444Y0457758D03*
D21*
X0217444Y0457758D02*
X0216798Y0458715D01*
X0210548Y0464965D01*
X0139298Y0464965D01*
X0145548Y0458715D01*
X0146798Y0458715D01*
X0147118Y0458091D01*
X0139298Y0464965D02*
X0083048Y0464965D01*
X0076798Y0458715D01*
X0076791Y0457758D01*
X0147118Y0388091D02*
X0146798Y0387465D01*
X0153048Y0381215D01*
X0210548Y0381215D01*
X0216798Y0387465D01*
X0217444Y0387758D01*
X0214298Y0369965D02*
X0184298Y0369965D01*
X0176798Y0362465D01*
X0176798Y0352465D02*
X0184298Y0344965D01*
X0250548Y0344965D01*
X0258048Y0352465D01*
X0261798Y0352465D01*
X0254298Y0344965D02*
X0236798Y0327465D01*
X0206798Y0327465D01*
X0199298Y0334965D01*
X0169298Y0334965D01*
X0123048Y0288715D01*
X0095548Y0288715D01*
X0095548Y0298715D01*
X0086798Y0307465D01*
X0086798Y0343715D01*
X0069298Y0361215D01*
X0065548Y0361215D01*
X0054298Y0349965D01*
X0030548Y0349965D01*
X0030548Y0356215D01*
X0041798Y0367465D01*
X0043048Y0358715D02*
X0050548Y0358715D01*
X0069298Y0377465D01*
X0129298Y0377465D01*
X0139298Y0367465D01*
X0136798Y0367465D01*
X0139298Y0367465D02*
X0144298Y0367465D01*
X0144298Y0349965D01*
X0136798Y0342465D01*
X0135548Y0352465D02*
X0125548Y0362465D01*
X0125548Y0367465D01*
X0126798Y0367465D01*
X0116798Y0367465D02*
X0106798Y0367465D01*
X0106798Y0307465D01*
X0099298Y0296215D02*
X0099298Y0371215D01*
X0155548Y0341215D02*
X0164298Y0349965D01*
X0164298Y0357465D01*
X0201798Y0357465D01*
X0206798Y0352465D01*
X0191798Y0347465D02*
X0229298Y0347465D01*
X0234298Y0352465D01*
X0236798Y0352465D01*
X0226798Y0357465D02*
X0214298Y0369965D01*
X0191798Y0347465D02*
X0190548Y0348715D01*
X0176798Y0327465D02*
X0181798Y0322465D01*
X0243048Y0322465D01*
X0250548Y0329965D01*
X0254298Y0344965D02*
X0364298Y0344965D01*
X0244298Y0288715D02*
X0235548Y0279965D01*
X0188048Y0279965D01*
X0130548Y0222465D01*
X0108048Y0222465D01*
X0080548Y0194965D01*
X0051798Y0194965D01*
X0051798Y0194158D01*
X0051798Y0174158D02*
X0051798Y0173715D01*
X0059298Y0166215D01*
X0059298Y0074965D01*
X0048048Y0074965D01*
X0041798Y0068715D01*
X0041798Y0062465D01*
X0043048Y0062465D01*
X0045548Y0059965D01*
X0045548Y0057465D01*
X0046548Y0056606D01*
X0045548Y0066215D02*
X0054298Y0066215D01*
X0083048Y0094965D01*
X0078048Y0198715D02*
X0104298Y0224965D01*
X0129298Y0224965D01*
X0223048Y0318715D01*
X0206798Y0317465D02*
X0199298Y0309965D01*
X0158048Y0309965D01*
X0149298Y0301215D01*
X0139298Y0297465D02*
X0139298Y0279965D01*
X0048048Y0279965D01*
X0043048Y0274965D01*
X0041798Y0274965D01*
X0041798Y0274158D01*
X0123048Y0288715D02*
X0130548Y0288715D01*
X0131798Y0287465D01*
X0139298Y0297465D02*
X0163048Y0321215D01*
X0185548Y0217465D02*
X0183048Y0214965D01*
X0129298Y0214965D01*
X0126798Y0217465D01*
X0174298Y0211215D02*
X0248048Y0211215D01*
X0281798Y0177465D01*
X0281798Y0217465D02*
X0185548Y0217465D01*
X0043048Y0358715D02*
X0041798Y0357465D01*
D22*
X0099298Y0371215D03*
X0135548Y0352465D03*
X0155548Y0341215D03*
X0163048Y0321215D03*
X0149298Y0301215D03*
X0099298Y0296215D03*
X0190548Y0348715D03*
X0223048Y0318715D03*
X0250548Y0329965D03*
X0226798Y0357465D03*
X0244298Y0288715D03*
X0174298Y0211215D03*
X0078048Y0198715D03*
X0083048Y0094965D03*
X0045548Y0066215D03*
X0364298Y0344965D03*
D23*
X0361798Y0297465D02*
X0361798Y0262465D01*
X0411798Y0212465D01*
X0411798Y0157465D01*
X0434358Y0134905D01*
X0434358Y0113803D01*
X0434358Y0097465D01*
X0411798Y0077465D01*
X0236798Y0077465D01*
X0224358Y0089905D01*
X0224358Y0113803D01*
X0169239Y0113803D02*
X0169239Y0144905D01*
X0186798Y0162465D01*
X0176798Y0232465D02*
X0206798Y0262465D01*
X0301798Y0262465D01*
X0331798Y0232465D01*
X0301798Y0262465D02*
X0301798Y0297465D01*
X0301798Y0317465D01*
X0311798Y0327465D01*
X0421798Y0327465D01*
X0491798Y0257465D01*
X0491798Y0177465D01*
X0471798Y0157465D01*
X0379239Y0113803D02*
X0360460Y0113803D01*
X0341798Y0132465D01*
X0341798Y0162465D01*
D24*
X0147452Y0337100D03*
X0067793Y0354098D03*
X0094457Y0414759D03*
D25*
X0001800Y0487418D02*
X0001800Y0001800D01*
X0537413Y0001800D01*
X0537413Y0487418D01*
X0001800Y0487418D01*
X0001800Y0486033D02*
X0537413Y0486033D01*
X0537413Y0484434D02*
X0001800Y0484434D01*
X0001800Y0482836D02*
X0537413Y0482836D01*
X0537413Y0481237D02*
X0001800Y0481237D01*
X0001800Y0479639D02*
X0537413Y0479639D01*
X0537413Y0478040D02*
X0001800Y0478040D01*
X0001800Y0476442D02*
X0537413Y0476442D01*
X0537413Y0474843D02*
X0001800Y0474843D01*
X0001800Y0473245D02*
X0537413Y0473245D01*
X0537413Y0471646D02*
X0001800Y0471646D01*
X0001800Y0470048D02*
X0024561Y0470048D01*
X0023468Y0469568D02*
X0020319Y0466670D01*
X0018282Y0462906D01*
X0017578Y0458685D01*
X0018282Y0454464D01*
X0020319Y0450700D01*
X0023468Y0447802D01*
X0027387Y0446083D01*
X0031652Y0445730D01*
X0035800Y0446780D01*
X0039383Y0449121D01*
X0042011Y0452498D01*
X0043401Y0456545D01*
X0043401Y0460825D01*
X0042011Y0464872D01*
X0039383Y0468250D01*
X0035800Y0470590D01*
X0031652Y0471641D01*
X0027387Y0471287D01*
X0023468Y0469568D01*
X0022252Y0468449D02*
X0001800Y0468449D01*
X0001800Y0466851D02*
X0020516Y0466851D01*
X0019552Y0465252D02*
X0001800Y0465252D01*
X0001800Y0463654D02*
X0018687Y0463654D01*
X0018140Y0462055D02*
X0001800Y0462055D01*
X0001800Y0460457D02*
X0017874Y0460457D01*
X0017607Y0458858D02*
X0001800Y0458858D01*
X0001800Y0457260D02*
X0017816Y0457260D01*
X0018083Y0455661D02*
X0001800Y0455661D01*
X0001800Y0454063D02*
X0018500Y0454063D01*
X0019365Y0452464D02*
X0001800Y0452464D01*
X0001800Y0450866D02*
X0020230Y0450866D01*
X0021876Y0449267D02*
X0001800Y0449267D01*
X0001800Y0447669D02*
X0023772Y0447669D01*
X0027541Y0446070D02*
X0001800Y0446070D01*
X0001800Y0444472D02*
X0139821Y0444472D01*
X0141420Y0446070D02*
X0032997Y0446070D01*
X0037160Y0447669D02*
X0143018Y0447669D01*
X0144617Y0449267D02*
X0039497Y0449267D01*
X0040741Y0450866D02*
X0146215Y0450866D01*
X0147814Y0452464D02*
X0041985Y0452464D01*
X0042548Y0454063D02*
X0074300Y0454063D01*
X0074979Y0453383D02*
X0078604Y0453383D01*
X0081166Y0455946D01*
X0081166Y0459570D01*
X0081107Y0459629D01*
X0084043Y0462565D01*
X0138304Y0462565D01*
X0142743Y0458126D01*
X0142743Y0456279D01*
X0145306Y0453716D01*
X0148930Y0453716D01*
X0151493Y0456279D01*
X0151493Y0459903D01*
X0148930Y0462466D01*
X0145306Y0462466D01*
X0145248Y0462409D01*
X0145093Y0462565D01*
X0209554Y0462565D01*
X0213069Y0459050D01*
X0213069Y0455946D01*
X0215632Y0453383D01*
X0219256Y0453383D01*
X0221819Y0455946D01*
X0221819Y0459570D01*
X0219256Y0462133D01*
X0216774Y0462133D01*
X0212583Y0466324D01*
X0211908Y0466999D01*
X0211026Y0467365D01*
X0082571Y0467365D01*
X0081689Y0466999D01*
X0081014Y0466324D01*
X0076823Y0462133D01*
X0074979Y0462133D01*
X0072417Y0459570D01*
X0072417Y0455946D01*
X0074979Y0453383D01*
X0072701Y0455661D02*
X0043097Y0455661D01*
X0043401Y0457260D02*
X0072417Y0457260D01*
X0072417Y0458858D02*
X0043401Y0458858D01*
X0043401Y0460457D02*
X0073303Y0460457D01*
X0074902Y0462055D02*
X0042978Y0462055D01*
X0042430Y0463654D02*
X0078344Y0463654D01*
X0079942Y0465252D02*
X0041716Y0465252D01*
X0040471Y0466851D02*
X0081541Y0466851D01*
X0083533Y0462055D02*
X0084902Y0462055D01*
X0084979Y0462133D02*
X0082417Y0459570D01*
X0082417Y0455946D01*
X0084979Y0453383D01*
X0088604Y0453383D01*
X0091166Y0455946D01*
X0091166Y0459570D01*
X0088604Y0462133D01*
X0084979Y0462133D01*
X0083303Y0460457D02*
X0081935Y0460457D01*
X0082417Y0458858D02*
X0081166Y0458858D01*
X0081166Y0457260D02*
X0082417Y0457260D01*
X0082701Y0455661D02*
X0080882Y0455661D01*
X0079283Y0454063D02*
X0084300Y0454063D01*
X0089283Y0454063D02*
X0094300Y0454063D01*
X0094979Y0453383D02*
X0098604Y0453383D01*
X0101166Y0455946D01*
X0101166Y0459570D01*
X0098604Y0462133D01*
X0094979Y0462133D01*
X0092417Y0459570D01*
X0092417Y0455946D01*
X0094979Y0453383D01*
X0092701Y0455661D02*
X0090882Y0455661D01*
X0091166Y0457260D02*
X0092417Y0457260D01*
X0092417Y0458858D02*
X0091166Y0458858D01*
X0090280Y0460457D02*
X0093303Y0460457D01*
X0094902Y0462055D02*
X0088681Y0462055D01*
X0098681Y0462055D02*
X0138814Y0462055D01*
X0140412Y0460457D02*
X0100280Y0460457D01*
X0101166Y0458858D02*
X0142011Y0458858D01*
X0142743Y0457260D02*
X0101166Y0457260D01*
X0100882Y0455661D02*
X0143361Y0455661D01*
X0144959Y0454063D02*
X0099283Y0454063D01*
X0123836Y0428486D02*
X0001800Y0428486D01*
X0001800Y0426888D02*
X0122238Y0426888D01*
X0120639Y0425289D02*
X0001800Y0425289D01*
X0001800Y0423691D02*
X0119041Y0423691D01*
X0117442Y0422092D02*
X0001800Y0422092D01*
X0001800Y0420494D02*
X0115844Y0420494D01*
X0114245Y0418895D02*
X0001800Y0418895D01*
X0001800Y0417297D02*
X0091648Y0417297D01*
X0091252Y0416901D02*
X0090676Y0415511D01*
X0090676Y0414007D01*
X0091252Y0412617D01*
X0092316Y0411553D01*
X0093705Y0410978D01*
X0095209Y0410978D01*
X0096599Y0411553D01*
X0097205Y0412159D01*
X0114302Y0412159D01*
X0115258Y0412555D01*
X0156420Y0453716D01*
X0158930Y0453716D01*
X0161493Y0456279D01*
X0161493Y0459903D01*
X0158930Y0462466D01*
X0155306Y0462466D01*
X0152743Y0459903D01*
X0152743Y0457393D01*
X0112708Y0417359D01*
X0097205Y0417359D01*
X0096599Y0417964D01*
X0095209Y0418540D01*
X0093705Y0418540D01*
X0092316Y0417964D01*
X0091252Y0416901D01*
X0090754Y0415698D02*
X0001800Y0415698D01*
X0001800Y0414100D02*
X0090676Y0414100D01*
X0091367Y0412501D02*
X0001800Y0412501D01*
X0001800Y0410903D02*
X0537413Y0410903D01*
X0537413Y0412501D02*
X0115130Y0412501D01*
X0116803Y0414100D02*
X0537413Y0414100D01*
X0537413Y0415698D02*
X0118402Y0415698D01*
X0120000Y0417297D02*
X0537413Y0417297D01*
X0537413Y0418895D02*
X0121599Y0418895D01*
X0123197Y0420494D02*
X0537413Y0420494D01*
X0537413Y0422092D02*
X0124796Y0422092D01*
X0126394Y0423691D02*
X0537413Y0423691D01*
X0537413Y0425289D02*
X0127993Y0425289D01*
X0129591Y0426888D02*
X0537413Y0426888D01*
X0537413Y0428486D02*
X0131190Y0428486D01*
X0132789Y0430085D02*
X0537413Y0430085D01*
X0537413Y0431684D02*
X0134387Y0431684D01*
X0135986Y0433282D02*
X0537413Y0433282D01*
X0537413Y0434881D02*
X0137584Y0434881D01*
X0139183Y0436479D02*
X0537413Y0436479D01*
X0537413Y0438078D02*
X0140781Y0438078D01*
X0142380Y0439676D02*
X0537413Y0439676D01*
X0537413Y0441275D02*
X0143978Y0441275D01*
X0145577Y0442873D02*
X0537413Y0442873D01*
X0537413Y0444472D02*
X0147175Y0444472D01*
X0148774Y0446070D02*
X0499982Y0446070D01*
X0499828Y0446083D02*
X0504093Y0445730D01*
X0508241Y0446780D01*
X0511824Y0449121D01*
X0514452Y0452498D01*
X0515842Y0456545D01*
X0515842Y0460825D01*
X0514452Y0464872D01*
X0511824Y0468250D01*
X0508241Y0470590D01*
X0504093Y0471641D01*
X0499828Y0471287D01*
X0495909Y0469568D01*
X0492760Y0466670D01*
X0490723Y0462906D01*
X0490019Y0458685D01*
X0490723Y0454464D01*
X0492760Y0450700D01*
X0495909Y0447802D01*
X0499828Y0446083D01*
X0496213Y0447669D02*
X0150372Y0447669D01*
X0151971Y0449267D02*
X0494317Y0449267D01*
X0492671Y0450866D02*
X0153569Y0450866D01*
X0155168Y0452464D02*
X0491806Y0452464D01*
X0490941Y0454063D02*
X0239936Y0454063D01*
X0239256Y0453383D02*
X0241819Y0455946D01*
X0241819Y0459570D01*
X0239256Y0462133D01*
X0235632Y0462133D01*
X0233069Y0459570D01*
X0233069Y0455946D01*
X0235632Y0453383D01*
X0239256Y0453383D01*
X0241534Y0455661D02*
X0490524Y0455661D01*
X0490257Y0457260D02*
X0241819Y0457260D01*
X0241819Y0458858D02*
X0490048Y0458858D01*
X0490315Y0460457D02*
X0240932Y0460457D01*
X0239334Y0462055D02*
X0490581Y0462055D01*
X0491128Y0463654D02*
X0215253Y0463654D01*
X0213655Y0465252D02*
X0491993Y0465252D01*
X0492957Y0466851D02*
X0212056Y0466851D01*
X0210064Y0462055D02*
X0169341Y0462055D01*
X0168930Y0462466D02*
X0165306Y0462466D01*
X0162743Y0459903D01*
X0162743Y0456279D01*
X0165306Y0453716D01*
X0168930Y0453716D01*
X0171493Y0456279D01*
X0171493Y0459903D01*
X0168930Y0462466D01*
X0170939Y0460457D02*
X0211662Y0460457D01*
X0213069Y0458858D02*
X0171493Y0458858D01*
X0171493Y0457260D02*
X0213069Y0457260D01*
X0213354Y0455661D02*
X0170875Y0455661D01*
X0169276Y0454063D02*
X0214952Y0454063D01*
X0219936Y0454063D02*
X0224952Y0454063D01*
X0225632Y0453383D02*
X0229256Y0453383D01*
X0231819Y0455946D01*
X0231819Y0459570D01*
X0229256Y0462133D01*
X0225632Y0462133D01*
X0223069Y0459570D01*
X0223069Y0455946D01*
X0225632Y0453383D01*
X0223354Y0455661D02*
X0221534Y0455661D01*
X0221819Y0457260D02*
X0223069Y0457260D01*
X0223069Y0458858D02*
X0221819Y0458858D01*
X0220932Y0460457D02*
X0223956Y0460457D01*
X0225555Y0462055D02*
X0219334Y0462055D01*
X0229334Y0462055D02*
X0235555Y0462055D01*
X0233956Y0460457D02*
X0230932Y0460457D01*
X0231819Y0458858D02*
X0233069Y0458858D01*
X0233069Y0457260D02*
X0231819Y0457260D01*
X0231534Y0455661D02*
X0233354Y0455661D01*
X0234952Y0454063D02*
X0229936Y0454063D01*
X0229256Y0392133D02*
X0225632Y0392133D01*
X0223069Y0389570D01*
X0223069Y0385946D01*
X0225632Y0383383D01*
X0229256Y0383383D01*
X0231819Y0385946D01*
X0231819Y0389570D01*
X0229256Y0392133D01*
X0229668Y0391721D02*
X0235220Y0391721D01*
X0235632Y0392133D02*
X0233069Y0389570D01*
X0233069Y0385946D01*
X0235632Y0383383D01*
X0239256Y0383383D01*
X0241819Y0385946D01*
X0241819Y0389570D01*
X0239256Y0392133D01*
X0235632Y0392133D01*
X0233622Y0390122D02*
X0231267Y0390122D01*
X0231819Y0388524D02*
X0233069Y0388524D01*
X0233069Y0386925D02*
X0231819Y0386925D01*
X0231200Y0385327D02*
X0233688Y0385327D01*
X0235287Y0383728D02*
X0229601Y0383728D01*
X0225287Y0383728D02*
X0219601Y0383728D01*
X0219256Y0383383D02*
X0221819Y0385946D01*
X0221819Y0389570D01*
X0219256Y0392133D01*
X0215632Y0392133D01*
X0213069Y0389570D01*
X0213069Y0387130D01*
X0209554Y0383615D01*
X0154043Y0383615D01*
X0151435Y0386222D01*
X0151493Y0386279D01*
X0151493Y0389903D01*
X0148930Y0392466D01*
X0146420Y0392466D01*
X0140255Y0398631D01*
X0139299Y0399027D01*
X0085274Y0399027D01*
X0084319Y0398631D01*
X0083587Y0397900D01*
X0077820Y0392133D01*
X0074979Y0392133D01*
X0073208Y0390361D01*
X0045612Y0390361D01*
X0044656Y0389966D01*
X0043925Y0389234D01*
X0023593Y0368903D01*
X0023198Y0367947D01*
X0023198Y0160600D01*
X0023593Y0159645D01*
X0024325Y0158913D01*
X0037654Y0145584D01*
X0037424Y0145028D01*
X0037424Y0143288D01*
X0038090Y0141680D01*
X0039320Y0140449D01*
X0040928Y0139783D01*
X0042669Y0139783D01*
X0044277Y0140449D01*
X0045507Y0141680D01*
X0046173Y0143288D01*
X0046173Y0145028D01*
X0045507Y0146636D01*
X0044277Y0147867D01*
X0042669Y0148533D01*
X0042059Y0148533D01*
X0040725Y0149867D01*
X0040928Y0149783D01*
X0042669Y0149783D01*
X0044277Y0150449D01*
X0045507Y0151680D01*
X0046173Y0153288D01*
X0046173Y0155028D01*
X0045507Y0156636D01*
X0044277Y0157867D01*
X0042669Y0158533D01*
X0040928Y0158533D01*
X0039320Y0157867D01*
X0038090Y0156636D01*
X0037424Y0155028D01*
X0037424Y0153288D01*
X0037508Y0153084D01*
X0028398Y0162194D01*
X0028398Y0348886D01*
X0028514Y0348605D01*
X0029189Y0347930D01*
X0030071Y0347565D01*
X0054776Y0347565D01*
X0055658Y0347930D01*
X0066543Y0358815D01*
X0068304Y0358815D01*
X0069731Y0357388D01*
X0068545Y0357879D01*
X0067041Y0357879D01*
X0065652Y0357304D01*
X0064588Y0356240D01*
X0064012Y0354850D01*
X0064012Y0353994D01*
X0054051Y0344033D01*
X0047945Y0344033D01*
X0046989Y0343637D01*
X0029658Y0326305D01*
X0028926Y0325574D01*
X0028530Y0324618D01*
X0028530Y0184309D01*
X0028926Y0183353D01*
X0029658Y0182622D01*
X0037424Y0174856D01*
X0037424Y0173288D01*
X0038090Y0171680D01*
X0039320Y0170449D01*
X0040928Y0169783D01*
X0042669Y0169783D01*
X0044277Y0170449D01*
X0045507Y0171680D01*
X0046173Y0173288D01*
X0046173Y0175028D01*
X0045507Y0176636D01*
X0044277Y0177867D01*
X0042669Y0178533D01*
X0041101Y0178533D01*
X0033730Y0185903D01*
X0033730Y0323024D01*
X0049539Y0338833D01*
X0055645Y0338833D01*
X0056601Y0339229D01*
X0057332Y0339960D01*
X0067689Y0350317D01*
X0068545Y0350317D01*
X0069935Y0350893D01*
X0070999Y0351956D01*
X0071574Y0353346D01*
X0071574Y0354850D01*
X0071084Y0356035D01*
X0084398Y0342720D01*
X0084398Y0311206D01*
X0084320Y0311173D01*
X0083090Y0309943D01*
X0082424Y0308335D01*
X0082424Y0306594D01*
X0083090Y0304986D01*
X0084320Y0303756D01*
X0085928Y0303090D01*
X0087669Y0303090D01*
X0087747Y0303122D01*
X0093148Y0297720D01*
X0093148Y0288237D01*
X0093514Y0287355D01*
X0094189Y0286680D01*
X0095071Y0286315D01*
X0127540Y0286315D01*
X0128090Y0284986D01*
X0129320Y0283756D01*
X0130928Y0283090D01*
X0132669Y0283090D01*
X0134277Y0283756D01*
X0135507Y0284986D01*
X0136173Y0286594D01*
X0136173Y0288335D01*
X0135507Y0289943D01*
X0134277Y0291173D01*
X0132669Y0291839D01*
X0130928Y0291839D01*
X0129320Y0291173D01*
X0129262Y0291115D01*
X0128843Y0291115D01*
X0159248Y0321521D01*
X0159248Y0320809D01*
X0137939Y0299499D01*
X0137264Y0298824D01*
X0136898Y0297942D01*
X0136898Y0282365D01*
X0055791Y0282365D01*
X0056173Y0283288D01*
X0056173Y0285028D01*
X0055507Y0286636D01*
X0054277Y0287867D01*
X0052669Y0288533D01*
X0050928Y0288533D01*
X0049320Y0287867D01*
X0048090Y0286636D01*
X0047424Y0285028D01*
X0047424Y0283288D01*
X0047806Y0282365D01*
X0047571Y0282365D01*
X0046689Y0281999D01*
X0043060Y0278370D01*
X0042669Y0278533D01*
X0040928Y0278533D01*
X0039320Y0277867D01*
X0038090Y0276636D01*
X0037424Y0275028D01*
X0037424Y0273288D01*
X0038090Y0271680D01*
X0039320Y0270449D01*
X0040928Y0269783D01*
X0042669Y0269783D01*
X0044277Y0270449D01*
X0045507Y0271680D01*
X0046173Y0273288D01*
X0046173Y0274695D01*
X0048073Y0276595D01*
X0047424Y0275028D01*
X0047424Y0273288D01*
X0048090Y0271680D01*
X0049320Y0270449D01*
X0050928Y0269783D01*
X0052669Y0269783D01*
X0054277Y0270449D01*
X0055507Y0271680D01*
X0056173Y0273288D01*
X0056173Y0275028D01*
X0055507Y0276636D01*
X0054579Y0277565D01*
X0139776Y0277565D01*
X0140658Y0277930D01*
X0141333Y0278605D01*
X0141698Y0279487D01*
X0141698Y0296470D01*
X0145554Y0300326D01*
X0146077Y0299062D01*
X0147146Y0297993D01*
X0148543Y0297415D01*
X0150054Y0297415D01*
X0151451Y0297993D01*
X0152520Y0299062D01*
X0153098Y0300459D01*
X0153098Y0301620D01*
X0159043Y0307565D01*
X0199776Y0307565D01*
X0200658Y0307930D01*
X0205831Y0313103D01*
X0205923Y0313065D01*
X0212874Y0313065D01*
X0214491Y0313734D01*
X0215729Y0314972D01*
X0216398Y0316589D01*
X0216398Y0318340D01*
X0215729Y0319957D01*
X0215621Y0320065D01*
X0219495Y0320065D01*
X0219248Y0319470D01*
X0219248Y0318309D01*
X0128304Y0227365D01*
X0103821Y0227365D01*
X0102939Y0226999D01*
X0078454Y0202515D01*
X0077293Y0202515D01*
X0075896Y0201936D01*
X0074827Y0200867D01*
X0074248Y0199470D01*
X0074248Y0197959D01*
X0074495Y0197365D01*
X0054779Y0197365D01*
X0054277Y0197867D01*
X0052669Y0198533D01*
X0050928Y0198533D01*
X0049320Y0197867D01*
X0048090Y0196636D01*
X0047424Y0195028D01*
X0047424Y0193288D01*
X0048090Y0191680D01*
X0049320Y0190449D01*
X0050928Y0189783D01*
X0052669Y0189783D01*
X0054277Y0190449D01*
X0055507Y0191680D01*
X0055874Y0192565D01*
X0081026Y0192565D01*
X0081908Y0192930D01*
X0082583Y0193605D01*
X0109043Y0220065D01*
X0122436Y0220065D01*
X0121773Y0218464D01*
X0121773Y0216465D01*
X0122539Y0214618D01*
X0123952Y0213205D01*
X0125799Y0212440D01*
X0127798Y0212440D01*
X0128460Y0212714D01*
X0128821Y0212565D01*
X0170745Y0212565D01*
X0170498Y0211970D01*
X0170498Y0210459D01*
X0171077Y0209062D01*
X0172146Y0207993D01*
X0173543Y0207415D01*
X0175054Y0207415D01*
X0176451Y0207993D01*
X0177273Y0208815D01*
X0247054Y0208815D01*
X0276958Y0178911D01*
X0276773Y0178464D01*
X0276773Y0176465D01*
X0277539Y0174618D01*
X0278952Y0173205D01*
X0280799Y0172440D01*
X0282798Y0172440D01*
X0284645Y0173205D01*
X0286058Y0174618D01*
X0286823Y0176465D01*
X0286823Y0178464D01*
X0286058Y0180311D01*
X0284645Y0181725D01*
X0282798Y0182490D01*
X0280799Y0182490D01*
X0280353Y0182305D01*
X0250083Y0212574D01*
X0249408Y0213249D01*
X0248526Y0213615D01*
X0185093Y0213615D01*
X0186543Y0215065D01*
X0277354Y0215065D01*
X0277539Y0214618D01*
X0278952Y0213205D01*
X0280799Y0212440D01*
X0282798Y0212440D01*
X0284645Y0213205D01*
X0286058Y0214618D01*
X0286823Y0216465D01*
X0286823Y0218464D01*
X0286058Y0220311D01*
X0284645Y0221725D01*
X0282798Y0222490D01*
X0280799Y0222490D01*
X0278952Y0221725D01*
X0277539Y0220311D01*
X0277354Y0219865D01*
X0185071Y0219865D01*
X0184189Y0219499D01*
X0182054Y0217365D01*
X0131823Y0217365D01*
X0131823Y0218464D01*
X0131141Y0220112D01*
X0131908Y0220430D01*
X0132583Y0221105D01*
X0189043Y0277565D01*
X0236026Y0277565D01*
X0236908Y0277930D01*
X0237583Y0278605D01*
X0243893Y0284915D01*
X0245054Y0284915D01*
X0246451Y0285493D01*
X0247520Y0286562D01*
X0248098Y0287959D01*
X0248098Y0289470D01*
X0247520Y0290867D01*
X0246451Y0291936D01*
X0245054Y0292515D01*
X0243543Y0292515D01*
X0242146Y0291936D01*
X0241077Y0290867D01*
X0240498Y0289470D01*
X0240498Y0288309D01*
X0234554Y0282365D01*
X0190093Y0282365D01*
X0222643Y0314915D01*
X0223804Y0314915D01*
X0225201Y0315493D01*
X0226270Y0316562D01*
X0226848Y0317959D01*
X0226848Y0319470D01*
X0226602Y0320065D01*
X0243526Y0320065D01*
X0244408Y0320430D01*
X0245083Y0321105D01*
X0250143Y0326165D01*
X0251304Y0326165D01*
X0252701Y0326743D01*
X0253770Y0327812D01*
X0254348Y0329209D01*
X0254348Y0330720D01*
X0253770Y0332117D01*
X0252701Y0333186D01*
X0251304Y0333765D01*
X0249793Y0333765D01*
X0248396Y0333186D01*
X0247327Y0332117D01*
X0246748Y0330720D01*
X0246748Y0329559D01*
X0242054Y0324865D01*
X0215621Y0324865D01*
X0215729Y0324972D01*
X0215767Y0325065D01*
X0237276Y0325065D01*
X0238158Y0325430D01*
X0238833Y0326105D01*
X0255293Y0342565D01*
X0361324Y0342565D01*
X0361625Y0342265D01*
X0309850Y0342265D01*
X0306086Y0341256D01*
X0302711Y0339308D01*
X0299956Y0336552D01*
X0289956Y0326552D01*
X0288007Y0323177D01*
X0286998Y0319413D01*
X0286998Y0277265D01*
X0204850Y0277265D01*
X0201086Y0276256D01*
X0197711Y0274308D01*
X0164956Y0241552D01*
X0163007Y0238177D01*
X0161998Y0234413D01*
X0161998Y0230516D01*
X0163007Y0226752D01*
X0164956Y0223377D01*
X0167711Y0220622D01*
X0171086Y0218673D01*
X0174850Y0217665D01*
X0178747Y0217665D01*
X0182511Y0218673D01*
X0185886Y0220622D01*
X0212929Y0247665D01*
X0295668Y0247665D01*
X0322711Y0220622D01*
X0326086Y0218673D01*
X0329850Y0217665D01*
X0333747Y0217665D01*
X0337511Y0218673D01*
X0340886Y0220622D01*
X0343641Y0223377D01*
X0345590Y0226752D01*
X0346598Y0230516D01*
X0346598Y0234413D01*
X0345590Y0238177D01*
X0343641Y0241552D01*
X0316598Y0268595D01*
X0316598Y0311334D01*
X0317929Y0312665D01*
X0415668Y0312665D01*
X0476998Y0251334D01*
X0476998Y0183595D01*
X0459956Y0166552D01*
X0458007Y0163177D01*
X0456998Y0159413D01*
X0456998Y0155516D01*
X0458007Y0151752D01*
X0459956Y0148377D01*
X0462711Y0145622D01*
X0466086Y0143673D01*
X0469850Y0142665D01*
X0473747Y0142665D01*
X0477511Y0143673D01*
X0480886Y0145622D01*
X0503641Y0168377D01*
X0505590Y0171752D01*
X0506598Y0175516D01*
X0506598Y0259413D01*
X0505590Y0263177D01*
X0503641Y0266552D01*
X0500886Y0269308D01*
X0430886Y0339308D01*
X0427511Y0341256D01*
X0423747Y0342265D01*
X0366972Y0342265D01*
X0367520Y0342812D01*
X0368098Y0344209D01*
X0368098Y0345720D01*
X0367520Y0347117D01*
X0366451Y0348186D01*
X0365054Y0348765D01*
X0363543Y0348765D01*
X0362146Y0348186D01*
X0361324Y0347365D01*
X0256343Y0347365D01*
X0257418Y0348440D01*
X0258323Y0348065D01*
X0265274Y0348065D01*
X0266891Y0348734D01*
X0268129Y0349972D01*
X0268798Y0351589D01*
X0268798Y0353340D01*
X0268129Y0354957D01*
X0266891Y0356195D01*
X0265274Y0356865D01*
X0258323Y0356865D01*
X0256706Y0356195D01*
X0255468Y0354957D01*
X0254798Y0353340D01*
X0254798Y0352609D01*
X0249554Y0347365D01*
X0232593Y0347365D01*
X0233302Y0348074D01*
X0233323Y0348065D01*
X0240274Y0348065D01*
X0241891Y0348734D01*
X0243129Y0349972D01*
X0243798Y0351589D01*
X0243798Y0353340D01*
X0243129Y0354957D01*
X0241891Y0356195D01*
X0240274Y0356865D01*
X0233323Y0356865D01*
X0231706Y0356195D01*
X0230468Y0354957D01*
X0229798Y0353340D01*
X0229798Y0351589D01*
X0229866Y0351426D01*
X0228304Y0349865D01*
X0215621Y0349865D01*
X0215729Y0349972D01*
X0216398Y0351589D01*
X0216398Y0353340D01*
X0215729Y0354957D01*
X0214491Y0356195D01*
X0212874Y0356865D01*
X0205923Y0356865D01*
X0205831Y0356826D01*
X0203158Y0359499D01*
X0202276Y0359865D01*
X0180421Y0359865D01*
X0180529Y0359972D01*
X0181198Y0361589D01*
X0181198Y0363340D01*
X0181160Y0363432D01*
X0185293Y0367565D01*
X0213304Y0367565D01*
X0222998Y0357870D01*
X0222998Y0356709D01*
X0223577Y0355312D01*
X0224646Y0354243D01*
X0226043Y0353665D01*
X0227554Y0353665D01*
X0228951Y0354243D01*
X0230020Y0355312D01*
X0230598Y0356709D01*
X0230598Y0358220D01*
X0230020Y0359617D01*
X0228951Y0360686D01*
X0227554Y0361265D01*
X0226393Y0361265D01*
X0216333Y0371324D01*
X0215658Y0371999D01*
X0214776Y0372365D01*
X0183821Y0372365D01*
X0182939Y0371999D01*
X0177766Y0366826D01*
X0177674Y0366865D01*
X0170723Y0366865D01*
X0169106Y0366195D01*
X0167868Y0364957D01*
X0167198Y0363340D01*
X0167198Y0361589D01*
X0167868Y0359972D01*
X0167976Y0359865D01*
X0163821Y0359865D01*
X0162939Y0359499D01*
X0162264Y0358824D01*
X0161898Y0357942D01*
X0161898Y0350959D01*
X0155954Y0345015D01*
X0154793Y0345015D01*
X0153396Y0344436D01*
X0152327Y0343367D01*
X0151748Y0341970D01*
X0151748Y0340459D01*
X0152327Y0339062D01*
X0153396Y0337993D01*
X0154793Y0337415D01*
X0156304Y0337415D01*
X0157701Y0337993D01*
X0158770Y0339062D01*
X0159348Y0340459D01*
X0159348Y0341620D01*
X0165658Y0347930D01*
X0166333Y0348605D01*
X0166698Y0349487D01*
X0166698Y0355065D01*
X0167976Y0355065D01*
X0167868Y0354957D01*
X0167198Y0353340D01*
X0167198Y0351589D01*
X0167868Y0349972D01*
X0169106Y0348734D01*
X0170723Y0348065D01*
X0177674Y0348065D01*
X0177766Y0348103D01*
X0182939Y0342930D01*
X0183821Y0342565D01*
X0248504Y0342565D01*
X0235804Y0329865D01*
X0215767Y0329865D01*
X0215729Y0329957D01*
X0214491Y0331195D01*
X0212874Y0331865D01*
X0205923Y0331865D01*
X0205831Y0331826D01*
X0201333Y0336324D01*
X0200658Y0336999D01*
X0199776Y0337365D01*
X0168821Y0337365D01*
X0167939Y0336999D01*
X0122054Y0291115D01*
X0097948Y0291115D01*
X0097948Y0292661D01*
X0098543Y0292415D01*
X0100054Y0292415D01*
X0101451Y0292993D01*
X0102520Y0294062D01*
X0103098Y0295459D01*
X0103098Y0296970D01*
X0102520Y0298367D01*
X0101698Y0299189D01*
X0101698Y0368241D01*
X0102520Y0369062D01*
X0103098Y0370459D01*
X0103098Y0371970D01*
X0102520Y0373367D01*
X0101451Y0374436D01*
X0100054Y0375015D01*
X0098543Y0375015D01*
X0097146Y0374436D01*
X0096077Y0373367D01*
X0095498Y0371970D01*
X0095498Y0370459D01*
X0096077Y0369062D01*
X0096898Y0368241D01*
X0096898Y0300759D01*
X0091141Y0306516D01*
X0091173Y0306594D01*
X0091173Y0308335D01*
X0090507Y0309943D01*
X0089277Y0311173D01*
X0089198Y0311206D01*
X0089198Y0344192D01*
X0088833Y0345074D01*
X0088158Y0345749D01*
X0070658Y0363249D01*
X0069776Y0363615D01*
X0065071Y0363615D01*
X0064189Y0363249D01*
X0063514Y0362574D01*
X0053304Y0352365D01*
X0032948Y0352365D01*
X0032948Y0355220D01*
X0034115Y0356387D01*
X0034787Y0354763D01*
X0036129Y0353422D01*
X0037881Y0352696D01*
X0045716Y0352696D01*
X0047468Y0353422D01*
X0048810Y0354763D01*
X0049452Y0356315D01*
X0051026Y0356315D01*
X0051908Y0356680D01*
X0070293Y0375065D01*
X0128304Y0375065D01*
X0132407Y0370962D01*
X0132398Y0370940D01*
X0132398Y0363989D01*
X0133068Y0362372D01*
X0134306Y0361134D01*
X0135923Y0360465D01*
X0137674Y0360465D01*
X0139291Y0361134D01*
X0140529Y0362372D01*
X0141198Y0363989D01*
X0141198Y0365065D01*
X0141898Y0365065D01*
X0141898Y0350959D01*
X0139513Y0348573D01*
X0139291Y0348795D01*
X0137850Y0349392D01*
X0138770Y0350312D01*
X0139348Y0351709D01*
X0139348Y0353220D01*
X0138770Y0354617D01*
X0137701Y0355686D01*
X0136304Y0356265D01*
X0135143Y0356265D01*
X0129782Y0361625D01*
X0130529Y0362372D01*
X0131198Y0363989D01*
X0131198Y0370940D01*
X0132399Y0370940D01*
X0131198Y0370940D02*
X0130529Y0372557D01*
X0129291Y0373795D01*
X0127674Y0374465D01*
X0125923Y0374465D01*
X0124306Y0373795D01*
X0123068Y0372557D01*
X0122398Y0370940D01*
X0122398Y0363989D01*
X0123068Y0362372D01*
X0123148Y0362292D01*
X0123148Y0361987D01*
X0123514Y0361105D01*
X0124189Y0360430D01*
X0131748Y0352870D01*
X0131748Y0351709D01*
X0132327Y0350312D01*
X0133396Y0349243D01*
X0134392Y0348830D01*
X0134306Y0348795D01*
X0133068Y0347557D01*
X0132398Y0345940D01*
X0132398Y0338989D01*
X0133068Y0337372D01*
X0134306Y0336134D01*
X0135923Y0335465D01*
X0137674Y0335465D01*
X0139291Y0336134D01*
X0140529Y0337372D01*
X0141198Y0338989D01*
X0141198Y0343470D01*
X0145658Y0347930D01*
X0146333Y0348605D01*
X0146698Y0349487D01*
X0146698Y0367942D01*
X0146333Y0368824D01*
X0145658Y0369499D01*
X0144776Y0369865D01*
X0141198Y0369865D01*
X0141198Y0370940D01*
X0181880Y0370940D01*
X0180281Y0369342D02*
X0145816Y0369342D01*
X0146698Y0367743D02*
X0178683Y0367743D01*
X0182274Y0364546D02*
X0202898Y0364546D01*
X0203068Y0364957D02*
X0202398Y0363340D01*
X0202398Y0361589D01*
X0203068Y0359972D01*
X0204306Y0358734D01*
X0205923Y0358065D01*
X0212874Y0358065D01*
X0214491Y0358734D01*
X0215729Y0359972D01*
X0216398Y0361589D01*
X0216398Y0363340D01*
X0215729Y0364957D01*
X0214491Y0366195D01*
X0212874Y0366865D01*
X0205923Y0366865D01*
X0204306Y0366195D01*
X0203068Y0364957D01*
X0204256Y0366145D02*
X0183873Y0366145D01*
X0181198Y0362948D02*
X0202398Y0362948D01*
X0202498Y0361349D02*
X0181099Y0361349D01*
X0169056Y0366145D02*
X0146698Y0366145D01*
X0146698Y0364546D02*
X0167698Y0364546D01*
X0167198Y0362948D02*
X0146698Y0362948D01*
X0146698Y0361349D02*
X0167298Y0361349D01*
X0163546Y0359750D02*
X0146698Y0359750D01*
X0146698Y0358152D02*
X0161985Y0358152D01*
X0161898Y0356553D02*
X0146698Y0356553D01*
X0146698Y0354955D02*
X0161898Y0354955D01*
X0161898Y0353356D02*
X0146698Y0353356D01*
X0146698Y0351758D02*
X0161898Y0351758D01*
X0161099Y0350159D02*
X0146698Y0350159D01*
X0146289Y0348561D02*
X0159501Y0348561D01*
X0157902Y0346962D02*
X0144690Y0346962D01*
X0143092Y0345364D02*
X0156304Y0345364D01*
X0152725Y0343765D02*
X0141493Y0343765D01*
X0141198Y0342167D02*
X0151830Y0342167D01*
X0151748Y0340568D02*
X0141198Y0340568D01*
X0141190Y0338970D02*
X0152419Y0338970D01*
X0158678Y0338970D02*
X0244910Y0338970D01*
X0246508Y0340568D02*
X0159348Y0340568D01*
X0159895Y0342167D02*
X0248107Y0342167D01*
X0251698Y0338970D02*
X0302373Y0338970D01*
X0300775Y0337371D02*
X0250099Y0337371D01*
X0248501Y0335773D02*
X0299176Y0335773D01*
X0297578Y0334174D02*
X0246902Y0334174D01*
X0247786Y0332576D02*
X0245304Y0332576D01*
X0246855Y0330977D02*
X0243705Y0330977D01*
X0242107Y0329379D02*
X0246569Y0329379D01*
X0244970Y0327780D02*
X0240508Y0327780D01*
X0238910Y0326182D02*
X0243372Y0326182D01*
X0246963Y0322985D02*
X0287956Y0322985D01*
X0287527Y0321386D02*
X0245364Y0321386D01*
X0248561Y0324583D02*
X0288819Y0324583D01*
X0289742Y0326182D02*
X0251346Y0326182D01*
X0253738Y0327780D02*
X0291184Y0327780D01*
X0292782Y0329379D02*
X0254348Y0329379D01*
X0254242Y0330977D02*
X0294381Y0330977D01*
X0295979Y0332576D02*
X0253311Y0332576D01*
X0243311Y0337371D02*
X0140528Y0337371D01*
X0138418Y0335773D02*
X0166713Y0335773D01*
X0165114Y0334174D02*
X0109198Y0334174D01*
X0109198Y0332576D02*
X0163516Y0332576D01*
X0161917Y0330977D02*
X0109198Y0330977D01*
X0109198Y0329379D02*
X0160319Y0329379D01*
X0158720Y0327780D02*
X0109198Y0327780D01*
X0109198Y0326182D02*
X0157122Y0326182D01*
X0155523Y0324583D02*
X0109198Y0324583D01*
X0109198Y0322985D02*
X0153925Y0322985D01*
X0152326Y0321386D02*
X0109198Y0321386D01*
X0109198Y0319788D02*
X0150727Y0319788D01*
X0149129Y0318189D02*
X0109198Y0318189D01*
X0109198Y0316591D02*
X0147530Y0316591D01*
X0145932Y0314992D02*
X0109198Y0314992D01*
X0109198Y0313394D02*
X0144333Y0313394D01*
X0142735Y0311795D02*
X0109198Y0311795D01*
X0109198Y0311206D02*
X0109198Y0365065D01*
X0112398Y0365065D01*
X0112398Y0363989D01*
X0113068Y0362372D01*
X0114306Y0361134D01*
X0115923Y0360465D01*
X0117674Y0360465D01*
X0119291Y0361134D01*
X0120529Y0362372D01*
X0121198Y0363989D01*
X0121198Y0370940D01*
X0122399Y0370940D01*
X0121198Y0370940D02*
X0120529Y0372557D01*
X0119291Y0373795D01*
X0117674Y0374465D01*
X0115923Y0374465D01*
X0114306Y0373795D01*
X0113068Y0372557D01*
X0112398Y0370940D01*
X0112398Y0369865D01*
X0106321Y0369865D01*
X0105439Y0369499D01*
X0104764Y0368824D01*
X0104398Y0367942D01*
X0104398Y0311206D01*
X0104320Y0311173D01*
X0103090Y0309943D01*
X0102424Y0308335D01*
X0102424Y0306594D01*
X0103090Y0304986D01*
X0104320Y0303756D01*
X0105928Y0303090D01*
X0107669Y0303090D01*
X0109277Y0303756D01*
X0110507Y0304986D01*
X0111173Y0306594D01*
X0111173Y0308335D01*
X0110507Y0309943D01*
X0109277Y0311173D01*
X0109198Y0311206D01*
X0110253Y0310197D02*
X0141136Y0310197D01*
X0139538Y0308598D02*
X0111064Y0308598D01*
X0111173Y0307000D02*
X0137939Y0307000D01*
X0136341Y0305401D02*
X0110679Y0305401D01*
X0109323Y0303803D02*
X0134742Y0303803D01*
X0133144Y0302204D02*
X0101698Y0302204D01*
X0101698Y0300606D02*
X0131545Y0300606D01*
X0129947Y0299007D02*
X0101880Y0299007D01*
X0102917Y0297409D02*
X0128348Y0297409D01*
X0126750Y0295810D02*
X0103098Y0295810D01*
X0102582Y0294212D02*
X0125151Y0294212D01*
X0123553Y0292613D02*
X0100533Y0292613D01*
X0098064Y0292613D02*
X0097948Y0292613D01*
X0093148Y0292613D02*
X0055894Y0292613D01*
X0056173Y0293288D02*
X0055507Y0291680D01*
X0054277Y0290449D01*
X0052669Y0289783D01*
X0050928Y0289783D01*
X0049320Y0290449D01*
X0048090Y0291680D01*
X0047424Y0293288D01*
X0047424Y0295028D01*
X0048090Y0296636D01*
X0049320Y0297867D01*
X0050928Y0298533D01*
X0052669Y0298533D01*
X0054277Y0297867D01*
X0055507Y0296636D01*
X0056173Y0295028D01*
X0056173Y0293288D01*
X0056173Y0294212D02*
X0093148Y0294212D01*
X0093148Y0295810D02*
X0055849Y0295810D01*
X0054735Y0297409D02*
X0093148Y0297409D01*
X0091862Y0299007D02*
X0033730Y0299007D01*
X0033730Y0297409D02*
X0038862Y0297409D01*
X0039320Y0297867D02*
X0038090Y0296636D01*
X0037424Y0295028D01*
X0037424Y0293288D01*
X0038090Y0291680D01*
X0039320Y0290449D01*
X0040928Y0289783D01*
X0042669Y0289783D01*
X0044277Y0290449D01*
X0045507Y0291680D01*
X0046173Y0293288D01*
X0046173Y0295028D01*
X0045507Y0296636D01*
X0044277Y0297867D01*
X0042669Y0298533D01*
X0040928Y0298533D01*
X0039320Y0297867D01*
X0040928Y0299783D02*
X0042669Y0299783D01*
X0044277Y0300449D01*
X0045507Y0301680D01*
X0046173Y0303288D01*
X0046173Y0305028D01*
X0045507Y0306636D01*
X0044277Y0307867D01*
X0042669Y0308533D01*
X0040928Y0308533D01*
X0039320Y0307867D01*
X0038090Y0306636D01*
X0037424Y0305028D01*
X0037424Y0303288D01*
X0038090Y0301680D01*
X0039320Y0300449D01*
X0040928Y0299783D01*
X0039164Y0300606D02*
X0033730Y0300606D01*
X0033730Y0302204D02*
X0037872Y0302204D01*
X0037424Y0303803D02*
X0033730Y0303803D01*
X0033730Y0305401D02*
X0037578Y0305401D01*
X0038453Y0307000D02*
X0033730Y0307000D01*
X0033730Y0308598D02*
X0082533Y0308598D01*
X0082424Y0307000D02*
X0055141Y0307000D01*
X0055135Y0307008D02*
X0054648Y0307495D01*
X0054091Y0307899D01*
X0053478Y0308212D01*
X0052823Y0308425D01*
X0052143Y0308533D01*
X0051799Y0308533D01*
X0051799Y0304158D01*
X0056173Y0304158D01*
X0056173Y0304502D01*
X0056066Y0305182D01*
X0055853Y0305837D01*
X0055540Y0306451D01*
X0055135Y0307008D01*
X0055994Y0305401D02*
X0082918Y0305401D01*
X0084274Y0303803D02*
X0056172Y0303803D01*
X0056173Y0303813D02*
X0056173Y0304158D01*
X0051799Y0304158D01*
X0051799Y0304158D01*
X0051798Y0304158D01*
X0051798Y0304158D01*
X0047424Y0304158D01*
X0047424Y0304502D01*
X0047531Y0305182D01*
X0047744Y0305837D01*
X0048057Y0306451D01*
X0048462Y0307008D01*
X0048948Y0307495D01*
X0049506Y0307899D01*
X0050119Y0308212D01*
X0050774Y0308425D01*
X0051454Y0308533D01*
X0051798Y0308533D01*
X0051798Y0304158D01*
X0047424Y0304158D01*
X0047424Y0303813D01*
X0047531Y0303133D01*
X0047744Y0302478D01*
X0048057Y0301865D01*
X0048462Y0301308D01*
X0048948Y0300821D01*
X0049506Y0300416D01*
X0050119Y0300104D01*
X0050774Y0299891D01*
X0051454Y0299783D01*
X0051798Y0299783D01*
X0051798Y0304158D01*
X0051799Y0304158D01*
X0051799Y0299783D01*
X0052143Y0299783D01*
X0052823Y0299891D01*
X0053478Y0300104D01*
X0054091Y0300416D01*
X0054648Y0300821D01*
X0055135Y0301308D01*
X0055540Y0301865D01*
X0055853Y0302478D01*
X0056066Y0303133D01*
X0056173Y0303813D01*
X0055713Y0302204D02*
X0088665Y0302204D01*
X0090263Y0300606D02*
X0054352Y0300606D01*
X0051799Y0300606D02*
X0051798Y0300606D01*
X0051798Y0302204D02*
X0051799Y0302204D01*
X0051798Y0303803D02*
X0051799Y0303803D01*
X0051798Y0305401D02*
X0051799Y0305401D01*
X0051798Y0307000D02*
X0051799Y0307000D01*
X0052669Y0309783D02*
X0054277Y0310449D01*
X0055507Y0311680D01*
X0056173Y0313288D01*
X0056173Y0315028D01*
X0055507Y0316636D01*
X0054277Y0317867D01*
X0052669Y0318533D01*
X0050928Y0318533D01*
X0049320Y0317867D01*
X0048090Y0316636D01*
X0047424Y0315028D01*
X0047424Y0313288D01*
X0048090Y0311680D01*
X0049320Y0310449D01*
X0050928Y0309783D01*
X0052669Y0309783D01*
X0053667Y0310197D02*
X0083344Y0310197D01*
X0084398Y0311795D02*
X0055555Y0311795D01*
X0056173Y0313394D02*
X0084398Y0313394D01*
X0084398Y0314992D02*
X0056173Y0314992D01*
X0055526Y0316591D02*
X0084398Y0316591D01*
X0084398Y0318189D02*
X0053498Y0318189D01*
X0052680Y0319788D02*
X0084398Y0319788D01*
X0084398Y0321386D02*
X0055214Y0321386D01*
X0055507Y0321680D02*
X0056173Y0323288D01*
X0056173Y0325028D01*
X0055507Y0326636D01*
X0054277Y0327867D01*
X0052669Y0328533D01*
X0050928Y0328533D01*
X0049320Y0327867D01*
X0048090Y0326636D01*
X0047424Y0325028D01*
X0047424Y0323288D01*
X0048090Y0321680D01*
X0049320Y0320449D01*
X0050928Y0319783D01*
X0052669Y0319783D01*
X0054277Y0320449D01*
X0055507Y0321680D01*
X0056048Y0322985D02*
X0084398Y0322985D01*
X0084398Y0324583D02*
X0056173Y0324583D01*
X0055695Y0326182D02*
X0084398Y0326182D01*
X0084398Y0327780D02*
X0054363Y0327780D01*
X0049234Y0327780D02*
X0044363Y0327780D01*
X0044277Y0327867D02*
X0042669Y0328533D01*
X0040928Y0328533D01*
X0039320Y0327867D01*
X0038090Y0326636D01*
X0037424Y0325028D01*
X0037424Y0323288D01*
X0038090Y0321680D01*
X0039320Y0320449D01*
X0040928Y0319783D01*
X0042669Y0319783D01*
X0044277Y0320449D01*
X0045507Y0321680D01*
X0046173Y0323288D01*
X0046173Y0325028D01*
X0045507Y0326636D01*
X0044277Y0327867D01*
X0045695Y0326182D02*
X0047902Y0326182D01*
X0047424Y0324583D02*
X0046173Y0324583D01*
X0046048Y0322985D02*
X0047549Y0322985D01*
X0048383Y0321386D02*
X0045214Y0321386D01*
X0042680Y0319788D02*
X0050917Y0319788D01*
X0050099Y0318189D02*
X0043498Y0318189D01*
X0044277Y0317867D02*
X0042669Y0318533D01*
X0040928Y0318533D01*
X0039320Y0317867D01*
X0038090Y0316636D01*
X0037424Y0315028D01*
X0037424Y0313288D01*
X0038090Y0311680D01*
X0039320Y0310449D01*
X0040928Y0309783D01*
X0042669Y0309783D01*
X0044277Y0310449D01*
X0045507Y0311680D01*
X0046173Y0313288D01*
X0046173Y0315028D01*
X0045507Y0316636D01*
X0044277Y0317867D01*
X0045526Y0316591D02*
X0048071Y0316591D01*
X0047424Y0314992D02*
X0046173Y0314992D01*
X0046173Y0313394D02*
X0047424Y0313394D01*
X0048042Y0311795D02*
X0045555Y0311795D01*
X0043667Y0310197D02*
X0049930Y0310197D01*
X0048456Y0307000D02*
X0045144Y0307000D01*
X0046019Y0305401D02*
X0047603Y0305401D01*
X0047425Y0303803D02*
X0046173Y0303803D01*
X0045724Y0302204D02*
X0047884Y0302204D01*
X0049245Y0300606D02*
X0044433Y0300606D01*
X0044735Y0297409D02*
X0048862Y0297409D01*
X0047748Y0295810D02*
X0045849Y0295810D01*
X0046173Y0294212D02*
X0047424Y0294212D01*
X0047703Y0292613D02*
X0045894Y0292613D01*
X0044842Y0291015D02*
X0048755Y0291015D01*
X0049271Y0287817D02*
X0044204Y0287817D01*
X0044091Y0287899D02*
X0043478Y0288212D01*
X0042823Y0288425D01*
X0042143Y0288533D01*
X0041799Y0288533D01*
X0041799Y0284158D01*
X0046173Y0284158D01*
X0046173Y0284502D01*
X0046066Y0285182D01*
X0045853Y0285837D01*
X0045540Y0286451D01*
X0045135Y0287008D01*
X0044648Y0287495D01*
X0044091Y0287899D01*
X0041799Y0287817D02*
X0041798Y0287817D01*
X0041798Y0288533D02*
X0041454Y0288533D01*
X0040774Y0288425D01*
X0040119Y0288212D01*
X0039506Y0287899D01*
X0038948Y0287495D01*
X0038462Y0287008D01*
X0038057Y0286451D01*
X0037744Y0285837D01*
X0037531Y0285182D01*
X0037424Y0284502D01*
X0037424Y0284158D01*
X0041798Y0284158D01*
X0041798Y0284158D01*
X0041798Y0288533D01*
X0041798Y0286219D02*
X0041799Y0286219D01*
X0041798Y0284620D02*
X0041799Y0284620D01*
X0041799Y0284158D02*
X0041798Y0284158D01*
X0037424Y0284158D01*
X0037424Y0283813D01*
X0037531Y0283133D01*
X0037744Y0282478D01*
X0038057Y0281865D01*
X0038462Y0281308D01*
X0038948Y0280821D01*
X0039506Y0280416D01*
X0040119Y0280104D01*
X0040774Y0279891D01*
X0041454Y0279783D01*
X0041798Y0279783D01*
X0041798Y0284158D01*
X0041799Y0284158D01*
X0041799Y0284158D01*
X0046173Y0284158D01*
X0046173Y0283813D01*
X0046066Y0283133D01*
X0045853Y0282478D01*
X0045540Y0281865D01*
X0045135Y0281308D01*
X0044648Y0280821D01*
X0044091Y0280416D01*
X0043478Y0280104D01*
X0042823Y0279891D01*
X0042143Y0279783D01*
X0041799Y0279783D01*
X0041799Y0284158D01*
X0041798Y0283022D02*
X0041799Y0283022D01*
X0041798Y0281423D02*
X0041799Y0281423D01*
X0041798Y0279825D02*
X0041799Y0279825D01*
X0042408Y0279825D02*
X0044515Y0279825D01*
X0045219Y0281423D02*
X0046113Y0281423D01*
X0046029Y0283022D02*
X0047534Y0283022D01*
X0047424Y0284620D02*
X0046155Y0284620D01*
X0045658Y0286219D02*
X0047917Y0286219D01*
X0039393Y0287817D02*
X0033730Y0287817D01*
X0033730Y0286219D02*
X0037939Y0286219D01*
X0037442Y0284620D02*
X0033730Y0284620D01*
X0033730Y0283022D02*
X0037568Y0283022D01*
X0038378Y0281423D02*
X0033730Y0281423D01*
X0033730Y0279825D02*
X0041189Y0279825D01*
X0040189Y0278226D02*
X0033730Y0278226D01*
X0033730Y0276628D02*
X0038086Y0276628D01*
X0037424Y0275029D02*
X0033730Y0275029D01*
X0033730Y0273431D02*
X0037424Y0273431D01*
X0038026Y0271832D02*
X0033730Y0271832D01*
X0033730Y0270234D02*
X0039840Y0270234D01*
X0040928Y0268533D02*
X0039320Y0267867D01*
X0038090Y0266636D01*
X0037424Y0265028D01*
X0037424Y0263288D01*
X0038090Y0261680D01*
X0039320Y0260449D01*
X0040928Y0259783D01*
X0042669Y0259783D01*
X0044277Y0260449D01*
X0045507Y0261680D01*
X0046173Y0263288D01*
X0046173Y0265028D01*
X0045507Y0266636D01*
X0044277Y0267867D01*
X0042669Y0268533D01*
X0040928Y0268533D01*
X0038491Y0267037D02*
X0033730Y0267037D01*
X0033730Y0268635D02*
X0169575Y0268635D01*
X0167977Y0267037D02*
X0055106Y0267037D01*
X0055135Y0267008D02*
X0054648Y0267495D01*
X0054091Y0267899D01*
X0053478Y0268212D01*
X0052823Y0268425D01*
X0052143Y0268533D01*
X0051799Y0268533D01*
X0051799Y0264158D01*
X0056173Y0264158D01*
X0056173Y0264502D01*
X0056066Y0265182D01*
X0055853Y0265837D01*
X0055540Y0266451D01*
X0055135Y0267008D01*
X0055982Y0265438D02*
X0166378Y0265438D01*
X0164780Y0263840D02*
X0056173Y0263840D01*
X0056173Y0263813D02*
X0056173Y0264158D01*
X0051799Y0264158D01*
X0051799Y0264158D01*
X0051798Y0264158D01*
X0051798Y0264158D01*
X0047424Y0264158D01*
X0047424Y0264502D01*
X0047531Y0265182D01*
X0047744Y0265837D01*
X0048057Y0266451D01*
X0048462Y0267008D01*
X0048948Y0267495D01*
X0049506Y0267899D01*
X0050119Y0268212D01*
X0050774Y0268425D01*
X0051454Y0268533D01*
X0051798Y0268533D01*
X0051798Y0264158D01*
X0047424Y0264158D01*
X0047424Y0263813D01*
X0047531Y0263133D01*
X0047744Y0262478D01*
X0048057Y0261865D01*
X0048462Y0261308D01*
X0048948Y0260821D01*
X0049506Y0260416D01*
X0050119Y0260104D01*
X0050774Y0259891D01*
X0051454Y0259783D01*
X0051798Y0259783D01*
X0051798Y0264158D01*
X0051799Y0264158D01*
X0051799Y0259783D01*
X0052143Y0259783D01*
X0052823Y0259891D01*
X0053478Y0260104D01*
X0054091Y0260416D01*
X0054648Y0260821D01*
X0055135Y0261308D01*
X0055540Y0261865D01*
X0055853Y0262478D01*
X0056066Y0263133D01*
X0056173Y0263813D01*
X0055732Y0262241D02*
X0163181Y0262241D01*
X0161583Y0260643D02*
X0054403Y0260643D01*
X0051799Y0260643D02*
X0051798Y0260643D01*
X0051798Y0262241D02*
X0051799Y0262241D01*
X0051798Y0263840D02*
X0051799Y0263840D01*
X0051798Y0265438D02*
X0051799Y0265438D01*
X0051798Y0267037D02*
X0051799Y0267037D01*
X0048491Y0267037D02*
X0045106Y0267037D01*
X0046003Y0265438D02*
X0047615Y0265438D01*
X0047424Y0263840D02*
X0046173Y0263840D01*
X0045740Y0262241D02*
X0047865Y0262241D01*
X0049194Y0260643D02*
X0044470Y0260643D01*
X0042669Y0258533D02*
X0040928Y0258533D01*
X0039320Y0257867D01*
X0038090Y0256636D01*
X0037424Y0255028D01*
X0037424Y0253288D01*
X0038090Y0251680D01*
X0039320Y0250449D01*
X0040928Y0249783D01*
X0042669Y0249783D01*
X0044277Y0250449D01*
X0045507Y0251680D01*
X0046173Y0253288D01*
X0046173Y0255028D01*
X0045507Y0256636D01*
X0044277Y0257867D01*
X0042669Y0258533D01*
X0044697Y0257446D02*
X0048900Y0257446D01*
X0049320Y0257867D02*
X0048090Y0256636D01*
X0047424Y0255028D01*
X0047424Y0253288D01*
X0048090Y0251680D01*
X0049320Y0250449D01*
X0050928Y0249783D01*
X0052669Y0249783D01*
X0054277Y0250449D01*
X0055507Y0251680D01*
X0056173Y0253288D01*
X0056173Y0255028D01*
X0055507Y0256636D01*
X0054277Y0257867D01*
X0052669Y0258533D01*
X0050928Y0258533D01*
X0049320Y0257867D01*
X0047763Y0255847D02*
X0045834Y0255847D01*
X0046173Y0254249D02*
X0047424Y0254249D01*
X0047688Y0252650D02*
X0045909Y0252650D01*
X0044879Y0251052D02*
X0048718Y0251052D01*
X0049320Y0247867D02*
X0048090Y0246636D01*
X0047424Y0245028D01*
X0047424Y0243288D01*
X0048090Y0241680D01*
X0049320Y0240449D01*
X0050928Y0239783D01*
X0052669Y0239783D01*
X0054277Y0240449D01*
X0055507Y0241680D01*
X0056173Y0243288D01*
X0056173Y0245028D01*
X0055507Y0246636D01*
X0054277Y0247867D01*
X0052669Y0248533D01*
X0050928Y0248533D01*
X0049320Y0247867D01*
X0049308Y0247855D02*
X0044288Y0247855D01*
X0044277Y0247867D02*
X0042669Y0248533D01*
X0040928Y0248533D01*
X0039320Y0247867D01*
X0038090Y0246636D01*
X0037424Y0245028D01*
X0037424Y0243288D01*
X0038090Y0241680D01*
X0039320Y0240449D01*
X0040928Y0239783D01*
X0042669Y0239783D01*
X0044277Y0240449D01*
X0045507Y0241680D01*
X0046173Y0243288D01*
X0046173Y0245028D01*
X0045507Y0246636D01*
X0044277Y0247867D01*
X0045665Y0246256D02*
X0047932Y0246256D01*
X0047424Y0244658D02*
X0046173Y0244658D01*
X0046079Y0243059D02*
X0047518Y0243059D01*
X0048309Y0241461D02*
X0045288Y0241461D01*
X0042860Y0239862D02*
X0050737Y0239862D01*
X0050774Y0238425D02*
X0050119Y0238212D01*
X0049506Y0237899D01*
X0048948Y0237495D01*
X0048462Y0237008D01*
X0048057Y0236451D01*
X0047744Y0235837D01*
X0047531Y0235182D01*
X0047424Y0234502D01*
X0047424Y0234158D01*
X0051798Y0234158D01*
X0051798Y0234158D01*
X0051798Y0238533D01*
X0051454Y0238533D01*
X0050774Y0238425D01*
X0050278Y0238264D02*
X0043318Y0238264D01*
X0042669Y0238533D02*
X0044277Y0237867D01*
X0045507Y0236636D01*
X0046173Y0235028D01*
X0046173Y0233288D01*
X0045507Y0231680D01*
X0044277Y0230449D01*
X0042669Y0229783D01*
X0040928Y0229783D01*
X0039320Y0230449D01*
X0038090Y0231680D01*
X0037424Y0233288D01*
X0037424Y0235028D01*
X0038090Y0236636D01*
X0039320Y0237867D01*
X0040928Y0238533D01*
X0042669Y0238533D01*
X0040737Y0239862D02*
X0033730Y0239862D01*
X0033730Y0238264D02*
X0040279Y0238264D01*
X0038119Y0236665D02*
X0033730Y0236665D01*
X0033730Y0235067D02*
X0037440Y0235067D01*
X0037424Y0233468D02*
X0033730Y0233468D01*
X0033730Y0231870D02*
X0038011Y0231870D01*
X0039750Y0230271D02*
X0033730Y0230271D01*
X0033730Y0228673D02*
X0129612Y0228673D01*
X0131211Y0230271D02*
X0053807Y0230271D01*
X0054091Y0230416D02*
X0053478Y0230104D01*
X0052823Y0229891D01*
X0052143Y0229783D01*
X0051799Y0229783D01*
X0051799Y0234158D01*
X0056173Y0234158D01*
X0056173Y0234502D01*
X0056066Y0235182D01*
X0055853Y0235837D01*
X0055540Y0236451D01*
X0055135Y0237008D01*
X0054648Y0237495D01*
X0054091Y0237899D01*
X0053478Y0238212D01*
X0052823Y0238425D01*
X0052143Y0238533D01*
X0051799Y0238533D01*
X0051799Y0234158D01*
X0051799Y0234158D01*
X0051798Y0234158D01*
X0047424Y0234158D01*
X0047424Y0233813D01*
X0047531Y0233133D01*
X0047744Y0232478D01*
X0048057Y0231865D01*
X0048462Y0231308D01*
X0048948Y0230821D01*
X0049506Y0230416D01*
X0050119Y0230104D01*
X0050774Y0229891D01*
X0051454Y0229783D01*
X0051798Y0229783D01*
X0051798Y0234158D01*
X0051799Y0234158D01*
X0056173Y0234158D01*
X0056173Y0233813D01*
X0056066Y0233133D01*
X0055853Y0232478D01*
X0055540Y0231865D01*
X0055135Y0231308D01*
X0054648Y0230821D01*
X0054091Y0230416D01*
X0055543Y0231870D02*
X0132809Y0231870D01*
X0134408Y0233468D02*
X0056119Y0233468D01*
X0056084Y0235067D02*
X0136006Y0235067D01*
X0137605Y0236665D02*
X0055384Y0236665D01*
X0053319Y0238264D02*
X0139203Y0238264D01*
X0140802Y0239862D02*
X0052860Y0239862D01*
X0051798Y0238264D02*
X0051799Y0238264D01*
X0051798Y0236665D02*
X0051799Y0236665D01*
X0051798Y0235067D02*
X0051799Y0235067D01*
X0051798Y0233468D02*
X0051799Y0233468D01*
X0051798Y0231870D02*
X0051799Y0231870D01*
X0051798Y0230271D02*
X0051799Y0230271D01*
X0052669Y0228533D02*
X0050928Y0228533D01*
X0049320Y0227867D01*
X0048090Y0226636D01*
X0047424Y0225028D01*
X0047424Y0223288D01*
X0048090Y0221680D01*
X0049320Y0220449D01*
X0050928Y0219783D01*
X0052669Y0219783D01*
X0054277Y0220449D01*
X0055507Y0221680D01*
X0056173Y0223288D01*
X0056173Y0225028D01*
X0055507Y0226636D01*
X0054277Y0227867D01*
X0052669Y0228533D01*
X0055069Y0227074D02*
X0103120Y0227074D01*
X0101415Y0225476D02*
X0055988Y0225476D01*
X0056173Y0223877D02*
X0099817Y0223877D01*
X0098218Y0222279D02*
X0055755Y0222279D01*
X0054508Y0220680D02*
X0096620Y0220680D01*
X0095021Y0219081D02*
X0033730Y0219081D01*
X0033730Y0217483D02*
X0038937Y0217483D01*
X0039320Y0217867D02*
X0038090Y0216636D01*
X0037424Y0215028D01*
X0037424Y0213288D01*
X0038090Y0211680D01*
X0039320Y0210449D01*
X0040928Y0209783D01*
X0042669Y0209783D01*
X0044277Y0210449D01*
X0045507Y0211680D01*
X0046173Y0213288D01*
X0046173Y0215028D01*
X0045507Y0216636D01*
X0044277Y0217867D01*
X0042669Y0218533D01*
X0040928Y0218533D01*
X0039320Y0217867D01*
X0040928Y0219783D02*
X0042669Y0219783D01*
X0044277Y0220449D01*
X0045507Y0221680D01*
X0046173Y0223288D01*
X0046173Y0225028D01*
X0045507Y0226636D01*
X0044277Y0227867D01*
X0042669Y0228533D01*
X0040928Y0228533D01*
X0039320Y0227867D01*
X0038090Y0226636D01*
X0037424Y0225028D01*
X0037424Y0223288D01*
X0038090Y0221680D01*
X0039320Y0220449D01*
X0040928Y0219783D01*
X0039089Y0220680D02*
X0033730Y0220680D01*
X0033730Y0222279D02*
X0037842Y0222279D01*
X0037424Y0223877D02*
X0033730Y0223877D01*
X0033730Y0225476D02*
X0037609Y0225476D01*
X0038528Y0227074D02*
X0033730Y0227074D01*
X0028530Y0227074D02*
X0028398Y0227074D01*
X0028398Y0225476D02*
X0028530Y0225476D01*
X0028530Y0223877D02*
X0028398Y0223877D01*
X0028398Y0222279D02*
X0028530Y0222279D01*
X0028530Y0220680D02*
X0028398Y0220680D01*
X0028398Y0219081D02*
X0028530Y0219081D01*
X0028530Y0217483D02*
X0028398Y0217483D01*
X0028398Y0215884D02*
X0028530Y0215884D01*
X0028530Y0214286D02*
X0028398Y0214286D01*
X0028398Y0212687D02*
X0028530Y0212687D01*
X0028530Y0211089D02*
X0028398Y0211089D01*
X0028398Y0209490D02*
X0028530Y0209490D01*
X0028530Y0207892D02*
X0028398Y0207892D01*
X0028398Y0206293D02*
X0028530Y0206293D01*
X0028530Y0204695D02*
X0028398Y0204695D01*
X0028398Y0203096D02*
X0028530Y0203096D01*
X0028530Y0201498D02*
X0028398Y0201498D01*
X0028398Y0199899D02*
X0028530Y0199899D01*
X0028530Y0198301D02*
X0028398Y0198301D01*
X0028398Y0196702D02*
X0028530Y0196702D01*
X0028530Y0195104D02*
X0028398Y0195104D01*
X0028398Y0193505D02*
X0028530Y0193505D01*
X0028530Y0191907D02*
X0028398Y0191907D01*
X0028398Y0190308D02*
X0028530Y0190308D01*
X0028530Y0188710D02*
X0028398Y0188710D01*
X0028398Y0187111D02*
X0028530Y0187111D01*
X0028530Y0185513D02*
X0028398Y0185513D01*
X0028398Y0183914D02*
X0028694Y0183914D01*
X0029658Y0182622D02*
X0029658Y0182622D01*
X0029964Y0182316D02*
X0028398Y0182316D01*
X0028398Y0180717D02*
X0031562Y0180717D01*
X0033161Y0179119D02*
X0028398Y0179119D01*
X0028398Y0177520D02*
X0034759Y0177520D01*
X0036358Y0175922D02*
X0028398Y0175922D01*
X0028398Y0174323D02*
X0037424Y0174323D01*
X0037657Y0172725D02*
X0028398Y0172725D01*
X0028398Y0171126D02*
X0038643Y0171126D01*
X0039471Y0167929D02*
X0028398Y0167929D01*
X0028398Y0166331D02*
X0037963Y0166331D01*
X0038090Y0166636D02*
X0037424Y0165028D01*
X0037424Y0163288D01*
X0038090Y0161680D01*
X0039320Y0160449D01*
X0040928Y0159783D01*
X0042669Y0159783D01*
X0044277Y0160449D01*
X0045507Y0161680D01*
X0046173Y0163288D01*
X0046173Y0165028D01*
X0045507Y0166636D01*
X0044277Y0167867D01*
X0042669Y0168533D01*
X0040928Y0168533D01*
X0039320Y0167867D01*
X0038090Y0166636D01*
X0037424Y0164732D02*
X0028398Y0164732D01*
X0028398Y0163134D02*
X0037487Y0163134D01*
X0038234Y0161535D02*
X0029057Y0161535D01*
X0030655Y0159937D02*
X0040558Y0159937D01*
X0040459Y0158338D02*
X0032254Y0158338D01*
X0033852Y0156740D02*
X0038193Y0156740D01*
X0037471Y0155141D02*
X0035451Y0155141D01*
X0037049Y0153543D02*
X0037424Y0153543D01*
X0032893Y0150346D02*
X0001800Y0150346D01*
X0001800Y0151944D02*
X0031294Y0151944D01*
X0029696Y0153543D02*
X0001800Y0153543D01*
X0001800Y0155141D02*
X0028097Y0155141D01*
X0026498Y0156740D02*
X0001800Y0156740D01*
X0001800Y0158338D02*
X0024900Y0158338D01*
X0023472Y0159937D02*
X0001800Y0159937D01*
X0001800Y0161535D02*
X0023198Y0161535D01*
X0023198Y0163134D02*
X0001800Y0163134D01*
X0001800Y0164732D02*
X0023198Y0164732D01*
X0023198Y0166331D02*
X0001800Y0166331D01*
X0001800Y0167929D02*
X0023198Y0167929D01*
X0023198Y0169528D02*
X0001800Y0169528D01*
X0001800Y0171126D02*
X0023198Y0171126D01*
X0023198Y0172725D02*
X0001800Y0172725D01*
X0001800Y0174323D02*
X0023198Y0174323D01*
X0023198Y0175922D02*
X0001800Y0175922D01*
X0001800Y0177520D02*
X0023198Y0177520D01*
X0023198Y0179119D02*
X0001800Y0179119D01*
X0001800Y0180717D02*
X0023198Y0180717D01*
X0023198Y0182316D02*
X0001800Y0182316D01*
X0001800Y0183914D02*
X0023198Y0183914D01*
X0023198Y0185513D02*
X0001800Y0185513D01*
X0001800Y0187111D02*
X0023198Y0187111D01*
X0023198Y0188710D02*
X0001800Y0188710D01*
X0001800Y0190308D02*
X0023198Y0190308D01*
X0023198Y0191907D02*
X0001800Y0191907D01*
X0001800Y0193505D02*
X0023198Y0193505D01*
X0023198Y0195104D02*
X0001800Y0195104D01*
X0001800Y0196702D02*
X0023198Y0196702D01*
X0023198Y0198301D02*
X0001800Y0198301D01*
X0001800Y0199899D02*
X0023198Y0199899D01*
X0023198Y0201498D02*
X0001800Y0201498D01*
X0001800Y0203096D02*
X0023198Y0203096D01*
X0023198Y0204695D02*
X0001800Y0204695D01*
X0001800Y0206293D02*
X0023198Y0206293D01*
X0023198Y0207892D02*
X0001800Y0207892D01*
X0001800Y0209490D02*
X0023198Y0209490D01*
X0023198Y0211089D02*
X0001800Y0211089D01*
X0001800Y0212687D02*
X0023198Y0212687D01*
X0023198Y0214286D02*
X0001800Y0214286D01*
X0001800Y0215884D02*
X0023198Y0215884D01*
X0023198Y0217483D02*
X0001800Y0217483D01*
X0001800Y0219081D02*
X0023198Y0219081D01*
X0023198Y0220680D02*
X0001800Y0220680D01*
X0001800Y0222279D02*
X0023198Y0222279D01*
X0023198Y0223877D02*
X0001800Y0223877D01*
X0001800Y0225476D02*
X0023198Y0225476D01*
X0023198Y0227074D02*
X0001800Y0227074D01*
X0001800Y0228673D02*
X0023198Y0228673D01*
X0023198Y0230271D02*
X0001800Y0230271D01*
X0001800Y0231870D02*
X0023198Y0231870D01*
X0023198Y0233468D02*
X0001800Y0233468D01*
X0001800Y0235067D02*
X0023198Y0235067D01*
X0023198Y0236665D02*
X0001800Y0236665D01*
X0001800Y0238264D02*
X0023198Y0238264D01*
X0023198Y0239862D02*
X0001800Y0239862D01*
X0001800Y0241461D02*
X0023198Y0241461D01*
X0023198Y0243059D02*
X0001800Y0243059D01*
X0001800Y0244658D02*
X0023198Y0244658D01*
X0023198Y0246256D02*
X0001800Y0246256D01*
X0001800Y0247855D02*
X0023198Y0247855D01*
X0023198Y0249453D02*
X0001800Y0249453D01*
X0001800Y0251052D02*
X0023198Y0251052D01*
X0023198Y0252650D02*
X0001800Y0252650D01*
X0001800Y0254249D02*
X0023198Y0254249D01*
X0023198Y0255847D02*
X0001800Y0255847D01*
X0001800Y0257446D02*
X0023198Y0257446D01*
X0023198Y0259044D02*
X0001800Y0259044D01*
X0001800Y0260643D02*
X0023198Y0260643D01*
X0023198Y0262241D02*
X0001800Y0262241D01*
X0001800Y0263840D02*
X0023198Y0263840D01*
X0023198Y0265438D02*
X0001800Y0265438D01*
X0001800Y0267037D02*
X0023198Y0267037D01*
X0023198Y0268635D02*
X0001800Y0268635D01*
X0001800Y0270234D02*
X0023198Y0270234D01*
X0023198Y0271832D02*
X0001800Y0271832D01*
X0001800Y0273431D02*
X0023198Y0273431D01*
X0023198Y0275029D02*
X0001800Y0275029D01*
X0001800Y0276628D02*
X0023198Y0276628D01*
X0023198Y0278226D02*
X0001800Y0278226D01*
X0001800Y0279825D02*
X0023198Y0279825D01*
X0023198Y0281423D02*
X0001800Y0281423D01*
X0001800Y0283022D02*
X0023198Y0283022D01*
X0023198Y0284620D02*
X0001800Y0284620D01*
X0001800Y0286219D02*
X0023198Y0286219D01*
X0023198Y0287817D02*
X0001800Y0287817D01*
X0001800Y0289416D02*
X0023198Y0289416D01*
X0023198Y0291015D02*
X0001800Y0291015D01*
X0001800Y0292613D02*
X0023198Y0292613D01*
X0023198Y0294212D02*
X0001800Y0294212D01*
X0001800Y0295810D02*
X0023198Y0295810D01*
X0023198Y0297409D02*
X0001800Y0297409D01*
X0001800Y0299007D02*
X0023198Y0299007D01*
X0023198Y0300606D02*
X0001800Y0300606D01*
X0001800Y0302204D02*
X0023198Y0302204D01*
X0023198Y0303803D02*
X0001800Y0303803D01*
X0001800Y0305401D02*
X0023198Y0305401D01*
X0023198Y0307000D02*
X0001800Y0307000D01*
X0001800Y0308598D02*
X0023198Y0308598D01*
X0023198Y0310197D02*
X0001800Y0310197D01*
X0001800Y0311795D02*
X0023198Y0311795D01*
X0023198Y0313394D02*
X0001800Y0313394D01*
X0001800Y0314992D02*
X0023198Y0314992D01*
X0023198Y0316591D02*
X0001800Y0316591D01*
X0001800Y0318189D02*
X0023198Y0318189D01*
X0023198Y0319788D02*
X0001800Y0319788D01*
X0001800Y0321386D02*
X0023198Y0321386D01*
X0023198Y0322985D02*
X0001800Y0322985D01*
X0001800Y0324583D02*
X0023198Y0324583D01*
X0023198Y0326182D02*
X0001800Y0326182D01*
X0001800Y0327780D02*
X0023198Y0327780D01*
X0023198Y0329379D02*
X0001800Y0329379D01*
X0001800Y0330977D02*
X0023198Y0330977D01*
X0023198Y0332576D02*
X0001800Y0332576D01*
X0001800Y0334174D02*
X0023198Y0334174D01*
X0023198Y0335773D02*
X0001800Y0335773D01*
X0001800Y0337371D02*
X0023198Y0337371D01*
X0023198Y0338970D02*
X0001800Y0338970D01*
X0001800Y0340568D02*
X0023198Y0340568D01*
X0023198Y0342167D02*
X0001800Y0342167D01*
X0001800Y0343765D02*
X0023198Y0343765D01*
X0023198Y0345364D02*
X0001800Y0345364D01*
X0001800Y0346962D02*
X0023198Y0346962D01*
X0023198Y0348561D02*
X0001800Y0348561D01*
X0001800Y0350159D02*
X0023198Y0350159D01*
X0023198Y0351758D02*
X0001800Y0351758D01*
X0001800Y0353356D02*
X0023198Y0353356D01*
X0023198Y0354955D02*
X0001800Y0354955D01*
X0001800Y0356553D02*
X0023198Y0356553D01*
X0023198Y0358152D02*
X0001800Y0358152D01*
X0001800Y0359750D02*
X0023198Y0359750D01*
X0023198Y0361349D02*
X0001800Y0361349D01*
X0001800Y0362948D02*
X0023198Y0362948D01*
X0023198Y0364546D02*
X0001800Y0364546D01*
X0001800Y0366145D02*
X0023198Y0366145D01*
X0023198Y0367743D02*
X0001800Y0367743D01*
X0001800Y0369342D02*
X0024032Y0369342D01*
X0025631Y0370940D02*
X0001800Y0370940D01*
X0001800Y0372539D02*
X0027229Y0372539D01*
X0028828Y0374137D02*
X0001800Y0374137D01*
X0001800Y0375736D02*
X0030426Y0375736D01*
X0032025Y0377334D02*
X0001800Y0377334D01*
X0001800Y0378933D02*
X0033623Y0378933D01*
X0035222Y0380531D02*
X0001800Y0380531D01*
X0001800Y0382130D02*
X0036820Y0382130D01*
X0038419Y0383728D02*
X0001800Y0383728D01*
X0001800Y0385327D02*
X0040017Y0385327D01*
X0041616Y0386925D02*
X0001800Y0386925D01*
X0001800Y0388524D02*
X0043214Y0388524D01*
X0045034Y0390122D02*
X0001800Y0390122D01*
X0001800Y0391721D02*
X0074567Y0391721D01*
X0076788Y0387761D02*
X0076791Y0387758D01*
X0077122Y0387758D01*
X0085792Y0396427D01*
X0138782Y0396427D01*
X0147118Y0388091D01*
X0147153Y0383716D02*
X0145306Y0383716D01*
X0142743Y0386279D01*
X0142743Y0388789D01*
X0137705Y0393827D01*
X0086869Y0393827D01*
X0085174Y0392133D01*
X0088604Y0392133D01*
X0091166Y0389570D01*
X0091166Y0385946D01*
X0088604Y0383383D01*
X0084979Y0383383D01*
X0082417Y0385946D01*
X0082417Y0389375D01*
X0081166Y0388125D01*
X0081166Y0385946D01*
X0078604Y0383383D01*
X0074979Y0383383D01*
X0073201Y0385161D01*
X0047206Y0385161D01*
X0028398Y0366353D01*
X0028398Y0357293D01*
X0028514Y0357574D01*
X0029189Y0358249D01*
X0035245Y0364306D01*
X0034787Y0364763D01*
X0034061Y0366516D01*
X0034061Y0368413D01*
X0034787Y0370166D01*
X0036129Y0371507D01*
X0037881Y0372233D01*
X0045716Y0372233D01*
X0047468Y0371507D01*
X0048810Y0370166D01*
X0049535Y0368413D01*
X0049535Y0366516D01*
X0048810Y0364763D01*
X0047468Y0363422D01*
X0045716Y0362696D01*
X0040424Y0362696D01*
X0039961Y0362233D01*
X0045716Y0362233D01*
X0047468Y0361507D01*
X0047861Y0361115D01*
X0049554Y0361115D01*
X0067264Y0378824D01*
X0067264Y0378824D01*
X0067939Y0379499D01*
X0068821Y0379865D01*
X0129776Y0379865D01*
X0130658Y0379499D01*
X0135760Y0374397D01*
X0135923Y0374465D01*
X0137674Y0374465D01*
X0139291Y0373795D01*
X0140529Y0372557D01*
X0141198Y0370940D01*
X0140536Y0372539D02*
X0229798Y0372539D01*
X0229798Y0373340D02*
X0229798Y0371589D01*
X0230468Y0369972D01*
X0231706Y0368734D01*
X0233323Y0368065D01*
X0240274Y0368065D01*
X0241891Y0368734D01*
X0243129Y0369972D01*
X0243798Y0371589D01*
X0243798Y0373340D01*
X0243129Y0374957D01*
X0241891Y0376195D01*
X0240274Y0376865D01*
X0233323Y0376865D01*
X0231706Y0376195D01*
X0230468Y0374957D01*
X0229798Y0373340D01*
X0230129Y0374137D02*
X0138464Y0374137D01*
X0134422Y0375736D02*
X0231247Y0375736D01*
X0230067Y0370940D02*
X0216717Y0370940D01*
X0218316Y0369342D02*
X0231099Y0369342D01*
X0231706Y0366195D02*
X0230468Y0364957D01*
X0229798Y0363340D01*
X0229798Y0361589D01*
X0230468Y0359972D01*
X0231706Y0358734D01*
X0233323Y0358065D01*
X0240274Y0358065D01*
X0241891Y0358734D01*
X0243129Y0359972D01*
X0243798Y0361589D01*
X0243798Y0363340D01*
X0243129Y0364957D01*
X0241891Y0366195D01*
X0240274Y0366865D01*
X0233323Y0366865D01*
X0231706Y0366195D01*
X0231656Y0366145D02*
X0221513Y0366145D01*
X0219914Y0367743D02*
X0537413Y0367743D01*
X0537413Y0366145D02*
X0266941Y0366145D01*
X0266891Y0366195D02*
X0265274Y0366865D01*
X0258323Y0366865D01*
X0256706Y0366195D01*
X0255468Y0364957D01*
X0254798Y0363340D01*
X0254798Y0361589D01*
X0255468Y0359972D01*
X0256706Y0358734D01*
X0258323Y0358065D01*
X0265274Y0358065D01*
X0266891Y0358734D01*
X0268129Y0359972D01*
X0268798Y0361589D01*
X0268798Y0363340D01*
X0268129Y0364957D01*
X0266891Y0366195D01*
X0268299Y0364546D02*
X0537413Y0364546D01*
X0537413Y0362948D02*
X0268798Y0362948D01*
X0268699Y0361349D02*
X0537413Y0361349D01*
X0537413Y0359750D02*
X0267907Y0359750D01*
X0265485Y0358152D02*
X0537413Y0358152D01*
X0537413Y0356553D02*
X0266025Y0356553D01*
X0268129Y0354955D02*
X0537413Y0354955D01*
X0537413Y0353356D02*
X0268792Y0353356D01*
X0268798Y0351758D02*
X0537413Y0351758D01*
X0537413Y0350159D02*
X0268206Y0350159D01*
X0266472Y0348561D02*
X0363051Y0348561D01*
X0365546Y0348561D02*
X0537413Y0348561D01*
X0537413Y0346962D02*
X0367584Y0346962D01*
X0368098Y0345364D02*
X0537413Y0345364D01*
X0537413Y0343765D02*
X0367915Y0343765D01*
X0363747Y0312265D02*
X0359850Y0312265D01*
X0356086Y0311256D01*
X0352711Y0309308D01*
X0349956Y0306552D01*
X0348007Y0303177D01*
X0346998Y0299413D01*
X0346998Y0260516D01*
X0348007Y0256752D01*
X0349956Y0253377D01*
X0396998Y0206334D01*
X0396998Y0155516D01*
X0398007Y0151752D01*
X0399956Y0148377D01*
X0419558Y0128775D01*
X0419558Y0104122D01*
X0406183Y0092265D01*
X0242929Y0092265D01*
X0239158Y0096036D01*
X0239158Y0115752D01*
X0238149Y0119516D01*
X0236201Y0122891D01*
X0233445Y0125646D01*
X0230070Y0127595D01*
X0226306Y0128603D01*
X0222409Y0128603D01*
X0218645Y0127595D01*
X0215270Y0125646D01*
X0212515Y0122891D01*
X0210566Y0119516D01*
X0209558Y0115752D01*
X0209558Y0087957D01*
X0210566Y0084193D01*
X0212515Y0080818D01*
X0224956Y0068377D01*
X0227711Y0065622D01*
X0231086Y0063673D01*
X0234850Y0062665D01*
X0267585Y0062665D01*
X0266336Y0061416D01*
X0264822Y0058793D01*
X0264039Y0055868D01*
X0264039Y0052840D01*
X0264822Y0049916D01*
X0266336Y0047293D01*
X0268478Y0045152D01*
X0271100Y0043638D01*
X0274025Y0042854D01*
X0277053Y0042854D01*
X0279978Y0043638D01*
X0282600Y0045152D01*
X0284741Y0047293D01*
X0286255Y0049916D01*
X0287039Y0052840D01*
X0287039Y0055868D01*
X0286255Y0058793D01*
X0284741Y0061416D01*
X0283492Y0062665D01*
X0320105Y0062665D01*
X0318856Y0061416D01*
X0317342Y0058793D01*
X0316558Y0055868D01*
X0316558Y0052840D01*
X0317342Y0049916D01*
X0318856Y0047293D01*
X0320997Y0045152D01*
X0323619Y0043638D01*
X0326544Y0042854D01*
X0329572Y0042854D01*
X0332497Y0043638D01*
X0335119Y0045152D01*
X0337261Y0047293D01*
X0338775Y0049916D01*
X0339558Y0052840D01*
X0339558Y0055868D01*
X0338775Y0058793D01*
X0337261Y0061416D01*
X0336011Y0062665D01*
X0411354Y0062665D01*
X0412855Y0062574D01*
X0413296Y0062665D01*
X0413747Y0062665D01*
X0415200Y0063054D01*
X0416673Y0063355D01*
X0417076Y0063557D01*
X0417511Y0063673D01*
X0418813Y0064425D01*
X0420159Y0065098D01*
X0420496Y0065396D01*
X0420886Y0065622D01*
X0421949Y0066685D01*
X0443055Y0085396D01*
X0443445Y0085622D01*
X0444508Y0086685D01*
X0445634Y0087683D01*
X0445882Y0088059D01*
X0446201Y0088377D01*
X0446952Y0089680D01*
X0447781Y0090935D01*
X0447924Y0091362D01*
X0448149Y0091752D01*
X0448538Y0093205D01*
X0449014Y0094631D01*
X0449041Y0095081D01*
X0449158Y0095516D01*
X0449158Y0097020D01*
X0449248Y0098521D01*
X0449158Y0098963D01*
X0449158Y0136854D01*
X0448149Y0140618D01*
X0446201Y0143993D01*
X0426598Y0163595D01*
X0426598Y0214413D01*
X0425590Y0218177D01*
X0423641Y0221552D01*
X0420886Y0224308D01*
X0376598Y0268595D01*
X0376598Y0299413D01*
X0375590Y0303177D01*
X0373641Y0306552D01*
X0370886Y0309308D01*
X0367511Y0311256D01*
X0363747Y0312265D01*
X0365499Y0311795D02*
X0416538Y0311795D01*
X0418136Y0310197D02*
X0369346Y0310197D01*
X0371595Y0308598D02*
X0419735Y0308598D01*
X0421333Y0307000D02*
X0373194Y0307000D01*
X0374306Y0305401D02*
X0422932Y0305401D01*
X0424530Y0303803D02*
X0375229Y0303803D01*
X0375851Y0302204D02*
X0426129Y0302204D01*
X0427727Y0300606D02*
X0376279Y0300606D01*
X0376598Y0299007D02*
X0429326Y0299007D01*
X0430924Y0297409D02*
X0376598Y0297409D01*
X0376598Y0295810D02*
X0432523Y0295810D01*
X0434121Y0294212D02*
X0376598Y0294212D01*
X0376598Y0292613D02*
X0435720Y0292613D01*
X0437318Y0291015D02*
X0376598Y0291015D01*
X0376598Y0289416D02*
X0438917Y0289416D01*
X0440515Y0287817D02*
X0376598Y0287817D01*
X0376598Y0286219D02*
X0442114Y0286219D01*
X0443712Y0284620D02*
X0376598Y0284620D01*
X0376598Y0283022D02*
X0445311Y0283022D01*
X0446909Y0281423D02*
X0376598Y0281423D01*
X0376598Y0279825D02*
X0448508Y0279825D01*
X0450106Y0278226D02*
X0376598Y0278226D01*
X0376598Y0276628D02*
X0451705Y0276628D01*
X0453303Y0275029D02*
X0376598Y0275029D01*
X0376598Y0273431D02*
X0454902Y0273431D01*
X0456500Y0271832D02*
X0443714Y0271832D01*
X0444500Y0271507D02*
X0442747Y0272233D01*
X0440850Y0272233D01*
X0439097Y0271507D01*
X0437756Y0270166D01*
X0437030Y0268413D01*
X0437030Y0266516D01*
X0437756Y0264763D01*
X0439097Y0263422D01*
X0440850Y0262696D01*
X0442747Y0262696D01*
X0444500Y0263422D01*
X0445841Y0264763D01*
X0446567Y0266516D01*
X0446567Y0268413D01*
X0445841Y0270166D01*
X0444500Y0271507D01*
X0445773Y0270234D02*
X0458099Y0270234D01*
X0459697Y0268635D02*
X0446475Y0268635D01*
X0446567Y0267037D02*
X0461296Y0267037D01*
X0462894Y0265438D02*
X0446121Y0265438D01*
X0444917Y0263840D02*
X0464493Y0263840D01*
X0466091Y0262241D02*
X0382952Y0262241D01*
X0384551Y0260643D02*
X0467690Y0260643D01*
X0469288Y0259044D02*
X0386149Y0259044D01*
X0387748Y0257446D02*
X0470887Y0257446D01*
X0472485Y0255847D02*
X0389346Y0255847D01*
X0390945Y0254249D02*
X0474084Y0254249D01*
X0475683Y0252650D02*
X0392543Y0252650D01*
X0394142Y0251052D02*
X0476998Y0251052D01*
X0476998Y0249453D02*
X0395740Y0249453D01*
X0397339Y0247855D02*
X0476998Y0247855D01*
X0476998Y0246256D02*
X0398937Y0246256D01*
X0400536Y0244658D02*
X0476998Y0244658D01*
X0476998Y0243059D02*
X0402134Y0243059D01*
X0403733Y0241461D02*
X0476998Y0241461D01*
X0476998Y0239862D02*
X0405331Y0239862D01*
X0406930Y0238264D02*
X0476998Y0238264D01*
X0476998Y0236665D02*
X0408528Y0236665D01*
X0410127Y0235067D02*
X0476998Y0235067D01*
X0476998Y0233468D02*
X0411725Y0233468D01*
X0413324Y0231870D02*
X0476998Y0231870D01*
X0476998Y0230271D02*
X0414922Y0230271D01*
X0416521Y0228673D02*
X0476998Y0228673D01*
X0476998Y0227074D02*
X0418119Y0227074D01*
X0419718Y0225476D02*
X0476998Y0225476D01*
X0476998Y0223877D02*
X0421316Y0223877D01*
X0422915Y0222279D02*
X0476998Y0222279D01*
X0476998Y0220680D02*
X0424145Y0220680D01*
X0425068Y0219081D02*
X0476998Y0219081D01*
X0476998Y0217483D02*
X0425776Y0217483D01*
X0426204Y0215884D02*
X0476998Y0215884D01*
X0476998Y0214286D02*
X0426598Y0214286D01*
X0426598Y0212687D02*
X0476998Y0212687D01*
X0476998Y0211089D02*
X0426598Y0211089D01*
X0426598Y0209490D02*
X0476998Y0209490D01*
X0476998Y0207892D02*
X0426598Y0207892D01*
X0426598Y0206293D02*
X0476998Y0206293D01*
X0476998Y0204695D02*
X0426598Y0204695D01*
X0426598Y0203096D02*
X0476998Y0203096D01*
X0476998Y0201498D02*
X0426598Y0201498D01*
X0426598Y0199899D02*
X0476998Y0199899D01*
X0476998Y0198301D02*
X0426598Y0198301D01*
X0426598Y0196702D02*
X0476998Y0196702D01*
X0476998Y0195104D02*
X0426598Y0195104D01*
X0426598Y0193505D02*
X0476998Y0193505D01*
X0476998Y0191907D02*
X0426598Y0191907D01*
X0426598Y0190308D02*
X0476998Y0190308D01*
X0476998Y0188710D02*
X0426598Y0188710D01*
X0426598Y0187111D02*
X0476998Y0187111D01*
X0476998Y0185513D02*
X0426598Y0185513D01*
X0426598Y0183914D02*
X0476998Y0183914D01*
X0475719Y0182316D02*
X0426598Y0182316D01*
X0426598Y0180717D02*
X0474121Y0180717D01*
X0472522Y0179119D02*
X0426598Y0179119D01*
X0426598Y0177520D02*
X0470924Y0177520D01*
X0469325Y0175922D02*
X0426598Y0175922D01*
X0426598Y0174323D02*
X0467727Y0174323D01*
X0466128Y0172725D02*
X0426598Y0172725D01*
X0426598Y0171126D02*
X0464530Y0171126D01*
X0462931Y0169528D02*
X0426598Y0169528D01*
X0426598Y0167929D02*
X0461333Y0167929D01*
X0459828Y0166331D02*
X0426598Y0166331D01*
X0426598Y0164732D02*
X0458905Y0164732D01*
X0457995Y0163134D02*
X0427060Y0163134D01*
X0428658Y0161535D02*
X0457567Y0161535D01*
X0457139Y0159937D02*
X0430257Y0159937D01*
X0431855Y0158338D02*
X0456998Y0158338D01*
X0456998Y0156740D02*
X0433454Y0156740D01*
X0435052Y0155141D02*
X0457099Y0155141D01*
X0457527Y0153543D02*
X0436651Y0153543D01*
X0438249Y0151944D02*
X0457956Y0151944D01*
X0458819Y0150346D02*
X0439848Y0150346D01*
X0441446Y0148747D02*
X0459742Y0148747D01*
X0461184Y0147148D02*
X0443045Y0147148D01*
X0444643Y0145550D02*
X0462835Y0145550D01*
X0465604Y0143951D02*
X0446224Y0143951D01*
X0447147Y0142353D02*
X0491084Y0142353D01*
X0490723Y0141686D02*
X0492760Y0145449D01*
X0495909Y0148348D01*
X0499828Y0150067D01*
X0504093Y0150420D01*
X0508241Y0149370D01*
X0511824Y0147029D01*
X0514452Y0143652D01*
X0515842Y0139604D01*
X0515842Y0135325D01*
X0514452Y0131277D01*
X0511824Y0127900D01*
X0508241Y0125560D01*
X0504093Y0124509D01*
X0499828Y0124862D01*
X0495909Y0126581D01*
X0492760Y0129480D01*
X0490723Y0133244D01*
X0490019Y0137465D01*
X0490723Y0141686D01*
X0490568Y0140754D02*
X0448070Y0140754D01*
X0448541Y0139156D02*
X0490301Y0139156D01*
X0490034Y0137557D02*
X0448969Y0137557D01*
X0449158Y0135959D02*
X0490270Y0135959D01*
X0490537Y0134360D02*
X0449158Y0134360D01*
X0449158Y0132762D02*
X0490984Y0132762D01*
X0491849Y0131163D02*
X0449158Y0131163D01*
X0449158Y0129565D02*
X0492714Y0129565D01*
X0494404Y0127966D02*
X0449158Y0127966D01*
X0449158Y0126368D02*
X0496396Y0126368D01*
X0500951Y0124769D02*
X0449158Y0124769D01*
X0449158Y0123171D02*
X0537413Y0123171D01*
X0537413Y0124769D02*
X0505121Y0124769D01*
X0509478Y0126368D02*
X0537413Y0126368D01*
X0537413Y0127966D02*
X0511875Y0127966D01*
X0513119Y0129565D02*
X0537413Y0129565D01*
X0537413Y0131163D02*
X0514363Y0131163D01*
X0514962Y0132762D02*
X0537413Y0132762D01*
X0537413Y0134360D02*
X0515511Y0134360D01*
X0515842Y0135959D02*
X0537413Y0135959D01*
X0537413Y0137557D02*
X0515842Y0137557D01*
X0515842Y0139156D02*
X0537413Y0139156D01*
X0537413Y0140754D02*
X0515447Y0140754D01*
X0514898Y0142353D02*
X0537413Y0142353D01*
X0537413Y0143951D02*
X0514219Y0143951D01*
X0512975Y0145550D02*
X0537413Y0145550D01*
X0537413Y0147148D02*
X0511641Y0147148D01*
X0509194Y0148747D02*
X0537413Y0148747D01*
X0537413Y0150346D02*
X0504387Y0150346D01*
X0503191Y0150346D02*
X0485610Y0150346D01*
X0487208Y0151944D02*
X0537413Y0151944D01*
X0537413Y0153543D02*
X0488807Y0153543D01*
X0490405Y0155141D02*
X0537413Y0155141D01*
X0537413Y0156740D02*
X0492004Y0156740D01*
X0493602Y0158338D02*
X0537413Y0158338D01*
X0537413Y0159937D02*
X0495201Y0159937D01*
X0496799Y0161535D02*
X0537413Y0161535D01*
X0537413Y0163134D02*
X0498398Y0163134D01*
X0499996Y0164732D02*
X0537413Y0164732D01*
X0537413Y0166331D02*
X0501595Y0166331D01*
X0503193Y0167929D02*
X0537413Y0167929D01*
X0537413Y0169528D02*
X0504306Y0169528D01*
X0505229Y0171126D02*
X0537413Y0171126D01*
X0537413Y0172725D02*
X0505851Y0172725D01*
X0506279Y0174323D02*
X0537413Y0174323D01*
X0537413Y0175922D02*
X0506598Y0175922D01*
X0506598Y0177520D02*
X0537413Y0177520D01*
X0537413Y0179119D02*
X0506598Y0179119D01*
X0506598Y0180717D02*
X0537413Y0180717D01*
X0537413Y0182316D02*
X0506598Y0182316D01*
X0506598Y0183914D02*
X0537413Y0183914D01*
X0537413Y0185513D02*
X0506598Y0185513D01*
X0506598Y0187111D02*
X0537413Y0187111D01*
X0537413Y0188710D02*
X0506598Y0188710D01*
X0506598Y0190308D02*
X0537413Y0190308D01*
X0537413Y0191907D02*
X0506598Y0191907D01*
X0506598Y0193505D02*
X0537413Y0193505D01*
X0537413Y0195104D02*
X0506598Y0195104D01*
X0506598Y0196702D02*
X0537413Y0196702D01*
X0537413Y0198301D02*
X0506598Y0198301D01*
X0506598Y0199899D02*
X0537413Y0199899D01*
X0537413Y0201498D02*
X0506598Y0201498D01*
X0506598Y0203096D02*
X0537413Y0203096D01*
X0537413Y0204695D02*
X0506598Y0204695D01*
X0506598Y0206293D02*
X0537413Y0206293D01*
X0537413Y0207892D02*
X0506598Y0207892D01*
X0506598Y0209490D02*
X0537413Y0209490D01*
X0537413Y0211089D02*
X0506598Y0211089D01*
X0506598Y0212687D02*
X0537413Y0212687D01*
X0537413Y0214286D02*
X0506598Y0214286D01*
X0506598Y0215884D02*
X0537413Y0215884D01*
X0537413Y0217483D02*
X0506598Y0217483D01*
X0506598Y0219081D02*
X0537413Y0219081D01*
X0537413Y0220680D02*
X0506598Y0220680D01*
X0506598Y0222279D02*
X0537413Y0222279D01*
X0537413Y0223877D02*
X0506598Y0223877D01*
X0506598Y0225476D02*
X0537413Y0225476D01*
X0537413Y0227074D02*
X0506598Y0227074D01*
X0506598Y0228673D02*
X0537413Y0228673D01*
X0537413Y0230271D02*
X0506598Y0230271D01*
X0506598Y0231870D02*
X0537413Y0231870D01*
X0537413Y0233468D02*
X0506598Y0233468D01*
X0506598Y0235067D02*
X0537413Y0235067D01*
X0537413Y0236665D02*
X0506598Y0236665D01*
X0506598Y0238264D02*
X0537413Y0238264D01*
X0537413Y0239862D02*
X0506598Y0239862D01*
X0506598Y0241461D02*
X0537413Y0241461D01*
X0537413Y0243059D02*
X0506598Y0243059D01*
X0506598Y0244658D02*
X0537413Y0244658D01*
X0537413Y0246256D02*
X0506598Y0246256D01*
X0506598Y0247855D02*
X0537413Y0247855D01*
X0537413Y0249453D02*
X0506598Y0249453D01*
X0506598Y0251052D02*
X0537413Y0251052D01*
X0537413Y0252650D02*
X0506598Y0252650D01*
X0506598Y0254249D02*
X0537413Y0254249D01*
X0537413Y0255847D02*
X0506598Y0255847D01*
X0506598Y0257446D02*
X0537413Y0257446D01*
X0537413Y0259044D02*
X0506598Y0259044D01*
X0506269Y0260643D02*
X0537413Y0260643D01*
X0537413Y0262241D02*
X0505841Y0262241D01*
X0505207Y0263840D02*
X0537413Y0263840D01*
X0537413Y0265438D02*
X0504284Y0265438D01*
X0503157Y0267037D02*
X0537413Y0267037D01*
X0537413Y0268635D02*
X0501558Y0268635D01*
X0499960Y0270234D02*
X0537413Y0270234D01*
X0537413Y0271832D02*
X0498361Y0271832D01*
X0496763Y0273431D02*
X0537413Y0273431D01*
X0537413Y0275029D02*
X0495164Y0275029D01*
X0493566Y0276628D02*
X0537413Y0276628D01*
X0537413Y0278226D02*
X0491967Y0278226D01*
X0490369Y0279825D02*
X0537413Y0279825D01*
X0537413Y0281423D02*
X0488770Y0281423D01*
X0487171Y0283022D02*
X0537413Y0283022D01*
X0537413Y0284620D02*
X0485573Y0284620D01*
X0483974Y0286219D02*
X0537413Y0286219D01*
X0537413Y0287817D02*
X0482376Y0287817D01*
X0480777Y0289416D02*
X0537413Y0289416D01*
X0537413Y0291015D02*
X0479179Y0291015D01*
X0477580Y0292613D02*
X0537413Y0292613D01*
X0537413Y0294212D02*
X0475982Y0294212D01*
X0474383Y0295810D02*
X0537413Y0295810D01*
X0537413Y0297409D02*
X0472785Y0297409D01*
X0471186Y0299007D02*
X0537413Y0299007D01*
X0537413Y0300606D02*
X0469588Y0300606D01*
X0467989Y0302204D02*
X0537413Y0302204D01*
X0537413Y0303803D02*
X0466391Y0303803D01*
X0464792Y0305401D02*
X0537413Y0305401D01*
X0537413Y0307000D02*
X0463194Y0307000D01*
X0461595Y0308598D02*
X0537413Y0308598D01*
X0537413Y0310197D02*
X0459997Y0310197D01*
X0458398Y0311795D02*
X0537413Y0311795D01*
X0537413Y0313394D02*
X0456800Y0313394D01*
X0455201Y0314992D02*
X0537413Y0314992D01*
X0537413Y0316591D02*
X0453603Y0316591D01*
X0452004Y0318189D02*
X0537413Y0318189D01*
X0537413Y0319788D02*
X0450406Y0319788D01*
X0448807Y0321386D02*
X0537413Y0321386D01*
X0537413Y0322985D02*
X0447209Y0322985D01*
X0445610Y0324583D02*
X0537413Y0324583D01*
X0537413Y0326182D02*
X0444012Y0326182D01*
X0442413Y0327780D02*
X0537413Y0327780D01*
X0537413Y0329379D02*
X0440815Y0329379D01*
X0439216Y0330977D02*
X0537413Y0330977D01*
X0537413Y0332576D02*
X0437618Y0332576D01*
X0436019Y0334174D02*
X0537413Y0334174D01*
X0537413Y0335773D02*
X0434421Y0335773D01*
X0432822Y0337371D02*
X0537413Y0337371D01*
X0537413Y0338970D02*
X0431224Y0338970D01*
X0428702Y0340568D02*
X0537413Y0340568D01*
X0537413Y0342167D02*
X0424112Y0342167D01*
X0358098Y0311795D02*
X0317059Y0311795D01*
X0316598Y0310197D02*
X0354251Y0310197D01*
X0352002Y0308598D02*
X0316598Y0308598D01*
X0316598Y0307000D02*
X0327714Y0307000D01*
X0327823Y0307063D02*
X0325474Y0305707D01*
X0323556Y0303789D01*
X0322200Y0301440D01*
X0321498Y0298821D01*
X0321498Y0296109D01*
X0322200Y0293489D01*
X0323556Y0291140D01*
X0325474Y0289223D01*
X0327823Y0287867D01*
X0330442Y0287165D01*
X0333155Y0287165D01*
X0335774Y0287867D01*
X0338123Y0289223D01*
X0340041Y0291140D01*
X0341397Y0293489D01*
X0342098Y0296109D01*
X0342098Y0298821D01*
X0341397Y0301440D01*
X0340041Y0303789D01*
X0338123Y0305707D01*
X0335774Y0307063D01*
X0333155Y0307765D01*
X0330442Y0307765D01*
X0327823Y0307063D01*
X0325169Y0305401D02*
X0316598Y0305401D01*
X0316598Y0303803D02*
X0323570Y0303803D01*
X0322641Y0302204D02*
X0316598Y0302204D01*
X0316598Y0300606D02*
X0321977Y0300606D01*
X0321548Y0299007D02*
X0316598Y0299007D01*
X0316598Y0297409D02*
X0321498Y0297409D01*
X0321578Y0295810D02*
X0316598Y0295810D01*
X0316598Y0294212D02*
X0322007Y0294212D01*
X0322706Y0292613D02*
X0316598Y0292613D01*
X0316598Y0291015D02*
X0323682Y0291015D01*
X0325281Y0289416D02*
X0316598Y0289416D01*
X0316598Y0287817D02*
X0328006Y0287817D01*
X0335591Y0287817D02*
X0346998Y0287817D01*
X0346998Y0286219D02*
X0316598Y0286219D01*
X0316598Y0284620D02*
X0346998Y0284620D01*
X0346998Y0283022D02*
X0316598Y0283022D01*
X0316598Y0281423D02*
X0346998Y0281423D01*
X0346998Y0279825D02*
X0316598Y0279825D01*
X0316598Y0278226D02*
X0346998Y0278226D01*
X0346998Y0276628D02*
X0316598Y0276628D01*
X0316598Y0275029D02*
X0346998Y0275029D01*
X0346998Y0273431D02*
X0316598Y0273431D01*
X0316598Y0271832D02*
X0346998Y0271832D01*
X0346998Y0270234D02*
X0316598Y0270234D01*
X0316598Y0268635D02*
X0346998Y0268635D01*
X0346998Y0267037D02*
X0318157Y0267037D01*
X0319755Y0265438D02*
X0346998Y0265438D01*
X0346998Y0263840D02*
X0321354Y0263840D01*
X0322952Y0262241D02*
X0346998Y0262241D01*
X0346998Y0260643D02*
X0324551Y0260643D01*
X0326149Y0259044D02*
X0347393Y0259044D01*
X0347821Y0257446D02*
X0327748Y0257446D01*
X0329346Y0255847D02*
X0348529Y0255847D01*
X0349452Y0254249D02*
X0330945Y0254249D01*
X0332543Y0252650D02*
X0350683Y0252650D01*
X0352281Y0251052D02*
X0334142Y0251052D01*
X0335740Y0249453D02*
X0353880Y0249453D01*
X0355478Y0247855D02*
X0337339Y0247855D01*
X0338937Y0246256D02*
X0357077Y0246256D01*
X0358675Y0244658D02*
X0340536Y0244658D01*
X0342134Y0243059D02*
X0360274Y0243059D01*
X0361872Y0241461D02*
X0343694Y0241461D01*
X0344617Y0239862D02*
X0363471Y0239862D01*
X0365069Y0238264D02*
X0345540Y0238264D01*
X0345995Y0236665D02*
X0366668Y0236665D01*
X0368266Y0235067D02*
X0346423Y0235067D01*
X0346598Y0233468D02*
X0369865Y0233468D01*
X0371463Y0231870D02*
X0346598Y0231870D01*
X0346533Y0230271D02*
X0373062Y0230271D01*
X0374660Y0228673D02*
X0346104Y0228673D01*
X0345676Y0227074D02*
X0376259Y0227074D01*
X0377857Y0225476D02*
X0344853Y0225476D01*
X0343930Y0223877D02*
X0379456Y0223877D01*
X0381054Y0222279D02*
X0342543Y0222279D01*
X0340944Y0220680D02*
X0382653Y0220680D01*
X0384251Y0219081D02*
X0338218Y0219081D01*
X0325379Y0219081D02*
X0286568Y0219081D01*
X0286823Y0217483D02*
X0385850Y0217483D01*
X0387448Y0215884D02*
X0286583Y0215884D01*
X0285726Y0214286D02*
X0389047Y0214286D01*
X0390645Y0212687D02*
X0283396Y0212687D01*
X0280201Y0212687D02*
X0249970Y0212687D01*
X0251568Y0211089D02*
X0392244Y0211089D01*
X0393842Y0209490D02*
X0253167Y0209490D01*
X0254765Y0207892D02*
X0395441Y0207892D01*
X0396998Y0206293D02*
X0256364Y0206293D01*
X0257962Y0204695D02*
X0396998Y0204695D01*
X0396998Y0203096D02*
X0259561Y0203096D01*
X0261159Y0201498D02*
X0396998Y0201498D01*
X0396998Y0199899D02*
X0262758Y0199899D01*
X0264356Y0198301D02*
X0396998Y0198301D01*
X0396998Y0196702D02*
X0265955Y0196702D01*
X0267553Y0195104D02*
X0396998Y0195104D01*
X0396998Y0193505D02*
X0269152Y0193505D01*
X0270750Y0191907D02*
X0396998Y0191907D01*
X0396998Y0190308D02*
X0272349Y0190308D01*
X0273947Y0188710D02*
X0396998Y0188710D01*
X0396998Y0187111D02*
X0275546Y0187111D01*
X0277144Y0185513D02*
X0396998Y0185513D01*
X0396998Y0183914D02*
X0278743Y0183914D01*
X0280341Y0182316D02*
X0280379Y0182316D01*
X0283218Y0182316D02*
X0396998Y0182316D01*
X0396998Y0180717D02*
X0285652Y0180717D01*
X0286552Y0179119D02*
X0396998Y0179119D01*
X0396998Y0177520D02*
X0286823Y0177520D01*
X0286598Y0175922D02*
X0335507Y0175922D01*
X0336086Y0176256D02*
X0332711Y0174308D01*
X0329956Y0171552D01*
X0328007Y0168177D01*
X0326998Y0164413D01*
X0326998Y0130516D01*
X0328007Y0126752D01*
X0329956Y0123377D01*
X0332711Y0120622D01*
X0351373Y0101960D01*
X0354747Y0100012D01*
X0358511Y0099003D01*
X0362408Y0099003D01*
X0381188Y0099003D01*
X0384952Y0100012D01*
X0388327Y0101960D01*
X0391082Y0104716D01*
X0393031Y0108091D01*
X0394039Y0111855D01*
X0394039Y0115752D01*
X0393031Y0119516D01*
X0391082Y0122891D01*
X0388327Y0125646D01*
X0384952Y0127595D01*
X0381188Y0128603D01*
X0366590Y0128603D01*
X0356598Y0138595D01*
X0356598Y0164413D01*
X0355590Y0168177D01*
X0353641Y0171552D01*
X0350886Y0174308D01*
X0347511Y0176256D01*
X0343747Y0177265D01*
X0339850Y0177265D01*
X0336086Y0176256D01*
X0332738Y0174323D02*
X0285763Y0174323D01*
X0283486Y0172725D02*
X0331128Y0172725D01*
X0329710Y0171126D02*
X0198887Y0171126D01*
X0198641Y0171552D02*
X0195886Y0174308D01*
X0192511Y0176256D01*
X0188747Y0177265D01*
X0184850Y0177265D01*
X0181086Y0176256D01*
X0177711Y0174308D01*
X0157396Y0153993D01*
X0155448Y0150618D01*
X0154439Y0146854D01*
X0154439Y0142957D01*
X0154439Y0111855D01*
X0155448Y0108091D01*
X0157396Y0104716D01*
X0160152Y0101960D01*
X0163527Y0100012D01*
X0167291Y0099003D01*
X0171188Y0099003D01*
X0174952Y0100012D01*
X0178327Y0101960D01*
X0181082Y0104716D01*
X0183031Y0108091D01*
X0184039Y0111855D01*
X0184039Y0138775D01*
X0198641Y0153377D01*
X0200590Y0156752D01*
X0201598Y0160516D01*
X0201598Y0164413D01*
X0200590Y0168177D01*
X0198641Y0171552D01*
X0197469Y0172725D02*
X0280111Y0172725D01*
X0277833Y0174323D02*
X0195859Y0174323D01*
X0193090Y0175922D02*
X0276999Y0175922D01*
X0276773Y0177520D02*
X0131823Y0177520D01*
X0131823Y0178464D02*
X0131058Y0180311D01*
X0129645Y0181725D01*
X0127798Y0182490D01*
X0125799Y0182490D01*
X0123952Y0181725D01*
X0122539Y0180311D01*
X0121773Y0178464D01*
X0121773Y0176465D01*
X0122539Y0174618D01*
X0123952Y0173205D01*
X0125799Y0172440D01*
X0127798Y0172440D01*
X0129645Y0173205D01*
X0131058Y0174618D01*
X0131823Y0176465D01*
X0131823Y0178464D01*
X0131552Y0179119D02*
X0276750Y0179119D01*
X0275152Y0180717D02*
X0130652Y0180717D01*
X0128218Y0182316D02*
X0273553Y0182316D01*
X0271955Y0183914D02*
X0056173Y0183914D01*
X0056173Y0183813D02*
X0056173Y0184158D01*
X0056173Y0184502D01*
X0056066Y0185182D01*
X0055853Y0185837D01*
X0055540Y0186451D01*
X0055135Y0187008D01*
X0054648Y0187495D01*
X0054091Y0187899D01*
X0053478Y0188212D01*
X0052823Y0188425D01*
X0052143Y0188533D01*
X0051799Y0188533D01*
X0051799Y0184158D01*
X0056173Y0184158D01*
X0051799Y0184158D01*
X0051799Y0184158D01*
X0051798Y0184158D01*
X0051798Y0184158D01*
X0047424Y0184158D01*
X0047424Y0184502D01*
X0047531Y0185182D01*
X0047744Y0185837D01*
X0048057Y0186451D01*
X0048462Y0187008D01*
X0048948Y0187495D01*
X0049506Y0187899D01*
X0050119Y0188212D01*
X0050774Y0188425D01*
X0051454Y0188533D01*
X0051798Y0188533D01*
X0051798Y0184158D01*
X0047424Y0184158D01*
X0047424Y0183813D01*
X0047531Y0183133D01*
X0047744Y0182478D01*
X0048057Y0181865D01*
X0048462Y0181308D01*
X0048948Y0180821D01*
X0049506Y0180416D01*
X0050119Y0180104D01*
X0050774Y0179891D01*
X0051454Y0179783D01*
X0051798Y0179783D01*
X0051798Y0184158D01*
X0051799Y0184158D01*
X0051799Y0179783D01*
X0052143Y0179783D01*
X0052823Y0179891D01*
X0053478Y0180104D01*
X0054091Y0180416D01*
X0054648Y0180821D01*
X0055135Y0181308D01*
X0055540Y0181865D01*
X0055853Y0182478D01*
X0056066Y0183133D01*
X0056173Y0183813D01*
X0055770Y0182316D02*
X0125379Y0182316D01*
X0122945Y0180717D02*
X0054506Y0180717D01*
X0051799Y0180717D02*
X0051798Y0180717D01*
X0051798Y0182316D02*
X0051799Y0182316D01*
X0051798Y0183914D02*
X0051799Y0183914D01*
X0051798Y0185513D02*
X0051799Y0185513D01*
X0051798Y0187111D02*
X0051799Y0187111D01*
X0055032Y0187111D02*
X0268758Y0187111D01*
X0270356Y0185513D02*
X0055958Y0185513D01*
X0053937Y0190308D02*
X0265561Y0190308D01*
X0267159Y0188710D02*
X0033730Y0188710D01*
X0033730Y0190308D02*
X0039660Y0190308D01*
X0039320Y0190449D02*
X0040928Y0189783D01*
X0042669Y0189783D01*
X0044277Y0190449D01*
X0045507Y0191680D01*
X0046173Y0193288D01*
X0046173Y0195028D01*
X0045507Y0196636D01*
X0044277Y0197867D01*
X0042669Y0198533D01*
X0040928Y0198533D01*
X0039320Y0197867D01*
X0038090Y0196636D01*
X0037424Y0195028D01*
X0037424Y0193288D01*
X0038090Y0191680D01*
X0039320Y0190449D01*
X0037996Y0191907D02*
X0033730Y0191907D01*
X0033730Y0193505D02*
X0037424Y0193505D01*
X0037455Y0195104D02*
X0033730Y0195104D01*
X0033730Y0196702D02*
X0038156Y0196702D01*
X0040369Y0198301D02*
X0033730Y0198301D01*
X0033730Y0199899D02*
X0040747Y0199899D01*
X0040774Y0199891D02*
X0041454Y0199783D01*
X0041798Y0199783D01*
X0041798Y0204158D01*
X0041798Y0204158D01*
X0037424Y0204158D01*
X0037424Y0204502D01*
X0037531Y0205182D01*
X0037744Y0205837D01*
X0038057Y0206451D01*
X0038462Y0207008D01*
X0038948Y0207495D01*
X0039506Y0207899D01*
X0040119Y0208212D01*
X0040774Y0208425D01*
X0041454Y0208533D01*
X0041798Y0208533D01*
X0041798Y0204158D01*
X0041799Y0204158D01*
X0046173Y0204158D01*
X0046173Y0204502D01*
X0046066Y0205182D01*
X0045853Y0205837D01*
X0045540Y0206451D01*
X0045135Y0207008D01*
X0044648Y0207495D01*
X0044091Y0207899D01*
X0043478Y0208212D01*
X0042823Y0208425D01*
X0042143Y0208533D01*
X0041799Y0208533D01*
X0041799Y0204158D01*
X0041799Y0204158D01*
X0046173Y0204158D01*
X0046173Y0203813D01*
X0046066Y0203133D01*
X0045853Y0202478D01*
X0045540Y0201865D01*
X0045135Y0201308D01*
X0044648Y0200821D01*
X0044091Y0200416D01*
X0043478Y0200104D01*
X0042823Y0199891D01*
X0042143Y0199783D01*
X0041799Y0199783D01*
X0041799Y0204158D01*
X0041798Y0204158D01*
X0037424Y0204158D01*
X0037424Y0203813D01*
X0037531Y0203133D01*
X0037744Y0202478D01*
X0038057Y0201865D01*
X0038462Y0201308D01*
X0038948Y0200821D01*
X0039506Y0200416D01*
X0040119Y0200104D01*
X0040774Y0199891D01*
X0041798Y0199899D02*
X0041799Y0199899D01*
X0042850Y0199899D02*
X0050647Y0199899D01*
X0050928Y0199783D02*
X0052669Y0199783D01*
X0054277Y0200449D01*
X0055507Y0201680D01*
X0056173Y0203288D01*
X0056173Y0205028D01*
X0055507Y0206636D01*
X0054277Y0207867D01*
X0052669Y0208533D01*
X0050928Y0208533D01*
X0049320Y0207867D01*
X0048090Y0206636D01*
X0047424Y0205028D01*
X0047424Y0203288D01*
X0048090Y0201680D01*
X0049320Y0200449D01*
X0050928Y0199783D01*
X0050369Y0198301D02*
X0043228Y0198301D01*
X0045441Y0196702D02*
X0048156Y0196702D01*
X0047455Y0195104D02*
X0046142Y0195104D01*
X0046173Y0193505D02*
X0047424Y0193505D01*
X0047996Y0191907D02*
X0045601Y0191907D01*
X0043937Y0190308D02*
X0049660Y0190308D01*
X0048565Y0187111D02*
X0045032Y0187111D01*
X0045507Y0186636D02*
X0044277Y0187867D01*
X0042669Y0188533D01*
X0040928Y0188533D01*
X0039320Y0187867D01*
X0038090Y0186636D01*
X0037424Y0185028D01*
X0037424Y0183288D01*
X0038090Y0181680D01*
X0039320Y0180449D01*
X0040928Y0179783D01*
X0042669Y0179783D01*
X0044277Y0180449D01*
X0045507Y0181680D01*
X0046173Y0183288D01*
X0046173Y0185028D01*
X0045507Y0186636D01*
X0045973Y0185513D02*
X0047639Y0185513D01*
X0047424Y0183914D02*
X0046173Y0183914D01*
X0045771Y0182316D02*
X0047827Y0182316D01*
X0049091Y0180717D02*
X0044545Y0180717D01*
X0044623Y0177520D02*
X0048974Y0177520D01*
X0049320Y0177867D02*
X0048090Y0176636D01*
X0047424Y0175028D01*
X0047424Y0173288D01*
X0048090Y0171680D01*
X0049320Y0170449D01*
X0050928Y0169783D01*
X0052336Y0169783D01*
X0054560Y0167559D01*
X0054091Y0167899D01*
X0053478Y0168212D01*
X0052823Y0168425D01*
X0052143Y0168533D01*
X0051799Y0168533D01*
X0051799Y0164158D01*
X0056173Y0164158D01*
X0056173Y0164502D01*
X0056066Y0165182D01*
X0055853Y0165837D01*
X0055540Y0166451D01*
X0055200Y0166919D01*
X0056898Y0165220D01*
X0056898Y0077365D01*
X0047571Y0077365D01*
X0046689Y0076999D01*
X0040439Y0070749D01*
X0039764Y0070074D01*
X0039398Y0069192D01*
X0039398Y0061987D01*
X0039719Y0061213D01*
X0039253Y0061406D01*
X0037344Y0061406D01*
X0035580Y0060676D01*
X0034229Y0059325D01*
X0033498Y0057561D01*
X0033498Y0055652D01*
X0034229Y0053887D01*
X0035580Y0052537D01*
X0037344Y0051806D01*
X0039253Y0051806D01*
X0041017Y0052537D01*
X0042368Y0053887D01*
X0042423Y0054022D01*
X0042479Y0053887D01*
X0043830Y0052537D01*
X0045594Y0051806D01*
X0047503Y0051806D01*
X0049267Y0052537D01*
X0050618Y0053887D01*
X0050699Y0054083D01*
X0051137Y0053479D01*
X0051672Y0052945D01*
X0052283Y0052501D01*
X0052956Y0052158D01*
X0053674Y0051925D01*
X0054421Y0051806D01*
X0054598Y0051806D01*
X0054598Y0056406D01*
X0054998Y0056406D01*
X0054998Y0051806D01*
X0055176Y0051806D01*
X0055923Y0051925D01*
X0056641Y0052158D01*
X0057314Y0052501D01*
X0057925Y0052945D01*
X0058460Y0053479D01*
X0058898Y0054083D01*
X0058979Y0053887D01*
X0060330Y0052537D01*
X0062094Y0051806D01*
X0064003Y0051806D01*
X0065767Y0052537D01*
X0067118Y0053887D01*
X0067173Y0054022D01*
X0067229Y0053887D01*
X0068580Y0052537D01*
X0070344Y0051806D01*
X0072253Y0051806D01*
X0074017Y0052537D01*
X0075368Y0053887D01*
X0076098Y0055652D01*
X0076098Y0057561D01*
X0075368Y0059325D01*
X0074017Y0060676D01*
X0072253Y0061406D01*
X0070344Y0061406D01*
X0068580Y0060676D01*
X0067229Y0059325D01*
X0067173Y0059191D01*
X0067118Y0059325D01*
X0065767Y0060676D01*
X0064003Y0061406D01*
X0062094Y0061406D01*
X0060330Y0060676D01*
X0058979Y0059325D01*
X0058898Y0059130D01*
X0058460Y0059733D01*
X0057925Y0060268D01*
X0057314Y0060712D01*
X0056641Y0061055D01*
X0055923Y0061288D01*
X0055176Y0061406D01*
X0054998Y0061406D01*
X0054998Y0056806D01*
X0054598Y0056806D01*
X0054598Y0061406D01*
X0054421Y0061406D01*
X0053674Y0061288D01*
X0052956Y0061055D01*
X0052283Y0060712D01*
X0051672Y0060268D01*
X0051137Y0059733D01*
X0050699Y0059130D01*
X0050618Y0059325D01*
X0049267Y0060676D01*
X0047503Y0061406D01*
X0047501Y0061406D01*
X0046908Y0061999D01*
X0046437Y0062470D01*
X0047701Y0062993D01*
X0048523Y0063815D01*
X0054776Y0063815D01*
X0055658Y0064180D01*
X0056333Y0064855D01*
X0056333Y0064855D01*
X0082643Y0091165D01*
X0083804Y0091165D01*
X0085201Y0091743D01*
X0086270Y0092812D01*
X0086848Y0094209D01*
X0086848Y0095720D01*
X0086270Y0097117D01*
X0085201Y0098186D01*
X0083804Y0098765D01*
X0082293Y0098765D01*
X0080896Y0098186D01*
X0079827Y0097117D01*
X0079248Y0095720D01*
X0079248Y0094559D01*
X0061698Y0077009D01*
X0061698Y0166692D01*
X0061333Y0167574D01*
X0060658Y0168249D01*
X0056011Y0172896D01*
X0056173Y0173288D01*
X0056173Y0175028D01*
X0055507Y0176636D01*
X0054277Y0177867D01*
X0052669Y0178533D01*
X0050928Y0178533D01*
X0049320Y0177867D01*
X0047794Y0175922D02*
X0045803Y0175922D01*
X0046173Y0174323D02*
X0047424Y0174323D01*
X0047657Y0172725D02*
X0045940Y0172725D01*
X0044954Y0171126D02*
X0048643Y0171126D01*
X0050119Y0168212D02*
X0049506Y0167899D01*
X0048948Y0167495D01*
X0048462Y0167008D01*
X0048057Y0166451D01*
X0047744Y0165837D01*
X0047531Y0165182D01*
X0047424Y0164502D01*
X0047424Y0164158D01*
X0051798Y0164158D01*
X0051798Y0164158D01*
X0051798Y0168533D01*
X0051454Y0168533D01*
X0050774Y0168425D01*
X0050119Y0168212D01*
X0049564Y0167929D02*
X0044126Y0167929D01*
X0045634Y0166331D02*
X0047996Y0166331D01*
X0047460Y0164732D02*
X0046173Y0164732D01*
X0047424Y0164158D02*
X0047424Y0163813D01*
X0047531Y0163133D01*
X0047744Y0162478D01*
X0048057Y0161865D01*
X0048462Y0161308D01*
X0048948Y0160821D01*
X0049506Y0160416D01*
X0050119Y0160104D01*
X0050774Y0159891D01*
X0051454Y0159783D01*
X0051798Y0159783D01*
X0051798Y0164158D01*
X0051799Y0164158D01*
X0051799Y0164158D01*
X0056173Y0164158D01*
X0056173Y0163813D01*
X0056066Y0163133D01*
X0055853Y0162478D01*
X0055540Y0161865D01*
X0055135Y0161308D01*
X0054648Y0160821D01*
X0054091Y0160416D01*
X0053478Y0160104D01*
X0052823Y0159891D01*
X0052143Y0159783D01*
X0051799Y0159783D01*
X0051799Y0164158D01*
X0051798Y0164158D01*
X0047424Y0164158D01*
X0047531Y0163134D02*
X0046109Y0163134D01*
X0045363Y0161535D02*
X0048296Y0161535D01*
X0050633Y0159937D02*
X0043039Y0159937D01*
X0043138Y0158338D02*
X0050459Y0158338D01*
X0050928Y0158533D02*
X0049320Y0157867D01*
X0048090Y0156636D01*
X0047424Y0155028D01*
X0047424Y0153288D01*
X0048090Y0151680D01*
X0049320Y0150449D01*
X0050928Y0149783D01*
X0052669Y0149783D01*
X0054277Y0150449D01*
X0055507Y0151680D01*
X0056173Y0153288D01*
X0056173Y0155028D01*
X0055507Y0156636D01*
X0054277Y0157867D01*
X0052669Y0158533D01*
X0050928Y0158533D01*
X0051798Y0159937D02*
X0051799Y0159937D01*
X0052964Y0159937D02*
X0056898Y0159937D01*
X0056898Y0161535D02*
X0055301Y0161535D01*
X0056066Y0163134D02*
X0056898Y0163134D01*
X0056898Y0164732D02*
X0056137Y0164732D01*
X0055788Y0166331D02*
X0055601Y0166331D01*
X0054190Y0167929D02*
X0054033Y0167929D01*
X0052591Y0169528D02*
X0028398Y0169528D01*
X0025798Y0161117D02*
X0025798Y0367430D01*
X0046129Y0387761D01*
X0076788Y0387761D01*
X0081166Y0386925D02*
X0082417Y0386925D01*
X0082417Y0388524D02*
X0081565Y0388524D01*
X0080547Y0385327D02*
X0083036Y0385327D01*
X0084634Y0383728D02*
X0078949Y0383728D01*
X0074634Y0383728D02*
X0045773Y0383728D01*
X0044174Y0382130D02*
X0148739Y0382130D01*
X0147153Y0383716D02*
X0151689Y0379180D01*
X0152571Y0378815D01*
X0211026Y0378815D01*
X0211908Y0379180D01*
X0212583Y0379855D01*
X0216111Y0383383D01*
X0219256Y0383383D01*
X0221200Y0385327D02*
X0223688Y0385327D01*
X0223069Y0386925D02*
X0221819Y0386925D01*
X0221819Y0388524D02*
X0223069Y0388524D01*
X0223622Y0390122D02*
X0221267Y0390122D01*
X0219668Y0391721D02*
X0225220Y0391721D01*
X0215220Y0391721D02*
X0169675Y0391721D01*
X0168930Y0392466D02*
X0165306Y0392466D01*
X0162743Y0389903D01*
X0162743Y0386279D01*
X0165306Y0383716D01*
X0168930Y0383716D01*
X0171493Y0386279D01*
X0171493Y0389903D01*
X0168930Y0392466D01*
X0171274Y0390122D02*
X0213622Y0390122D01*
X0213069Y0388524D02*
X0171493Y0388524D01*
X0171493Y0386925D02*
X0212865Y0386925D01*
X0211266Y0385327D02*
X0170540Y0385327D01*
X0168942Y0383728D02*
X0209668Y0383728D01*
X0213259Y0380531D02*
X0537413Y0380531D01*
X0537413Y0378933D02*
X0211311Y0378933D01*
X0214858Y0382130D02*
X0537413Y0382130D01*
X0537413Y0383728D02*
X0239601Y0383728D01*
X0241200Y0385327D02*
X0537413Y0385327D01*
X0537413Y0386925D02*
X0241819Y0386925D01*
X0241819Y0388524D02*
X0537413Y0388524D01*
X0537413Y0390122D02*
X0241267Y0390122D01*
X0239668Y0391721D02*
X0537413Y0391721D01*
X0537413Y0393319D02*
X0145567Y0393319D01*
X0143968Y0394918D02*
X0537413Y0394918D01*
X0537413Y0396516D02*
X0142370Y0396516D01*
X0140771Y0398115D02*
X0537413Y0398115D01*
X0537413Y0399713D02*
X0001800Y0399713D01*
X0001800Y0398115D02*
X0083802Y0398115D01*
X0082204Y0396516D02*
X0001800Y0396516D01*
X0001800Y0394918D02*
X0080605Y0394918D01*
X0079007Y0393319D02*
X0001800Y0393319D01*
X0001800Y0401312D02*
X0537413Y0401312D01*
X0537413Y0402910D02*
X0001800Y0402910D01*
X0001800Y0404509D02*
X0537413Y0404509D01*
X0537413Y0406107D02*
X0001800Y0406107D01*
X0001800Y0407706D02*
X0537413Y0407706D01*
X0537413Y0409304D02*
X0001800Y0409304D01*
X0001800Y0430085D02*
X0125435Y0430085D01*
X0127033Y0431684D02*
X0001800Y0431684D01*
X0001800Y0433282D02*
X0128632Y0433282D01*
X0130230Y0434881D02*
X0001800Y0434881D01*
X0001800Y0436479D02*
X0131829Y0436479D01*
X0133427Y0438078D02*
X0001800Y0438078D01*
X0001800Y0439676D02*
X0135026Y0439676D01*
X0136624Y0441275D02*
X0001800Y0441275D01*
X0001800Y0442873D02*
X0138223Y0442873D01*
X0149276Y0454063D02*
X0149412Y0454063D01*
X0150875Y0455661D02*
X0151011Y0455661D01*
X0151493Y0457260D02*
X0152609Y0457260D01*
X0152743Y0458858D02*
X0151493Y0458858D01*
X0150939Y0460457D02*
X0153296Y0460457D01*
X0154895Y0462055D02*
X0149341Y0462055D01*
X0157118Y0458091D02*
X0113785Y0414759D01*
X0094457Y0414759D01*
X0094979Y0392133D02*
X0092417Y0389570D01*
X0092417Y0385946D01*
X0094979Y0383383D01*
X0098604Y0383383D01*
X0101166Y0385946D01*
X0101166Y0389570D01*
X0098604Y0392133D01*
X0094979Y0392133D01*
X0094567Y0391721D02*
X0089016Y0391721D01*
X0090614Y0390122D02*
X0092969Y0390122D01*
X0092417Y0388524D02*
X0091166Y0388524D01*
X0091166Y0386925D02*
X0092417Y0386925D01*
X0093036Y0385327D02*
X0090547Y0385327D01*
X0088949Y0383728D02*
X0094634Y0383728D01*
X0098949Y0383728D02*
X0145294Y0383728D01*
X0143695Y0385327D02*
X0100547Y0385327D01*
X0101166Y0386925D02*
X0142743Y0386925D01*
X0142743Y0388524D02*
X0101166Y0388524D01*
X0100614Y0390122D02*
X0141410Y0390122D01*
X0139811Y0391721D02*
X0099016Y0391721D01*
X0086361Y0393319D02*
X0138213Y0393319D01*
X0149675Y0391721D02*
X0154560Y0391721D01*
X0155306Y0392466D02*
X0152743Y0389903D01*
X0152743Y0386279D01*
X0155306Y0383716D01*
X0158930Y0383716D01*
X0161493Y0386279D01*
X0161493Y0389903D01*
X0158930Y0392466D01*
X0155306Y0392466D01*
X0152962Y0390122D02*
X0151274Y0390122D01*
X0151493Y0388524D02*
X0152743Y0388524D01*
X0152743Y0386925D02*
X0151493Y0386925D01*
X0152331Y0385327D02*
X0153695Y0385327D01*
X0153929Y0383728D02*
X0155294Y0383728D01*
X0158942Y0383728D02*
X0165294Y0383728D01*
X0163695Y0385327D02*
X0160540Y0385327D01*
X0161493Y0386925D02*
X0162743Y0386925D01*
X0162743Y0388524D02*
X0161493Y0388524D01*
X0161274Y0390122D02*
X0162962Y0390122D01*
X0164560Y0391721D02*
X0159675Y0391721D01*
X0150338Y0380531D02*
X0042576Y0380531D01*
X0040977Y0378933D02*
X0067372Y0378933D01*
X0065774Y0377334D02*
X0039379Y0377334D01*
X0037780Y0375736D02*
X0064175Y0375736D01*
X0062577Y0374137D02*
X0036182Y0374137D01*
X0034583Y0372539D02*
X0060978Y0372539D01*
X0059380Y0370940D02*
X0048035Y0370940D01*
X0049151Y0369342D02*
X0057781Y0369342D01*
X0056183Y0367743D02*
X0049535Y0367743D01*
X0049382Y0366145D02*
X0054584Y0366145D01*
X0052986Y0364546D02*
X0048592Y0364546D01*
X0046322Y0362948D02*
X0051387Y0362948D01*
X0049789Y0361349D02*
X0047626Y0361349D01*
X0051603Y0356553D02*
X0057493Y0356553D01*
X0055895Y0354955D02*
X0048889Y0354955D01*
X0047310Y0353356D02*
X0054296Y0353356D01*
X0057887Y0350159D02*
X0060178Y0350159D01*
X0059486Y0351758D02*
X0061776Y0351758D01*
X0061084Y0353356D02*
X0063375Y0353356D01*
X0064056Y0354955D02*
X0062683Y0354955D01*
X0064281Y0356553D02*
X0064901Y0356553D01*
X0065880Y0358152D02*
X0068967Y0358152D01*
X0071531Y0354955D02*
X0072164Y0354955D01*
X0071574Y0353356D02*
X0073763Y0353356D01*
X0075361Y0351758D02*
X0070801Y0351758D01*
X0067532Y0350159D02*
X0076960Y0350159D01*
X0078558Y0348561D02*
X0065933Y0348561D01*
X0064335Y0346962D02*
X0080157Y0346962D01*
X0081755Y0345364D02*
X0062736Y0345364D01*
X0061138Y0343765D02*
X0083354Y0343765D01*
X0084398Y0342167D02*
X0059539Y0342167D01*
X0057941Y0340568D02*
X0084398Y0340568D01*
X0084398Y0338970D02*
X0055976Y0338970D01*
X0055128Y0341433D02*
X0048462Y0341433D01*
X0031130Y0324101D01*
X0031130Y0184826D01*
X0041798Y0174158D01*
X0040515Y0179119D02*
X0122045Y0179119D01*
X0121773Y0177520D02*
X0054623Y0177520D01*
X0055803Y0175922D02*
X0121999Y0175922D01*
X0122833Y0174323D02*
X0056173Y0174323D01*
X0056183Y0172725D02*
X0125111Y0172725D01*
X0128486Y0172725D02*
X0176128Y0172725D01*
X0174530Y0171126D02*
X0057781Y0171126D01*
X0059380Y0169528D02*
X0172931Y0169528D01*
X0171333Y0167929D02*
X0060978Y0167929D01*
X0061698Y0166331D02*
X0169734Y0166331D01*
X0168136Y0164732D02*
X0061698Y0164732D01*
X0061698Y0163134D02*
X0166537Y0163134D01*
X0164939Y0161535D02*
X0061698Y0161535D01*
X0061698Y0159937D02*
X0163340Y0159937D01*
X0161742Y0158338D02*
X0061698Y0158338D01*
X0061698Y0156740D02*
X0160143Y0156740D01*
X0158545Y0155141D02*
X0061698Y0155141D01*
X0061698Y0153543D02*
X0157136Y0153543D01*
X0156214Y0151944D02*
X0061698Y0151944D01*
X0061698Y0150346D02*
X0155375Y0150346D01*
X0154947Y0148747D02*
X0061698Y0148747D01*
X0061698Y0147148D02*
X0154518Y0147148D01*
X0154439Y0145550D02*
X0061698Y0145550D01*
X0061698Y0143951D02*
X0154439Y0143951D01*
X0154439Y0142353D02*
X0061698Y0142353D01*
X0061698Y0140754D02*
X0154439Y0140754D01*
X0154439Y0139156D02*
X0061698Y0139156D01*
X0061698Y0137557D02*
X0154439Y0137557D01*
X0154439Y0135959D02*
X0061698Y0135959D01*
X0061698Y0134360D02*
X0154439Y0134360D01*
X0154439Y0132762D02*
X0061698Y0132762D01*
X0061698Y0131163D02*
X0154439Y0131163D01*
X0154439Y0129565D02*
X0061698Y0129565D01*
X0061698Y0127966D02*
X0154439Y0127966D01*
X0154439Y0126368D02*
X0061698Y0126368D01*
X0061698Y0124769D02*
X0154439Y0124769D01*
X0154439Y0123171D02*
X0061698Y0123171D01*
X0061698Y0121572D02*
X0154439Y0121572D01*
X0154439Y0119974D02*
X0061698Y0119974D01*
X0061698Y0118375D02*
X0154439Y0118375D01*
X0154439Y0116777D02*
X0061698Y0116777D01*
X0061698Y0115178D02*
X0154439Y0115178D01*
X0154439Y0113580D02*
X0061698Y0113580D01*
X0061698Y0111981D02*
X0154439Y0111981D01*
X0154834Y0110383D02*
X0061698Y0110383D01*
X0061698Y0108784D02*
X0155262Y0108784D01*
X0155970Y0107186D02*
X0061698Y0107186D01*
X0061698Y0105587D02*
X0156893Y0105587D01*
X0158124Y0103989D02*
X0061698Y0103989D01*
X0061698Y0102390D02*
X0159722Y0102390D01*
X0162176Y0100792D02*
X0061698Y0100792D01*
X0061698Y0099193D02*
X0166582Y0099193D01*
X0171897Y0099193D02*
X0209558Y0099193D01*
X0209558Y0097595D02*
X0085792Y0097595D01*
X0086734Y0095996D02*
X0209558Y0095996D01*
X0209558Y0094398D02*
X0086848Y0094398D01*
X0086257Y0092799D02*
X0209558Y0092799D01*
X0209558Y0091201D02*
X0083891Y0091201D01*
X0081080Y0089602D02*
X0209558Y0089602D01*
X0209558Y0088004D02*
X0079482Y0088004D01*
X0077883Y0086405D02*
X0209973Y0086405D01*
X0210402Y0084807D02*
X0076285Y0084807D01*
X0074686Y0083208D02*
X0211135Y0083208D01*
X0212058Y0081610D02*
X0073088Y0081610D01*
X0071489Y0080011D02*
X0213322Y0080011D01*
X0214920Y0078413D02*
X0069890Y0078413D01*
X0068292Y0076814D02*
X0216519Y0076814D01*
X0218117Y0075215D02*
X0066693Y0075215D01*
X0065095Y0073617D02*
X0219716Y0073617D01*
X0221314Y0072018D02*
X0063496Y0072018D01*
X0061898Y0070420D02*
X0222913Y0070420D01*
X0224511Y0068821D02*
X0060299Y0068821D01*
X0058701Y0067223D02*
X0226110Y0067223D01*
X0227708Y0065624D02*
X0120430Y0065624D01*
X0119572Y0065854D02*
X0116544Y0065854D01*
X0113619Y0065071D01*
X0110997Y0063557D01*
X0108856Y0061416D01*
X0107342Y0058793D01*
X0106558Y0055868D01*
X0106558Y0052840D01*
X0107342Y0049916D01*
X0108856Y0047293D01*
X0110997Y0045152D01*
X0113619Y0043638D01*
X0116544Y0042854D01*
X0119572Y0042854D01*
X0122497Y0043638D01*
X0125119Y0045152D01*
X0127261Y0047293D01*
X0128775Y0049916D01*
X0129558Y0052840D01*
X0129558Y0055868D01*
X0128775Y0058793D01*
X0127261Y0061416D01*
X0125119Y0063557D01*
X0122497Y0065071D01*
X0119572Y0065854D01*
X0115686Y0065624D02*
X0057102Y0065624D01*
X0055286Y0064026D02*
X0111810Y0064026D01*
X0109868Y0062427D02*
X0046480Y0062427D01*
X0048897Y0060829D02*
X0052513Y0060829D01*
X0054598Y0060829D02*
X0054998Y0060829D01*
X0054998Y0059230D02*
X0054598Y0059230D01*
X0054598Y0057632D02*
X0054998Y0057632D01*
X0054998Y0056033D02*
X0054598Y0056033D01*
X0054598Y0054435D02*
X0054998Y0054435D01*
X0054998Y0052836D02*
X0054598Y0052836D01*
X0053160Y0051238D02*
X0058437Y0051238D01*
X0058844Y0051406D02*
X0057080Y0050676D01*
X0055798Y0049395D01*
X0054517Y0050676D01*
X0052753Y0051406D01*
X0050844Y0051406D01*
X0049080Y0050676D01*
X0047729Y0049325D01*
X0046998Y0047561D01*
X0046998Y0045652D01*
X0047729Y0043887D01*
X0049080Y0042537D01*
X0050844Y0041806D01*
X0052753Y0041806D01*
X0054517Y0042537D01*
X0055798Y0043818D01*
X0057080Y0042537D01*
X0058844Y0041806D01*
X0060753Y0041806D01*
X0062517Y0042537D01*
X0063868Y0043887D01*
X0064598Y0045652D01*
X0064598Y0047561D01*
X0063868Y0049325D01*
X0062517Y0050676D01*
X0060753Y0051406D01*
X0058844Y0051406D01*
X0057776Y0052836D02*
X0060030Y0052836D01*
X0061160Y0051238D02*
X0069937Y0051238D01*
X0070344Y0051406D02*
X0068580Y0050676D01*
X0067229Y0049325D01*
X0066498Y0047561D01*
X0066498Y0045652D01*
X0067229Y0043887D01*
X0068580Y0042537D01*
X0070344Y0041806D01*
X0072253Y0041806D01*
X0074017Y0042537D01*
X0075368Y0043887D01*
X0076098Y0045652D01*
X0076098Y0047561D01*
X0075368Y0049325D01*
X0074017Y0050676D01*
X0072253Y0051406D01*
X0070344Y0051406D01*
X0072660Y0051238D02*
X0106988Y0051238D01*
X0106559Y0052836D02*
X0074317Y0052836D01*
X0075595Y0054435D02*
X0106558Y0054435D01*
X0106603Y0056033D02*
X0076098Y0056033D01*
X0076069Y0057632D02*
X0107031Y0057632D01*
X0107594Y0059230D02*
X0075407Y0059230D01*
X0073647Y0060829D02*
X0108517Y0060829D01*
X0107501Y0049639D02*
X0075054Y0049639D01*
X0075900Y0048041D02*
X0108424Y0048041D01*
X0109707Y0046442D02*
X0076098Y0046442D01*
X0075764Y0044844D02*
X0111531Y0044844D01*
X0115085Y0043245D02*
X0086545Y0043245D01*
X0088000Y0042643D02*
X0084949Y0043906D01*
X0081648Y0043906D01*
X0078597Y0042643D01*
X0076262Y0040308D01*
X0074998Y0037257D01*
X0074998Y0033955D01*
X0076262Y0030905D01*
X0078597Y0028570D01*
X0081648Y0027306D01*
X0084949Y0027306D01*
X0088000Y0028570D01*
X0090335Y0030905D01*
X0091598Y0033955D01*
X0091598Y0037257D01*
X0090335Y0040308D01*
X0088000Y0042643D01*
X0088996Y0041647D02*
X0537413Y0041647D01*
X0537413Y0043245D02*
X0488511Y0043245D01*
X0487053Y0042854D02*
X0489978Y0043638D01*
X0492600Y0045152D01*
X0494741Y0047293D01*
X0496255Y0049916D01*
X0497039Y0052840D01*
X0497039Y0055868D01*
X0496255Y0058793D01*
X0494741Y0061416D01*
X0492600Y0063557D01*
X0489978Y0065071D01*
X0487053Y0065854D01*
X0484025Y0065854D01*
X0481100Y0065071D01*
X0478478Y0063557D01*
X0476336Y0061416D01*
X0474822Y0058793D01*
X0474039Y0055868D01*
X0474039Y0052840D01*
X0474822Y0049916D01*
X0476336Y0047293D01*
X0478478Y0045152D01*
X0481100Y0043638D01*
X0484025Y0042854D01*
X0487053Y0042854D01*
X0482566Y0043245D02*
X0331031Y0043245D01*
X0334585Y0044844D02*
X0479012Y0044844D01*
X0477187Y0046442D02*
X0336410Y0046442D01*
X0337692Y0048041D02*
X0475905Y0048041D01*
X0474982Y0049639D02*
X0338615Y0049639D01*
X0339129Y0051238D02*
X0474468Y0051238D01*
X0474040Y0052836D02*
X0339557Y0052836D01*
X0339558Y0054435D02*
X0474039Y0054435D01*
X0474083Y0056033D02*
X0339514Y0056033D01*
X0339086Y0057632D02*
X0474511Y0057632D01*
X0475075Y0059230D02*
X0338522Y0059230D01*
X0337599Y0060829D02*
X0475998Y0060829D01*
X0477348Y0062427D02*
X0336249Y0062427D01*
X0319868Y0062427D02*
X0283729Y0062427D01*
X0285080Y0060829D02*
X0318517Y0060829D01*
X0317594Y0059230D02*
X0286003Y0059230D01*
X0286566Y0057632D02*
X0317031Y0057632D01*
X0316603Y0056033D02*
X0286994Y0056033D01*
X0287039Y0054435D02*
X0316558Y0054435D01*
X0316559Y0052836D02*
X0287038Y0052836D01*
X0286609Y0051238D02*
X0316988Y0051238D01*
X0317501Y0049639D02*
X0286095Y0049639D01*
X0285173Y0048041D02*
X0318424Y0048041D01*
X0319707Y0046442D02*
X0283890Y0046442D01*
X0282066Y0044844D02*
X0321531Y0044844D01*
X0325085Y0043245D02*
X0278511Y0043245D01*
X0272566Y0043245D02*
X0121031Y0043245D01*
X0124585Y0044844D02*
X0269012Y0044844D01*
X0267187Y0046442D02*
X0126410Y0046442D01*
X0127692Y0048041D02*
X0265905Y0048041D01*
X0264982Y0049639D02*
X0128615Y0049639D01*
X0129129Y0051238D02*
X0264468Y0051238D01*
X0264040Y0052836D02*
X0129557Y0052836D01*
X0129558Y0054435D02*
X0264039Y0054435D01*
X0264083Y0056033D02*
X0129514Y0056033D01*
X0129086Y0057632D02*
X0264511Y0057632D01*
X0265075Y0059230D02*
X0128522Y0059230D01*
X0127599Y0060829D02*
X0265998Y0060829D01*
X0267348Y0062427D02*
X0126249Y0062427D01*
X0124307Y0064026D02*
X0230475Y0064026D01*
X0242394Y0092799D02*
X0406785Y0092799D01*
X0408589Y0094398D02*
X0240796Y0094398D01*
X0239197Y0095996D02*
X0410392Y0095996D01*
X0412195Y0097595D02*
X0239158Y0097595D01*
X0239158Y0099193D02*
X0357803Y0099193D01*
X0353397Y0100792D02*
X0239158Y0100792D01*
X0239158Y0102390D02*
X0350943Y0102390D01*
X0349344Y0103989D02*
X0239158Y0103989D01*
X0239158Y0105587D02*
X0347746Y0105587D01*
X0346147Y0107186D02*
X0239158Y0107186D01*
X0239158Y0108784D02*
X0344549Y0108784D01*
X0342950Y0110383D02*
X0239158Y0110383D01*
X0239158Y0111981D02*
X0341352Y0111981D01*
X0339753Y0113580D02*
X0239158Y0113580D01*
X0239158Y0115178D02*
X0338154Y0115178D01*
X0336556Y0116777D02*
X0238883Y0116777D01*
X0238455Y0118375D02*
X0334957Y0118375D01*
X0333359Y0119974D02*
X0237885Y0119974D01*
X0236962Y0121572D02*
X0331760Y0121572D01*
X0330162Y0123171D02*
X0235920Y0123171D01*
X0234322Y0124769D02*
X0329152Y0124769D01*
X0328229Y0126368D02*
X0232195Y0126368D01*
X0228683Y0127966D02*
X0327682Y0127966D01*
X0327253Y0129565D02*
X0184039Y0129565D01*
X0184039Y0131163D02*
X0326998Y0131163D01*
X0326998Y0132762D02*
X0184039Y0132762D01*
X0184039Y0134360D02*
X0326998Y0134360D01*
X0326998Y0135959D02*
X0184039Y0135959D01*
X0184039Y0137557D02*
X0326998Y0137557D01*
X0326998Y0139156D02*
X0184420Y0139156D01*
X0186019Y0140754D02*
X0326998Y0140754D01*
X0326998Y0142353D02*
X0187617Y0142353D01*
X0189216Y0143951D02*
X0326998Y0143951D01*
X0326998Y0145550D02*
X0190814Y0145550D01*
X0192413Y0147148D02*
X0326998Y0147148D01*
X0326998Y0148747D02*
X0194011Y0148747D01*
X0195610Y0150346D02*
X0326998Y0150346D01*
X0326998Y0151944D02*
X0197208Y0151944D01*
X0198737Y0153543D02*
X0326998Y0153543D01*
X0326998Y0155141D02*
X0199660Y0155141D01*
X0200583Y0156740D02*
X0326998Y0156740D01*
X0326998Y0158338D02*
X0201015Y0158338D01*
X0201443Y0159937D02*
X0326998Y0159937D01*
X0326998Y0161535D02*
X0201598Y0161535D01*
X0201598Y0163134D02*
X0326998Y0163134D01*
X0327084Y0164732D02*
X0201513Y0164732D01*
X0201085Y0166331D02*
X0327512Y0166331D01*
X0327941Y0167929D02*
X0200656Y0167929D01*
X0199810Y0169528D02*
X0328787Y0169528D01*
X0348090Y0175922D02*
X0396998Y0175922D01*
X0396998Y0174323D02*
X0350859Y0174323D01*
X0352469Y0172725D02*
X0396998Y0172725D01*
X0396998Y0171126D02*
X0353887Y0171126D01*
X0354810Y0169528D02*
X0396998Y0169528D01*
X0396998Y0167929D02*
X0355656Y0167929D01*
X0356085Y0166331D02*
X0396998Y0166331D01*
X0396998Y0164732D02*
X0356513Y0164732D01*
X0356598Y0163134D02*
X0396998Y0163134D01*
X0396998Y0161535D02*
X0356598Y0161535D01*
X0356598Y0159937D02*
X0396998Y0159937D01*
X0396998Y0158338D02*
X0356598Y0158338D01*
X0356598Y0156740D02*
X0396998Y0156740D01*
X0397099Y0155141D02*
X0356598Y0155141D01*
X0356598Y0153543D02*
X0397527Y0153543D01*
X0397956Y0151944D02*
X0356598Y0151944D01*
X0356598Y0150346D02*
X0398819Y0150346D01*
X0399742Y0148747D02*
X0356598Y0148747D01*
X0356598Y0147148D02*
X0401184Y0147148D01*
X0402783Y0145550D02*
X0356598Y0145550D01*
X0356598Y0143951D02*
X0404381Y0143951D01*
X0405980Y0142353D02*
X0356598Y0142353D01*
X0356598Y0140754D02*
X0407578Y0140754D01*
X0409177Y0139156D02*
X0356598Y0139156D01*
X0357636Y0137557D02*
X0410775Y0137557D01*
X0412374Y0135959D02*
X0359235Y0135959D01*
X0360833Y0134360D02*
X0413972Y0134360D01*
X0415571Y0132762D02*
X0362432Y0132762D01*
X0364030Y0131163D02*
X0417169Y0131163D01*
X0418768Y0129565D02*
X0365629Y0129565D01*
X0383565Y0127966D02*
X0419558Y0127966D01*
X0419558Y0126368D02*
X0387077Y0126368D01*
X0389204Y0124769D02*
X0419558Y0124769D01*
X0419558Y0123171D02*
X0390802Y0123171D01*
X0391843Y0121572D02*
X0404323Y0121572D01*
X0405182Y0121928D02*
X0402196Y0120691D01*
X0399910Y0118406D01*
X0398673Y0115419D01*
X0398673Y0112187D01*
X0399910Y0109201D01*
X0402196Y0106915D01*
X0405182Y0105678D01*
X0408415Y0105678D01*
X0411401Y0106915D01*
X0413687Y0109201D01*
X0414923Y0112187D01*
X0414923Y0115419D01*
X0413687Y0118406D01*
X0411401Y0120691D01*
X0408415Y0121928D01*
X0405182Y0121928D01*
X0409274Y0121572D02*
X0419558Y0121572D01*
X0419558Y0119974D02*
X0412118Y0119974D01*
X0413699Y0118375D02*
X0419558Y0118375D01*
X0419558Y0116777D02*
X0414361Y0116777D01*
X0414923Y0115178D02*
X0419558Y0115178D01*
X0419558Y0113580D02*
X0414923Y0113580D01*
X0414838Y0111981D02*
X0419558Y0111981D01*
X0419558Y0110383D02*
X0414176Y0110383D01*
X0413270Y0108784D02*
X0419558Y0108784D01*
X0419558Y0107186D02*
X0411671Y0107186D01*
X0415801Y0100792D02*
X0386303Y0100792D01*
X0388757Y0102390D02*
X0417604Y0102390D01*
X0419407Y0103989D02*
X0390355Y0103989D01*
X0391585Y0105587D02*
X0419558Y0105587D01*
X0413998Y0099193D02*
X0381897Y0099193D01*
X0392508Y0107186D02*
X0401925Y0107186D01*
X0400327Y0108784D02*
X0393217Y0108784D01*
X0393645Y0110383D02*
X0399421Y0110383D01*
X0398759Y0111981D02*
X0394039Y0111981D01*
X0394039Y0113580D02*
X0398673Y0113580D01*
X0398673Y0115178D02*
X0394039Y0115178D01*
X0393765Y0116777D02*
X0399236Y0116777D01*
X0399898Y0118375D02*
X0393336Y0118375D01*
X0392766Y0119974D02*
X0401479Y0119974D01*
X0440586Y0083208D02*
X0537413Y0083208D01*
X0537413Y0081610D02*
X0438783Y0081610D01*
X0436980Y0080011D02*
X0537413Y0080011D01*
X0537413Y0078413D02*
X0435177Y0078413D01*
X0433374Y0076814D02*
X0537413Y0076814D01*
X0537413Y0075215D02*
X0431571Y0075215D01*
X0429768Y0073617D02*
X0537413Y0073617D01*
X0537413Y0072018D02*
X0427965Y0072018D01*
X0426162Y0070420D02*
X0537413Y0070420D01*
X0537413Y0068821D02*
X0424359Y0068821D01*
X0422556Y0067223D02*
X0537413Y0067223D01*
X0537413Y0065624D02*
X0487911Y0065624D01*
X0491787Y0064026D02*
X0537413Y0064026D01*
X0537413Y0062427D02*
X0493729Y0062427D01*
X0495080Y0060829D02*
X0537413Y0060829D01*
X0537413Y0059230D02*
X0496003Y0059230D01*
X0496566Y0057632D02*
X0537413Y0057632D01*
X0537413Y0056033D02*
X0496994Y0056033D01*
X0497039Y0054435D02*
X0537413Y0054435D01*
X0537413Y0052836D02*
X0497038Y0052836D01*
X0496609Y0051238D02*
X0537413Y0051238D01*
X0537413Y0049639D02*
X0496095Y0049639D01*
X0495173Y0048041D02*
X0537413Y0048041D01*
X0537413Y0046442D02*
X0493890Y0046442D01*
X0492066Y0044844D02*
X0537413Y0044844D01*
X0537413Y0040048D02*
X0090442Y0040048D01*
X0091105Y0038450D02*
X0537413Y0038450D01*
X0537413Y0036851D02*
X0091598Y0036851D01*
X0091598Y0035253D02*
X0537413Y0035253D01*
X0537413Y0033654D02*
X0091474Y0033654D01*
X0090812Y0032056D02*
X0537413Y0032056D01*
X0537413Y0030457D02*
X0089887Y0030457D01*
X0088289Y0028859D02*
X0537413Y0028859D01*
X0537413Y0027260D02*
X0061949Y0027260D01*
X0061848Y0027159D02*
X0063198Y0028509D01*
X0063929Y0030274D01*
X0063929Y0034939D01*
X0063198Y0036703D01*
X0061848Y0038054D01*
X0060084Y0038784D01*
X0058174Y0038784D01*
X0049513Y0038784D01*
X0047749Y0038054D01*
X0046399Y0036703D01*
X0045668Y0034939D01*
X0045668Y0030274D01*
X0046399Y0028509D01*
X0047749Y0027159D01*
X0049513Y0026428D01*
X0060084Y0026428D01*
X0061848Y0027159D01*
X0063343Y0028859D02*
X0078308Y0028859D01*
X0076710Y0030457D02*
X0063929Y0030457D01*
X0063929Y0032056D02*
X0075785Y0032056D01*
X0075123Y0033654D02*
X0063929Y0033654D01*
X0063799Y0035253D02*
X0074998Y0035253D01*
X0074998Y0036851D02*
X0063050Y0036851D01*
X0060892Y0038450D02*
X0075492Y0038450D01*
X0076155Y0040048D02*
X0033442Y0040048D01*
X0033335Y0040308D02*
X0031000Y0042643D01*
X0027949Y0043906D01*
X0024648Y0043906D01*
X0021597Y0042643D01*
X0019262Y0040308D01*
X0017998Y0037257D01*
X0017998Y0033955D01*
X0019262Y0030905D01*
X0021597Y0028570D01*
X0024648Y0027306D01*
X0027949Y0027306D01*
X0031000Y0028570D01*
X0033335Y0030905D01*
X0034598Y0033955D01*
X0034598Y0037257D01*
X0033335Y0040308D01*
X0031996Y0041647D02*
X0077601Y0041647D01*
X0080052Y0043245D02*
X0074726Y0043245D01*
X0067871Y0043245D02*
X0063226Y0043245D01*
X0064264Y0044844D02*
X0066833Y0044844D01*
X0066498Y0046442D02*
X0064598Y0046442D01*
X0064400Y0048041D02*
X0066697Y0048041D01*
X0067543Y0049639D02*
X0063554Y0049639D01*
X0066067Y0052836D02*
X0068280Y0052836D01*
X0067190Y0059230D02*
X0067157Y0059230D01*
X0065397Y0060829D02*
X0068950Y0060829D01*
X0060700Y0060829D02*
X0057084Y0060829D01*
X0058825Y0059230D02*
X0058940Y0059230D01*
X0050772Y0059230D02*
X0050657Y0059230D01*
X0049567Y0052836D02*
X0051821Y0052836D01*
X0050437Y0051238D02*
X0039660Y0051238D01*
X0039253Y0051406D02*
X0037344Y0051406D01*
X0035580Y0050676D01*
X0034229Y0049325D01*
X0033498Y0047561D01*
X0033498Y0045652D01*
X0034229Y0043887D01*
X0035580Y0042537D01*
X0037344Y0041806D01*
X0039253Y0041806D01*
X0041017Y0042537D01*
X0042368Y0043887D01*
X0043098Y0045652D01*
X0043098Y0047561D01*
X0042368Y0049325D01*
X0041017Y0050676D01*
X0039253Y0051406D01*
X0036937Y0051238D02*
X0001800Y0051238D01*
X0001800Y0052836D02*
X0035280Y0052836D01*
X0034002Y0054435D02*
X0001800Y0054435D01*
X0001800Y0056033D02*
X0033498Y0056033D01*
X0033528Y0057632D02*
X0001800Y0057632D01*
X0001800Y0059230D02*
X0034190Y0059230D01*
X0035950Y0060829D02*
X0001800Y0060829D01*
X0001800Y0062427D02*
X0039398Y0062427D01*
X0039398Y0064026D02*
X0001800Y0064026D01*
X0001800Y0065624D02*
X0039398Y0065624D01*
X0039398Y0067223D02*
X0001800Y0067223D01*
X0001800Y0068821D02*
X0039398Y0068821D01*
X0040110Y0070420D02*
X0001800Y0070420D01*
X0001800Y0072018D02*
X0041708Y0072018D01*
X0043307Y0073617D02*
X0001800Y0073617D01*
X0001800Y0075215D02*
X0044905Y0075215D01*
X0046504Y0076814D02*
X0001800Y0076814D01*
X0001800Y0078413D02*
X0056898Y0078413D01*
X0056898Y0080011D02*
X0033634Y0080011D01*
X0031652Y0079509D02*
X0035800Y0080560D01*
X0039383Y0082900D01*
X0042011Y0086277D01*
X0043401Y0090325D01*
X0043401Y0094604D01*
X0042011Y0098652D01*
X0039383Y0102029D01*
X0035800Y0104370D01*
X0031652Y0105420D01*
X0027387Y0105067D01*
X0023468Y0103348D01*
X0020319Y0100449D01*
X0018282Y0096686D01*
X0017578Y0092465D01*
X0018282Y0088244D01*
X0020319Y0084480D01*
X0023468Y0081581D01*
X0027387Y0079862D01*
X0031652Y0079509D01*
X0027048Y0080011D02*
X0001800Y0080011D01*
X0001800Y0081610D02*
X0023437Y0081610D01*
X0021701Y0083208D02*
X0001800Y0083208D01*
X0001800Y0084807D02*
X0020142Y0084807D01*
X0019277Y0086405D02*
X0001800Y0086405D01*
X0001800Y0088004D02*
X0018412Y0088004D01*
X0018056Y0089602D02*
X0001800Y0089602D01*
X0001800Y0091201D02*
X0017789Y0091201D01*
X0017634Y0092799D02*
X0001800Y0092799D01*
X0001800Y0094398D02*
X0017901Y0094398D01*
X0018167Y0095996D02*
X0001800Y0095996D01*
X0001800Y0097595D02*
X0018774Y0097595D01*
X0019639Y0099193D02*
X0001800Y0099193D01*
X0001800Y0100792D02*
X0020691Y0100792D01*
X0022427Y0102390D02*
X0001800Y0102390D01*
X0001800Y0103989D02*
X0024929Y0103989D01*
X0036383Y0103989D02*
X0056898Y0103989D01*
X0056898Y0105587D02*
X0001800Y0105587D01*
X0001800Y0107186D02*
X0056898Y0107186D01*
X0056898Y0108784D02*
X0001800Y0108784D01*
X0001800Y0110383D02*
X0056898Y0110383D01*
X0056898Y0111981D02*
X0001800Y0111981D01*
X0001800Y0113580D02*
X0056898Y0113580D01*
X0056898Y0115178D02*
X0001800Y0115178D01*
X0001800Y0116777D02*
X0056898Y0116777D01*
X0056898Y0118375D02*
X0001800Y0118375D01*
X0001800Y0119974D02*
X0056898Y0119974D01*
X0056898Y0121572D02*
X0001800Y0121572D01*
X0001800Y0123171D02*
X0056898Y0123171D01*
X0056898Y0124769D02*
X0001800Y0124769D01*
X0001800Y0126368D02*
X0056898Y0126368D01*
X0056898Y0127966D02*
X0001800Y0127966D01*
X0001800Y0129565D02*
X0056898Y0129565D01*
X0056898Y0131163D02*
X0054991Y0131163D01*
X0055507Y0131680D02*
X0056173Y0133288D01*
X0056173Y0135028D01*
X0055507Y0136636D01*
X0054277Y0137867D01*
X0052669Y0138533D01*
X0050928Y0138533D01*
X0049320Y0137867D01*
X0048090Y0136636D01*
X0047424Y0135028D01*
X0047424Y0133288D01*
X0048090Y0131680D01*
X0049320Y0130449D01*
X0050928Y0129783D01*
X0052669Y0129783D01*
X0054277Y0130449D01*
X0055507Y0131680D01*
X0055956Y0132762D02*
X0056898Y0132762D01*
X0056898Y0134360D02*
X0056173Y0134360D01*
X0055788Y0135959D02*
X0056898Y0135959D01*
X0056898Y0137557D02*
X0054586Y0137557D01*
X0056898Y0139156D02*
X0001800Y0139156D01*
X0001800Y0140754D02*
X0039015Y0140754D01*
X0037811Y0142353D02*
X0001800Y0142353D01*
X0001800Y0143951D02*
X0037424Y0143951D01*
X0037640Y0145550D02*
X0001800Y0145550D01*
X0001800Y0147148D02*
X0036090Y0147148D01*
X0034491Y0148747D02*
X0001800Y0148747D01*
X0001800Y0137557D02*
X0039035Y0137557D01*
X0038948Y0137495D02*
X0038462Y0137008D01*
X0038057Y0136451D01*
X0037744Y0135837D01*
X0037531Y0135182D01*
X0037424Y0134502D01*
X0037424Y0134158D01*
X0041798Y0134158D01*
X0041798Y0134158D01*
X0041798Y0138533D01*
X0041454Y0138533D01*
X0040774Y0138425D01*
X0040119Y0138212D01*
X0039506Y0137899D01*
X0038948Y0137495D01*
X0037806Y0135959D02*
X0001800Y0135959D01*
X0001800Y0134360D02*
X0037424Y0134360D01*
X0037424Y0134158D02*
X0037424Y0133813D01*
X0037531Y0133133D01*
X0037744Y0132478D01*
X0038057Y0131865D01*
X0038462Y0131308D01*
X0038948Y0130821D01*
X0039506Y0130416D01*
X0040119Y0130104D01*
X0040774Y0129891D01*
X0041454Y0129783D01*
X0041798Y0129783D01*
X0041798Y0134158D01*
X0041799Y0134158D01*
X0046173Y0134158D01*
X0046173Y0134502D01*
X0046066Y0135182D01*
X0045853Y0135837D01*
X0045540Y0136451D01*
X0045135Y0137008D01*
X0044648Y0137495D01*
X0044091Y0137899D01*
X0043478Y0138212D01*
X0042823Y0138425D01*
X0042143Y0138533D01*
X0041799Y0138533D01*
X0041799Y0134158D01*
X0041799Y0134158D01*
X0046173Y0134158D01*
X0046173Y0133813D01*
X0046066Y0133133D01*
X0045853Y0132478D01*
X0045540Y0131865D01*
X0045135Y0131308D01*
X0044648Y0130821D01*
X0044091Y0130416D01*
X0043478Y0130104D01*
X0042823Y0129891D01*
X0042143Y0129783D01*
X0041799Y0129783D01*
X0041799Y0134158D01*
X0041798Y0134158D01*
X0037424Y0134158D01*
X0037652Y0132762D02*
X0001800Y0132762D01*
X0001800Y0131163D02*
X0038606Y0131163D01*
X0041798Y0131163D02*
X0041799Y0131163D01*
X0041798Y0132762D02*
X0041799Y0132762D01*
X0041798Y0134360D02*
X0041799Y0134360D01*
X0041798Y0135959D02*
X0041799Y0135959D01*
X0041798Y0137557D02*
X0041799Y0137557D01*
X0044562Y0137557D02*
X0049011Y0137557D01*
X0047809Y0135959D02*
X0045791Y0135959D01*
X0046173Y0134360D02*
X0047424Y0134360D01*
X0047641Y0132762D02*
X0045945Y0132762D01*
X0044991Y0131163D02*
X0048606Y0131163D01*
X0050928Y0139783D02*
X0052669Y0139783D01*
X0054277Y0140449D01*
X0055507Y0141680D01*
X0056173Y0143288D01*
X0056173Y0145028D01*
X0055507Y0146636D01*
X0054277Y0147867D01*
X0052669Y0148533D01*
X0050928Y0148533D01*
X0049320Y0147867D01*
X0048090Y0146636D01*
X0047424Y0145028D01*
X0047424Y0143288D01*
X0048090Y0141680D01*
X0049320Y0140449D01*
X0050928Y0139783D01*
X0049015Y0140754D02*
X0044582Y0140754D01*
X0045786Y0142353D02*
X0047811Y0142353D01*
X0047424Y0143951D02*
X0046173Y0143951D01*
X0045957Y0145550D02*
X0047640Y0145550D01*
X0048602Y0147148D02*
X0044995Y0147148D01*
X0044027Y0150346D02*
X0049570Y0150346D01*
X0047980Y0151944D02*
X0045617Y0151944D01*
X0046173Y0153543D02*
X0047424Y0153543D01*
X0047471Y0155141D02*
X0046126Y0155141D01*
X0045404Y0156740D02*
X0048193Y0156740D01*
X0053138Y0158338D02*
X0056898Y0158338D01*
X0056898Y0156740D02*
X0055404Y0156740D01*
X0056126Y0155141D02*
X0056898Y0155141D01*
X0056898Y0153543D02*
X0056173Y0153543D01*
X0055617Y0151944D02*
X0056898Y0151944D01*
X0056898Y0150346D02*
X0054027Y0150346D01*
X0056898Y0148747D02*
X0041845Y0148747D01*
X0041798Y0145117D02*
X0025798Y0161117D01*
X0041798Y0145117D02*
X0041798Y0144158D01*
X0054582Y0140754D02*
X0056898Y0140754D01*
X0056898Y0142353D02*
X0055786Y0142353D01*
X0056173Y0143951D02*
X0056898Y0143951D01*
X0056898Y0145550D02*
X0055957Y0145550D01*
X0056898Y0147148D02*
X0054995Y0147148D01*
X0051798Y0161535D02*
X0051799Y0161535D01*
X0051798Y0163134D02*
X0051799Y0163134D01*
X0051798Y0164732D02*
X0051799Y0164732D01*
X0051798Y0166331D02*
X0051799Y0166331D01*
X0051798Y0167929D02*
X0051799Y0167929D01*
X0039052Y0180717D02*
X0038916Y0180717D01*
X0037826Y0182316D02*
X0037317Y0182316D01*
X0037424Y0183914D02*
X0035719Y0183914D01*
X0034120Y0185513D02*
X0037624Y0185513D01*
X0038565Y0187111D02*
X0033730Y0187111D01*
X0033730Y0201498D02*
X0038323Y0201498D01*
X0037543Y0203096D02*
X0033730Y0203096D01*
X0033730Y0204695D02*
X0037454Y0204695D01*
X0037977Y0206293D02*
X0033730Y0206293D01*
X0033730Y0207892D02*
X0039495Y0207892D01*
X0041798Y0207892D02*
X0041799Y0207892D01*
X0041798Y0206293D02*
X0041799Y0206293D01*
X0041798Y0204695D02*
X0041799Y0204695D01*
X0041798Y0203096D02*
X0041799Y0203096D01*
X0041798Y0201498D02*
X0041799Y0201498D01*
X0045273Y0201498D02*
X0048272Y0201498D01*
X0047503Y0203096D02*
X0046054Y0203096D01*
X0046143Y0204695D02*
X0047424Y0204695D01*
X0047948Y0206293D02*
X0045620Y0206293D01*
X0044102Y0207892D02*
X0049382Y0207892D01*
X0050928Y0209783D02*
X0052669Y0209783D01*
X0054277Y0210449D01*
X0055507Y0211680D01*
X0056173Y0213288D01*
X0056173Y0215028D01*
X0055507Y0216636D01*
X0054277Y0217867D01*
X0052669Y0218533D01*
X0050928Y0218533D01*
X0049320Y0217867D01*
X0048090Y0216636D01*
X0047424Y0215028D01*
X0047424Y0213288D01*
X0048090Y0211680D01*
X0049320Y0210449D01*
X0050928Y0209783D01*
X0048680Y0211089D02*
X0044917Y0211089D01*
X0045925Y0212687D02*
X0047672Y0212687D01*
X0047424Y0214286D02*
X0046173Y0214286D01*
X0045819Y0215884D02*
X0047778Y0215884D01*
X0048937Y0217483D02*
X0044660Y0217483D01*
X0044508Y0220680D02*
X0049089Y0220680D01*
X0047842Y0222279D02*
X0045755Y0222279D01*
X0046173Y0223877D02*
X0047424Y0223877D01*
X0047609Y0225476D02*
X0045988Y0225476D01*
X0045069Y0227074D02*
X0048528Y0227074D01*
X0049790Y0230271D02*
X0043847Y0230271D01*
X0045586Y0231870D02*
X0048054Y0231870D01*
X0047478Y0233468D02*
X0046173Y0233468D01*
X0046157Y0235067D02*
X0047513Y0235067D01*
X0048213Y0236665D02*
X0045478Y0236665D01*
X0038309Y0241461D02*
X0033730Y0241461D01*
X0033730Y0243059D02*
X0037518Y0243059D01*
X0037424Y0244658D02*
X0033730Y0244658D01*
X0033730Y0246256D02*
X0037932Y0246256D01*
X0039308Y0247855D02*
X0033730Y0247855D01*
X0033730Y0249453D02*
X0150393Y0249453D01*
X0148794Y0247855D02*
X0054288Y0247855D01*
X0055665Y0246256D02*
X0147196Y0246256D01*
X0145597Y0244658D02*
X0056173Y0244658D01*
X0056079Y0243059D02*
X0143999Y0243059D01*
X0142400Y0241461D02*
X0055288Y0241461D01*
X0054879Y0251052D02*
X0151992Y0251052D01*
X0153590Y0252650D02*
X0055909Y0252650D01*
X0056173Y0254249D02*
X0155189Y0254249D01*
X0156787Y0255847D02*
X0055834Y0255847D01*
X0054697Y0257446D02*
X0158386Y0257446D01*
X0159984Y0259044D02*
X0033730Y0259044D01*
X0033730Y0257446D02*
X0038900Y0257446D01*
X0037763Y0255847D02*
X0033730Y0255847D01*
X0033730Y0254249D02*
X0037424Y0254249D01*
X0037688Y0252650D02*
X0033730Y0252650D01*
X0033730Y0251052D02*
X0038718Y0251052D01*
X0039127Y0260643D02*
X0033730Y0260643D01*
X0033730Y0262241D02*
X0037857Y0262241D01*
X0037424Y0263840D02*
X0033730Y0263840D01*
X0033730Y0265438D02*
X0037594Y0265438D01*
X0028530Y0265438D02*
X0028398Y0265438D01*
X0028398Y0263840D02*
X0028530Y0263840D01*
X0028530Y0262241D02*
X0028398Y0262241D01*
X0028398Y0260643D02*
X0028530Y0260643D01*
X0028530Y0259044D02*
X0028398Y0259044D01*
X0028398Y0257446D02*
X0028530Y0257446D01*
X0028530Y0255847D02*
X0028398Y0255847D01*
X0028398Y0254249D02*
X0028530Y0254249D01*
X0028530Y0252650D02*
X0028398Y0252650D01*
X0028398Y0251052D02*
X0028530Y0251052D01*
X0028530Y0249453D02*
X0028398Y0249453D01*
X0028398Y0247855D02*
X0028530Y0247855D01*
X0028530Y0246256D02*
X0028398Y0246256D01*
X0028398Y0244658D02*
X0028530Y0244658D01*
X0028530Y0243059D02*
X0028398Y0243059D01*
X0028398Y0241461D02*
X0028530Y0241461D01*
X0028530Y0239862D02*
X0028398Y0239862D01*
X0028398Y0238264D02*
X0028530Y0238264D01*
X0028530Y0236665D02*
X0028398Y0236665D01*
X0028398Y0235067D02*
X0028530Y0235067D01*
X0028530Y0233468D02*
X0028398Y0233468D01*
X0028398Y0231870D02*
X0028530Y0231870D01*
X0028530Y0230271D02*
X0028398Y0230271D01*
X0028398Y0228673D02*
X0028530Y0228673D01*
X0033730Y0215884D02*
X0037778Y0215884D01*
X0037424Y0214286D02*
X0033730Y0214286D01*
X0033730Y0212687D02*
X0037672Y0212687D01*
X0038680Y0211089D02*
X0033730Y0211089D01*
X0033730Y0209490D02*
X0085430Y0209490D01*
X0083832Y0207892D02*
X0054215Y0207892D01*
X0055649Y0206293D02*
X0082233Y0206293D01*
X0080635Y0204695D02*
X0056173Y0204695D01*
X0056094Y0203096D02*
X0079036Y0203096D01*
X0075458Y0201498D02*
X0055325Y0201498D01*
X0052950Y0199899D02*
X0074426Y0199899D01*
X0074248Y0198301D02*
X0053228Y0198301D01*
X0055601Y0191907D02*
X0263962Y0191907D01*
X0262364Y0193505D02*
X0082483Y0193505D01*
X0084082Y0195104D02*
X0260765Y0195104D01*
X0259167Y0196702D02*
X0085680Y0196702D01*
X0087279Y0198301D02*
X0257568Y0198301D01*
X0255970Y0199899D02*
X0088877Y0199899D01*
X0090476Y0201498D02*
X0254371Y0201498D01*
X0252773Y0203096D02*
X0092074Y0203096D01*
X0093673Y0204695D02*
X0251174Y0204695D01*
X0249576Y0206293D02*
X0095271Y0206293D01*
X0096870Y0207892D02*
X0172390Y0207892D01*
X0170900Y0209490D02*
X0098468Y0209490D01*
X0100067Y0211089D02*
X0170498Y0211089D01*
X0176207Y0207892D02*
X0247977Y0207892D01*
X0277871Y0214286D02*
X0185764Y0214286D01*
X0182173Y0217483D02*
X0131823Y0217483D01*
X0131568Y0219081D02*
X0170379Y0219081D01*
X0167653Y0220680D02*
X0132158Y0220680D01*
X0133757Y0222279D02*
X0166054Y0222279D01*
X0164667Y0223877D02*
X0135355Y0223877D01*
X0136954Y0225476D02*
X0163744Y0225476D01*
X0162921Y0227074D02*
X0138552Y0227074D01*
X0140151Y0228673D02*
X0162492Y0228673D01*
X0162064Y0230271D02*
X0141749Y0230271D01*
X0143348Y0231870D02*
X0161998Y0231870D01*
X0161998Y0233468D02*
X0144946Y0233468D01*
X0146545Y0235067D02*
X0162174Y0235067D01*
X0162602Y0236665D02*
X0148143Y0236665D01*
X0149742Y0238264D02*
X0163057Y0238264D01*
X0163980Y0239862D02*
X0151340Y0239862D01*
X0152939Y0241461D02*
X0164903Y0241461D01*
X0166463Y0243059D02*
X0154537Y0243059D01*
X0156136Y0244658D02*
X0168061Y0244658D01*
X0169660Y0246256D02*
X0157734Y0246256D01*
X0159333Y0247855D02*
X0171258Y0247855D01*
X0172857Y0249453D02*
X0160931Y0249453D01*
X0162530Y0251052D02*
X0174455Y0251052D01*
X0176054Y0252650D02*
X0164128Y0252650D01*
X0165727Y0254249D02*
X0177652Y0254249D01*
X0179251Y0255847D02*
X0167325Y0255847D01*
X0168924Y0257446D02*
X0180849Y0257446D01*
X0182448Y0259044D02*
X0170522Y0259044D01*
X0172121Y0260643D02*
X0184046Y0260643D01*
X0185645Y0262241D02*
X0173719Y0262241D01*
X0175318Y0263840D02*
X0187243Y0263840D01*
X0188842Y0265438D02*
X0176916Y0265438D01*
X0178515Y0267037D02*
X0190440Y0267037D01*
X0192039Y0268635D02*
X0180113Y0268635D01*
X0181712Y0270234D02*
X0193637Y0270234D01*
X0195236Y0271832D02*
X0183310Y0271832D01*
X0184909Y0273431D02*
X0196834Y0273431D01*
X0198961Y0275029D02*
X0186507Y0275029D01*
X0188106Y0276628D02*
X0202474Y0276628D01*
X0193947Y0286219D02*
X0238409Y0286219D01*
X0240007Y0287817D02*
X0195545Y0287817D01*
X0197144Y0289416D02*
X0240498Y0289416D01*
X0241224Y0291015D02*
X0198742Y0291015D01*
X0200341Y0292613D02*
X0286998Y0292613D01*
X0286998Y0291015D02*
X0247373Y0291015D01*
X0248098Y0289416D02*
X0286998Y0289416D01*
X0286998Y0287817D02*
X0248040Y0287817D01*
X0247177Y0286219D02*
X0286998Y0286219D01*
X0286998Y0284620D02*
X0243598Y0284620D01*
X0242000Y0283022D02*
X0286998Y0283022D01*
X0286998Y0281423D02*
X0240401Y0281423D01*
X0238803Y0279825D02*
X0286998Y0279825D01*
X0286998Y0278226D02*
X0237204Y0278226D01*
X0235212Y0283022D02*
X0190750Y0283022D01*
X0192348Y0284620D02*
X0236810Y0284620D01*
X0214728Y0307000D02*
X0286998Y0307000D01*
X0286998Y0308598D02*
X0216326Y0308598D01*
X0217925Y0310197D02*
X0286998Y0310197D01*
X0286998Y0311795D02*
X0219523Y0311795D01*
X0221122Y0313394D02*
X0286998Y0313394D01*
X0286998Y0314992D02*
X0223992Y0314992D01*
X0226282Y0316591D02*
X0286998Y0316591D01*
X0286998Y0318189D02*
X0226848Y0318189D01*
X0226717Y0319788D02*
X0287099Y0319788D01*
X0286998Y0305401D02*
X0213129Y0305401D01*
X0211531Y0303803D02*
X0286998Y0303803D01*
X0286998Y0302204D02*
X0209932Y0302204D01*
X0208334Y0300606D02*
X0286998Y0300606D01*
X0286998Y0299007D02*
X0206735Y0299007D01*
X0205137Y0297409D02*
X0286998Y0297409D01*
X0286998Y0295810D02*
X0203538Y0295810D01*
X0201940Y0294212D02*
X0286998Y0294212D01*
X0304895Y0340568D02*
X0253296Y0340568D01*
X0254895Y0342167D02*
X0309485Y0342167D01*
X0335883Y0307000D02*
X0350403Y0307000D01*
X0349291Y0305401D02*
X0338428Y0305401D01*
X0340027Y0303803D02*
X0348368Y0303803D01*
X0347746Y0302204D02*
X0340956Y0302204D01*
X0341620Y0300606D02*
X0347318Y0300606D01*
X0346998Y0299007D02*
X0342049Y0299007D01*
X0342098Y0297409D02*
X0346998Y0297409D01*
X0346998Y0295810D02*
X0342018Y0295810D01*
X0341590Y0294212D02*
X0346998Y0294212D01*
X0346998Y0292613D02*
X0340891Y0292613D01*
X0339915Y0291015D02*
X0346998Y0291015D01*
X0346998Y0289416D02*
X0338316Y0289416D01*
X0376598Y0271832D02*
X0409883Y0271832D01*
X0409097Y0271507D02*
X0410850Y0272233D01*
X0412747Y0272233D01*
X0414500Y0271507D01*
X0415841Y0270166D01*
X0416567Y0268413D01*
X0416567Y0266516D01*
X0415841Y0264763D01*
X0414500Y0263422D01*
X0412747Y0262696D01*
X0410850Y0262696D01*
X0409097Y0263422D01*
X0407756Y0264763D01*
X0407030Y0266516D01*
X0407030Y0268413D01*
X0407756Y0270166D01*
X0409097Y0271507D01*
X0407824Y0270234D02*
X0376598Y0270234D01*
X0376598Y0268635D02*
X0407122Y0268635D01*
X0407030Y0267037D02*
X0378157Y0267037D01*
X0379755Y0265438D02*
X0407476Y0265438D01*
X0408680Y0263840D02*
X0381354Y0263840D01*
X0413714Y0271832D02*
X0439883Y0271832D01*
X0437824Y0270234D02*
X0415773Y0270234D01*
X0416475Y0268635D02*
X0437122Y0268635D01*
X0437030Y0267037D02*
X0416567Y0267037D01*
X0416121Y0265438D02*
X0437476Y0265438D01*
X0438680Y0263840D02*
X0414917Y0263840D01*
X0322653Y0220680D02*
X0285690Y0220680D01*
X0283308Y0222279D02*
X0321054Y0222279D01*
X0319456Y0223877D02*
X0189141Y0223877D01*
X0187543Y0222279D02*
X0280289Y0222279D01*
X0277907Y0220680D02*
X0185944Y0220680D01*
X0183771Y0219081D02*
X0183218Y0219081D01*
X0190740Y0225476D02*
X0317857Y0225476D01*
X0316259Y0227074D02*
X0192338Y0227074D01*
X0193937Y0228673D02*
X0314660Y0228673D01*
X0313062Y0230271D02*
X0195535Y0230271D01*
X0197134Y0231870D02*
X0311463Y0231870D01*
X0309865Y0233468D02*
X0198732Y0233468D01*
X0200331Y0235067D02*
X0308266Y0235067D01*
X0306668Y0236665D02*
X0201929Y0236665D01*
X0203528Y0238264D02*
X0305069Y0238264D01*
X0303471Y0239862D02*
X0205126Y0239862D01*
X0206725Y0241461D02*
X0301872Y0241461D01*
X0300274Y0243059D02*
X0208323Y0243059D01*
X0209922Y0244658D02*
X0298675Y0244658D01*
X0297077Y0246256D02*
X0211520Y0246256D01*
X0179166Y0278226D02*
X0140954Y0278226D01*
X0141698Y0279825D02*
X0180765Y0279825D01*
X0182363Y0281423D02*
X0141698Y0281423D01*
X0141698Y0283022D02*
X0183962Y0283022D01*
X0185560Y0284620D02*
X0155141Y0284620D01*
X0155507Y0284986D02*
X0156173Y0286594D01*
X0156173Y0288335D01*
X0155507Y0289943D01*
X0154277Y0291173D01*
X0152669Y0291839D01*
X0150928Y0291839D01*
X0149320Y0291173D01*
X0148090Y0289943D01*
X0147424Y0288335D01*
X0147424Y0286594D01*
X0148090Y0284986D01*
X0149320Y0283756D01*
X0150928Y0283090D01*
X0152669Y0283090D01*
X0154277Y0283756D01*
X0155507Y0284986D01*
X0156018Y0286219D02*
X0187159Y0286219D01*
X0188757Y0287817D02*
X0156173Y0287817D01*
X0155725Y0289416D02*
X0190356Y0289416D01*
X0191954Y0291015D02*
X0154435Y0291015D01*
X0149161Y0291015D02*
X0141698Y0291015D01*
X0141698Y0292613D02*
X0193553Y0292613D01*
X0195151Y0294212D02*
X0141698Y0294212D01*
X0141698Y0295810D02*
X0196750Y0295810D01*
X0198348Y0297409D02*
X0142637Y0297409D01*
X0144235Y0299007D02*
X0146132Y0299007D01*
X0142242Y0303803D02*
X0141531Y0303803D01*
X0140644Y0302204D02*
X0139932Y0302204D01*
X0139045Y0300606D02*
X0138334Y0300606D01*
X0137447Y0299007D02*
X0136735Y0299007D01*
X0136898Y0297409D02*
X0135137Y0297409D01*
X0133538Y0295810D02*
X0136898Y0295810D01*
X0136898Y0294212D02*
X0131940Y0294212D01*
X0130341Y0292613D02*
X0136898Y0292613D01*
X0136898Y0291015D02*
X0134435Y0291015D01*
X0135725Y0289416D02*
X0136898Y0289416D01*
X0136898Y0287817D02*
X0136173Y0287817D01*
X0136018Y0286219D02*
X0136898Y0286219D01*
X0136898Y0284620D02*
X0135141Y0284620D01*
X0136898Y0283022D02*
X0056063Y0283022D01*
X0056173Y0284620D02*
X0128456Y0284620D01*
X0127579Y0286219D02*
X0055680Y0286219D01*
X0054326Y0287817D02*
X0093322Y0287817D01*
X0093148Y0289416D02*
X0033730Y0289416D01*
X0033730Y0291015D02*
X0038755Y0291015D01*
X0037703Y0292613D02*
X0033730Y0292613D01*
X0033730Y0294212D02*
X0037424Y0294212D01*
X0037748Y0295810D02*
X0033730Y0295810D01*
X0028530Y0295810D02*
X0028398Y0295810D01*
X0028398Y0294212D02*
X0028530Y0294212D01*
X0028530Y0292613D02*
X0028398Y0292613D01*
X0028398Y0291015D02*
X0028530Y0291015D01*
X0028530Y0289416D02*
X0028398Y0289416D01*
X0028398Y0287817D02*
X0028530Y0287817D01*
X0028530Y0286219D02*
X0028398Y0286219D01*
X0028398Y0284620D02*
X0028530Y0284620D01*
X0028530Y0283022D02*
X0028398Y0283022D01*
X0028398Y0281423D02*
X0028530Y0281423D01*
X0028530Y0279825D02*
X0028398Y0279825D01*
X0028398Y0278226D02*
X0028530Y0278226D01*
X0028530Y0276628D02*
X0028398Y0276628D01*
X0028398Y0275029D02*
X0028530Y0275029D01*
X0028530Y0273431D02*
X0028398Y0273431D01*
X0028398Y0271832D02*
X0028530Y0271832D01*
X0028530Y0270234D02*
X0028398Y0270234D01*
X0028398Y0268635D02*
X0028530Y0268635D01*
X0028530Y0267037D02*
X0028398Y0267037D01*
X0043757Y0270234D02*
X0049840Y0270234D01*
X0048026Y0271832D02*
X0045571Y0271832D01*
X0046173Y0273431D02*
X0047424Y0273431D01*
X0047424Y0275029D02*
X0046507Y0275029D01*
X0053757Y0270234D02*
X0171174Y0270234D01*
X0172772Y0271832D02*
X0055571Y0271832D01*
X0056173Y0273431D02*
X0174371Y0273431D01*
X0175969Y0275029D02*
X0056173Y0275029D01*
X0055511Y0276628D02*
X0177568Y0276628D01*
X0148456Y0284620D02*
X0141698Y0284620D01*
X0141698Y0286219D02*
X0147579Y0286219D01*
X0147424Y0287817D02*
X0141698Y0287817D01*
X0141698Y0289416D02*
X0147872Y0289416D01*
X0152465Y0299007D02*
X0199947Y0299007D01*
X0201545Y0300606D02*
X0153098Y0300606D01*
X0153682Y0302204D02*
X0203144Y0302204D01*
X0204742Y0303803D02*
X0155281Y0303803D01*
X0156879Y0305401D02*
X0206341Y0305401D01*
X0207939Y0307000D02*
X0158478Y0307000D01*
X0151833Y0313394D02*
X0151122Y0313394D01*
X0150235Y0311795D02*
X0149523Y0311795D01*
X0148636Y0310197D02*
X0147925Y0310197D01*
X0147038Y0308598D02*
X0146326Y0308598D01*
X0145439Y0307000D02*
X0144728Y0307000D01*
X0143841Y0305401D02*
X0143129Y0305401D01*
X0152720Y0314992D02*
X0153432Y0314992D01*
X0154319Y0316591D02*
X0155030Y0316591D01*
X0155917Y0318189D02*
X0156629Y0318189D01*
X0157516Y0319788D02*
X0158227Y0319788D01*
X0159114Y0321386D02*
X0159248Y0321386D01*
X0135179Y0335773D02*
X0128418Y0335773D01*
X0127674Y0335465D02*
X0129291Y0336134D01*
X0130529Y0337372D01*
X0131198Y0338989D01*
X0131198Y0345940D01*
X0130529Y0347557D01*
X0129291Y0348795D01*
X0127674Y0349465D01*
X0125923Y0349465D01*
X0124306Y0348795D01*
X0123068Y0347557D01*
X0122398Y0345940D01*
X0122398Y0338989D01*
X0123068Y0337372D01*
X0124306Y0336134D01*
X0125923Y0335465D01*
X0127674Y0335465D01*
X0125179Y0335773D02*
X0118418Y0335773D01*
X0117674Y0335465D02*
X0119291Y0336134D01*
X0120529Y0337372D01*
X0121198Y0338989D01*
X0121198Y0345940D01*
X0120529Y0347557D01*
X0119291Y0348795D01*
X0117674Y0349465D01*
X0115923Y0349465D01*
X0114306Y0348795D01*
X0113068Y0347557D01*
X0112398Y0345940D01*
X0112398Y0338989D01*
X0113068Y0337372D01*
X0114306Y0336134D01*
X0115923Y0335465D01*
X0117674Y0335465D01*
X0115179Y0335773D02*
X0109198Y0335773D01*
X0109198Y0337371D02*
X0113069Y0337371D01*
X0112407Y0338970D02*
X0109198Y0338970D01*
X0109198Y0340568D02*
X0112398Y0340568D01*
X0112398Y0342167D02*
X0109198Y0342167D01*
X0109198Y0343765D02*
X0112398Y0343765D01*
X0112398Y0345364D02*
X0109198Y0345364D01*
X0109198Y0346962D02*
X0112822Y0346962D01*
X0114072Y0348561D02*
X0109198Y0348561D01*
X0109198Y0350159D02*
X0132480Y0350159D01*
X0131748Y0351758D02*
X0109198Y0351758D01*
X0109198Y0353356D02*
X0131263Y0353356D01*
X0129664Y0354955D02*
X0109198Y0354955D01*
X0109198Y0356553D02*
X0128066Y0356553D01*
X0126467Y0358152D02*
X0109198Y0358152D01*
X0109198Y0359750D02*
X0124869Y0359750D01*
X0124189Y0360430D02*
X0124189Y0360430D01*
X0123413Y0361349D02*
X0119505Y0361349D01*
X0120767Y0362948D02*
X0122830Y0362948D01*
X0122398Y0364546D02*
X0121198Y0364546D01*
X0121198Y0366145D02*
X0122398Y0366145D01*
X0122398Y0367743D02*
X0121198Y0367743D01*
X0121198Y0369342D02*
X0122398Y0369342D01*
X0123061Y0372539D02*
X0120536Y0372539D01*
X0118464Y0374137D02*
X0125133Y0374137D01*
X0128464Y0374137D02*
X0129232Y0374137D01*
X0130536Y0372539D02*
X0130830Y0372539D01*
X0131198Y0369342D02*
X0132398Y0369342D01*
X0132398Y0367743D02*
X0131198Y0367743D01*
X0131198Y0366145D02*
X0132398Y0366145D01*
X0132398Y0364546D02*
X0131198Y0364546D01*
X0130767Y0362948D02*
X0132830Y0362948D01*
X0134092Y0361349D02*
X0130058Y0361349D01*
X0131657Y0359750D02*
X0141898Y0359750D01*
X0141898Y0358152D02*
X0133255Y0358152D01*
X0134854Y0356553D02*
X0141898Y0356553D01*
X0141898Y0354955D02*
X0138432Y0354955D01*
X0139292Y0353356D02*
X0141898Y0353356D01*
X0141898Y0351758D02*
X0139348Y0351758D01*
X0138617Y0350159D02*
X0141099Y0350159D01*
X0134072Y0348561D02*
X0129525Y0348561D01*
X0130775Y0346962D02*
X0132822Y0346962D01*
X0132398Y0345364D02*
X0131198Y0345364D01*
X0131198Y0343765D02*
X0132398Y0343765D01*
X0132398Y0342167D02*
X0131198Y0342167D01*
X0131198Y0340568D02*
X0132398Y0340568D01*
X0132407Y0338970D02*
X0131190Y0338970D01*
X0130528Y0337371D02*
X0133069Y0337371D01*
X0123069Y0337371D02*
X0120528Y0337371D01*
X0121190Y0338970D02*
X0122407Y0338970D01*
X0122398Y0340568D02*
X0121198Y0340568D01*
X0121198Y0342167D02*
X0122398Y0342167D01*
X0122398Y0343765D02*
X0121198Y0343765D01*
X0121198Y0345364D02*
X0122398Y0345364D01*
X0122822Y0346962D02*
X0120775Y0346962D01*
X0119525Y0348561D02*
X0124072Y0348561D01*
X0114092Y0361349D02*
X0109198Y0361349D01*
X0109198Y0362948D02*
X0112830Y0362948D01*
X0112398Y0364546D02*
X0109198Y0364546D01*
X0104398Y0364546D02*
X0101698Y0364546D01*
X0101698Y0362948D02*
X0104398Y0362948D01*
X0104398Y0361349D02*
X0101698Y0361349D01*
X0101698Y0359750D02*
X0104398Y0359750D01*
X0104398Y0358152D02*
X0101698Y0358152D01*
X0101698Y0356553D02*
X0104398Y0356553D01*
X0104398Y0354955D02*
X0101698Y0354955D01*
X0101698Y0353356D02*
X0104398Y0353356D01*
X0104398Y0351758D02*
X0101698Y0351758D01*
X0101698Y0350159D02*
X0104398Y0350159D01*
X0104398Y0348561D02*
X0101698Y0348561D01*
X0101698Y0346962D02*
X0104398Y0346962D01*
X0104398Y0345364D02*
X0101698Y0345364D01*
X0101698Y0343765D02*
X0104398Y0343765D01*
X0104398Y0342167D02*
X0101698Y0342167D01*
X0101698Y0340568D02*
X0104398Y0340568D01*
X0104398Y0338970D02*
X0101698Y0338970D01*
X0101698Y0337371D02*
X0104398Y0337371D01*
X0104398Y0335773D02*
X0101698Y0335773D01*
X0101698Y0334174D02*
X0104398Y0334174D01*
X0104398Y0332576D02*
X0101698Y0332576D01*
X0101698Y0330977D02*
X0104398Y0330977D01*
X0104398Y0329379D02*
X0101698Y0329379D01*
X0101698Y0327780D02*
X0104398Y0327780D01*
X0104398Y0326182D02*
X0101698Y0326182D01*
X0101698Y0324583D02*
X0104398Y0324583D01*
X0104398Y0322985D02*
X0101698Y0322985D01*
X0101698Y0321386D02*
X0104398Y0321386D01*
X0104398Y0319788D02*
X0101698Y0319788D01*
X0101698Y0318189D02*
X0104398Y0318189D01*
X0104398Y0316591D02*
X0101698Y0316591D01*
X0101698Y0314992D02*
X0104398Y0314992D01*
X0104398Y0313394D02*
X0101698Y0313394D01*
X0101698Y0311795D02*
X0104398Y0311795D01*
X0103344Y0310197D02*
X0101698Y0310197D01*
X0101698Y0308598D02*
X0102533Y0308598D01*
X0102424Y0307000D02*
X0101698Y0307000D01*
X0101698Y0305401D02*
X0102918Y0305401D01*
X0101698Y0303803D02*
X0104274Y0303803D01*
X0096898Y0303803D02*
X0093855Y0303803D01*
X0092256Y0305401D02*
X0096898Y0305401D01*
X0096898Y0307000D02*
X0091173Y0307000D01*
X0091064Y0308598D02*
X0096898Y0308598D01*
X0096898Y0310197D02*
X0090253Y0310197D01*
X0089198Y0311795D02*
X0096898Y0311795D01*
X0096898Y0313394D02*
X0089198Y0313394D01*
X0089198Y0314992D02*
X0096898Y0314992D01*
X0096898Y0316591D02*
X0089198Y0316591D01*
X0089198Y0318189D02*
X0096898Y0318189D01*
X0096898Y0319788D02*
X0089198Y0319788D01*
X0089198Y0321386D02*
X0096898Y0321386D01*
X0096898Y0322985D02*
X0089198Y0322985D01*
X0089198Y0324583D02*
X0096898Y0324583D01*
X0096898Y0326182D02*
X0089198Y0326182D01*
X0089198Y0327780D02*
X0096898Y0327780D01*
X0096898Y0329379D02*
X0089198Y0329379D01*
X0089198Y0330977D02*
X0096898Y0330977D01*
X0096898Y0332576D02*
X0089198Y0332576D01*
X0089198Y0334174D02*
X0096898Y0334174D01*
X0096898Y0335773D02*
X0089198Y0335773D01*
X0089198Y0337371D02*
X0096898Y0337371D01*
X0096898Y0338970D02*
X0089198Y0338970D01*
X0089198Y0340568D02*
X0096898Y0340568D01*
X0096898Y0342167D02*
X0089198Y0342167D01*
X0089198Y0343765D02*
X0096898Y0343765D01*
X0096898Y0345364D02*
X0088543Y0345364D01*
X0086945Y0346962D02*
X0096898Y0346962D01*
X0096898Y0348561D02*
X0085346Y0348561D01*
X0083748Y0350159D02*
X0096898Y0350159D01*
X0096898Y0351758D02*
X0082149Y0351758D01*
X0080551Y0353356D02*
X0096898Y0353356D01*
X0096898Y0354955D02*
X0078952Y0354955D01*
X0077354Y0356553D02*
X0096898Y0356553D01*
X0096898Y0358152D02*
X0075755Y0358152D01*
X0074157Y0359750D02*
X0096898Y0359750D01*
X0096898Y0361349D02*
X0072558Y0361349D01*
X0070960Y0362948D02*
X0096898Y0362948D01*
X0096898Y0364546D02*
X0059774Y0364546D01*
X0058176Y0362948D02*
X0063887Y0362948D01*
X0062289Y0361349D02*
X0056577Y0361349D01*
X0054978Y0359750D02*
X0060690Y0359750D01*
X0059092Y0358152D02*
X0053380Y0358152D01*
X0056289Y0348561D02*
X0058579Y0348561D01*
X0056981Y0346962D02*
X0028398Y0346962D01*
X0028398Y0345364D02*
X0055382Y0345364D01*
X0055128Y0341433D02*
X0067793Y0354098D01*
X0067793Y0354098D01*
X0061373Y0366145D02*
X0096898Y0366145D01*
X0096898Y0367743D02*
X0062971Y0367743D01*
X0064570Y0369342D02*
X0095961Y0369342D01*
X0095498Y0370940D02*
X0066168Y0370940D01*
X0067767Y0372539D02*
X0095734Y0372539D01*
X0096847Y0374137D02*
X0069365Y0374137D01*
X0101750Y0374137D02*
X0115133Y0374137D01*
X0113061Y0372539D02*
X0102863Y0372539D01*
X0103098Y0370940D02*
X0112399Y0370940D01*
X0105281Y0369342D02*
X0102636Y0369342D01*
X0101698Y0367743D02*
X0104398Y0367743D01*
X0104398Y0366145D02*
X0101698Y0366145D01*
X0131225Y0378933D02*
X0152286Y0378933D01*
X0141898Y0364546D02*
X0141198Y0364546D01*
X0140767Y0362948D02*
X0141898Y0362948D01*
X0141898Y0361349D02*
X0139505Y0361349D01*
X0132823Y0377334D02*
X0537413Y0377334D01*
X0537413Y0375736D02*
X0267350Y0375736D01*
X0266891Y0376195D02*
X0265274Y0376865D01*
X0258323Y0376865D01*
X0256706Y0376195D01*
X0255468Y0374957D01*
X0254798Y0373340D01*
X0254798Y0371589D01*
X0255468Y0369972D01*
X0256706Y0368734D01*
X0258323Y0368065D01*
X0265274Y0368065D01*
X0266891Y0368734D01*
X0268129Y0369972D01*
X0268798Y0371589D01*
X0268798Y0373340D01*
X0268129Y0374957D01*
X0266891Y0376195D01*
X0268468Y0374137D02*
X0537413Y0374137D01*
X0537413Y0372539D02*
X0268798Y0372539D01*
X0268530Y0370940D02*
X0537413Y0370940D01*
X0537413Y0369342D02*
X0267498Y0369342D01*
X0256656Y0366145D02*
X0241941Y0366145D01*
X0243299Y0364546D02*
X0255298Y0364546D01*
X0254798Y0362948D02*
X0243798Y0362948D01*
X0243699Y0361349D02*
X0254898Y0361349D01*
X0255690Y0359750D02*
X0242907Y0359750D01*
X0240485Y0358152D02*
X0258112Y0358152D01*
X0257572Y0356553D02*
X0241025Y0356553D01*
X0243129Y0354955D02*
X0255468Y0354955D01*
X0254805Y0353356D02*
X0243792Y0353356D01*
X0243798Y0351758D02*
X0253948Y0351758D01*
X0252349Y0350159D02*
X0243206Y0350159D01*
X0241472Y0348561D02*
X0250751Y0348561D01*
X0241713Y0335773D02*
X0201884Y0335773D01*
X0203483Y0334174D02*
X0240114Y0334174D01*
X0238516Y0332576D02*
X0205081Y0332576D01*
X0214708Y0330977D02*
X0236917Y0330977D01*
X0219380Y0319788D02*
X0215799Y0319788D01*
X0216398Y0318189D02*
X0219129Y0318189D01*
X0217530Y0316591D02*
X0216398Y0316591D01*
X0215932Y0314992D02*
X0215737Y0314992D01*
X0214333Y0313394D02*
X0213668Y0313394D01*
X0212735Y0311795D02*
X0204523Y0311795D01*
X0202925Y0310197D02*
X0211136Y0310197D01*
X0209538Y0308598D02*
X0201326Y0308598D01*
X0182104Y0343765D02*
X0161493Y0343765D01*
X0163092Y0345364D02*
X0180505Y0345364D01*
X0178907Y0346962D02*
X0164690Y0346962D01*
X0166289Y0348561D02*
X0169525Y0348561D01*
X0167791Y0350159D02*
X0166698Y0350159D01*
X0166698Y0351758D02*
X0167198Y0351758D01*
X0167205Y0353356D02*
X0166698Y0353356D01*
X0166698Y0354955D02*
X0167868Y0354955D01*
X0202551Y0359750D02*
X0203290Y0359750D01*
X0204505Y0358152D02*
X0205712Y0358152D01*
X0213085Y0358152D02*
X0222717Y0358152D01*
X0223063Y0356553D02*
X0213625Y0356553D01*
X0215729Y0354955D02*
X0223934Y0354955D01*
X0221118Y0359750D02*
X0215507Y0359750D01*
X0216299Y0361349D02*
X0219520Y0361349D01*
X0217921Y0362948D02*
X0216398Y0362948D01*
X0216323Y0364546D02*
X0215899Y0364546D01*
X0214724Y0366145D02*
X0214541Y0366145D01*
X0223111Y0364546D02*
X0230298Y0364546D01*
X0229798Y0362948D02*
X0224710Y0362948D01*
X0226308Y0361349D02*
X0229898Y0361349D01*
X0229887Y0359750D02*
X0230690Y0359750D01*
X0230598Y0358152D02*
X0233112Y0358152D01*
X0232572Y0356553D02*
X0230534Y0356553D01*
X0230468Y0354955D02*
X0229663Y0354955D01*
X0229805Y0353356D02*
X0216392Y0353356D01*
X0216398Y0351758D02*
X0229798Y0351758D01*
X0228599Y0350159D02*
X0215806Y0350159D01*
X0242498Y0369342D02*
X0256099Y0369342D01*
X0255067Y0370940D02*
X0243530Y0370940D01*
X0243798Y0372539D02*
X0254798Y0372539D01*
X0255129Y0374137D02*
X0243468Y0374137D01*
X0242350Y0375736D02*
X0256247Y0375736D01*
X0164959Y0454063D02*
X0159276Y0454063D01*
X0160875Y0455661D02*
X0163361Y0455661D01*
X0162743Y0457260D02*
X0161493Y0457260D01*
X0161493Y0458858D02*
X0162743Y0458858D01*
X0163296Y0460457D02*
X0160939Y0460457D01*
X0159341Y0462055D02*
X0164895Y0462055D01*
X0039077Y0468449D02*
X0494693Y0468449D01*
X0497002Y0470048D02*
X0036630Y0470048D01*
X0035562Y0370940D02*
X0032985Y0370940D01*
X0034446Y0369342D02*
X0031386Y0369342D01*
X0029787Y0367743D02*
X0034061Y0367743D01*
X0034215Y0366145D02*
X0028398Y0366145D01*
X0028398Y0364546D02*
X0035005Y0364546D01*
X0033887Y0362948D02*
X0028398Y0362948D01*
X0028398Y0361349D02*
X0032289Y0361349D01*
X0030690Y0359750D02*
X0028398Y0359750D01*
X0028398Y0358152D02*
X0029092Y0358152D01*
X0032948Y0354955D02*
X0034708Y0354955D01*
X0036287Y0353356D02*
X0032948Y0353356D01*
X0028558Y0348561D02*
X0028398Y0348561D01*
X0028398Y0343765D02*
X0047299Y0343765D01*
X0045519Y0342167D02*
X0028398Y0342167D01*
X0028398Y0340568D02*
X0043921Y0340568D01*
X0042322Y0338970D02*
X0028398Y0338970D01*
X0028398Y0337371D02*
X0040724Y0337371D01*
X0039125Y0335773D02*
X0028398Y0335773D01*
X0028398Y0334174D02*
X0037527Y0334174D01*
X0035928Y0332576D02*
X0028398Y0332576D01*
X0028398Y0330977D02*
X0034330Y0330977D01*
X0032731Y0329379D02*
X0028398Y0329379D01*
X0028398Y0327780D02*
X0031133Y0327780D01*
X0029534Y0326182D02*
X0028398Y0326182D01*
X0028398Y0324583D02*
X0028530Y0324583D01*
X0028530Y0322985D02*
X0028398Y0322985D01*
X0028398Y0321386D02*
X0028530Y0321386D01*
X0028530Y0319788D02*
X0028398Y0319788D01*
X0028398Y0318189D02*
X0028530Y0318189D01*
X0028530Y0316591D02*
X0028398Y0316591D01*
X0028398Y0314992D02*
X0028530Y0314992D01*
X0028530Y0313394D02*
X0028398Y0313394D01*
X0028398Y0311795D02*
X0028530Y0311795D01*
X0028530Y0310197D02*
X0028398Y0310197D01*
X0028398Y0308598D02*
X0028530Y0308598D01*
X0028530Y0307000D02*
X0028398Y0307000D01*
X0028398Y0305401D02*
X0028530Y0305401D01*
X0028530Y0303803D02*
X0028398Y0303803D01*
X0028398Y0302204D02*
X0028530Y0302204D01*
X0028530Y0300606D02*
X0028398Y0300606D01*
X0028398Y0299007D02*
X0028530Y0299007D01*
X0028530Y0297409D02*
X0028398Y0297409D01*
X0033730Y0310197D02*
X0039930Y0310197D01*
X0038042Y0311795D02*
X0033730Y0311795D01*
X0033730Y0313394D02*
X0037424Y0313394D01*
X0037424Y0314992D02*
X0033730Y0314992D01*
X0033730Y0316591D02*
X0038071Y0316591D01*
X0040099Y0318189D02*
X0033730Y0318189D01*
X0033730Y0319788D02*
X0040917Y0319788D01*
X0038383Y0321386D02*
X0033730Y0321386D01*
X0033730Y0322985D02*
X0037549Y0322985D01*
X0037424Y0324583D02*
X0035289Y0324583D01*
X0036888Y0326182D02*
X0037902Y0326182D01*
X0038487Y0327780D02*
X0039234Y0327780D01*
X0040085Y0329379D02*
X0084398Y0329379D01*
X0084398Y0330977D02*
X0041684Y0330977D01*
X0043282Y0332576D02*
X0084398Y0332576D01*
X0084398Y0334174D02*
X0044881Y0334174D01*
X0046479Y0335773D02*
X0084398Y0335773D01*
X0084398Y0337371D02*
X0048078Y0337371D01*
X0054842Y0291015D02*
X0093148Y0291015D01*
X0095453Y0302204D02*
X0096898Y0302204D01*
X0108059Y0219081D02*
X0122029Y0219081D01*
X0121773Y0217483D02*
X0106461Y0217483D01*
X0104862Y0215884D02*
X0122014Y0215884D01*
X0122871Y0214286D02*
X0103264Y0214286D01*
X0101665Y0212687D02*
X0125201Y0212687D01*
X0128396Y0212687D02*
X0128525Y0212687D01*
X0093423Y0217483D02*
X0054660Y0217483D01*
X0055819Y0215884D02*
X0091824Y0215884D01*
X0090226Y0214286D02*
X0056173Y0214286D01*
X0055925Y0212687D02*
X0088627Y0212687D01*
X0087029Y0211089D02*
X0054917Y0211089D01*
X0130763Y0174323D02*
X0177738Y0174323D01*
X0180507Y0175922D02*
X0131598Y0175922D01*
X0184039Y0127966D02*
X0220032Y0127966D01*
X0216520Y0126368D02*
X0184039Y0126368D01*
X0184039Y0124769D02*
X0214393Y0124769D01*
X0212795Y0123171D02*
X0184039Y0123171D01*
X0184039Y0121572D02*
X0194323Y0121572D01*
X0195182Y0121928D02*
X0192196Y0120691D01*
X0189910Y0118406D01*
X0188673Y0115419D01*
X0188673Y0112187D01*
X0189910Y0109201D01*
X0192196Y0106915D01*
X0195182Y0105678D01*
X0198415Y0105678D01*
X0201401Y0106915D01*
X0203687Y0109201D01*
X0204923Y0112187D01*
X0204923Y0115419D01*
X0203687Y0118406D01*
X0201401Y0120691D01*
X0198415Y0121928D01*
X0195182Y0121928D01*
X0199274Y0121572D02*
X0211754Y0121572D01*
X0210831Y0119974D02*
X0202118Y0119974D01*
X0203699Y0118375D02*
X0210261Y0118375D01*
X0209832Y0116777D02*
X0204361Y0116777D01*
X0204923Y0115178D02*
X0209558Y0115178D01*
X0209558Y0113580D02*
X0204923Y0113580D01*
X0204838Y0111981D02*
X0209558Y0111981D01*
X0209558Y0110383D02*
X0204176Y0110383D01*
X0203270Y0108784D02*
X0209558Y0108784D01*
X0209558Y0107186D02*
X0201671Y0107186D01*
X0209558Y0105587D02*
X0181585Y0105587D01*
X0182508Y0107186D02*
X0191925Y0107186D01*
X0190327Y0108784D02*
X0183217Y0108784D01*
X0183645Y0110383D02*
X0189421Y0110383D01*
X0188759Y0111981D02*
X0184039Y0111981D01*
X0184039Y0113580D02*
X0188673Y0113580D01*
X0188673Y0115178D02*
X0184039Y0115178D01*
X0184039Y0116777D02*
X0189236Y0116777D01*
X0189898Y0118375D02*
X0184039Y0118375D01*
X0184039Y0119974D02*
X0191479Y0119974D01*
X0180355Y0103989D02*
X0209558Y0103989D01*
X0209558Y0102390D02*
X0178757Y0102390D01*
X0176303Y0100792D02*
X0209558Y0100792D01*
X0080305Y0097595D02*
X0061698Y0097595D01*
X0061698Y0095996D02*
X0079363Y0095996D01*
X0079087Y0094398D02*
X0061698Y0094398D01*
X0061698Y0092799D02*
X0077489Y0092799D01*
X0075890Y0091201D02*
X0061698Y0091201D01*
X0061698Y0089602D02*
X0074292Y0089602D01*
X0072693Y0088004D02*
X0061698Y0088004D01*
X0061698Y0086405D02*
X0071095Y0086405D01*
X0069496Y0084807D02*
X0061698Y0084807D01*
X0061698Y0083208D02*
X0067898Y0083208D01*
X0066299Y0081610D02*
X0061698Y0081610D01*
X0061698Y0080011D02*
X0064701Y0080011D01*
X0063102Y0078413D02*
X0061698Y0078413D01*
X0056898Y0081610D02*
X0037407Y0081610D01*
X0039622Y0083208D02*
X0056898Y0083208D01*
X0056898Y0084807D02*
X0040866Y0084807D01*
X0042055Y0086405D02*
X0056898Y0086405D01*
X0056898Y0088004D02*
X0042604Y0088004D01*
X0043153Y0089602D02*
X0056898Y0089602D01*
X0056898Y0091201D02*
X0043401Y0091201D01*
X0043401Y0092799D02*
X0056898Y0092799D01*
X0056898Y0094398D02*
X0043401Y0094398D01*
X0042923Y0095996D02*
X0056898Y0095996D01*
X0056898Y0097595D02*
X0042374Y0097595D01*
X0041590Y0099193D02*
X0056898Y0099193D01*
X0056898Y0100792D02*
X0040346Y0100792D01*
X0038830Y0102390D02*
X0056898Y0102390D01*
X0043530Y0052836D02*
X0041317Y0052836D01*
X0042054Y0049639D02*
X0048043Y0049639D01*
X0047197Y0048041D02*
X0042900Y0048041D01*
X0043098Y0046442D02*
X0046998Y0046442D01*
X0047333Y0044844D02*
X0042764Y0044844D01*
X0041726Y0043245D02*
X0048371Y0043245D01*
X0048705Y0038450D02*
X0034105Y0038450D01*
X0034598Y0036851D02*
X0046546Y0036851D01*
X0045798Y0035253D02*
X0034598Y0035253D01*
X0034474Y0033654D02*
X0045668Y0033654D01*
X0045668Y0032056D02*
X0033812Y0032056D01*
X0032887Y0030457D02*
X0045668Y0030457D01*
X0046254Y0028859D02*
X0031289Y0028859D01*
X0021308Y0028859D02*
X0001800Y0028859D01*
X0001800Y0030457D02*
X0019710Y0030457D01*
X0018785Y0032056D02*
X0001800Y0032056D01*
X0001800Y0033654D02*
X0018123Y0033654D01*
X0017998Y0035253D02*
X0001800Y0035253D01*
X0001800Y0036851D02*
X0017998Y0036851D01*
X0018492Y0038450D02*
X0001800Y0038450D01*
X0001800Y0040048D02*
X0019155Y0040048D01*
X0020601Y0041647D02*
X0001800Y0041647D01*
X0001800Y0043245D02*
X0023052Y0043245D01*
X0029545Y0043245D02*
X0034871Y0043245D01*
X0033833Y0044844D02*
X0001800Y0044844D01*
X0001800Y0046442D02*
X0033498Y0046442D01*
X0033697Y0048041D02*
X0001800Y0048041D01*
X0001800Y0049639D02*
X0034543Y0049639D01*
X0055554Y0049639D02*
X0056043Y0049639D01*
X0056371Y0043245D02*
X0055226Y0043245D01*
X0047648Y0027260D02*
X0001800Y0027260D01*
X0001800Y0025662D02*
X0537413Y0025662D01*
X0537413Y0024063D02*
X0001800Y0024063D01*
X0001800Y0022465D02*
X0537413Y0022465D01*
X0537413Y0020866D02*
X0001800Y0020866D01*
X0001800Y0019268D02*
X0537413Y0019268D01*
X0537413Y0017669D02*
X0001800Y0017669D01*
X0001800Y0016071D02*
X0537413Y0016071D01*
X0537413Y0014472D02*
X0001800Y0014472D01*
X0001800Y0012874D02*
X0537413Y0012874D01*
X0537413Y0011275D02*
X0001800Y0011275D01*
X0001800Y0009677D02*
X0537413Y0009677D01*
X0537413Y0008078D02*
X0001800Y0008078D01*
X0001800Y0006479D02*
X0537413Y0006479D01*
X0537413Y0004881D02*
X0001800Y0004881D01*
X0001800Y0003282D02*
X0537413Y0003282D01*
X0483167Y0065624D02*
X0420889Y0065624D01*
X0418122Y0064026D02*
X0479290Y0064026D01*
X0447870Y0091201D02*
X0537413Y0091201D01*
X0537413Y0092799D02*
X0448430Y0092799D01*
X0448936Y0094398D02*
X0537413Y0094398D01*
X0537413Y0095996D02*
X0449158Y0095996D01*
X0449192Y0097595D02*
X0537413Y0097595D01*
X0537413Y0099193D02*
X0449158Y0099193D01*
X0449158Y0100792D02*
X0537413Y0100792D01*
X0537413Y0102390D02*
X0449158Y0102390D01*
X0449158Y0103989D02*
X0537413Y0103989D01*
X0537413Y0105587D02*
X0449158Y0105587D01*
X0449158Y0107186D02*
X0537413Y0107186D01*
X0537413Y0108784D02*
X0449158Y0108784D01*
X0449158Y0110383D02*
X0537413Y0110383D01*
X0537413Y0111981D02*
X0449158Y0111981D01*
X0449158Y0113580D02*
X0537413Y0113580D01*
X0537413Y0115178D02*
X0449158Y0115178D01*
X0449158Y0116777D02*
X0537413Y0116777D01*
X0537413Y0118375D02*
X0449158Y0118375D01*
X0449158Y0119974D02*
X0537413Y0119974D01*
X0537413Y0121572D02*
X0449158Y0121572D01*
X0477993Y0143951D02*
X0491950Y0143951D01*
X0492869Y0145550D02*
X0480762Y0145550D01*
X0482413Y0147148D02*
X0494606Y0147148D01*
X0496819Y0148747D02*
X0484011Y0148747D01*
X0446908Y0089602D02*
X0537413Y0089602D01*
X0537413Y0088004D02*
X0445846Y0088004D01*
X0444228Y0086405D02*
X0537413Y0086405D01*
X0537413Y0084807D02*
X0442390Y0084807D01*
X0505438Y0446070D02*
X0537413Y0446070D01*
X0537413Y0447669D02*
X0509601Y0447669D01*
X0511938Y0449267D02*
X0537413Y0449267D01*
X0537413Y0450866D02*
X0513182Y0450866D01*
X0514426Y0452464D02*
X0537413Y0452464D01*
X0537413Y0454063D02*
X0514989Y0454063D01*
X0515538Y0455661D02*
X0537413Y0455661D01*
X0537413Y0457260D02*
X0515842Y0457260D01*
X0515842Y0458858D02*
X0537413Y0458858D01*
X0537413Y0460457D02*
X0515842Y0460457D01*
X0515419Y0462055D02*
X0537413Y0462055D01*
X0537413Y0463654D02*
X0514871Y0463654D01*
X0514157Y0465252D02*
X0537413Y0465252D01*
X0537413Y0466851D02*
X0512912Y0466851D01*
X0511518Y0468449D02*
X0537413Y0468449D01*
X0537413Y0470048D02*
X0509071Y0470048D01*
M02*
