%
M48
M72
T01C0.02400
T02C0.03150
T03C0.03200
T04C0.03937
T05C0.04000
T06C0.04300
T07C0.07100
T08C0.07800
T09C0.08100
T10C0.09000
T11C0.11024
T12C0.13400
%
T01
X75648Y93965
X63548Y110465
X56398Y190765
X86098Y207265
X89948Y203415
X111398Y203415
X118548Y207265
X162548Y255115
X226898Y278765
X250548Y288665
X226348Y318915
X243948Y331015
X131748Y348065
X127348Y359065
X116898Y333765
X99298Y339265
X100398Y365665
X87198Y378315
X69048Y355215
X56398Y353015
X71248Y323315
X95448Y312315
X82248Y288665
X132848Y395915
T02
X147132Y387465
X157132Y387465
X167132Y387465
X217798Y387798
X227798Y387798
X237798Y387798
X237798Y457798
X227798Y457798
X217798Y457798
X167132Y457465
X157132Y457465
X147132Y457465
X96465Y457465
X86465Y457465
X76465Y457465
X76465Y387465
X86465Y387465
X96465Y387465
X51798Y324158
X41798Y324158
X41798Y314158
X41798Y304158
X41798Y294158
X41798Y284158
X41798Y274158
X51798Y274158
X51798Y284158
X51798Y294158
X51798Y304158
X51798Y314158
X86798Y307465
X106798Y307465
X131798Y287465
X151798Y287465
X51798Y264158
X41798Y264158
X41798Y254158
X41798Y244158
X41798Y234158
X41798Y224158
X41798Y214158
X41798Y204158
X41798Y194158
X41798Y184158
X41798Y174158
X41798Y164158
X41798Y154158
X41798Y144158
X41798Y134158
X51798Y134158
X51798Y144158
X51798Y154158
X51798Y164158
X51798Y174158
X51798Y184158
X51798Y194158
X51798Y204158
X51798Y214158
X51798Y224158
X51798Y234158
X51798Y244158
X51798Y254158
T03
X116798Y342465
X126798Y342465
X136798Y342465
X136798Y367465
X126798Y367465
X116798Y367465
X176798Y362465
X176798Y352465
X176798Y327465
X176798Y317465
X206798Y317465
X206798Y327465
X206798Y352465
X206798Y362465
X236798Y362465
X236798Y372465
X236798Y352465
X261798Y352465
X261798Y362465
X261798Y372465
T04
X411798Y267465
X441798Y267465
X411798Y157465
X471798Y157465
X41798Y357465
X41798Y367465
T05
X38298Y56606
X46548Y56606
X54798Y56606
X63048Y56606
X71298Y56606
X71298Y46606
X59798Y46606
X51798Y46606
X38298Y46606
T06
X126798Y177465
X126798Y217465
X281798Y217465
X281798Y177465
T07
X224358Y113803
X196798Y113803
X169239Y113803
X379239Y113803
X406798Y113803
X434358Y113803
T08
X331798Y232465
X176798Y232465
T09
X186798Y162465
X341798Y162465
T10
X26298Y35606
X83298Y35606
X301798Y297465
X331798Y297465
X361798Y297465
T11
X503019Y137465
X503019Y458685
X30578Y458685
X30578Y92465
T12
X118058Y54354
X275539Y54354
X328058Y54354
X485539Y54354
M30
