%
M48
M72
T01C0.02362
T02C0.02400
T03C0.03150
T04C0.03200
T05C0.03937
T06C0.04000
T07C0.04300
T08C0.07100
T09C0.07800
T10C0.08100
T11C0.09000
T12C0.11024
T13C0.13400
%
T01
X147452Y337100
X67793Y354098
X94457Y414759
T02
X99298Y371215
X135548Y352465
X155548Y341215
X163048Y321215
X149298Y301215
X99298Y296215
X190548Y348715
X223048Y318715
X250548Y329965
X226798Y357465
X244298Y288715
X174298Y211215
X78048Y198715
X83048Y94965
X45548Y66215
X364298Y344965
T03
X237444Y387758
X227444Y387758
X217444Y387758
X167118Y388091
X157118Y388091
X147118Y388091
X96791Y387758
X86791Y387758
X76791Y387758
X51798Y324158
X41798Y324158
X41798Y314158
X41798Y304158
X41798Y294158
X41798Y284158
X41798Y274158
X51798Y274158
X51798Y284158
X51798Y294158
X51798Y304158
X51798Y314158
X86798Y307465
X106798Y307465
X131798Y287465
X151798Y287465
X51798Y264158
X41798Y264158
X41798Y254158
X41798Y244158
X41798Y234158
X41798Y224158
X41798Y214158
X41798Y204158
X41798Y194158
X41798Y184158
X41798Y174158
X41798Y164158
X41798Y154158
X41798Y144158
X41798Y134158
X51798Y134158
X51798Y144158
X51798Y154158
X51798Y164158
X51798Y174158
X51798Y184158
X51798Y194158
X51798Y204158
X51798Y214158
X51798Y224158
X51798Y234158
X51798Y244158
X51798Y254158
X76791Y457758
X86791Y457758
X96791Y457758
X147118Y458091
X157118Y458091
X167118Y458091
X217444Y457758
X227444Y457758
X237444Y457758
T04
X236798Y372465
X236798Y362465
X236798Y352465
X261798Y352465
X261798Y362465
X261798Y372465
X206798Y362465
X206798Y352465
X206798Y327465
X206798Y317465
X176798Y317465
X176798Y327465
X176798Y352465
X176798Y362465
X136798Y367465
X126798Y367465
X116798Y367465
X116798Y342465
X126798Y342465
X136798Y342465
T05
X41798Y357465
X41798Y367465
X411798Y267465
X441798Y267465
X411798Y157465
X471798Y157465
T06
X71298Y56606
X63048Y56606
X54798Y56606
X46548Y56606
X38298Y56606
X38298Y46606
X51798Y46606
X59798Y46606
X71298Y46606
T07
X126798Y177465
X126798Y217465
X281798Y217465
X281798Y177465
T08
X224358Y113803
X196798Y113803
X169239Y113803
X379239Y113803
X406798Y113803
X434358Y113803
T09
X331798Y232465
X176798Y232465
T10
X186798Y162465
X341798Y162465
T11
X26298Y35606
X83298Y35606
X301798Y297465
X331798Y297465
X361798Y297465
T12
X503019Y137465
X503019Y458685
X30578Y458685
X30578Y92465
T13
X118058Y54354
X275539Y54354
X328058Y54354
X485539Y54354
M30
