G75*
%MOIN*%
%OFA0B0*%
%FSLAX25Y25*%
%IPPOS*%
%LPD*%
%AMOC8*
5,1,8,0,0,1.08239X$1,22.5*
%
%ADD10C,0.00000*%
D10*
X0016798Y0022465D02*
X0016798Y0460654D01*
X0016801Y0460939D01*
X0016812Y0461225D01*
X0016829Y0461510D01*
X0016853Y0461794D01*
X0016884Y0462078D01*
X0016922Y0462361D01*
X0016967Y0462642D01*
X0017018Y0462923D01*
X0017076Y0463203D01*
X0017141Y0463481D01*
X0017213Y0463757D01*
X0017291Y0464031D01*
X0017376Y0464304D01*
X0017468Y0464574D01*
X0017566Y0464842D01*
X0017670Y0465108D01*
X0017781Y0465371D01*
X0017898Y0465631D01*
X0018021Y0465889D01*
X0018151Y0466143D01*
X0018287Y0466394D01*
X0018428Y0466642D01*
X0018576Y0466886D01*
X0018729Y0467127D01*
X0018889Y0467363D01*
X0019054Y0467596D01*
X0019224Y0467825D01*
X0019400Y0468050D01*
X0019582Y0468270D01*
X0019768Y0468486D01*
X0019960Y0468697D01*
X0020157Y0468904D01*
X0020359Y0469106D01*
X0020566Y0469303D01*
X0020777Y0469495D01*
X0020993Y0469681D01*
X0021213Y0469863D01*
X0021438Y0470039D01*
X0021667Y0470209D01*
X0021900Y0470374D01*
X0022136Y0470534D01*
X0022377Y0470687D01*
X0022621Y0470835D01*
X0022869Y0470976D01*
X0023120Y0471112D01*
X0023374Y0471242D01*
X0023632Y0471365D01*
X0023892Y0471482D01*
X0024155Y0471593D01*
X0024421Y0471697D01*
X0024689Y0471795D01*
X0024959Y0471887D01*
X0025232Y0471972D01*
X0025506Y0472050D01*
X0025782Y0472122D01*
X0026060Y0472187D01*
X0026340Y0472245D01*
X0026621Y0472296D01*
X0026902Y0472341D01*
X0027185Y0472379D01*
X0027469Y0472410D01*
X0027753Y0472434D01*
X0028038Y0472451D01*
X0028324Y0472462D01*
X0028609Y0472465D01*
X0504987Y0472465D01*
X0505272Y0472462D01*
X0505558Y0472451D01*
X0505843Y0472434D01*
X0506127Y0472410D01*
X0506411Y0472379D01*
X0506694Y0472341D01*
X0506975Y0472296D01*
X0507256Y0472245D01*
X0507536Y0472187D01*
X0507814Y0472122D01*
X0508090Y0472050D01*
X0508364Y0471972D01*
X0508637Y0471887D01*
X0508907Y0471795D01*
X0509175Y0471697D01*
X0509441Y0471593D01*
X0509704Y0471482D01*
X0509964Y0471365D01*
X0510222Y0471242D01*
X0510476Y0471112D01*
X0510727Y0470976D01*
X0510975Y0470835D01*
X0511219Y0470687D01*
X0511460Y0470534D01*
X0511696Y0470374D01*
X0511929Y0470209D01*
X0512158Y0470039D01*
X0512383Y0469863D01*
X0512603Y0469681D01*
X0512819Y0469495D01*
X0513030Y0469303D01*
X0513237Y0469106D01*
X0513439Y0468904D01*
X0513636Y0468697D01*
X0513828Y0468486D01*
X0514014Y0468270D01*
X0514196Y0468050D01*
X0514372Y0467825D01*
X0514542Y0467596D01*
X0514707Y0467363D01*
X0514867Y0467127D01*
X0515020Y0466886D01*
X0515168Y0466642D01*
X0515309Y0466394D01*
X0515445Y0466143D01*
X0515575Y0465889D01*
X0515698Y0465631D01*
X0515815Y0465371D01*
X0515926Y0465108D01*
X0516030Y0464842D01*
X0516128Y0464574D01*
X0516220Y0464304D01*
X0516305Y0464031D01*
X0516383Y0463757D01*
X0516455Y0463481D01*
X0516520Y0463203D01*
X0516578Y0462923D01*
X0516629Y0462642D01*
X0516674Y0462361D01*
X0516712Y0462078D01*
X0516743Y0461794D01*
X0516767Y0461510D01*
X0516784Y0461225D01*
X0516795Y0460939D01*
X0516798Y0460654D01*
X0516798Y0034276D01*
X0516795Y0033991D01*
X0516784Y0033705D01*
X0516767Y0033420D01*
X0516743Y0033136D01*
X0516712Y0032852D01*
X0516674Y0032569D01*
X0516629Y0032288D01*
X0516578Y0032007D01*
X0516520Y0031727D01*
X0516455Y0031449D01*
X0516383Y0031173D01*
X0516305Y0030899D01*
X0516220Y0030626D01*
X0516128Y0030356D01*
X0516030Y0030088D01*
X0515926Y0029822D01*
X0515815Y0029559D01*
X0515698Y0029299D01*
X0515575Y0029041D01*
X0515445Y0028787D01*
X0515309Y0028536D01*
X0515168Y0028288D01*
X0515020Y0028044D01*
X0514867Y0027803D01*
X0514707Y0027567D01*
X0514542Y0027334D01*
X0514372Y0027105D01*
X0514196Y0026880D01*
X0514014Y0026660D01*
X0513828Y0026444D01*
X0513636Y0026233D01*
X0513439Y0026026D01*
X0513237Y0025824D01*
X0513030Y0025627D01*
X0512819Y0025435D01*
X0512603Y0025249D01*
X0512383Y0025067D01*
X0512158Y0024891D01*
X0511929Y0024721D01*
X0511696Y0024556D01*
X0511460Y0024396D01*
X0511219Y0024243D01*
X0510975Y0024095D01*
X0510727Y0023954D01*
X0510476Y0023818D01*
X0510222Y0023688D01*
X0509964Y0023565D01*
X0509704Y0023448D01*
X0509441Y0023337D01*
X0509175Y0023233D01*
X0508907Y0023135D01*
X0508637Y0023043D01*
X0508364Y0022958D01*
X0508090Y0022880D01*
X0507814Y0022808D01*
X0507536Y0022743D01*
X0507256Y0022685D01*
X0506975Y0022634D01*
X0506694Y0022589D01*
X0506411Y0022551D01*
X0506127Y0022520D01*
X0505843Y0022496D01*
X0505558Y0022479D01*
X0505272Y0022468D01*
X0504987Y0022465D01*
X0016798Y0022465D01*
M02*
