G75*
%MOIN*%
%OFA0B0*%
%FSLAX25Y25*%
%IPPOS*%
%LPD*%
%AMOC8*
5,1,8,0,0,1.08239X$1,22.5*
%
%ADD10C,0.05200*%
%ADD11C,0.22500*%
%ADD12C,0.06450*%
%ADD13C,0.05150*%
%ADD14C,0.05937*%
%ADD15C,0.05937*%
%ADD16OC8,0.05150*%
%ADD17R,0.05150X0.05150*%
%ADD18C,0.13000*%
%ADD19C,0.06000*%
%ADD20C,0.10650*%
%ADD21C,0.01200*%
%ADD22C,0.04000*%
%ADD23C,0.24000*%
%ADD24C,0.01600*%
D10*
X0171598Y0317465D02*
X0176798Y0317465D01*
X0176798Y0327465D02*
X0171598Y0327465D01*
X0171598Y0352465D02*
X0176798Y0352465D01*
X0176798Y0362465D02*
X0171598Y0362465D01*
X0136798Y0364865D02*
X0136798Y0370065D01*
X0126798Y0370065D02*
X0126798Y0364865D01*
X0116798Y0364865D02*
X0116798Y0370065D01*
X0116798Y0345065D02*
X0116798Y0339865D01*
X0126798Y0339865D02*
X0126798Y0345065D01*
X0136798Y0345065D02*
X0136798Y0339865D01*
X0206798Y0327465D02*
X0211998Y0327465D01*
X0211998Y0317465D02*
X0206798Y0317465D01*
X0206798Y0352465D02*
X0211998Y0352465D01*
X0211998Y0362465D02*
X0206798Y0362465D01*
X0234198Y0362465D02*
X0239398Y0362465D01*
X0239398Y0372465D02*
X0234198Y0372465D01*
X0234198Y0352465D02*
X0239398Y0352465D01*
X0259198Y0352465D02*
X0264398Y0352465D01*
X0264398Y0362465D02*
X0259198Y0362465D01*
X0259198Y0372465D02*
X0264398Y0372465D01*
D11*
X0301798Y0297465D03*
X0331798Y0297465D03*
X0361798Y0297465D03*
X0331798Y0232465D03*
X0341798Y0162465D03*
X0186798Y0162465D03*
X0176798Y0232465D03*
D12*
X0126798Y0217465D03*
X0126798Y0177465D03*
X0281798Y0177465D03*
X0281798Y0217465D03*
D13*
X0151798Y0287465D03*
X0131798Y0287465D03*
X0106798Y0307465D03*
X0086798Y0307465D03*
X0051798Y0304158D03*
X0041798Y0304158D03*
X0041798Y0314158D03*
X0041798Y0324158D03*
X0051798Y0324158D03*
X0051798Y0314158D03*
X0051798Y0294158D03*
X0041798Y0294158D03*
X0041798Y0284158D03*
X0041798Y0274158D03*
X0051798Y0274158D03*
X0051798Y0284158D03*
X0051798Y0264158D03*
X0041798Y0264158D03*
X0041798Y0254158D03*
X0041798Y0244158D03*
X0041798Y0234158D03*
X0041798Y0224158D03*
X0041798Y0214158D03*
X0041798Y0204158D03*
X0041798Y0194158D03*
X0041798Y0184158D03*
X0041798Y0174158D03*
X0041798Y0164158D03*
X0041798Y0154158D03*
X0041798Y0144158D03*
X0041798Y0134158D03*
X0051798Y0134158D03*
X0051798Y0144158D03*
X0051798Y0154158D03*
X0051798Y0164158D03*
X0051798Y0174158D03*
X0051798Y0184158D03*
X0051798Y0194158D03*
X0051798Y0204158D03*
X0051798Y0214158D03*
X0051798Y0224158D03*
X0051798Y0234158D03*
X0051798Y0244158D03*
X0051798Y0254158D03*
D14*
X0411798Y0267465D03*
X0441798Y0267465D03*
X0411798Y0157465D03*
X0471798Y0157465D03*
D15*
X0044767Y0357465D02*
X0038830Y0357465D01*
X0038830Y0367465D02*
X0044767Y0367465D01*
D16*
X0076465Y0387465D03*
X0086465Y0387465D03*
X0096465Y0387465D03*
X0096465Y0457465D03*
X0086465Y0457465D03*
X0076465Y0457465D03*
X0217798Y0457798D03*
X0227798Y0457798D03*
X0237798Y0457798D03*
X0237798Y0387798D03*
X0227798Y0387798D03*
X0217798Y0387798D03*
D17*
X0167132Y0387465D03*
X0157132Y0387465D03*
X0147132Y0387465D03*
X0147132Y0457465D03*
X0157132Y0457465D03*
X0167132Y0457465D03*
D18*
X0083298Y0035606D03*
X0026298Y0035606D03*
D19*
X0038298Y0046606D03*
X0038298Y0056606D03*
X0046548Y0056606D03*
X0054798Y0056606D03*
X0063048Y0056606D03*
X0071298Y0056606D03*
X0071298Y0046606D03*
X0059798Y0046606D03*
X0051798Y0046606D03*
D20*
X0169239Y0113803D03*
X0196798Y0113803D03*
X0224358Y0113803D03*
X0379239Y0113803D03*
X0406798Y0113803D03*
X0434358Y0113803D03*
D21*
X0250548Y0288665D02*
X0204898Y0288665D01*
X0127348Y0211115D01*
X0116898Y0211115D01*
X0111398Y0205615D01*
X0111398Y0203415D01*
X0118548Y0207265D02*
X0126798Y0207265D01*
X0198298Y0278765D01*
X0226898Y0278765D01*
X0184548Y0312865D02*
X0170248Y0312865D01*
X0166948Y0316165D01*
X0166948Y0318915D01*
X0175198Y0327165D01*
X0176298Y0327165D01*
X0176798Y0327465D01*
X0176848Y0317815D02*
X0176798Y0317465D01*
X0176848Y0317815D02*
X0186198Y0317815D01*
X0220848Y0352465D01*
X0236798Y0352465D01*
X0236798Y0372465D02*
X0236798Y0377215D01*
X0244498Y0384915D01*
X0244498Y0390415D01*
X0240648Y0394265D01*
X0136698Y0394265D01*
X0134498Y0392065D01*
X0084998Y0392065D01*
X0081148Y0388215D01*
X0081148Y0359615D01*
X0046498Y0324965D01*
X0046498Y0282615D01*
X0042648Y0278765D01*
X0040448Y0278765D01*
X0037148Y0275465D01*
X0037148Y0192415D01*
X0040998Y0188565D01*
X0043748Y0188565D01*
X0047598Y0184715D01*
X0047598Y0178115D01*
X0051448Y0174265D01*
X0051798Y0174158D01*
X0051448Y0173715D01*
X0051448Y0169865D01*
X0046498Y0164915D01*
X0046498Y0162715D01*
X0042648Y0158865D01*
X0040448Y0158865D01*
X0034948Y0153365D01*
X0034948Y0106615D01*
X0046498Y0095065D01*
X0046498Y0057115D01*
X0046548Y0056606D01*
X0043748Y0051615D02*
X0038798Y0046665D01*
X0038298Y0046606D01*
X0043748Y0051615D02*
X0072898Y0051615D01*
X0079498Y0058215D01*
X0079498Y0177015D01*
X0113598Y0211115D01*
X0113598Y0300765D01*
X0169698Y0356865D01*
X0177398Y0356865D01*
X0197198Y0376665D01*
X0232948Y0376665D01*
X0242298Y0386015D01*
X0242298Y0389315D01*
X0239548Y0392065D01*
X0235148Y0392065D01*
X0231298Y0388215D01*
X0227998Y0388215D01*
X0227798Y0387798D01*
X0234048Y0387665D02*
X0225248Y0378865D01*
X0181798Y0378865D01*
X0111398Y0308465D01*
X0111398Y0212215D01*
X0075648Y0176465D01*
X0075648Y0093965D01*
X0063548Y0104965D02*
X0067398Y0108815D01*
X0067398Y0118715D01*
X0051998Y0134115D01*
X0051798Y0134158D01*
X0042098Y0134115D02*
X0042098Y0131915D01*
X0063548Y0110465D01*
X0063548Y0104965D02*
X0063548Y0057115D01*
X0063048Y0056606D01*
X0054798Y0056606D02*
X0054748Y0057115D01*
X0054748Y0114865D01*
X0037148Y0132465D01*
X0037148Y0145665D01*
X0040998Y0149515D01*
X0043198Y0149515D01*
X0047598Y0153915D01*
X0047598Y0159965D01*
X0051448Y0163815D01*
X0051798Y0164158D01*
X0056398Y0152815D02*
X0056398Y0190765D01*
X0051798Y0194158D02*
X0051998Y0194615D01*
X0060798Y0203415D01*
X0089948Y0203415D01*
X0086098Y0207265D02*
X0061348Y0207265D01*
X0052548Y0198465D01*
X0049798Y0198465D01*
X0047598Y0196265D01*
X0047598Y0188015D01*
X0051448Y0184165D01*
X0051798Y0184158D01*
X0041798Y0174158D02*
X0041548Y0174265D01*
X0034948Y0180865D01*
X0034948Y0323315D01*
X0066848Y0355215D01*
X0069048Y0355215D01*
X0056398Y0353015D02*
X0056398Y0367315D01*
X0076198Y0387115D01*
X0076465Y0387465D01*
X0071798Y0387665D02*
X0071798Y0388765D01*
X0078948Y0395915D01*
X0132848Y0395915D01*
X0127898Y0387115D02*
X0146598Y0387115D01*
X0147132Y0387465D01*
X0147698Y0387665D01*
X0152098Y0392065D01*
X0170248Y0392065D01*
X0174098Y0388215D01*
X0217548Y0388215D01*
X0217798Y0387798D01*
X0234048Y0387665D02*
X0237348Y0387665D01*
X0237798Y0387798D01*
X0257148Y0356865D02*
X0204898Y0356865D01*
X0200498Y0352465D01*
X0176798Y0352465D01*
X0203798Y0332115D02*
X0184548Y0312865D01*
X0202148Y0327165D02*
X0166948Y0291965D01*
X0136698Y0291965D01*
X0132298Y0287565D01*
X0131798Y0287465D01*
X0106798Y0307465D02*
X0106998Y0307915D01*
X0106998Y0357965D01*
X0116348Y0367315D01*
X0116798Y0367465D01*
X0126798Y0367465D02*
X0126798Y0367315D01*
X0131748Y0362365D01*
X0131748Y0348065D01*
X0136698Y0342565D02*
X0136798Y0342465D01*
X0136698Y0342565D02*
X0136698Y0367315D01*
X0136798Y0367465D01*
X0127348Y0359065D02*
X0122398Y0354115D01*
X0122398Y0339265D01*
X0116898Y0333765D01*
X0103148Y0340915D02*
X0103148Y0310115D01*
X0095448Y0302415D01*
X0095448Y0199565D01*
X0071798Y0175915D01*
X0071798Y0057115D01*
X0071298Y0056606D01*
X0042098Y0134115D02*
X0041798Y0134158D01*
X0041798Y0144158D02*
X0042098Y0144565D01*
X0045948Y0144565D01*
X0050898Y0149515D01*
X0053098Y0149515D01*
X0056398Y0152815D01*
X0041798Y0204158D02*
X0042098Y0204515D01*
X0042098Y0208365D01*
X0047598Y0213865D01*
X0047598Y0216065D01*
X0051448Y0219915D01*
X0053648Y0219915D01*
X0093248Y0259515D01*
X0093248Y0304615D01*
X0099298Y0310665D01*
X0099298Y0339265D01*
X0103148Y0340915D02*
X0083348Y0360715D01*
X0083348Y0379965D01*
X0086098Y0382715D01*
X0086098Y0387115D01*
X0086465Y0387465D01*
X0087198Y0378315D02*
X0099848Y0365665D01*
X0100398Y0365665D01*
X0106448Y0365665D01*
X0127898Y0387115D01*
X0071798Y0387665D02*
X0042098Y0357965D01*
X0041798Y0357465D01*
X0071248Y0323315D02*
X0086648Y0307915D01*
X0086798Y0307465D01*
X0095448Y0310115D02*
X0095448Y0312315D01*
X0095448Y0310115D02*
X0065198Y0279865D01*
X0051448Y0279865D01*
X0045948Y0274365D01*
X0042098Y0274365D01*
X0041798Y0274158D01*
X0050898Y0259515D02*
X0053098Y0259515D01*
X0082248Y0288665D01*
X0050898Y0259515D02*
X0047598Y0256215D01*
X0047598Y0223765D01*
X0042098Y0218265D01*
X0042098Y0214415D01*
X0041798Y0214158D01*
X0162548Y0255115D02*
X0226348Y0318915D01*
X0214798Y0331015D02*
X0213698Y0332115D01*
X0203798Y0332115D01*
X0202148Y0327165D02*
X0206548Y0327165D01*
X0206798Y0327465D01*
X0214798Y0331015D02*
X0243948Y0331015D01*
X0261548Y0352465D02*
X0257148Y0356865D01*
X0261548Y0352465D02*
X0261798Y0352465D01*
D22*
X0243948Y0331015D03*
X0226348Y0318915D03*
X0250548Y0288665D03*
X0226898Y0278765D03*
X0162548Y0255115D03*
X0118548Y0207265D03*
X0111398Y0203415D03*
X0089948Y0203415D03*
X0086098Y0207265D03*
X0056398Y0190765D03*
X0063548Y0110465D03*
X0075648Y0093965D03*
X0082248Y0288665D03*
X0095448Y0312315D03*
X0071248Y0323315D03*
X0099298Y0339265D03*
X0116898Y0333765D03*
X0131748Y0348065D03*
X0127348Y0359065D03*
X0100398Y0365665D03*
X0087198Y0378315D03*
X0069048Y0355215D03*
X0056398Y0353015D03*
X0132848Y0395915D03*
D23*
X0206798Y0262465D02*
X0176798Y0232465D01*
X0206798Y0262465D02*
X0301798Y0262465D01*
X0331798Y0232465D01*
X0301798Y0262465D02*
X0301798Y0297465D01*
X0301798Y0317465D01*
X0311798Y0327465D01*
X0421798Y0327465D01*
X0491798Y0257465D01*
X0491798Y0177465D01*
X0471798Y0157465D01*
X0434358Y0134905D02*
X0411798Y0157465D01*
X0411798Y0212465D01*
X0361798Y0262465D01*
X0361798Y0297465D01*
X0341798Y0162465D02*
X0341798Y0132465D01*
X0360460Y0113803D01*
X0379239Y0113803D01*
X0411798Y0077465D02*
X0434358Y0097465D01*
X0434358Y0113803D01*
X0434358Y0134905D01*
X0411798Y0077465D02*
X0236798Y0077465D01*
X0224358Y0089905D01*
X0224358Y0113803D01*
X0169239Y0113803D02*
X0169239Y0144905D01*
X0186798Y0162465D01*
D24*
X0001800Y0001800D02*
X0001800Y0487418D01*
X0537413Y0487418D01*
X0537413Y0001800D01*
X0001800Y0001800D01*
X0001800Y0003282D02*
X0537413Y0003282D01*
X0537413Y0004881D02*
X0001800Y0004881D01*
X0001800Y0006479D02*
X0537413Y0006479D01*
X0537413Y0008078D02*
X0001800Y0008078D01*
X0001800Y0009677D02*
X0537413Y0009677D01*
X0537413Y0011275D02*
X0001800Y0011275D01*
X0001800Y0012874D02*
X0537413Y0012874D01*
X0537413Y0014472D02*
X0001800Y0014472D01*
X0001800Y0016071D02*
X0537413Y0016071D01*
X0537413Y0017669D02*
X0507191Y0017669D01*
X0507174Y0017665D02*
X0511399Y0018797D01*
X0515187Y0020983D01*
X0518280Y0024076D01*
X0520466Y0027864D01*
X0521598Y0032089D01*
X0521598Y0462840D01*
X0520466Y0467065D01*
X0518280Y0470853D01*
X0515187Y0473946D01*
X0515187Y0473946D01*
X0511399Y0476133D01*
X0507174Y0477265D01*
X0026423Y0477265D01*
X0022198Y0476133D01*
X0022198Y0476133D01*
X0018410Y0473946D01*
X0015317Y0470853D01*
X0013131Y0467065D01*
X0011998Y0462840D01*
X0011998Y0021510D01*
X0012729Y0019746D01*
X0014080Y0018395D01*
X0015844Y0017665D01*
X0017753Y0017665D01*
X0504033Y0017665D01*
X0507174Y0017665D01*
X0512215Y0019268D02*
X0537413Y0019268D01*
X0537413Y0020866D02*
X0514984Y0020866D01*
X0515187Y0020983D02*
X0515187Y0020983D01*
X0516668Y0022465D02*
X0537413Y0022465D01*
X0537413Y0024063D02*
X0518266Y0024063D01*
X0518280Y0024076D02*
X0518280Y0024076D01*
X0518280Y0024076D01*
X0519195Y0025662D02*
X0537413Y0025662D01*
X0537413Y0027260D02*
X0520118Y0027260D01*
X0520466Y0027864D02*
X0520466Y0027864D01*
X0520733Y0028859D02*
X0537413Y0028859D01*
X0537413Y0030457D02*
X0521161Y0030457D01*
X0521590Y0032056D02*
X0537413Y0032056D01*
X0537413Y0033654D02*
X0521598Y0033654D01*
X0521598Y0035253D02*
X0537413Y0035253D01*
X0537413Y0036851D02*
X0521598Y0036851D01*
X0521598Y0038450D02*
X0537413Y0038450D01*
X0537413Y0040048D02*
X0521598Y0040048D01*
X0521598Y0041647D02*
X0537413Y0041647D01*
X0537413Y0043245D02*
X0521598Y0043245D01*
X0521598Y0044844D02*
X0537413Y0044844D01*
X0537413Y0046442D02*
X0521598Y0046442D01*
X0521598Y0048041D02*
X0537413Y0048041D01*
X0537413Y0049639D02*
X0521598Y0049639D01*
X0521598Y0051238D02*
X0537413Y0051238D01*
X0537413Y0052836D02*
X0521598Y0052836D01*
X0521598Y0054435D02*
X0537413Y0054435D01*
X0537413Y0056033D02*
X0521598Y0056033D01*
X0521598Y0057632D02*
X0537413Y0057632D01*
X0537413Y0059230D02*
X0521598Y0059230D01*
X0521598Y0060829D02*
X0537413Y0060829D01*
X0537413Y0062427D02*
X0521598Y0062427D01*
X0521598Y0064026D02*
X0537413Y0064026D01*
X0537413Y0065624D02*
X0521598Y0065624D01*
X0521598Y0067223D02*
X0537413Y0067223D01*
X0537413Y0068821D02*
X0521598Y0068821D01*
X0521598Y0070420D02*
X0537413Y0070420D01*
X0537413Y0072018D02*
X0521598Y0072018D01*
X0521598Y0073617D02*
X0537413Y0073617D01*
X0537413Y0075215D02*
X0521598Y0075215D01*
X0521598Y0076814D02*
X0537413Y0076814D01*
X0537413Y0078413D02*
X0521598Y0078413D01*
X0521598Y0080011D02*
X0537413Y0080011D01*
X0537413Y0081610D02*
X0521598Y0081610D01*
X0521598Y0083208D02*
X0537413Y0083208D01*
X0537413Y0084807D02*
X0521598Y0084807D01*
X0521598Y0086405D02*
X0537413Y0086405D01*
X0537413Y0088004D02*
X0521598Y0088004D01*
X0521598Y0089602D02*
X0537413Y0089602D01*
X0537413Y0091201D02*
X0521598Y0091201D01*
X0521598Y0092799D02*
X0537413Y0092799D01*
X0537413Y0094398D02*
X0521598Y0094398D01*
X0521598Y0095996D02*
X0537413Y0095996D01*
X0537413Y0097595D02*
X0521598Y0097595D01*
X0521598Y0099193D02*
X0537413Y0099193D01*
X0537413Y0100792D02*
X0521598Y0100792D01*
X0521598Y0102390D02*
X0537413Y0102390D01*
X0537413Y0103989D02*
X0521598Y0103989D01*
X0521598Y0105587D02*
X0537413Y0105587D01*
X0537413Y0107186D02*
X0521598Y0107186D01*
X0521598Y0108784D02*
X0537413Y0108784D01*
X0537413Y0110383D02*
X0521598Y0110383D01*
X0521598Y0111981D02*
X0537413Y0111981D01*
X0537413Y0113580D02*
X0521598Y0113580D01*
X0521598Y0115178D02*
X0537413Y0115178D01*
X0537413Y0116777D02*
X0521598Y0116777D01*
X0521598Y0118375D02*
X0537413Y0118375D01*
X0537413Y0119974D02*
X0521598Y0119974D01*
X0521598Y0121572D02*
X0537413Y0121572D01*
X0537413Y0123171D02*
X0521598Y0123171D01*
X0521598Y0124769D02*
X0537413Y0124769D01*
X0537413Y0126368D02*
X0521598Y0126368D01*
X0521598Y0127966D02*
X0537413Y0127966D01*
X0537413Y0129565D02*
X0521598Y0129565D01*
X0521598Y0131163D02*
X0537413Y0131163D01*
X0537413Y0132762D02*
X0521598Y0132762D01*
X0521598Y0134360D02*
X0537413Y0134360D01*
X0537413Y0135959D02*
X0521598Y0135959D01*
X0521598Y0137557D02*
X0537413Y0137557D01*
X0537413Y0139156D02*
X0521598Y0139156D01*
X0521598Y0140754D02*
X0537413Y0140754D01*
X0537413Y0142353D02*
X0521598Y0142353D01*
X0521598Y0143951D02*
X0537413Y0143951D01*
X0537413Y0145550D02*
X0521598Y0145550D01*
X0521598Y0147148D02*
X0537413Y0147148D01*
X0537413Y0148747D02*
X0521598Y0148747D01*
X0521598Y0150346D02*
X0537413Y0150346D01*
X0537413Y0151944D02*
X0521598Y0151944D01*
X0521598Y0153543D02*
X0537413Y0153543D01*
X0537413Y0155141D02*
X0521598Y0155141D01*
X0521598Y0156740D02*
X0537413Y0156740D01*
X0537413Y0158338D02*
X0521598Y0158338D01*
X0521598Y0159937D02*
X0537413Y0159937D01*
X0537413Y0161535D02*
X0521598Y0161535D01*
X0521598Y0163134D02*
X0537413Y0163134D01*
X0537413Y0164732D02*
X0521598Y0164732D01*
X0521598Y0166331D02*
X0537413Y0166331D01*
X0537413Y0167929D02*
X0521598Y0167929D01*
X0521598Y0169528D02*
X0537413Y0169528D01*
X0537413Y0171126D02*
X0521598Y0171126D01*
X0521598Y0172725D02*
X0537413Y0172725D01*
X0537413Y0174323D02*
X0521598Y0174323D01*
X0521598Y0175922D02*
X0537413Y0175922D01*
X0537413Y0177520D02*
X0521598Y0177520D01*
X0521598Y0179119D02*
X0537413Y0179119D01*
X0537413Y0180717D02*
X0521598Y0180717D01*
X0521598Y0182316D02*
X0537413Y0182316D01*
X0537413Y0183914D02*
X0521598Y0183914D01*
X0521598Y0185513D02*
X0537413Y0185513D01*
X0537413Y0187111D02*
X0521598Y0187111D01*
X0521598Y0188710D02*
X0537413Y0188710D01*
X0537413Y0190308D02*
X0521598Y0190308D01*
X0521598Y0191907D02*
X0537413Y0191907D01*
X0537413Y0193505D02*
X0521598Y0193505D01*
X0521598Y0195104D02*
X0537413Y0195104D01*
X0537413Y0196702D02*
X0521598Y0196702D01*
X0521598Y0198301D02*
X0537413Y0198301D01*
X0537413Y0199899D02*
X0521598Y0199899D01*
X0521598Y0201498D02*
X0537413Y0201498D01*
X0537413Y0203096D02*
X0521598Y0203096D01*
X0521598Y0204695D02*
X0537413Y0204695D01*
X0537413Y0206293D02*
X0521598Y0206293D01*
X0521598Y0207892D02*
X0537413Y0207892D01*
X0537413Y0209490D02*
X0521598Y0209490D01*
X0521598Y0211089D02*
X0537413Y0211089D01*
X0537413Y0212687D02*
X0521598Y0212687D01*
X0521598Y0214286D02*
X0537413Y0214286D01*
X0537413Y0215884D02*
X0521598Y0215884D01*
X0521598Y0217483D02*
X0537413Y0217483D01*
X0537413Y0219081D02*
X0521598Y0219081D01*
X0521598Y0220680D02*
X0537413Y0220680D01*
X0537413Y0222279D02*
X0521598Y0222279D01*
X0521598Y0223877D02*
X0537413Y0223877D01*
X0537413Y0225476D02*
X0521598Y0225476D01*
X0521598Y0227074D02*
X0537413Y0227074D01*
X0537413Y0228673D02*
X0521598Y0228673D01*
X0521598Y0230271D02*
X0537413Y0230271D01*
X0537413Y0231870D02*
X0521598Y0231870D01*
X0521598Y0233468D02*
X0537413Y0233468D01*
X0537413Y0235067D02*
X0521598Y0235067D01*
X0521598Y0236665D02*
X0537413Y0236665D01*
X0537413Y0238264D02*
X0521598Y0238264D01*
X0521598Y0239862D02*
X0537413Y0239862D01*
X0537413Y0241461D02*
X0521598Y0241461D01*
X0521598Y0243059D02*
X0537413Y0243059D01*
X0537413Y0244658D02*
X0521598Y0244658D01*
X0521598Y0246256D02*
X0537413Y0246256D01*
X0537413Y0247855D02*
X0521598Y0247855D01*
X0521598Y0249453D02*
X0537413Y0249453D01*
X0537413Y0251052D02*
X0521598Y0251052D01*
X0521598Y0252650D02*
X0537413Y0252650D01*
X0537413Y0254249D02*
X0521598Y0254249D01*
X0521598Y0255847D02*
X0537413Y0255847D01*
X0537413Y0257446D02*
X0521598Y0257446D01*
X0521598Y0259044D02*
X0537413Y0259044D01*
X0537413Y0260643D02*
X0521598Y0260643D01*
X0521598Y0262241D02*
X0537413Y0262241D01*
X0537413Y0263840D02*
X0521598Y0263840D01*
X0521598Y0265438D02*
X0537413Y0265438D01*
X0537413Y0267037D02*
X0521598Y0267037D01*
X0521598Y0268635D02*
X0537413Y0268635D01*
X0537413Y0270234D02*
X0521598Y0270234D01*
X0521598Y0271832D02*
X0537413Y0271832D01*
X0537413Y0273431D02*
X0521598Y0273431D01*
X0521598Y0275029D02*
X0537413Y0275029D01*
X0537413Y0276628D02*
X0521598Y0276628D01*
X0521598Y0278226D02*
X0537413Y0278226D01*
X0537413Y0279825D02*
X0521598Y0279825D01*
X0521598Y0281423D02*
X0537413Y0281423D01*
X0537413Y0283022D02*
X0521598Y0283022D01*
X0521598Y0284620D02*
X0537413Y0284620D01*
X0537413Y0286219D02*
X0521598Y0286219D01*
X0521598Y0287817D02*
X0537413Y0287817D01*
X0537413Y0289416D02*
X0521598Y0289416D01*
X0521598Y0291015D02*
X0537413Y0291015D01*
X0537413Y0292613D02*
X0521598Y0292613D01*
X0521598Y0294212D02*
X0537413Y0294212D01*
X0537413Y0295810D02*
X0521598Y0295810D01*
X0521598Y0297409D02*
X0537413Y0297409D01*
X0537413Y0299007D02*
X0521598Y0299007D01*
X0521598Y0300606D02*
X0537413Y0300606D01*
X0537413Y0302204D02*
X0521598Y0302204D01*
X0521598Y0303803D02*
X0537413Y0303803D01*
X0537413Y0305401D02*
X0521598Y0305401D01*
X0521598Y0307000D02*
X0537413Y0307000D01*
X0537413Y0308598D02*
X0521598Y0308598D01*
X0521598Y0310197D02*
X0537413Y0310197D01*
X0537413Y0311795D02*
X0521598Y0311795D01*
X0521598Y0313394D02*
X0537413Y0313394D01*
X0537413Y0314992D02*
X0521598Y0314992D01*
X0521598Y0316591D02*
X0537413Y0316591D01*
X0537413Y0318189D02*
X0521598Y0318189D01*
X0521598Y0319788D02*
X0537413Y0319788D01*
X0537413Y0321386D02*
X0521598Y0321386D01*
X0521598Y0322985D02*
X0537413Y0322985D01*
X0537413Y0324583D02*
X0521598Y0324583D01*
X0521598Y0326182D02*
X0537413Y0326182D01*
X0537413Y0327780D02*
X0521598Y0327780D01*
X0521598Y0329379D02*
X0537413Y0329379D01*
X0537413Y0330977D02*
X0521598Y0330977D01*
X0521598Y0332576D02*
X0537413Y0332576D01*
X0537413Y0334174D02*
X0521598Y0334174D01*
X0521598Y0335773D02*
X0537413Y0335773D01*
X0537413Y0337371D02*
X0521598Y0337371D01*
X0521598Y0338970D02*
X0537413Y0338970D01*
X0537413Y0340568D02*
X0521598Y0340568D01*
X0521598Y0342167D02*
X0537413Y0342167D01*
X0537413Y0343765D02*
X0521598Y0343765D01*
X0521598Y0345364D02*
X0537413Y0345364D01*
X0537413Y0346962D02*
X0521598Y0346962D01*
X0521598Y0348561D02*
X0537413Y0348561D01*
X0537413Y0350159D02*
X0521598Y0350159D01*
X0521598Y0351758D02*
X0537413Y0351758D01*
X0537413Y0353356D02*
X0521598Y0353356D01*
X0521598Y0354955D02*
X0537413Y0354955D01*
X0537413Y0356553D02*
X0521598Y0356553D01*
X0521598Y0358152D02*
X0537413Y0358152D01*
X0537413Y0359750D02*
X0521598Y0359750D01*
X0521598Y0361349D02*
X0537413Y0361349D01*
X0537413Y0362948D02*
X0521598Y0362948D01*
X0521598Y0364546D02*
X0537413Y0364546D01*
X0537413Y0366145D02*
X0521598Y0366145D01*
X0521598Y0367743D02*
X0537413Y0367743D01*
X0537413Y0369342D02*
X0521598Y0369342D01*
X0521598Y0370940D02*
X0537413Y0370940D01*
X0537413Y0372539D02*
X0521598Y0372539D01*
X0521598Y0374137D02*
X0537413Y0374137D01*
X0537413Y0375736D02*
X0521598Y0375736D01*
X0521598Y0377334D02*
X0537413Y0377334D01*
X0537413Y0378933D02*
X0521598Y0378933D01*
X0521598Y0380531D02*
X0537413Y0380531D01*
X0537413Y0382130D02*
X0521598Y0382130D01*
X0521598Y0383728D02*
X0537413Y0383728D01*
X0537413Y0385327D02*
X0521598Y0385327D01*
X0521598Y0386925D02*
X0537413Y0386925D01*
X0537413Y0388524D02*
X0521598Y0388524D01*
X0521598Y0390122D02*
X0537413Y0390122D01*
X0537413Y0391721D02*
X0521598Y0391721D01*
X0521598Y0393319D02*
X0537413Y0393319D01*
X0537413Y0394918D02*
X0521598Y0394918D01*
X0521598Y0396516D02*
X0537413Y0396516D01*
X0537413Y0398115D02*
X0521598Y0398115D01*
X0521598Y0399713D02*
X0537413Y0399713D01*
X0537413Y0401312D02*
X0521598Y0401312D01*
X0521598Y0402910D02*
X0537413Y0402910D01*
X0537413Y0404509D02*
X0521598Y0404509D01*
X0521598Y0406107D02*
X0537413Y0406107D01*
X0537413Y0407706D02*
X0521598Y0407706D01*
X0521598Y0409304D02*
X0537413Y0409304D01*
X0537413Y0410903D02*
X0521598Y0410903D01*
X0521598Y0412501D02*
X0537413Y0412501D01*
X0537413Y0414100D02*
X0521598Y0414100D01*
X0521598Y0415698D02*
X0537413Y0415698D01*
X0537413Y0417297D02*
X0521598Y0417297D01*
X0521598Y0418895D02*
X0537413Y0418895D01*
X0537413Y0420494D02*
X0521598Y0420494D01*
X0521598Y0422092D02*
X0537413Y0422092D01*
X0537413Y0423691D02*
X0521598Y0423691D01*
X0521598Y0425289D02*
X0537413Y0425289D01*
X0537413Y0426888D02*
X0521598Y0426888D01*
X0521598Y0428486D02*
X0537413Y0428486D01*
X0537413Y0430085D02*
X0521598Y0430085D01*
X0521598Y0431684D02*
X0537413Y0431684D01*
X0537413Y0433282D02*
X0521598Y0433282D01*
X0521598Y0434881D02*
X0537413Y0434881D01*
X0537413Y0436479D02*
X0521598Y0436479D01*
X0521598Y0438078D02*
X0537413Y0438078D01*
X0537413Y0439676D02*
X0521598Y0439676D01*
X0521598Y0441275D02*
X0537413Y0441275D01*
X0537413Y0442873D02*
X0521598Y0442873D01*
X0521598Y0444472D02*
X0537413Y0444472D01*
X0537413Y0446070D02*
X0521598Y0446070D01*
X0521598Y0447669D02*
X0537413Y0447669D01*
X0537413Y0449267D02*
X0521598Y0449267D01*
X0521598Y0450866D02*
X0537413Y0450866D01*
X0537413Y0452464D02*
X0521598Y0452464D01*
X0521598Y0454063D02*
X0537413Y0454063D01*
X0537413Y0455661D02*
X0521598Y0455661D01*
X0521598Y0457260D02*
X0537413Y0457260D01*
X0537413Y0458858D02*
X0521598Y0458858D01*
X0521598Y0460457D02*
X0537413Y0460457D01*
X0537413Y0462055D02*
X0521598Y0462055D01*
X0521381Y0463654D02*
X0537413Y0463654D01*
X0537413Y0465252D02*
X0520952Y0465252D01*
X0520524Y0466851D02*
X0537413Y0466851D01*
X0537413Y0468449D02*
X0519667Y0468449D01*
X0520466Y0467065D02*
X0520466Y0467065D01*
X0518744Y0470048D02*
X0537413Y0470048D01*
X0537413Y0471646D02*
X0517486Y0471646D01*
X0518280Y0470853D02*
X0518280Y0470853D01*
X0515888Y0473245D02*
X0537413Y0473245D01*
X0537413Y0474843D02*
X0513632Y0474843D01*
X0511399Y0476133D02*
X0511399Y0476133D01*
X0510245Y0476442D02*
X0537413Y0476442D01*
X0537413Y0478040D02*
X0001800Y0478040D01*
X0001800Y0476442D02*
X0023352Y0476442D01*
X0019965Y0474843D02*
X0001800Y0474843D01*
X0001800Y0473245D02*
X0017709Y0473245D01*
X0018410Y0473946D02*
X0018410Y0473946D01*
X0016111Y0471646D02*
X0001800Y0471646D01*
X0001800Y0470048D02*
X0014853Y0470048D01*
X0015317Y0470853D02*
X0015317Y0470853D01*
X0013930Y0468449D02*
X0001800Y0468449D01*
X0001800Y0466851D02*
X0013073Y0466851D01*
X0013131Y0467065D02*
X0013131Y0467065D01*
X0012645Y0465252D02*
X0001800Y0465252D01*
X0001800Y0463654D02*
X0012216Y0463654D01*
X0011998Y0462055D02*
X0001800Y0462055D01*
X0001800Y0460457D02*
X0011998Y0460457D01*
X0011998Y0458858D02*
X0001800Y0458858D01*
X0001800Y0457260D02*
X0011998Y0457260D01*
X0011998Y0455661D02*
X0001800Y0455661D01*
X0001800Y0454063D02*
X0011998Y0454063D01*
X0011998Y0452464D02*
X0001800Y0452464D01*
X0001800Y0450866D02*
X0011998Y0450866D01*
X0011998Y0449267D02*
X0001800Y0449267D01*
X0001800Y0447669D02*
X0011998Y0447669D01*
X0011998Y0446070D02*
X0001800Y0446070D01*
X0001800Y0444472D02*
X0011998Y0444472D01*
X0011998Y0442873D02*
X0001800Y0442873D01*
X0001800Y0441275D02*
X0011998Y0441275D01*
X0011998Y0439676D02*
X0001800Y0439676D01*
X0001800Y0438078D02*
X0011998Y0438078D01*
X0011998Y0436479D02*
X0001800Y0436479D01*
X0001800Y0434881D02*
X0011998Y0434881D01*
X0011998Y0433282D02*
X0001800Y0433282D01*
X0001800Y0431684D02*
X0011998Y0431684D01*
X0011998Y0430085D02*
X0001800Y0430085D01*
X0001800Y0428486D02*
X0011998Y0428486D01*
X0011998Y0426888D02*
X0001800Y0426888D01*
X0001800Y0425289D02*
X0011998Y0425289D01*
X0011998Y0423691D02*
X0001800Y0423691D01*
X0001800Y0422092D02*
X0011998Y0422092D01*
X0011998Y0420494D02*
X0001800Y0420494D01*
X0001800Y0418895D02*
X0011998Y0418895D01*
X0011998Y0417297D02*
X0001800Y0417297D01*
X0001800Y0415698D02*
X0011998Y0415698D01*
X0011998Y0414100D02*
X0001800Y0414100D01*
X0001800Y0412501D02*
X0011998Y0412501D01*
X0011998Y0410903D02*
X0001800Y0410903D01*
X0001800Y0409304D02*
X0011998Y0409304D01*
X0011998Y0407706D02*
X0001800Y0407706D01*
X0001800Y0406107D02*
X0011998Y0406107D01*
X0011998Y0404509D02*
X0001800Y0404509D01*
X0001800Y0402910D02*
X0011998Y0402910D01*
X0011998Y0401312D02*
X0001800Y0401312D01*
X0001800Y0399713D02*
X0011998Y0399713D01*
X0011998Y0398115D02*
X0001800Y0398115D01*
X0001800Y0396516D02*
X0011998Y0396516D01*
X0011998Y0394918D02*
X0001800Y0394918D01*
X0001800Y0393319D02*
X0011998Y0393319D01*
X0011998Y0391721D02*
X0001800Y0391721D01*
X0001800Y0390122D02*
X0011998Y0390122D01*
X0011998Y0388524D02*
X0001800Y0388524D01*
X0001800Y0386925D02*
X0011998Y0386925D01*
X0011998Y0385327D02*
X0001800Y0385327D01*
X0001800Y0383728D02*
X0011998Y0383728D01*
X0011998Y0382130D02*
X0001800Y0382130D01*
X0001800Y0380531D02*
X0011998Y0380531D01*
X0011998Y0378933D02*
X0001800Y0378933D01*
X0001800Y0377334D02*
X0011998Y0377334D01*
X0011998Y0375736D02*
X0001800Y0375736D01*
X0001800Y0374137D02*
X0011998Y0374137D01*
X0011998Y0372539D02*
X0001800Y0372539D01*
X0001800Y0370940D02*
X0011998Y0370940D01*
X0011998Y0369342D02*
X0001800Y0369342D01*
X0001800Y0367743D02*
X0011998Y0367743D01*
X0011998Y0366145D02*
X0001800Y0366145D01*
X0001800Y0364546D02*
X0011998Y0364546D01*
X0011998Y0362948D02*
X0001800Y0362948D01*
X0001800Y0361349D02*
X0011998Y0361349D01*
X0011998Y0359750D02*
X0001800Y0359750D01*
X0001800Y0358152D02*
X0011998Y0358152D01*
X0011998Y0356553D02*
X0001800Y0356553D01*
X0001800Y0354955D02*
X0011998Y0354955D01*
X0011998Y0353356D02*
X0001800Y0353356D01*
X0001800Y0351758D02*
X0011998Y0351758D01*
X0011998Y0350159D02*
X0001800Y0350159D01*
X0001800Y0348561D02*
X0011998Y0348561D01*
X0011998Y0346962D02*
X0001800Y0346962D01*
X0001800Y0345364D02*
X0011998Y0345364D01*
X0011998Y0343765D02*
X0001800Y0343765D01*
X0001800Y0342167D02*
X0011998Y0342167D01*
X0011998Y0340568D02*
X0001800Y0340568D01*
X0001800Y0338970D02*
X0011998Y0338970D01*
X0011998Y0337371D02*
X0001800Y0337371D01*
X0001800Y0335773D02*
X0011998Y0335773D01*
X0011998Y0334174D02*
X0001800Y0334174D01*
X0001800Y0332576D02*
X0011998Y0332576D01*
X0011998Y0330977D02*
X0001800Y0330977D01*
X0001800Y0329379D02*
X0011998Y0329379D01*
X0011998Y0327780D02*
X0001800Y0327780D01*
X0001800Y0326182D02*
X0011998Y0326182D01*
X0011998Y0324583D02*
X0001800Y0324583D01*
X0001800Y0322985D02*
X0011998Y0322985D01*
X0011998Y0321386D02*
X0001800Y0321386D01*
X0001800Y0319788D02*
X0011998Y0319788D01*
X0011998Y0318189D02*
X0001800Y0318189D01*
X0001800Y0316591D02*
X0011998Y0316591D01*
X0011998Y0314992D02*
X0001800Y0314992D01*
X0001800Y0313394D02*
X0011998Y0313394D01*
X0011998Y0311795D02*
X0001800Y0311795D01*
X0001800Y0310197D02*
X0011998Y0310197D01*
X0011998Y0308598D02*
X0001800Y0308598D01*
X0001800Y0307000D02*
X0011998Y0307000D01*
X0011998Y0305401D02*
X0001800Y0305401D01*
X0001800Y0303803D02*
X0011998Y0303803D01*
X0011998Y0302204D02*
X0001800Y0302204D01*
X0001800Y0300606D02*
X0011998Y0300606D01*
X0011998Y0299007D02*
X0001800Y0299007D01*
X0001800Y0297409D02*
X0011998Y0297409D01*
X0011998Y0295810D02*
X0001800Y0295810D01*
X0001800Y0294212D02*
X0011998Y0294212D01*
X0011998Y0292613D02*
X0001800Y0292613D01*
X0001800Y0291015D02*
X0011998Y0291015D01*
X0011998Y0289416D02*
X0001800Y0289416D01*
X0001800Y0287817D02*
X0011998Y0287817D01*
X0011998Y0286219D02*
X0001800Y0286219D01*
X0001800Y0284620D02*
X0011998Y0284620D01*
X0011998Y0283022D02*
X0001800Y0283022D01*
X0001800Y0281423D02*
X0011998Y0281423D01*
X0011998Y0279825D02*
X0001800Y0279825D01*
X0001800Y0278226D02*
X0011998Y0278226D01*
X0011998Y0276628D02*
X0001800Y0276628D01*
X0001800Y0275029D02*
X0011998Y0275029D01*
X0011998Y0273431D02*
X0001800Y0273431D01*
X0001800Y0271832D02*
X0011998Y0271832D01*
X0011998Y0270234D02*
X0001800Y0270234D01*
X0001800Y0268635D02*
X0011998Y0268635D01*
X0011998Y0267037D02*
X0001800Y0267037D01*
X0001800Y0265438D02*
X0011998Y0265438D01*
X0011998Y0263840D02*
X0001800Y0263840D01*
X0001800Y0262241D02*
X0011998Y0262241D01*
X0011998Y0260643D02*
X0001800Y0260643D01*
X0001800Y0259044D02*
X0011998Y0259044D01*
X0011998Y0257446D02*
X0001800Y0257446D01*
X0001800Y0255847D02*
X0011998Y0255847D01*
X0011998Y0254249D02*
X0001800Y0254249D01*
X0001800Y0252650D02*
X0011998Y0252650D01*
X0011998Y0251052D02*
X0001800Y0251052D01*
X0001800Y0249453D02*
X0011998Y0249453D01*
X0011998Y0247855D02*
X0001800Y0247855D01*
X0001800Y0246256D02*
X0011998Y0246256D01*
X0011998Y0244658D02*
X0001800Y0244658D01*
X0001800Y0243059D02*
X0011998Y0243059D01*
X0011998Y0241461D02*
X0001800Y0241461D01*
X0001800Y0239862D02*
X0011998Y0239862D01*
X0011998Y0238264D02*
X0001800Y0238264D01*
X0001800Y0236665D02*
X0011998Y0236665D01*
X0011998Y0235067D02*
X0001800Y0235067D01*
X0001800Y0233468D02*
X0011998Y0233468D01*
X0011998Y0231870D02*
X0001800Y0231870D01*
X0001800Y0230271D02*
X0011998Y0230271D01*
X0011998Y0228673D02*
X0001800Y0228673D01*
X0001800Y0227074D02*
X0011998Y0227074D01*
X0011998Y0225476D02*
X0001800Y0225476D01*
X0001800Y0223877D02*
X0011998Y0223877D01*
X0011998Y0222279D02*
X0001800Y0222279D01*
X0001800Y0220680D02*
X0011998Y0220680D01*
X0011998Y0219081D02*
X0001800Y0219081D01*
X0001800Y0217483D02*
X0011998Y0217483D01*
X0011998Y0215884D02*
X0001800Y0215884D01*
X0001800Y0214286D02*
X0011998Y0214286D01*
X0011998Y0212687D02*
X0001800Y0212687D01*
X0001800Y0211089D02*
X0011998Y0211089D01*
X0011998Y0209490D02*
X0001800Y0209490D01*
X0001800Y0207892D02*
X0011998Y0207892D01*
X0011998Y0206293D02*
X0001800Y0206293D01*
X0001800Y0204695D02*
X0011998Y0204695D01*
X0011998Y0203096D02*
X0001800Y0203096D01*
X0001800Y0201498D02*
X0011998Y0201498D01*
X0011998Y0199899D02*
X0001800Y0199899D01*
X0001800Y0198301D02*
X0011998Y0198301D01*
X0011998Y0196702D02*
X0001800Y0196702D01*
X0001800Y0195104D02*
X0011998Y0195104D01*
X0011998Y0193505D02*
X0001800Y0193505D01*
X0001800Y0191907D02*
X0011998Y0191907D01*
X0011998Y0190308D02*
X0001800Y0190308D01*
X0001800Y0188710D02*
X0011998Y0188710D01*
X0011998Y0187111D02*
X0001800Y0187111D01*
X0001800Y0185513D02*
X0011998Y0185513D01*
X0011998Y0183914D02*
X0001800Y0183914D01*
X0001800Y0182316D02*
X0011998Y0182316D01*
X0011998Y0180717D02*
X0001800Y0180717D01*
X0001800Y0179119D02*
X0011998Y0179119D01*
X0011998Y0177520D02*
X0001800Y0177520D01*
X0001800Y0175922D02*
X0011998Y0175922D01*
X0011998Y0174323D02*
X0001800Y0174323D01*
X0001800Y0172725D02*
X0011998Y0172725D01*
X0011998Y0171126D02*
X0001800Y0171126D01*
X0001800Y0169528D02*
X0011998Y0169528D01*
X0011998Y0167929D02*
X0001800Y0167929D01*
X0001800Y0166331D02*
X0011998Y0166331D01*
X0011998Y0164732D02*
X0001800Y0164732D01*
X0001800Y0163134D02*
X0011998Y0163134D01*
X0011998Y0161535D02*
X0001800Y0161535D01*
X0001800Y0159937D02*
X0011998Y0159937D01*
X0011998Y0158338D02*
X0001800Y0158338D01*
X0001800Y0156740D02*
X0011998Y0156740D01*
X0011998Y0155141D02*
X0001800Y0155141D01*
X0001800Y0153543D02*
X0011998Y0153543D01*
X0011998Y0151944D02*
X0001800Y0151944D01*
X0001800Y0150346D02*
X0011998Y0150346D01*
X0011998Y0148747D02*
X0001800Y0148747D01*
X0001800Y0147148D02*
X0011998Y0147148D01*
X0011998Y0145550D02*
X0001800Y0145550D01*
X0001800Y0143951D02*
X0011998Y0143951D01*
X0011998Y0142353D02*
X0001800Y0142353D01*
X0001800Y0140754D02*
X0011998Y0140754D01*
X0011998Y0139156D02*
X0001800Y0139156D01*
X0001800Y0137557D02*
X0011998Y0137557D01*
X0011998Y0135959D02*
X0001800Y0135959D01*
X0001800Y0134360D02*
X0011998Y0134360D01*
X0011998Y0132762D02*
X0001800Y0132762D01*
X0001800Y0131163D02*
X0011998Y0131163D01*
X0011998Y0129565D02*
X0001800Y0129565D01*
X0001800Y0127966D02*
X0011998Y0127966D01*
X0011998Y0126368D02*
X0001800Y0126368D01*
X0001800Y0124769D02*
X0011998Y0124769D01*
X0011998Y0123171D02*
X0001800Y0123171D01*
X0001800Y0121572D02*
X0011998Y0121572D01*
X0011998Y0119974D02*
X0001800Y0119974D01*
X0001800Y0118375D02*
X0011998Y0118375D01*
X0011998Y0116777D02*
X0001800Y0116777D01*
X0001800Y0115178D02*
X0011998Y0115178D01*
X0011998Y0113580D02*
X0001800Y0113580D01*
X0001800Y0111981D02*
X0011998Y0111981D01*
X0011998Y0110383D02*
X0001800Y0110383D01*
X0001800Y0108784D02*
X0011998Y0108784D01*
X0011998Y0107186D02*
X0001800Y0107186D01*
X0001800Y0105587D02*
X0011998Y0105587D01*
X0011998Y0103989D02*
X0001800Y0103989D01*
X0001800Y0102390D02*
X0011998Y0102390D01*
X0011998Y0100792D02*
X0001800Y0100792D01*
X0001800Y0099193D02*
X0011998Y0099193D01*
X0011998Y0097595D02*
X0001800Y0097595D01*
X0001800Y0095996D02*
X0011998Y0095996D01*
X0011998Y0094398D02*
X0001800Y0094398D01*
X0001800Y0092799D02*
X0011998Y0092799D01*
X0011998Y0091201D02*
X0001800Y0091201D01*
X0001800Y0089602D02*
X0011998Y0089602D01*
X0011998Y0088004D02*
X0001800Y0088004D01*
X0001800Y0086405D02*
X0011998Y0086405D01*
X0011998Y0084807D02*
X0001800Y0084807D01*
X0001800Y0083208D02*
X0011998Y0083208D01*
X0011998Y0081610D02*
X0001800Y0081610D01*
X0001800Y0080011D02*
X0011998Y0080011D01*
X0011998Y0078413D02*
X0001800Y0078413D01*
X0001800Y0076814D02*
X0011998Y0076814D01*
X0011998Y0075215D02*
X0001800Y0075215D01*
X0001800Y0073617D02*
X0011998Y0073617D01*
X0011998Y0072018D02*
X0001800Y0072018D01*
X0001800Y0070420D02*
X0011998Y0070420D01*
X0011998Y0068821D02*
X0001800Y0068821D01*
X0001800Y0067223D02*
X0011998Y0067223D01*
X0011998Y0065624D02*
X0001800Y0065624D01*
X0001800Y0064026D02*
X0011998Y0064026D01*
X0011998Y0062427D02*
X0001800Y0062427D01*
X0001800Y0060829D02*
X0011998Y0060829D01*
X0011998Y0059230D02*
X0001800Y0059230D01*
X0001800Y0057632D02*
X0011998Y0057632D01*
X0011998Y0056033D02*
X0001800Y0056033D01*
X0001800Y0054435D02*
X0011998Y0054435D01*
X0011998Y0052836D02*
X0001800Y0052836D01*
X0001800Y0051238D02*
X0011998Y0051238D01*
X0011998Y0049639D02*
X0001800Y0049639D01*
X0001800Y0048041D02*
X0011998Y0048041D01*
X0011998Y0046442D02*
X0001800Y0046442D01*
X0001800Y0044844D02*
X0011998Y0044844D01*
X0011998Y0043245D02*
X0001800Y0043245D01*
X0001800Y0041647D02*
X0011998Y0041647D01*
X0011998Y0040048D02*
X0001800Y0040048D01*
X0001800Y0038450D02*
X0011998Y0038450D01*
X0011998Y0036851D02*
X0001800Y0036851D01*
X0001800Y0035253D02*
X0011998Y0035253D01*
X0011998Y0033654D02*
X0001800Y0033654D01*
X0001800Y0032056D02*
X0011998Y0032056D01*
X0011998Y0030457D02*
X0001800Y0030457D01*
X0001800Y0028859D02*
X0011998Y0028859D01*
X0011998Y0027260D02*
X0001800Y0027260D01*
X0001800Y0025662D02*
X0011998Y0025662D01*
X0011998Y0024063D02*
X0001800Y0024063D01*
X0001800Y0022465D02*
X0011998Y0022465D01*
X0012265Y0020866D02*
X0001800Y0020866D01*
X0001800Y0019268D02*
X0013207Y0019268D01*
X0015833Y0017669D02*
X0001800Y0017669D01*
X0021598Y0027265D02*
X0021598Y0028569D01*
X0024648Y0027306D01*
X0027949Y0027306D01*
X0031000Y0028570D01*
X0033335Y0030905D01*
X0034598Y0033955D01*
X0034598Y0037257D01*
X0033335Y0040308D01*
X0031000Y0042643D01*
X0027949Y0043906D01*
X0024648Y0043906D01*
X0021598Y0042643D01*
X0021598Y0083302D01*
X0023468Y0081581D01*
X0027387Y0079862D01*
X0031652Y0079509D01*
X0035800Y0080560D01*
X0039383Y0082900D01*
X0042011Y0086277D01*
X0043401Y0090325D01*
X0043401Y0094604D01*
X0043315Y0094854D01*
X0044098Y0094070D01*
X0044098Y0060787D01*
X0043830Y0060676D01*
X0042479Y0059325D01*
X0042423Y0059191D01*
X0042368Y0059325D01*
X0041017Y0060676D01*
X0039253Y0061406D01*
X0037344Y0061406D01*
X0035580Y0060676D01*
X0034229Y0059325D01*
X0033498Y0057561D01*
X0033498Y0055652D01*
X0034229Y0053887D01*
X0035580Y0052537D01*
X0037344Y0051806D01*
X0039253Y0051806D01*
X0041017Y0052537D01*
X0042368Y0053887D01*
X0042423Y0054022D01*
X0042479Y0053887D01*
X0042621Y0053745D01*
X0042389Y0053649D01*
X0039885Y0051145D01*
X0039253Y0051406D01*
X0037344Y0051406D01*
X0035580Y0050676D01*
X0034229Y0049325D01*
X0033498Y0047561D01*
X0033498Y0045652D01*
X0034229Y0043887D01*
X0035580Y0042537D01*
X0037344Y0041806D01*
X0039253Y0041806D01*
X0041017Y0042537D01*
X0042368Y0043887D01*
X0043098Y0045652D01*
X0043098Y0047561D01*
X0043096Y0047568D01*
X0044743Y0049215D01*
X0047683Y0049215D01*
X0046998Y0047561D01*
X0046998Y0045652D01*
X0047729Y0043887D01*
X0049080Y0042537D01*
X0050844Y0041806D01*
X0052753Y0041806D01*
X0054517Y0042537D01*
X0055798Y0043818D01*
X0057080Y0042537D01*
X0058844Y0041806D01*
X0060753Y0041806D01*
X0062517Y0042537D01*
X0063868Y0043887D01*
X0064598Y0045652D01*
X0064598Y0047561D01*
X0063914Y0049215D01*
X0067183Y0049215D01*
X0066498Y0047561D01*
X0066498Y0045652D01*
X0067229Y0043887D01*
X0068580Y0042537D01*
X0070344Y0041806D01*
X0072253Y0041806D01*
X0074017Y0042537D01*
X0075368Y0043887D01*
X0076098Y0045652D01*
X0076098Y0047561D01*
X0075368Y0049325D01*
X0074686Y0050008D01*
X0074933Y0050255D01*
X0081533Y0056855D01*
X0081898Y0057737D01*
X0081898Y0176020D01*
X0107873Y0201995D01*
X0108177Y0201262D01*
X0109246Y0200193D01*
X0110643Y0199615D01*
X0112154Y0199615D01*
X0113551Y0200193D01*
X0114620Y0201262D01*
X0115198Y0202659D01*
X0115198Y0204170D01*
X0114657Y0205479D01*
X0115023Y0205845D01*
X0115327Y0205112D01*
X0116396Y0204043D01*
X0117793Y0203465D01*
X0119304Y0203465D01*
X0120701Y0204043D01*
X0121522Y0204865D01*
X0127276Y0204865D01*
X0128158Y0205230D01*
X0128833Y0205905D01*
X0199293Y0276365D01*
X0201491Y0276365D01*
X0201086Y0276256D01*
X0197711Y0274308D01*
X0164956Y0241552D01*
X0163007Y0238177D01*
X0161998Y0234413D01*
X0161998Y0230516D01*
X0163007Y0226752D01*
X0164956Y0223377D01*
X0167711Y0220622D01*
X0171086Y0218673D01*
X0174850Y0217665D01*
X0178747Y0217665D01*
X0182511Y0218673D01*
X0185886Y0220622D01*
X0212929Y0247665D01*
X0295668Y0247665D01*
X0322711Y0220622D01*
X0326086Y0218673D01*
X0329850Y0217665D01*
X0333747Y0217665D01*
X0337511Y0218673D01*
X0340886Y0220622D01*
X0343641Y0223377D01*
X0345590Y0226752D01*
X0346598Y0230516D01*
X0346598Y0234413D01*
X0345590Y0238177D01*
X0343641Y0241552D01*
X0316598Y0268595D01*
X0316598Y0311334D01*
X0317929Y0312665D01*
X0415668Y0312665D01*
X0476998Y0251334D01*
X0476998Y0183595D01*
X0459956Y0166552D01*
X0458007Y0163177D01*
X0456998Y0159413D01*
X0456998Y0155516D01*
X0458007Y0151752D01*
X0459956Y0148377D01*
X0462711Y0145622D01*
X0466086Y0143673D01*
X0469850Y0142665D01*
X0473747Y0142665D01*
X0477511Y0143673D01*
X0480886Y0145622D01*
X0503641Y0168377D01*
X0505590Y0171752D01*
X0506598Y0175516D01*
X0506598Y0259413D01*
X0505590Y0263177D01*
X0503641Y0266552D01*
X0500886Y0269308D01*
X0430886Y0339308D01*
X0427511Y0341256D01*
X0423747Y0342265D01*
X0309850Y0342265D01*
X0306086Y0341256D01*
X0302711Y0339308D01*
X0299956Y0336552D01*
X0289956Y0326552D01*
X0288007Y0323177D01*
X0286998Y0319413D01*
X0286998Y0277265D01*
X0230390Y0277265D01*
X0230698Y0278009D01*
X0230698Y0279520D01*
X0230120Y0280917D01*
X0229051Y0281986D01*
X0227654Y0282565D01*
X0226143Y0282565D01*
X0224746Y0281986D01*
X0223924Y0281165D01*
X0200793Y0281165D01*
X0205893Y0286265D01*
X0247574Y0286265D01*
X0248396Y0285443D01*
X0249793Y0284865D01*
X0251304Y0284865D01*
X0252701Y0285443D01*
X0253770Y0286512D01*
X0254348Y0287909D01*
X0254348Y0289420D01*
X0253770Y0290817D01*
X0252701Y0291886D01*
X0251304Y0292465D01*
X0249793Y0292465D01*
X0248396Y0291886D01*
X0247574Y0291065D01*
X0204421Y0291065D01*
X0203539Y0290699D01*
X0131671Y0218832D01*
X0131058Y0220311D01*
X0129645Y0221725D01*
X0127798Y0222490D01*
X0125799Y0222490D01*
X0123952Y0221725D01*
X0122539Y0220311D01*
X0121773Y0218464D01*
X0121773Y0216465D01*
X0122539Y0214618D01*
X0123642Y0213515D01*
X0116421Y0213515D01*
X0115998Y0213340D01*
X0115998Y0299770D01*
X0167380Y0351152D01*
X0167868Y0349972D01*
X0169106Y0348734D01*
X0170723Y0348065D01*
X0177674Y0348065D01*
X0179291Y0348734D01*
X0180529Y0349972D01*
X0180567Y0350065D01*
X0200976Y0350065D01*
X0201858Y0350430D01*
X0202580Y0351152D01*
X0203068Y0349972D01*
X0204306Y0348734D01*
X0205923Y0348065D01*
X0212874Y0348065D01*
X0213182Y0348192D01*
X0185204Y0320215D01*
X0180271Y0320215D01*
X0179291Y0321195D01*
X0177674Y0321865D01*
X0173293Y0321865D01*
X0174493Y0323065D01*
X0177674Y0323065D01*
X0179291Y0323734D01*
X0180529Y0324972D01*
X0181198Y0326589D01*
X0181198Y0328340D01*
X0180529Y0329957D01*
X0179291Y0331195D01*
X0177674Y0331865D01*
X0170723Y0331865D01*
X0169106Y0331195D01*
X0167868Y0329957D01*
X0167198Y0328340D01*
X0167198Y0326589D01*
X0167868Y0324972D01*
X0168740Y0324100D01*
X0164914Y0320274D01*
X0164548Y0319392D01*
X0164548Y0315687D01*
X0164914Y0314805D01*
X0165589Y0314130D01*
X0168889Y0310830D01*
X0169771Y0310465D01*
X0182054Y0310465D01*
X0165954Y0294365D01*
X0136221Y0294365D01*
X0135339Y0293999D01*
X0133030Y0291690D01*
X0132669Y0291839D01*
X0130928Y0291839D01*
X0129320Y0291173D01*
X0128090Y0289943D01*
X0127424Y0288335D01*
X0127424Y0286594D01*
X0128090Y0284986D01*
X0129320Y0283756D01*
X0130928Y0283090D01*
X0132669Y0283090D01*
X0134277Y0283756D01*
X0135507Y0284986D01*
X0136173Y0286594D01*
X0136173Y0288045D01*
X0137693Y0289565D01*
X0147933Y0289565D01*
X0147424Y0288335D01*
X0147424Y0286594D01*
X0148090Y0284986D01*
X0149320Y0283756D01*
X0150928Y0283090D01*
X0152669Y0283090D01*
X0154277Y0283756D01*
X0155507Y0284986D01*
X0156173Y0286594D01*
X0156173Y0288335D01*
X0155664Y0289565D01*
X0167426Y0289565D01*
X0168308Y0289930D01*
X0168983Y0290605D01*
X0203143Y0324765D01*
X0203276Y0324765D01*
X0204306Y0323734D01*
X0205923Y0323065D01*
X0212874Y0323065D01*
X0214491Y0323734D01*
X0215729Y0324972D01*
X0216398Y0326589D01*
X0216398Y0328340D01*
X0216285Y0328615D01*
X0240974Y0328615D01*
X0241796Y0327793D01*
X0243193Y0327215D01*
X0244704Y0327215D01*
X0246101Y0327793D01*
X0247170Y0328862D01*
X0247748Y0330259D01*
X0247748Y0331770D01*
X0247170Y0333167D01*
X0246101Y0334236D01*
X0244704Y0334815D01*
X0243193Y0334815D01*
X0241796Y0334236D01*
X0240974Y0333415D01*
X0215793Y0333415D01*
X0215733Y0333474D01*
X0215058Y0334149D01*
X0214176Y0334515D01*
X0206293Y0334515D01*
X0221843Y0350065D01*
X0230430Y0350065D01*
X0230468Y0349972D01*
X0231706Y0348734D01*
X0233323Y0348065D01*
X0240274Y0348065D01*
X0241891Y0348734D01*
X0243129Y0349972D01*
X0243798Y0351589D01*
X0243798Y0353340D01*
X0243333Y0354465D01*
X0255264Y0354465D01*
X0254798Y0353340D01*
X0254798Y0351589D01*
X0255468Y0349972D01*
X0256706Y0348734D01*
X0258323Y0348065D01*
X0265274Y0348065D01*
X0266891Y0348734D01*
X0268129Y0349972D01*
X0268798Y0351589D01*
X0268798Y0353340D01*
X0268129Y0354957D01*
X0266891Y0356195D01*
X0265274Y0356865D01*
X0260543Y0356865D01*
X0259343Y0358065D01*
X0265274Y0358065D01*
X0266891Y0358734D01*
X0268129Y0359972D01*
X0268798Y0361589D01*
X0268798Y0363340D01*
X0268129Y0364957D01*
X0266891Y0366195D01*
X0265274Y0366865D01*
X0258323Y0366865D01*
X0256706Y0366195D01*
X0255468Y0364957D01*
X0254798Y0363340D01*
X0254798Y0361589D01*
X0255468Y0359972D01*
X0256176Y0359265D01*
X0242421Y0359265D01*
X0243129Y0359972D01*
X0243798Y0361589D01*
X0243798Y0363340D01*
X0243129Y0364957D01*
X0241891Y0366195D01*
X0240274Y0366865D01*
X0233323Y0366865D01*
X0231706Y0366195D01*
X0230468Y0364957D01*
X0229798Y0363340D01*
X0229798Y0361589D01*
X0230468Y0359972D01*
X0231176Y0359265D01*
X0215021Y0359265D01*
X0215729Y0359972D01*
X0216398Y0361589D01*
X0216398Y0363340D01*
X0215729Y0364957D01*
X0214491Y0366195D01*
X0212874Y0366865D01*
X0205923Y0366865D01*
X0204306Y0366195D01*
X0203068Y0364957D01*
X0202398Y0363340D01*
X0202398Y0361589D01*
X0203068Y0359972D01*
X0203965Y0359076D01*
X0203539Y0358899D01*
X0202864Y0358224D01*
X0199504Y0354865D01*
X0180567Y0354865D01*
X0180529Y0354957D01*
X0179707Y0355779D01*
X0198193Y0374265D01*
X0230182Y0374265D01*
X0229798Y0373340D01*
X0229798Y0371589D01*
X0230468Y0369972D01*
X0231706Y0368734D01*
X0233323Y0368065D01*
X0240274Y0368065D01*
X0241891Y0368734D01*
X0243129Y0369972D01*
X0243798Y0371589D01*
X0243798Y0373340D01*
X0243129Y0374957D01*
X0241891Y0376195D01*
X0240274Y0376865D01*
X0239843Y0376865D01*
X0245858Y0382880D01*
X0246533Y0383555D01*
X0246898Y0384437D01*
X0246898Y0390892D01*
X0246533Y0391774D01*
X0242683Y0395624D01*
X0242008Y0396299D01*
X0241126Y0396665D01*
X0136648Y0396665D01*
X0136648Y0396670D01*
X0136070Y0398067D01*
X0135001Y0399136D01*
X0133604Y0399715D01*
X0132093Y0399715D01*
X0130696Y0399136D01*
X0129874Y0398315D01*
X0078471Y0398315D01*
X0077589Y0397949D01*
X0076914Y0397274D01*
X0069764Y0390124D01*
X0069398Y0389242D01*
X0069398Y0388659D01*
X0049423Y0368684D01*
X0048810Y0370166D01*
X0047468Y0371507D01*
X0045716Y0372233D01*
X0037881Y0372233D01*
X0036129Y0371507D01*
X0034787Y0370166D01*
X0034061Y0368413D01*
X0034061Y0366516D01*
X0034787Y0364763D01*
X0036129Y0363422D01*
X0037881Y0362696D01*
X0043436Y0362696D01*
X0042973Y0362233D01*
X0037881Y0362233D01*
X0036129Y0361507D01*
X0034787Y0360166D01*
X0034061Y0358413D01*
X0034061Y0356516D01*
X0034787Y0354763D01*
X0036129Y0353422D01*
X0037881Y0352696D01*
X0045716Y0352696D01*
X0047468Y0353422D01*
X0048810Y0354763D01*
X0049535Y0356516D01*
X0049535Y0358413D01*
X0048810Y0360166D01*
X0048252Y0360724D01*
X0053998Y0366471D01*
X0053998Y0355989D01*
X0053177Y0355167D01*
X0052598Y0353770D01*
X0052598Y0352259D01*
X0053177Y0350862D01*
X0054246Y0349793D01*
X0055643Y0349215D01*
X0057154Y0349215D01*
X0057667Y0349427D01*
X0033589Y0325349D01*
X0032914Y0324674D01*
X0032548Y0323792D01*
X0032548Y0180387D01*
X0032914Y0179505D01*
X0037424Y0174995D01*
X0037424Y0173288D01*
X0038090Y0171680D01*
X0039320Y0170449D01*
X0040928Y0169783D01*
X0042669Y0169783D01*
X0044277Y0170449D01*
X0045507Y0171680D01*
X0046173Y0173288D01*
X0046173Y0175028D01*
X0045507Y0176636D01*
X0044277Y0177867D01*
X0042669Y0178533D01*
X0040928Y0178533D01*
X0040749Y0178458D01*
X0037348Y0181859D01*
X0037348Y0188821D01*
X0038811Y0187358D01*
X0038090Y0186636D01*
X0037424Y0185028D01*
X0037424Y0183288D01*
X0038090Y0181680D01*
X0039320Y0180449D01*
X0040928Y0179783D01*
X0042669Y0179783D01*
X0044277Y0180449D01*
X0045198Y0181371D01*
X0045198Y0177637D01*
X0045564Y0176755D01*
X0047424Y0174895D01*
X0047424Y0173288D01*
X0048090Y0171680D01*
X0048980Y0170790D01*
X0045166Y0166977D01*
X0044277Y0167867D01*
X0042669Y0168533D01*
X0040928Y0168533D01*
X0039320Y0167867D01*
X0038090Y0166636D01*
X0037424Y0165028D01*
X0037424Y0163288D01*
X0038090Y0161680D01*
X0038980Y0160790D01*
X0033589Y0155399D01*
X0032914Y0154724D01*
X0032548Y0153842D01*
X0032548Y0106137D01*
X0032914Y0105255D01*
X0033121Y0105048D01*
X0031652Y0105420D01*
X0027387Y0105067D01*
X0023468Y0103348D01*
X0021598Y0101627D01*
X0021598Y0449523D01*
X0023468Y0447802D01*
X0027387Y0446083D01*
X0031652Y0445730D01*
X0035800Y0446780D01*
X0039383Y0449121D01*
X0042011Y0452498D01*
X0043401Y0456545D01*
X0043401Y0460825D01*
X0042011Y0464872D01*
X0039838Y0467665D01*
X0082988Y0467665D01*
X0077163Y0461839D01*
X0074653Y0461839D01*
X0072090Y0459277D01*
X0072090Y0455652D01*
X0074653Y0453090D01*
X0078277Y0453090D01*
X0080840Y0455652D01*
X0080840Y0458162D01*
X0086498Y0463820D01*
X0137376Y0463820D01*
X0142757Y0458439D01*
X0142757Y0454144D01*
X0143811Y0453090D01*
X0150452Y0453090D01*
X0151507Y0454144D01*
X0151507Y0460785D01*
X0150452Y0461839D01*
X0146711Y0461839D01*
X0144730Y0463820D01*
X0207702Y0463820D01*
X0213424Y0458099D01*
X0213424Y0455986D01*
X0215986Y0453423D01*
X0219610Y0453423D01*
X0222173Y0455986D01*
X0222173Y0459610D01*
X0219610Y0462173D01*
X0216704Y0462173D01*
X0211212Y0467665D01*
X0493841Y0467665D01*
X0492760Y0466670D01*
X0490723Y0462906D01*
X0490019Y0458685D01*
X0490723Y0454464D01*
X0492760Y0450700D01*
X0495909Y0447802D01*
X0499828Y0446083D01*
X0504093Y0445730D01*
X0508241Y0446780D01*
X0511824Y0449121D01*
X0511998Y0449345D01*
X0511998Y0146804D01*
X0511824Y0147029D01*
X0508241Y0149370D01*
X0504093Y0150420D01*
X0499828Y0150067D01*
X0495909Y0148348D01*
X0492760Y0145449D01*
X0490723Y0141686D01*
X0490019Y0137465D01*
X0490723Y0133244D01*
X0492760Y0129480D01*
X0495909Y0126581D01*
X0499828Y0124862D01*
X0504093Y0124509D01*
X0508241Y0125560D01*
X0511824Y0127900D01*
X0511998Y0128125D01*
X0511998Y0034276D01*
X0511939Y0033360D01*
X0511465Y0031593D01*
X0510550Y0030008D01*
X0509256Y0028713D01*
X0507670Y0027798D01*
X0505903Y0027325D01*
X0504987Y0027265D01*
X0061954Y0027265D01*
X0063198Y0028509D01*
X0063929Y0030274D01*
X0063929Y0034939D01*
X0063198Y0036703D01*
X0061848Y0038054D01*
X0060084Y0038784D01*
X0049513Y0038784D01*
X0047749Y0038054D01*
X0046399Y0036703D01*
X0045668Y0034939D01*
X0045668Y0030274D01*
X0046399Y0028509D01*
X0047643Y0027265D01*
X0021598Y0027265D01*
X0031289Y0028859D02*
X0046254Y0028859D01*
X0045668Y0030457D02*
X0032887Y0030457D01*
X0033812Y0032056D02*
X0045668Y0032056D01*
X0045668Y0033654D02*
X0034474Y0033654D01*
X0034598Y0035253D02*
X0045798Y0035253D01*
X0046546Y0036851D02*
X0034598Y0036851D01*
X0034105Y0038450D02*
X0048705Y0038450D01*
X0048371Y0043245D02*
X0041726Y0043245D01*
X0042764Y0044844D02*
X0047333Y0044844D01*
X0046998Y0046442D02*
X0043098Y0046442D01*
X0043569Y0048041D02*
X0047197Y0048041D01*
X0041576Y0052836D02*
X0041317Y0052836D01*
X0039978Y0051238D02*
X0039660Y0051238D01*
X0036937Y0051238D02*
X0021598Y0051238D01*
X0021598Y0052836D02*
X0035280Y0052836D01*
X0034002Y0054435D02*
X0021598Y0054435D01*
X0021598Y0056033D02*
X0033498Y0056033D01*
X0033528Y0057632D02*
X0021598Y0057632D01*
X0021598Y0059230D02*
X0034190Y0059230D01*
X0035950Y0060829D02*
X0021598Y0060829D01*
X0021598Y0062427D02*
X0044098Y0062427D01*
X0044098Y0060829D02*
X0040647Y0060829D01*
X0042407Y0059230D02*
X0042440Y0059230D01*
X0044098Y0064026D02*
X0021598Y0064026D01*
X0021598Y0065624D02*
X0044098Y0065624D01*
X0044098Y0067223D02*
X0021598Y0067223D01*
X0021598Y0068821D02*
X0044098Y0068821D01*
X0044098Y0070420D02*
X0021598Y0070420D01*
X0021598Y0072018D02*
X0044098Y0072018D01*
X0044098Y0073617D02*
X0021598Y0073617D01*
X0021598Y0075215D02*
X0044098Y0075215D01*
X0044098Y0076814D02*
X0021598Y0076814D01*
X0021598Y0078413D02*
X0044098Y0078413D01*
X0044098Y0080011D02*
X0033634Y0080011D01*
X0037407Y0081610D02*
X0044098Y0081610D01*
X0044098Y0083208D02*
X0039622Y0083208D01*
X0040866Y0084807D02*
X0044098Y0084807D01*
X0044098Y0086405D02*
X0042055Y0086405D01*
X0042604Y0088004D02*
X0044098Y0088004D01*
X0044098Y0089602D02*
X0043153Y0089602D01*
X0043401Y0091201D02*
X0044098Y0091201D01*
X0044098Y0092799D02*
X0043401Y0092799D01*
X0043401Y0094398D02*
X0043771Y0094398D01*
X0047363Y0097595D02*
X0052348Y0097595D01*
X0052348Y0099193D02*
X0045764Y0099193D01*
X0044166Y0100792D02*
X0052348Y0100792D01*
X0052348Y0102390D02*
X0042567Y0102390D01*
X0040969Y0103989D02*
X0052348Y0103989D01*
X0052348Y0105587D02*
X0039370Y0105587D01*
X0037771Y0107186D02*
X0052348Y0107186D01*
X0052348Y0108784D02*
X0037348Y0108784D01*
X0037348Y0107609D02*
X0037348Y0128871D01*
X0052348Y0113870D01*
X0052348Y0060787D01*
X0052080Y0060676D01*
X0050729Y0059325D01*
X0050673Y0059191D01*
X0050618Y0059325D01*
X0049267Y0060676D01*
X0048898Y0060828D01*
X0048898Y0095542D01*
X0048533Y0096424D01*
X0047858Y0097099D01*
X0037348Y0107609D01*
X0037348Y0110383D02*
X0052348Y0110383D01*
X0052348Y0111981D02*
X0037348Y0111981D01*
X0037348Y0113580D02*
X0052348Y0113580D01*
X0051041Y0115178D02*
X0037348Y0115178D01*
X0037348Y0116777D02*
X0049442Y0116777D01*
X0047844Y0118375D02*
X0037348Y0118375D01*
X0037348Y0119974D02*
X0046245Y0119974D01*
X0044647Y0121572D02*
X0037348Y0121572D01*
X0037348Y0123171D02*
X0043048Y0123171D01*
X0041450Y0124769D02*
X0037348Y0124769D01*
X0037348Y0126368D02*
X0039851Y0126368D01*
X0038253Y0127966D02*
X0037348Y0127966D01*
X0032548Y0127966D02*
X0021598Y0127966D01*
X0021598Y0126368D02*
X0032548Y0126368D01*
X0032548Y0124769D02*
X0021598Y0124769D01*
X0021598Y0123171D02*
X0032548Y0123171D01*
X0032548Y0121572D02*
X0021598Y0121572D01*
X0021598Y0119974D02*
X0032548Y0119974D01*
X0032548Y0118375D02*
X0021598Y0118375D01*
X0021598Y0116777D02*
X0032548Y0116777D01*
X0032548Y0115178D02*
X0021598Y0115178D01*
X0021598Y0113580D02*
X0032548Y0113580D01*
X0032548Y0111981D02*
X0021598Y0111981D01*
X0021598Y0110383D02*
X0032548Y0110383D01*
X0032548Y0108784D02*
X0021598Y0108784D01*
X0021598Y0107186D02*
X0032548Y0107186D01*
X0032776Y0105587D02*
X0021598Y0105587D01*
X0021598Y0103989D02*
X0024929Y0103989D01*
X0022427Y0102390D02*
X0021598Y0102390D01*
X0021598Y0083208D02*
X0021701Y0083208D01*
X0021598Y0081610D02*
X0023437Y0081610D01*
X0021598Y0080011D02*
X0027048Y0080011D01*
X0048898Y0080011D02*
X0052348Y0080011D01*
X0052348Y0078413D02*
X0048898Y0078413D01*
X0048898Y0076814D02*
X0052348Y0076814D01*
X0052348Y0075215D02*
X0048898Y0075215D01*
X0048898Y0073617D02*
X0052348Y0073617D01*
X0052348Y0072018D02*
X0048898Y0072018D01*
X0048898Y0070420D02*
X0052348Y0070420D01*
X0052348Y0068821D02*
X0048898Y0068821D01*
X0048898Y0067223D02*
X0052348Y0067223D01*
X0052348Y0065624D02*
X0048898Y0065624D01*
X0048898Y0064026D02*
X0052348Y0064026D01*
X0052348Y0062427D02*
X0048898Y0062427D01*
X0048898Y0060829D02*
X0052348Y0060829D01*
X0050690Y0059230D02*
X0050657Y0059230D01*
X0050673Y0054022D02*
X0050670Y0054015D01*
X0050677Y0054015D01*
X0050673Y0054022D01*
X0058920Y0054015D02*
X0058923Y0054022D01*
X0058927Y0054015D01*
X0058920Y0054015D01*
X0058923Y0059191D02*
X0058868Y0059325D01*
X0057517Y0060676D01*
X0057148Y0060828D01*
X0057148Y0113471D01*
X0059748Y0110870D01*
X0059748Y0109709D01*
X0060327Y0108312D01*
X0061396Y0107243D01*
X0062129Y0106939D01*
X0061514Y0106324D01*
X0061148Y0105442D01*
X0061148Y0061015D01*
X0060330Y0060676D01*
X0058979Y0059325D01*
X0058923Y0059191D01*
X0058907Y0059230D02*
X0058940Y0059230D01*
X0060700Y0060829D02*
X0057148Y0060829D01*
X0057148Y0062427D02*
X0061148Y0062427D01*
X0061148Y0064026D02*
X0057148Y0064026D01*
X0057148Y0065624D02*
X0061148Y0065624D01*
X0061148Y0067223D02*
X0057148Y0067223D01*
X0057148Y0068821D02*
X0061148Y0068821D01*
X0061148Y0070420D02*
X0057148Y0070420D01*
X0057148Y0072018D02*
X0061148Y0072018D01*
X0061148Y0073617D02*
X0057148Y0073617D01*
X0057148Y0075215D02*
X0061148Y0075215D01*
X0061148Y0076814D02*
X0057148Y0076814D01*
X0057148Y0078413D02*
X0061148Y0078413D01*
X0061148Y0080011D02*
X0057148Y0080011D01*
X0057148Y0081610D02*
X0061148Y0081610D01*
X0061148Y0083208D02*
X0057148Y0083208D01*
X0057148Y0084807D02*
X0061148Y0084807D01*
X0061148Y0086405D02*
X0057148Y0086405D01*
X0057148Y0088004D02*
X0061148Y0088004D01*
X0061148Y0089602D02*
X0057148Y0089602D01*
X0057148Y0091201D02*
X0061148Y0091201D01*
X0061148Y0092799D02*
X0057148Y0092799D01*
X0057148Y0094398D02*
X0061148Y0094398D01*
X0061148Y0095996D02*
X0057148Y0095996D01*
X0057148Y0097595D02*
X0061148Y0097595D01*
X0061148Y0099193D02*
X0057148Y0099193D01*
X0057148Y0100792D02*
X0061148Y0100792D01*
X0061148Y0102390D02*
X0057148Y0102390D01*
X0057148Y0103989D02*
X0061148Y0103989D01*
X0061209Y0105587D02*
X0057148Y0105587D01*
X0057148Y0107186D02*
X0061535Y0107186D01*
X0060131Y0108784D02*
X0057148Y0108784D01*
X0057148Y0110383D02*
X0059748Y0110383D01*
X0058638Y0111981D02*
X0057148Y0111981D01*
X0060630Y0116777D02*
X0064998Y0116777D01*
X0064998Y0117720D02*
X0064998Y0113977D01*
X0064304Y0114265D01*
X0063143Y0114265D01*
X0045572Y0131835D01*
X0046173Y0133288D01*
X0046173Y0135028D01*
X0045507Y0136636D01*
X0044277Y0137867D01*
X0042669Y0138533D01*
X0040928Y0138533D01*
X0039548Y0137961D01*
X0039548Y0140355D01*
X0040928Y0139783D01*
X0042669Y0139783D01*
X0044277Y0140449D01*
X0045507Y0141680D01*
X0045708Y0142165D01*
X0046426Y0142165D01*
X0047308Y0142530D01*
X0047612Y0142834D01*
X0048090Y0141680D01*
X0049320Y0140449D01*
X0050928Y0139783D01*
X0052669Y0139783D01*
X0054277Y0140449D01*
X0055507Y0141680D01*
X0056173Y0143288D01*
X0056173Y0145028D01*
X0055507Y0146636D01*
X0054561Y0147583D01*
X0057758Y0150780D01*
X0058433Y0151455D01*
X0058798Y0152337D01*
X0058798Y0187791D01*
X0059620Y0188612D01*
X0060198Y0190009D01*
X0060198Y0191520D01*
X0059620Y0192917D01*
X0058551Y0193986D01*
X0057154Y0194565D01*
X0056173Y0194565D01*
X0056173Y0195028D01*
X0056066Y0195288D01*
X0061793Y0201015D01*
X0086974Y0201015D01*
X0087796Y0200193D01*
X0089193Y0199615D01*
X0090704Y0199615D01*
X0092101Y0200193D01*
X0093048Y0201141D01*
X0093048Y0200559D01*
X0070439Y0177949D01*
X0069764Y0177274D01*
X0069398Y0176392D01*
X0069398Y0120109D01*
X0056173Y0133334D01*
X0056173Y0135028D01*
X0055507Y0136636D01*
X0054277Y0137867D01*
X0052669Y0138533D01*
X0050928Y0138533D01*
X0049320Y0137867D01*
X0048090Y0136636D01*
X0047424Y0135028D01*
X0047424Y0133288D01*
X0048090Y0131680D01*
X0049320Y0130449D01*
X0050928Y0129783D01*
X0052669Y0129783D01*
X0052858Y0129861D01*
X0064998Y0117720D01*
X0064344Y0118375D02*
X0059032Y0118375D01*
X0057433Y0119974D02*
X0062745Y0119974D01*
X0061147Y0121572D02*
X0055835Y0121572D01*
X0054236Y0123171D02*
X0059548Y0123171D01*
X0057950Y0124769D02*
X0052638Y0124769D01*
X0051039Y0126368D02*
X0056351Y0126368D01*
X0054753Y0127966D02*
X0049441Y0127966D01*
X0047842Y0129565D02*
X0053154Y0129565D01*
X0056745Y0132762D02*
X0069398Y0132762D01*
X0069398Y0134360D02*
X0056173Y0134360D01*
X0055788Y0135959D02*
X0069398Y0135959D01*
X0069398Y0137557D02*
X0054586Y0137557D01*
X0054582Y0140754D02*
X0069398Y0140754D01*
X0069398Y0139156D02*
X0039548Y0139156D01*
X0044582Y0140754D02*
X0049015Y0140754D01*
X0047811Y0142353D02*
X0046881Y0142353D01*
X0045066Y0147077D02*
X0044611Y0147533D01*
X0048424Y0151346D01*
X0048880Y0150890D01*
X0048864Y0150874D01*
X0045066Y0147077D01*
X0044995Y0147148D02*
X0045138Y0147148D01*
X0045825Y0148747D02*
X0046737Y0148747D01*
X0047423Y0150346D02*
X0048335Y0150346D01*
X0038930Y0150840D02*
X0038090Y0151680D01*
X0037670Y0152692D01*
X0037348Y0152370D01*
X0037348Y0149259D01*
X0038930Y0150840D01*
X0038435Y0150346D02*
X0037348Y0150346D01*
X0037348Y0151944D02*
X0037980Y0151944D01*
X0032548Y0151944D02*
X0021598Y0151944D01*
X0021598Y0150346D02*
X0032548Y0150346D01*
X0032548Y0148747D02*
X0021598Y0148747D01*
X0021598Y0147148D02*
X0032548Y0147148D01*
X0032548Y0145550D02*
X0021598Y0145550D01*
X0021598Y0143951D02*
X0032548Y0143951D01*
X0032548Y0142353D02*
X0021598Y0142353D01*
X0021598Y0140754D02*
X0032548Y0140754D01*
X0032548Y0139156D02*
X0021598Y0139156D01*
X0021598Y0137557D02*
X0032548Y0137557D01*
X0032548Y0135959D02*
X0021598Y0135959D01*
X0021598Y0134360D02*
X0032548Y0134360D01*
X0032548Y0132762D02*
X0021598Y0132762D01*
X0021598Y0131163D02*
X0032548Y0131163D01*
X0032548Y0129565D02*
X0021598Y0129565D01*
X0044586Y0137557D02*
X0049011Y0137557D01*
X0047809Y0135959D02*
X0045788Y0135959D01*
X0046173Y0134360D02*
X0047424Y0134360D01*
X0047641Y0132762D02*
X0045956Y0132762D01*
X0046244Y0131163D02*
X0048606Y0131163D01*
X0058344Y0131163D02*
X0069398Y0131163D01*
X0069398Y0129565D02*
X0059942Y0129565D01*
X0061541Y0127966D02*
X0069398Y0127966D01*
X0069398Y0126368D02*
X0063139Y0126368D01*
X0064738Y0124769D02*
X0069398Y0124769D01*
X0069398Y0123171D02*
X0066336Y0123171D01*
X0067935Y0121572D02*
X0069398Y0121572D01*
X0064998Y0115178D02*
X0062229Y0115178D01*
X0069398Y0107421D02*
X0069398Y0061015D01*
X0068580Y0060676D01*
X0067229Y0059325D01*
X0067173Y0059191D01*
X0067118Y0059325D01*
X0065948Y0060495D01*
X0065948Y0103970D01*
X0068758Y0106780D01*
X0069398Y0107421D01*
X0069398Y0107186D02*
X0069164Y0107186D01*
X0069398Y0105587D02*
X0067565Y0105587D01*
X0065967Y0103989D02*
X0069398Y0103989D01*
X0069398Y0102390D02*
X0065948Y0102390D01*
X0065948Y0100792D02*
X0069398Y0100792D01*
X0069398Y0099193D02*
X0065948Y0099193D01*
X0065948Y0097595D02*
X0069398Y0097595D01*
X0069398Y0095996D02*
X0065948Y0095996D01*
X0065948Y0094398D02*
X0069398Y0094398D01*
X0069398Y0092799D02*
X0065948Y0092799D01*
X0065948Y0091201D02*
X0069398Y0091201D01*
X0069398Y0089602D02*
X0065948Y0089602D01*
X0065948Y0088004D02*
X0069398Y0088004D01*
X0069398Y0086405D02*
X0065948Y0086405D01*
X0065948Y0084807D02*
X0069398Y0084807D01*
X0069398Y0083208D02*
X0065948Y0083208D01*
X0065948Y0081610D02*
X0069398Y0081610D01*
X0069398Y0080011D02*
X0065948Y0080011D01*
X0065948Y0078413D02*
X0069398Y0078413D01*
X0069398Y0076814D02*
X0065948Y0076814D01*
X0065948Y0075215D02*
X0069398Y0075215D01*
X0069398Y0073617D02*
X0065948Y0073617D01*
X0065948Y0072018D02*
X0069398Y0072018D01*
X0069398Y0070420D02*
X0065948Y0070420D01*
X0065948Y0068821D02*
X0069398Y0068821D01*
X0069398Y0067223D02*
X0065948Y0067223D01*
X0065948Y0065624D02*
X0069398Y0065624D01*
X0069398Y0064026D02*
X0065948Y0064026D01*
X0065948Y0062427D02*
X0069398Y0062427D01*
X0068950Y0060829D02*
X0065948Y0060829D01*
X0067157Y0059230D02*
X0067190Y0059230D01*
X0067173Y0054022D02*
X0067170Y0054015D01*
X0067177Y0054015D01*
X0067173Y0054022D01*
X0075054Y0049639D02*
X0107501Y0049639D01*
X0107342Y0049916D02*
X0108856Y0047293D01*
X0110997Y0045152D01*
X0113619Y0043638D01*
X0116544Y0042854D01*
X0119572Y0042854D01*
X0122497Y0043638D01*
X0125119Y0045152D01*
X0127261Y0047293D01*
X0128775Y0049916D01*
X0129558Y0052840D01*
X0129558Y0055868D01*
X0128775Y0058793D01*
X0127261Y0061416D01*
X0125119Y0063557D01*
X0122497Y0065071D01*
X0119572Y0065854D01*
X0116544Y0065854D01*
X0113619Y0065071D01*
X0110997Y0063557D01*
X0108856Y0061416D01*
X0107342Y0058793D01*
X0106558Y0055868D01*
X0106558Y0052840D01*
X0107342Y0049916D01*
X0106988Y0051238D02*
X0075916Y0051238D01*
X0077514Y0052836D02*
X0106559Y0052836D01*
X0106558Y0054435D02*
X0079113Y0054435D01*
X0080711Y0056033D02*
X0106603Y0056033D01*
X0107031Y0057632D02*
X0081855Y0057632D01*
X0081898Y0059230D02*
X0107594Y0059230D01*
X0108517Y0060829D02*
X0081898Y0060829D01*
X0081898Y0062427D02*
X0109868Y0062427D01*
X0111810Y0064026D02*
X0081898Y0064026D01*
X0081898Y0065624D02*
X0115686Y0065624D01*
X0120430Y0065624D02*
X0227708Y0065624D01*
X0227711Y0065622D02*
X0231086Y0063673D01*
X0234850Y0062665D01*
X0267585Y0062665D01*
X0266336Y0061416D01*
X0264822Y0058793D01*
X0264039Y0055868D01*
X0264039Y0052840D01*
X0264822Y0049916D01*
X0266336Y0047293D01*
X0268478Y0045152D01*
X0271100Y0043638D01*
X0274025Y0042854D01*
X0277053Y0042854D01*
X0279978Y0043638D01*
X0282600Y0045152D01*
X0284741Y0047293D01*
X0286255Y0049916D01*
X0287039Y0052840D01*
X0287039Y0055868D01*
X0286255Y0058793D01*
X0284741Y0061416D01*
X0283492Y0062665D01*
X0320105Y0062665D01*
X0318856Y0061416D01*
X0317342Y0058793D01*
X0316558Y0055868D01*
X0316558Y0052840D01*
X0317342Y0049916D01*
X0318856Y0047293D01*
X0320997Y0045152D01*
X0323619Y0043638D01*
X0326544Y0042854D01*
X0329572Y0042854D01*
X0332497Y0043638D01*
X0335119Y0045152D01*
X0337261Y0047293D01*
X0338775Y0049916D01*
X0339558Y0052840D01*
X0339558Y0055868D01*
X0338775Y0058793D01*
X0337261Y0061416D01*
X0336011Y0062665D01*
X0411354Y0062665D01*
X0412855Y0062574D01*
X0413296Y0062665D01*
X0413747Y0062665D01*
X0415200Y0063054D01*
X0416673Y0063355D01*
X0417076Y0063557D01*
X0417511Y0063673D01*
X0418813Y0064425D01*
X0420159Y0065098D01*
X0420496Y0065396D01*
X0420886Y0065622D01*
X0421949Y0066685D01*
X0443055Y0085396D01*
X0443445Y0085622D01*
X0444508Y0086685D01*
X0445634Y0087683D01*
X0445882Y0088059D01*
X0446201Y0088377D01*
X0446952Y0089680D01*
X0447781Y0090935D01*
X0447924Y0091362D01*
X0448149Y0091752D01*
X0448538Y0093205D01*
X0449014Y0094631D01*
X0449041Y0095081D01*
X0449158Y0095516D01*
X0449158Y0097020D01*
X0449248Y0098521D01*
X0449158Y0098963D01*
X0449158Y0136854D01*
X0448149Y0140618D01*
X0446201Y0143993D01*
X0426598Y0163595D01*
X0426598Y0214413D01*
X0425590Y0218177D01*
X0423641Y0221552D01*
X0376598Y0268595D01*
X0376598Y0299413D01*
X0375590Y0303177D01*
X0373641Y0306552D01*
X0370886Y0309308D01*
X0367511Y0311256D01*
X0363747Y0312265D01*
X0359850Y0312265D01*
X0356086Y0311256D01*
X0352711Y0309308D01*
X0349956Y0306552D01*
X0348007Y0303177D01*
X0346998Y0299413D01*
X0346998Y0260516D01*
X0348007Y0256752D01*
X0349956Y0253377D01*
X0396998Y0206334D01*
X0396998Y0155516D01*
X0398007Y0151752D01*
X0399956Y0148377D01*
X0419558Y0128775D01*
X0419558Y0104122D01*
X0406183Y0092265D01*
X0242929Y0092265D01*
X0239158Y0096036D01*
X0239158Y0115752D01*
X0238149Y0119516D01*
X0236201Y0122891D01*
X0233445Y0125646D01*
X0230070Y0127595D01*
X0226306Y0128603D01*
X0222409Y0128603D01*
X0218645Y0127595D01*
X0215270Y0125646D01*
X0212515Y0122891D01*
X0210566Y0119516D01*
X0209558Y0115752D01*
X0209558Y0087957D01*
X0210566Y0084193D01*
X0212515Y0080818D01*
X0224956Y0068377D01*
X0227711Y0065622D01*
X0226110Y0067223D02*
X0081898Y0067223D01*
X0081898Y0068821D02*
X0224511Y0068821D01*
X0222913Y0070420D02*
X0081898Y0070420D01*
X0081898Y0072018D02*
X0221314Y0072018D01*
X0219716Y0073617D02*
X0081898Y0073617D01*
X0081898Y0075215D02*
X0218117Y0075215D01*
X0216519Y0076814D02*
X0081898Y0076814D01*
X0081898Y0078413D02*
X0214920Y0078413D01*
X0213322Y0080011D02*
X0081898Y0080011D01*
X0081898Y0081610D02*
X0212058Y0081610D01*
X0211135Y0083208D02*
X0081898Y0083208D01*
X0081898Y0084807D02*
X0210402Y0084807D01*
X0209973Y0086405D02*
X0081898Y0086405D01*
X0081898Y0088004D02*
X0209558Y0088004D01*
X0209558Y0089602D02*
X0081898Y0089602D01*
X0081898Y0091201D02*
X0209558Y0091201D01*
X0209558Y0092799D02*
X0081898Y0092799D01*
X0081898Y0094398D02*
X0209558Y0094398D01*
X0209558Y0095996D02*
X0081898Y0095996D01*
X0081898Y0097595D02*
X0209558Y0097595D01*
X0209558Y0099193D02*
X0171897Y0099193D01*
X0171188Y0099003D02*
X0174952Y0100012D01*
X0178327Y0101960D01*
X0181082Y0104716D01*
X0183031Y0108091D01*
X0184039Y0111855D01*
X0184039Y0138775D01*
X0198641Y0153377D01*
X0200590Y0156752D01*
X0201598Y0160516D01*
X0201598Y0164413D01*
X0200590Y0168177D01*
X0198641Y0171552D01*
X0195886Y0174308D01*
X0192511Y0176256D01*
X0188747Y0177265D01*
X0184850Y0177265D01*
X0181086Y0176256D01*
X0177711Y0174308D01*
X0157396Y0153993D01*
X0155448Y0150618D01*
X0154439Y0146854D01*
X0154439Y0142957D01*
X0154439Y0111855D01*
X0155448Y0108091D01*
X0157396Y0104716D01*
X0160152Y0101960D01*
X0163527Y0100012D01*
X0167291Y0099003D01*
X0171188Y0099003D01*
X0166582Y0099193D02*
X0081898Y0099193D01*
X0081898Y0100792D02*
X0162176Y0100792D01*
X0159722Y0102390D02*
X0081898Y0102390D01*
X0081898Y0103989D02*
X0158124Y0103989D01*
X0156893Y0105587D02*
X0081898Y0105587D01*
X0081898Y0107186D02*
X0155970Y0107186D01*
X0155262Y0108784D02*
X0081898Y0108784D01*
X0081898Y0110383D02*
X0154834Y0110383D01*
X0154439Y0111981D02*
X0081898Y0111981D01*
X0081898Y0113580D02*
X0154439Y0113580D01*
X0154439Y0115178D02*
X0081898Y0115178D01*
X0081898Y0116777D02*
X0154439Y0116777D01*
X0154439Y0118375D02*
X0081898Y0118375D01*
X0081898Y0119974D02*
X0154439Y0119974D01*
X0154439Y0121572D02*
X0081898Y0121572D01*
X0081898Y0123171D02*
X0154439Y0123171D01*
X0154439Y0124769D02*
X0081898Y0124769D01*
X0081898Y0126368D02*
X0154439Y0126368D01*
X0154439Y0127966D02*
X0081898Y0127966D01*
X0081898Y0129565D02*
X0154439Y0129565D01*
X0154439Y0131163D02*
X0081898Y0131163D01*
X0081898Y0132762D02*
X0154439Y0132762D01*
X0154439Y0134360D02*
X0081898Y0134360D01*
X0081898Y0135959D02*
X0154439Y0135959D01*
X0154439Y0137557D02*
X0081898Y0137557D01*
X0081898Y0139156D02*
X0154439Y0139156D01*
X0154439Y0140754D02*
X0081898Y0140754D01*
X0081898Y0142353D02*
X0154439Y0142353D01*
X0154439Y0143951D02*
X0081898Y0143951D01*
X0081898Y0145550D02*
X0154439Y0145550D01*
X0154518Y0147148D02*
X0081898Y0147148D01*
X0081898Y0148747D02*
X0154947Y0148747D01*
X0155375Y0150346D02*
X0081898Y0150346D01*
X0081898Y0151944D02*
X0156214Y0151944D01*
X0157136Y0153543D02*
X0081898Y0153543D01*
X0081898Y0155141D02*
X0158545Y0155141D01*
X0160143Y0156740D02*
X0081898Y0156740D01*
X0081898Y0158338D02*
X0161742Y0158338D01*
X0163340Y0159937D02*
X0081898Y0159937D01*
X0081898Y0161535D02*
X0164939Y0161535D01*
X0166537Y0163134D02*
X0081898Y0163134D01*
X0081898Y0164732D02*
X0168136Y0164732D01*
X0169734Y0166331D02*
X0081898Y0166331D01*
X0081898Y0167929D02*
X0171333Y0167929D01*
X0172931Y0169528D02*
X0081898Y0169528D01*
X0081898Y0171126D02*
X0174530Y0171126D01*
X0176128Y0172725D02*
X0128486Y0172725D01*
X0127798Y0172440D02*
X0129645Y0173205D01*
X0131058Y0174618D01*
X0131823Y0176465D01*
X0131823Y0178464D01*
X0131058Y0180311D01*
X0129645Y0181725D01*
X0127798Y0182490D01*
X0125799Y0182490D01*
X0123952Y0181725D01*
X0122539Y0180311D01*
X0121773Y0178464D01*
X0121773Y0176465D01*
X0122539Y0174618D01*
X0123952Y0173205D01*
X0125799Y0172440D01*
X0127798Y0172440D01*
X0125111Y0172725D02*
X0081898Y0172725D01*
X0081898Y0174323D02*
X0122833Y0174323D01*
X0121999Y0175922D02*
X0081898Y0175922D01*
X0083398Y0177520D02*
X0121773Y0177520D01*
X0122045Y0179119D02*
X0084997Y0179119D01*
X0086595Y0180717D02*
X0122945Y0180717D01*
X0125379Y0182316D02*
X0088194Y0182316D01*
X0089792Y0183914D02*
X0396998Y0183914D01*
X0396998Y0182316D02*
X0283218Y0182316D01*
X0282798Y0182490D02*
X0280799Y0182490D01*
X0278952Y0181725D01*
X0277539Y0180311D01*
X0276773Y0178464D01*
X0276773Y0176465D01*
X0277539Y0174618D01*
X0278952Y0173205D01*
X0280799Y0172440D01*
X0282798Y0172440D01*
X0284645Y0173205D01*
X0286058Y0174618D01*
X0286823Y0176465D01*
X0286823Y0178464D01*
X0286058Y0180311D01*
X0284645Y0181725D01*
X0282798Y0182490D01*
X0280379Y0182316D02*
X0128218Y0182316D01*
X0130652Y0180717D02*
X0277945Y0180717D01*
X0277045Y0179119D02*
X0131552Y0179119D01*
X0131823Y0177520D02*
X0276773Y0177520D01*
X0276999Y0175922D02*
X0193090Y0175922D01*
X0195859Y0174323D02*
X0277833Y0174323D01*
X0280111Y0172725D02*
X0197469Y0172725D01*
X0198887Y0171126D02*
X0329710Y0171126D01*
X0329956Y0171552D02*
X0328007Y0168177D01*
X0326998Y0164413D01*
X0326998Y0130516D01*
X0328007Y0126752D01*
X0329956Y0123377D01*
X0332711Y0120622D01*
X0351373Y0101960D01*
X0354747Y0100012D01*
X0358511Y0099003D01*
X0362408Y0099003D01*
X0381188Y0099003D01*
X0384952Y0100012D01*
X0388327Y0101960D01*
X0391082Y0104716D01*
X0393031Y0108091D01*
X0394039Y0111855D01*
X0394039Y0115752D01*
X0393031Y0119516D01*
X0391082Y0122891D01*
X0388327Y0125646D01*
X0384952Y0127595D01*
X0381188Y0128603D01*
X0366590Y0128603D01*
X0356598Y0138595D01*
X0356598Y0164413D01*
X0355590Y0168177D01*
X0353641Y0171552D01*
X0350886Y0174308D01*
X0347511Y0176256D01*
X0343747Y0177265D01*
X0339850Y0177265D01*
X0336086Y0176256D01*
X0332711Y0174308D01*
X0329956Y0171552D01*
X0331128Y0172725D02*
X0283486Y0172725D01*
X0285763Y0174323D02*
X0332738Y0174323D01*
X0335507Y0175922D02*
X0286598Y0175922D01*
X0286823Y0177520D02*
X0396998Y0177520D01*
X0396998Y0175922D02*
X0348090Y0175922D01*
X0350859Y0174323D02*
X0396998Y0174323D01*
X0396998Y0172725D02*
X0352469Y0172725D01*
X0353887Y0171126D02*
X0396998Y0171126D01*
X0396998Y0169528D02*
X0354810Y0169528D01*
X0355656Y0167929D02*
X0396998Y0167929D01*
X0396998Y0166331D02*
X0356085Y0166331D01*
X0356513Y0164732D02*
X0396998Y0164732D01*
X0396998Y0163134D02*
X0356598Y0163134D01*
X0356598Y0161535D02*
X0396998Y0161535D01*
X0396998Y0159937D02*
X0356598Y0159937D01*
X0356598Y0158338D02*
X0396998Y0158338D01*
X0396998Y0156740D02*
X0356598Y0156740D01*
X0356598Y0155141D02*
X0397099Y0155141D01*
X0397527Y0153543D02*
X0356598Y0153543D01*
X0356598Y0151944D02*
X0397956Y0151944D01*
X0398819Y0150346D02*
X0356598Y0150346D01*
X0356598Y0148747D02*
X0399742Y0148747D01*
X0401184Y0147148D02*
X0356598Y0147148D01*
X0356598Y0145550D02*
X0402783Y0145550D01*
X0404381Y0143951D02*
X0356598Y0143951D01*
X0356598Y0142353D02*
X0405980Y0142353D01*
X0407578Y0140754D02*
X0356598Y0140754D01*
X0356598Y0139156D02*
X0409177Y0139156D01*
X0410775Y0137557D02*
X0357636Y0137557D01*
X0359235Y0135959D02*
X0412374Y0135959D01*
X0413972Y0134360D02*
X0360833Y0134360D01*
X0362432Y0132762D02*
X0415571Y0132762D01*
X0417169Y0131163D02*
X0364030Y0131163D01*
X0365629Y0129565D02*
X0418768Y0129565D01*
X0419558Y0127966D02*
X0383565Y0127966D01*
X0387077Y0126368D02*
X0419558Y0126368D01*
X0419558Y0124769D02*
X0389204Y0124769D01*
X0390802Y0123171D02*
X0419558Y0123171D01*
X0419558Y0121572D02*
X0409274Y0121572D01*
X0408415Y0121928D02*
X0405182Y0121928D01*
X0402196Y0120691D01*
X0399910Y0118406D01*
X0398673Y0115419D01*
X0398673Y0112187D01*
X0399910Y0109201D01*
X0402196Y0106915D01*
X0405182Y0105678D01*
X0408415Y0105678D01*
X0411401Y0106915D01*
X0413687Y0109201D01*
X0414923Y0112187D01*
X0414923Y0115419D01*
X0413687Y0118406D01*
X0411401Y0120691D01*
X0408415Y0121928D01*
X0404323Y0121572D02*
X0391843Y0121572D01*
X0392766Y0119974D02*
X0401479Y0119974D01*
X0399898Y0118375D02*
X0393336Y0118375D01*
X0393765Y0116777D02*
X0399236Y0116777D01*
X0398673Y0115178D02*
X0394039Y0115178D01*
X0394039Y0113580D02*
X0398673Y0113580D01*
X0398759Y0111981D02*
X0394039Y0111981D01*
X0393645Y0110383D02*
X0399421Y0110383D01*
X0400327Y0108784D02*
X0393217Y0108784D01*
X0392508Y0107186D02*
X0401925Y0107186D01*
X0411671Y0107186D02*
X0419558Y0107186D01*
X0419558Y0108784D02*
X0413270Y0108784D01*
X0414176Y0110383D02*
X0419558Y0110383D01*
X0419558Y0111981D02*
X0414838Y0111981D01*
X0414923Y0113580D02*
X0419558Y0113580D01*
X0419558Y0115178D02*
X0414923Y0115178D01*
X0414361Y0116777D02*
X0419558Y0116777D01*
X0419558Y0118375D02*
X0413699Y0118375D01*
X0412118Y0119974D02*
X0419558Y0119974D01*
X0419558Y0105587D02*
X0391585Y0105587D01*
X0390355Y0103989D02*
X0419407Y0103989D01*
X0417604Y0102390D02*
X0388757Y0102390D01*
X0386303Y0100792D02*
X0415801Y0100792D01*
X0413998Y0099193D02*
X0381897Y0099193D01*
X0357803Y0099193D02*
X0239158Y0099193D01*
X0239158Y0097595D02*
X0412195Y0097595D01*
X0410392Y0095996D02*
X0239197Y0095996D01*
X0240796Y0094398D02*
X0408589Y0094398D01*
X0406785Y0092799D02*
X0242394Y0092799D01*
X0239158Y0100792D02*
X0353397Y0100792D01*
X0350943Y0102390D02*
X0239158Y0102390D01*
X0239158Y0103989D02*
X0349344Y0103989D01*
X0347746Y0105587D02*
X0239158Y0105587D01*
X0239158Y0107186D02*
X0346147Y0107186D01*
X0344549Y0108784D02*
X0239158Y0108784D01*
X0239158Y0110383D02*
X0342950Y0110383D01*
X0341352Y0111981D02*
X0239158Y0111981D01*
X0239158Y0113580D02*
X0339753Y0113580D01*
X0338154Y0115178D02*
X0239158Y0115178D01*
X0238883Y0116777D02*
X0336556Y0116777D01*
X0334957Y0118375D02*
X0238455Y0118375D01*
X0237885Y0119974D02*
X0333359Y0119974D01*
X0331760Y0121572D02*
X0236962Y0121572D01*
X0235920Y0123171D02*
X0330162Y0123171D01*
X0329152Y0124769D02*
X0234322Y0124769D01*
X0232195Y0126368D02*
X0328229Y0126368D01*
X0327682Y0127966D02*
X0228683Y0127966D01*
X0220032Y0127966D02*
X0184039Y0127966D01*
X0184039Y0126368D02*
X0216520Y0126368D01*
X0214393Y0124769D02*
X0184039Y0124769D01*
X0184039Y0123171D02*
X0212795Y0123171D01*
X0211754Y0121572D02*
X0199274Y0121572D01*
X0198415Y0121928D02*
X0195182Y0121928D01*
X0192196Y0120691D01*
X0189910Y0118406D01*
X0188673Y0115419D01*
X0188673Y0112187D01*
X0189910Y0109201D01*
X0192196Y0106915D01*
X0195182Y0105678D01*
X0198415Y0105678D01*
X0201401Y0106915D01*
X0203687Y0109201D01*
X0204923Y0112187D01*
X0204923Y0115419D01*
X0203687Y0118406D01*
X0201401Y0120691D01*
X0198415Y0121928D01*
X0194323Y0121572D02*
X0184039Y0121572D01*
X0184039Y0119974D02*
X0191479Y0119974D01*
X0189898Y0118375D02*
X0184039Y0118375D01*
X0184039Y0116777D02*
X0189236Y0116777D01*
X0188673Y0115178D02*
X0184039Y0115178D01*
X0184039Y0113580D02*
X0188673Y0113580D01*
X0188759Y0111981D02*
X0184039Y0111981D01*
X0183645Y0110383D02*
X0189421Y0110383D01*
X0190327Y0108784D02*
X0183217Y0108784D01*
X0182508Y0107186D02*
X0191925Y0107186D01*
X0201671Y0107186D02*
X0209558Y0107186D01*
X0209558Y0108784D02*
X0203270Y0108784D01*
X0204176Y0110383D02*
X0209558Y0110383D01*
X0209558Y0111981D02*
X0204838Y0111981D01*
X0204923Y0113580D02*
X0209558Y0113580D01*
X0209558Y0115178D02*
X0204923Y0115178D01*
X0204361Y0116777D02*
X0209832Y0116777D01*
X0210261Y0118375D02*
X0203699Y0118375D01*
X0202118Y0119974D02*
X0210831Y0119974D01*
X0209558Y0105587D02*
X0181585Y0105587D01*
X0180355Y0103989D02*
X0209558Y0103989D01*
X0209558Y0102390D02*
X0178757Y0102390D01*
X0176303Y0100792D02*
X0209558Y0100792D01*
X0184039Y0129565D02*
X0327253Y0129565D01*
X0326998Y0131163D02*
X0184039Y0131163D01*
X0184039Y0132762D02*
X0326998Y0132762D01*
X0326998Y0134360D02*
X0184039Y0134360D01*
X0184039Y0135959D02*
X0326998Y0135959D01*
X0326998Y0137557D02*
X0184039Y0137557D01*
X0184420Y0139156D02*
X0326998Y0139156D01*
X0326998Y0140754D02*
X0186019Y0140754D01*
X0187617Y0142353D02*
X0326998Y0142353D01*
X0326998Y0143951D02*
X0189216Y0143951D01*
X0190814Y0145550D02*
X0326998Y0145550D01*
X0326998Y0147148D02*
X0192413Y0147148D01*
X0194011Y0148747D02*
X0326998Y0148747D01*
X0326998Y0150346D02*
X0195610Y0150346D01*
X0197208Y0151944D02*
X0326998Y0151944D01*
X0326998Y0153543D02*
X0198737Y0153543D01*
X0199660Y0155141D02*
X0326998Y0155141D01*
X0326998Y0156740D02*
X0200583Y0156740D01*
X0201015Y0158338D02*
X0326998Y0158338D01*
X0326998Y0159937D02*
X0201443Y0159937D01*
X0201598Y0161535D02*
X0326998Y0161535D01*
X0326998Y0163134D02*
X0201598Y0163134D01*
X0201513Y0164732D02*
X0327084Y0164732D01*
X0327512Y0166331D02*
X0201085Y0166331D01*
X0200656Y0167929D02*
X0327941Y0167929D01*
X0328787Y0169528D02*
X0199810Y0169528D01*
X0180507Y0175922D02*
X0131598Y0175922D01*
X0130763Y0174323D02*
X0177738Y0174323D01*
X0137214Y0214286D02*
X0277871Y0214286D01*
X0277539Y0214618D02*
X0278952Y0213205D01*
X0280799Y0212440D01*
X0282798Y0212440D01*
X0284645Y0213205D01*
X0286058Y0214618D01*
X0286823Y0216465D01*
X0286823Y0218464D01*
X0286058Y0220311D01*
X0284645Y0221725D01*
X0282798Y0222490D01*
X0280799Y0222490D01*
X0278952Y0221725D01*
X0277539Y0220311D01*
X0276773Y0218464D01*
X0276773Y0216465D01*
X0277539Y0214618D01*
X0277014Y0215884D02*
X0138812Y0215884D01*
X0140411Y0217483D02*
X0276773Y0217483D01*
X0277029Y0219081D02*
X0183218Y0219081D01*
X0185944Y0220680D02*
X0277907Y0220680D01*
X0280289Y0222279D02*
X0187543Y0222279D01*
X0189141Y0223877D02*
X0319456Y0223877D01*
X0321054Y0222279D02*
X0283308Y0222279D01*
X0285690Y0220680D02*
X0322653Y0220680D01*
X0325379Y0219081D02*
X0286568Y0219081D01*
X0286823Y0217483D02*
X0385850Y0217483D01*
X0387448Y0215884D02*
X0286583Y0215884D01*
X0285726Y0214286D02*
X0389047Y0214286D01*
X0390645Y0212687D02*
X0283396Y0212687D01*
X0280201Y0212687D02*
X0135615Y0212687D01*
X0134017Y0211089D02*
X0392244Y0211089D01*
X0393842Y0209490D02*
X0132418Y0209490D01*
X0130820Y0207892D02*
X0395441Y0207892D01*
X0396998Y0206293D02*
X0129221Y0206293D01*
X0121353Y0204695D02*
X0396998Y0204695D01*
X0396998Y0203096D02*
X0115198Y0203096D01*
X0114981Y0204695D02*
X0115744Y0204695D01*
X0114718Y0201498D02*
X0396998Y0201498D01*
X0396998Y0199899D02*
X0112842Y0199899D01*
X0109955Y0199899D02*
X0105777Y0199899D01*
X0104179Y0198301D02*
X0396998Y0198301D01*
X0396998Y0196702D02*
X0102580Y0196702D01*
X0100982Y0195104D02*
X0396998Y0195104D01*
X0396998Y0193505D02*
X0099383Y0193505D01*
X0097785Y0191907D02*
X0396998Y0191907D01*
X0396998Y0190308D02*
X0096186Y0190308D01*
X0094588Y0188710D02*
X0396998Y0188710D01*
X0396998Y0187111D02*
X0092989Y0187111D01*
X0091391Y0185513D02*
X0396998Y0185513D01*
X0396998Y0180717D02*
X0285652Y0180717D01*
X0286552Y0179119D02*
X0396998Y0179119D01*
X0426598Y0179119D02*
X0472522Y0179119D01*
X0474121Y0180717D02*
X0426598Y0180717D01*
X0426598Y0182316D02*
X0475719Y0182316D01*
X0476998Y0183914D02*
X0426598Y0183914D01*
X0426598Y0185513D02*
X0476998Y0185513D01*
X0476998Y0187111D02*
X0426598Y0187111D01*
X0426598Y0188710D02*
X0476998Y0188710D01*
X0476998Y0190308D02*
X0426598Y0190308D01*
X0426598Y0191907D02*
X0476998Y0191907D01*
X0476998Y0193505D02*
X0426598Y0193505D01*
X0426598Y0195104D02*
X0476998Y0195104D01*
X0476998Y0196702D02*
X0426598Y0196702D01*
X0426598Y0198301D02*
X0476998Y0198301D01*
X0476998Y0199899D02*
X0426598Y0199899D01*
X0426598Y0201498D02*
X0476998Y0201498D01*
X0476998Y0203096D02*
X0426598Y0203096D01*
X0426598Y0204695D02*
X0476998Y0204695D01*
X0476998Y0206293D02*
X0426598Y0206293D01*
X0426598Y0207892D02*
X0476998Y0207892D01*
X0476998Y0209490D02*
X0426598Y0209490D01*
X0426598Y0211089D02*
X0476998Y0211089D01*
X0476998Y0212687D02*
X0426598Y0212687D01*
X0426598Y0214286D02*
X0476998Y0214286D01*
X0476998Y0215884D02*
X0426204Y0215884D01*
X0425776Y0217483D02*
X0476998Y0217483D01*
X0476998Y0219081D02*
X0425068Y0219081D01*
X0424145Y0220680D02*
X0476998Y0220680D01*
X0476998Y0222279D02*
X0422915Y0222279D01*
X0421316Y0223877D02*
X0476998Y0223877D01*
X0476998Y0225476D02*
X0419718Y0225476D01*
X0418119Y0227074D02*
X0476998Y0227074D01*
X0476998Y0228673D02*
X0416521Y0228673D01*
X0414922Y0230271D02*
X0476998Y0230271D01*
X0476998Y0231870D02*
X0413324Y0231870D01*
X0411725Y0233468D02*
X0476998Y0233468D01*
X0476998Y0235067D02*
X0410127Y0235067D01*
X0408528Y0236665D02*
X0476998Y0236665D01*
X0476998Y0238264D02*
X0406930Y0238264D01*
X0405331Y0239862D02*
X0476998Y0239862D01*
X0476998Y0241461D02*
X0403733Y0241461D01*
X0402134Y0243059D02*
X0476998Y0243059D01*
X0476998Y0244658D02*
X0400536Y0244658D01*
X0398937Y0246256D02*
X0476998Y0246256D01*
X0476998Y0247855D02*
X0397339Y0247855D01*
X0395740Y0249453D02*
X0476998Y0249453D01*
X0476998Y0251052D02*
X0394142Y0251052D01*
X0392543Y0252650D02*
X0475683Y0252650D01*
X0474084Y0254249D02*
X0390945Y0254249D01*
X0389346Y0255847D02*
X0472485Y0255847D01*
X0470887Y0257446D02*
X0387748Y0257446D01*
X0386149Y0259044D02*
X0469288Y0259044D01*
X0467690Y0260643D02*
X0384551Y0260643D01*
X0382952Y0262241D02*
X0466091Y0262241D01*
X0464493Y0263840D02*
X0444917Y0263840D01*
X0444500Y0263422D02*
X0445841Y0264763D01*
X0446567Y0266516D01*
X0446567Y0268413D01*
X0445841Y0270166D01*
X0444500Y0271507D01*
X0442747Y0272233D01*
X0440850Y0272233D01*
X0439097Y0271507D01*
X0437756Y0270166D01*
X0437030Y0268413D01*
X0437030Y0266516D01*
X0437756Y0264763D01*
X0439097Y0263422D01*
X0440850Y0262696D01*
X0442747Y0262696D01*
X0444500Y0263422D01*
X0446121Y0265438D02*
X0462894Y0265438D01*
X0461296Y0267037D02*
X0446567Y0267037D01*
X0446475Y0268635D02*
X0459697Y0268635D01*
X0458099Y0270234D02*
X0445773Y0270234D01*
X0443714Y0271832D02*
X0456500Y0271832D01*
X0454902Y0273431D02*
X0376598Y0273431D01*
X0376598Y0275029D02*
X0453303Y0275029D01*
X0451705Y0276628D02*
X0376598Y0276628D01*
X0376598Y0278226D02*
X0450106Y0278226D01*
X0448508Y0279825D02*
X0376598Y0279825D01*
X0376598Y0281423D02*
X0446909Y0281423D01*
X0445311Y0283022D02*
X0376598Y0283022D01*
X0376598Y0284620D02*
X0443712Y0284620D01*
X0442114Y0286219D02*
X0376598Y0286219D01*
X0376598Y0287817D02*
X0440515Y0287817D01*
X0438917Y0289416D02*
X0376598Y0289416D01*
X0376598Y0291015D02*
X0437318Y0291015D01*
X0435720Y0292613D02*
X0376598Y0292613D01*
X0376598Y0294212D02*
X0434121Y0294212D01*
X0432523Y0295810D02*
X0376598Y0295810D01*
X0376598Y0297409D02*
X0430924Y0297409D01*
X0429326Y0299007D02*
X0376598Y0299007D01*
X0376279Y0300606D02*
X0427727Y0300606D01*
X0426129Y0302204D02*
X0375851Y0302204D01*
X0375229Y0303803D02*
X0424530Y0303803D01*
X0422932Y0305401D02*
X0374306Y0305401D01*
X0373194Y0307000D02*
X0421333Y0307000D01*
X0419735Y0308598D02*
X0371595Y0308598D01*
X0369346Y0310197D02*
X0418136Y0310197D01*
X0416538Y0311795D02*
X0365499Y0311795D01*
X0358098Y0311795D02*
X0317059Y0311795D01*
X0316598Y0310197D02*
X0325751Y0310197D01*
X0326375Y0310557D02*
X0323172Y0308707D01*
X0320556Y0306091D01*
X0318706Y0302888D01*
X0317748Y0299314D01*
X0317748Y0295615D01*
X0318706Y0292041D01*
X0320556Y0288838D01*
X0323172Y0286222D01*
X0326375Y0284372D01*
X0329949Y0283415D01*
X0333648Y0283415D01*
X0337222Y0284372D01*
X0340425Y0286222D01*
X0343041Y0288838D01*
X0344891Y0292041D01*
X0345848Y0295615D01*
X0345848Y0299314D01*
X0344891Y0302888D01*
X0343041Y0306091D01*
X0340425Y0308707D01*
X0337222Y0310557D01*
X0333648Y0311515D01*
X0329949Y0311515D01*
X0326375Y0310557D01*
X0323062Y0308598D02*
X0316598Y0308598D01*
X0316598Y0307000D02*
X0321464Y0307000D01*
X0320157Y0305401D02*
X0316598Y0305401D01*
X0316598Y0303803D02*
X0319234Y0303803D01*
X0318523Y0302204D02*
X0316598Y0302204D01*
X0316598Y0300606D02*
X0318094Y0300606D01*
X0317748Y0299007D02*
X0316598Y0299007D01*
X0316598Y0297409D02*
X0317748Y0297409D01*
X0317748Y0295810D02*
X0316598Y0295810D01*
X0316598Y0294212D02*
X0318125Y0294212D01*
X0318553Y0292613D02*
X0316598Y0292613D01*
X0316598Y0291015D02*
X0319299Y0291015D01*
X0320222Y0289416D02*
X0316598Y0289416D01*
X0316598Y0287817D02*
X0321576Y0287817D01*
X0323176Y0286219D02*
X0316598Y0286219D01*
X0316598Y0284620D02*
X0325945Y0284620D01*
X0316598Y0283022D02*
X0346998Y0283022D01*
X0346998Y0284620D02*
X0337652Y0284620D01*
X0340420Y0286219D02*
X0346998Y0286219D01*
X0346998Y0287817D02*
X0342021Y0287817D01*
X0343375Y0289416D02*
X0346998Y0289416D01*
X0346998Y0291015D02*
X0344298Y0291015D01*
X0345044Y0292613D02*
X0346998Y0292613D01*
X0346998Y0294212D02*
X0345472Y0294212D01*
X0345848Y0295810D02*
X0346998Y0295810D01*
X0346998Y0297409D02*
X0345848Y0297409D01*
X0345848Y0299007D02*
X0346998Y0299007D01*
X0347318Y0300606D02*
X0345503Y0300606D01*
X0345074Y0302204D02*
X0347746Y0302204D01*
X0348368Y0303803D02*
X0344363Y0303803D01*
X0343440Y0305401D02*
X0349291Y0305401D01*
X0350403Y0307000D02*
X0342133Y0307000D01*
X0340535Y0308598D02*
X0352002Y0308598D01*
X0354251Y0310197D02*
X0337846Y0310197D01*
X0346998Y0281423D02*
X0316598Y0281423D01*
X0316598Y0279825D02*
X0346998Y0279825D01*
X0346998Y0278226D02*
X0316598Y0278226D01*
X0316598Y0276628D02*
X0346998Y0276628D01*
X0346998Y0275029D02*
X0316598Y0275029D01*
X0316598Y0273431D02*
X0346998Y0273431D01*
X0346998Y0271832D02*
X0316598Y0271832D01*
X0316598Y0270234D02*
X0346998Y0270234D01*
X0346998Y0268635D02*
X0316598Y0268635D01*
X0318157Y0267037D02*
X0346998Y0267037D01*
X0346998Y0265438D02*
X0319755Y0265438D01*
X0321354Y0263840D02*
X0346998Y0263840D01*
X0346998Y0262241D02*
X0322952Y0262241D01*
X0324551Y0260643D02*
X0346998Y0260643D01*
X0347393Y0259044D02*
X0326149Y0259044D01*
X0327748Y0257446D02*
X0347821Y0257446D01*
X0348529Y0255847D02*
X0329346Y0255847D01*
X0330945Y0254249D02*
X0349452Y0254249D01*
X0350683Y0252650D02*
X0332543Y0252650D01*
X0334142Y0251052D02*
X0352281Y0251052D01*
X0353880Y0249453D02*
X0335740Y0249453D01*
X0337339Y0247855D02*
X0355478Y0247855D01*
X0357077Y0246256D02*
X0338937Y0246256D01*
X0340536Y0244658D02*
X0358675Y0244658D01*
X0360274Y0243059D02*
X0342134Y0243059D01*
X0343694Y0241461D02*
X0361872Y0241461D01*
X0363471Y0239862D02*
X0344617Y0239862D01*
X0345540Y0238264D02*
X0365069Y0238264D01*
X0366668Y0236665D02*
X0345995Y0236665D01*
X0346423Y0235067D02*
X0368266Y0235067D01*
X0369865Y0233468D02*
X0346598Y0233468D01*
X0346598Y0231870D02*
X0371463Y0231870D01*
X0373062Y0230271D02*
X0346533Y0230271D01*
X0346104Y0228673D02*
X0374660Y0228673D01*
X0376259Y0227074D02*
X0345676Y0227074D01*
X0344853Y0225476D02*
X0377857Y0225476D01*
X0379456Y0223877D02*
X0343930Y0223877D01*
X0342543Y0222279D02*
X0381054Y0222279D01*
X0382653Y0220680D02*
X0340944Y0220680D01*
X0338218Y0219081D02*
X0384251Y0219081D01*
X0426598Y0177520D02*
X0470924Y0177520D01*
X0469325Y0175922D02*
X0426598Y0175922D01*
X0426598Y0174323D02*
X0467727Y0174323D01*
X0466128Y0172725D02*
X0426598Y0172725D01*
X0426598Y0171126D02*
X0464530Y0171126D01*
X0462931Y0169528D02*
X0426598Y0169528D01*
X0426598Y0167929D02*
X0461333Y0167929D01*
X0459828Y0166331D02*
X0426598Y0166331D01*
X0426598Y0164732D02*
X0458905Y0164732D01*
X0457995Y0163134D02*
X0427060Y0163134D01*
X0428658Y0161535D02*
X0457567Y0161535D01*
X0457139Y0159937D02*
X0430257Y0159937D01*
X0431855Y0158338D02*
X0456998Y0158338D01*
X0456998Y0156740D02*
X0433454Y0156740D01*
X0435052Y0155141D02*
X0457099Y0155141D01*
X0457527Y0153543D02*
X0436651Y0153543D01*
X0438249Y0151944D02*
X0457956Y0151944D01*
X0458819Y0150346D02*
X0439848Y0150346D01*
X0441446Y0148747D02*
X0459742Y0148747D01*
X0461184Y0147148D02*
X0443045Y0147148D01*
X0444643Y0145550D02*
X0462835Y0145550D01*
X0465604Y0143951D02*
X0446224Y0143951D01*
X0447147Y0142353D02*
X0491084Y0142353D01*
X0490568Y0140754D02*
X0448070Y0140754D01*
X0448541Y0139156D02*
X0490301Y0139156D01*
X0490034Y0137557D02*
X0448969Y0137557D01*
X0449158Y0135959D02*
X0490270Y0135959D01*
X0490537Y0134360D02*
X0449158Y0134360D01*
X0449158Y0132762D02*
X0490984Y0132762D01*
X0491849Y0131163D02*
X0449158Y0131163D01*
X0449158Y0129565D02*
X0492714Y0129565D01*
X0494404Y0127966D02*
X0449158Y0127966D01*
X0449158Y0126368D02*
X0496396Y0126368D01*
X0500951Y0124769D02*
X0449158Y0124769D01*
X0449158Y0123171D02*
X0511998Y0123171D01*
X0511998Y0124769D02*
X0505121Y0124769D01*
X0509478Y0126368D02*
X0511998Y0126368D01*
X0511998Y0127966D02*
X0511875Y0127966D01*
X0511998Y0121572D02*
X0449158Y0121572D01*
X0449158Y0119974D02*
X0511998Y0119974D01*
X0511998Y0118375D02*
X0449158Y0118375D01*
X0449158Y0116777D02*
X0511998Y0116777D01*
X0511998Y0115178D02*
X0449158Y0115178D01*
X0449158Y0113580D02*
X0511998Y0113580D01*
X0511998Y0111981D02*
X0449158Y0111981D01*
X0449158Y0110383D02*
X0511998Y0110383D01*
X0511998Y0108784D02*
X0449158Y0108784D01*
X0449158Y0107186D02*
X0511998Y0107186D01*
X0511998Y0105587D02*
X0449158Y0105587D01*
X0449158Y0103989D02*
X0511998Y0103989D01*
X0511998Y0102390D02*
X0449158Y0102390D01*
X0449158Y0100792D02*
X0511998Y0100792D01*
X0511998Y0099193D02*
X0449158Y0099193D01*
X0449192Y0097595D02*
X0511998Y0097595D01*
X0511998Y0095996D02*
X0449158Y0095996D01*
X0448936Y0094398D02*
X0511998Y0094398D01*
X0511998Y0092799D02*
X0448430Y0092799D01*
X0447870Y0091201D02*
X0511998Y0091201D01*
X0511998Y0089602D02*
X0446908Y0089602D01*
X0445846Y0088004D02*
X0511998Y0088004D01*
X0511998Y0086405D02*
X0444228Y0086405D01*
X0442390Y0084807D02*
X0511998Y0084807D01*
X0511998Y0083208D02*
X0440586Y0083208D01*
X0438783Y0081610D02*
X0511998Y0081610D01*
X0511998Y0080011D02*
X0436980Y0080011D01*
X0435177Y0078413D02*
X0511998Y0078413D01*
X0511998Y0076814D02*
X0433374Y0076814D01*
X0431571Y0075215D02*
X0511998Y0075215D01*
X0511998Y0073617D02*
X0429768Y0073617D01*
X0427965Y0072018D02*
X0511998Y0072018D01*
X0511998Y0070420D02*
X0426162Y0070420D01*
X0424359Y0068821D02*
X0511998Y0068821D01*
X0511998Y0067223D02*
X0422556Y0067223D01*
X0420889Y0065624D02*
X0483167Y0065624D01*
X0484025Y0065854D02*
X0481100Y0065071D01*
X0478478Y0063557D01*
X0476336Y0061416D01*
X0474822Y0058793D01*
X0474039Y0055868D01*
X0474039Y0052840D01*
X0474822Y0049916D01*
X0476336Y0047293D01*
X0478478Y0045152D01*
X0481100Y0043638D01*
X0484025Y0042854D01*
X0487053Y0042854D01*
X0489978Y0043638D01*
X0492600Y0045152D01*
X0494741Y0047293D01*
X0496255Y0049916D01*
X0497039Y0052840D01*
X0497039Y0055868D01*
X0496255Y0058793D01*
X0494741Y0061416D01*
X0492600Y0063557D01*
X0489978Y0065071D01*
X0487053Y0065854D01*
X0484025Y0065854D01*
X0487911Y0065624D02*
X0511998Y0065624D01*
X0511998Y0064026D02*
X0491787Y0064026D01*
X0493729Y0062427D02*
X0511998Y0062427D01*
X0511998Y0060829D02*
X0495080Y0060829D01*
X0496003Y0059230D02*
X0511998Y0059230D01*
X0511998Y0057632D02*
X0496566Y0057632D01*
X0496994Y0056033D02*
X0511998Y0056033D01*
X0511998Y0054435D02*
X0497039Y0054435D01*
X0497038Y0052836D02*
X0511998Y0052836D01*
X0511998Y0051238D02*
X0496609Y0051238D01*
X0496095Y0049639D02*
X0511998Y0049639D01*
X0511998Y0048041D02*
X0495173Y0048041D01*
X0493890Y0046442D02*
X0511998Y0046442D01*
X0511998Y0044844D02*
X0492066Y0044844D01*
X0488511Y0043245D02*
X0511998Y0043245D01*
X0511998Y0041647D02*
X0088996Y0041647D01*
X0088000Y0042643D02*
X0084949Y0043906D01*
X0081648Y0043906D01*
X0078597Y0042643D01*
X0076262Y0040308D01*
X0074998Y0037257D01*
X0074998Y0033955D01*
X0076262Y0030905D01*
X0078597Y0028570D01*
X0081648Y0027306D01*
X0084949Y0027306D01*
X0088000Y0028570D01*
X0090335Y0030905D01*
X0091598Y0033955D01*
X0091598Y0037257D01*
X0090335Y0040308D01*
X0088000Y0042643D01*
X0086545Y0043245D02*
X0115085Y0043245D01*
X0111531Y0044844D02*
X0075764Y0044844D01*
X0076098Y0046442D02*
X0109707Y0046442D01*
X0108424Y0048041D02*
X0075900Y0048041D01*
X0074726Y0043245D02*
X0080052Y0043245D01*
X0077601Y0041647D02*
X0031996Y0041647D01*
X0033442Y0040048D02*
X0076155Y0040048D01*
X0075492Y0038450D02*
X0060892Y0038450D01*
X0063050Y0036851D02*
X0074998Y0036851D01*
X0074998Y0035253D02*
X0063799Y0035253D01*
X0063929Y0033654D02*
X0075123Y0033654D01*
X0075785Y0032056D02*
X0063929Y0032056D01*
X0063929Y0030457D02*
X0076710Y0030457D01*
X0078308Y0028859D02*
X0063343Y0028859D01*
X0063226Y0043245D02*
X0067871Y0043245D01*
X0066833Y0044844D02*
X0064264Y0044844D01*
X0064598Y0046442D02*
X0066498Y0046442D01*
X0066697Y0048041D02*
X0064400Y0048041D01*
X0056371Y0043245D02*
X0055226Y0043245D01*
X0034871Y0043245D02*
X0029545Y0043245D01*
X0033833Y0044844D02*
X0021598Y0044844D01*
X0021598Y0046442D02*
X0033498Y0046442D01*
X0033697Y0048041D02*
X0021598Y0048041D01*
X0021598Y0049639D02*
X0034543Y0049639D01*
X0023052Y0043245D02*
X0021598Y0043245D01*
X0048898Y0081610D02*
X0052348Y0081610D01*
X0052348Y0083208D02*
X0048898Y0083208D01*
X0048898Y0084807D02*
X0052348Y0084807D01*
X0052348Y0086405D02*
X0048898Y0086405D01*
X0048898Y0088004D02*
X0052348Y0088004D01*
X0052348Y0089602D02*
X0048898Y0089602D01*
X0048898Y0091201D02*
X0052348Y0091201D01*
X0052348Y0092799D02*
X0048898Y0092799D01*
X0048898Y0094398D02*
X0052348Y0094398D01*
X0052348Y0095996D02*
X0048710Y0095996D01*
X0074198Y0090452D02*
X0074893Y0090165D01*
X0076404Y0090165D01*
X0077098Y0090452D01*
X0077098Y0059209D01*
X0075909Y0058019D01*
X0075368Y0059325D01*
X0074198Y0060495D01*
X0074198Y0090452D01*
X0074198Y0089602D02*
X0077098Y0089602D01*
X0077098Y0088004D02*
X0074198Y0088004D01*
X0074198Y0086405D02*
X0077098Y0086405D01*
X0077098Y0084807D02*
X0074198Y0084807D01*
X0074198Y0083208D02*
X0077098Y0083208D01*
X0077098Y0081610D02*
X0074198Y0081610D01*
X0074198Y0080011D02*
X0077098Y0080011D01*
X0077098Y0078413D02*
X0074198Y0078413D01*
X0074198Y0076814D02*
X0077098Y0076814D01*
X0077098Y0075215D02*
X0074198Y0075215D01*
X0074198Y0073617D02*
X0077098Y0073617D01*
X0077098Y0072018D02*
X0074198Y0072018D01*
X0074198Y0070420D02*
X0077098Y0070420D01*
X0077098Y0068821D02*
X0074198Y0068821D01*
X0074198Y0067223D02*
X0077098Y0067223D01*
X0077098Y0065624D02*
X0074198Y0065624D01*
X0074198Y0064026D02*
X0077098Y0064026D01*
X0077098Y0062427D02*
X0074198Y0062427D01*
X0074198Y0060829D02*
X0077098Y0060829D01*
X0077098Y0059230D02*
X0075407Y0059230D01*
X0090442Y0040048D02*
X0511998Y0040048D01*
X0511998Y0038450D02*
X0091105Y0038450D01*
X0091598Y0036851D02*
X0511998Y0036851D01*
X0511998Y0035253D02*
X0091598Y0035253D01*
X0091474Y0033654D02*
X0511958Y0033654D01*
X0511589Y0032056D02*
X0090812Y0032056D01*
X0089887Y0030457D02*
X0510809Y0030457D01*
X0509401Y0028859D02*
X0088289Y0028859D01*
X0121031Y0043245D02*
X0272566Y0043245D01*
X0269012Y0044844D02*
X0124585Y0044844D01*
X0126410Y0046442D02*
X0267187Y0046442D01*
X0265905Y0048041D02*
X0127692Y0048041D01*
X0128615Y0049639D02*
X0264982Y0049639D01*
X0264468Y0051238D02*
X0129129Y0051238D01*
X0129557Y0052836D02*
X0264040Y0052836D01*
X0264039Y0054435D02*
X0129558Y0054435D01*
X0129514Y0056033D02*
X0264083Y0056033D01*
X0264511Y0057632D02*
X0129086Y0057632D01*
X0128522Y0059230D02*
X0265075Y0059230D01*
X0265998Y0060829D02*
X0127599Y0060829D01*
X0126249Y0062427D02*
X0267348Y0062427D01*
X0283729Y0062427D02*
X0319868Y0062427D01*
X0318517Y0060829D02*
X0285080Y0060829D01*
X0286003Y0059230D02*
X0317594Y0059230D01*
X0317031Y0057632D02*
X0286566Y0057632D01*
X0286994Y0056033D02*
X0316603Y0056033D01*
X0316558Y0054435D02*
X0287039Y0054435D01*
X0287038Y0052836D02*
X0316559Y0052836D01*
X0316988Y0051238D02*
X0286609Y0051238D01*
X0286095Y0049639D02*
X0317501Y0049639D01*
X0318424Y0048041D02*
X0285173Y0048041D01*
X0283890Y0046442D02*
X0319707Y0046442D01*
X0321531Y0044844D02*
X0282066Y0044844D01*
X0278511Y0043245D02*
X0325085Y0043245D01*
X0331031Y0043245D02*
X0482566Y0043245D01*
X0479012Y0044844D02*
X0334585Y0044844D01*
X0336410Y0046442D02*
X0477187Y0046442D01*
X0475905Y0048041D02*
X0337692Y0048041D01*
X0338615Y0049639D02*
X0474982Y0049639D01*
X0474468Y0051238D02*
X0339129Y0051238D01*
X0339557Y0052836D02*
X0474040Y0052836D01*
X0474039Y0054435D02*
X0339558Y0054435D01*
X0339514Y0056033D02*
X0474083Y0056033D01*
X0474511Y0057632D02*
X0339086Y0057632D01*
X0338522Y0059230D02*
X0475075Y0059230D01*
X0475998Y0060829D02*
X0337599Y0060829D01*
X0336249Y0062427D02*
X0477348Y0062427D01*
X0479290Y0064026D02*
X0418122Y0064026D01*
X0477993Y0143951D02*
X0491950Y0143951D01*
X0492869Y0145550D02*
X0480762Y0145550D01*
X0482413Y0147148D02*
X0494606Y0147148D01*
X0496819Y0148747D02*
X0484011Y0148747D01*
X0485610Y0150346D02*
X0503191Y0150346D01*
X0504387Y0150346D02*
X0511998Y0150346D01*
X0511998Y0151944D02*
X0487208Y0151944D01*
X0488807Y0153543D02*
X0511998Y0153543D01*
X0511998Y0155141D02*
X0490405Y0155141D01*
X0492004Y0156740D02*
X0511998Y0156740D01*
X0511998Y0158338D02*
X0493602Y0158338D01*
X0495201Y0159937D02*
X0511998Y0159937D01*
X0511998Y0161535D02*
X0496799Y0161535D01*
X0498398Y0163134D02*
X0511998Y0163134D01*
X0511998Y0164732D02*
X0499996Y0164732D01*
X0501595Y0166331D02*
X0511998Y0166331D01*
X0511998Y0167929D02*
X0503193Y0167929D01*
X0504306Y0169528D02*
X0511998Y0169528D01*
X0511998Y0171126D02*
X0505229Y0171126D01*
X0505851Y0172725D02*
X0511998Y0172725D01*
X0511998Y0174323D02*
X0506279Y0174323D01*
X0506598Y0175922D02*
X0511998Y0175922D01*
X0511998Y0177520D02*
X0506598Y0177520D01*
X0506598Y0179119D02*
X0511998Y0179119D01*
X0511998Y0180717D02*
X0506598Y0180717D01*
X0506598Y0182316D02*
X0511998Y0182316D01*
X0511998Y0183914D02*
X0506598Y0183914D01*
X0506598Y0185513D02*
X0511998Y0185513D01*
X0511998Y0187111D02*
X0506598Y0187111D01*
X0506598Y0188710D02*
X0511998Y0188710D01*
X0511998Y0190308D02*
X0506598Y0190308D01*
X0506598Y0191907D02*
X0511998Y0191907D01*
X0511998Y0193505D02*
X0506598Y0193505D01*
X0506598Y0195104D02*
X0511998Y0195104D01*
X0511998Y0196702D02*
X0506598Y0196702D01*
X0506598Y0198301D02*
X0511998Y0198301D01*
X0511998Y0199899D02*
X0506598Y0199899D01*
X0506598Y0201498D02*
X0511998Y0201498D01*
X0511998Y0203096D02*
X0506598Y0203096D01*
X0506598Y0204695D02*
X0511998Y0204695D01*
X0511998Y0206293D02*
X0506598Y0206293D01*
X0506598Y0207892D02*
X0511998Y0207892D01*
X0511998Y0209490D02*
X0506598Y0209490D01*
X0506598Y0211089D02*
X0511998Y0211089D01*
X0511998Y0212687D02*
X0506598Y0212687D01*
X0506598Y0214286D02*
X0511998Y0214286D01*
X0511998Y0215884D02*
X0506598Y0215884D01*
X0506598Y0217483D02*
X0511998Y0217483D01*
X0511998Y0219081D02*
X0506598Y0219081D01*
X0506598Y0220680D02*
X0511998Y0220680D01*
X0511998Y0222279D02*
X0506598Y0222279D01*
X0506598Y0223877D02*
X0511998Y0223877D01*
X0511998Y0225476D02*
X0506598Y0225476D01*
X0506598Y0227074D02*
X0511998Y0227074D01*
X0511998Y0228673D02*
X0506598Y0228673D01*
X0506598Y0230271D02*
X0511998Y0230271D01*
X0511998Y0231870D02*
X0506598Y0231870D01*
X0506598Y0233468D02*
X0511998Y0233468D01*
X0511998Y0235067D02*
X0506598Y0235067D01*
X0506598Y0236665D02*
X0511998Y0236665D01*
X0511998Y0238264D02*
X0506598Y0238264D01*
X0506598Y0239862D02*
X0511998Y0239862D01*
X0511998Y0241461D02*
X0506598Y0241461D01*
X0506598Y0243059D02*
X0511998Y0243059D01*
X0511998Y0244658D02*
X0506598Y0244658D01*
X0506598Y0246256D02*
X0511998Y0246256D01*
X0511998Y0247855D02*
X0506598Y0247855D01*
X0506598Y0249453D02*
X0511998Y0249453D01*
X0511998Y0251052D02*
X0506598Y0251052D01*
X0506598Y0252650D02*
X0511998Y0252650D01*
X0511998Y0254249D02*
X0506598Y0254249D01*
X0506598Y0255847D02*
X0511998Y0255847D01*
X0511998Y0257446D02*
X0506598Y0257446D01*
X0506598Y0259044D02*
X0511998Y0259044D01*
X0511998Y0260643D02*
X0506269Y0260643D01*
X0505841Y0262241D02*
X0511998Y0262241D01*
X0511998Y0263840D02*
X0505207Y0263840D01*
X0504284Y0265438D02*
X0511998Y0265438D01*
X0511998Y0267037D02*
X0503157Y0267037D01*
X0501558Y0268635D02*
X0511998Y0268635D01*
X0511998Y0270234D02*
X0499960Y0270234D01*
X0498361Y0271832D02*
X0511998Y0271832D01*
X0511998Y0273431D02*
X0496763Y0273431D01*
X0495164Y0275029D02*
X0511998Y0275029D01*
X0511998Y0276628D02*
X0493566Y0276628D01*
X0491967Y0278226D02*
X0511998Y0278226D01*
X0511998Y0279825D02*
X0490369Y0279825D01*
X0488770Y0281423D02*
X0511998Y0281423D01*
X0511998Y0283022D02*
X0487171Y0283022D01*
X0485573Y0284620D02*
X0511998Y0284620D01*
X0511998Y0286219D02*
X0483974Y0286219D01*
X0482376Y0287817D02*
X0511998Y0287817D01*
X0511998Y0289416D02*
X0480777Y0289416D01*
X0479179Y0291015D02*
X0511998Y0291015D01*
X0511998Y0292613D02*
X0477580Y0292613D01*
X0475982Y0294212D02*
X0511998Y0294212D01*
X0511998Y0295810D02*
X0474383Y0295810D01*
X0472785Y0297409D02*
X0511998Y0297409D01*
X0511998Y0299007D02*
X0471186Y0299007D01*
X0469588Y0300606D02*
X0511998Y0300606D01*
X0511998Y0302204D02*
X0467989Y0302204D01*
X0466391Y0303803D02*
X0511998Y0303803D01*
X0511998Y0305401D02*
X0464792Y0305401D01*
X0463194Y0307000D02*
X0511998Y0307000D01*
X0511998Y0308598D02*
X0461595Y0308598D01*
X0459997Y0310197D02*
X0511998Y0310197D01*
X0511998Y0311795D02*
X0458398Y0311795D01*
X0456800Y0313394D02*
X0511998Y0313394D01*
X0511998Y0314992D02*
X0455201Y0314992D01*
X0453603Y0316591D02*
X0511998Y0316591D01*
X0511998Y0318189D02*
X0452004Y0318189D01*
X0450406Y0319788D02*
X0511998Y0319788D01*
X0511998Y0321386D02*
X0448807Y0321386D01*
X0447209Y0322985D02*
X0511998Y0322985D01*
X0511998Y0324583D02*
X0445610Y0324583D01*
X0444012Y0326182D02*
X0511998Y0326182D01*
X0511998Y0327780D02*
X0442413Y0327780D01*
X0440815Y0329379D02*
X0511998Y0329379D01*
X0511998Y0330977D02*
X0439216Y0330977D01*
X0437618Y0332576D02*
X0511998Y0332576D01*
X0511998Y0334174D02*
X0436019Y0334174D01*
X0434421Y0335773D02*
X0511998Y0335773D01*
X0511998Y0337371D02*
X0432822Y0337371D01*
X0431224Y0338970D02*
X0511998Y0338970D01*
X0511998Y0340568D02*
X0428702Y0340568D01*
X0424112Y0342167D02*
X0511998Y0342167D01*
X0511998Y0343765D02*
X0215543Y0343765D01*
X0213945Y0342167D02*
X0309485Y0342167D01*
X0304895Y0340568D02*
X0212346Y0340568D01*
X0210748Y0338970D02*
X0302373Y0338970D01*
X0300775Y0337371D02*
X0209149Y0337371D01*
X0207551Y0335773D02*
X0299176Y0335773D01*
X0297578Y0334174D02*
X0246163Y0334174D01*
X0247415Y0332576D02*
X0295979Y0332576D01*
X0294381Y0330977D02*
X0247748Y0330977D01*
X0247384Y0329379D02*
X0292782Y0329379D01*
X0291184Y0327780D02*
X0246070Y0327780D01*
X0241827Y0327780D02*
X0216398Y0327780D01*
X0216230Y0326182D02*
X0289742Y0326182D01*
X0288819Y0324583D02*
X0215340Y0324583D01*
X0214029Y0321386D02*
X0223446Y0321386D01*
X0223127Y0321067D02*
X0222548Y0319670D01*
X0222548Y0318509D01*
X0162954Y0258915D01*
X0161793Y0258915D01*
X0160396Y0258336D01*
X0159327Y0257267D01*
X0158748Y0255870D01*
X0158748Y0254359D01*
X0159327Y0252962D01*
X0160396Y0251893D01*
X0161793Y0251315D01*
X0163304Y0251315D01*
X0164701Y0251893D01*
X0165770Y0252962D01*
X0166348Y0254359D01*
X0166348Y0255520D01*
X0225943Y0315115D01*
X0227104Y0315115D01*
X0228501Y0315693D01*
X0229570Y0316762D01*
X0230148Y0318159D01*
X0230148Y0319670D01*
X0229570Y0321067D01*
X0228501Y0322136D01*
X0227104Y0322715D01*
X0225593Y0322715D01*
X0224196Y0322136D01*
X0223127Y0321067D01*
X0222597Y0319788D02*
X0215799Y0319788D01*
X0215729Y0319957D02*
X0214491Y0321195D01*
X0212874Y0321865D01*
X0205923Y0321865D01*
X0204306Y0321195D01*
X0203068Y0319957D01*
X0202398Y0318340D01*
X0202398Y0316589D01*
X0203068Y0314972D01*
X0204306Y0313734D01*
X0205923Y0313065D01*
X0212874Y0313065D01*
X0214491Y0313734D01*
X0215729Y0314972D01*
X0216398Y0316589D01*
X0216398Y0318340D01*
X0215729Y0319957D01*
X0216398Y0318189D02*
X0222229Y0318189D01*
X0220630Y0316591D02*
X0216398Y0316591D01*
X0215737Y0314992D02*
X0219032Y0314992D01*
X0217433Y0313394D02*
X0213668Y0313394D01*
X0215835Y0311795D02*
X0190173Y0311795D01*
X0188575Y0310197D02*
X0214236Y0310197D01*
X0212638Y0308598D02*
X0186976Y0308598D01*
X0185378Y0307000D02*
X0211039Y0307000D01*
X0209441Y0305401D02*
X0183779Y0305401D01*
X0182181Y0303803D02*
X0207842Y0303803D01*
X0206244Y0302204D02*
X0180582Y0302204D01*
X0178984Y0300606D02*
X0204645Y0300606D01*
X0203047Y0299007D02*
X0177385Y0299007D01*
X0175787Y0297409D02*
X0201448Y0297409D01*
X0199850Y0295810D02*
X0174188Y0295810D01*
X0172590Y0294212D02*
X0198251Y0294212D01*
X0196653Y0292613D02*
X0170991Y0292613D01*
X0169393Y0291015D02*
X0195054Y0291015D01*
X0193456Y0289416D02*
X0155725Y0289416D01*
X0156173Y0287817D02*
X0191857Y0287817D01*
X0190259Y0286219D02*
X0156018Y0286219D01*
X0155141Y0284620D02*
X0188660Y0284620D01*
X0187062Y0283022D02*
X0115998Y0283022D01*
X0115998Y0284620D02*
X0128456Y0284620D01*
X0127579Y0286219D02*
X0115998Y0286219D01*
X0115998Y0287817D02*
X0127424Y0287817D01*
X0127872Y0289416D02*
X0115998Y0289416D01*
X0115998Y0291015D02*
X0129161Y0291015D01*
X0133953Y0292613D02*
X0115998Y0292613D01*
X0115998Y0294212D02*
X0135852Y0294212D01*
X0137544Y0289416D02*
X0147872Y0289416D01*
X0147424Y0287817D02*
X0136173Y0287817D01*
X0136018Y0286219D02*
X0147579Y0286219D01*
X0148456Y0284620D02*
X0135141Y0284620D01*
X0115998Y0281423D02*
X0185463Y0281423D01*
X0183865Y0279825D02*
X0115998Y0279825D01*
X0115998Y0278226D02*
X0182266Y0278226D01*
X0180668Y0276628D02*
X0115998Y0276628D01*
X0115998Y0275029D02*
X0179069Y0275029D01*
X0177471Y0273431D02*
X0115998Y0273431D01*
X0115998Y0271832D02*
X0175872Y0271832D01*
X0174274Y0270234D02*
X0115998Y0270234D01*
X0115998Y0268635D02*
X0172675Y0268635D01*
X0171077Y0267037D02*
X0115998Y0267037D01*
X0115998Y0265438D02*
X0169478Y0265438D01*
X0167880Y0263840D02*
X0115998Y0263840D01*
X0115998Y0262241D02*
X0166281Y0262241D01*
X0164683Y0260643D02*
X0115998Y0260643D01*
X0115998Y0259044D02*
X0163084Y0259044D01*
X0159506Y0257446D02*
X0115998Y0257446D01*
X0115998Y0255847D02*
X0158748Y0255847D01*
X0158794Y0254249D02*
X0115998Y0254249D01*
X0115998Y0252650D02*
X0159639Y0252650D01*
X0162293Y0249453D02*
X0115998Y0249453D01*
X0115998Y0247855D02*
X0160695Y0247855D01*
X0159096Y0246256D02*
X0115998Y0246256D01*
X0115998Y0244658D02*
X0157497Y0244658D01*
X0155899Y0243059D02*
X0115998Y0243059D01*
X0115998Y0241461D02*
X0154300Y0241461D01*
X0152702Y0239862D02*
X0115998Y0239862D01*
X0115998Y0238264D02*
X0151103Y0238264D01*
X0149505Y0236665D02*
X0115998Y0236665D01*
X0115998Y0235067D02*
X0147906Y0235067D01*
X0146308Y0233468D02*
X0115998Y0233468D01*
X0115998Y0231870D02*
X0144709Y0231870D01*
X0143111Y0230271D02*
X0115998Y0230271D01*
X0115998Y0228673D02*
X0141512Y0228673D01*
X0139914Y0227074D02*
X0115998Y0227074D01*
X0115998Y0225476D02*
X0138315Y0225476D01*
X0136717Y0223877D02*
X0115998Y0223877D01*
X0115998Y0222279D02*
X0125289Y0222279D01*
X0122907Y0220680D02*
X0115998Y0220680D01*
X0115998Y0219081D02*
X0122029Y0219081D01*
X0121773Y0217483D02*
X0115998Y0217483D01*
X0115998Y0215884D02*
X0122014Y0215884D01*
X0122871Y0214286D02*
X0115998Y0214286D01*
X0108998Y0214286D02*
X0097848Y0214286D01*
X0097848Y0215884D02*
X0108998Y0215884D01*
X0108998Y0217483D02*
X0097848Y0217483D01*
X0097848Y0219081D02*
X0108998Y0219081D01*
X0108998Y0220680D02*
X0097848Y0220680D01*
X0097848Y0222279D02*
X0108998Y0222279D01*
X0108998Y0223877D02*
X0097848Y0223877D01*
X0097848Y0225476D02*
X0108998Y0225476D01*
X0108998Y0227074D02*
X0097848Y0227074D01*
X0097848Y0228673D02*
X0108998Y0228673D01*
X0108998Y0230271D02*
X0097848Y0230271D01*
X0097848Y0231870D02*
X0108998Y0231870D01*
X0108998Y0233468D02*
X0097848Y0233468D01*
X0097848Y0235067D02*
X0108998Y0235067D01*
X0108998Y0236665D02*
X0097848Y0236665D01*
X0097848Y0238264D02*
X0108998Y0238264D01*
X0108998Y0239862D02*
X0097848Y0239862D01*
X0097848Y0241461D02*
X0108998Y0241461D01*
X0108998Y0243059D02*
X0097848Y0243059D01*
X0097848Y0244658D02*
X0108998Y0244658D01*
X0108998Y0246256D02*
X0097848Y0246256D01*
X0097848Y0247855D02*
X0108998Y0247855D01*
X0108998Y0249453D02*
X0097848Y0249453D01*
X0097848Y0251052D02*
X0108998Y0251052D01*
X0108998Y0252650D02*
X0097848Y0252650D01*
X0097848Y0254249D02*
X0108998Y0254249D01*
X0108998Y0255847D02*
X0097848Y0255847D01*
X0097848Y0257446D02*
X0108998Y0257446D01*
X0108998Y0259044D02*
X0097848Y0259044D01*
X0097848Y0260643D02*
X0108998Y0260643D01*
X0108998Y0262241D02*
X0097848Y0262241D01*
X0097848Y0263840D02*
X0108998Y0263840D01*
X0108998Y0265438D02*
X0097848Y0265438D01*
X0097848Y0267037D02*
X0108998Y0267037D01*
X0108998Y0268635D02*
X0097848Y0268635D01*
X0097848Y0270234D02*
X0108998Y0270234D01*
X0108998Y0271832D02*
X0097848Y0271832D01*
X0097848Y0273431D02*
X0108998Y0273431D01*
X0108998Y0275029D02*
X0097848Y0275029D01*
X0097848Y0276628D02*
X0108998Y0276628D01*
X0108998Y0278226D02*
X0097848Y0278226D01*
X0097848Y0279825D02*
X0108998Y0279825D01*
X0108998Y0281423D02*
X0097848Y0281423D01*
X0097848Y0283022D02*
X0108998Y0283022D01*
X0108998Y0284620D02*
X0097848Y0284620D01*
X0097848Y0286219D02*
X0108998Y0286219D01*
X0108998Y0287817D02*
X0097848Y0287817D01*
X0097848Y0289416D02*
X0108998Y0289416D01*
X0108998Y0291015D02*
X0097848Y0291015D01*
X0097848Y0292613D02*
X0108998Y0292613D01*
X0108998Y0294212D02*
X0097848Y0294212D01*
X0097848Y0295810D02*
X0108998Y0295810D01*
X0108998Y0297409D02*
X0097848Y0297409D01*
X0097848Y0299007D02*
X0108998Y0299007D01*
X0108998Y0300606D02*
X0097848Y0300606D01*
X0097848Y0301420D02*
X0097848Y0202059D01*
X0108998Y0213209D01*
X0108998Y0303641D01*
X0107669Y0303090D01*
X0105928Y0303090D01*
X0104320Y0303756D01*
X0103090Y0304986D01*
X0102599Y0306171D01*
X0097848Y0301420D01*
X0098632Y0302204D02*
X0108998Y0302204D01*
X0104274Y0303803D02*
X0100231Y0303803D01*
X0101829Y0305401D02*
X0102918Y0305401D01*
X0109398Y0311052D02*
X0109398Y0356970D01*
X0113934Y0361506D01*
X0114306Y0361134D01*
X0115923Y0360465D01*
X0117674Y0360465D01*
X0119291Y0361134D01*
X0120529Y0362372D01*
X0121198Y0363989D01*
X0121198Y0370940D01*
X0122399Y0370940D01*
X0122398Y0370940D02*
X0122398Y0363989D01*
X0123068Y0362372D01*
X0124175Y0361265D01*
X0124127Y0361217D01*
X0123548Y0359820D01*
X0123548Y0358659D01*
X0121039Y0356149D01*
X0120364Y0355474D01*
X0119998Y0354592D01*
X0119998Y0348087D01*
X0119291Y0348795D01*
X0117674Y0349465D01*
X0115923Y0349465D01*
X0114306Y0348795D01*
X0113068Y0347557D01*
X0112398Y0345940D01*
X0112398Y0338989D01*
X0113068Y0337372D01*
X0114100Y0336340D01*
X0113677Y0335917D01*
X0113098Y0334520D01*
X0113098Y0333009D01*
X0113677Y0331612D01*
X0114746Y0330543D01*
X0116143Y0329965D01*
X0117654Y0329965D01*
X0119051Y0330543D01*
X0120120Y0331612D01*
X0120698Y0333009D01*
X0120698Y0334170D01*
X0123484Y0336956D01*
X0124306Y0336134D01*
X0125923Y0335465D01*
X0127674Y0335465D01*
X0129291Y0336134D01*
X0130529Y0337372D01*
X0131198Y0338989D01*
X0131198Y0344265D01*
X0132398Y0344265D01*
X0132398Y0338989D01*
X0133068Y0337372D01*
X0134306Y0336134D01*
X0135274Y0335734D01*
X0110039Y0310499D01*
X0109995Y0310455D01*
X0109398Y0311052D01*
X0109398Y0311795D02*
X0111335Y0311795D01*
X0112933Y0313394D02*
X0109398Y0313394D01*
X0109398Y0314992D02*
X0114532Y0314992D01*
X0116130Y0316591D02*
X0109398Y0316591D01*
X0109398Y0318189D02*
X0117729Y0318189D01*
X0119328Y0319788D02*
X0109398Y0319788D01*
X0109398Y0321386D02*
X0120926Y0321386D01*
X0122525Y0322985D02*
X0109398Y0322985D01*
X0109398Y0324583D02*
X0124123Y0324583D01*
X0125722Y0326182D02*
X0109398Y0326182D01*
X0109398Y0327780D02*
X0127320Y0327780D01*
X0128919Y0329379D02*
X0109398Y0329379D01*
X0109398Y0330977D02*
X0114312Y0330977D01*
X0113278Y0332576D02*
X0109398Y0332576D01*
X0109398Y0334174D02*
X0113098Y0334174D01*
X0113617Y0335773D02*
X0109398Y0335773D01*
X0109398Y0337371D02*
X0113069Y0337371D01*
X0112407Y0338970D02*
X0109398Y0338970D01*
X0109398Y0340568D02*
X0112398Y0340568D01*
X0112398Y0342167D02*
X0109398Y0342167D01*
X0109398Y0343765D02*
X0112398Y0343765D01*
X0112398Y0345364D02*
X0109398Y0345364D01*
X0109398Y0346962D02*
X0112822Y0346962D01*
X0114072Y0348561D02*
X0109398Y0348561D01*
X0109398Y0350159D02*
X0119998Y0350159D01*
X0119998Y0348561D02*
X0119525Y0348561D01*
X0119998Y0351758D02*
X0109398Y0351758D01*
X0109398Y0353356D02*
X0119998Y0353356D01*
X0120149Y0354955D02*
X0109398Y0354955D01*
X0109398Y0356553D02*
X0121443Y0356553D01*
X0121039Y0356149D02*
X0121039Y0356149D01*
X0123042Y0358152D02*
X0110580Y0358152D01*
X0112178Y0359750D02*
X0123548Y0359750D01*
X0124092Y0361349D02*
X0119505Y0361349D01*
X0120767Y0362948D02*
X0122830Y0362948D01*
X0122398Y0364546D02*
X0121198Y0364546D01*
X0121198Y0366145D02*
X0122398Y0366145D01*
X0122398Y0367743D02*
X0121198Y0367743D01*
X0121198Y0369342D02*
X0122398Y0369342D01*
X0122398Y0370940D02*
X0123068Y0372557D01*
X0124306Y0373795D01*
X0125923Y0374465D01*
X0127674Y0374465D01*
X0129291Y0373795D01*
X0130529Y0372557D01*
X0131198Y0370940D01*
X0132399Y0370940D01*
X0132398Y0370940D02*
X0132398Y0365109D01*
X0131198Y0366309D01*
X0131198Y0370940D01*
X0132398Y0370940D02*
X0133068Y0372557D01*
X0134306Y0373795D01*
X0135923Y0374465D01*
X0137674Y0374465D01*
X0139291Y0373795D01*
X0140529Y0372557D01*
X0141198Y0370940D01*
X0170480Y0370940D01*
X0172078Y0372539D02*
X0140536Y0372539D01*
X0141198Y0370940D02*
X0141198Y0363989D01*
X0140529Y0362372D01*
X0139291Y0361134D01*
X0139098Y0361055D01*
X0139098Y0348874D01*
X0139291Y0348795D01*
X0140529Y0347557D01*
X0141198Y0345940D01*
X0141198Y0341659D01*
X0180439Y0380899D01*
X0181321Y0381265D01*
X0224254Y0381265D01*
X0226413Y0383423D01*
X0225986Y0383423D01*
X0223424Y0385986D01*
X0223424Y0389610D01*
X0225678Y0391865D01*
X0219919Y0391865D01*
X0222173Y0389610D01*
X0222173Y0385986D01*
X0219610Y0383423D01*
X0215986Y0383423D01*
X0213595Y0385815D01*
X0173621Y0385815D01*
X0172739Y0386180D01*
X0171507Y0387412D01*
X0171507Y0384144D01*
X0170452Y0383090D01*
X0163811Y0383090D01*
X0162757Y0384144D01*
X0162757Y0389665D01*
X0161507Y0389665D01*
X0161507Y0384144D01*
X0160452Y0383090D01*
X0153811Y0383090D01*
X0152757Y0384144D01*
X0152757Y0389329D01*
X0151507Y0388079D01*
X0151507Y0384144D01*
X0150452Y0383090D01*
X0143811Y0383090D01*
X0142757Y0384144D01*
X0142757Y0384715D01*
X0128893Y0384715D01*
X0118359Y0374181D01*
X0119291Y0373795D01*
X0120529Y0372557D01*
X0121198Y0370940D01*
X0120536Y0372539D02*
X0123061Y0372539D01*
X0125133Y0374137D02*
X0118464Y0374137D01*
X0119914Y0375736D02*
X0175275Y0375736D01*
X0173677Y0374137D02*
X0138464Y0374137D01*
X0135133Y0374137D02*
X0128464Y0374137D01*
X0130536Y0372539D02*
X0133061Y0372539D01*
X0132398Y0369342D02*
X0131198Y0369342D01*
X0131198Y0367743D02*
X0132398Y0367743D01*
X0132398Y0366145D02*
X0131363Y0366145D01*
X0134148Y0361292D02*
X0134298Y0361142D01*
X0134298Y0350889D01*
X0134148Y0351039D01*
X0134148Y0361292D01*
X0134148Y0359750D02*
X0134298Y0359750D01*
X0134298Y0358152D02*
X0134148Y0358152D01*
X0134148Y0356553D02*
X0134298Y0356553D01*
X0134298Y0354955D02*
X0134148Y0354955D01*
X0134148Y0353356D02*
X0134298Y0353356D01*
X0134298Y0351758D02*
X0134148Y0351758D01*
X0129348Y0351758D02*
X0124798Y0351758D01*
X0124798Y0353120D02*
X0124798Y0348999D01*
X0125923Y0349465D01*
X0127674Y0349465D01*
X0128136Y0349273D01*
X0128527Y0350217D01*
X0129348Y0351039D01*
X0129348Y0355780D01*
X0128104Y0355265D01*
X0126943Y0355265D01*
X0124798Y0353120D01*
X0125034Y0353356D02*
X0129348Y0353356D01*
X0129348Y0354955D02*
X0126633Y0354955D01*
X0124798Y0350159D02*
X0128503Y0350159D01*
X0131198Y0343765D02*
X0132398Y0343765D01*
X0132398Y0342167D02*
X0131198Y0342167D01*
X0131198Y0340568D02*
X0132398Y0340568D01*
X0132407Y0338970D02*
X0131190Y0338970D01*
X0130528Y0337371D02*
X0133069Y0337371D01*
X0135179Y0335773D02*
X0128418Y0335773D01*
X0125179Y0335773D02*
X0122301Y0335773D01*
X0120702Y0334174D02*
X0133714Y0334174D01*
X0132116Y0332576D02*
X0120519Y0332576D01*
X0119485Y0330977D02*
X0130517Y0330977D01*
X0134108Y0327780D02*
X0137220Y0327780D01*
X0135707Y0329379D02*
X0138819Y0329379D01*
X0137305Y0330977D02*
X0140417Y0330977D01*
X0138904Y0332576D02*
X0142016Y0332576D01*
X0140502Y0334174D02*
X0143614Y0334174D01*
X0142101Y0335773D02*
X0145213Y0335773D01*
X0143699Y0337371D02*
X0146811Y0337371D01*
X0145298Y0338970D02*
X0148410Y0338970D01*
X0146896Y0340568D02*
X0150008Y0340568D01*
X0148495Y0342167D02*
X0151607Y0342167D01*
X0150093Y0343765D02*
X0153205Y0343765D01*
X0151692Y0345364D02*
X0154804Y0345364D01*
X0153290Y0346962D02*
X0156402Y0346962D01*
X0154889Y0348561D02*
X0158001Y0348561D01*
X0156487Y0350159D02*
X0159599Y0350159D01*
X0158086Y0351758D02*
X0161198Y0351758D01*
X0159684Y0353356D02*
X0162796Y0353356D01*
X0161283Y0354955D02*
X0164395Y0354955D01*
X0162881Y0356553D02*
X0165993Y0356553D01*
X0164480Y0358152D02*
X0167592Y0358152D01*
X0168339Y0358899D02*
X0113798Y0304359D01*
X0113798Y0307470D01*
X0167409Y0361081D01*
X0167868Y0359972D01*
X0168765Y0359076D01*
X0168339Y0358899D01*
X0168090Y0359750D02*
X0166078Y0359750D01*
X0162487Y0362948D02*
X0140767Y0362948D01*
X0141198Y0364546D02*
X0164086Y0364546D01*
X0165684Y0366145D02*
X0141198Y0366145D01*
X0141198Y0367743D02*
X0167283Y0367743D01*
X0168881Y0369342D02*
X0141198Y0369342D01*
X0139505Y0361349D02*
X0160889Y0361349D01*
X0159290Y0359750D02*
X0139098Y0359750D01*
X0139098Y0358152D02*
X0157692Y0358152D01*
X0156093Y0356553D02*
X0139098Y0356553D01*
X0139098Y0354955D02*
X0154495Y0354955D01*
X0152896Y0353356D02*
X0139098Y0353356D01*
X0139098Y0351758D02*
X0151298Y0351758D01*
X0149699Y0350159D02*
X0139098Y0350159D01*
X0139525Y0348561D02*
X0148101Y0348561D01*
X0146502Y0346962D02*
X0140775Y0346962D01*
X0141198Y0345364D02*
X0144904Y0345364D01*
X0143305Y0343765D02*
X0141198Y0343765D01*
X0141198Y0342167D02*
X0141707Y0342167D01*
X0150402Y0334174D02*
X0199164Y0334174D01*
X0197566Y0332576D02*
X0148804Y0332576D01*
X0147205Y0330977D02*
X0168889Y0330977D01*
X0167629Y0329379D02*
X0145607Y0329379D01*
X0144008Y0327780D02*
X0167198Y0327780D01*
X0167367Y0326182D02*
X0142410Y0326182D01*
X0140811Y0324583D02*
X0168257Y0324583D01*
X0167625Y0322985D02*
X0139213Y0322985D01*
X0137614Y0321386D02*
X0166026Y0321386D01*
X0164712Y0319788D02*
X0136016Y0319788D01*
X0134417Y0318189D02*
X0164548Y0318189D01*
X0164548Y0316591D02*
X0132819Y0316591D01*
X0131220Y0314992D02*
X0164836Y0314992D01*
X0166325Y0313394D02*
X0129622Y0313394D01*
X0128023Y0311795D02*
X0167924Y0311795D01*
X0175392Y0303803D02*
X0120031Y0303803D01*
X0121629Y0305401D02*
X0176991Y0305401D01*
X0178589Y0307000D02*
X0123228Y0307000D01*
X0124826Y0308598D02*
X0180188Y0308598D01*
X0181786Y0310197D02*
X0126425Y0310197D01*
X0122833Y0313394D02*
X0119722Y0313394D01*
X0121235Y0311795D02*
X0118123Y0311795D01*
X0119636Y0310197D02*
X0116525Y0310197D01*
X0118038Y0308598D02*
X0114926Y0308598D01*
X0113798Y0307000D02*
X0116439Y0307000D01*
X0114841Y0305401D02*
X0113798Y0305401D01*
X0118432Y0302204D02*
X0173794Y0302204D01*
X0172195Y0300606D02*
X0116834Y0300606D01*
X0115998Y0299007D02*
X0170597Y0299007D01*
X0168998Y0297409D02*
X0115998Y0297409D01*
X0115998Y0295810D02*
X0167400Y0295810D01*
X0180650Y0315265D02*
X0180712Y0315415D01*
X0183704Y0315415D01*
X0183554Y0315265D01*
X0180650Y0315265D01*
X0178829Y0321386D02*
X0186376Y0321386D01*
X0187975Y0322985D02*
X0174413Y0322985D01*
X0180140Y0324583D02*
X0189573Y0324583D01*
X0191172Y0326182D02*
X0181030Y0326182D01*
X0181198Y0327780D02*
X0192770Y0327780D01*
X0194369Y0329379D02*
X0180768Y0329379D01*
X0179508Y0330977D02*
X0195967Y0330977D01*
X0200763Y0335773D02*
X0152001Y0335773D01*
X0153599Y0337371D02*
X0202361Y0337371D01*
X0203960Y0338970D02*
X0155198Y0338970D01*
X0156796Y0340568D02*
X0205558Y0340568D01*
X0207157Y0342167D02*
X0158395Y0342167D01*
X0159993Y0343765D02*
X0208755Y0343765D01*
X0210354Y0345364D02*
X0161592Y0345364D01*
X0163190Y0346962D02*
X0211952Y0346962D01*
X0217142Y0345364D02*
X0511998Y0345364D01*
X0511998Y0346962D02*
X0218740Y0346962D01*
X0220339Y0348561D02*
X0232125Y0348561D01*
X0241472Y0348561D02*
X0257125Y0348561D01*
X0255391Y0350159D02*
X0243206Y0350159D01*
X0243798Y0351758D02*
X0254798Y0351758D01*
X0254805Y0353356D02*
X0243792Y0353356D01*
X0242907Y0359750D02*
X0255690Y0359750D01*
X0254898Y0361349D02*
X0243699Y0361349D01*
X0243798Y0362948D02*
X0254798Y0362948D01*
X0255298Y0364546D02*
X0243299Y0364546D01*
X0241941Y0366145D02*
X0256656Y0366145D01*
X0258323Y0368065D02*
X0265274Y0368065D01*
X0266891Y0368734D01*
X0268129Y0369972D01*
X0268798Y0371589D01*
X0268798Y0373340D01*
X0268129Y0374957D01*
X0266891Y0376195D01*
X0265274Y0376865D01*
X0258323Y0376865D01*
X0256706Y0376195D01*
X0255468Y0374957D01*
X0254798Y0373340D01*
X0254798Y0371589D01*
X0255468Y0369972D01*
X0256706Y0368734D01*
X0258323Y0368065D01*
X0256099Y0369342D02*
X0242498Y0369342D01*
X0243530Y0370940D02*
X0255067Y0370940D01*
X0254798Y0372539D02*
X0243798Y0372539D01*
X0243468Y0374137D02*
X0255129Y0374137D01*
X0256247Y0375736D02*
X0242350Y0375736D01*
X0240312Y0377334D02*
X0511998Y0377334D01*
X0511998Y0375736D02*
X0267350Y0375736D01*
X0268468Y0374137D02*
X0511998Y0374137D01*
X0511998Y0372539D02*
X0268798Y0372539D01*
X0268530Y0370940D02*
X0511998Y0370940D01*
X0511998Y0369342D02*
X0267498Y0369342D01*
X0266941Y0366145D02*
X0511998Y0366145D01*
X0511998Y0367743D02*
X0191671Y0367743D01*
X0190073Y0366145D02*
X0204256Y0366145D01*
X0202898Y0364546D02*
X0188474Y0364546D01*
X0186876Y0362948D02*
X0202398Y0362948D01*
X0202498Y0361349D02*
X0185277Y0361349D01*
X0183678Y0359750D02*
X0203290Y0359750D01*
X0202792Y0358152D02*
X0182080Y0358152D01*
X0180481Y0356553D02*
X0201193Y0356553D01*
X0199595Y0354955D02*
X0180529Y0354955D01*
X0178872Y0348561D02*
X0204725Y0348561D01*
X0202991Y0350159D02*
X0201205Y0350159D01*
X0215507Y0359750D02*
X0230690Y0359750D01*
X0229898Y0361349D02*
X0216299Y0361349D01*
X0216398Y0362948D02*
X0229798Y0362948D01*
X0230298Y0364546D02*
X0215899Y0364546D01*
X0214541Y0366145D02*
X0231656Y0366145D01*
X0231099Y0369342D02*
X0193270Y0369342D01*
X0194868Y0370940D02*
X0230067Y0370940D01*
X0229798Y0372539D02*
X0196467Y0372539D01*
X0198065Y0374137D02*
X0230129Y0374137D01*
X0228843Y0379065D02*
X0234594Y0384816D01*
X0235986Y0383423D01*
X0236313Y0383423D01*
X0231954Y0379065D01*
X0228843Y0379065D01*
X0230309Y0380531D02*
X0233421Y0380531D01*
X0231908Y0382130D02*
X0235019Y0382130D01*
X0235681Y0383728D02*
X0233506Y0383728D01*
X0230736Y0391047D02*
X0229919Y0391865D01*
X0231554Y0391865D01*
X0230736Y0391047D01*
X0230062Y0391721D02*
X0231411Y0391721D01*
X0225534Y0391721D02*
X0220062Y0391721D01*
X0221661Y0390122D02*
X0223936Y0390122D01*
X0223424Y0388524D02*
X0222173Y0388524D01*
X0222173Y0386925D02*
X0223424Y0386925D01*
X0224083Y0385327D02*
X0221514Y0385327D01*
X0219916Y0383728D02*
X0225681Y0383728D01*
X0225119Y0382130D02*
X0126308Y0382130D01*
X0127906Y0383728D02*
X0143173Y0383728D01*
X0142757Y0389515D02*
X0127421Y0389515D01*
X0126539Y0389149D01*
X0125864Y0388474D01*
X0105454Y0368065D01*
X0103373Y0368065D01*
X0102551Y0368886D01*
X0101154Y0369465D01*
X0099643Y0369465D01*
X0099501Y0369406D01*
X0090998Y0377909D01*
X0090998Y0379070D01*
X0090420Y0380467D01*
X0089351Y0381536D01*
X0088375Y0381940D01*
X0088498Y0382237D01*
X0088498Y0383311D01*
X0090840Y0385652D01*
X0090840Y0389277D01*
X0090452Y0389665D01*
X0092478Y0389665D01*
X0092090Y0389277D01*
X0092090Y0385652D01*
X0094653Y0383090D01*
X0098277Y0383090D01*
X0100840Y0385652D01*
X0100840Y0389277D01*
X0100452Y0389665D01*
X0134976Y0389665D01*
X0135858Y0390030D01*
X0136533Y0390705D01*
X0137693Y0391865D01*
X0148504Y0391865D01*
X0148479Y0391839D01*
X0143811Y0391839D01*
X0142757Y0390785D01*
X0142757Y0389515D01*
X0142757Y0390122D02*
X0135950Y0390122D01*
X0137549Y0391721D02*
X0143693Y0391721D01*
X0136022Y0398115D02*
X0511998Y0398115D01*
X0511998Y0399713D02*
X0133608Y0399713D01*
X0132089Y0399713D02*
X0021598Y0399713D01*
X0021598Y0398115D02*
X0077989Y0398115D01*
X0076156Y0396516D02*
X0021598Y0396516D01*
X0021598Y0394918D02*
X0074558Y0394918D01*
X0072959Y0393319D02*
X0021598Y0393319D01*
X0021598Y0391721D02*
X0071361Y0391721D01*
X0069763Y0390122D02*
X0021598Y0390122D01*
X0021598Y0388524D02*
X0069263Y0388524D01*
X0067665Y0386925D02*
X0021598Y0386925D01*
X0021598Y0385327D02*
X0066066Y0385327D01*
X0064468Y0383728D02*
X0021598Y0383728D01*
X0021598Y0382130D02*
X0062869Y0382130D01*
X0061271Y0380531D02*
X0021598Y0380531D01*
X0021598Y0378933D02*
X0059672Y0378933D01*
X0058074Y0377334D02*
X0021598Y0377334D01*
X0021598Y0375736D02*
X0056475Y0375736D01*
X0054877Y0374137D02*
X0021598Y0374137D01*
X0021598Y0372539D02*
X0053278Y0372539D01*
X0051680Y0370940D02*
X0048035Y0370940D01*
X0049151Y0369342D02*
X0050081Y0369342D01*
X0053673Y0366145D02*
X0053998Y0366145D01*
X0053998Y0364546D02*
X0052074Y0364546D01*
X0050476Y0362948D02*
X0053998Y0362948D01*
X0053998Y0361349D02*
X0048877Y0361349D01*
X0048982Y0359750D02*
X0053998Y0359750D01*
X0053998Y0358152D02*
X0049535Y0358152D01*
X0049535Y0356553D02*
X0053998Y0356553D01*
X0053089Y0354955D02*
X0048889Y0354955D01*
X0047310Y0353356D02*
X0052598Y0353356D01*
X0052806Y0351758D02*
X0021598Y0351758D01*
X0021598Y0353356D02*
X0036287Y0353356D01*
X0034708Y0354955D02*
X0021598Y0354955D01*
X0021598Y0356553D02*
X0034061Y0356553D01*
X0034061Y0358152D02*
X0021598Y0358152D01*
X0021598Y0359750D02*
X0034615Y0359750D01*
X0035971Y0361349D02*
X0021598Y0361349D01*
X0021598Y0362948D02*
X0037274Y0362948D01*
X0035005Y0364546D02*
X0021598Y0364546D01*
X0021598Y0366145D02*
X0034215Y0366145D01*
X0034061Y0367743D02*
X0021598Y0367743D01*
X0021598Y0369342D02*
X0034446Y0369342D01*
X0035562Y0370940D02*
X0021598Y0370940D01*
X0021598Y0350159D02*
X0053880Y0350159D01*
X0056801Y0348561D02*
X0021598Y0348561D01*
X0021598Y0346962D02*
X0055202Y0346962D01*
X0053604Y0345364D02*
X0021598Y0345364D01*
X0021598Y0343765D02*
X0052005Y0343765D01*
X0050407Y0342167D02*
X0021598Y0342167D01*
X0021598Y0340568D02*
X0048808Y0340568D01*
X0047210Y0338970D02*
X0021598Y0338970D01*
X0021598Y0337371D02*
X0045611Y0337371D01*
X0044013Y0335773D02*
X0021598Y0335773D01*
X0021598Y0334174D02*
X0042414Y0334174D01*
X0040816Y0332576D02*
X0021598Y0332576D01*
X0021598Y0330977D02*
X0039217Y0330977D01*
X0037619Y0329379D02*
X0021598Y0329379D01*
X0021598Y0327780D02*
X0036020Y0327780D01*
X0034422Y0326182D02*
X0021598Y0326182D01*
X0021598Y0324583D02*
X0032876Y0324583D01*
X0032548Y0322985D02*
X0021598Y0322985D01*
X0021598Y0321386D02*
X0032548Y0321386D01*
X0032548Y0319788D02*
X0021598Y0319788D01*
X0021598Y0318189D02*
X0032548Y0318189D01*
X0032548Y0316591D02*
X0021598Y0316591D01*
X0021598Y0314992D02*
X0032548Y0314992D01*
X0032548Y0313394D02*
X0021598Y0313394D01*
X0021598Y0311795D02*
X0032548Y0311795D01*
X0032548Y0310197D02*
X0021598Y0310197D01*
X0021598Y0308598D02*
X0032548Y0308598D01*
X0032548Y0307000D02*
X0021598Y0307000D01*
X0021598Y0305401D02*
X0032548Y0305401D01*
X0032548Y0303803D02*
X0021598Y0303803D01*
X0021598Y0302204D02*
X0032548Y0302204D01*
X0032548Y0300606D02*
X0021598Y0300606D01*
X0021598Y0299007D02*
X0032548Y0299007D01*
X0032548Y0297409D02*
X0021598Y0297409D01*
X0021598Y0295810D02*
X0032548Y0295810D01*
X0032548Y0294212D02*
X0021598Y0294212D01*
X0021598Y0292613D02*
X0032548Y0292613D01*
X0032548Y0291015D02*
X0021598Y0291015D01*
X0021598Y0289416D02*
X0032548Y0289416D01*
X0032548Y0287817D02*
X0021598Y0287817D01*
X0021598Y0286219D02*
X0032548Y0286219D01*
X0032548Y0284620D02*
X0021598Y0284620D01*
X0021598Y0283022D02*
X0032548Y0283022D01*
X0032548Y0281423D02*
X0021598Y0281423D01*
X0021598Y0279825D02*
X0032548Y0279825D01*
X0032548Y0278226D02*
X0021598Y0278226D01*
X0021598Y0276628D02*
X0032548Y0276628D01*
X0032548Y0275029D02*
X0021598Y0275029D01*
X0021598Y0273431D02*
X0032548Y0273431D01*
X0032548Y0271832D02*
X0021598Y0271832D01*
X0021598Y0270234D02*
X0032548Y0270234D01*
X0032548Y0268635D02*
X0021598Y0268635D01*
X0021598Y0267037D02*
X0032548Y0267037D01*
X0032548Y0265438D02*
X0021598Y0265438D01*
X0021598Y0263840D02*
X0032548Y0263840D01*
X0032548Y0262241D02*
X0021598Y0262241D01*
X0021598Y0260643D02*
X0032548Y0260643D01*
X0032548Y0259044D02*
X0021598Y0259044D01*
X0021598Y0257446D02*
X0032548Y0257446D01*
X0032548Y0255847D02*
X0021598Y0255847D01*
X0021598Y0254249D02*
X0032548Y0254249D01*
X0032548Y0252650D02*
X0021598Y0252650D01*
X0021598Y0251052D02*
X0032548Y0251052D01*
X0032548Y0249453D02*
X0021598Y0249453D01*
X0021598Y0247855D02*
X0032548Y0247855D01*
X0032548Y0246256D02*
X0021598Y0246256D01*
X0021598Y0244658D02*
X0032548Y0244658D01*
X0032548Y0243059D02*
X0021598Y0243059D01*
X0021598Y0241461D02*
X0032548Y0241461D01*
X0032548Y0239862D02*
X0021598Y0239862D01*
X0021598Y0238264D02*
X0032548Y0238264D01*
X0032548Y0236665D02*
X0021598Y0236665D01*
X0021598Y0235067D02*
X0032548Y0235067D01*
X0032548Y0233468D02*
X0021598Y0233468D01*
X0021598Y0231870D02*
X0032548Y0231870D01*
X0032548Y0230271D02*
X0021598Y0230271D01*
X0021598Y0228673D02*
X0032548Y0228673D01*
X0032548Y0227074D02*
X0021598Y0227074D01*
X0021598Y0225476D02*
X0032548Y0225476D01*
X0032548Y0223877D02*
X0021598Y0223877D01*
X0021598Y0222279D02*
X0032548Y0222279D01*
X0032548Y0220680D02*
X0021598Y0220680D01*
X0021598Y0219081D02*
X0032548Y0219081D01*
X0032548Y0217483D02*
X0021598Y0217483D01*
X0021598Y0215884D02*
X0032548Y0215884D01*
X0032548Y0214286D02*
X0021598Y0214286D01*
X0021598Y0212687D02*
X0032548Y0212687D01*
X0032548Y0211089D02*
X0021598Y0211089D01*
X0021598Y0209490D02*
X0032548Y0209490D01*
X0032548Y0207892D02*
X0021598Y0207892D01*
X0021598Y0206293D02*
X0032548Y0206293D01*
X0032548Y0204695D02*
X0021598Y0204695D01*
X0021598Y0203096D02*
X0032548Y0203096D01*
X0032548Y0201498D02*
X0021598Y0201498D01*
X0021598Y0199899D02*
X0032548Y0199899D01*
X0032548Y0198301D02*
X0021598Y0198301D01*
X0021598Y0196702D02*
X0032548Y0196702D01*
X0032548Y0195104D02*
X0021598Y0195104D01*
X0021598Y0193505D02*
X0032548Y0193505D01*
X0032548Y0191907D02*
X0021598Y0191907D01*
X0021598Y0190308D02*
X0032548Y0190308D01*
X0032548Y0188710D02*
X0021598Y0188710D01*
X0021598Y0187111D02*
X0032548Y0187111D01*
X0032548Y0185513D02*
X0021598Y0185513D01*
X0021598Y0183914D02*
X0032548Y0183914D01*
X0032548Y0182316D02*
X0021598Y0182316D01*
X0021598Y0180717D02*
X0032548Y0180717D01*
X0033300Y0179119D02*
X0021598Y0179119D01*
X0021598Y0177520D02*
X0034899Y0177520D01*
X0036497Y0175922D02*
X0021598Y0175922D01*
X0021598Y0174323D02*
X0037424Y0174323D01*
X0037657Y0172725D02*
X0021598Y0172725D01*
X0021598Y0171126D02*
X0038643Y0171126D01*
X0039471Y0167929D02*
X0021598Y0167929D01*
X0021598Y0166331D02*
X0037963Y0166331D01*
X0037424Y0164732D02*
X0021598Y0164732D01*
X0021598Y0163134D02*
X0037487Y0163134D01*
X0038234Y0161535D02*
X0021598Y0161535D01*
X0021598Y0159937D02*
X0038126Y0159937D01*
X0036528Y0158338D02*
X0021598Y0158338D01*
X0021598Y0156740D02*
X0034929Y0156740D01*
X0033331Y0155141D02*
X0021598Y0155141D01*
X0021598Y0153543D02*
X0032548Y0153543D01*
X0044661Y0157483D02*
X0045198Y0156945D01*
X0045198Y0158021D01*
X0044683Y0157505D01*
X0044661Y0157483D01*
X0049998Y0158147D02*
X0049998Y0158970D01*
X0050845Y0159817D01*
X0050928Y0159783D01*
X0052669Y0159783D01*
X0053998Y0160334D01*
X0053998Y0157982D01*
X0052669Y0158533D01*
X0050928Y0158533D01*
X0049998Y0158147D01*
X0049998Y0158338D02*
X0050459Y0158338D01*
X0053138Y0158338D02*
X0053998Y0158338D01*
X0053998Y0159937D02*
X0053039Y0159937D01*
X0058798Y0159937D02*
X0069398Y0159937D01*
X0069398Y0161535D02*
X0058798Y0161535D01*
X0058798Y0163134D02*
X0069398Y0163134D01*
X0069398Y0164732D02*
X0058798Y0164732D01*
X0058798Y0166331D02*
X0069398Y0166331D01*
X0069398Y0167929D02*
X0058798Y0167929D01*
X0058798Y0169528D02*
X0069398Y0169528D01*
X0069398Y0171126D02*
X0058798Y0171126D01*
X0058798Y0172725D02*
X0069398Y0172725D01*
X0069398Y0174323D02*
X0058798Y0174323D01*
X0058798Y0175922D02*
X0069398Y0175922D01*
X0070010Y0177520D02*
X0058798Y0177520D01*
X0058798Y0179119D02*
X0071609Y0179119D01*
X0073207Y0180717D02*
X0058798Y0180717D01*
X0058798Y0182316D02*
X0074806Y0182316D01*
X0076404Y0183914D02*
X0058798Y0183914D01*
X0058798Y0185513D02*
X0078003Y0185513D01*
X0079601Y0187111D02*
X0058798Y0187111D01*
X0059660Y0188710D02*
X0081200Y0188710D01*
X0082798Y0190308D02*
X0060198Y0190308D01*
X0060038Y0191907D02*
X0084397Y0191907D01*
X0085995Y0193505D02*
X0059032Y0193505D01*
X0056142Y0195104D02*
X0087594Y0195104D01*
X0089192Y0196702D02*
X0057480Y0196702D01*
X0059079Y0198301D02*
X0090791Y0198301D01*
X0091392Y0199899D02*
X0092389Y0199899D01*
X0088505Y0199899D02*
X0060677Y0199899D01*
X0056040Y0205350D02*
X0055507Y0206636D01*
X0054277Y0207867D01*
X0052669Y0208533D01*
X0050928Y0208533D01*
X0049320Y0207867D01*
X0048090Y0206636D01*
X0047424Y0205028D01*
X0047424Y0203288D01*
X0048090Y0201680D01*
X0049027Y0200743D01*
X0048439Y0200499D01*
X0045564Y0197624D01*
X0045258Y0196885D01*
X0044277Y0197867D01*
X0042669Y0198533D01*
X0040928Y0198533D01*
X0039548Y0197961D01*
X0039548Y0200355D01*
X0040928Y0199783D01*
X0042669Y0199783D01*
X0044277Y0200449D01*
X0045507Y0201680D01*
X0046173Y0203288D01*
X0046173Y0205028D01*
X0045507Y0206636D01*
X0044636Y0207508D01*
X0048449Y0211321D01*
X0049320Y0210449D01*
X0050928Y0209783D01*
X0052669Y0209783D01*
X0054277Y0210449D01*
X0055507Y0211680D01*
X0056173Y0213288D01*
X0056173Y0215028D01*
X0055507Y0216636D01*
X0054481Y0217662D01*
X0055008Y0217880D01*
X0093048Y0255921D01*
X0093048Y0205689D01*
X0092101Y0206636D01*
X0090704Y0207215D01*
X0089898Y0207215D01*
X0089898Y0208020D01*
X0089320Y0209417D01*
X0088251Y0210486D01*
X0086854Y0211065D01*
X0085343Y0211065D01*
X0083946Y0210486D01*
X0083124Y0209665D01*
X0060871Y0209665D01*
X0059989Y0209299D01*
X0056040Y0205350D01*
X0055649Y0206293D02*
X0056983Y0206293D01*
X0058582Y0207892D02*
X0054215Y0207892D01*
X0054917Y0211089D02*
X0093048Y0211089D01*
X0093048Y0212687D02*
X0055925Y0212687D01*
X0056173Y0214286D02*
X0093048Y0214286D01*
X0093048Y0215884D02*
X0055819Y0215884D01*
X0054660Y0217483D02*
X0093048Y0217483D01*
X0093048Y0219081D02*
X0056209Y0219081D01*
X0057808Y0220680D02*
X0093048Y0220680D01*
X0093048Y0222279D02*
X0059407Y0222279D01*
X0061005Y0223877D02*
X0093048Y0223877D01*
X0093048Y0225476D02*
X0062604Y0225476D01*
X0064202Y0227074D02*
X0093048Y0227074D01*
X0093048Y0228673D02*
X0065801Y0228673D01*
X0067399Y0230271D02*
X0093048Y0230271D01*
X0093048Y0231870D02*
X0068998Y0231870D01*
X0070596Y0233468D02*
X0093048Y0233468D01*
X0093048Y0235067D02*
X0072195Y0235067D01*
X0073793Y0236665D02*
X0093048Y0236665D01*
X0093048Y0238264D02*
X0075392Y0238264D01*
X0076990Y0239862D02*
X0093048Y0239862D01*
X0093048Y0241461D02*
X0078589Y0241461D01*
X0080187Y0243059D02*
X0093048Y0243059D01*
X0093048Y0244658D02*
X0081786Y0244658D01*
X0083384Y0246256D02*
X0093048Y0246256D01*
X0093048Y0247855D02*
X0084983Y0247855D01*
X0086581Y0249453D02*
X0093048Y0249453D01*
X0093048Y0251052D02*
X0088180Y0251052D01*
X0089778Y0252650D02*
X0093048Y0252650D01*
X0093048Y0254249D02*
X0091377Y0254249D01*
X0092975Y0255847D02*
X0093048Y0255847D01*
X0089384Y0259044D02*
X0056022Y0259044D01*
X0054561Y0257583D02*
X0081843Y0284865D01*
X0083004Y0284865D01*
X0084401Y0285443D01*
X0085470Y0286512D01*
X0086048Y0287909D01*
X0086048Y0289420D01*
X0085470Y0290817D01*
X0084401Y0291886D01*
X0083004Y0292465D01*
X0081493Y0292465D01*
X0080980Y0292252D01*
X0090848Y0302121D01*
X0090848Y0260509D01*
X0055937Y0225598D01*
X0055507Y0226636D01*
X0054277Y0227867D01*
X0052669Y0228533D01*
X0050928Y0228533D01*
X0049998Y0228147D01*
X0049998Y0230168D01*
X0050928Y0229783D01*
X0052669Y0229783D01*
X0054277Y0230449D01*
X0055507Y0231680D01*
X0056173Y0233288D01*
X0056173Y0235028D01*
X0055507Y0236636D01*
X0054277Y0237867D01*
X0052669Y0238533D01*
X0050928Y0238533D01*
X0049998Y0238147D01*
X0049998Y0240168D01*
X0050928Y0239783D01*
X0052669Y0239783D01*
X0054277Y0240449D01*
X0055507Y0241680D01*
X0056173Y0243288D01*
X0056173Y0245028D01*
X0055507Y0246636D01*
X0054277Y0247867D01*
X0052669Y0248533D01*
X0050928Y0248533D01*
X0049998Y0248147D01*
X0049998Y0250168D01*
X0050928Y0249783D01*
X0052669Y0249783D01*
X0054277Y0250449D01*
X0055507Y0251680D01*
X0056173Y0253288D01*
X0056173Y0255028D01*
X0055507Y0256636D01*
X0054561Y0257583D01*
X0054697Y0257446D02*
X0087786Y0257446D01*
X0086187Y0255847D02*
X0055834Y0255847D01*
X0056173Y0254249D02*
X0084589Y0254249D01*
X0082990Y0252650D02*
X0055909Y0252650D01*
X0054879Y0251052D02*
X0081392Y0251052D01*
X0079793Y0249453D02*
X0049998Y0249453D01*
X0054288Y0247855D02*
X0078195Y0247855D01*
X0076596Y0246256D02*
X0055665Y0246256D01*
X0056173Y0244658D02*
X0074997Y0244658D01*
X0073399Y0243059D02*
X0056079Y0243059D01*
X0055288Y0241461D02*
X0071800Y0241461D01*
X0070202Y0239862D02*
X0052860Y0239862D01*
X0053318Y0238264D02*
X0068603Y0238264D01*
X0067005Y0236665D02*
X0055478Y0236665D01*
X0056157Y0235067D02*
X0065406Y0235067D01*
X0063808Y0233468D02*
X0056173Y0233468D01*
X0055586Y0231870D02*
X0062209Y0231870D01*
X0060611Y0230271D02*
X0053847Y0230271D01*
X0055069Y0227074D02*
X0057414Y0227074D01*
X0059012Y0228673D02*
X0049998Y0228673D01*
X0045198Y0228673D02*
X0039548Y0228673D01*
X0039548Y0227961D02*
X0039548Y0230355D01*
X0040928Y0229783D01*
X0042669Y0229783D01*
X0044277Y0230449D01*
X0045198Y0231371D01*
X0045198Y0226945D01*
X0044277Y0227867D01*
X0042669Y0228533D01*
X0040928Y0228533D01*
X0039548Y0227961D01*
X0039548Y0230271D02*
X0039750Y0230271D01*
X0043847Y0230271D02*
X0045198Y0230271D01*
X0045198Y0227074D02*
X0045069Y0227074D01*
X0048499Y0221271D02*
X0048955Y0220815D01*
X0045564Y0217424D01*
X0045316Y0216827D01*
X0044686Y0217458D01*
X0048499Y0221271D01*
X0048820Y0220680D02*
X0047908Y0220680D01*
X0047221Y0219081D02*
X0046309Y0219081D01*
X0045623Y0217483D02*
X0044711Y0217483D01*
X0040429Y0219990D02*
X0039548Y0220355D01*
X0039548Y0217961D01*
X0039698Y0218023D01*
X0039698Y0218742D01*
X0040064Y0219624D01*
X0040429Y0219990D01*
X0039839Y0219081D02*
X0039548Y0219081D01*
X0048217Y0211089D02*
X0048680Y0211089D01*
X0046618Y0209490D02*
X0060451Y0209490D01*
X0049382Y0207892D02*
X0045020Y0207892D01*
X0045649Y0206293D02*
X0047948Y0206293D01*
X0047424Y0204695D02*
X0046173Y0204695D01*
X0046094Y0203096D02*
X0047503Y0203096D01*
X0048272Y0201498D02*
X0045325Y0201498D01*
X0042950Y0199899D02*
X0047839Y0199899D01*
X0046241Y0198301D02*
X0043228Y0198301D01*
X0040369Y0198301D02*
X0039548Y0198301D01*
X0039548Y0199899D02*
X0040647Y0199899D01*
X0045198Y0191371D02*
X0044626Y0190799D01*
X0045108Y0190599D01*
X0045198Y0190509D01*
X0045198Y0191371D01*
X0049998Y0190168D02*
X0050928Y0189783D01*
X0052669Y0189783D01*
X0052689Y0189791D01*
X0053177Y0188612D01*
X0053672Y0188117D01*
X0052669Y0188533D01*
X0050928Y0188533D01*
X0050607Y0188400D01*
X0049998Y0189009D01*
X0049998Y0190168D01*
X0050297Y0188710D02*
X0053137Y0188710D01*
X0053998Y0180334D02*
X0052669Y0179783D01*
X0050928Y0179783D01*
X0049998Y0180168D01*
X0049998Y0179109D01*
X0050678Y0178429D01*
X0050928Y0178533D01*
X0052669Y0178533D01*
X0053998Y0177982D01*
X0053998Y0180334D01*
X0053998Y0179119D02*
X0049998Y0179119D01*
X0045198Y0179119D02*
X0040088Y0179119D01*
X0039052Y0180717D02*
X0038490Y0180717D01*
X0037826Y0182316D02*
X0037348Y0182316D01*
X0037348Y0183914D02*
X0037424Y0183914D01*
X0037348Y0185513D02*
X0037624Y0185513D01*
X0037348Y0187111D02*
X0038565Y0187111D01*
X0037459Y0188710D02*
X0037348Y0188710D01*
X0044545Y0180717D02*
X0045198Y0180717D01*
X0045247Y0177520D02*
X0044623Y0177520D01*
X0045803Y0175922D02*
X0046397Y0175922D01*
X0046173Y0174323D02*
X0047424Y0174323D01*
X0047657Y0172725D02*
X0045940Y0172725D01*
X0044954Y0171126D02*
X0048643Y0171126D01*
X0047717Y0169528D02*
X0021598Y0169528D01*
X0044126Y0167929D02*
X0046119Y0167929D01*
X0053264Y0168286D02*
X0053998Y0167982D01*
X0053998Y0170334D01*
X0053848Y0170272D01*
X0053848Y0169387D01*
X0053483Y0168505D01*
X0053264Y0168286D01*
X0053848Y0169528D02*
X0053998Y0169528D01*
X0058798Y0158338D02*
X0069398Y0158338D01*
X0069398Y0156740D02*
X0058798Y0156740D01*
X0058798Y0155141D02*
X0069398Y0155141D01*
X0069398Y0153543D02*
X0058798Y0153543D01*
X0058636Y0151944D02*
X0069398Y0151944D01*
X0069398Y0150346D02*
X0057323Y0150346D01*
X0055725Y0148747D02*
X0069398Y0148747D01*
X0069398Y0147148D02*
X0054995Y0147148D01*
X0055957Y0145550D02*
X0069398Y0145550D01*
X0069398Y0143951D02*
X0056173Y0143951D01*
X0055786Y0142353D02*
X0069398Y0142353D01*
X0097848Y0203096D02*
X0098886Y0203096D01*
X0097848Y0204695D02*
X0100485Y0204695D01*
X0102083Y0206293D02*
X0097848Y0206293D01*
X0097848Y0207892D02*
X0103682Y0207892D01*
X0105280Y0209490D02*
X0097848Y0209490D01*
X0097848Y0211089D02*
X0106879Y0211089D01*
X0108477Y0212687D02*
X0097848Y0212687D01*
X0093048Y0209490D02*
X0089247Y0209490D01*
X0089898Y0207892D02*
X0093048Y0207892D01*
X0093048Y0206293D02*
X0092444Y0206293D01*
X0107376Y0201498D02*
X0108079Y0201498D01*
X0128308Y0222279D02*
X0135118Y0222279D01*
X0133520Y0220680D02*
X0130690Y0220680D01*
X0131568Y0219081D02*
X0131921Y0219081D01*
X0142009Y0219081D02*
X0170379Y0219081D01*
X0167653Y0220680D02*
X0143608Y0220680D01*
X0145207Y0222279D02*
X0166054Y0222279D01*
X0164667Y0223877D02*
X0146805Y0223877D01*
X0148404Y0225476D02*
X0163744Y0225476D01*
X0162921Y0227074D02*
X0150002Y0227074D01*
X0151601Y0228673D02*
X0162492Y0228673D01*
X0162064Y0230271D02*
X0153199Y0230271D01*
X0154798Y0231870D02*
X0161998Y0231870D01*
X0161998Y0233468D02*
X0156396Y0233468D01*
X0157995Y0235067D02*
X0162174Y0235067D01*
X0162602Y0236665D02*
X0159593Y0236665D01*
X0161192Y0238264D02*
X0163057Y0238264D01*
X0162790Y0239862D02*
X0163980Y0239862D01*
X0164389Y0241461D02*
X0164903Y0241461D01*
X0165987Y0243059D02*
X0166463Y0243059D01*
X0167586Y0244658D02*
X0168061Y0244658D01*
X0169184Y0246256D02*
X0169660Y0246256D01*
X0170783Y0247855D02*
X0171258Y0247855D01*
X0172381Y0249453D02*
X0172857Y0249453D01*
X0173980Y0251052D02*
X0174455Y0251052D01*
X0175578Y0252650D02*
X0176054Y0252650D01*
X0177177Y0254249D02*
X0177652Y0254249D01*
X0178775Y0255847D02*
X0179251Y0255847D01*
X0180374Y0257446D02*
X0180849Y0257446D01*
X0181972Y0259044D02*
X0182448Y0259044D01*
X0183571Y0260643D02*
X0184046Y0260643D01*
X0185169Y0262241D02*
X0185645Y0262241D01*
X0186768Y0263840D02*
X0187243Y0263840D01*
X0188366Y0265438D02*
X0188842Y0265438D01*
X0189965Y0267037D02*
X0190440Y0267037D01*
X0191563Y0268635D02*
X0192039Y0268635D01*
X0193162Y0270234D02*
X0193637Y0270234D01*
X0194760Y0271832D02*
X0195236Y0271832D01*
X0196359Y0273431D02*
X0196834Y0273431D01*
X0197957Y0275029D02*
X0198961Y0275029D01*
X0201051Y0281423D02*
X0224183Y0281423D01*
X0229614Y0281423D02*
X0286998Y0281423D01*
X0286998Y0279825D02*
X0230572Y0279825D01*
X0230698Y0278226D02*
X0286998Y0278226D01*
X0286998Y0283022D02*
X0202650Y0283022D01*
X0204248Y0284620D02*
X0286998Y0284620D01*
X0286998Y0286219D02*
X0253477Y0286219D01*
X0254311Y0287817D02*
X0286998Y0287817D01*
X0286998Y0289416D02*
X0254348Y0289416D01*
X0253573Y0291015D02*
X0286998Y0291015D01*
X0286998Y0292613D02*
X0203441Y0292613D01*
X0204300Y0291015D02*
X0201843Y0291015D01*
X0202256Y0289416D02*
X0200244Y0289416D01*
X0200657Y0287817D02*
X0198645Y0287817D01*
X0199059Y0286219D02*
X0197047Y0286219D01*
X0197460Y0284620D02*
X0195448Y0284620D01*
X0195862Y0283022D02*
X0193850Y0283022D01*
X0194263Y0281423D02*
X0192251Y0281423D01*
X0192665Y0279825D02*
X0190653Y0279825D01*
X0191066Y0278226D02*
X0189054Y0278226D01*
X0189468Y0276628D02*
X0187456Y0276628D01*
X0187869Y0275029D02*
X0185857Y0275029D01*
X0186271Y0273431D02*
X0184259Y0273431D01*
X0184672Y0271832D02*
X0182660Y0271832D01*
X0183074Y0270234D02*
X0181062Y0270234D01*
X0181475Y0268635D02*
X0179463Y0268635D01*
X0179877Y0267037D02*
X0177865Y0267037D01*
X0178278Y0265438D02*
X0176266Y0265438D01*
X0176680Y0263840D02*
X0174668Y0263840D01*
X0175081Y0262241D02*
X0173069Y0262241D01*
X0173483Y0260643D02*
X0171471Y0260643D01*
X0171884Y0259044D02*
X0169872Y0259044D01*
X0170286Y0257446D02*
X0168274Y0257446D01*
X0168687Y0255847D02*
X0166675Y0255847D01*
X0166303Y0254249D02*
X0167089Y0254249D01*
X0165490Y0252650D02*
X0165458Y0252650D01*
X0163892Y0251052D02*
X0115998Y0251052D01*
X0090848Y0260643D02*
X0057621Y0260643D01*
X0059219Y0262241D02*
X0090848Y0262241D01*
X0090848Y0263840D02*
X0060818Y0263840D01*
X0062416Y0265438D02*
X0090848Y0265438D01*
X0090848Y0267037D02*
X0064015Y0267037D01*
X0065613Y0268635D02*
X0090848Y0268635D01*
X0090848Y0270234D02*
X0067212Y0270234D01*
X0068810Y0271832D02*
X0090848Y0271832D01*
X0090848Y0273431D02*
X0070409Y0273431D01*
X0072007Y0275029D02*
X0090848Y0275029D01*
X0090848Y0276628D02*
X0073606Y0276628D01*
X0075204Y0278226D02*
X0090848Y0278226D01*
X0090848Y0279825D02*
X0076803Y0279825D01*
X0078401Y0281423D02*
X0090848Y0281423D01*
X0090848Y0283022D02*
X0080000Y0283022D01*
X0081598Y0284620D02*
X0090848Y0284620D01*
X0090848Y0286219D02*
X0085177Y0286219D01*
X0086011Y0287817D02*
X0090848Y0287817D01*
X0090848Y0289416D02*
X0086048Y0289416D01*
X0085273Y0291015D02*
X0090848Y0291015D01*
X0090848Y0292613D02*
X0081341Y0292613D01*
X0082940Y0294212D02*
X0090848Y0294212D01*
X0090848Y0295810D02*
X0084538Y0295810D01*
X0086137Y0297409D02*
X0090848Y0297409D01*
X0090848Y0299007D02*
X0087735Y0299007D01*
X0089334Y0300606D02*
X0090848Y0300606D01*
X0085293Y0303353D02*
X0064204Y0282265D01*
X0055750Y0282265D01*
X0056173Y0283288D01*
X0056173Y0285028D01*
X0055507Y0286636D01*
X0054277Y0287867D01*
X0052669Y0288533D01*
X0050928Y0288533D01*
X0049320Y0287867D01*
X0048898Y0287445D01*
X0048898Y0290871D01*
X0049320Y0290449D01*
X0050928Y0289783D01*
X0052669Y0289783D01*
X0054277Y0290449D01*
X0055507Y0291680D01*
X0056173Y0293288D01*
X0056173Y0295028D01*
X0055507Y0296636D01*
X0054277Y0297867D01*
X0052669Y0298533D01*
X0050928Y0298533D01*
X0049320Y0297867D01*
X0048898Y0297445D01*
X0048898Y0300871D01*
X0049320Y0300449D01*
X0050928Y0299783D01*
X0052669Y0299783D01*
X0054277Y0300449D01*
X0055507Y0301680D01*
X0056173Y0303288D01*
X0056173Y0305028D01*
X0055507Y0306636D01*
X0054277Y0307867D01*
X0052669Y0308533D01*
X0050928Y0308533D01*
X0049320Y0307867D01*
X0048898Y0307445D01*
X0048898Y0310871D01*
X0049320Y0310449D01*
X0050928Y0309783D01*
X0052669Y0309783D01*
X0054277Y0310449D01*
X0055507Y0311680D01*
X0056173Y0313288D01*
X0056173Y0315028D01*
X0055507Y0316636D01*
X0054277Y0317867D01*
X0052669Y0318533D01*
X0050928Y0318533D01*
X0049320Y0317867D01*
X0048898Y0317445D01*
X0048898Y0320871D01*
X0049320Y0320449D01*
X0050928Y0319783D01*
X0052669Y0319783D01*
X0054277Y0320449D01*
X0055507Y0321680D01*
X0056173Y0323288D01*
X0056173Y0325028D01*
X0055507Y0326636D01*
X0054277Y0327867D01*
X0053229Y0328301D01*
X0082798Y0357870D01*
X0097879Y0342790D01*
X0097146Y0342486D01*
X0096077Y0341417D01*
X0095498Y0340020D01*
X0095498Y0338509D01*
X0096077Y0337112D01*
X0096898Y0336291D01*
X0096898Y0315827D01*
X0096204Y0316115D01*
X0094693Y0316115D01*
X0093296Y0315536D01*
X0092227Y0314467D01*
X0091648Y0313070D01*
X0091648Y0311559D01*
X0092190Y0310251D01*
X0090910Y0308970D01*
X0090507Y0309943D01*
X0089277Y0311173D01*
X0087669Y0311839D01*
X0086118Y0311839D01*
X0075048Y0322909D01*
X0075048Y0324070D01*
X0074470Y0325467D01*
X0073401Y0326536D01*
X0072004Y0327115D01*
X0070493Y0327115D01*
X0069096Y0326536D01*
X0068027Y0325467D01*
X0067448Y0324070D01*
X0067448Y0322559D01*
X0068027Y0321162D01*
X0069096Y0320093D01*
X0070493Y0319515D01*
X0071654Y0319515D01*
X0082544Y0308625D01*
X0082424Y0308335D01*
X0082424Y0306594D01*
X0083090Y0304986D01*
X0084320Y0303756D01*
X0085293Y0303353D01*
X0084274Y0303803D02*
X0056173Y0303803D01*
X0056019Y0305401D02*
X0082918Y0305401D01*
X0082424Y0307000D02*
X0055144Y0307000D01*
X0053667Y0310197D02*
X0080972Y0310197D01*
X0082533Y0308598D02*
X0048898Y0308598D01*
X0048898Y0310197D02*
X0049930Y0310197D01*
X0044098Y0310197D02*
X0043667Y0310197D01*
X0044098Y0310375D02*
X0044098Y0307940D01*
X0042669Y0308533D01*
X0040928Y0308533D01*
X0039320Y0307867D01*
X0038090Y0306636D01*
X0037424Y0305028D01*
X0037424Y0303288D01*
X0038090Y0301680D01*
X0039320Y0300449D01*
X0040928Y0299783D01*
X0042669Y0299783D01*
X0044098Y0300375D01*
X0044098Y0297940D01*
X0042669Y0298533D01*
X0040928Y0298533D01*
X0039320Y0297867D01*
X0038090Y0296636D01*
X0037424Y0295028D01*
X0037424Y0293288D01*
X0038090Y0291680D01*
X0039320Y0290449D01*
X0040928Y0289783D01*
X0042669Y0289783D01*
X0044098Y0290375D01*
X0044098Y0287940D01*
X0042669Y0288533D01*
X0040928Y0288533D01*
X0039320Y0287867D01*
X0038090Y0286636D01*
X0037424Y0285028D01*
X0037424Y0283288D01*
X0038090Y0281680D01*
X0039030Y0280740D01*
X0037348Y0279059D01*
X0037348Y0322320D01*
X0037685Y0322657D01*
X0038090Y0321680D01*
X0039320Y0320449D01*
X0040928Y0319783D01*
X0042669Y0319783D01*
X0044098Y0320375D01*
X0044098Y0317940D01*
X0042669Y0318533D01*
X0040928Y0318533D01*
X0039320Y0317867D01*
X0038090Y0316636D01*
X0037424Y0315028D01*
X0037424Y0313288D01*
X0038090Y0311680D01*
X0039320Y0310449D01*
X0040928Y0309783D01*
X0042669Y0309783D01*
X0044098Y0310375D01*
X0044098Y0308598D02*
X0037348Y0308598D01*
X0037348Y0307000D02*
X0038453Y0307000D01*
X0037578Y0305401D02*
X0037348Y0305401D01*
X0037348Y0303803D02*
X0037424Y0303803D01*
X0037348Y0302204D02*
X0037872Y0302204D01*
X0037348Y0300606D02*
X0039164Y0300606D01*
X0037348Y0299007D02*
X0044098Y0299007D01*
X0048898Y0299007D02*
X0080947Y0299007D01*
X0082545Y0300606D02*
X0054433Y0300606D01*
X0055724Y0302204D02*
X0084144Y0302204D01*
X0079348Y0297409D02*
X0054735Y0297409D01*
X0055849Y0295810D02*
X0077750Y0295810D01*
X0076151Y0294212D02*
X0056173Y0294212D01*
X0055894Y0292613D02*
X0074553Y0292613D01*
X0072954Y0291015D02*
X0054842Y0291015D01*
X0054326Y0287817D02*
X0069757Y0287817D01*
X0068159Y0286219D02*
X0055680Y0286219D01*
X0056173Y0284620D02*
X0066560Y0284620D01*
X0064962Y0283022D02*
X0056063Y0283022D01*
X0054679Y0277465D02*
X0065676Y0277465D01*
X0066558Y0277830D01*
X0078661Y0289933D01*
X0078448Y0289420D01*
X0078448Y0288259D01*
X0055893Y0265704D01*
X0055507Y0266636D01*
X0054277Y0267867D01*
X0052669Y0268533D01*
X0050928Y0268533D01*
X0049320Y0267867D01*
X0048090Y0266636D01*
X0047424Y0265028D01*
X0047424Y0263288D01*
X0048090Y0261680D01*
X0048880Y0260890D01*
X0048864Y0260874D01*
X0045564Y0257574D01*
X0045273Y0256871D01*
X0044277Y0257867D01*
X0042669Y0258533D01*
X0040928Y0258533D01*
X0039548Y0257961D01*
X0039548Y0260355D01*
X0040928Y0259783D01*
X0042669Y0259783D01*
X0044277Y0260449D01*
X0045507Y0261680D01*
X0046173Y0263288D01*
X0046173Y0265028D01*
X0045507Y0266636D01*
X0044277Y0267867D01*
X0042669Y0268533D01*
X0040928Y0268533D01*
X0039548Y0267961D01*
X0039548Y0270355D01*
X0040928Y0269783D01*
X0042669Y0269783D01*
X0044277Y0270449D01*
X0045507Y0271680D01*
X0045625Y0271965D01*
X0046426Y0271965D01*
X0047308Y0272330D01*
X0047670Y0272692D01*
X0048090Y0271680D01*
X0049320Y0270449D01*
X0050928Y0269783D01*
X0052669Y0269783D01*
X0054277Y0270449D01*
X0055507Y0271680D01*
X0056173Y0273288D01*
X0056173Y0275028D01*
X0055507Y0276636D01*
X0054679Y0277465D01*
X0055511Y0276628D02*
X0066818Y0276628D01*
X0066954Y0278226D02*
X0068416Y0278226D01*
X0068553Y0279825D02*
X0070015Y0279825D01*
X0070151Y0281423D02*
X0071613Y0281423D01*
X0071750Y0283022D02*
X0073212Y0283022D01*
X0073348Y0284620D02*
X0074810Y0284620D01*
X0074947Y0286219D02*
X0076409Y0286219D01*
X0076545Y0287817D02*
X0078007Y0287817D01*
X0078144Y0289416D02*
X0078448Y0289416D01*
X0071356Y0289416D02*
X0048898Y0289416D01*
X0048898Y0287817D02*
X0049271Y0287817D01*
X0044098Y0289416D02*
X0037348Y0289416D01*
X0037348Y0291015D02*
X0038755Y0291015D01*
X0037703Y0292613D02*
X0037348Y0292613D01*
X0037348Y0294212D02*
X0037424Y0294212D01*
X0037348Y0295810D02*
X0037748Y0295810D01*
X0037348Y0297409D02*
X0038862Y0297409D01*
X0039271Y0287817D02*
X0037348Y0287817D01*
X0037348Y0286219D02*
X0037917Y0286219D01*
X0037424Y0284620D02*
X0037348Y0284620D01*
X0037348Y0283022D02*
X0037534Y0283022D01*
X0037348Y0281423D02*
X0038346Y0281423D01*
X0038115Y0279825D02*
X0037348Y0279825D01*
X0044711Y0277433D02*
X0045166Y0276977D01*
X0048980Y0280790D01*
X0048524Y0281246D01*
X0044711Y0277433D01*
X0045504Y0278226D02*
X0046416Y0278226D01*
X0047103Y0279825D02*
X0048015Y0279825D01*
X0048026Y0271832D02*
X0045571Y0271832D01*
X0043757Y0270234D02*
X0049840Y0270234D01*
X0048491Y0267037D02*
X0045106Y0267037D01*
X0046003Y0265438D02*
X0047594Y0265438D01*
X0047424Y0263840D02*
X0046173Y0263840D01*
X0045740Y0262241D02*
X0047857Y0262241D01*
X0048633Y0260643D02*
X0044470Y0260643D01*
X0047034Y0259044D02*
X0039548Y0259044D01*
X0044697Y0257446D02*
X0045511Y0257446D01*
X0045198Y0251371D02*
X0045198Y0246945D01*
X0044277Y0247867D01*
X0042669Y0248533D01*
X0040928Y0248533D01*
X0039548Y0247961D01*
X0039548Y0250355D01*
X0040928Y0249783D01*
X0042669Y0249783D01*
X0044277Y0250449D01*
X0045198Y0251371D01*
X0045198Y0251052D02*
X0044879Y0251052D01*
X0045198Y0249453D02*
X0039548Y0249453D01*
X0044288Y0247855D02*
X0045198Y0247855D01*
X0045198Y0241371D02*
X0045198Y0236945D01*
X0044277Y0237867D01*
X0042669Y0238533D01*
X0040928Y0238533D01*
X0039548Y0237961D01*
X0039548Y0240355D01*
X0040928Y0239783D01*
X0042669Y0239783D01*
X0044277Y0240449D01*
X0045198Y0241371D01*
X0045198Y0239862D02*
X0042860Y0239862D01*
X0043318Y0238264D02*
X0045198Y0238264D01*
X0040737Y0239862D02*
X0039548Y0239862D01*
X0039548Y0238264D02*
X0040279Y0238264D01*
X0049998Y0238264D02*
X0050279Y0238264D01*
X0049998Y0239862D02*
X0050737Y0239862D01*
X0055106Y0267037D02*
X0057227Y0267037D01*
X0058825Y0268635D02*
X0039548Y0268635D01*
X0039548Y0270234D02*
X0039840Y0270234D01*
X0053757Y0270234D02*
X0060424Y0270234D01*
X0062022Y0271832D02*
X0055571Y0271832D01*
X0056173Y0273431D02*
X0063621Y0273431D01*
X0065219Y0275029D02*
X0056173Y0275029D01*
X0049164Y0300606D02*
X0048898Y0300606D01*
X0055555Y0311795D02*
X0079374Y0311795D01*
X0077775Y0313394D02*
X0056173Y0313394D01*
X0056173Y0314992D02*
X0076177Y0314992D01*
X0074578Y0316591D02*
X0055526Y0316591D01*
X0053498Y0318189D02*
X0072980Y0318189D01*
X0069833Y0319788D02*
X0052680Y0319788D01*
X0050917Y0319788D02*
X0048898Y0319788D01*
X0048898Y0318189D02*
X0050099Y0318189D01*
X0044098Y0318189D02*
X0043498Y0318189D01*
X0044098Y0319788D02*
X0042680Y0319788D01*
X0040917Y0319788D02*
X0037348Y0319788D01*
X0037348Y0321386D02*
X0038383Y0321386D01*
X0037348Y0318189D02*
X0040099Y0318189D01*
X0038071Y0316591D02*
X0037348Y0316591D01*
X0037348Y0314992D02*
X0037424Y0314992D01*
X0037424Y0313394D02*
X0037348Y0313394D01*
X0037348Y0311795D02*
X0038042Y0311795D01*
X0037348Y0310197D02*
X0039930Y0310197D01*
X0045141Y0327002D02*
X0069554Y0351415D01*
X0068293Y0351415D01*
X0066984Y0351956D01*
X0043299Y0328271D01*
X0044277Y0327867D01*
X0045141Y0327002D01*
X0044363Y0327780D02*
X0045920Y0327780D01*
X0044407Y0329379D02*
X0047519Y0329379D01*
X0046005Y0330977D02*
X0049117Y0330977D01*
X0047604Y0332576D02*
X0050716Y0332576D01*
X0049202Y0334174D02*
X0052314Y0334174D01*
X0050801Y0335773D02*
X0053913Y0335773D01*
X0052399Y0337371D02*
X0055511Y0337371D01*
X0053998Y0338970D02*
X0057110Y0338970D01*
X0055596Y0340568D02*
X0058708Y0340568D01*
X0057195Y0342167D02*
X0060307Y0342167D01*
X0058793Y0343765D02*
X0061905Y0343765D01*
X0060392Y0345364D02*
X0063504Y0345364D01*
X0061990Y0346962D02*
X0065102Y0346962D01*
X0063589Y0348561D02*
X0066701Y0348561D01*
X0065187Y0350159D02*
X0068299Y0350159D01*
X0067464Y0351758D02*
X0066786Y0351758D01*
X0063195Y0354955D02*
X0059708Y0354955D01*
X0059620Y0355167D02*
X0058798Y0355989D01*
X0058798Y0366320D01*
X0075568Y0383090D01*
X0078277Y0383090D01*
X0078748Y0383561D01*
X0078748Y0360609D01*
X0072848Y0354709D01*
X0072848Y0355970D01*
X0072270Y0357367D01*
X0071201Y0358436D01*
X0069804Y0359015D01*
X0068293Y0359015D01*
X0066896Y0358436D01*
X0065865Y0357405D01*
X0065489Y0357249D01*
X0059986Y0351747D01*
X0060198Y0352259D01*
X0060198Y0353770D01*
X0059620Y0355167D01*
X0058798Y0356553D02*
X0064793Y0356553D01*
X0066612Y0358152D02*
X0058798Y0358152D01*
X0058798Y0359750D02*
X0077890Y0359750D01*
X0078748Y0361349D02*
X0058798Y0361349D01*
X0058798Y0362948D02*
X0078748Y0362948D01*
X0078748Y0364546D02*
X0058798Y0364546D01*
X0058798Y0366145D02*
X0078748Y0366145D01*
X0078748Y0367743D02*
X0060221Y0367743D01*
X0061820Y0369342D02*
X0078748Y0369342D01*
X0078748Y0370940D02*
X0063418Y0370940D01*
X0065017Y0372539D02*
X0078748Y0372539D01*
X0078748Y0374137D02*
X0066615Y0374137D01*
X0068214Y0375736D02*
X0078748Y0375736D01*
X0078748Y0377334D02*
X0069812Y0377334D01*
X0071411Y0378933D02*
X0078748Y0378933D01*
X0078748Y0380531D02*
X0073009Y0380531D01*
X0074608Y0382130D02*
X0078748Y0382130D01*
X0083548Y0383559D02*
X0083548Y0384194D01*
X0083698Y0384044D01*
X0083698Y0383709D01*
X0083548Y0383559D01*
X0083548Y0383728D02*
X0083698Y0383728D01*
X0088454Y0382130D02*
X0119519Y0382130D01*
X0117921Y0380531D02*
X0090356Y0380531D01*
X0090998Y0378933D02*
X0116322Y0378933D01*
X0114724Y0377334D02*
X0091573Y0377334D01*
X0093172Y0375736D02*
X0113125Y0375736D01*
X0111527Y0374137D02*
X0094770Y0374137D01*
X0096369Y0372539D02*
X0109928Y0372539D01*
X0108330Y0370940D02*
X0097967Y0370940D01*
X0101451Y0369342D02*
X0106731Y0369342D01*
X0110323Y0366145D02*
X0111784Y0366145D01*
X0112398Y0366759D02*
X0104964Y0359324D01*
X0104598Y0358442D01*
X0104598Y0342859D01*
X0104508Y0342949D01*
X0085748Y0361709D01*
X0085748Y0374802D01*
X0086443Y0374515D01*
X0087604Y0374515D01*
X0096598Y0365520D01*
X0096598Y0364909D01*
X0097177Y0363512D01*
X0098246Y0362443D01*
X0099643Y0361865D01*
X0101154Y0361865D01*
X0102551Y0362443D01*
X0103373Y0363265D01*
X0106926Y0363265D01*
X0107808Y0363630D01*
X0112398Y0368221D01*
X0112398Y0366759D01*
X0112398Y0367743D02*
X0111921Y0367743D01*
X0110186Y0364546D02*
X0108724Y0364546D01*
X0108587Y0362948D02*
X0103055Y0362948D01*
X0105390Y0359750D02*
X0087707Y0359750D01*
X0089305Y0358152D02*
X0104598Y0358152D01*
X0104598Y0356553D02*
X0090904Y0356553D01*
X0092502Y0354955D02*
X0104598Y0354955D01*
X0104598Y0353356D02*
X0094101Y0353356D01*
X0095699Y0351758D02*
X0104598Y0351758D01*
X0104598Y0350159D02*
X0097298Y0350159D01*
X0098896Y0348561D02*
X0104598Y0348561D01*
X0104598Y0346962D02*
X0100495Y0346962D01*
X0102093Y0345364D02*
X0104598Y0345364D01*
X0104598Y0343765D02*
X0103692Y0343765D01*
X0096904Y0343765D02*
X0068693Y0343765D01*
X0067095Y0342167D02*
X0096827Y0342167D01*
X0095725Y0340568D02*
X0065496Y0340568D01*
X0063898Y0338970D02*
X0095498Y0338970D01*
X0095970Y0337371D02*
X0062299Y0337371D01*
X0060701Y0335773D02*
X0096898Y0335773D01*
X0096898Y0334174D02*
X0059102Y0334174D01*
X0057504Y0332576D02*
X0096898Y0332576D01*
X0096898Y0330977D02*
X0055905Y0330977D01*
X0054307Y0329379D02*
X0096898Y0329379D01*
X0096898Y0327780D02*
X0054363Y0327780D01*
X0055695Y0326182D02*
X0068742Y0326182D01*
X0067661Y0324583D02*
X0056173Y0324583D01*
X0056048Y0322985D02*
X0067448Y0322985D01*
X0067934Y0321386D02*
X0055214Y0321386D01*
X0073755Y0326182D02*
X0096898Y0326182D01*
X0096898Y0324583D02*
X0074836Y0324583D01*
X0075048Y0322985D02*
X0096898Y0322985D01*
X0096898Y0321386D02*
X0076571Y0321386D01*
X0078169Y0319788D02*
X0096898Y0319788D01*
X0096898Y0318189D02*
X0079768Y0318189D01*
X0081366Y0316591D02*
X0096898Y0316591D01*
X0092752Y0314992D02*
X0082965Y0314992D01*
X0084564Y0313394D02*
X0091782Y0313394D01*
X0091648Y0311795D02*
X0087776Y0311795D01*
X0090253Y0310197D02*
X0092136Y0310197D01*
X0121320Y0314992D02*
X0124432Y0314992D01*
X0122919Y0316591D02*
X0126030Y0316591D01*
X0124517Y0318189D02*
X0127629Y0318189D01*
X0126116Y0319788D02*
X0129228Y0319788D01*
X0127714Y0321386D02*
X0130826Y0321386D01*
X0129313Y0322985D02*
X0132425Y0322985D01*
X0130911Y0324583D02*
X0134023Y0324583D01*
X0132510Y0326182D02*
X0135622Y0326182D01*
X0164789Y0348561D02*
X0169525Y0348561D01*
X0167791Y0350159D02*
X0166387Y0350159D01*
X0173193Y0366865D02*
X0182793Y0376465D01*
X0193604Y0376465D01*
X0180988Y0363848D01*
X0180529Y0364957D01*
X0179291Y0366195D01*
X0177674Y0366865D01*
X0173193Y0366865D01*
X0174071Y0367743D02*
X0184883Y0367743D01*
X0186481Y0369342D02*
X0175670Y0369342D01*
X0177268Y0370940D02*
X0188080Y0370940D01*
X0189678Y0372539D02*
X0178867Y0372539D01*
X0180465Y0374137D02*
X0191277Y0374137D01*
X0192875Y0375736D02*
X0182064Y0375736D01*
X0178472Y0378933D02*
X0123111Y0378933D01*
X0124709Y0380531D02*
X0180071Y0380531D01*
X0176874Y0377334D02*
X0121512Y0377334D01*
X0121118Y0383728D02*
X0098916Y0383728D01*
X0100514Y0385327D02*
X0122716Y0385327D01*
X0124315Y0386925D02*
X0100840Y0386925D01*
X0100840Y0388524D02*
X0125913Y0388524D01*
X0151091Y0383728D02*
X0153173Y0383728D01*
X0152757Y0385327D02*
X0151507Y0385327D01*
X0151507Y0386925D02*
X0152757Y0386925D01*
X0152757Y0388524D02*
X0151952Y0388524D01*
X0161507Y0388524D02*
X0162757Y0388524D01*
X0162757Y0386925D02*
X0161507Y0386925D01*
X0161507Y0385327D02*
X0162757Y0385327D01*
X0163173Y0383728D02*
X0161091Y0383728D01*
X0171091Y0383728D02*
X0215681Y0383728D01*
X0214083Y0385327D02*
X0171507Y0385327D01*
X0171507Y0386925D02*
X0171994Y0386925D01*
X0175093Y0390615D02*
X0173843Y0391865D01*
X0215678Y0391865D01*
X0214428Y0390615D01*
X0175093Y0390615D01*
X0173986Y0391721D02*
X0215534Y0391721D01*
X0241484Y0396516D02*
X0511998Y0396516D01*
X0511998Y0394918D02*
X0243389Y0394918D01*
X0244988Y0393319D02*
X0511998Y0393319D01*
X0511998Y0391721D02*
X0246555Y0391721D01*
X0246898Y0390122D02*
X0511998Y0390122D01*
X0511998Y0388524D02*
X0246898Y0388524D01*
X0246898Y0386925D02*
X0511998Y0386925D01*
X0511998Y0385327D02*
X0246898Y0385327D01*
X0246605Y0383728D02*
X0511998Y0383728D01*
X0511998Y0382130D02*
X0245108Y0382130D01*
X0243509Y0380531D02*
X0511998Y0380531D01*
X0511998Y0378933D02*
X0241911Y0378933D01*
X0268299Y0364546D02*
X0511998Y0364546D01*
X0511998Y0362948D02*
X0268798Y0362948D01*
X0268699Y0361349D02*
X0511998Y0361349D01*
X0511998Y0359750D02*
X0267907Y0359750D01*
X0265485Y0358152D02*
X0511998Y0358152D01*
X0511998Y0356553D02*
X0266025Y0356553D01*
X0268129Y0354955D02*
X0511998Y0354955D01*
X0511998Y0353356D02*
X0268792Y0353356D01*
X0268798Y0351758D02*
X0511998Y0351758D01*
X0511998Y0350159D02*
X0268206Y0350159D01*
X0266472Y0348561D02*
X0511998Y0348561D01*
X0511998Y0401312D02*
X0021598Y0401312D01*
X0021598Y0402910D02*
X0511998Y0402910D01*
X0511998Y0404509D02*
X0021598Y0404509D01*
X0021598Y0406107D02*
X0511998Y0406107D01*
X0511998Y0407706D02*
X0021598Y0407706D01*
X0021598Y0409304D02*
X0511998Y0409304D01*
X0511998Y0410903D02*
X0021598Y0410903D01*
X0021598Y0412501D02*
X0511998Y0412501D01*
X0511998Y0414100D02*
X0021598Y0414100D01*
X0021598Y0415698D02*
X0511998Y0415698D01*
X0511998Y0417297D02*
X0021598Y0417297D01*
X0021598Y0418895D02*
X0511998Y0418895D01*
X0511998Y0420494D02*
X0021598Y0420494D01*
X0021598Y0422092D02*
X0511998Y0422092D01*
X0511998Y0423691D02*
X0021598Y0423691D01*
X0021598Y0425289D02*
X0511998Y0425289D01*
X0511998Y0426888D02*
X0021598Y0426888D01*
X0021598Y0428486D02*
X0511998Y0428486D01*
X0511998Y0430085D02*
X0021598Y0430085D01*
X0021598Y0431684D02*
X0511998Y0431684D01*
X0511998Y0433282D02*
X0021598Y0433282D01*
X0021598Y0434881D02*
X0511998Y0434881D01*
X0511998Y0436479D02*
X0021598Y0436479D01*
X0021598Y0438078D02*
X0511998Y0438078D01*
X0511998Y0439676D02*
X0021598Y0439676D01*
X0021598Y0441275D02*
X0511998Y0441275D01*
X0511998Y0442873D02*
X0021598Y0442873D01*
X0021598Y0444472D02*
X0511998Y0444472D01*
X0511998Y0446070D02*
X0505438Y0446070D01*
X0509601Y0447669D02*
X0511998Y0447669D01*
X0511998Y0449267D02*
X0511938Y0449267D01*
X0499982Y0446070D02*
X0032997Y0446070D01*
X0037160Y0447669D02*
X0496213Y0447669D01*
X0494317Y0449267D02*
X0039497Y0449267D01*
X0040741Y0450866D02*
X0492671Y0450866D01*
X0491806Y0452464D02*
X0041985Y0452464D01*
X0042548Y0454063D02*
X0073680Y0454063D01*
X0072090Y0455661D02*
X0043097Y0455661D01*
X0043401Y0457260D02*
X0072090Y0457260D01*
X0072090Y0458858D02*
X0043401Y0458858D01*
X0043401Y0460457D02*
X0073270Y0460457D01*
X0076465Y0457465D02*
X0085421Y0466420D01*
X0138453Y0466420D01*
X0147132Y0457741D01*
X0147132Y0457465D01*
X0151507Y0457260D02*
X0152757Y0457260D01*
X0152757Y0458858D02*
X0151507Y0458858D01*
X0151507Y0460457D02*
X0152757Y0460457D01*
X0152757Y0460785D02*
X0152757Y0454144D01*
X0153811Y0453090D01*
X0160452Y0453090D01*
X0161507Y0454144D01*
X0161507Y0460785D01*
X0160452Y0461839D01*
X0153811Y0461839D01*
X0152757Y0460785D01*
X0152757Y0455661D02*
X0151507Y0455661D01*
X0151425Y0454063D02*
X0152839Y0454063D01*
X0161425Y0454063D02*
X0162839Y0454063D01*
X0162757Y0454144D02*
X0163811Y0453090D01*
X0170452Y0453090D01*
X0171507Y0454144D01*
X0171507Y0460785D01*
X0170452Y0461839D01*
X0163811Y0461839D01*
X0162757Y0460785D01*
X0162757Y0454144D01*
X0162757Y0455661D02*
X0161507Y0455661D01*
X0161507Y0457260D02*
X0162757Y0457260D01*
X0162757Y0458858D02*
X0161507Y0458858D01*
X0161507Y0460457D02*
X0162757Y0460457D01*
X0171507Y0460457D02*
X0211066Y0460457D01*
X0209467Y0462055D02*
X0146495Y0462055D01*
X0144896Y0463654D02*
X0207869Y0463654D01*
X0208779Y0466420D02*
X0138453Y0466420D01*
X0137543Y0463654D02*
X0086331Y0463654D01*
X0084733Y0462055D02*
X0139141Y0462055D01*
X0140740Y0460457D02*
X0099660Y0460457D01*
X0100840Y0459277D02*
X0098277Y0461839D01*
X0094653Y0461839D01*
X0092090Y0459277D01*
X0092090Y0455652D01*
X0094653Y0453090D01*
X0098277Y0453090D01*
X0100840Y0455652D01*
X0100840Y0459277D01*
X0100840Y0458858D02*
X0142338Y0458858D01*
X0142757Y0457260D02*
X0100840Y0457260D01*
X0100840Y0455661D02*
X0142757Y0455661D01*
X0142839Y0454063D02*
X0099250Y0454063D01*
X0093680Y0454063D02*
X0089250Y0454063D01*
X0088277Y0453090D02*
X0090840Y0455652D01*
X0090840Y0459277D01*
X0088277Y0461839D01*
X0084653Y0461839D01*
X0082090Y0459277D01*
X0082090Y0455652D01*
X0084653Y0453090D01*
X0088277Y0453090D01*
X0090840Y0455661D02*
X0092090Y0455661D01*
X0092090Y0457260D02*
X0090840Y0457260D01*
X0090840Y0458858D02*
X0092090Y0458858D01*
X0093270Y0460457D02*
X0089660Y0460457D01*
X0083270Y0460457D02*
X0083134Y0460457D01*
X0082090Y0458858D02*
X0081536Y0458858D01*
X0082090Y0457260D02*
X0080840Y0457260D01*
X0080840Y0455661D02*
X0082090Y0455661D01*
X0083680Y0454063D02*
X0079250Y0454063D01*
X0077379Y0462055D02*
X0042978Y0462055D01*
X0042430Y0463654D02*
X0078977Y0463654D01*
X0080576Y0465252D02*
X0041716Y0465252D01*
X0040471Y0466851D02*
X0082174Y0466851D01*
X0027541Y0446070D02*
X0021598Y0446070D01*
X0021598Y0447669D02*
X0023772Y0447669D01*
X0021876Y0449267D02*
X0021598Y0449267D01*
X0001800Y0479639D02*
X0537413Y0479639D01*
X0537413Y0481237D02*
X0001800Y0481237D01*
X0001800Y0482836D02*
X0537413Y0482836D01*
X0537413Y0484434D02*
X0001800Y0484434D01*
X0001800Y0486033D02*
X0537413Y0486033D01*
X0492957Y0466851D02*
X0212026Y0466851D01*
X0213624Y0465252D02*
X0491993Y0465252D01*
X0491128Y0463654D02*
X0215223Y0463654D01*
X0219728Y0462055D02*
X0225869Y0462055D01*
X0225986Y0462173D02*
X0223424Y0459610D01*
X0223424Y0455986D01*
X0225986Y0453423D01*
X0229610Y0453423D01*
X0232173Y0455986D01*
X0232173Y0459610D01*
X0229610Y0462173D01*
X0225986Y0462173D01*
X0224270Y0460457D02*
X0221326Y0460457D01*
X0222173Y0458858D02*
X0223424Y0458858D01*
X0223424Y0457260D02*
X0222173Y0457260D01*
X0221849Y0455661D02*
X0223748Y0455661D01*
X0225347Y0454063D02*
X0220250Y0454063D01*
X0217798Y0457798D02*
X0217402Y0457798D01*
X0208779Y0466420D01*
X0212664Y0458858D02*
X0171507Y0458858D01*
X0171507Y0457260D02*
X0213424Y0457260D01*
X0213748Y0455661D02*
X0171507Y0455661D01*
X0171425Y0454063D02*
X0215347Y0454063D01*
X0230250Y0454063D02*
X0235347Y0454063D01*
X0235986Y0453423D02*
X0239610Y0453423D01*
X0242173Y0455986D01*
X0242173Y0459610D01*
X0239610Y0462173D01*
X0235986Y0462173D01*
X0233424Y0459610D01*
X0233424Y0455986D01*
X0235986Y0453423D01*
X0233748Y0455661D02*
X0231849Y0455661D01*
X0232173Y0457260D02*
X0233424Y0457260D01*
X0233424Y0458858D02*
X0232173Y0458858D01*
X0231326Y0460457D02*
X0234270Y0460457D01*
X0235869Y0462055D02*
X0229728Y0462055D01*
X0239728Y0462055D02*
X0490581Y0462055D01*
X0490315Y0460457D02*
X0241326Y0460457D01*
X0242173Y0458858D02*
X0490048Y0458858D01*
X0490257Y0457260D02*
X0242173Y0457260D01*
X0241849Y0455661D02*
X0490524Y0455661D01*
X0490941Y0454063D02*
X0240250Y0454063D01*
X0183284Y0366145D02*
X0179341Y0366145D01*
X0180699Y0364546D02*
X0181686Y0364546D01*
X0214997Y0334174D02*
X0241734Y0334174D01*
X0229251Y0321386D02*
X0287527Y0321386D01*
X0287099Y0319788D02*
X0230100Y0319788D01*
X0230148Y0318189D02*
X0286998Y0318189D01*
X0286998Y0316591D02*
X0229399Y0316591D01*
X0225820Y0314992D02*
X0286998Y0314992D01*
X0286998Y0313394D02*
X0224222Y0313394D01*
X0222623Y0311795D02*
X0286998Y0311795D01*
X0286998Y0310197D02*
X0221025Y0310197D01*
X0219426Y0308598D02*
X0286998Y0308598D01*
X0286998Y0307000D02*
X0217828Y0307000D01*
X0216229Y0305401D02*
X0286998Y0305401D01*
X0286998Y0303803D02*
X0214631Y0303803D01*
X0213032Y0302204D02*
X0286998Y0302204D01*
X0286998Y0300606D02*
X0211434Y0300606D01*
X0209835Y0299007D02*
X0286998Y0299007D01*
X0286998Y0297409D02*
X0208237Y0297409D01*
X0206638Y0295810D02*
X0286998Y0295810D01*
X0286998Y0294212D02*
X0205040Y0294212D01*
X0205847Y0286219D02*
X0247620Y0286219D01*
X0205129Y0313394D02*
X0191772Y0313394D01*
X0193370Y0314992D02*
X0203060Y0314992D01*
X0202398Y0316591D02*
X0194969Y0316591D01*
X0196567Y0318189D02*
X0202398Y0318189D01*
X0202998Y0319788D02*
X0198166Y0319788D01*
X0199764Y0321386D02*
X0204768Y0321386D01*
X0203457Y0324583D02*
X0202961Y0324583D01*
X0201363Y0322985D02*
X0287956Y0322985D01*
X0219454Y0354465D02*
X0218814Y0353824D01*
X0216271Y0351281D01*
X0216398Y0351589D01*
X0216398Y0353340D01*
X0215933Y0354465D01*
X0219454Y0354465D01*
X0218346Y0353356D02*
X0216392Y0353356D01*
X0216398Y0351758D02*
X0216748Y0351758D01*
X0114092Y0361349D02*
X0113777Y0361349D01*
X0106989Y0361349D02*
X0086108Y0361349D01*
X0085748Y0362948D02*
X0097742Y0362948D01*
X0096749Y0364546D02*
X0085748Y0364546D01*
X0085748Y0366145D02*
X0095974Y0366145D01*
X0094376Y0367743D02*
X0085748Y0367743D01*
X0085748Y0369342D02*
X0092777Y0369342D01*
X0091179Y0370940D02*
X0085748Y0370940D01*
X0085748Y0372539D02*
X0089580Y0372539D01*
X0087982Y0374137D02*
X0085748Y0374137D01*
X0088916Y0383728D02*
X0094015Y0383728D01*
X0092416Y0385327D02*
X0090514Y0385327D01*
X0090840Y0386925D02*
X0092090Y0386925D01*
X0092090Y0388524D02*
X0090840Y0388524D01*
X0083054Y0393515D02*
X0082964Y0393424D01*
X0079828Y0390288D01*
X0078277Y0391839D01*
X0078267Y0391839D01*
X0079943Y0393515D01*
X0083054Y0393515D01*
X0082964Y0393424D02*
X0082964Y0393424D01*
X0082859Y0393319D02*
X0079747Y0393319D01*
X0078396Y0391721D02*
X0081261Y0391721D01*
X0076292Y0358152D02*
X0071485Y0358152D01*
X0072607Y0356553D02*
X0074693Y0356553D01*
X0073095Y0354955D02*
X0072848Y0354955D01*
X0076686Y0351758D02*
X0088911Y0351758D01*
X0087313Y0353356D02*
X0078284Y0353356D01*
X0079883Y0354955D02*
X0085714Y0354955D01*
X0084116Y0356553D02*
X0081481Y0356553D01*
X0075087Y0350159D02*
X0090510Y0350159D01*
X0092108Y0348561D02*
X0073489Y0348561D01*
X0071890Y0346962D02*
X0093707Y0346962D01*
X0095305Y0345364D02*
X0070292Y0345364D01*
X0061596Y0353356D02*
X0060198Y0353356D01*
X0059998Y0351758D02*
X0059991Y0351758D01*
X0190740Y0225476D02*
X0317857Y0225476D01*
X0316259Y0227074D02*
X0192338Y0227074D01*
X0193937Y0228673D02*
X0314660Y0228673D01*
X0313062Y0230271D02*
X0195535Y0230271D01*
X0197134Y0231870D02*
X0311463Y0231870D01*
X0309865Y0233468D02*
X0198732Y0233468D01*
X0200331Y0235067D02*
X0308266Y0235067D01*
X0306668Y0236665D02*
X0201929Y0236665D01*
X0203528Y0238264D02*
X0305069Y0238264D01*
X0303471Y0239862D02*
X0205126Y0239862D01*
X0206725Y0241461D02*
X0301872Y0241461D01*
X0300274Y0243059D02*
X0208323Y0243059D01*
X0209922Y0244658D02*
X0298675Y0244658D01*
X0297077Y0246256D02*
X0211520Y0246256D01*
X0376598Y0268635D02*
X0407122Y0268635D01*
X0407030Y0268413D02*
X0407030Y0266516D01*
X0407756Y0264763D01*
X0409097Y0263422D01*
X0410850Y0262696D01*
X0412747Y0262696D01*
X0414500Y0263422D01*
X0415841Y0264763D01*
X0416567Y0266516D01*
X0416567Y0268413D01*
X0415841Y0270166D01*
X0414500Y0271507D01*
X0412747Y0272233D01*
X0410850Y0272233D01*
X0409097Y0271507D01*
X0407756Y0270166D01*
X0407030Y0268413D01*
X0407030Y0267037D02*
X0378157Y0267037D01*
X0379755Y0265438D02*
X0407476Y0265438D01*
X0408680Y0263840D02*
X0381354Y0263840D01*
X0376598Y0270234D02*
X0407824Y0270234D01*
X0409883Y0271832D02*
X0376598Y0271832D01*
X0413714Y0271832D02*
X0439883Y0271832D01*
X0437824Y0270234D02*
X0415773Y0270234D01*
X0416475Y0268635D02*
X0437122Y0268635D01*
X0437030Y0267037D02*
X0416567Y0267037D01*
X0416121Y0265438D02*
X0437476Y0265438D01*
X0438680Y0263840D02*
X0414917Y0263840D01*
X0509194Y0148747D02*
X0511998Y0148747D01*
X0511998Y0147148D02*
X0511641Y0147148D01*
X0230475Y0064026D02*
X0124307Y0064026D01*
X0039698Y0208023D02*
X0039548Y0207961D01*
X0039548Y0210355D01*
X0040359Y0210019D01*
X0040064Y0209724D01*
X0039698Y0208842D01*
X0039698Y0208023D01*
X0039548Y0209490D02*
X0039967Y0209490D01*
M02*
