G75*
%MOIN*%
%OFA0B0*%
%FSLAX25Y25*%
%IPPOS*%
%LPD*%
%AMOC8*
5,1,8,0,0,1.08239X$1,22.5*
%
%ADD10C,0.11824*%
%ADD11C,0.06000*%
%ADD12C,0.23300*%
%ADD13C,0.07250*%
%ADD14C,0.05950*%
%ADD15C,0.06737*%
%ADD16C,0.06737*%
%ADD17OC8,0.05950*%
%ADD18R,0.05950X0.05950*%
%ADD19C,0.13800*%
%ADD20C,0.06800*%
%ADD21C,0.11450*%
%ADD22C,0.14200*%
%ADD23C,0.04800*%
D10*
X0030578Y0092465D03*
X0030578Y0458685D03*
X0503019Y0458685D03*
X0503019Y0137465D03*
D11*
X0264398Y0352465D02*
X0259198Y0352465D01*
X0259198Y0362465D02*
X0264398Y0362465D01*
X0264398Y0372465D02*
X0259198Y0372465D01*
X0239398Y0372465D02*
X0234198Y0372465D01*
X0234198Y0362465D02*
X0239398Y0362465D01*
X0239398Y0352465D02*
X0234198Y0352465D01*
X0211998Y0352465D02*
X0206798Y0352465D01*
X0206798Y0362465D02*
X0211998Y0362465D01*
X0176798Y0362465D02*
X0171598Y0362465D01*
X0171598Y0352465D02*
X0176798Y0352465D01*
X0176798Y0327465D02*
X0171598Y0327465D01*
X0171598Y0317465D02*
X0176798Y0317465D01*
X0206798Y0317465D02*
X0211998Y0317465D01*
X0211998Y0327465D02*
X0206798Y0327465D01*
X0136798Y0339865D02*
X0136798Y0345065D01*
X0126798Y0345065D02*
X0126798Y0339865D01*
X0116798Y0339865D02*
X0116798Y0345065D01*
X0116798Y0364865D02*
X0116798Y0370065D01*
X0126798Y0370065D02*
X0126798Y0364865D01*
X0136798Y0364865D02*
X0136798Y0370065D01*
D12*
X0176798Y0232465D03*
X0186798Y0162465D03*
X0331798Y0232465D03*
X0331798Y0297465D03*
X0301798Y0297465D03*
X0361798Y0297465D03*
X0341798Y0162465D03*
D13*
X0281798Y0177465D03*
X0281798Y0217465D03*
X0126798Y0217465D03*
X0126798Y0177465D03*
D14*
X0051798Y0174158D03*
X0041798Y0174158D03*
X0041798Y0184158D03*
X0041798Y0194158D03*
X0041798Y0204158D03*
X0041798Y0214158D03*
X0041798Y0224158D03*
X0041798Y0234158D03*
X0041798Y0244158D03*
X0041798Y0254158D03*
X0041798Y0264158D03*
X0051798Y0264158D03*
X0051798Y0254158D03*
X0051798Y0244158D03*
X0051798Y0234158D03*
X0051798Y0224158D03*
X0051798Y0214158D03*
X0051798Y0204158D03*
X0051798Y0194158D03*
X0051798Y0184158D03*
X0051798Y0164158D03*
X0041798Y0164158D03*
X0041798Y0154158D03*
X0041798Y0144158D03*
X0041798Y0134158D03*
X0051798Y0134158D03*
X0051798Y0144158D03*
X0051798Y0154158D03*
X0051798Y0274158D03*
X0041798Y0274158D03*
X0041798Y0284158D03*
X0041798Y0294158D03*
X0041798Y0304158D03*
X0041798Y0314158D03*
X0041798Y0324158D03*
X0051798Y0324158D03*
X0051798Y0314158D03*
X0051798Y0304158D03*
X0051798Y0294158D03*
X0051798Y0284158D03*
X0086798Y0307465D03*
X0106798Y0307465D03*
X0131798Y0287465D03*
X0151798Y0287465D03*
D15*
X0411798Y0267465D03*
X0441798Y0267465D03*
X0411798Y0157465D03*
X0471798Y0157465D03*
D16*
X0044767Y0357465D02*
X0038830Y0357465D01*
X0038830Y0367465D02*
X0044767Y0367465D01*
D17*
X0076465Y0387465D03*
X0086465Y0387465D03*
X0096465Y0387465D03*
X0096465Y0457465D03*
X0086465Y0457465D03*
X0076465Y0457465D03*
X0217798Y0457798D03*
X0227798Y0457798D03*
X0237798Y0457798D03*
X0237798Y0387798D03*
X0227798Y0387798D03*
X0217798Y0387798D03*
D18*
X0167132Y0387465D03*
X0157132Y0387465D03*
X0147132Y0387465D03*
X0147132Y0457465D03*
X0157132Y0457465D03*
X0167132Y0457465D03*
D19*
X0026298Y0035606D03*
X0083298Y0035606D03*
D20*
X0071298Y0046606D03*
X0071298Y0056606D03*
X0063048Y0056606D03*
X0054798Y0056606D03*
X0046548Y0056606D03*
X0038298Y0056606D03*
X0038298Y0046606D03*
X0051798Y0046606D03*
X0059798Y0046606D03*
D21*
X0169239Y0113803D03*
X0196798Y0113803D03*
X0224358Y0113803D03*
X0379239Y0113803D03*
X0406798Y0113803D03*
X0434358Y0113803D03*
D22*
X0485539Y0054354D03*
X0328058Y0054354D03*
X0275539Y0054354D03*
X0118058Y0054354D03*
D23*
X0075648Y0093965D03*
X0063548Y0110465D03*
X0056398Y0190765D03*
X0086098Y0207265D03*
X0089948Y0203415D03*
X0111398Y0203415D03*
X0118548Y0207265D03*
X0162548Y0255115D03*
X0226898Y0278765D03*
X0250548Y0288665D03*
X0226348Y0318915D03*
X0243948Y0331015D03*
X0131748Y0348065D03*
X0127348Y0359065D03*
X0116898Y0333765D03*
X0099298Y0339265D03*
X0100398Y0365665D03*
X0087198Y0378315D03*
X0069048Y0355215D03*
X0056398Y0353015D03*
X0071248Y0323315D03*
X0095448Y0312315D03*
X0082248Y0288665D03*
X0132848Y0395915D03*
M02*
