%
M48
M72
T01C0.0236
T02C0.0240
T03C0.0315
T04C0.0320
T05C0.0394
T06C0.0400
T07C0.0430
T08C0.0710
T09C0.0780
T10C0.0810
T11C0.0900
T12C0.1102
T13C0.1340
%
T01
X14745Y33710
X6779Y35410
X9446Y41476
T02
X9930Y37121
X13555Y35246
X15555Y34121
X16305Y32121
X14930Y30121
X9930Y29621
X19055Y34871
X22305Y31871
X25055Y32996
X22680Y35746
X24430Y28871
X17430Y21121
X7805Y19871
X8305Y9496
X4555Y6621
X36430Y34496
T03
X23744Y38776
X22744Y38776
X21744Y38776
X16712Y38809
X15712Y38809
X14712Y38809
X9679Y38776
X8679Y38776
X7679Y38776
X5180Y32416
X4180Y32416
X4180Y31416
X5180Y31416
X5180Y30416
X4180Y30416
X4180Y29416
X5180Y29416
X5180Y28416
X4180Y28416
X4180Y27416
X5180Y27416
X5180Y26416
X4180Y26416
X4180Y25416
X5180Y25416
X5180Y24416
X4180Y24416
X4180Y23416
X5180Y23416
X5180Y22416
X4180Y22416
X4180Y21416
X5180Y21416
X5180Y20416
X4180Y20416
X4180Y19416
X5180Y19416
X5180Y18416
X4180Y18416
X4180Y17416
X5180Y17416
X5180Y16416
X4180Y16416
X4180Y15416
X5180Y15416
X5180Y14416
X4180Y14416
X4180Y13416
X5180Y13416
X13180Y28746
X15180Y28746
X10680Y30746
X8680Y30746
X8679Y45776
X9679Y45776
X7679Y45776
X14712Y45809
X15712Y45809
X16712Y45809
X21744Y45776
X22744Y45776
X23744Y45776
T04
X23680Y37246
X23680Y36246
X23680Y35246
X26180Y35246
X26180Y36246
X26180Y37246
X20680Y36246
X20680Y35246
X20680Y32746
X20680Y31746
X17680Y31746
X17680Y32746
X17680Y35246
X17680Y36246
X13680Y36746
X12680Y36746
X11680Y36746
X11680Y34246
X12680Y34246
X13680Y34246
T05
X4180Y35746
X4180Y36746
X41180Y26746
X44180Y26746
X47180Y15746
X41180Y15746
T06
X7130Y5661
X6305Y5661
X5480Y5661
X4655Y5661
X3830Y5661
X3830Y4661
X5180Y4661
X5980Y4661
X7130Y4661
T07
X12680Y17746
X12680Y21746
X28180Y21746
X28180Y17746
T08
X22436Y11380
X19680Y11380
X16924Y11380
X37924Y11380
X40680Y11380
X43436Y11380
T09
X33180Y23246
X17680Y23246
T10
X18680Y16246
X34180Y16246
T11
X2630Y3561
X8330Y3561
X30180Y29746
X33180Y29746
X36180Y29746
T12
X50302Y13746
X50302Y45869
X3058Y45869
X3058Y9246
T13
X11806Y5435
X27554Y5435
X32806Y5435
X48554Y5435
M30
