G75*
%MOIN*%
%OFA0B0*%
%FSLAX25Y25*%
%IPPOS*%
%LPD*%
%AMOC8*
5,1,8,0,0,1.08239X$1,22.5*
%
%ADD10C,0.11824*%
%ADD11R,0.05918X0.06706*%
%ADD12C,0.06000*%
%ADD13C,0.05950*%
%ADD14C,0.06737*%
%ADD15C,0.06737*%
%ADD16R,0.05524X0.02375*%
%ADD17R,0.05131X0.06312*%
%ADD18R,0.06312X0.05131*%
%ADD19C,0.13800*%
%ADD20C,0.06800*%
%ADD21C,0.11450*%
%ADD22C,0.14200*%
%ADD23OC8,0.05950*%
%ADD24C,0.11430*%
%ADD25C,0.14580*%
%ADD26C,0.07250*%
%ADD27C,0.12500*%
%ADD28C,0.12900*%
%ADD29C,0.11627*%
%ADD30R,0.05162X0.05162*%
%ADD31C,0.05162*%
%ADD32C,0.04800*%
D10*
X0030578Y0102465D03*
X0713019Y0102465D03*
X0713019Y0297465D03*
D11*
X0503777Y0296799D03*
X0497084Y0296799D03*
X0497057Y0279742D03*
X0503750Y0279742D03*
X0348809Y0302413D03*
X0342116Y0302413D03*
X0323812Y0298416D03*
X0317119Y0298416D03*
X0299811Y0280417D03*
X0293118Y0280417D03*
X0310449Y0224754D03*
X0317142Y0224754D03*
D12*
X0306061Y0240809D02*
X0300861Y0240809D01*
X0300861Y0250809D02*
X0306061Y0250809D01*
X0306061Y0260809D02*
X0300861Y0260809D01*
X0329522Y0260809D02*
X0334722Y0260809D01*
X0334722Y0250809D02*
X0329522Y0250809D01*
X0329522Y0240809D02*
X0334722Y0240809D01*
X0364579Y0284138D02*
X0369779Y0284138D01*
X0369779Y0294138D02*
X0364579Y0294138D01*
X0399779Y0294138D02*
X0404979Y0294138D01*
X0404979Y0284138D02*
X0399779Y0284138D01*
X0426573Y0283468D02*
X0431773Y0283468D01*
X0431773Y0293468D02*
X0426573Y0293468D01*
X0461773Y0293468D02*
X0466973Y0293468D01*
X0466973Y0283468D02*
X0461773Y0283468D01*
X0536178Y0288427D02*
X0541378Y0288427D01*
X0541378Y0278427D02*
X0536178Y0278427D01*
X0570511Y0278094D02*
X0575711Y0278094D01*
X0575711Y0288094D02*
X0570511Y0288094D01*
X0570511Y0298094D02*
X0575711Y0298094D01*
X0541378Y0298427D02*
X0536178Y0298427D01*
D13*
X0622058Y0274746D03*
X0642058Y0274746D03*
X0643060Y0288743D03*
X0663060Y0288743D03*
D14*
X0674442Y0243134D03*
X0644442Y0243134D03*
X0644442Y0133134D03*
X0704442Y0133134D03*
D15*
X0063432Y0096762D02*
X0063432Y0090825D01*
X0053432Y0090825D02*
X0053432Y0096762D01*
D16*
X0057618Y0240518D03*
X0057618Y0243077D03*
X0057618Y0245636D03*
X0057618Y0248195D03*
X0057618Y0250754D03*
X0057618Y0253313D03*
X0057618Y0255873D03*
X0057618Y0258432D03*
X0080649Y0258432D03*
X0080649Y0255873D03*
X0080649Y0253313D03*
X0080649Y0250754D03*
X0080649Y0248195D03*
X0080649Y0245636D03*
X0080649Y0243077D03*
X0080649Y0240518D03*
D17*
X0292180Y0297805D03*
X0300054Y0297805D03*
X0328483Y0282406D03*
X0336357Y0282406D03*
D18*
X0063133Y0074410D03*
X0063133Y0066536D03*
D19*
X0026298Y0035606D03*
X0083298Y0035606D03*
D20*
X0071298Y0046606D03*
X0059798Y0046606D03*
X0051798Y0046606D03*
X0038298Y0046606D03*
X0038298Y0056606D03*
X0046548Y0056606D03*
X0054798Y0056606D03*
X0063048Y0056606D03*
X0071298Y0056606D03*
D21*
X0169239Y0113803D03*
X0196798Y0113803D03*
X0224358Y0113803D03*
X0379239Y0113803D03*
X0406798Y0113803D03*
X0434358Y0113803D03*
D22*
X0485539Y0054354D03*
X0328058Y0054354D03*
X0275539Y0054354D03*
X0118058Y0054354D03*
D23*
X0081126Y0125784D03*
X0071126Y0125784D03*
X0061126Y0125784D03*
X0127453Y0164114D03*
X0137453Y0164114D03*
X0147453Y0164114D03*
X0193780Y0194111D03*
X0203780Y0194111D03*
X0213780Y0194111D03*
X0147453Y0234114D03*
X0137453Y0234114D03*
X0127453Y0234114D03*
X0193780Y0264111D03*
X0203780Y0264111D03*
X0213780Y0264111D03*
X0081126Y0195784D03*
X0071126Y0195784D03*
X0061126Y0195784D03*
D24*
X0589239Y0082665D03*
X0616798Y0082665D03*
X0644358Y0082665D03*
D25*
X0694554Y0053924D03*
X0539043Y0053924D03*
D26*
X0521075Y0182450D03*
X0521075Y0222450D03*
X0381423Y0236115D03*
X0381423Y0196115D03*
D27*
X0431423Y0251115D03*
X0571075Y0237450D03*
D28*
X0441423Y0181115D03*
X0581075Y0167450D03*
D29*
X0258924Y0206913D03*
X0258924Y0297465D03*
X0030578Y0297465D03*
X0030578Y0206913D03*
D30*
X0239751Y0292465D03*
D31*
X0229751Y0292465D03*
X0219751Y0292465D03*
X0209751Y0292465D03*
X0199751Y0292465D03*
X0189751Y0292465D03*
X0179751Y0292465D03*
X0169751Y0292465D03*
X0159751Y0292465D03*
X0149751Y0292465D03*
X0139751Y0292465D03*
X0129751Y0292465D03*
X0119751Y0292465D03*
X0109751Y0292465D03*
X0099751Y0292465D03*
X0089751Y0292465D03*
X0079751Y0292465D03*
X0069751Y0292465D03*
X0059751Y0292465D03*
X0049751Y0292465D03*
X0049751Y0302465D03*
X0059751Y0302465D03*
X0069751Y0302465D03*
X0079751Y0302465D03*
X0089751Y0302465D03*
X0099751Y0302465D03*
X0109751Y0302465D03*
X0119751Y0302465D03*
X0129751Y0302465D03*
X0139751Y0302465D03*
X0149751Y0302465D03*
X0159751Y0302465D03*
X0169751Y0302465D03*
X0179751Y0302465D03*
X0189751Y0302465D03*
X0199751Y0302465D03*
X0209751Y0302465D03*
X0219751Y0302465D03*
X0229751Y0302465D03*
X0239751Y0302465D03*
D32*
X0280105Y0270773D03*
X0139120Y0283105D03*
X0101123Y0263441D03*
X0120788Y0262107D03*
X0121455Y0253441D03*
X0136787Y0261774D03*
X0080792Y0276439D03*
X0066460Y0261107D03*
X0028797Y0258441D03*
X0022465Y0240776D03*
X0074459Y0231444D03*
X0074459Y0221111D03*
X0096124Y0214112D03*
X0125454Y0175449D03*
X0113789Y0174783D03*
X0089125Y0158451D03*
X0120455Y0145119D03*
X0089125Y0115455D03*
X0147452Y0099790D03*
X0072793Y0074459D03*
X0166784Y0061127D03*
X0369430Y0149119D03*
X0477752Y0299770D03*
M02*
