G75*
%MOIN*%
%OFA0B0*%
%FSLAX25Y25*%
%IPPOS*%
%LPD*%
%AMOC8*
5,1,8,0,0,1.08239X$1,22.5*
%
%ADD10C,0.05200*%
%ADD11C,0.05150*%
%ADD12C,0.05937*%
%ADD13C,0.05937*%
%ADD14C,0.13000*%
%ADD15C,0.06000*%
%ADD16C,0.10650*%
%ADD17OC8,0.05150*%
%ADD18C,0.10630*%
%ADD19C,0.06450*%
%ADD20C,0.11700*%
%ADD21C,0.12100*%
%ADD22R,0.04362X0.04362*%
%ADD23C,0.04362*%
%ADD24C,0.01200*%
%ADD25C,0.04000*%
%ADD26C,0.24000*%
%ADD27C,0.01600*%
D10*
X0300861Y0240809D02*
X0306061Y0240809D01*
X0306061Y0250809D02*
X0300861Y0250809D01*
X0300861Y0260809D02*
X0306061Y0260809D01*
X0329522Y0260809D02*
X0334722Y0260809D01*
X0334722Y0250809D02*
X0329522Y0250809D01*
X0329522Y0240809D02*
X0334722Y0240809D01*
X0364579Y0284138D02*
X0369779Y0284138D01*
X0369779Y0294138D02*
X0364579Y0294138D01*
X0399779Y0294138D02*
X0404979Y0294138D01*
X0404979Y0284138D02*
X0399779Y0284138D01*
X0426573Y0283468D02*
X0431773Y0283468D01*
X0431773Y0293468D02*
X0426573Y0293468D01*
X0461773Y0293468D02*
X0466973Y0293468D01*
X0466973Y0283468D02*
X0461773Y0283468D01*
X0536178Y0288427D02*
X0541378Y0288427D01*
X0541378Y0278427D02*
X0536178Y0278427D01*
X0570511Y0278094D02*
X0575711Y0278094D01*
X0575711Y0288094D02*
X0570511Y0288094D01*
X0570511Y0298094D02*
X0575711Y0298094D01*
X0541378Y0298427D02*
X0536178Y0298427D01*
D11*
X0622058Y0274746D03*
X0642058Y0274746D03*
X0643060Y0288743D03*
X0663060Y0288743D03*
D12*
X0674442Y0243134D03*
X0644442Y0243134D03*
X0644442Y0133134D03*
X0704442Y0133134D03*
D13*
X0063432Y0096762D02*
X0063432Y0090825D01*
X0053432Y0090825D02*
X0053432Y0096762D01*
D14*
X0026298Y0035606D03*
X0083298Y0035606D03*
D15*
X0071298Y0046606D03*
X0059798Y0046606D03*
X0051798Y0046606D03*
X0038298Y0046606D03*
X0038298Y0056606D03*
X0046548Y0056606D03*
X0054798Y0056606D03*
X0063048Y0056606D03*
X0071298Y0056606D03*
D16*
X0169239Y0113803D03*
X0196798Y0113803D03*
X0224358Y0113803D03*
X0379239Y0113803D03*
X0406798Y0113803D03*
X0434358Y0113803D03*
D17*
X0213780Y0194111D03*
X0203780Y0194111D03*
X0193780Y0194111D03*
X0147453Y0164114D03*
X0137453Y0164114D03*
X0127453Y0164114D03*
X0081126Y0195784D03*
X0071126Y0195784D03*
X0061126Y0195784D03*
X0127453Y0234114D03*
X0137453Y0234114D03*
X0147453Y0234114D03*
X0193780Y0264111D03*
X0203780Y0264111D03*
X0213780Y0264111D03*
X0081126Y0125784D03*
X0071126Y0125784D03*
X0061126Y0125784D03*
D18*
X0589239Y0082665D03*
X0616798Y0082665D03*
X0644358Y0082665D03*
D19*
X0521075Y0182450D03*
X0521075Y0222450D03*
X0381423Y0236115D03*
X0381423Y0196115D03*
D20*
X0431423Y0251115D03*
X0571075Y0237450D03*
D21*
X0441423Y0181115D03*
X0581075Y0167450D03*
D22*
X0239751Y0292465D03*
D23*
X0229751Y0292465D03*
X0219751Y0292465D03*
X0209751Y0292465D03*
X0199751Y0292465D03*
X0189751Y0292465D03*
X0179751Y0292465D03*
X0169751Y0292465D03*
X0159751Y0292465D03*
X0149751Y0292465D03*
X0139751Y0292465D03*
X0129751Y0292465D03*
X0119751Y0292465D03*
X0109751Y0292465D03*
X0099751Y0292465D03*
X0089751Y0292465D03*
X0079751Y0292465D03*
X0069751Y0292465D03*
X0059751Y0292465D03*
X0049751Y0292465D03*
X0049751Y0302465D03*
X0059751Y0302465D03*
X0069751Y0302465D03*
X0079751Y0302465D03*
X0089751Y0302465D03*
X0099751Y0302465D03*
X0109751Y0302465D03*
X0119751Y0302465D03*
X0129751Y0302465D03*
X0139751Y0302465D03*
X0149751Y0302465D03*
X0159751Y0302465D03*
X0169751Y0302465D03*
X0179751Y0302465D03*
X0189751Y0302465D03*
X0199751Y0302465D03*
X0209751Y0302465D03*
X0219751Y0302465D03*
X0229751Y0302465D03*
X0239751Y0302465D03*
D24*
X0243109Y0307103D02*
X0245109Y0305103D01*
X0245109Y0284772D01*
X0269107Y0260774D01*
X0303426Y0260774D01*
X0303461Y0260809D01*
X0332122Y0260809D01*
X0332122Y0260809D01*
X0381423Y0275782D02*
X0381423Y0236115D01*
X0395088Y0222450D01*
X0521075Y0222450D01*
X0399779Y0294138D02*
X0381423Y0275782D01*
X0243109Y0307103D02*
X0094124Y0307103D01*
X0089751Y0302730D01*
X0089751Y0302465D01*
X0089751Y0304143D01*
X0086458Y0307436D01*
X0048129Y0307436D01*
X0044796Y0304103D01*
X0044796Y0289438D01*
X0046548Y0287685D01*
X0046548Y0056606D01*
X0051798Y0046606D02*
X0057609Y0040796D01*
X0077033Y0040796D01*
X0079943Y0043706D01*
X0086654Y0043706D01*
X0089564Y0040796D01*
X0120788Y0040796D01*
X0147452Y0067460D01*
X0147452Y0099790D01*
X0089125Y0115455D02*
X0089125Y0158451D01*
X0113789Y0174783D02*
X0113789Y0250775D01*
X0101123Y0263441D01*
X0120788Y0262107D02*
X0121121Y0261774D01*
X0136787Y0261774D01*
X0128125Y0253441D02*
X0121455Y0253441D01*
X0128125Y0253441D02*
X0147453Y0234114D01*
X0197784Y0270107D02*
X0203780Y0264111D01*
X0197784Y0270107D02*
X0075459Y0270107D01*
X0066460Y0261107D01*
X0080792Y0276439D02*
X0080792Y0277772D01*
X0076792Y0281772D01*
X0070444Y0281772D01*
X0059751Y0292465D01*
X0054461Y0297754D02*
X0049751Y0302465D01*
X0054461Y0297754D02*
X0054461Y0280439D01*
X0051128Y0277106D01*
X0051128Y0105526D01*
X0058000Y0098654D01*
X0058000Y0089252D01*
X0072793Y0074459D01*
X0147452Y0067460D02*
X0147452Y0067460D01*
X0120455Y0145119D02*
X0120455Y0170450D01*
X0125454Y0175449D01*
X0074459Y0221111D02*
X0074459Y0231444D01*
X0022465Y0240776D02*
X0022465Y0252108D01*
X0028797Y0258441D01*
X0109751Y0302465D02*
X0115445Y0296771D01*
X0132454Y0296771D01*
X0135453Y0293771D01*
X0135453Y0286105D01*
X0138453Y0283105D01*
X0139120Y0283105D01*
D25*
X0139120Y0283105D03*
X0101123Y0263441D03*
X0120788Y0262107D03*
X0121455Y0253441D03*
X0136787Y0261774D03*
X0080792Y0276439D03*
X0066460Y0261107D03*
X0028797Y0258441D03*
X0022465Y0240776D03*
X0074459Y0231444D03*
X0074459Y0221111D03*
X0096124Y0214112D03*
X0125454Y0175449D03*
X0113789Y0174783D03*
X0089125Y0158451D03*
X0120455Y0145119D03*
X0089125Y0115455D03*
X0147452Y0099790D03*
X0072793Y0074459D03*
X0166784Y0061127D03*
X0369430Y0149119D03*
X0280105Y0270773D03*
X0477752Y0299770D03*
D26*
X0431423Y0251115D02*
X0556758Y0251115D01*
X0557084Y0251442D01*
X0571075Y0237450D01*
X0590110Y0237450D01*
X0694427Y0133134D01*
X0704442Y0133134D01*
X0694427Y0133134D02*
X0644358Y0082665D01*
X0589239Y0082665D02*
X0558501Y0113803D01*
X0625111Y0113803D01*
X0644442Y0133134D01*
X0581075Y0167450D02*
X0554745Y0141119D01*
X0396094Y0141119D01*
X0396094Y0140453D01*
X0379239Y0123598D01*
X0379239Y0113803D01*
X0409759Y0082792D02*
X0434358Y0107390D01*
X0434358Y0113803D01*
X0558501Y0113803D01*
X0441423Y0181115D02*
X0398094Y0181115D01*
X0389095Y0172116D01*
X0197114Y0172116D01*
X0169239Y0144242D01*
X0169239Y0113803D01*
X0224358Y0113803D02*
X0255369Y0082792D01*
X0409759Y0082792D01*
D27*
X0019098Y0031822D02*
X0019098Y0027265D01*
X0047643Y0027265D01*
X0046399Y0028509D01*
X0045668Y0030274D01*
X0045668Y0034939D01*
X0046399Y0036703D01*
X0047749Y0038054D01*
X0049513Y0038784D01*
X0056509Y0038784D01*
X0055409Y0039885D01*
X0053119Y0042174D01*
X0052713Y0042006D01*
X0050883Y0042006D01*
X0049193Y0042707D01*
X0047899Y0044001D01*
X0047198Y0045691D01*
X0047198Y0047521D01*
X0047899Y0049212D01*
X0049193Y0050506D01*
X0050883Y0051206D01*
X0052713Y0051206D01*
X0054404Y0050506D01*
X0055698Y0049212D01*
X0055798Y0048970D01*
X0055899Y0049212D01*
X0057193Y0050506D01*
X0058883Y0051206D01*
X0060713Y0051206D01*
X0062404Y0050506D01*
X0063698Y0049212D01*
X0064398Y0047521D01*
X0064398Y0045691D01*
X0063698Y0044001D01*
X0062694Y0042996D01*
X0068403Y0042996D01*
X0067399Y0044001D01*
X0066698Y0045691D01*
X0066698Y0047521D01*
X0067399Y0049212D01*
X0068693Y0050506D01*
X0070383Y0051206D01*
X0072213Y0051206D01*
X0073904Y0050506D01*
X0075198Y0049212D01*
X0075898Y0047521D01*
X0075898Y0045691D01*
X0075198Y0044001D01*
X0074194Y0042996D01*
X0076122Y0042996D01*
X0077743Y0044618D01*
X0079032Y0045906D01*
X0087565Y0045906D01*
X0090475Y0042996D01*
X0116015Y0042996D01*
X0113619Y0043638D01*
X0110997Y0045152D01*
X0108856Y0047293D01*
X0107342Y0049916D01*
X0106558Y0052840D01*
X0106558Y0055868D01*
X0107342Y0058793D01*
X0108856Y0061416D01*
X0110997Y0063557D01*
X0113619Y0065071D01*
X0116544Y0065854D01*
X0119572Y0065854D01*
X0122497Y0065071D01*
X0125119Y0063557D01*
X0127261Y0061416D01*
X0128775Y0058793D01*
X0129558Y0055868D01*
X0129558Y0052840D01*
X0129499Y0052618D01*
X0145252Y0068371D01*
X0145252Y0096899D01*
X0144400Y0097751D01*
X0143852Y0099074D01*
X0143852Y0100506D01*
X0144400Y0101829D01*
X0145413Y0102842D01*
X0146736Y0103390D01*
X0148168Y0103390D01*
X0149491Y0102842D01*
X0150504Y0101829D01*
X0151052Y0100506D01*
X0151052Y0099074D01*
X0150504Y0097751D01*
X0149652Y0096899D01*
X0149652Y0066549D01*
X0148363Y0065260D01*
X0148363Y0065260D01*
X0122988Y0039885D01*
X0121699Y0038596D01*
X0090827Y0038596D01*
X0091398Y0037218D01*
X0091398Y0033995D01*
X0090165Y0031018D01*
X0087887Y0028739D01*
X0084910Y0027506D01*
X0081687Y0027506D01*
X0078710Y0028739D01*
X0076432Y0031018D01*
X0075198Y0033995D01*
X0075198Y0037218D01*
X0075770Y0038596D01*
X0060538Y0038596D01*
X0061848Y0038054D01*
X0063198Y0036703D01*
X0063929Y0034939D01*
X0063929Y0030274D01*
X0063198Y0028509D01*
X0061954Y0027265D01*
X0714987Y0027265D01*
X0715903Y0027325D01*
X0717670Y0027798D01*
X0719256Y0028713D01*
X0720550Y0030008D01*
X0721465Y0031593D01*
X0721939Y0033360D01*
X0721998Y0034276D01*
X0721998Y0093125D01*
X0721824Y0092900D01*
X0718241Y0090560D01*
X0714093Y0089509D01*
X0709828Y0089862D01*
X0705909Y0091581D01*
X0702760Y0094480D01*
X0700723Y0098244D01*
X0700019Y0102465D01*
X0700723Y0106686D01*
X0702760Y0110449D01*
X0705909Y0113348D01*
X0709828Y0115067D01*
X0714093Y0115420D01*
X0718241Y0114370D01*
X0721824Y0112029D01*
X0721998Y0111804D01*
X0721998Y0288125D01*
X0721824Y0287900D01*
X0718241Y0285560D01*
X0714093Y0284509D01*
X0709828Y0284862D01*
X0705909Y0286581D01*
X0702760Y0289480D01*
X0700723Y0293244D01*
X0700019Y0297465D01*
X0700723Y0301686D01*
X0702760Y0305449D01*
X0705909Y0308348D01*
X0707087Y0308865D01*
X0264515Y0308865D01*
X0265958Y0308231D01*
X0265958Y0308231D01*
X0269073Y0305364D01*
X0269073Y0305364D01*
X0271088Y0301641D01*
X0271088Y0301641D01*
X0271785Y0297465D01*
X0271088Y0293289D01*
X0271088Y0293289D01*
X0269073Y0289565D01*
X0269073Y0289565D01*
X0265958Y0286698D01*
X0265958Y0286698D01*
X0262081Y0284997D01*
X0262081Y0284997D01*
X0257862Y0284647D01*
X0257862Y0284647D01*
X0253758Y0285687D01*
X0253758Y0285687D01*
X0250213Y0288002D01*
X0250213Y0288002D01*
X0247613Y0291343D01*
X0247613Y0291343D01*
X0247309Y0292229D01*
X0247309Y0285683D01*
X0270018Y0262974D01*
X0297212Y0262974D01*
X0297300Y0263188D01*
X0298482Y0264370D01*
X0300026Y0265009D01*
X0306896Y0265009D01*
X0308440Y0264370D01*
X0309622Y0263188D01*
X0309696Y0263009D01*
X0325888Y0263009D01*
X0325962Y0263188D01*
X0327143Y0264370D01*
X0328687Y0265009D01*
X0335558Y0265009D01*
X0337101Y0264370D01*
X0338283Y0263188D01*
X0338922Y0261645D01*
X0338922Y0259974D01*
X0338283Y0258430D01*
X0337101Y0257249D01*
X0335558Y0256609D01*
X0328687Y0256609D01*
X0327143Y0257249D01*
X0325962Y0258430D01*
X0325888Y0258609D01*
X0309696Y0258609D01*
X0309622Y0258430D01*
X0308440Y0257249D01*
X0306896Y0256609D01*
X0300026Y0256609D01*
X0298482Y0257249D01*
X0297300Y0258430D01*
X0297241Y0258574D01*
X0268195Y0258574D01*
X0266907Y0259863D01*
X0242909Y0283860D01*
X0242909Y0288997D01*
X0242595Y0288684D01*
X0236907Y0288684D01*
X0235970Y0289621D01*
X0235970Y0295308D01*
X0236907Y0296246D01*
X0242595Y0296246D01*
X0242909Y0295932D01*
X0242909Y0300275D01*
X0241893Y0299259D01*
X0240503Y0298684D01*
X0238999Y0298684D01*
X0237609Y0299259D01*
X0236546Y0300323D01*
X0235970Y0301712D01*
X0235970Y0303217D01*
X0236546Y0304606D01*
X0236842Y0304903D01*
X0232660Y0304903D01*
X0232957Y0304606D01*
X0233532Y0303217D01*
X0233532Y0301712D01*
X0232957Y0300323D01*
X0231893Y0299259D01*
X0230503Y0298684D01*
X0228999Y0298684D01*
X0227609Y0299259D01*
X0226546Y0300323D01*
X0225970Y0301712D01*
X0225970Y0303217D01*
X0226546Y0304606D01*
X0226842Y0304903D01*
X0222910Y0304903D01*
X0223279Y0304350D01*
X0223579Y0303626D01*
X0223732Y0302857D01*
X0223732Y0302465D01*
X0219751Y0302465D01*
X0219751Y0302465D01*
X0215770Y0302465D01*
X0215770Y0302857D01*
X0215923Y0303626D01*
X0216223Y0304350D01*
X0216592Y0304903D01*
X0212660Y0304903D01*
X0212957Y0304606D01*
X0213532Y0303217D01*
X0213532Y0301712D01*
X0212957Y0300323D01*
X0211893Y0299259D01*
X0210503Y0298684D01*
X0208999Y0298684D01*
X0207609Y0299259D01*
X0206546Y0300323D01*
X0205970Y0301712D01*
X0205970Y0303217D01*
X0206546Y0304606D01*
X0206842Y0304903D01*
X0202660Y0304903D01*
X0202957Y0304606D01*
X0203532Y0303217D01*
X0203532Y0301712D01*
X0202957Y0300323D01*
X0201893Y0299259D01*
X0200503Y0298684D01*
X0198999Y0298684D01*
X0197609Y0299259D01*
X0196546Y0300323D01*
X0195970Y0301712D01*
X0195970Y0303217D01*
X0196546Y0304606D01*
X0196842Y0304903D01*
X0192660Y0304903D01*
X0192957Y0304606D01*
X0193532Y0303217D01*
X0193532Y0301712D01*
X0192957Y0300323D01*
X0191893Y0299259D01*
X0190503Y0298684D01*
X0188999Y0298684D01*
X0187609Y0299259D01*
X0186546Y0300323D01*
X0185970Y0301712D01*
X0185970Y0303217D01*
X0186546Y0304606D01*
X0186842Y0304903D01*
X0182910Y0304903D01*
X0183279Y0304350D01*
X0183579Y0303626D01*
X0183732Y0302857D01*
X0183732Y0302465D01*
X0179751Y0302465D01*
X0179751Y0302465D01*
X0175770Y0302465D01*
X0175770Y0302857D01*
X0175923Y0303626D01*
X0176223Y0304350D01*
X0176592Y0304903D01*
X0172660Y0304903D01*
X0172957Y0304606D01*
X0173532Y0303217D01*
X0173532Y0301712D01*
X0172957Y0300323D01*
X0171893Y0299259D01*
X0170503Y0298684D01*
X0168999Y0298684D01*
X0167609Y0299259D01*
X0166546Y0300323D01*
X0165970Y0301712D01*
X0165970Y0303217D01*
X0166546Y0304606D01*
X0166842Y0304903D01*
X0162660Y0304903D01*
X0162957Y0304606D01*
X0163532Y0303217D01*
X0163532Y0301712D01*
X0162957Y0300323D01*
X0161893Y0299259D01*
X0160503Y0298684D01*
X0158999Y0298684D01*
X0157609Y0299259D01*
X0156546Y0300323D01*
X0155970Y0301712D01*
X0155970Y0303217D01*
X0156546Y0304606D01*
X0156842Y0304903D01*
X0152910Y0304903D01*
X0153279Y0304350D01*
X0153579Y0303626D01*
X0153732Y0302857D01*
X0153732Y0302465D01*
X0149751Y0302465D01*
X0149751Y0302465D01*
X0145770Y0302465D01*
X0145770Y0302857D01*
X0145923Y0303626D01*
X0146223Y0304350D01*
X0146592Y0304903D01*
X0142660Y0304903D01*
X0142957Y0304606D01*
X0143532Y0303217D01*
X0143532Y0301712D01*
X0142957Y0300323D01*
X0141893Y0299259D01*
X0140503Y0298684D01*
X0138999Y0298684D01*
X0137609Y0299259D01*
X0136546Y0300323D01*
X0135970Y0301712D01*
X0135970Y0303217D01*
X0136546Y0304606D01*
X0136842Y0304903D01*
X0132660Y0304903D01*
X0132957Y0304606D01*
X0133532Y0303217D01*
X0133532Y0301712D01*
X0132957Y0300323D01*
X0131893Y0299259D01*
X0131196Y0298970D01*
X0133365Y0298970D01*
X0136365Y0295971D01*
X0137137Y0295198D01*
X0137609Y0295670D01*
X0138999Y0296246D01*
X0140503Y0296246D01*
X0141893Y0295670D01*
X0142957Y0294606D01*
X0143532Y0293217D01*
X0143532Y0291712D01*
X0142957Y0290323D01*
X0141893Y0289259D01*
X0140503Y0288684D01*
X0138999Y0288684D01*
X0137653Y0289241D01*
X0137653Y0287016D01*
X0138093Y0286577D01*
X0138404Y0286705D01*
X0139836Y0286705D01*
X0141159Y0286157D01*
X0142172Y0285144D01*
X0142720Y0283821D01*
X0142720Y0282389D01*
X0142172Y0281066D01*
X0141159Y0280053D01*
X0139836Y0279505D01*
X0138404Y0279505D01*
X0137080Y0280053D01*
X0136068Y0281066D01*
X0135520Y0282389D01*
X0135520Y0282927D01*
X0133253Y0285194D01*
X0133253Y0291039D01*
X0132957Y0290323D01*
X0131893Y0289259D01*
X0130503Y0288684D01*
X0128999Y0288684D01*
X0127609Y0289259D01*
X0126546Y0290323D01*
X0125970Y0291712D01*
X0125970Y0293217D01*
X0126531Y0294571D01*
X0123132Y0294571D01*
X0123279Y0294350D01*
X0123579Y0293626D01*
X0123732Y0292857D01*
X0123732Y0292465D01*
X0119751Y0292465D01*
X0119751Y0292465D01*
X0115770Y0292465D01*
X0115770Y0292857D01*
X0115923Y0293626D01*
X0116223Y0294350D01*
X0116370Y0294571D01*
X0114534Y0294571D01*
X0110421Y0298684D01*
X0108999Y0298684D01*
X0107609Y0299259D01*
X0106546Y0300323D01*
X0105970Y0301712D01*
X0105970Y0303217D01*
X0106546Y0304606D01*
X0106842Y0304903D01*
X0102910Y0304903D01*
X0103279Y0304350D01*
X0103579Y0303626D01*
X0103732Y0302857D01*
X0103732Y0302465D01*
X0099751Y0302465D01*
X0099751Y0302465D01*
X0095770Y0302465D01*
X0095770Y0302857D01*
X0095923Y0303626D01*
X0096223Y0304350D01*
X0096592Y0304903D01*
X0095035Y0304903D01*
X0093479Y0303346D01*
X0093532Y0303217D01*
X0093532Y0301712D01*
X0092957Y0300323D01*
X0091893Y0299259D01*
X0090503Y0298684D01*
X0088999Y0298684D01*
X0087609Y0299259D01*
X0086546Y0300323D01*
X0085970Y0301712D01*
X0085970Y0303217D01*
X0086438Y0304345D01*
X0085547Y0305236D01*
X0082610Y0305236D01*
X0082844Y0305002D01*
X0083279Y0304350D01*
X0083579Y0303626D01*
X0083732Y0302857D01*
X0083732Y0302465D01*
X0079751Y0302465D01*
X0079751Y0302465D01*
X0075770Y0302465D01*
X0075770Y0302857D01*
X0075923Y0303626D01*
X0076223Y0304350D01*
X0076659Y0305002D01*
X0076893Y0305236D01*
X0072327Y0305236D01*
X0072957Y0304606D01*
X0073532Y0303217D01*
X0073532Y0301712D01*
X0072957Y0300323D01*
X0071893Y0299259D01*
X0070503Y0298684D01*
X0068999Y0298684D01*
X0067609Y0299259D01*
X0066546Y0300323D01*
X0065970Y0301712D01*
X0065970Y0303217D01*
X0066546Y0304606D01*
X0067176Y0305236D01*
X0062327Y0305236D01*
X0062957Y0304606D01*
X0063532Y0303217D01*
X0063532Y0301712D01*
X0062957Y0300323D01*
X0061893Y0299259D01*
X0060503Y0298684D01*
X0058999Y0298684D01*
X0057609Y0299259D01*
X0056546Y0300323D01*
X0055970Y0301712D01*
X0055970Y0303217D01*
X0056546Y0304606D01*
X0057176Y0305236D01*
X0052327Y0305236D01*
X0052957Y0304606D01*
X0053532Y0303217D01*
X0053532Y0301795D01*
X0056661Y0298666D01*
X0056661Y0294722D01*
X0057609Y0295670D01*
X0058999Y0296246D01*
X0060503Y0296246D01*
X0061893Y0295670D01*
X0062957Y0294606D01*
X0063532Y0293217D01*
X0063532Y0291795D01*
X0071355Y0283972D01*
X0077704Y0283972D01*
X0081703Y0279972D01*
X0081727Y0279948D01*
X0082831Y0279491D01*
X0083844Y0278478D01*
X0084392Y0277155D01*
X0084392Y0275723D01*
X0083844Y0274400D01*
X0082831Y0273387D01*
X0081508Y0272839D01*
X0080076Y0272839D01*
X0078753Y0273387D01*
X0077740Y0274400D01*
X0077192Y0275723D01*
X0077192Y0277155D01*
X0077516Y0277937D01*
X0075881Y0279572D01*
X0069533Y0279572D01*
X0068244Y0280861D01*
X0068244Y0280861D01*
X0060421Y0288684D01*
X0058999Y0288684D01*
X0057609Y0289259D01*
X0056661Y0290207D01*
X0056661Y0279528D01*
X0055373Y0278239D01*
X0055373Y0278239D01*
X0053328Y0276195D01*
X0053328Y0106437D01*
X0059987Y0099778D01*
X0060844Y0100635D01*
X0062523Y0101330D01*
X0064341Y0101330D01*
X0066020Y0100635D01*
X0067305Y0099350D01*
X0068000Y0097671D01*
X0068000Y0089916D01*
X0067305Y0088237D01*
X0066020Y0086952D01*
X0064341Y0086256D01*
X0064107Y0086256D01*
X0072304Y0078059D01*
X0073509Y0078059D01*
X0074832Y0077511D01*
X0075845Y0076499D01*
X0076393Y0075175D01*
X0076393Y0073743D01*
X0075845Y0072420D01*
X0074832Y0071407D01*
X0073509Y0070859D01*
X0072077Y0070859D01*
X0070754Y0071407D01*
X0069741Y0072420D01*
X0069193Y0073743D01*
X0069193Y0074948D01*
X0056604Y0087537D01*
X0056020Y0086952D01*
X0054341Y0086256D01*
X0052523Y0086256D01*
X0050844Y0086952D01*
X0049559Y0088237D01*
X0048863Y0089916D01*
X0048863Y0097671D01*
X0049559Y0099350D01*
X0050844Y0100635D01*
X0052304Y0101239D01*
X0048928Y0104615D01*
X0048928Y0278017D01*
X0050217Y0279306D01*
X0050217Y0279306D01*
X0052261Y0281350D01*
X0052261Y0289354D01*
X0051637Y0288937D01*
X0050913Y0288636D01*
X0050143Y0288484D01*
X0049751Y0288484D01*
X0049751Y0292464D01*
X0049751Y0292464D01*
X0049751Y0288484D01*
X0049359Y0288484D01*
X0048738Y0288607D01*
X0048748Y0288596D01*
X0048748Y0060674D01*
X0049154Y0060506D01*
X0050448Y0059212D01*
X0050579Y0058897D01*
X0050693Y0059122D01*
X0051137Y0059733D01*
X0051672Y0060268D01*
X0052283Y0060712D01*
X0052956Y0061055D01*
X0053674Y0061288D01*
X0054421Y0061406D01*
X0054598Y0061406D01*
X0054598Y0056806D01*
X0054998Y0056806D01*
X0054998Y0061406D01*
X0055176Y0061406D01*
X0055923Y0061288D01*
X0056641Y0061055D01*
X0057314Y0060712D01*
X0057925Y0060268D01*
X0058460Y0059733D01*
X0058904Y0059122D01*
X0059018Y0058897D01*
X0059149Y0059212D01*
X0060443Y0060506D01*
X0062133Y0061206D01*
X0063963Y0061206D01*
X0065654Y0060506D01*
X0066948Y0059212D01*
X0067173Y0058668D01*
X0067399Y0059212D01*
X0068693Y0060506D01*
X0070383Y0061206D01*
X0072213Y0061206D01*
X0073904Y0060506D01*
X0075198Y0059212D01*
X0075898Y0057521D01*
X0075898Y0055691D01*
X0075198Y0054001D01*
X0073904Y0052707D01*
X0072213Y0052006D01*
X0070383Y0052006D01*
X0068693Y0052707D01*
X0067399Y0054001D01*
X0067173Y0054545D01*
X0066948Y0054001D01*
X0065654Y0052707D01*
X0063963Y0052006D01*
X0062133Y0052006D01*
X0060443Y0052707D01*
X0059149Y0054001D01*
X0059018Y0054315D01*
X0058904Y0054091D01*
X0058460Y0053479D01*
X0057925Y0052945D01*
X0057314Y0052501D01*
X0056641Y0052158D01*
X0055923Y0051925D01*
X0055176Y0051806D01*
X0054998Y0051806D01*
X0054998Y0056406D01*
X0054598Y0056406D01*
X0054598Y0051806D01*
X0054421Y0051806D01*
X0053674Y0051925D01*
X0052956Y0052158D01*
X0052283Y0052501D01*
X0051672Y0052945D01*
X0051137Y0053479D01*
X0050693Y0054091D01*
X0050579Y0054315D01*
X0050448Y0054001D01*
X0049154Y0052707D01*
X0047463Y0052006D01*
X0045633Y0052006D01*
X0043943Y0052707D01*
X0042649Y0054001D01*
X0042423Y0054545D01*
X0042198Y0054001D01*
X0040904Y0052707D01*
X0039213Y0052006D01*
X0037383Y0052006D01*
X0035693Y0052707D01*
X0034399Y0054001D01*
X0033698Y0055691D01*
X0033698Y0057521D01*
X0034399Y0059212D01*
X0035693Y0060506D01*
X0037383Y0061206D01*
X0039213Y0061206D01*
X0040904Y0060506D01*
X0042198Y0059212D01*
X0042423Y0058668D01*
X0042649Y0059212D01*
X0043943Y0060506D01*
X0044348Y0060674D01*
X0044348Y0286774D01*
X0042596Y0288527D01*
X0042596Y0293018D01*
X0040727Y0289565D01*
X0040727Y0289565D01*
X0037612Y0286698D01*
X0037612Y0286698D01*
X0033735Y0284997D01*
X0033735Y0284997D01*
X0029516Y0284647D01*
X0029516Y0284647D01*
X0025412Y0285687D01*
X0025412Y0285687D01*
X0021867Y0288002D01*
X0021867Y0288002D01*
X0021867Y0288002D01*
X0019267Y0291343D01*
X0019267Y0291343D01*
X0019098Y0291834D01*
X0019098Y0242057D01*
X0019413Y0242815D01*
X0020265Y0243667D01*
X0020265Y0253020D01*
X0021553Y0254308D01*
X0025197Y0257952D01*
X0025197Y0259157D01*
X0025745Y0260480D01*
X0026758Y0261493D01*
X0028081Y0262041D01*
X0029513Y0262041D01*
X0030837Y0261493D01*
X0031849Y0260480D01*
X0032397Y0259157D01*
X0032397Y0257725D01*
X0031849Y0256402D01*
X0030837Y0255389D01*
X0029513Y0254841D01*
X0028309Y0254841D01*
X0024665Y0251197D01*
X0024665Y0243667D01*
X0025517Y0242815D01*
X0026065Y0241492D01*
X0026065Y0240060D01*
X0025517Y0238737D01*
X0024504Y0237724D01*
X0023181Y0237176D01*
X0021749Y0237176D01*
X0020425Y0237724D01*
X0019413Y0238737D01*
X0019098Y0239495D01*
X0019098Y0212544D01*
X0019267Y0213035D01*
X0019267Y0213035D01*
X0021867Y0216376D01*
X0021867Y0216376D01*
X0025412Y0218691D01*
X0029516Y0219730D01*
X0033735Y0219381D01*
X0033735Y0219381D01*
X0037612Y0217680D01*
X0037612Y0217680D01*
X0040727Y0214813D01*
X0040727Y0214813D01*
X0040727Y0214813D01*
X0042742Y0211089D01*
X0044348Y0211089D01*
X0044348Y0212687D02*
X0041877Y0212687D01*
X0042742Y0211089D02*
X0042742Y0211089D01*
X0043439Y0206913D01*
X0042742Y0202737D01*
X0042742Y0202737D01*
X0040727Y0199014D01*
X0040727Y0199014D01*
X0037612Y0196147D01*
X0037612Y0196147D01*
X0033735Y0194446D01*
X0033735Y0194446D01*
X0029516Y0194096D01*
X0029516Y0194096D01*
X0025412Y0195136D01*
X0025412Y0195136D01*
X0021867Y0197451D01*
X0021867Y0197451D01*
X0021867Y0197451D01*
X0019267Y0200792D01*
X0019267Y0200792D01*
X0019098Y0201283D01*
X0019098Y0108194D01*
X0020319Y0110449D01*
X0023468Y0113348D01*
X0027387Y0115067D01*
X0031652Y0115420D01*
X0035800Y0114370D01*
X0039383Y0112029D01*
X0042011Y0108652D01*
X0043401Y0104604D01*
X0043401Y0100325D01*
X0042011Y0096277D01*
X0039383Y0092900D01*
X0035800Y0090560D01*
X0031652Y0089509D01*
X0027387Y0089862D01*
X0023468Y0091581D01*
X0020319Y0094480D01*
X0019098Y0096735D01*
X0019098Y0039390D01*
X0019432Y0040195D01*
X0021710Y0042473D01*
X0024687Y0043706D01*
X0027910Y0043706D01*
X0030887Y0042473D01*
X0033165Y0040195D01*
X0034398Y0037218D01*
X0034398Y0033995D01*
X0033165Y0031018D01*
X0030887Y0028739D01*
X0027910Y0027506D01*
X0024687Y0027506D01*
X0021710Y0028739D01*
X0019432Y0031018D01*
X0019098Y0031822D01*
X0019098Y0030457D02*
X0019993Y0030457D01*
X0019098Y0028859D02*
X0021591Y0028859D01*
X0031006Y0028859D02*
X0046254Y0028859D01*
X0045668Y0030457D02*
X0032604Y0030457D01*
X0033595Y0032056D02*
X0045668Y0032056D01*
X0045668Y0033654D02*
X0034257Y0033654D01*
X0034398Y0035253D02*
X0045798Y0035253D01*
X0046546Y0036851D02*
X0034398Y0036851D01*
X0033888Y0038450D02*
X0048705Y0038450D01*
X0053647Y0041647D02*
X0031713Y0041647D01*
X0033226Y0040048D02*
X0055245Y0040048D01*
X0060892Y0038450D02*
X0075709Y0038450D01*
X0075198Y0036851D02*
X0063050Y0036851D01*
X0063799Y0035253D02*
X0075198Y0035253D01*
X0075340Y0033654D02*
X0063929Y0033654D01*
X0063929Y0032056D02*
X0076002Y0032056D01*
X0076993Y0030457D02*
X0063929Y0030457D01*
X0063343Y0028859D02*
X0078591Y0028859D01*
X0088006Y0028859D02*
X0719401Y0028859D01*
X0720809Y0030457D02*
X0089604Y0030457D01*
X0090595Y0032056D02*
X0721589Y0032056D01*
X0721958Y0033654D02*
X0091257Y0033654D01*
X0091398Y0035253D02*
X0721998Y0035253D01*
X0721998Y0036851D02*
X0091398Y0036851D01*
X0090888Y0038450D02*
X0721998Y0038450D01*
X0721998Y0040048D02*
X0123151Y0040048D01*
X0124750Y0041647D02*
X0721998Y0041647D01*
X0721998Y0043245D02*
X0699437Y0043245D01*
X0699066Y0043031D02*
X0701732Y0044570D01*
X0703909Y0046747D01*
X0705448Y0049412D01*
X0706244Y0052385D01*
X0706244Y0055463D01*
X0705448Y0058437D01*
X0703909Y0061102D01*
X0701732Y0063279D01*
X0699066Y0064818D01*
X0696093Y0065614D01*
X0693015Y0065614D01*
X0690042Y0064818D01*
X0687377Y0063279D01*
X0685200Y0061102D01*
X0683661Y0058437D01*
X0682865Y0055463D01*
X0682865Y0052385D01*
X0683661Y0049412D01*
X0685200Y0046747D01*
X0687377Y0044570D01*
X0690042Y0043031D01*
X0693015Y0042235D01*
X0696093Y0042235D01*
X0699066Y0043031D01*
X0702006Y0044844D02*
X0721998Y0044844D01*
X0721998Y0046442D02*
X0703604Y0046442D01*
X0704656Y0048041D02*
X0721998Y0048041D01*
X0721998Y0049639D02*
X0705508Y0049639D01*
X0705937Y0051238D02*
X0721998Y0051238D01*
X0721998Y0052836D02*
X0706244Y0052836D01*
X0706244Y0054435D02*
X0721998Y0054435D01*
X0721998Y0056033D02*
X0706091Y0056033D01*
X0705663Y0057632D02*
X0721998Y0057632D01*
X0721998Y0059230D02*
X0704989Y0059230D01*
X0704066Y0060829D02*
X0721998Y0060829D01*
X0721998Y0062427D02*
X0702583Y0062427D01*
X0700438Y0064026D02*
X0721998Y0064026D01*
X0721998Y0065624D02*
X0487911Y0065624D01*
X0487053Y0065854D02*
X0484025Y0065854D01*
X0481100Y0065071D01*
X0478478Y0063557D01*
X0476336Y0061416D01*
X0474822Y0058793D01*
X0474039Y0055868D01*
X0474039Y0052840D01*
X0474822Y0049916D01*
X0476336Y0047293D01*
X0478478Y0045152D01*
X0481100Y0043638D01*
X0484025Y0042854D01*
X0487053Y0042854D01*
X0489978Y0043638D01*
X0492600Y0045152D01*
X0494741Y0047293D01*
X0496255Y0049916D01*
X0497039Y0052840D01*
X0497039Y0055868D01*
X0496255Y0058793D01*
X0494741Y0061416D01*
X0492600Y0063557D01*
X0489978Y0065071D01*
X0487053Y0065854D01*
X0483167Y0065624D02*
X0330430Y0065624D01*
X0329572Y0065854D02*
X0326544Y0065854D01*
X0323619Y0065071D01*
X0320997Y0063557D01*
X0318856Y0061416D01*
X0317342Y0058793D01*
X0316558Y0055868D01*
X0316558Y0052840D01*
X0317342Y0049916D01*
X0318856Y0047293D01*
X0320997Y0045152D01*
X0323619Y0043638D01*
X0326544Y0042854D01*
X0329572Y0042854D01*
X0332497Y0043638D01*
X0335119Y0045152D01*
X0337261Y0047293D01*
X0338775Y0049916D01*
X0339558Y0052840D01*
X0339558Y0055868D01*
X0338775Y0058793D01*
X0337261Y0061416D01*
X0335119Y0063557D01*
X0332497Y0065071D01*
X0329572Y0065854D01*
X0325686Y0065624D02*
X0277911Y0065624D01*
X0277053Y0065854D02*
X0274025Y0065854D01*
X0271100Y0065071D01*
X0268478Y0063557D01*
X0266336Y0061416D01*
X0264822Y0058793D01*
X0264039Y0055868D01*
X0264039Y0052840D01*
X0264822Y0049916D01*
X0266336Y0047293D01*
X0268478Y0045152D01*
X0271100Y0043638D01*
X0274025Y0042854D01*
X0277053Y0042854D01*
X0279978Y0043638D01*
X0282600Y0045152D01*
X0284741Y0047293D01*
X0286255Y0049916D01*
X0287039Y0052840D01*
X0287039Y0055868D01*
X0286255Y0058793D01*
X0284741Y0061416D01*
X0282600Y0063557D01*
X0279978Y0065071D01*
X0277053Y0065854D01*
X0273167Y0065624D02*
X0148728Y0065624D01*
X0149652Y0067223D02*
X0721998Y0067223D01*
X0721998Y0068821D02*
X0649851Y0068821D01*
X0650125Y0068896D02*
X0653492Y0070858D01*
X0700592Y0118334D01*
X0706390Y0118334D01*
X0710154Y0119342D01*
X0713529Y0121291D01*
X0716285Y0124046D01*
X0718233Y0127421D01*
X0719242Y0131185D01*
X0719242Y0135082D01*
X0718233Y0138846D01*
X0716285Y0142221D01*
X0713529Y0144977D01*
X0710154Y0146925D01*
X0706390Y0147934D01*
X0700557Y0147934D01*
X0601953Y0246537D01*
X0601953Y0246538D01*
X0599198Y0249293D01*
X0595823Y0251241D01*
X0592059Y0252250D01*
X0577206Y0252250D01*
X0568927Y0260529D01*
X0566171Y0263285D01*
X0562796Y0265233D01*
X0559032Y0266242D01*
X0555135Y0266242D01*
X0553918Y0265915D01*
X0429474Y0265915D01*
X0425710Y0264907D01*
X0422335Y0262958D01*
X0419580Y0260203D01*
X0417631Y0256828D01*
X0416623Y0253064D01*
X0416623Y0249167D01*
X0417631Y0245403D01*
X0419580Y0242028D01*
X0422335Y0239272D01*
X0425710Y0237324D01*
X0429474Y0236315D01*
X0551280Y0236315D01*
X0561988Y0225607D01*
X0565363Y0223659D01*
X0569127Y0222650D01*
X0583980Y0222650D01*
X0673538Y0133092D01*
X0632479Y0091705D01*
X0630544Y0088322D01*
X0629550Y0084554D01*
X0629565Y0080657D01*
X0630589Y0076897D01*
X0632551Y0073530D01*
X0635317Y0070786D01*
X0638700Y0068851D01*
X0642468Y0067857D01*
X0646365Y0067872D01*
X0650125Y0068896D01*
X0652740Y0070420D02*
X0721998Y0070420D01*
X0721998Y0072018D02*
X0654643Y0072018D01*
X0656229Y0073617D02*
X0721998Y0073617D01*
X0721998Y0075215D02*
X0657815Y0075215D01*
X0659401Y0076814D02*
X0721998Y0076814D01*
X0721998Y0078413D02*
X0660987Y0078413D01*
X0662573Y0080011D02*
X0721998Y0080011D01*
X0721998Y0081610D02*
X0664158Y0081610D01*
X0665744Y0083208D02*
X0721998Y0083208D01*
X0721998Y0084807D02*
X0667330Y0084807D01*
X0668916Y0086405D02*
X0721998Y0086405D01*
X0721998Y0088004D02*
X0670502Y0088004D01*
X0672088Y0089602D02*
X0712969Y0089602D01*
X0714460Y0089602D02*
X0721998Y0089602D01*
X0721998Y0091201D02*
X0719222Y0091201D01*
X0721669Y0092799D02*
X0721998Y0092799D01*
X0706777Y0091201D02*
X0673673Y0091201D01*
X0675259Y0092799D02*
X0704586Y0092799D01*
X0702849Y0094398D02*
X0676845Y0094398D01*
X0678431Y0095996D02*
X0701940Y0095996D01*
X0701075Y0097595D02*
X0680017Y0097595D01*
X0681603Y0099193D02*
X0700565Y0099193D01*
X0700298Y0100792D02*
X0683189Y0100792D01*
X0684774Y0102390D02*
X0700031Y0102390D01*
X0700273Y0103989D02*
X0686360Y0103989D01*
X0687946Y0105587D02*
X0700540Y0105587D01*
X0700994Y0107186D02*
X0689532Y0107186D01*
X0691118Y0108784D02*
X0701859Y0108784D01*
X0702724Y0110383D02*
X0692704Y0110383D01*
X0694289Y0111981D02*
X0704424Y0111981D01*
X0706438Y0113580D02*
X0695875Y0113580D01*
X0697461Y0115178D02*
X0711173Y0115178D01*
X0715048Y0115178D02*
X0721998Y0115178D01*
X0721998Y0113580D02*
X0719450Y0113580D01*
X0721861Y0111981D02*
X0721998Y0111981D01*
X0721998Y0116777D02*
X0699047Y0116777D01*
X0706546Y0118375D02*
X0721998Y0118375D01*
X0721998Y0119974D02*
X0711248Y0119974D01*
X0713811Y0121572D02*
X0721998Y0121572D01*
X0721998Y0123171D02*
X0715409Y0123171D01*
X0716702Y0124769D02*
X0721998Y0124769D01*
X0721998Y0126368D02*
X0717625Y0126368D01*
X0718379Y0127966D02*
X0721998Y0127966D01*
X0721998Y0129565D02*
X0718808Y0129565D01*
X0719236Y0131163D02*
X0721998Y0131163D01*
X0721998Y0132762D02*
X0719242Y0132762D01*
X0719242Y0134360D02*
X0721998Y0134360D01*
X0721998Y0135959D02*
X0719007Y0135959D01*
X0718579Y0137557D02*
X0721998Y0137557D01*
X0721998Y0139156D02*
X0718055Y0139156D01*
X0717132Y0140754D02*
X0721998Y0140754D01*
X0721998Y0142353D02*
X0716153Y0142353D01*
X0714554Y0143951D02*
X0721998Y0143951D01*
X0721998Y0145550D02*
X0712536Y0145550D01*
X0709321Y0147148D02*
X0721998Y0147148D01*
X0721998Y0148747D02*
X0699744Y0148747D01*
X0698145Y0150346D02*
X0721998Y0150346D01*
X0721998Y0151944D02*
X0696547Y0151944D01*
X0694948Y0153543D02*
X0721998Y0153543D01*
X0721998Y0155141D02*
X0693350Y0155141D01*
X0691751Y0156740D02*
X0721998Y0156740D01*
X0721998Y0158338D02*
X0690153Y0158338D01*
X0688554Y0159937D02*
X0721998Y0159937D01*
X0721998Y0161535D02*
X0686956Y0161535D01*
X0685357Y0163134D02*
X0721998Y0163134D01*
X0721998Y0164732D02*
X0683759Y0164732D01*
X0682160Y0166331D02*
X0721998Y0166331D01*
X0721998Y0167929D02*
X0680562Y0167929D01*
X0678963Y0169528D02*
X0721998Y0169528D01*
X0721998Y0171126D02*
X0677365Y0171126D01*
X0675766Y0172725D02*
X0721998Y0172725D01*
X0721998Y0174323D02*
X0674168Y0174323D01*
X0672569Y0175922D02*
X0721998Y0175922D01*
X0721998Y0177520D02*
X0670970Y0177520D01*
X0669372Y0179119D02*
X0721998Y0179119D01*
X0721998Y0180717D02*
X0667773Y0180717D01*
X0666175Y0182316D02*
X0721998Y0182316D01*
X0721998Y0183914D02*
X0664576Y0183914D01*
X0662978Y0185513D02*
X0721998Y0185513D01*
X0721998Y0187111D02*
X0661379Y0187111D01*
X0659781Y0188710D02*
X0721998Y0188710D01*
X0721998Y0190308D02*
X0658182Y0190308D01*
X0656584Y0191907D02*
X0721998Y0191907D01*
X0721998Y0193505D02*
X0654985Y0193505D01*
X0653387Y0195104D02*
X0721998Y0195104D01*
X0721998Y0196702D02*
X0651788Y0196702D01*
X0650190Y0198301D02*
X0721998Y0198301D01*
X0721998Y0199899D02*
X0648591Y0199899D01*
X0646993Y0201498D02*
X0721998Y0201498D01*
X0721998Y0203096D02*
X0645394Y0203096D01*
X0643796Y0204695D02*
X0721998Y0204695D01*
X0721998Y0206293D02*
X0642197Y0206293D01*
X0640599Y0207892D02*
X0721998Y0207892D01*
X0721998Y0209490D02*
X0639000Y0209490D01*
X0637402Y0211089D02*
X0721998Y0211089D01*
X0721998Y0212687D02*
X0635803Y0212687D01*
X0634205Y0214286D02*
X0721998Y0214286D01*
X0721998Y0215884D02*
X0632606Y0215884D01*
X0631008Y0217483D02*
X0721998Y0217483D01*
X0721998Y0219081D02*
X0629409Y0219081D01*
X0627811Y0220680D02*
X0721998Y0220680D01*
X0721998Y0222279D02*
X0626212Y0222279D01*
X0624614Y0223877D02*
X0721998Y0223877D01*
X0721998Y0225476D02*
X0623015Y0225476D01*
X0621417Y0227074D02*
X0721998Y0227074D01*
X0721998Y0228673D02*
X0619818Y0228673D01*
X0618220Y0230271D02*
X0721998Y0230271D01*
X0721998Y0231870D02*
X0616621Y0231870D01*
X0615023Y0233468D02*
X0721998Y0233468D01*
X0721998Y0235067D02*
X0613424Y0235067D01*
X0611826Y0236665D02*
X0721998Y0236665D01*
X0721998Y0238264D02*
X0610227Y0238264D01*
X0608629Y0239862D02*
X0641253Y0239862D01*
X0641854Y0239261D02*
X0643533Y0238565D01*
X0645351Y0238565D01*
X0647030Y0239261D01*
X0648315Y0240546D01*
X0649010Y0242225D01*
X0649010Y0244042D01*
X0648315Y0245722D01*
X0647030Y0247007D01*
X0645351Y0247702D01*
X0643533Y0247702D01*
X0641854Y0247007D01*
X0640569Y0245722D01*
X0639873Y0244042D01*
X0639873Y0242225D01*
X0640569Y0240546D01*
X0641854Y0239261D01*
X0640190Y0241461D02*
X0607030Y0241461D01*
X0605432Y0243059D02*
X0639873Y0243059D01*
X0640128Y0244658D02*
X0603833Y0244658D01*
X0602234Y0246256D02*
X0641104Y0246256D01*
X0647780Y0246256D02*
X0671104Y0246256D01*
X0670569Y0245722D02*
X0669873Y0244042D01*
X0669873Y0242225D01*
X0670569Y0240546D01*
X0671854Y0239261D01*
X0673533Y0238565D01*
X0675351Y0238565D01*
X0677030Y0239261D01*
X0678315Y0240546D01*
X0679010Y0242225D01*
X0679010Y0244042D01*
X0678315Y0245722D01*
X0677030Y0247007D01*
X0675351Y0247702D01*
X0673533Y0247702D01*
X0671854Y0247007D01*
X0670569Y0245722D01*
X0670128Y0244658D02*
X0648756Y0244658D01*
X0649010Y0243059D02*
X0669873Y0243059D01*
X0670190Y0241461D02*
X0648694Y0241461D01*
X0647631Y0239862D02*
X0671253Y0239862D01*
X0677631Y0239862D02*
X0721998Y0239862D01*
X0721998Y0241461D02*
X0678694Y0241461D01*
X0679010Y0243059D02*
X0721998Y0243059D01*
X0721998Y0244658D02*
X0678756Y0244658D01*
X0677780Y0246256D02*
X0721998Y0246256D01*
X0721998Y0247855D02*
X0600636Y0247855D01*
X0598920Y0249453D02*
X0721998Y0249453D01*
X0721998Y0251052D02*
X0596152Y0251052D01*
X0576806Y0252650D02*
X0721998Y0252650D01*
X0721998Y0254249D02*
X0575207Y0254249D01*
X0573609Y0255847D02*
X0721998Y0255847D01*
X0721998Y0257446D02*
X0572010Y0257446D01*
X0570412Y0259044D02*
X0721998Y0259044D01*
X0721998Y0260643D02*
X0568813Y0260643D01*
X0568927Y0260529D02*
X0568927Y0260529D01*
X0567215Y0262241D02*
X0721998Y0262241D01*
X0721998Y0263840D02*
X0565210Y0263840D01*
X0562030Y0265438D02*
X0721998Y0265438D01*
X0721998Y0267037D02*
X0383623Y0267037D01*
X0383623Y0268635D02*
X0721998Y0268635D01*
X0721998Y0270234D02*
X0383623Y0270234D01*
X0383623Y0271832D02*
X0619068Y0271832D01*
X0618519Y0272381D02*
X0619693Y0271207D01*
X0621227Y0270571D01*
X0622888Y0270571D01*
X0624423Y0271207D01*
X0625597Y0272381D01*
X0626233Y0273916D01*
X0626233Y0275577D01*
X0625597Y0277111D01*
X0624423Y0278285D01*
X0622888Y0278921D01*
X0621227Y0278921D01*
X0619693Y0278285D01*
X0618519Y0277111D01*
X0617883Y0275577D01*
X0617883Y0273916D01*
X0618519Y0272381D01*
X0618084Y0273431D02*
X0383623Y0273431D01*
X0383623Y0274870D02*
X0398765Y0290012D01*
X0398944Y0289938D01*
X0405815Y0289938D01*
X0407358Y0290577D01*
X0408540Y0291759D01*
X0409179Y0293303D01*
X0409179Y0294974D01*
X0408540Y0296517D01*
X0407358Y0297699D01*
X0405815Y0298338D01*
X0398944Y0298338D01*
X0397400Y0297699D01*
X0396219Y0296517D01*
X0395579Y0294974D01*
X0395579Y0293303D01*
X0395653Y0293124D01*
X0380511Y0277982D01*
X0379223Y0276693D01*
X0379223Y0240427D01*
X0378690Y0240206D01*
X0377332Y0238849D01*
X0376598Y0237075D01*
X0376598Y0235156D01*
X0377332Y0233382D01*
X0378690Y0232025D01*
X0380463Y0231290D01*
X0382382Y0231290D01*
X0382916Y0231511D01*
X0394177Y0220250D01*
X0516764Y0220250D01*
X0516985Y0219717D01*
X0518342Y0218360D01*
X0520116Y0217625D01*
X0522035Y0217625D01*
X0523809Y0218360D01*
X0525166Y0219717D01*
X0525900Y0221490D01*
X0525900Y0223410D01*
X0525166Y0225183D01*
X0523809Y0226541D01*
X0522035Y0227275D01*
X0520116Y0227275D01*
X0518342Y0226541D01*
X0516985Y0225183D01*
X0516764Y0224650D01*
X0395999Y0224650D01*
X0386027Y0234623D01*
X0386248Y0235156D01*
X0386248Y0237075D01*
X0385513Y0238849D01*
X0384156Y0240206D01*
X0383623Y0240427D01*
X0383623Y0274870D01*
X0383782Y0275029D02*
X0533636Y0275029D01*
X0533799Y0274866D02*
X0535343Y0274227D01*
X0542214Y0274227D01*
X0543757Y0274866D01*
X0544939Y0276048D01*
X0545578Y0277592D01*
X0545578Y0279262D01*
X0544939Y0280806D01*
X0543757Y0281988D01*
X0542214Y0282627D01*
X0535343Y0282627D01*
X0533799Y0281988D01*
X0532618Y0280806D01*
X0531978Y0279262D01*
X0531978Y0277592D01*
X0532618Y0276048D01*
X0533799Y0274866D01*
X0532377Y0276628D02*
X0385380Y0276628D01*
X0386979Y0278226D02*
X0531978Y0278226D01*
X0532211Y0279825D02*
X0469153Y0279825D01*
X0469352Y0279907D02*
X0470534Y0281089D01*
X0471173Y0282633D01*
X0471173Y0284303D01*
X0470534Y0285847D01*
X0469352Y0287029D01*
X0467808Y0287668D01*
X0460938Y0287668D01*
X0459394Y0287029D01*
X0458212Y0285847D01*
X0457573Y0284303D01*
X0457573Y0282633D01*
X0458212Y0281089D01*
X0459394Y0279907D01*
X0460938Y0279268D01*
X0467808Y0279268D01*
X0469352Y0279907D01*
X0470672Y0281423D02*
X0533235Y0281423D01*
X0534393Y0284620D02*
X0471042Y0284620D01*
X0471173Y0283022D02*
X0721998Y0283022D01*
X0721998Y0284620D02*
X0714533Y0284620D01*
X0712747Y0284620D02*
X0664017Y0284620D01*
X0663891Y0284568D02*
X0665425Y0285204D01*
X0666599Y0286378D01*
X0667235Y0287912D01*
X0667235Y0289573D01*
X0666599Y0291108D01*
X0665425Y0292282D01*
X0663891Y0292918D01*
X0662230Y0292918D01*
X0660695Y0292282D01*
X0659521Y0291108D01*
X0658885Y0289573D01*
X0658885Y0287912D01*
X0659521Y0286378D01*
X0660695Y0285204D01*
X0662230Y0284568D01*
X0663891Y0284568D01*
X0662103Y0284620D02*
X0644017Y0284620D01*
X0643891Y0284568D02*
X0645425Y0285204D01*
X0646599Y0286378D01*
X0647235Y0287912D01*
X0647235Y0289573D01*
X0646599Y0291108D01*
X0645425Y0292282D01*
X0643891Y0292918D01*
X0642230Y0292918D01*
X0640695Y0292282D01*
X0639521Y0291108D01*
X0638885Y0289573D01*
X0638885Y0287912D01*
X0639521Y0286378D01*
X0640695Y0285204D01*
X0642230Y0284568D01*
X0643891Y0284568D01*
X0642103Y0284620D02*
X0578177Y0284620D01*
X0578090Y0284533D02*
X0579271Y0285715D01*
X0579911Y0287258D01*
X0579911Y0288929D01*
X0579271Y0290473D01*
X0578090Y0291654D01*
X0576546Y0292294D01*
X0569675Y0292294D01*
X0568132Y0291654D01*
X0566950Y0290473D01*
X0566311Y0288929D01*
X0566311Y0287258D01*
X0566950Y0285715D01*
X0568132Y0284533D01*
X0569675Y0283894D01*
X0576546Y0283894D01*
X0578090Y0284533D01*
X0579480Y0286219D02*
X0639680Y0286219D01*
X0638925Y0287817D02*
X0579911Y0287817D01*
X0579709Y0289416D02*
X0638885Y0289416D01*
X0639482Y0291015D02*
X0578730Y0291015D01*
X0577313Y0294212D02*
X0700562Y0294212D01*
X0700295Y0295810D02*
X0579311Y0295810D01*
X0579271Y0295715D02*
X0579911Y0297258D01*
X0579911Y0298929D01*
X0579271Y0300473D01*
X0578090Y0301654D01*
X0576546Y0302294D01*
X0569675Y0302294D01*
X0568132Y0301654D01*
X0566950Y0300473D01*
X0566311Y0298929D01*
X0566311Y0297258D01*
X0566950Y0295715D01*
X0568132Y0294533D01*
X0569675Y0293894D01*
X0576546Y0293894D01*
X0578090Y0294533D01*
X0579271Y0295715D01*
X0579911Y0297409D02*
X0700028Y0297409D01*
X0700276Y0299007D02*
X0579878Y0299007D01*
X0579138Y0300606D02*
X0700543Y0300606D01*
X0701004Y0302204D02*
X0576762Y0302204D01*
X0569459Y0302204D02*
X0543235Y0302204D01*
X0543757Y0301988D02*
X0542214Y0302627D01*
X0535343Y0302627D01*
X0533799Y0301988D01*
X0532618Y0300806D01*
X0531978Y0299262D01*
X0531978Y0297592D01*
X0532618Y0296048D01*
X0533799Y0294866D01*
X0535343Y0294227D01*
X0542214Y0294227D01*
X0543757Y0294866D01*
X0544939Y0296048D01*
X0545578Y0297592D01*
X0545578Y0299262D01*
X0544939Y0300806D01*
X0543757Y0301988D01*
X0545022Y0300606D02*
X0567083Y0300606D01*
X0566343Y0299007D02*
X0545578Y0299007D01*
X0545502Y0297409D02*
X0566311Y0297409D01*
X0566911Y0295810D02*
X0544701Y0295810D01*
X0543757Y0291988D02*
X0542214Y0292627D01*
X0535343Y0292627D01*
X0533799Y0291988D01*
X0532618Y0290806D01*
X0531978Y0289262D01*
X0531978Y0287592D01*
X0532618Y0286048D01*
X0533799Y0284866D01*
X0535343Y0284227D01*
X0542214Y0284227D01*
X0543757Y0284866D01*
X0544939Y0286048D01*
X0545578Y0287592D01*
X0545578Y0289262D01*
X0544939Y0290806D01*
X0543757Y0291988D01*
X0544730Y0291015D02*
X0567492Y0291015D01*
X0566512Y0289416D02*
X0545515Y0289416D01*
X0545578Y0287817D02*
X0566311Y0287817D01*
X0566741Y0286219D02*
X0545010Y0286219D01*
X0543164Y0284620D02*
X0568044Y0284620D01*
X0569675Y0282294D02*
X0568132Y0281654D01*
X0566950Y0280473D01*
X0566311Y0278929D01*
X0566311Y0277258D01*
X0566950Y0275715D01*
X0568132Y0274533D01*
X0569675Y0273894D01*
X0576546Y0273894D01*
X0578090Y0274533D01*
X0579271Y0275715D01*
X0579911Y0277258D01*
X0579911Y0278929D01*
X0579271Y0280473D01*
X0578090Y0281654D01*
X0576546Y0282294D01*
X0569675Y0282294D01*
X0567901Y0281423D02*
X0544322Y0281423D01*
X0545345Y0279825D02*
X0566682Y0279825D01*
X0566311Y0278226D02*
X0545578Y0278226D01*
X0545179Y0276628D02*
X0566572Y0276628D01*
X0567635Y0275029D02*
X0543920Y0275029D01*
X0532547Y0286219D02*
X0470162Y0286219D01*
X0468166Y0289416D02*
X0532042Y0289416D01*
X0531978Y0287817D02*
X0407071Y0287817D01*
X0407358Y0287699D02*
X0405815Y0288338D01*
X0398944Y0288338D01*
X0397400Y0287699D01*
X0396219Y0286517D01*
X0395579Y0284974D01*
X0395579Y0283303D01*
X0396219Y0281759D01*
X0397400Y0280577D01*
X0398944Y0279938D01*
X0405815Y0279938D01*
X0407358Y0280577D01*
X0408540Y0281759D01*
X0409179Y0283303D01*
X0409179Y0284974D01*
X0408540Y0286517D01*
X0407358Y0287699D01*
X0408663Y0286219D02*
X0423384Y0286219D01*
X0423012Y0285847D02*
X0422373Y0284303D01*
X0422373Y0282633D01*
X0423012Y0281089D01*
X0424194Y0279907D01*
X0425738Y0279268D01*
X0432608Y0279268D01*
X0434152Y0279907D01*
X0435334Y0281089D01*
X0435973Y0282633D01*
X0435973Y0284303D01*
X0435334Y0285847D01*
X0434152Y0287029D01*
X0432608Y0287668D01*
X0425738Y0287668D01*
X0424194Y0287029D01*
X0423012Y0285847D01*
X0422504Y0284620D02*
X0409179Y0284620D01*
X0409063Y0283022D02*
X0422373Y0283022D01*
X0422874Y0281423D02*
X0408204Y0281423D01*
X0396554Y0281423D02*
X0390176Y0281423D01*
X0388577Y0279825D02*
X0424393Y0279825D01*
X0433953Y0279825D02*
X0459593Y0279825D01*
X0458074Y0281423D02*
X0435472Y0281423D01*
X0435973Y0283022D02*
X0457573Y0283022D01*
X0457704Y0284620D02*
X0435842Y0284620D01*
X0434962Y0286219D02*
X0458584Y0286219D01*
X0460580Y0289416D02*
X0432966Y0289416D01*
X0432608Y0289268D02*
X0434152Y0289907D01*
X0435334Y0291089D01*
X0435973Y0292633D01*
X0435973Y0294303D01*
X0435334Y0295847D01*
X0434152Y0297029D01*
X0432608Y0297668D01*
X0425738Y0297668D01*
X0424194Y0297029D01*
X0423012Y0295847D01*
X0422373Y0294303D01*
X0422373Y0292633D01*
X0423012Y0291089D01*
X0424194Y0289907D01*
X0425738Y0289268D01*
X0432608Y0289268D01*
X0435259Y0291015D02*
X0458287Y0291015D01*
X0458212Y0291089D02*
X0459394Y0289907D01*
X0460938Y0289268D01*
X0467808Y0289268D01*
X0469352Y0289907D01*
X0470534Y0291089D01*
X0471173Y0292633D01*
X0471173Y0294303D01*
X0470534Y0295847D01*
X0469352Y0297029D01*
X0467808Y0297668D01*
X0460938Y0297668D01*
X0459394Y0297029D01*
X0458212Y0295847D01*
X0457573Y0294303D01*
X0457573Y0292633D01*
X0458212Y0291089D01*
X0457581Y0292613D02*
X0435965Y0292613D01*
X0435973Y0294212D02*
X0457573Y0294212D01*
X0458197Y0295810D02*
X0435349Y0295810D01*
X0433235Y0297409D02*
X0460311Y0297409D01*
X0468435Y0297409D02*
X0532054Y0297409D01*
X0531978Y0299007D02*
X0271528Y0299007D01*
X0271776Y0297409D02*
X0361910Y0297409D01*
X0362200Y0297699D02*
X0361019Y0296517D01*
X0360379Y0294974D01*
X0360379Y0293303D01*
X0361019Y0291759D01*
X0362200Y0290577D01*
X0363744Y0289938D01*
X0370615Y0289938D01*
X0372158Y0290577D01*
X0373340Y0291759D01*
X0373979Y0293303D01*
X0373979Y0294974D01*
X0373340Y0296517D01*
X0372158Y0297699D01*
X0370615Y0298338D01*
X0363744Y0298338D01*
X0362200Y0297699D01*
X0360726Y0295810D02*
X0271509Y0295810D01*
X0271242Y0294212D02*
X0360379Y0294212D01*
X0360665Y0292613D02*
X0270723Y0292613D01*
X0269857Y0291015D02*
X0361763Y0291015D01*
X0362487Y0287817D02*
X0267175Y0287817D01*
X0268911Y0289416D02*
X0391946Y0289416D01*
X0393544Y0291015D02*
X0372595Y0291015D01*
X0373694Y0292613D02*
X0395143Y0292613D01*
X0395579Y0294212D02*
X0373979Y0294212D01*
X0373633Y0295810D02*
X0395926Y0295810D01*
X0397110Y0297409D02*
X0372448Y0297409D01*
X0370615Y0288338D02*
X0363744Y0288338D01*
X0362200Y0287699D01*
X0361019Y0286517D01*
X0360379Y0284974D01*
X0360379Y0283303D01*
X0361019Y0281759D01*
X0362200Y0280577D01*
X0363744Y0279938D01*
X0370615Y0279938D01*
X0372158Y0280577D01*
X0373340Y0281759D01*
X0373979Y0283303D01*
X0373979Y0284974D01*
X0373340Y0286517D01*
X0372158Y0287699D01*
X0370615Y0288338D01*
X0371871Y0287817D02*
X0390347Y0287817D01*
X0388749Y0286219D02*
X0373463Y0286219D01*
X0373979Y0284620D02*
X0387150Y0284620D01*
X0385552Y0283022D02*
X0373863Y0283022D01*
X0373004Y0281423D02*
X0383953Y0281423D01*
X0382355Y0279825D02*
X0253167Y0279825D01*
X0251569Y0281423D02*
X0361354Y0281423D01*
X0360495Y0283022D02*
X0249970Y0283022D01*
X0248371Y0284620D02*
X0360379Y0284620D01*
X0360895Y0286219D02*
X0264867Y0286219D01*
X0252943Y0286219D02*
X0247309Y0286219D01*
X0247309Y0287817D02*
X0250497Y0287817D01*
X0249113Y0289416D02*
X0247309Y0289416D01*
X0247309Y0291015D02*
X0247869Y0291015D01*
X0242909Y0287817D02*
X0137653Y0287817D01*
X0141010Y0286219D02*
X0242909Y0286219D01*
X0242909Y0284620D02*
X0142389Y0284620D01*
X0142720Y0283022D02*
X0243747Y0283022D01*
X0245346Y0281423D02*
X0142320Y0281423D01*
X0140608Y0279825D02*
X0246944Y0279825D01*
X0248543Y0278226D02*
X0083948Y0278226D01*
X0084392Y0276628D02*
X0250142Y0276628D01*
X0251740Y0275029D02*
X0084105Y0275029D01*
X0082875Y0273431D02*
X0253339Y0273431D01*
X0254937Y0271832D02*
X0199169Y0271832D01*
X0198695Y0272306D02*
X0074548Y0272306D01*
X0073259Y0271018D01*
X0066949Y0264707D01*
X0065744Y0264707D01*
X0064421Y0264159D01*
X0063408Y0263147D01*
X0062860Y0261823D01*
X0062860Y0260391D01*
X0063408Y0259068D01*
X0064421Y0258055D01*
X0065744Y0257507D01*
X0067176Y0257507D01*
X0068499Y0258055D01*
X0069512Y0259068D01*
X0070060Y0260391D01*
X0070060Y0261596D01*
X0076371Y0267907D01*
X0191672Y0267907D01*
X0189605Y0265840D01*
X0189605Y0262381D01*
X0192051Y0259936D01*
X0195509Y0259936D01*
X0197955Y0262381D01*
X0197955Y0265840D01*
X0195888Y0267907D01*
X0196873Y0267907D01*
X0199605Y0265174D01*
X0199605Y0262381D01*
X0202051Y0259936D01*
X0205509Y0259936D01*
X0207955Y0262381D01*
X0207955Y0265840D01*
X0205509Y0268285D01*
X0202716Y0268285D01*
X0199984Y0271018D01*
X0198695Y0272306D01*
X0200768Y0270234D02*
X0256536Y0270234D01*
X0258134Y0268635D02*
X0202366Y0268635D01*
X0199341Y0265438D02*
X0197955Y0265438D01*
X0197955Y0263840D02*
X0199605Y0263840D01*
X0199745Y0262241D02*
X0197815Y0262241D01*
X0196216Y0260643D02*
X0201344Y0260643D01*
X0206216Y0260643D02*
X0211344Y0260643D01*
X0212051Y0259936D02*
X0215509Y0259936D01*
X0217955Y0262381D01*
X0217955Y0265840D01*
X0215509Y0268285D01*
X0212051Y0268285D01*
X0209605Y0265840D01*
X0209605Y0262381D01*
X0212051Y0259936D01*
X0209745Y0262241D02*
X0207815Y0262241D01*
X0207955Y0263840D02*
X0209605Y0263840D01*
X0209605Y0265438D02*
X0207955Y0265438D01*
X0206758Y0267037D02*
X0210802Y0267037D01*
X0216758Y0267037D02*
X0259733Y0267037D01*
X0261331Y0265438D02*
X0217955Y0265438D01*
X0217955Y0263840D02*
X0262930Y0263840D01*
X0264528Y0262241D02*
X0217815Y0262241D01*
X0216216Y0260643D02*
X0266127Y0260643D01*
X0267725Y0259044D02*
X0139148Y0259044D01*
X0138826Y0258722D02*
X0139838Y0259735D01*
X0140386Y0261058D01*
X0140386Y0262490D01*
X0139838Y0263813D01*
X0138826Y0264826D01*
X0137503Y0265374D01*
X0136070Y0265374D01*
X0134747Y0264826D01*
X0133895Y0263974D01*
X0123911Y0263974D01*
X0123840Y0264147D01*
X0122827Y0265159D01*
X0121504Y0265707D01*
X0120072Y0265707D01*
X0118749Y0265159D01*
X0117736Y0264147D01*
X0117188Y0262823D01*
X0117188Y0261391D01*
X0117736Y0260068D01*
X0118749Y0259055D01*
X0120072Y0258507D01*
X0121504Y0258507D01*
X0122827Y0259055D01*
X0123346Y0259574D01*
X0133895Y0259574D01*
X0134747Y0258722D01*
X0136070Y0258174D01*
X0137503Y0258174D01*
X0138826Y0258722D01*
X0140215Y0260643D02*
X0191344Y0260643D01*
X0189745Y0262241D02*
X0140386Y0262241D01*
X0139812Y0263840D02*
X0189605Y0263840D01*
X0189605Y0265438D02*
X0122154Y0265438D01*
X0119423Y0265438D02*
X0104192Y0265438D01*
X0104175Y0265480D02*
X0103163Y0266492D01*
X0101839Y0267040D01*
X0100407Y0267040D01*
X0099084Y0266492D01*
X0098071Y0265480D01*
X0097523Y0264157D01*
X0097523Y0262724D01*
X0098071Y0261401D01*
X0099084Y0260389D01*
X0100407Y0259841D01*
X0101612Y0259841D01*
X0111589Y0249864D01*
X0111589Y0177674D01*
X0110737Y0176822D01*
X0110189Y0175499D01*
X0110189Y0174067D01*
X0110737Y0172743D01*
X0111750Y0171731D01*
X0113073Y0171183D01*
X0114505Y0171183D01*
X0115828Y0171731D01*
X0116841Y0172743D01*
X0117389Y0174067D01*
X0117389Y0175499D01*
X0116841Y0176822D01*
X0115989Y0177674D01*
X0115989Y0251686D01*
X0104723Y0262952D01*
X0104723Y0264157D01*
X0104175Y0265480D01*
X0104723Y0263840D02*
X0117609Y0263840D01*
X0117188Y0262241D02*
X0105434Y0262241D01*
X0107032Y0260643D02*
X0117498Y0260643D01*
X0118776Y0259044D02*
X0108631Y0259044D01*
X0110229Y0257446D02*
X0298285Y0257446D01*
X0300026Y0255009D02*
X0298482Y0254370D01*
X0297300Y0253188D01*
X0296661Y0251645D01*
X0296661Y0249974D01*
X0297300Y0248430D01*
X0298482Y0247249D01*
X0300026Y0246609D01*
X0306896Y0246609D01*
X0308440Y0247249D01*
X0309622Y0248430D01*
X0310261Y0249974D01*
X0310261Y0251645D01*
X0309622Y0253188D01*
X0308440Y0254370D01*
X0306896Y0255009D01*
X0300026Y0255009D01*
X0298361Y0254249D02*
X0130429Y0254249D01*
X0129036Y0255641D02*
X0124346Y0255641D01*
X0123494Y0256493D01*
X0122171Y0257041D01*
X0120739Y0257041D01*
X0119415Y0256493D01*
X0118403Y0255481D01*
X0117855Y0254158D01*
X0117855Y0252725D01*
X0118403Y0251402D01*
X0119415Y0250390D01*
X0120739Y0249841D01*
X0122171Y0249841D01*
X0123494Y0250390D01*
X0124346Y0251241D01*
X0127214Y0251241D01*
X0143278Y0235177D01*
X0143278Y0232384D01*
X0145724Y0229939D01*
X0149182Y0229939D01*
X0151628Y0232384D01*
X0151628Y0235843D01*
X0149182Y0238288D01*
X0146390Y0238288D01*
X0129036Y0255641D01*
X0132028Y0252650D02*
X0297078Y0252650D01*
X0296661Y0251052D02*
X0133626Y0251052D01*
X0135225Y0249453D02*
X0296877Y0249453D01*
X0297876Y0247855D02*
X0136823Y0247855D01*
X0138422Y0246256D02*
X0379223Y0246256D01*
X0379223Y0244658D02*
X0336406Y0244658D01*
X0337101Y0244370D02*
X0335558Y0245009D01*
X0328687Y0245009D01*
X0327143Y0244370D01*
X0325962Y0243188D01*
X0325322Y0241645D01*
X0325322Y0239974D01*
X0325962Y0238430D01*
X0327143Y0237249D01*
X0328687Y0236609D01*
X0335558Y0236609D01*
X0337101Y0237249D01*
X0338283Y0238430D01*
X0338922Y0239974D01*
X0338922Y0241645D01*
X0338283Y0243188D01*
X0337101Y0244370D01*
X0338336Y0243059D02*
X0379223Y0243059D01*
X0379223Y0241461D02*
X0338922Y0241461D01*
X0338876Y0239862D02*
X0378346Y0239862D01*
X0377090Y0238264D02*
X0338117Y0238264D01*
X0335693Y0236665D02*
X0376598Y0236665D01*
X0376635Y0235067D02*
X0151628Y0235067D01*
X0151628Y0233468D02*
X0377297Y0233468D01*
X0379065Y0231870D02*
X0151113Y0231870D01*
X0149515Y0230271D02*
X0384156Y0230271D01*
X0385754Y0228673D02*
X0115989Y0228673D01*
X0115989Y0230271D02*
X0125392Y0230271D01*
X0125724Y0229939D02*
X0123278Y0232384D01*
X0123278Y0235843D01*
X0125724Y0238288D01*
X0129182Y0238288D01*
X0131628Y0235843D01*
X0131628Y0232384D01*
X0129182Y0229939D01*
X0125724Y0229939D01*
X0123793Y0231870D02*
X0115989Y0231870D01*
X0115989Y0233468D02*
X0123278Y0233468D01*
X0123278Y0235067D02*
X0115989Y0235067D01*
X0115989Y0236665D02*
X0124101Y0236665D01*
X0125699Y0238264D02*
X0115989Y0238264D01*
X0115989Y0239862D02*
X0138593Y0239862D01*
X0139182Y0238288D02*
X0135724Y0238288D01*
X0133278Y0235843D01*
X0133278Y0232384D01*
X0135724Y0229939D01*
X0139182Y0229939D01*
X0141628Y0232384D01*
X0141628Y0235843D01*
X0139182Y0238288D01*
X0139207Y0238264D02*
X0140192Y0238264D01*
X0140806Y0236665D02*
X0141790Y0236665D01*
X0141628Y0235067D02*
X0143278Y0235067D01*
X0143278Y0233468D02*
X0141628Y0233468D01*
X0141113Y0231870D02*
X0143793Y0231870D01*
X0145392Y0230271D02*
X0139515Y0230271D01*
X0135392Y0230271D02*
X0129515Y0230271D01*
X0131113Y0231870D02*
X0133793Y0231870D01*
X0133278Y0233468D02*
X0131628Y0233468D01*
X0131628Y0235067D02*
X0133278Y0235067D01*
X0134101Y0236665D02*
X0130806Y0236665D01*
X0129207Y0238264D02*
X0135699Y0238264D01*
X0136995Y0241461D02*
X0115989Y0241461D01*
X0115989Y0243059D02*
X0135396Y0243059D01*
X0133798Y0244658D02*
X0115989Y0244658D01*
X0115989Y0246256D02*
X0132199Y0246256D01*
X0130601Y0247855D02*
X0115989Y0247855D01*
X0115989Y0249453D02*
X0129002Y0249453D01*
X0127404Y0251052D02*
X0124156Y0251052D01*
X0124140Y0255847D02*
X0379223Y0255847D01*
X0379223Y0254249D02*
X0337222Y0254249D01*
X0337101Y0254370D02*
X0335558Y0255009D01*
X0328687Y0255009D01*
X0327143Y0254370D01*
X0325962Y0253188D01*
X0325322Y0251645D01*
X0325322Y0249974D01*
X0325962Y0248430D01*
X0327143Y0247249D01*
X0328687Y0246609D01*
X0335558Y0246609D01*
X0337101Y0247249D01*
X0338283Y0248430D01*
X0338922Y0249974D01*
X0338922Y0251645D01*
X0338283Y0253188D01*
X0337101Y0254370D01*
X0338506Y0252650D02*
X0379223Y0252650D01*
X0379223Y0251052D02*
X0338922Y0251052D01*
X0338707Y0249453D02*
X0379223Y0249453D01*
X0379223Y0247855D02*
X0337708Y0247855D01*
X0327838Y0244658D02*
X0307745Y0244658D01*
X0308440Y0244370D02*
X0306896Y0245009D01*
X0300026Y0245009D01*
X0298482Y0244370D01*
X0297300Y0243188D01*
X0296661Y0241645D01*
X0296661Y0239974D01*
X0297300Y0238430D01*
X0298482Y0237249D01*
X0300026Y0236609D01*
X0306896Y0236609D01*
X0308440Y0237249D01*
X0309622Y0238430D01*
X0310261Y0239974D01*
X0310261Y0241645D01*
X0309622Y0243188D01*
X0308440Y0244370D01*
X0309675Y0243059D02*
X0325908Y0243059D01*
X0325322Y0241461D02*
X0310261Y0241461D01*
X0310215Y0239862D02*
X0325368Y0239862D01*
X0326128Y0238264D02*
X0309455Y0238264D01*
X0307032Y0236665D02*
X0328552Y0236665D01*
X0326537Y0247855D02*
X0309046Y0247855D01*
X0310045Y0249453D02*
X0325538Y0249453D01*
X0325322Y0251052D02*
X0310261Y0251052D01*
X0309844Y0252650D02*
X0325739Y0252650D01*
X0327022Y0254249D02*
X0308561Y0254249D01*
X0308637Y0257446D02*
X0326946Y0257446D01*
X0337299Y0257446D02*
X0379223Y0257446D01*
X0379223Y0259044D02*
X0338537Y0259044D01*
X0338922Y0260643D02*
X0379223Y0260643D01*
X0379223Y0262241D02*
X0338675Y0262241D01*
X0337631Y0263840D02*
X0379223Y0263840D01*
X0379223Y0265438D02*
X0267554Y0265438D01*
X0269152Y0263840D02*
X0297952Y0263840D01*
X0308970Y0263840D02*
X0326613Y0263840D01*
X0299177Y0244658D02*
X0140020Y0244658D01*
X0141619Y0243059D02*
X0297247Y0243059D01*
X0296661Y0241461D02*
X0143217Y0241461D01*
X0144816Y0239862D02*
X0296707Y0239862D01*
X0297467Y0238264D02*
X0149207Y0238264D01*
X0150806Y0236665D02*
X0299890Y0236665D01*
X0269073Y0214813D02*
X0265958Y0217680D01*
X0262081Y0219381D01*
X0257862Y0219730D01*
X0253758Y0218691D01*
X0253758Y0218691D01*
X0250213Y0216376D01*
X0250213Y0216376D01*
X0250213Y0216376D01*
X0247613Y0213035D01*
X0247613Y0213035D01*
X0246238Y0209030D01*
X0246238Y0204797D01*
X0247613Y0200792D01*
X0250213Y0197451D01*
X0250213Y0197451D01*
X0250213Y0197451D01*
X0253758Y0195136D01*
X0257862Y0194096D01*
X0262081Y0194446D01*
X0265958Y0196147D01*
X0269073Y0199014D01*
X0271088Y0202737D01*
X0271088Y0202737D01*
X0271785Y0206913D01*
X0271088Y0211089D01*
X0595541Y0211089D01*
X0593943Y0212687D02*
X0270223Y0212687D01*
X0271088Y0211089D02*
X0269073Y0214813D01*
X0269073Y0214813D01*
X0269358Y0214286D02*
X0592344Y0214286D01*
X0590746Y0215884D02*
X0267909Y0215884D01*
X0266173Y0217483D02*
X0589147Y0217483D01*
X0587548Y0219081D02*
X0524530Y0219081D01*
X0525565Y0220680D02*
X0585950Y0220680D01*
X0584351Y0222279D02*
X0525900Y0222279D01*
X0525707Y0223877D02*
X0564985Y0223877D01*
X0562216Y0225476D02*
X0524874Y0225476D01*
X0522521Y0227074D02*
X0560521Y0227074D01*
X0558923Y0228673D02*
X0391977Y0228673D01*
X0390378Y0230271D02*
X0557324Y0230271D01*
X0555726Y0231870D02*
X0388780Y0231870D01*
X0387181Y0233468D02*
X0554127Y0233468D01*
X0552529Y0235067D02*
X0386211Y0235067D01*
X0386248Y0236665D02*
X0428169Y0236665D01*
X0424083Y0238264D02*
X0385755Y0238264D01*
X0384500Y0239862D02*
X0421746Y0239862D01*
X0420147Y0241461D02*
X0383623Y0241461D01*
X0383623Y0243059D02*
X0418984Y0243059D01*
X0418062Y0244658D02*
X0383623Y0244658D01*
X0383623Y0246256D02*
X0417403Y0246256D01*
X0416974Y0247855D02*
X0383623Y0247855D01*
X0383623Y0249453D02*
X0416623Y0249453D01*
X0416623Y0251052D02*
X0383623Y0251052D01*
X0383623Y0252650D02*
X0416623Y0252650D01*
X0416940Y0254249D02*
X0383623Y0254249D01*
X0383623Y0255847D02*
X0417369Y0255847D01*
X0417988Y0257446D02*
X0383623Y0257446D01*
X0383623Y0259044D02*
X0418911Y0259044D01*
X0420020Y0260643D02*
X0383623Y0260643D01*
X0383623Y0262241D02*
X0421618Y0262241D01*
X0423862Y0263840D02*
X0383623Y0263840D01*
X0383623Y0265438D02*
X0427694Y0265438D01*
X0395695Y0283022D02*
X0391774Y0283022D01*
X0393373Y0284620D02*
X0395579Y0284620D01*
X0396095Y0286219D02*
X0394971Y0286219D01*
X0396570Y0287817D02*
X0397687Y0287817D01*
X0398168Y0289416D02*
X0425380Y0289416D01*
X0423087Y0291015D02*
X0407795Y0291015D01*
X0408894Y0292613D02*
X0422381Y0292613D01*
X0422373Y0294212D02*
X0409179Y0294212D01*
X0408833Y0295810D02*
X0422997Y0295810D01*
X0425111Y0297409D02*
X0407648Y0297409D01*
X0380756Y0278226D02*
X0254766Y0278226D01*
X0256364Y0276628D02*
X0379223Y0276628D01*
X0379223Y0275029D02*
X0257963Y0275029D01*
X0259561Y0273431D02*
X0379223Y0273431D01*
X0379223Y0271832D02*
X0261160Y0271832D01*
X0262758Y0270234D02*
X0379223Y0270234D01*
X0379223Y0268635D02*
X0264357Y0268635D01*
X0265955Y0267037D02*
X0379223Y0267037D01*
X0387353Y0227074D02*
X0115989Y0227074D01*
X0115989Y0225476D02*
X0388951Y0225476D01*
X0390550Y0223877D02*
X0115989Y0223877D01*
X0115989Y0222279D02*
X0392148Y0222279D01*
X0393747Y0220680D02*
X0115989Y0220680D01*
X0115989Y0219081D02*
X0255299Y0219081D01*
X0257862Y0219730D02*
X0257862Y0219730D01*
X0262081Y0219381D02*
X0262081Y0219381D01*
X0262764Y0219081D02*
X0517620Y0219081D01*
X0517277Y0225476D02*
X0395174Y0225476D01*
X0393575Y0227074D02*
X0519630Y0227074D01*
X0450510Y0192958D02*
X0447135Y0194907D01*
X0443371Y0195915D01*
X0396145Y0195915D01*
X0392381Y0194907D01*
X0389006Y0192958D01*
X0382964Y0186916D01*
X0195165Y0186916D01*
X0191401Y0185908D01*
X0188026Y0183959D01*
X0157396Y0153329D01*
X0155448Y0149954D01*
X0154439Y0146190D01*
X0154439Y0111855D01*
X0155448Y0108091D01*
X0157396Y0104716D01*
X0160152Y0101960D01*
X0163527Y0100012D01*
X0167291Y0099003D01*
X0171188Y0099003D01*
X0174952Y0100012D01*
X0178327Y0101960D01*
X0181082Y0104716D01*
X0183031Y0108091D01*
X0184039Y0111855D01*
X0184039Y0138112D01*
X0203244Y0157316D01*
X0391043Y0157316D01*
X0394807Y0158325D01*
X0398182Y0160273D01*
X0400938Y0163029D01*
X0404224Y0166315D01*
X0443371Y0166315D01*
X0447135Y0167324D01*
X0450510Y0169272D01*
X0453266Y0172028D01*
X0455214Y0175403D01*
X0456223Y0179167D01*
X0456223Y0183064D01*
X0455214Y0186828D01*
X0453266Y0190203D01*
X0450510Y0192958D01*
X0449563Y0193505D02*
X0613125Y0193505D01*
X0614723Y0191907D02*
X0451562Y0191907D01*
X0453160Y0190308D02*
X0616322Y0190308D01*
X0617920Y0188710D02*
X0454128Y0188710D01*
X0455051Y0187111D02*
X0519720Y0187111D01*
X0520116Y0187275D02*
X0518342Y0186541D01*
X0516985Y0185183D01*
X0516250Y0183410D01*
X0516250Y0181490D01*
X0516985Y0179717D01*
X0518342Y0178360D01*
X0520116Y0177625D01*
X0522035Y0177625D01*
X0523809Y0178360D01*
X0525166Y0179717D01*
X0525900Y0181490D01*
X0525900Y0183410D01*
X0525166Y0185183D01*
X0523809Y0186541D01*
X0522035Y0187275D01*
X0520116Y0187275D01*
X0522431Y0187111D02*
X0619519Y0187111D01*
X0621117Y0185513D02*
X0524836Y0185513D01*
X0525691Y0183914D02*
X0622716Y0183914D01*
X0624314Y0182316D02*
X0525900Y0182316D01*
X0525580Y0180717D02*
X0574455Y0180717D01*
X0575363Y0181241D02*
X0571988Y0179293D01*
X0548614Y0155919D01*
X0394145Y0155919D01*
X0390381Y0154911D01*
X0387006Y0152962D01*
X0384251Y0150207D01*
X0383340Y0148630D01*
X0367396Y0132686D01*
X0365448Y0129311D01*
X0364439Y0125547D01*
X0364439Y0111855D01*
X0365448Y0108091D01*
X0367396Y0104716D01*
X0370152Y0101960D01*
X0373527Y0100012D01*
X0377291Y0099003D01*
X0381188Y0099003D01*
X0384952Y0100012D01*
X0388327Y0101960D01*
X0391082Y0104716D01*
X0393031Y0108091D01*
X0394039Y0111855D01*
X0394039Y0117468D01*
X0402891Y0126319D01*
X0426436Y0126319D01*
X0425270Y0125646D01*
X0422515Y0122891D01*
X0420566Y0119516D01*
X0419558Y0115752D01*
X0419558Y0113521D01*
X0403629Y0097592D01*
X0261499Y0097592D01*
X0233445Y0125646D01*
X0230070Y0127595D01*
X0226306Y0128603D01*
X0222409Y0128603D01*
X0218645Y0127595D01*
X0215270Y0125646D01*
X0212515Y0122891D01*
X0210566Y0119516D01*
X0209558Y0115752D01*
X0209558Y0111855D01*
X0210566Y0108091D01*
X0212515Y0104716D01*
X0246281Y0070949D01*
X0249656Y0069001D01*
X0253420Y0067992D01*
X0411708Y0067992D01*
X0415472Y0069001D01*
X0418847Y0070949D01*
X0421602Y0073704D01*
X0446201Y0098303D01*
X0446605Y0099003D01*
X0552314Y0099003D01*
X0580076Y0070881D01*
X0583438Y0068910D01*
X0587195Y0067878D01*
X0591092Y0067852D01*
X0594863Y0068837D01*
X0598250Y0070763D01*
X0601023Y0073501D01*
X0602994Y0076863D01*
X0604027Y0080621D01*
X0604052Y0084517D01*
X0603067Y0088288D01*
X0601141Y0091675D01*
X0593907Y0099003D01*
X0627060Y0099003D01*
X0630824Y0100012D01*
X0634199Y0101960D01*
X0636954Y0104716D01*
X0656285Y0124046D01*
X0658233Y0127421D01*
X0659242Y0131185D01*
X0659242Y0135082D01*
X0658233Y0138846D01*
X0656285Y0142221D01*
X0653529Y0144977D01*
X0650154Y0146925D01*
X0646390Y0147934D01*
X0642493Y0147934D01*
X0638729Y0146925D01*
X0635354Y0144977D01*
X0618981Y0128603D01*
X0562666Y0128603D01*
X0563832Y0129276D01*
X0592918Y0158363D01*
X0594867Y0161738D01*
X0595875Y0165502D01*
X0595875Y0169399D01*
X0594867Y0173163D01*
X0592918Y0176538D01*
X0590163Y0179293D01*
X0586788Y0181241D01*
X0583024Y0182250D01*
X0579127Y0182250D01*
X0575363Y0181241D01*
X0571814Y0179119D02*
X0524568Y0179119D01*
X0517583Y0179119D02*
X0456210Y0179119D01*
X0456223Y0180717D02*
X0516571Y0180717D01*
X0516250Y0182316D02*
X0456223Y0182316D01*
X0455995Y0183914D02*
X0516459Y0183914D01*
X0517314Y0185513D02*
X0455567Y0185513D01*
X0455781Y0177520D02*
X0570215Y0177520D01*
X0568617Y0175922D02*
X0455353Y0175922D01*
X0454591Y0174323D02*
X0567018Y0174323D01*
X0565420Y0172725D02*
X0453668Y0172725D01*
X0452364Y0171126D02*
X0563821Y0171126D01*
X0562223Y0169528D02*
X0450765Y0169528D01*
X0448183Y0167929D02*
X0560624Y0167929D01*
X0559026Y0166331D02*
X0443428Y0166331D01*
X0402641Y0164732D02*
X0557427Y0164732D01*
X0555829Y0163134D02*
X0401042Y0163134D01*
X0399444Y0161535D02*
X0554230Y0161535D01*
X0552632Y0159937D02*
X0397599Y0159937D01*
X0394830Y0158338D02*
X0551033Y0158338D01*
X0549434Y0156740D02*
X0202667Y0156740D01*
X0201069Y0155141D02*
X0391241Y0155141D01*
X0388011Y0153543D02*
X0199470Y0153543D01*
X0197872Y0151944D02*
X0385988Y0151944D01*
X0384390Y0150346D02*
X0196273Y0150346D01*
X0194675Y0148747D02*
X0383408Y0148747D01*
X0381859Y0147148D02*
X0193076Y0147148D01*
X0191478Y0145550D02*
X0380261Y0145550D01*
X0378662Y0143951D02*
X0189879Y0143951D01*
X0188281Y0142353D02*
X0377064Y0142353D01*
X0375465Y0140754D02*
X0186682Y0140754D01*
X0185084Y0139156D02*
X0373867Y0139156D01*
X0372268Y0137557D02*
X0184039Y0137557D01*
X0184039Y0135959D02*
X0370670Y0135959D01*
X0369071Y0134360D02*
X0184039Y0134360D01*
X0184039Y0132762D02*
X0367473Y0132762D01*
X0366518Y0131163D02*
X0184039Y0131163D01*
X0184039Y0129565D02*
X0365595Y0129565D01*
X0365088Y0127966D02*
X0228683Y0127966D01*
X0232195Y0126368D02*
X0364659Y0126368D01*
X0364439Y0124769D02*
X0234322Y0124769D01*
X0235920Y0123171D02*
X0364439Y0123171D01*
X0364439Y0121572D02*
X0237519Y0121572D01*
X0239117Y0119974D02*
X0364439Y0119974D01*
X0364439Y0118375D02*
X0240716Y0118375D01*
X0242314Y0116777D02*
X0364439Y0116777D01*
X0364439Y0115178D02*
X0243913Y0115178D01*
X0245511Y0113580D02*
X0364439Y0113580D01*
X0364439Y0111981D02*
X0247110Y0111981D01*
X0248708Y0110383D02*
X0364834Y0110383D01*
X0365262Y0108784D02*
X0250307Y0108784D01*
X0251905Y0107186D02*
X0365970Y0107186D01*
X0366893Y0105587D02*
X0253504Y0105587D01*
X0255102Y0103989D02*
X0368124Y0103989D01*
X0369722Y0102390D02*
X0256701Y0102390D01*
X0258299Y0100792D02*
X0372176Y0100792D01*
X0376582Y0099193D02*
X0259898Y0099193D01*
X0261496Y0097595D02*
X0403632Y0097595D01*
X0405230Y0099193D02*
X0381897Y0099193D01*
X0386303Y0100792D02*
X0406829Y0100792D01*
X0408427Y0102390D02*
X0388757Y0102390D01*
X0390355Y0103989D02*
X0410026Y0103989D01*
X0411624Y0105587D02*
X0391585Y0105587D01*
X0392508Y0107186D02*
X0401925Y0107186D01*
X0402196Y0106915D02*
X0399910Y0109201D01*
X0398673Y0112187D01*
X0398673Y0115419D01*
X0399910Y0118406D01*
X0402196Y0120691D01*
X0405182Y0121928D01*
X0408415Y0121928D01*
X0411401Y0120691D01*
X0413687Y0118406D01*
X0414923Y0115419D01*
X0414923Y0112187D01*
X0413687Y0109201D01*
X0411401Y0106915D01*
X0408415Y0105678D01*
X0405182Y0105678D01*
X0402196Y0106915D01*
X0400327Y0108784D02*
X0393217Y0108784D01*
X0393645Y0110383D02*
X0399421Y0110383D01*
X0398759Y0111981D02*
X0394039Y0111981D01*
X0394039Y0113580D02*
X0398673Y0113580D01*
X0398673Y0115178D02*
X0394039Y0115178D01*
X0394039Y0116777D02*
X0399236Y0116777D01*
X0399898Y0118375D02*
X0394947Y0118375D01*
X0396545Y0119974D02*
X0401479Y0119974D01*
X0404323Y0121572D02*
X0398144Y0121572D01*
X0399742Y0123171D02*
X0422795Y0123171D01*
X0421754Y0121572D02*
X0409274Y0121572D01*
X0412118Y0119974D02*
X0420831Y0119974D01*
X0420261Y0118375D02*
X0413699Y0118375D01*
X0414361Y0116777D02*
X0419832Y0116777D01*
X0419558Y0115178D02*
X0414923Y0115178D01*
X0414923Y0113580D02*
X0419558Y0113580D01*
X0418018Y0111981D02*
X0414838Y0111981D01*
X0414176Y0110383D02*
X0416420Y0110383D01*
X0414821Y0108784D02*
X0413270Y0108784D01*
X0413223Y0107186D02*
X0411671Y0107186D01*
X0442295Y0094398D02*
X0556861Y0094398D01*
X0555283Y0095996D02*
X0443894Y0095996D01*
X0445492Y0097595D02*
X0553705Y0097595D01*
X0558439Y0092799D02*
X0440697Y0092799D01*
X0439098Y0091201D02*
X0560017Y0091201D01*
X0561595Y0089602D02*
X0437500Y0089602D01*
X0435901Y0088004D02*
X0563173Y0088004D01*
X0564751Y0086405D02*
X0434303Y0086405D01*
X0432704Y0084807D02*
X0566329Y0084807D01*
X0567907Y0083208D02*
X0431106Y0083208D01*
X0429507Y0081610D02*
X0569485Y0081610D01*
X0571063Y0080011D02*
X0427909Y0080011D01*
X0426310Y0078413D02*
X0572641Y0078413D01*
X0574219Y0076814D02*
X0424712Y0076814D01*
X0423113Y0075215D02*
X0575797Y0075215D01*
X0577374Y0073617D02*
X0421515Y0073617D01*
X0419916Y0072018D02*
X0578952Y0072018D01*
X0580862Y0070420D02*
X0417930Y0070420D01*
X0414803Y0068821D02*
X0583761Y0068821D01*
X0594805Y0068821D02*
X0638810Y0068821D01*
X0635956Y0070420D02*
X0597647Y0070420D01*
X0599522Y0072018D02*
X0634075Y0072018D01*
X0632500Y0073617D02*
X0601091Y0073617D01*
X0602028Y0075215D02*
X0613577Y0075215D01*
X0612202Y0075785D02*
X0615184Y0074550D01*
X0618413Y0074550D01*
X0621395Y0075785D01*
X0623678Y0078068D01*
X0624913Y0081050D01*
X0624913Y0084279D01*
X0623678Y0087261D01*
X0621395Y0089544D01*
X0618413Y0090780D01*
X0615184Y0090780D01*
X0612202Y0089544D01*
X0609919Y0087261D01*
X0608684Y0084279D01*
X0608684Y0081050D01*
X0609919Y0078068D01*
X0612202Y0075785D01*
X0611173Y0076814D02*
X0602965Y0076814D01*
X0603420Y0078413D02*
X0609776Y0078413D01*
X0609114Y0080011D02*
X0603859Y0080011D01*
X0604033Y0081610D02*
X0608684Y0081610D01*
X0608684Y0083208D02*
X0604043Y0083208D01*
X0603976Y0084807D02*
X0608902Y0084807D01*
X0609564Y0086405D02*
X0603559Y0086405D01*
X0603142Y0088004D02*
X0610661Y0088004D01*
X0612342Y0089602D02*
X0602320Y0089602D01*
X0601411Y0091201D02*
X0632190Y0091201D01*
X0631276Y0089602D02*
X0621255Y0089602D01*
X0622936Y0088004D02*
X0630459Y0088004D01*
X0630038Y0086405D02*
X0624033Y0086405D01*
X0624695Y0084807D02*
X0629616Y0084807D01*
X0629555Y0083208D02*
X0624913Y0083208D01*
X0624913Y0081610D02*
X0629562Y0081610D01*
X0629741Y0080011D02*
X0624483Y0080011D01*
X0623821Y0078413D02*
X0630176Y0078413D01*
X0630637Y0076814D02*
X0622424Y0076814D01*
X0620020Y0075215D02*
X0631569Y0075215D01*
X0633564Y0092799D02*
X0600031Y0092799D01*
X0598454Y0094398D02*
X0635150Y0094398D01*
X0636736Y0095996D02*
X0596876Y0095996D01*
X0595298Y0097595D02*
X0638322Y0097595D01*
X0639908Y0099193D02*
X0627769Y0099193D01*
X0632175Y0100792D02*
X0641493Y0100792D01*
X0643079Y0102390D02*
X0634629Y0102390D01*
X0636227Y0103989D02*
X0644665Y0103989D01*
X0646251Y0105587D02*
X0637826Y0105587D01*
X0639424Y0107186D02*
X0647837Y0107186D01*
X0649423Y0108784D02*
X0641023Y0108784D01*
X0642621Y0110383D02*
X0651008Y0110383D01*
X0652594Y0111981D02*
X0644220Y0111981D01*
X0645818Y0113580D02*
X0654180Y0113580D01*
X0655766Y0115178D02*
X0647417Y0115178D01*
X0649015Y0116777D02*
X0657352Y0116777D01*
X0658938Y0118375D02*
X0650614Y0118375D01*
X0652212Y0119974D02*
X0660523Y0119974D01*
X0662109Y0121572D02*
X0653811Y0121572D01*
X0655409Y0123171D02*
X0663695Y0123171D01*
X0665281Y0124769D02*
X0656702Y0124769D01*
X0657625Y0126368D02*
X0666867Y0126368D01*
X0668453Y0127966D02*
X0658379Y0127966D01*
X0658808Y0129565D02*
X0670039Y0129565D01*
X0671624Y0131163D02*
X0659236Y0131163D01*
X0659242Y0132762D02*
X0673210Y0132762D01*
X0672270Y0134360D02*
X0659242Y0134360D01*
X0659007Y0135959D02*
X0670671Y0135959D01*
X0669073Y0137557D02*
X0658579Y0137557D01*
X0658055Y0139156D02*
X0667474Y0139156D01*
X0665876Y0140754D02*
X0657132Y0140754D01*
X0656153Y0142353D02*
X0664277Y0142353D01*
X0662679Y0143951D02*
X0654554Y0143951D01*
X0652536Y0145550D02*
X0661080Y0145550D01*
X0659481Y0147148D02*
X0649321Y0147148D01*
X0654686Y0151944D02*
X0586500Y0151944D01*
X0588098Y0153543D02*
X0653087Y0153543D01*
X0651489Y0155141D02*
X0589697Y0155141D01*
X0591295Y0156740D02*
X0649890Y0156740D01*
X0648292Y0158338D02*
X0592894Y0158338D01*
X0593827Y0159937D02*
X0646693Y0159937D01*
X0645095Y0161535D02*
X0594750Y0161535D01*
X0595241Y0163134D02*
X0643496Y0163134D01*
X0641898Y0164732D02*
X0595669Y0164732D01*
X0595875Y0166331D02*
X0640299Y0166331D01*
X0638701Y0167929D02*
X0595875Y0167929D01*
X0595841Y0169528D02*
X0637102Y0169528D01*
X0635504Y0171126D02*
X0595412Y0171126D01*
X0594984Y0172725D02*
X0633905Y0172725D01*
X0632307Y0174323D02*
X0594197Y0174323D01*
X0593274Y0175922D02*
X0630708Y0175922D01*
X0629110Y0177520D02*
X0591936Y0177520D01*
X0590337Y0179119D02*
X0627511Y0179119D01*
X0625913Y0180717D02*
X0587696Y0180717D01*
X0609928Y0196702D02*
X0386248Y0196702D01*
X0386248Y0197075D02*
X0385513Y0198849D01*
X0384156Y0200206D01*
X0382382Y0200940D01*
X0380463Y0200940D01*
X0378690Y0200206D01*
X0377332Y0198849D01*
X0376598Y0197075D01*
X0376598Y0195156D01*
X0377332Y0193382D01*
X0378690Y0192025D01*
X0380463Y0191290D01*
X0382382Y0191290D01*
X0384156Y0192025D01*
X0385513Y0193382D01*
X0386248Y0195156D01*
X0386248Y0197075D01*
X0385740Y0198301D02*
X0608329Y0198301D01*
X0606731Y0199899D02*
X0384462Y0199899D01*
X0386226Y0195104D02*
X0393116Y0195104D01*
X0389954Y0193505D02*
X0385564Y0193505D01*
X0383871Y0191907D02*
X0387955Y0191907D01*
X0386356Y0190308D02*
X0215882Y0190308D01*
X0215509Y0189936D02*
X0217955Y0192381D01*
X0217955Y0195840D01*
X0215509Y0198285D01*
X0212051Y0198285D01*
X0209605Y0195840D01*
X0209605Y0192381D01*
X0212051Y0189936D01*
X0215509Y0189936D01*
X0217480Y0191907D02*
X0378975Y0191907D01*
X0377281Y0193505D02*
X0217955Y0193505D01*
X0217955Y0195104D02*
X0253883Y0195104D01*
X0253758Y0195136D02*
X0253758Y0195136D01*
X0251360Y0196702D02*
X0217092Y0196702D01*
X0210467Y0196702D02*
X0207092Y0196702D01*
X0207955Y0195840D02*
X0205509Y0198285D01*
X0202051Y0198285D01*
X0199605Y0195840D01*
X0199605Y0192381D01*
X0202051Y0189936D01*
X0205509Y0189936D01*
X0207955Y0192381D01*
X0207955Y0195840D01*
X0207955Y0195104D02*
X0209605Y0195104D01*
X0209605Y0193505D02*
X0207955Y0193505D01*
X0207480Y0191907D02*
X0210080Y0191907D01*
X0211678Y0190308D02*
X0205882Y0190308D01*
X0201678Y0190308D02*
X0195882Y0190308D01*
X0195509Y0189936D02*
X0197955Y0192381D01*
X0197955Y0195840D01*
X0195509Y0198285D01*
X0192051Y0198285D01*
X0189605Y0195840D01*
X0189605Y0192381D01*
X0192051Y0189936D01*
X0195509Y0189936D01*
X0197480Y0191907D02*
X0200080Y0191907D01*
X0199605Y0193505D02*
X0197955Y0193505D01*
X0197955Y0195104D02*
X0199605Y0195104D01*
X0200467Y0196702D02*
X0197092Y0196702D01*
X0190467Y0196702D02*
X0115989Y0196702D01*
X0115989Y0195104D02*
X0189605Y0195104D01*
X0189605Y0193505D02*
X0115989Y0193505D01*
X0115989Y0191907D02*
X0190080Y0191907D01*
X0191678Y0190308D02*
X0115989Y0190308D01*
X0115989Y0188710D02*
X0384758Y0188710D01*
X0383159Y0187111D02*
X0115989Y0187111D01*
X0115989Y0185513D02*
X0190717Y0185513D01*
X0187981Y0183914D02*
X0115989Y0183914D01*
X0115989Y0182316D02*
X0186383Y0182316D01*
X0184784Y0180717D02*
X0115989Y0180717D01*
X0115989Y0179119D02*
X0183186Y0179119D01*
X0181587Y0177520D02*
X0128475Y0177520D01*
X0128506Y0177489D02*
X0127494Y0178501D01*
X0126170Y0179049D01*
X0124738Y0179049D01*
X0123415Y0178501D01*
X0122402Y0177489D01*
X0121854Y0176165D01*
X0121854Y0174961D01*
X0119544Y0172650D01*
X0118255Y0171361D01*
X0118255Y0148010D01*
X0117403Y0147158D01*
X0116855Y0145835D01*
X0116855Y0144403D01*
X0117403Y0143080D01*
X0118416Y0142067D01*
X0119739Y0141519D01*
X0121171Y0141519D01*
X0122494Y0142067D01*
X0123507Y0143080D01*
X0124055Y0144403D01*
X0124055Y0145835D01*
X0123507Y0147158D01*
X0122655Y0148010D01*
X0122655Y0169539D01*
X0124966Y0171849D01*
X0126170Y0171849D01*
X0127494Y0172397D01*
X0128506Y0173410D01*
X0129054Y0174733D01*
X0129054Y0176165D01*
X0128506Y0177489D01*
X0129054Y0175922D02*
X0179989Y0175922D01*
X0178390Y0174323D02*
X0128884Y0174323D01*
X0127821Y0172725D02*
X0176792Y0172725D01*
X0175193Y0171126D02*
X0124242Y0171126D01*
X0122655Y0169528D02*
X0173595Y0169528D01*
X0171996Y0167929D02*
X0149542Y0167929D01*
X0149182Y0168288D02*
X0145724Y0168288D01*
X0143278Y0165843D01*
X0143278Y0162384D01*
X0145724Y0159939D01*
X0149182Y0159939D01*
X0151628Y0162384D01*
X0151628Y0165843D01*
X0149182Y0168288D01*
X0151140Y0166331D02*
X0170398Y0166331D01*
X0168799Y0164732D02*
X0151628Y0164732D01*
X0151628Y0163134D02*
X0167201Y0163134D01*
X0165602Y0161535D02*
X0150779Y0161535D01*
X0144128Y0161535D02*
X0140779Y0161535D01*
X0141628Y0162384D02*
X0139182Y0159939D01*
X0135724Y0159939D01*
X0133278Y0162384D01*
X0133278Y0165843D01*
X0135724Y0168288D01*
X0139182Y0168288D01*
X0141628Y0165843D01*
X0141628Y0162384D01*
X0141628Y0163134D02*
X0143278Y0163134D01*
X0143278Y0164732D02*
X0141628Y0164732D01*
X0141140Y0166331D02*
X0143766Y0166331D01*
X0145365Y0167929D02*
X0139542Y0167929D01*
X0135365Y0167929D02*
X0129542Y0167929D01*
X0129182Y0168288D02*
X0125724Y0168288D01*
X0123278Y0165843D01*
X0123278Y0162384D01*
X0125724Y0159939D01*
X0129182Y0159939D01*
X0131628Y0162384D01*
X0131628Y0165843D01*
X0129182Y0168288D01*
X0131140Y0166331D02*
X0133766Y0166331D01*
X0133278Y0164732D02*
X0131628Y0164732D01*
X0131628Y0163134D02*
X0133278Y0163134D01*
X0134128Y0161535D02*
X0130779Y0161535D01*
X0124128Y0161535D02*
X0122655Y0161535D01*
X0122655Y0159937D02*
X0164004Y0159937D01*
X0162405Y0158338D02*
X0122655Y0158338D01*
X0122655Y0156740D02*
X0160807Y0156740D01*
X0159208Y0155141D02*
X0122655Y0155141D01*
X0122655Y0153543D02*
X0157610Y0153543D01*
X0156597Y0151944D02*
X0122655Y0151944D01*
X0122655Y0150346D02*
X0155674Y0150346D01*
X0155124Y0148747D02*
X0122655Y0148747D01*
X0123511Y0147148D02*
X0154696Y0147148D01*
X0154439Y0145550D02*
X0124055Y0145550D01*
X0123868Y0143951D02*
X0154439Y0143951D01*
X0154439Y0142353D02*
X0122780Y0142353D01*
X0118130Y0142353D02*
X0091325Y0142353D01*
X0091325Y0143951D02*
X0117042Y0143951D01*
X0116855Y0145550D02*
X0091325Y0145550D01*
X0091325Y0147148D02*
X0117399Y0147148D01*
X0118255Y0148747D02*
X0091325Y0148747D01*
X0091325Y0150346D02*
X0118255Y0150346D01*
X0118255Y0151944D02*
X0091325Y0151944D01*
X0091325Y0153543D02*
X0118255Y0153543D01*
X0118255Y0155141D02*
X0091325Y0155141D01*
X0091325Y0155560D02*
X0092177Y0156412D01*
X0092725Y0157735D01*
X0092725Y0159167D01*
X0092177Y0160490D01*
X0091164Y0161503D01*
X0089841Y0162051D01*
X0088409Y0162051D01*
X0087085Y0161503D01*
X0086073Y0160490D01*
X0085525Y0159167D01*
X0085525Y0157735D01*
X0086073Y0156412D01*
X0086925Y0155560D01*
X0086925Y0118346D01*
X0086073Y0117495D01*
X0085525Y0116171D01*
X0085525Y0114739D01*
X0086073Y0113416D01*
X0087085Y0112403D01*
X0088409Y0111855D01*
X0089841Y0111855D01*
X0091164Y0112403D01*
X0092177Y0113416D01*
X0092725Y0114739D01*
X0092725Y0116171D01*
X0092177Y0117495D01*
X0091325Y0118346D01*
X0091325Y0155560D01*
X0092312Y0156740D02*
X0118255Y0156740D01*
X0118255Y0158338D02*
X0092725Y0158338D01*
X0092406Y0159937D02*
X0118255Y0159937D01*
X0118255Y0161535D02*
X0091086Y0161535D01*
X0087163Y0161535D02*
X0053328Y0161535D01*
X0053328Y0159937D02*
X0085843Y0159937D01*
X0085525Y0158338D02*
X0053328Y0158338D01*
X0053328Y0156740D02*
X0085937Y0156740D01*
X0086925Y0155141D02*
X0053328Y0155141D01*
X0053328Y0153543D02*
X0086925Y0153543D01*
X0086925Y0151944D02*
X0053328Y0151944D01*
X0053328Y0150346D02*
X0086925Y0150346D01*
X0086925Y0148747D02*
X0053328Y0148747D01*
X0053328Y0147148D02*
X0086925Y0147148D01*
X0086925Y0145550D02*
X0053328Y0145550D01*
X0053328Y0143951D02*
X0086925Y0143951D01*
X0086925Y0142353D02*
X0053328Y0142353D01*
X0053328Y0140754D02*
X0086925Y0140754D01*
X0086925Y0139156D02*
X0053328Y0139156D01*
X0053328Y0137557D02*
X0086925Y0137557D01*
X0086925Y0135959D02*
X0053328Y0135959D01*
X0053328Y0134360D02*
X0086925Y0134360D01*
X0086925Y0132762D02*
X0053328Y0132762D01*
X0053328Y0131163D02*
X0086925Y0131163D01*
X0086925Y0129565D02*
X0083250Y0129565D01*
X0082856Y0129959D02*
X0085301Y0127513D01*
X0085301Y0124055D01*
X0082856Y0121609D01*
X0079397Y0121609D01*
X0076952Y0124055D01*
X0076952Y0127513D01*
X0079397Y0129959D01*
X0082856Y0129959D01*
X0084848Y0127966D02*
X0086925Y0127966D01*
X0086925Y0126368D02*
X0085301Y0126368D01*
X0085301Y0124769D02*
X0086925Y0124769D01*
X0086925Y0123171D02*
X0084417Y0123171D01*
X0086925Y0121572D02*
X0053328Y0121572D01*
X0053328Y0119974D02*
X0086925Y0119974D01*
X0086925Y0118375D02*
X0053328Y0118375D01*
X0053328Y0116777D02*
X0085775Y0116777D01*
X0085525Y0115178D02*
X0053328Y0115178D01*
X0053328Y0113580D02*
X0086005Y0113580D01*
X0088104Y0111981D02*
X0053328Y0111981D01*
X0053328Y0110383D02*
X0154834Y0110383D01*
X0154439Y0111981D02*
X0090145Y0111981D01*
X0092244Y0113580D02*
X0154439Y0113580D01*
X0154439Y0115178D02*
X0092725Y0115178D01*
X0092474Y0116777D02*
X0154439Y0116777D01*
X0154439Y0118375D02*
X0091325Y0118375D01*
X0091325Y0119974D02*
X0154439Y0119974D01*
X0154439Y0121572D02*
X0091325Y0121572D01*
X0091325Y0123171D02*
X0154439Y0123171D01*
X0154439Y0124769D02*
X0091325Y0124769D01*
X0091325Y0126368D02*
X0154439Y0126368D01*
X0154439Y0127966D02*
X0091325Y0127966D01*
X0091325Y0129565D02*
X0154439Y0129565D01*
X0154439Y0131163D02*
X0091325Y0131163D01*
X0091325Y0132762D02*
X0154439Y0132762D01*
X0154439Y0134360D02*
X0091325Y0134360D01*
X0091325Y0135959D02*
X0154439Y0135959D01*
X0154439Y0137557D02*
X0091325Y0137557D01*
X0091325Y0139156D02*
X0154439Y0139156D01*
X0154439Y0140754D02*
X0091325Y0140754D01*
X0075301Y0127513D02*
X0072856Y0129959D01*
X0069397Y0129959D01*
X0066952Y0127513D01*
X0066952Y0124055D01*
X0069397Y0121609D01*
X0072856Y0121609D01*
X0075301Y0124055D01*
X0075301Y0127513D01*
X0074848Y0127966D02*
X0077405Y0127966D01*
X0076952Y0126368D02*
X0075301Y0126368D01*
X0075301Y0124769D02*
X0076952Y0124769D01*
X0077836Y0123171D02*
X0074417Y0123171D01*
X0067836Y0123171D02*
X0064417Y0123171D01*
X0065301Y0124055D02*
X0062856Y0121609D01*
X0059397Y0121609D01*
X0056952Y0124055D01*
X0056952Y0127513D01*
X0059397Y0129959D01*
X0062856Y0129959D01*
X0065301Y0127513D01*
X0065301Y0124055D01*
X0065301Y0124769D02*
X0066952Y0124769D01*
X0066952Y0126368D02*
X0065301Y0126368D01*
X0064848Y0127966D02*
X0067405Y0127966D01*
X0069003Y0129565D02*
X0063250Y0129565D01*
X0059003Y0129565D02*
X0053328Y0129565D01*
X0053328Y0127966D02*
X0057405Y0127966D01*
X0056952Y0126368D02*
X0053328Y0126368D01*
X0053328Y0124769D02*
X0056952Y0124769D01*
X0057836Y0123171D02*
X0053328Y0123171D01*
X0048928Y0123171D02*
X0048748Y0123171D01*
X0048748Y0124769D02*
X0048928Y0124769D01*
X0048928Y0126368D02*
X0048748Y0126368D01*
X0048748Y0127966D02*
X0048928Y0127966D01*
X0048928Y0129565D02*
X0048748Y0129565D01*
X0048748Y0131163D02*
X0048928Y0131163D01*
X0048928Y0132762D02*
X0048748Y0132762D01*
X0048748Y0134360D02*
X0048928Y0134360D01*
X0048928Y0135959D02*
X0048748Y0135959D01*
X0048748Y0137557D02*
X0048928Y0137557D01*
X0048928Y0139156D02*
X0048748Y0139156D01*
X0048748Y0140754D02*
X0048928Y0140754D01*
X0048928Y0142353D02*
X0048748Y0142353D01*
X0048748Y0143951D02*
X0048928Y0143951D01*
X0048928Y0145550D02*
X0048748Y0145550D01*
X0048748Y0147148D02*
X0048928Y0147148D01*
X0048928Y0148747D02*
X0048748Y0148747D01*
X0048748Y0150346D02*
X0048928Y0150346D01*
X0048928Y0151944D02*
X0048748Y0151944D01*
X0048748Y0153543D02*
X0048928Y0153543D01*
X0048928Y0155141D02*
X0048748Y0155141D01*
X0048748Y0156740D02*
X0048928Y0156740D01*
X0048928Y0158338D02*
X0048748Y0158338D01*
X0048748Y0159937D02*
X0048928Y0159937D01*
X0048928Y0161535D02*
X0048748Y0161535D01*
X0048748Y0163134D02*
X0048928Y0163134D01*
X0048928Y0164732D02*
X0048748Y0164732D01*
X0048748Y0166331D02*
X0048928Y0166331D01*
X0048928Y0167929D02*
X0048748Y0167929D01*
X0048748Y0169528D02*
X0048928Y0169528D01*
X0048928Y0171126D02*
X0048748Y0171126D01*
X0048748Y0172725D02*
X0048928Y0172725D01*
X0048928Y0174323D02*
X0048748Y0174323D01*
X0048748Y0175922D02*
X0048928Y0175922D01*
X0048928Y0177520D02*
X0048748Y0177520D01*
X0048748Y0179119D02*
X0048928Y0179119D01*
X0048928Y0180717D02*
X0048748Y0180717D01*
X0048748Y0182316D02*
X0048928Y0182316D01*
X0048928Y0183914D02*
X0048748Y0183914D01*
X0048748Y0185513D02*
X0048928Y0185513D01*
X0048928Y0187111D02*
X0048748Y0187111D01*
X0048748Y0188710D02*
X0048928Y0188710D01*
X0048928Y0190308D02*
X0048748Y0190308D01*
X0048748Y0191907D02*
X0048928Y0191907D01*
X0048928Y0193505D02*
X0048748Y0193505D01*
X0048748Y0195104D02*
X0048928Y0195104D01*
X0048928Y0196702D02*
X0048748Y0196702D01*
X0048748Y0198301D02*
X0048928Y0198301D01*
X0048928Y0199899D02*
X0048748Y0199899D01*
X0048748Y0201498D02*
X0048928Y0201498D01*
X0048928Y0203096D02*
X0048748Y0203096D01*
X0048748Y0204695D02*
X0048928Y0204695D01*
X0048928Y0206293D02*
X0048748Y0206293D01*
X0048748Y0207892D02*
X0048928Y0207892D01*
X0048928Y0209490D02*
X0048748Y0209490D01*
X0048748Y0211089D02*
X0048928Y0211089D01*
X0048928Y0212687D02*
X0048748Y0212687D01*
X0048748Y0214286D02*
X0048928Y0214286D01*
X0048928Y0215884D02*
X0048748Y0215884D01*
X0048748Y0217483D02*
X0048928Y0217483D01*
X0048928Y0219081D02*
X0048748Y0219081D01*
X0048748Y0220680D02*
X0048928Y0220680D01*
X0048928Y0222279D02*
X0048748Y0222279D01*
X0048748Y0223877D02*
X0048928Y0223877D01*
X0048928Y0225476D02*
X0048748Y0225476D01*
X0048748Y0227074D02*
X0048928Y0227074D01*
X0048928Y0228673D02*
X0048748Y0228673D01*
X0048748Y0230271D02*
X0048928Y0230271D01*
X0048928Y0231870D02*
X0048748Y0231870D01*
X0048748Y0233468D02*
X0048928Y0233468D01*
X0048928Y0235067D02*
X0048748Y0235067D01*
X0048748Y0236665D02*
X0048928Y0236665D01*
X0048928Y0238264D02*
X0048748Y0238264D01*
X0048748Y0239862D02*
X0048928Y0239862D01*
X0048928Y0241461D02*
X0048748Y0241461D01*
X0048748Y0243059D02*
X0048928Y0243059D01*
X0048928Y0244658D02*
X0048748Y0244658D01*
X0048748Y0246256D02*
X0048928Y0246256D01*
X0048928Y0247855D02*
X0048748Y0247855D01*
X0048748Y0249453D02*
X0048928Y0249453D01*
X0048928Y0251052D02*
X0048748Y0251052D01*
X0048748Y0252650D02*
X0048928Y0252650D01*
X0048928Y0254249D02*
X0048748Y0254249D01*
X0048748Y0255847D02*
X0048928Y0255847D01*
X0048928Y0257446D02*
X0048748Y0257446D01*
X0048748Y0259044D02*
X0048928Y0259044D01*
X0048928Y0260643D02*
X0048748Y0260643D01*
X0048748Y0262241D02*
X0048928Y0262241D01*
X0048928Y0263840D02*
X0048748Y0263840D01*
X0048748Y0265438D02*
X0048928Y0265438D01*
X0048928Y0267037D02*
X0048748Y0267037D01*
X0048748Y0268635D02*
X0048928Y0268635D01*
X0048928Y0270234D02*
X0048748Y0270234D01*
X0048748Y0271832D02*
X0048928Y0271832D01*
X0048928Y0273431D02*
X0048748Y0273431D01*
X0048748Y0275029D02*
X0048928Y0275029D01*
X0048928Y0276628D02*
X0048748Y0276628D01*
X0048748Y0278226D02*
X0049138Y0278226D01*
X0048748Y0279825D02*
X0050736Y0279825D01*
X0052261Y0281423D02*
X0048748Y0281423D01*
X0048748Y0283022D02*
X0052261Y0283022D01*
X0052261Y0284620D02*
X0048748Y0284620D01*
X0048748Y0286219D02*
X0052261Y0286219D01*
X0052261Y0287817D02*
X0048748Y0287817D01*
X0049751Y0289416D02*
X0049751Y0289416D01*
X0049751Y0291015D02*
X0049751Y0291015D01*
X0049751Y0292465D02*
X0049751Y0296446D01*
X0049359Y0296446D01*
X0048590Y0296293D01*
X0047866Y0295993D01*
X0047213Y0295557D01*
X0046996Y0295339D01*
X0046996Y0299873D01*
X0047609Y0299259D01*
X0048999Y0298684D01*
X0050421Y0298684D01*
X0052261Y0296843D01*
X0052261Y0295575D01*
X0051637Y0295993D01*
X0050913Y0296293D01*
X0050143Y0296446D01*
X0049751Y0296446D01*
X0049751Y0292465D01*
X0049751Y0292465D01*
X0049751Y0292613D02*
X0049751Y0292613D01*
X0049751Y0294212D02*
X0049751Y0294212D01*
X0049751Y0295810D02*
X0049751Y0295810D01*
X0047592Y0295810D02*
X0046996Y0295810D01*
X0046996Y0297409D02*
X0051696Y0297409D01*
X0051910Y0295810D02*
X0052261Y0295810D01*
X0056661Y0295810D02*
X0057947Y0295810D01*
X0056661Y0297409D02*
X0111696Y0297409D01*
X0111555Y0295810D02*
X0113295Y0295810D01*
X0112957Y0294606D02*
X0111893Y0295670D01*
X0110503Y0296246D01*
X0108999Y0296246D01*
X0107609Y0295670D01*
X0106546Y0294606D01*
X0105970Y0293217D01*
X0105970Y0291712D01*
X0106546Y0290323D01*
X0107609Y0289259D01*
X0108999Y0288684D01*
X0110503Y0288684D01*
X0111893Y0289259D01*
X0112957Y0290323D01*
X0113532Y0291712D01*
X0113532Y0293217D01*
X0112957Y0294606D01*
X0113120Y0294212D02*
X0116166Y0294212D01*
X0115770Y0292613D02*
X0113532Y0292613D01*
X0113243Y0291015D02*
X0116043Y0291015D01*
X0115923Y0291303D02*
X0116223Y0290579D01*
X0116659Y0289927D01*
X0117213Y0289372D01*
X0117866Y0288937D01*
X0118590Y0288636D01*
X0119359Y0288484D01*
X0119751Y0288484D01*
X0119751Y0292464D01*
X0119751Y0292464D01*
X0119751Y0292465D02*
X0115770Y0292465D01*
X0115770Y0292072D01*
X0115923Y0291303D01*
X0117170Y0289416D02*
X0112050Y0289416D01*
X0107453Y0289416D02*
X0102050Y0289416D01*
X0101893Y0289259D02*
X0102957Y0290323D01*
X0103532Y0291712D01*
X0103532Y0293217D01*
X0102957Y0294606D01*
X0101893Y0295670D01*
X0100503Y0296246D01*
X0098999Y0296246D01*
X0097609Y0295670D01*
X0096546Y0294606D01*
X0095970Y0293217D01*
X0095970Y0291712D01*
X0096546Y0290323D01*
X0097609Y0289259D01*
X0098999Y0288684D01*
X0100503Y0288684D01*
X0101893Y0289259D01*
X0103243Y0291015D02*
X0106259Y0291015D01*
X0105970Y0292613D02*
X0103532Y0292613D01*
X0103120Y0294212D02*
X0106382Y0294212D01*
X0107947Y0295810D02*
X0101555Y0295810D01*
X0100913Y0298636D02*
X0101637Y0298937D01*
X0102289Y0299372D01*
X0102844Y0299927D01*
X0103279Y0300579D01*
X0103579Y0301303D01*
X0103732Y0302072D01*
X0103732Y0302465D01*
X0099751Y0302465D01*
X0095770Y0302465D01*
X0095770Y0302072D01*
X0095923Y0301303D01*
X0096223Y0300579D01*
X0096659Y0299927D01*
X0097213Y0299372D01*
X0097866Y0298937D01*
X0098590Y0298636D01*
X0099359Y0298484D01*
X0099751Y0298484D01*
X0099751Y0302464D01*
X0099751Y0302464D01*
X0099751Y0298484D01*
X0100143Y0298484D01*
X0100913Y0298636D01*
X0101743Y0299007D02*
X0108218Y0299007D01*
X0106429Y0300606D02*
X0103290Y0300606D01*
X0103732Y0302204D02*
X0105970Y0302204D01*
X0106213Y0303803D02*
X0103506Y0303803D01*
X0099751Y0302465D02*
X0099751Y0302465D01*
X0099751Y0302204D02*
X0099751Y0302204D01*
X0099751Y0300606D02*
X0099751Y0300606D01*
X0099751Y0299007D02*
X0099751Y0299007D01*
X0097760Y0299007D02*
X0091285Y0299007D01*
X0093074Y0300606D02*
X0096212Y0300606D01*
X0095770Y0302204D02*
X0093532Y0302204D01*
X0093935Y0303803D02*
X0095996Y0303803D01*
X0088218Y0299007D02*
X0081743Y0299007D01*
X0081637Y0298937D02*
X0082289Y0299372D01*
X0082844Y0299927D01*
X0083279Y0300579D01*
X0083579Y0301303D01*
X0083732Y0302072D01*
X0083732Y0302465D01*
X0079751Y0302465D01*
X0075770Y0302465D01*
X0075770Y0302072D01*
X0075923Y0301303D01*
X0076223Y0300579D01*
X0076659Y0299927D01*
X0077213Y0299372D01*
X0077866Y0298937D01*
X0078590Y0298636D01*
X0079359Y0298484D01*
X0079751Y0298484D01*
X0079751Y0302464D01*
X0079751Y0302464D01*
X0079751Y0298484D01*
X0080143Y0298484D01*
X0080913Y0298636D01*
X0081637Y0298937D01*
X0079751Y0299007D02*
X0079751Y0299007D01*
X0079751Y0300606D02*
X0079751Y0300606D01*
X0079751Y0302204D02*
X0079751Y0302204D01*
X0079751Y0302465D02*
X0079751Y0302465D01*
X0075996Y0303803D02*
X0073290Y0303803D01*
X0073532Y0302204D02*
X0075770Y0302204D01*
X0076212Y0300606D02*
X0073074Y0300606D01*
X0071285Y0299007D02*
X0077760Y0299007D01*
X0078999Y0296246D02*
X0077609Y0295670D01*
X0076546Y0294606D01*
X0075970Y0293217D01*
X0075970Y0291712D01*
X0076546Y0290323D01*
X0077609Y0289259D01*
X0078999Y0288684D01*
X0080503Y0288684D01*
X0081893Y0289259D01*
X0082957Y0290323D01*
X0083532Y0291712D01*
X0083532Y0293217D01*
X0082957Y0294606D01*
X0081893Y0295670D01*
X0080503Y0296246D01*
X0078999Y0296246D01*
X0077947Y0295810D02*
X0071555Y0295810D01*
X0071893Y0295670D02*
X0070503Y0296246D01*
X0068999Y0296246D01*
X0067609Y0295670D01*
X0066546Y0294606D01*
X0065970Y0293217D01*
X0065970Y0291712D01*
X0066546Y0290323D01*
X0067609Y0289259D01*
X0068999Y0288684D01*
X0070503Y0288684D01*
X0071893Y0289259D01*
X0072957Y0290323D01*
X0073532Y0291712D01*
X0073532Y0293217D01*
X0072957Y0294606D01*
X0071893Y0295670D01*
X0073120Y0294212D02*
X0076382Y0294212D01*
X0075970Y0292613D02*
X0073532Y0292613D01*
X0073243Y0291015D02*
X0076259Y0291015D01*
X0077453Y0289416D02*
X0072050Y0289416D01*
X0069108Y0286219D02*
X0133253Y0286219D01*
X0133253Y0287817D02*
X0067510Y0287817D01*
X0067453Y0289416D02*
X0065911Y0289416D01*
X0066259Y0291015D02*
X0064313Y0291015D01*
X0063532Y0292613D02*
X0065970Y0292613D01*
X0066382Y0294212D02*
X0063120Y0294212D01*
X0061555Y0295810D02*
X0067947Y0295810D01*
X0068218Y0299007D02*
X0061285Y0299007D01*
X0063074Y0300606D02*
X0066429Y0300606D01*
X0065970Y0302204D02*
X0063532Y0302204D01*
X0063290Y0303803D02*
X0066213Y0303803D01*
X0058218Y0299007D02*
X0056320Y0299007D01*
X0056429Y0300606D02*
X0054722Y0300606D01*
X0053532Y0302204D02*
X0055970Y0302204D01*
X0056213Y0303803D02*
X0053290Y0303803D01*
X0048218Y0299007D02*
X0046996Y0299007D01*
X0042596Y0292613D02*
X0042377Y0292613D01*
X0042596Y0291015D02*
X0041511Y0291015D01*
X0040565Y0289416D02*
X0042596Y0289416D01*
X0043305Y0287817D02*
X0038829Y0287817D01*
X0036521Y0286219D02*
X0044348Y0286219D01*
X0044348Y0284620D02*
X0019098Y0284620D01*
X0019098Y0283022D02*
X0044348Y0283022D01*
X0044348Y0281423D02*
X0019098Y0281423D01*
X0019098Y0279825D02*
X0044348Y0279825D01*
X0044348Y0278226D02*
X0019098Y0278226D01*
X0019098Y0276628D02*
X0044348Y0276628D01*
X0044348Y0275029D02*
X0019098Y0275029D01*
X0019098Y0273431D02*
X0044348Y0273431D01*
X0044348Y0271832D02*
X0019098Y0271832D01*
X0019098Y0270234D02*
X0044348Y0270234D01*
X0044348Y0268635D02*
X0019098Y0268635D01*
X0019098Y0267037D02*
X0044348Y0267037D01*
X0044348Y0265438D02*
X0019098Y0265438D01*
X0019098Y0263840D02*
X0044348Y0263840D01*
X0044348Y0262241D02*
X0019098Y0262241D01*
X0019098Y0260643D02*
X0025908Y0260643D01*
X0025197Y0259044D02*
X0019098Y0259044D01*
X0019098Y0257446D02*
X0024691Y0257446D01*
X0023092Y0255847D02*
X0019098Y0255847D01*
X0019098Y0254249D02*
X0021494Y0254249D01*
X0020265Y0252650D02*
X0019098Y0252650D01*
X0019098Y0251052D02*
X0020265Y0251052D01*
X0020265Y0249453D02*
X0019098Y0249453D01*
X0019098Y0247855D02*
X0020265Y0247855D01*
X0020265Y0246256D02*
X0019098Y0246256D01*
X0019098Y0244658D02*
X0020265Y0244658D01*
X0019656Y0243059D02*
X0019098Y0243059D01*
X0019098Y0238264D02*
X0019886Y0238264D01*
X0019098Y0236665D02*
X0044348Y0236665D01*
X0044348Y0235067D02*
X0019098Y0235067D01*
X0019098Y0233468D02*
X0044348Y0233468D01*
X0044348Y0231870D02*
X0019098Y0231870D01*
X0019098Y0230271D02*
X0044348Y0230271D01*
X0044348Y0228673D02*
X0019098Y0228673D01*
X0019098Y0227074D02*
X0044348Y0227074D01*
X0044348Y0225476D02*
X0019098Y0225476D01*
X0019098Y0223877D02*
X0044348Y0223877D01*
X0044348Y0222279D02*
X0019098Y0222279D01*
X0019098Y0220680D02*
X0044348Y0220680D01*
X0044348Y0219081D02*
X0034418Y0219081D01*
X0037827Y0217483D02*
X0044348Y0217483D01*
X0044348Y0215884D02*
X0039563Y0215884D01*
X0041012Y0214286D02*
X0044348Y0214286D01*
X0044348Y0209490D02*
X0043009Y0209490D01*
X0043276Y0207892D02*
X0044348Y0207892D01*
X0044348Y0206293D02*
X0043336Y0206293D01*
X0043069Y0204695D02*
X0044348Y0204695D01*
X0044348Y0203096D02*
X0042802Y0203096D01*
X0042071Y0201498D02*
X0044348Y0201498D01*
X0044348Y0199899D02*
X0041206Y0199899D01*
X0039952Y0198301D02*
X0044348Y0198301D01*
X0044348Y0196702D02*
X0038216Y0196702D01*
X0035235Y0195104D02*
X0044348Y0195104D01*
X0044348Y0193505D02*
X0019098Y0193505D01*
X0019098Y0191907D02*
X0044348Y0191907D01*
X0044348Y0190308D02*
X0019098Y0190308D01*
X0019098Y0188710D02*
X0044348Y0188710D01*
X0044348Y0187111D02*
X0019098Y0187111D01*
X0019098Y0185513D02*
X0044348Y0185513D01*
X0044348Y0183914D02*
X0019098Y0183914D01*
X0019098Y0182316D02*
X0044348Y0182316D01*
X0044348Y0180717D02*
X0019098Y0180717D01*
X0019098Y0179119D02*
X0044348Y0179119D01*
X0044348Y0177520D02*
X0019098Y0177520D01*
X0019098Y0175922D02*
X0044348Y0175922D01*
X0044348Y0174323D02*
X0019098Y0174323D01*
X0019098Y0172725D02*
X0044348Y0172725D01*
X0044348Y0171126D02*
X0019098Y0171126D01*
X0019098Y0169528D02*
X0044348Y0169528D01*
X0044348Y0167929D02*
X0019098Y0167929D01*
X0019098Y0166331D02*
X0044348Y0166331D01*
X0044348Y0164732D02*
X0019098Y0164732D01*
X0019098Y0163134D02*
X0044348Y0163134D01*
X0044348Y0161535D02*
X0019098Y0161535D01*
X0019098Y0159937D02*
X0044348Y0159937D01*
X0044348Y0158338D02*
X0019098Y0158338D01*
X0019098Y0156740D02*
X0044348Y0156740D01*
X0044348Y0155141D02*
X0019098Y0155141D01*
X0019098Y0153543D02*
X0044348Y0153543D01*
X0044348Y0151944D02*
X0019098Y0151944D01*
X0019098Y0150346D02*
X0044348Y0150346D01*
X0044348Y0148747D02*
X0019098Y0148747D01*
X0019098Y0147148D02*
X0044348Y0147148D01*
X0044348Y0145550D02*
X0019098Y0145550D01*
X0019098Y0143951D02*
X0044348Y0143951D01*
X0044348Y0142353D02*
X0019098Y0142353D01*
X0019098Y0140754D02*
X0044348Y0140754D01*
X0044348Y0139156D02*
X0019098Y0139156D01*
X0019098Y0137557D02*
X0044348Y0137557D01*
X0044348Y0135959D02*
X0019098Y0135959D01*
X0019098Y0134360D02*
X0044348Y0134360D01*
X0044348Y0132762D02*
X0019098Y0132762D01*
X0019098Y0131163D02*
X0044348Y0131163D01*
X0044348Y0129565D02*
X0019098Y0129565D01*
X0019098Y0127966D02*
X0044348Y0127966D01*
X0044348Y0126368D02*
X0019098Y0126368D01*
X0019098Y0124769D02*
X0044348Y0124769D01*
X0044348Y0123171D02*
X0019098Y0123171D01*
X0019098Y0121572D02*
X0044348Y0121572D01*
X0044348Y0119974D02*
X0019098Y0119974D01*
X0019098Y0118375D02*
X0044348Y0118375D01*
X0044348Y0116777D02*
X0019098Y0116777D01*
X0019098Y0115178D02*
X0028732Y0115178D01*
X0032607Y0115178D02*
X0044348Y0115178D01*
X0044348Y0113580D02*
X0037009Y0113580D01*
X0039420Y0111981D02*
X0044348Y0111981D01*
X0044348Y0110383D02*
X0040664Y0110383D01*
X0041908Y0108784D02*
X0044348Y0108784D01*
X0044348Y0107186D02*
X0042515Y0107186D01*
X0043063Y0105587D02*
X0044348Y0105587D01*
X0044348Y0103989D02*
X0043401Y0103989D01*
X0043401Y0102390D02*
X0044348Y0102390D01*
X0044348Y0100792D02*
X0043401Y0100792D01*
X0043012Y0099193D02*
X0044348Y0099193D01*
X0044348Y0097595D02*
X0042463Y0097595D01*
X0041792Y0095996D02*
X0044348Y0095996D01*
X0044348Y0094398D02*
X0040548Y0094398D01*
X0039228Y0092799D02*
X0044348Y0092799D01*
X0044348Y0091201D02*
X0036781Y0091201D01*
X0032019Y0089602D02*
X0044348Y0089602D01*
X0044348Y0088004D02*
X0019098Y0088004D01*
X0019098Y0089602D02*
X0030528Y0089602D01*
X0024336Y0091201D02*
X0019098Y0091201D01*
X0019098Y0092799D02*
X0022145Y0092799D01*
X0020408Y0094398D02*
X0019098Y0094398D01*
X0019098Y0095996D02*
X0019499Y0095996D01*
X0019098Y0086405D02*
X0044348Y0086405D01*
X0044348Y0084807D02*
X0019098Y0084807D01*
X0019098Y0083208D02*
X0044348Y0083208D01*
X0044348Y0081610D02*
X0019098Y0081610D01*
X0019098Y0080011D02*
X0044348Y0080011D01*
X0044348Y0078413D02*
X0019098Y0078413D01*
X0019098Y0076814D02*
X0044348Y0076814D01*
X0044348Y0075215D02*
X0019098Y0075215D01*
X0019098Y0073617D02*
X0044348Y0073617D01*
X0044348Y0072018D02*
X0019098Y0072018D01*
X0019098Y0070420D02*
X0044348Y0070420D01*
X0044348Y0068821D02*
X0019098Y0068821D01*
X0019098Y0067223D02*
X0044348Y0067223D01*
X0044348Y0065624D02*
X0019098Y0065624D01*
X0019098Y0064026D02*
X0044348Y0064026D01*
X0044348Y0062427D02*
X0019098Y0062427D01*
X0019098Y0060829D02*
X0036472Y0060829D01*
X0034417Y0059230D02*
X0019098Y0059230D01*
X0019098Y0057632D02*
X0033744Y0057632D01*
X0033698Y0056033D02*
X0019098Y0056033D01*
X0019098Y0054435D02*
X0034219Y0054435D01*
X0035563Y0052836D02*
X0019098Y0052836D01*
X0019098Y0051238D02*
X0106988Y0051238D01*
X0106559Y0052836D02*
X0074034Y0052836D01*
X0075378Y0054435D02*
X0106558Y0054435D01*
X0106603Y0056033D02*
X0075898Y0056033D01*
X0075853Y0057632D02*
X0107031Y0057632D01*
X0107594Y0059230D02*
X0075180Y0059230D01*
X0073125Y0060829D02*
X0108517Y0060829D01*
X0109868Y0062427D02*
X0048748Y0062427D01*
X0048748Y0060829D02*
X0052513Y0060829D01*
X0054598Y0060829D02*
X0054998Y0060829D01*
X0054998Y0059230D02*
X0054598Y0059230D01*
X0054598Y0057632D02*
X0054998Y0057632D01*
X0054998Y0056033D02*
X0054598Y0056033D01*
X0054598Y0054435D02*
X0054998Y0054435D01*
X0054998Y0052836D02*
X0054598Y0052836D01*
X0051821Y0052836D02*
X0049284Y0052836D01*
X0048326Y0049639D02*
X0041771Y0049639D01*
X0042198Y0049212D02*
X0040904Y0050506D01*
X0039213Y0051206D01*
X0037383Y0051206D01*
X0035693Y0050506D01*
X0034399Y0049212D01*
X0033698Y0047521D01*
X0033698Y0045691D01*
X0034399Y0044001D01*
X0035693Y0042707D01*
X0037383Y0042006D01*
X0039213Y0042006D01*
X0040904Y0042707D01*
X0042198Y0044001D01*
X0042898Y0045691D01*
X0042898Y0047521D01*
X0042198Y0049212D01*
X0042683Y0048041D02*
X0047414Y0048041D01*
X0047198Y0046442D02*
X0042898Y0046442D01*
X0042547Y0044844D02*
X0047550Y0044844D01*
X0048654Y0043245D02*
X0041443Y0043245D01*
X0035154Y0043245D02*
X0029023Y0043245D01*
X0034050Y0044844D02*
X0019098Y0044844D01*
X0019098Y0046442D02*
X0033698Y0046442D01*
X0033914Y0048041D02*
X0019098Y0048041D01*
X0019098Y0049639D02*
X0034826Y0049639D01*
X0041034Y0052836D02*
X0043813Y0052836D01*
X0042469Y0054435D02*
X0042378Y0054435D01*
X0042180Y0059230D02*
X0042667Y0059230D01*
X0044348Y0060829D02*
X0040125Y0060829D01*
X0048748Y0064026D02*
X0111810Y0064026D01*
X0115686Y0065624D02*
X0048748Y0065624D01*
X0048748Y0067223D02*
X0144104Y0067223D01*
X0145252Y0068821D02*
X0048748Y0068821D01*
X0048748Y0070420D02*
X0145252Y0070420D01*
X0145252Y0072018D02*
X0075443Y0072018D01*
X0076341Y0073617D02*
X0145252Y0073617D01*
X0145252Y0075215D02*
X0076376Y0075215D01*
X0075529Y0076814D02*
X0145252Y0076814D01*
X0145252Y0078413D02*
X0071951Y0078413D01*
X0070353Y0080011D02*
X0145252Y0080011D01*
X0145252Y0081610D02*
X0068754Y0081610D01*
X0067156Y0083208D02*
X0145252Y0083208D01*
X0145252Y0084807D02*
X0065557Y0084807D01*
X0064700Y0086405D02*
X0145252Y0086405D01*
X0145252Y0088004D02*
X0067071Y0088004D01*
X0067870Y0089602D02*
X0145252Y0089602D01*
X0145252Y0091201D02*
X0068000Y0091201D01*
X0068000Y0092799D02*
X0145252Y0092799D01*
X0145252Y0094398D02*
X0068000Y0094398D01*
X0068000Y0095996D02*
X0145252Y0095996D01*
X0144556Y0097595D02*
X0068000Y0097595D01*
X0067370Y0099193D02*
X0143852Y0099193D01*
X0143970Y0100792D02*
X0065641Y0100792D01*
X0061223Y0100792D02*
X0058974Y0100792D01*
X0057376Y0102390D02*
X0144961Y0102390D01*
X0149943Y0102390D02*
X0159722Y0102390D01*
X0158124Y0103989D02*
X0055777Y0103989D01*
X0054179Y0105587D02*
X0156893Y0105587D01*
X0155970Y0107186D02*
X0053328Y0107186D01*
X0053328Y0108784D02*
X0155262Y0108784D01*
X0150934Y0100792D02*
X0162176Y0100792D01*
X0166582Y0099193D02*
X0151052Y0099193D01*
X0150348Y0097595D02*
X0219636Y0097595D01*
X0218037Y0099193D02*
X0171897Y0099193D01*
X0176303Y0100792D02*
X0216439Y0100792D01*
X0214840Y0102390D02*
X0178757Y0102390D01*
X0180355Y0103989D02*
X0213242Y0103989D01*
X0212012Y0105587D02*
X0181585Y0105587D01*
X0182508Y0107186D02*
X0191925Y0107186D01*
X0192196Y0106915D02*
X0189910Y0109201D01*
X0188673Y0112187D01*
X0188673Y0115419D01*
X0189910Y0118406D01*
X0192196Y0120691D01*
X0195182Y0121928D01*
X0198415Y0121928D01*
X0201401Y0120691D01*
X0203687Y0118406D01*
X0204923Y0115419D01*
X0204923Y0112187D01*
X0203687Y0109201D01*
X0201401Y0106915D01*
X0198415Y0105678D01*
X0195182Y0105678D01*
X0192196Y0106915D01*
X0190327Y0108784D02*
X0183217Y0108784D01*
X0183645Y0110383D02*
X0189421Y0110383D01*
X0188759Y0111981D02*
X0184039Y0111981D01*
X0184039Y0113580D02*
X0188673Y0113580D01*
X0188673Y0115178D02*
X0184039Y0115178D01*
X0184039Y0116777D02*
X0189236Y0116777D01*
X0189898Y0118375D02*
X0184039Y0118375D01*
X0184039Y0119974D02*
X0191479Y0119974D01*
X0194323Y0121572D02*
X0184039Y0121572D01*
X0184039Y0123171D02*
X0212795Y0123171D01*
X0211754Y0121572D02*
X0199274Y0121572D01*
X0202118Y0119974D02*
X0210831Y0119974D01*
X0210261Y0118375D02*
X0203699Y0118375D01*
X0204361Y0116777D02*
X0209832Y0116777D01*
X0209558Y0115178D02*
X0204923Y0115178D01*
X0204923Y0113580D02*
X0209558Y0113580D01*
X0209558Y0111981D02*
X0204838Y0111981D01*
X0204176Y0110383D02*
X0209952Y0110383D01*
X0210380Y0108784D02*
X0203270Y0108784D01*
X0201671Y0107186D02*
X0211089Y0107186D01*
X0221234Y0095996D02*
X0149652Y0095996D01*
X0149652Y0094398D02*
X0222833Y0094398D01*
X0224431Y0092799D02*
X0149652Y0092799D01*
X0149652Y0091201D02*
X0226030Y0091201D01*
X0227628Y0089602D02*
X0149652Y0089602D01*
X0149652Y0088004D02*
X0229227Y0088004D01*
X0230825Y0086405D02*
X0149652Y0086405D01*
X0149652Y0084807D02*
X0232424Y0084807D01*
X0234022Y0083208D02*
X0149652Y0083208D01*
X0149652Y0081610D02*
X0235621Y0081610D01*
X0237219Y0080011D02*
X0149652Y0080011D01*
X0149652Y0078413D02*
X0238818Y0078413D01*
X0240416Y0076814D02*
X0149652Y0076814D01*
X0149652Y0075215D02*
X0242015Y0075215D01*
X0243613Y0073617D02*
X0149652Y0073617D01*
X0149652Y0072018D02*
X0245212Y0072018D01*
X0247198Y0070420D02*
X0149652Y0070420D01*
X0149652Y0068821D02*
X0250325Y0068821D01*
X0267348Y0062427D02*
X0145531Y0062427D01*
X0143932Y0060829D02*
X0265998Y0060829D01*
X0265075Y0059230D02*
X0142334Y0059230D01*
X0140735Y0057632D02*
X0264511Y0057632D01*
X0264083Y0056033D02*
X0139137Y0056033D01*
X0137538Y0054435D02*
X0264039Y0054435D01*
X0264040Y0052836D02*
X0135940Y0052836D01*
X0134341Y0051238D02*
X0264468Y0051238D01*
X0264982Y0049639D02*
X0132743Y0049639D01*
X0131144Y0048041D02*
X0265905Y0048041D01*
X0267187Y0046442D02*
X0129546Y0046442D01*
X0127947Y0044844D02*
X0269012Y0044844D01*
X0272566Y0043245D02*
X0126349Y0043245D01*
X0115086Y0043245D02*
X0090226Y0043245D01*
X0088627Y0044844D02*
X0111531Y0044844D01*
X0109707Y0046442D02*
X0075898Y0046442D01*
X0075683Y0048041D02*
X0108424Y0048041D01*
X0107501Y0049639D02*
X0074771Y0049639D01*
X0067826Y0049639D02*
X0063271Y0049639D01*
X0064183Y0048041D02*
X0066914Y0048041D01*
X0066698Y0046442D02*
X0064398Y0046442D01*
X0064047Y0044844D02*
X0067050Y0044844D01*
X0068154Y0043245D02*
X0062943Y0043245D01*
X0074443Y0043245D02*
X0076371Y0043245D01*
X0075547Y0044844D02*
X0077970Y0044844D01*
X0068563Y0052836D02*
X0065784Y0052836D01*
X0067128Y0054435D02*
X0067219Y0054435D01*
X0060313Y0052836D02*
X0057776Y0052836D01*
X0056326Y0049639D02*
X0055271Y0049639D01*
X0058825Y0059230D02*
X0059167Y0059230D01*
X0061222Y0060829D02*
X0057084Y0060829D01*
X0050772Y0059230D02*
X0050430Y0059230D01*
X0064875Y0060829D02*
X0069472Y0060829D01*
X0067417Y0059230D02*
X0066930Y0059230D01*
X0070143Y0072018D02*
X0048748Y0072018D01*
X0048748Y0073617D02*
X0069245Y0073617D01*
X0068926Y0075215D02*
X0048748Y0075215D01*
X0048748Y0076814D02*
X0067327Y0076814D01*
X0065729Y0078413D02*
X0048748Y0078413D01*
X0048748Y0080011D02*
X0064130Y0080011D01*
X0062531Y0081610D02*
X0048748Y0081610D01*
X0048748Y0083208D02*
X0060933Y0083208D01*
X0059334Y0084807D02*
X0048748Y0084807D01*
X0048748Y0086405D02*
X0052164Y0086405D01*
X0054700Y0086405D02*
X0057736Y0086405D01*
X0049792Y0088004D02*
X0048748Y0088004D01*
X0048748Y0089602D02*
X0048993Y0089602D01*
X0048863Y0091201D02*
X0048748Y0091201D01*
X0048748Y0092799D02*
X0048863Y0092799D01*
X0048863Y0094398D02*
X0048748Y0094398D01*
X0048748Y0095996D02*
X0048863Y0095996D01*
X0048863Y0097595D02*
X0048748Y0097595D01*
X0048748Y0099193D02*
X0049494Y0099193D01*
X0048748Y0100792D02*
X0051223Y0100792D01*
X0051153Y0102390D02*
X0048748Y0102390D01*
X0048748Y0103989D02*
X0049554Y0103989D01*
X0048928Y0105587D02*
X0048748Y0105587D01*
X0048748Y0107186D02*
X0048928Y0107186D01*
X0048928Y0108784D02*
X0048748Y0108784D01*
X0048748Y0110383D02*
X0048928Y0110383D01*
X0048928Y0111981D02*
X0048748Y0111981D01*
X0048748Y0113580D02*
X0048928Y0113580D01*
X0048928Y0115178D02*
X0048748Y0115178D01*
X0048748Y0116777D02*
X0048928Y0116777D01*
X0048928Y0118375D02*
X0048748Y0118375D01*
X0048748Y0119974D02*
X0048928Y0119974D01*
X0048928Y0121572D02*
X0048748Y0121572D01*
X0073250Y0129565D02*
X0079003Y0129565D01*
X0023997Y0113580D02*
X0019098Y0113580D01*
X0019098Y0111981D02*
X0021983Y0111981D01*
X0020283Y0110383D02*
X0019098Y0110383D01*
X0019098Y0108784D02*
X0019418Y0108784D01*
X0120430Y0065624D02*
X0142505Y0065624D01*
X0140907Y0064026D02*
X0124307Y0064026D01*
X0126249Y0062427D02*
X0139308Y0062427D01*
X0137710Y0060829D02*
X0127599Y0060829D01*
X0128522Y0059230D02*
X0136111Y0059230D01*
X0134513Y0057632D02*
X0129086Y0057632D01*
X0129514Y0056033D02*
X0132914Y0056033D01*
X0131316Y0054435D02*
X0129558Y0054435D01*
X0129557Y0052836D02*
X0129717Y0052836D01*
X0147129Y0064026D02*
X0269290Y0064026D01*
X0281787Y0064026D02*
X0321810Y0064026D01*
X0319868Y0062427D02*
X0283729Y0062427D01*
X0285080Y0060829D02*
X0318517Y0060829D01*
X0317594Y0059230D02*
X0286003Y0059230D01*
X0286566Y0057632D02*
X0317031Y0057632D01*
X0316603Y0056033D02*
X0286994Y0056033D01*
X0287039Y0054435D02*
X0316558Y0054435D01*
X0316559Y0052836D02*
X0287038Y0052836D01*
X0286609Y0051238D02*
X0316988Y0051238D01*
X0317501Y0049639D02*
X0286095Y0049639D01*
X0285173Y0048041D02*
X0318424Y0048041D01*
X0319707Y0046442D02*
X0283890Y0046442D01*
X0282066Y0044844D02*
X0321531Y0044844D01*
X0325085Y0043245D02*
X0278511Y0043245D01*
X0331031Y0043245D02*
X0482566Y0043245D01*
X0479012Y0044844D02*
X0334585Y0044844D01*
X0336410Y0046442D02*
X0477187Y0046442D01*
X0475905Y0048041D02*
X0337692Y0048041D01*
X0338615Y0049639D02*
X0474982Y0049639D01*
X0474468Y0051238D02*
X0339129Y0051238D01*
X0339557Y0052836D02*
X0474040Y0052836D01*
X0474039Y0054435D02*
X0339558Y0054435D01*
X0339514Y0056033D02*
X0474083Y0056033D01*
X0474511Y0057632D02*
X0339086Y0057632D01*
X0338522Y0059230D02*
X0475075Y0059230D01*
X0475998Y0060829D02*
X0337599Y0060829D01*
X0336249Y0062427D02*
X0477348Y0062427D01*
X0479290Y0064026D02*
X0334307Y0064026D01*
X0401341Y0124769D02*
X0424393Y0124769D01*
X0534530Y0064818D02*
X0537504Y0065614D01*
X0540582Y0065614D01*
X0543555Y0064818D01*
X0546220Y0063279D01*
X0548397Y0061102D01*
X0549936Y0058437D01*
X0550732Y0055463D01*
X0550732Y0052385D01*
X0549936Y0049412D01*
X0548397Y0046747D01*
X0546220Y0044570D01*
X0543555Y0043031D01*
X0540582Y0042235D01*
X0537504Y0042235D01*
X0534530Y0043031D01*
X0531865Y0044570D01*
X0529688Y0046747D01*
X0528149Y0049412D01*
X0527353Y0052385D01*
X0527353Y0055463D01*
X0528149Y0058437D01*
X0529688Y0061102D01*
X0531865Y0063279D01*
X0534530Y0064818D01*
X0533159Y0064026D02*
X0491787Y0064026D01*
X0493729Y0062427D02*
X0531014Y0062427D01*
X0529531Y0060829D02*
X0495080Y0060829D01*
X0496003Y0059230D02*
X0528608Y0059230D01*
X0527934Y0057632D02*
X0496566Y0057632D01*
X0496994Y0056033D02*
X0527506Y0056033D01*
X0527353Y0054435D02*
X0497039Y0054435D01*
X0497038Y0052836D02*
X0527353Y0052836D01*
X0527660Y0051238D02*
X0496609Y0051238D01*
X0496095Y0049639D02*
X0528089Y0049639D01*
X0528941Y0048041D02*
X0495173Y0048041D01*
X0493890Y0046442D02*
X0529993Y0046442D01*
X0531591Y0044844D02*
X0492066Y0044844D01*
X0488511Y0043245D02*
X0534160Y0043245D01*
X0543925Y0043245D02*
X0689672Y0043245D01*
X0687103Y0044844D02*
X0546494Y0044844D01*
X0548092Y0046442D02*
X0685505Y0046442D01*
X0684453Y0048041D02*
X0549144Y0048041D01*
X0549997Y0049639D02*
X0683600Y0049639D01*
X0683172Y0051238D02*
X0550425Y0051238D01*
X0550732Y0052836D02*
X0682865Y0052836D01*
X0682865Y0054435D02*
X0550732Y0054435D01*
X0550580Y0056033D02*
X0683017Y0056033D01*
X0683446Y0057632D02*
X0550151Y0057632D01*
X0549477Y0059230D02*
X0684120Y0059230D01*
X0685043Y0060829D02*
X0548554Y0060829D01*
X0547071Y0062427D02*
X0686526Y0062427D01*
X0688671Y0064026D02*
X0544926Y0064026D01*
X0564120Y0129565D02*
X0619943Y0129565D01*
X0621541Y0131163D02*
X0565719Y0131163D01*
X0567318Y0132762D02*
X0623140Y0132762D01*
X0624738Y0134360D02*
X0568916Y0134360D01*
X0570515Y0135959D02*
X0626337Y0135959D01*
X0627935Y0137557D02*
X0572113Y0137557D01*
X0573712Y0139156D02*
X0629534Y0139156D01*
X0631132Y0140754D02*
X0575310Y0140754D01*
X0576909Y0142353D02*
X0632731Y0142353D01*
X0634329Y0143951D02*
X0578507Y0143951D01*
X0580106Y0145550D02*
X0636348Y0145550D01*
X0639563Y0147148D02*
X0581704Y0147148D01*
X0583303Y0148747D02*
X0657883Y0148747D01*
X0656284Y0150346D02*
X0584901Y0150346D01*
X0611526Y0195104D02*
X0446400Y0195104D01*
X0378383Y0199899D02*
X0269552Y0199899D01*
X0269073Y0199014D02*
X0269073Y0199014D01*
X0268298Y0198301D02*
X0377105Y0198301D01*
X0376598Y0196702D02*
X0266562Y0196702D01*
X0265958Y0196147D02*
X0265958Y0196147D01*
X0263581Y0195104D02*
X0376619Y0195104D01*
X0271682Y0206293D02*
X0600337Y0206293D01*
X0601935Y0204695D02*
X0271415Y0204695D01*
X0271148Y0203096D02*
X0603534Y0203096D01*
X0605132Y0201498D02*
X0270417Y0201498D01*
X0271622Y0207892D02*
X0598738Y0207892D01*
X0597140Y0209490D02*
X0271355Y0209490D01*
X0271088Y0211089D02*
X0271088Y0211089D01*
X0265958Y0217680D02*
X0265958Y0217680D01*
X0251909Y0217483D02*
X0115989Y0217483D01*
X0115989Y0215884D02*
X0249831Y0215884D01*
X0248587Y0214286D02*
X0115989Y0214286D01*
X0115989Y0212687D02*
X0247494Y0212687D01*
X0246945Y0211089D02*
X0115989Y0211089D01*
X0115989Y0209490D02*
X0246396Y0209490D01*
X0246238Y0207892D02*
X0115989Y0207892D01*
X0115989Y0206293D02*
X0246238Y0206293D01*
X0246273Y0204695D02*
X0115989Y0204695D01*
X0115989Y0203096D02*
X0246822Y0203096D01*
X0247371Y0201498D02*
X0115989Y0201498D01*
X0115989Y0199899D02*
X0248308Y0199899D01*
X0247613Y0200792D02*
X0247613Y0200792D01*
X0249552Y0198301D02*
X0115989Y0198301D01*
X0111589Y0198301D02*
X0084514Y0198301D01*
X0085301Y0197513D02*
X0082856Y0199959D01*
X0079397Y0199959D01*
X0076952Y0197513D01*
X0076952Y0194055D01*
X0079397Y0191609D01*
X0082856Y0191609D01*
X0085301Y0194055D01*
X0085301Y0197513D01*
X0085301Y0196702D02*
X0111589Y0196702D01*
X0111589Y0195104D02*
X0085301Y0195104D01*
X0084752Y0193505D02*
X0111589Y0193505D01*
X0111589Y0191907D02*
X0083153Y0191907D01*
X0079100Y0191907D02*
X0073153Y0191907D01*
X0072856Y0191609D02*
X0075301Y0194055D01*
X0075301Y0197513D01*
X0072856Y0199959D01*
X0069397Y0199959D01*
X0066952Y0197513D01*
X0066952Y0194055D01*
X0069397Y0191609D01*
X0072856Y0191609D01*
X0074752Y0193505D02*
X0077501Y0193505D01*
X0076952Y0195104D02*
X0075301Y0195104D01*
X0075301Y0196702D02*
X0076952Y0196702D01*
X0077739Y0198301D02*
X0074514Y0198301D01*
X0072915Y0199899D02*
X0079338Y0199899D01*
X0082915Y0199899D02*
X0111589Y0199899D01*
X0111589Y0201498D02*
X0053328Y0201498D01*
X0053328Y0203096D02*
X0111589Y0203096D01*
X0111589Y0204695D02*
X0053328Y0204695D01*
X0053328Y0206293D02*
X0111589Y0206293D01*
X0111589Y0207892D02*
X0053328Y0207892D01*
X0053328Y0209490D02*
X0111589Y0209490D01*
X0111589Y0211089D02*
X0053328Y0211089D01*
X0053328Y0212687D02*
X0111589Y0212687D01*
X0111589Y0214286D02*
X0053328Y0214286D01*
X0053328Y0215884D02*
X0111589Y0215884D01*
X0111589Y0217483D02*
X0053328Y0217483D01*
X0053328Y0219081D02*
X0071404Y0219081D01*
X0071407Y0219072D02*
X0072420Y0218059D01*
X0073743Y0217511D01*
X0075175Y0217511D01*
X0076499Y0218059D01*
X0077511Y0219072D01*
X0078059Y0220395D01*
X0078059Y0221827D01*
X0077511Y0223151D01*
X0076659Y0224003D01*
X0076659Y0228553D01*
X0077511Y0229404D01*
X0078059Y0230728D01*
X0078059Y0232160D01*
X0077511Y0233483D01*
X0076499Y0234496D01*
X0075175Y0235044D01*
X0073743Y0235044D01*
X0072420Y0234496D01*
X0071407Y0233483D01*
X0070859Y0232160D01*
X0070859Y0230728D01*
X0071407Y0229404D01*
X0072259Y0228553D01*
X0072259Y0224003D01*
X0071407Y0223151D01*
X0070859Y0221827D01*
X0070859Y0220395D01*
X0071407Y0219072D01*
X0070859Y0220680D02*
X0053328Y0220680D01*
X0053328Y0222279D02*
X0071046Y0222279D01*
X0072134Y0223877D02*
X0053328Y0223877D01*
X0053328Y0225476D02*
X0072259Y0225476D01*
X0072259Y0227074D02*
X0053328Y0227074D01*
X0053328Y0228673D02*
X0072139Y0228673D01*
X0071048Y0230271D02*
X0053328Y0230271D01*
X0053328Y0231870D02*
X0070859Y0231870D01*
X0071401Y0233468D02*
X0053328Y0233468D01*
X0053328Y0235067D02*
X0111589Y0235067D01*
X0111589Y0236665D02*
X0053328Y0236665D01*
X0053328Y0238264D02*
X0111589Y0238264D01*
X0111589Y0239862D02*
X0053328Y0239862D01*
X0053328Y0241461D02*
X0111589Y0241461D01*
X0111589Y0243059D02*
X0053328Y0243059D01*
X0053328Y0244658D02*
X0111589Y0244658D01*
X0111589Y0246256D02*
X0053328Y0246256D01*
X0053328Y0247855D02*
X0111589Y0247855D01*
X0111589Y0249453D02*
X0053328Y0249453D01*
X0053328Y0251052D02*
X0110401Y0251052D01*
X0108802Y0252650D02*
X0053328Y0252650D01*
X0053328Y0254249D02*
X0107204Y0254249D01*
X0105605Y0255847D02*
X0053328Y0255847D01*
X0053328Y0257446D02*
X0104007Y0257446D01*
X0102408Y0259044D02*
X0069488Y0259044D01*
X0070060Y0260643D02*
X0098830Y0260643D01*
X0097723Y0262241D02*
X0070705Y0262241D01*
X0072304Y0263840D02*
X0097523Y0263840D01*
X0098054Y0265438D02*
X0073902Y0265438D01*
X0075501Y0267037D02*
X0100398Y0267037D01*
X0101848Y0267037D02*
X0190802Y0267037D01*
X0196758Y0267037D02*
X0197742Y0267037D01*
X0199359Y0288484D02*
X0198590Y0288636D01*
X0197866Y0288937D01*
X0197213Y0289372D01*
X0196659Y0289927D01*
X0196223Y0290579D01*
X0195923Y0291303D01*
X0195770Y0292072D01*
X0195770Y0292465D01*
X0199751Y0292465D01*
X0199751Y0296446D01*
X0199359Y0296446D01*
X0198590Y0296293D01*
X0197866Y0295993D01*
X0197213Y0295557D01*
X0196659Y0295002D01*
X0196223Y0294350D01*
X0195923Y0293626D01*
X0195770Y0292857D01*
X0195770Y0292465D01*
X0199751Y0292465D01*
X0199751Y0292465D01*
X0199751Y0292465D01*
X0199751Y0296446D01*
X0200143Y0296446D01*
X0200913Y0296293D01*
X0201637Y0295993D01*
X0202289Y0295557D01*
X0202844Y0295002D01*
X0203279Y0294350D01*
X0203579Y0293626D01*
X0203732Y0292857D01*
X0203732Y0292465D01*
X0199751Y0292465D01*
X0199751Y0292465D01*
X0199751Y0292464D02*
X0199751Y0292464D01*
X0199751Y0288484D01*
X0199359Y0288484D01*
X0199751Y0288484D02*
X0200143Y0288484D01*
X0200913Y0288636D01*
X0201637Y0288937D01*
X0202289Y0289372D01*
X0202844Y0289927D01*
X0203279Y0290579D01*
X0203579Y0291303D01*
X0203732Y0292072D01*
X0203732Y0292465D01*
X0199751Y0292465D01*
X0199751Y0292464D02*
X0199751Y0288484D01*
X0199751Y0289416D02*
X0199751Y0289416D01*
X0199751Y0291015D02*
X0199751Y0291015D01*
X0199751Y0292613D02*
X0199751Y0292613D01*
X0199751Y0294212D02*
X0199751Y0294212D01*
X0199751Y0295810D02*
X0199751Y0295810D01*
X0197592Y0295810D02*
X0191555Y0295810D01*
X0191893Y0295670D02*
X0190503Y0296246D01*
X0188999Y0296246D01*
X0187609Y0295670D01*
X0186546Y0294606D01*
X0185970Y0293217D01*
X0185970Y0291712D01*
X0186546Y0290323D01*
X0187609Y0289259D01*
X0188999Y0288684D01*
X0190503Y0288684D01*
X0191893Y0289259D01*
X0192957Y0290323D01*
X0193532Y0291712D01*
X0193532Y0293217D01*
X0192957Y0294606D01*
X0191893Y0295670D01*
X0193120Y0294212D02*
X0196166Y0294212D01*
X0195770Y0292613D02*
X0193532Y0292613D01*
X0193243Y0291015D02*
X0196043Y0291015D01*
X0197170Y0289416D02*
X0192050Y0289416D01*
X0187453Y0289416D02*
X0182050Y0289416D01*
X0181893Y0289259D02*
X0182957Y0290323D01*
X0183532Y0291712D01*
X0183532Y0293217D01*
X0182957Y0294606D01*
X0181893Y0295670D01*
X0180503Y0296246D01*
X0178999Y0296246D01*
X0177609Y0295670D01*
X0176546Y0294606D01*
X0175970Y0293217D01*
X0175970Y0291712D01*
X0176546Y0290323D01*
X0177609Y0289259D01*
X0178999Y0288684D01*
X0180503Y0288684D01*
X0181893Y0289259D01*
X0183243Y0291015D02*
X0186259Y0291015D01*
X0185970Y0292613D02*
X0183532Y0292613D01*
X0183120Y0294212D02*
X0186382Y0294212D01*
X0187947Y0295810D02*
X0181555Y0295810D01*
X0180913Y0298636D02*
X0180143Y0298484D01*
X0179751Y0298484D01*
X0179751Y0302464D01*
X0179751Y0302464D01*
X0179751Y0302465D02*
X0175770Y0302465D01*
X0175770Y0302072D01*
X0175923Y0301303D01*
X0176223Y0300579D01*
X0176659Y0299927D01*
X0177213Y0299372D01*
X0177866Y0298937D01*
X0178590Y0298636D01*
X0179359Y0298484D01*
X0179751Y0298484D01*
X0179751Y0302464D01*
X0179751Y0302465D02*
X0179751Y0302465D01*
X0183732Y0302465D01*
X0183732Y0302072D01*
X0183579Y0301303D01*
X0183279Y0300579D01*
X0182844Y0299927D01*
X0182289Y0299372D01*
X0181637Y0298937D01*
X0180913Y0298636D01*
X0181743Y0299007D02*
X0188218Y0299007D01*
X0186429Y0300606D02*
X0183290Y0300606D01*
X0183732Y0302204D02*
X0185970Y0302204D01*
X0186213Y0303803D02*
X0183506Y0303803D01*
X0179751Y0302204D02*
X0179751Y0302204D01*
X0179751Y0300606D02*
X0179751Y0300606D01*
X0179751Y0299007D02*
X0179751Y0299007D01*
X0177760Y0299007D02*
X0171285Y0299007D01*
X0173074Y0300606D02*
X0176212Y0300606D01*
X0175770Y0302204D02*
X0173532Y0302204D01*
X0173290Y0303803D02*
X0175996Y0303803D01*
X0168218Y0299007D02*
X0161285Y0299007D01*
X0163074Y0300606D02*
X0166429Y0300606D01*
X0165970Y0302204D02*
X0163532Y0302204D01*
X0163290Y0303803D02*
X0166213Y0303803D01*
X0158218Y0299007D02*
X0151743Y0299007D01*
X0151637Y0298937D02*
X0152289Y0299372D01*
X0152844Y0299927D01*
X0153279Y0300579D01*
X0153579Y0301303D01*
X0153732Y0302072D01*
X0153732Y0302465D01*
X0149751Y0302465D01*
X0145770Y0302465D01*
X0145770Y0302072D01*
X0145923Y0301303D01*
X0146223Y0300579D01*
X0146659Y0299927D01*
X0147213Y0299372D01*
X0147866Y0298937D01*
X0148590Y0298636D01*
X0149359Y0298484D01*
X0149751Y0298484D01*
X0149751Y0302464D01*
X0149751Y0302464D01*
X0149751Y0298484D01*
X0150143Y0298484D01*
X0150913Y0298636D01*
X0151637Y0298937D01*
X0149751Y0299007D02*
X0149751Y0299007D01*
X0149751Y0300606D02*
X0149751Y0300606D01*
X0149751Y0302204D02*
X0149751Y0302204D01*
X0149751Y0302465D02*
X0149751Y0302465D01*
X0145996Y0303803D02*
X0143290Y0303803D01*
X0143532Y0302204D02*
X0145770Y0302204D01*
X0146212Y0300606D02*
X0143074Y0300606D01*
X0141285Y0299007D02*
X0147760Y0299007D01*
X0148999Y0296246D02*
X0147609Y0295670D01*
X0146546Y0294606D01*
X0145970Y0293217D01*
X0145970Y0291712D01*
X0146546Y0290323D01*
X0147609Y0289259D01*
X0148999Y0288684D01*
X0150503Y0288684D01*
X0151893Y0289259D01*
X0152957Y0290323D01*
X0153532Y0291712D01*
X0153532Y0293217D01*
X0152957Y0294606D01*
X0151893Y0295670D01*
X0150503Y0296246D01*
X0148999Y0296246D01*
X0147947Y0295810D02*
X0141555Y0295810D01*
X0143120Y0294212D02*
X0146382Y0294212D01*
X0145970Y0292613D02*
X0143532Y0292613D01*
X0143243Y0291015D02*
X0146259Y0291015D01*
X0147453Y0289416D02*
X0142050Y0289416D01*
X0133253Y0289416D02*
X0132050Y0289416D01*
X0133243Y0291015D02*
X0133253Y0291015D01*
X0127453Y0289416D02*
X0122333Y0289416D01*
X0122289Y0289372D02*
X0122844Y0289927D01*
X0123279Y0290579D01*
X0123579Y0291303D01*
X0123732Y0292072D01*
X0123732Y0292465D01*
X0119751Y0292465D01*
X0119751Y0292465D01*
X0119751Y0292464D02*
X0119751Y0288484D01*
X0120143Y0288484D01*
X0120913Y0288636D01*
X0121637Y0288937D01*
X0122289Y0289372D01*
X0123460Y0291015D02*
X0126259Y0291015D01*
X0125970Y0292613D02*
X0123732Y0292613D01*
X0123337Y0294212D02*
X0126382Y0294212D01*
X0119751Y0291015D02*
X0119751Y0291015D01*
X0119751Y0289416D02*
X0119751Y0289416D01*
X0133826Y0284620D02*
X0070707Y0284620D01*
X0067681Y0281423D02*
X0056661Y0281423D01*
X0056661Y0279825D02*
X0069280Y0279825D01*
X0066083Y0283022D02*
X0056661Y0283022D01*
X0056661Y0284620D02*
X0064484Y0284620D01*
X0062886Y0286219D02*
X0056661Y0286219D01*
X0056661Y0287817D02*
X0061287Y0287817D01*
X0057453Y0289416D02*
X0056661Y0289416D01*
X0078654Y0283022D02*
X0135425Y0283022D01*
X0135920Y0281423D02*
X0080252Y0281423D01*
X0082025Y0279825D02*
X0137632Y0279825D01*
X0152050Y0289416D02*
X0157453Y0289416D01*
X0157609Y0289259D02*
X0158999Y0288684D01*
X0160503Y0288684D01*
X0161893Y0289259D01*
X0162957Y0290323D01*
X0163532Y0291712D01*
X0163532Y0293217D01*
X0162957Y0294606D01*
X0161893Y0295670D01*
X0160503Y0296246D01*
X0158999Y0296246D01*
X0157609Y0295670D01*
X0156546Y0294606D01*
X0155970Y0293217D01*
X0155970Y0291712D01*
X0156546Y0290323D01*
X0157609Y0289259D01*
X0156259Y0291015D02*
X0153243Y0291015D01*
X0153532Y0292613D02*
X0155970Y0292613D01*
X0156382Y0294212D02*
X0153120Y0294212D01*
X0151555Y0295810D02*
X0157947Y0295810D01*
X0161555Y0295810D02*
X0167947Y0295810D01*
X0167609Y0295670D02*
X0166546Y0294606D01*
X0165970Y0293217D01*
X0165970Y0291712D01*
X0166546Y0290323D01*
X0167609Y0289259D01*
X0168999Y0288684D01*
X0170503Y0288684D01*
X0171893Y0289259D01*
X0172957Y0290323D01*
X0173532Y0291712D01*
X0173532Y0293217D01*
X0172957Y0294606D01*
X0171893Y0295670D01*
X0170503Y0296246D01*
X0168999Y0296246D01*
X0167609Y0295670D01*
X0166382Y0294212D02*
X0163120Y0294212D01*
X0163532Y0292613D02*
X0165970Y0292613D01*
X0166259Y0291015D02*
X0163243Y0291015D01*
X0162050Y0289416D02*
X0167453Y0289416D01*
X0172050Y0289416D02*
X0177453Y0289416D01*
X0176259Y0291015D02*
X0173243Y0291015D01*
X0173532Y0292613D02*
X0175970Y0292613D01*
X0176382Y0294212D02*
X0173120Y0294212D01*
X0171555Y0295810D02*
X0177947Y0295810D01*
X0191285Y0299007D02*
X0198218Y0299007D01*
X0196429Y0300606D02*
X0193074Y0300606D01*
X0193532Y0302204D02*
X0195970Y0302204D01*
X0196213Y0303803D02*
X0193290Y0303803D01*
X0201285Y0299007D02*
X0208218Y0299007D01*
X0206429Y0300606D02*
X0203074Y0300606D01*
X0203532Y0302204D02*
X0205970Y0302204D01*
X0206213Y0303803D02*
X0203290Y0303803D01*
X0211285Y0299007D02*
X0217760Y0299007D01*
X0217866Y0298937D02*
X0217213Y0299372D01*
X0216659Y0299927D01*
X0216223Y0300579D01*
X0215923Y0301303D01*
X0215770Y0302072D01*
X0215770Y0302465D01*
X0219751Y0302465D01*
X0219751Y0302465D01*
X0219751Y0302464D02*
X0219751Y0302464D01*
X0219751Y0298484D01*
X0219359Y0298484D01*
X0218590Y0298636D01*
X0217866Y0298937D01*
X0219751Y0299007D02*
X0219751Y0299007D01*
X0219751Y0298484D02*
X0220143Y0298484D01*
X0220913Y0298636D01*
X0221637Y0298937D01*
X0222289Y0299372D01*
X0222844Y0299927D01*
X0223279Y0300579D01*
X0223579Y0301303D01*
X0223732Y0302072D01*
X0223732Y0302465D01*
X0219751Y0302465D01*
X0219751Y0302464D02*
X0219751Y0298484D01*
X0221743Y0299007D02*
X0228218Y0299007D01*
X0226429Y0300606D02*
X0223290Y0300606D01*
X0223732Y0302204D02*
X0225970Y0302204D01*
X0226213Y0303803D02*
X0223506Y0303803D01*
X0219751Y0302204D02*
X0219751Y0302204D01*
X0219751Y0300606D02*
X0219751Y0300606D01*
X0216212Y0300606D02*
X0213074Y0300606D01*
X0213532Y0302204D02*
X0215770Y0302204D01*
X0215996Y0303803D02*
X0213290Y0303803D01*
X0210503Y0296246D02*
X0208999Y0296246D01*
X0207609Y0295670D01*
X0206546Y0294606D01*
X0205970Y0293217D01*
X0205970Y0291712D01*
X0206546Y0290323D01*
X0207609Y0289259D01*
X0208999Y0288684D01*
X0210503Y0288684D01*
X0211893Y0289259D01*
X0212957Y0290323D01*
X0213532Y0291712D01*
X0213532Y0293217D01*
X0212957Y0294606D01*
X0211893Y0295670D01*
X0210503Y0296246D01*
X0211555Y0295810D02*
X0217947Y0295810D01*
X0217609Y0295670D02*
X0218999Y0296246D01*
X0220503Y0296246D01*
X0221893Y0295670D01*
X0222957Y0294606D01*
X0223532Y0293217D01*
X0223532Y0291712D01*
X0222957Y0290323D01*
X0221893Y0289259D01*
X0220503Y0288684D01*
X0218999Y0288684D01*
X0217609Y0289259D01*
X0216546Y0290323D01*
X0215970Y0291712D01*
X0215970Y0293217D01*
X0216546Y0294606D01*
X0217609Y0295670D01*
X0216382Y0294212D02*
X0213120Y0294212D01*
X0213532Y0292613D02*
X0215970Y0292613D01*
X0216259Y0291015D02*
X0213243Y0291015D01*
X0212050Y0289416D02*
X0217453Y0289416D01*
X0222050Y0289416D02*
X0227453Y0289416D01*
X0227609Y0289259D02*
X0228999Y0288684D01*
X0230503Y0288684D01*
X0231893Y0289259D01*
X0232957Y0290323D01*
X0233532Y0291712D01*
X0233532Y0293217D01*
X0232957Y0294606D01*
X0231893Y0295670D01*
X0230503Y0296246D01*
X0228999Y0296246D01*
X0227609Y0295670D01*
X0226546Y0294606D01*
X0225970Y0293217D01*
X0225970Y0291712D01*
X0226546Y0290323D01*
X0227609Y0289259D01*
X0226259Y0291015D02*
X0223243Y0291015D01*
X0223532Y0292613D02*
X0225970Y0292613D01*
X0226382Y0294212D02*
X0223120Y0294212D01*
X0221555Y0295810D02*
X0227947Y0295810D01*
X0231555Y0295810D02*
X0236472Y0295810D01*
X0235970Y0294212D02*
X0233120Y0294212D01*
X0233532Y0292613D02*
X0235970Y0292613D01*
X0235970Y0291015D02*
X0233243Y0291015D01*
X0232050Y0289416D02*
X0236175Y0289416D01*
X0242909Y0297409D02*
X0134927Y0297409D01*
X0136525Y0295810D02*
X0137947Y0295810D01*
X0138218Y0299007D02*
X0131285Y0299007D01*
X0133074Y0300606D02*
X0136429Y0300606D01*
X0135970Y0302204D02*
X0133532Y0302204D01*
X0133290Y0303803D02*
X0136213Y0303803D01*
X0153506Y0303803D02*
X0156213Y0303803D01*
X0155970Y0302204D02*
X0153732Y0302204D01*
X0153290Y0300606D02*
X0156429Y0300606D01*
X0201910Y0295810D02*
X0207947Y0295810D01*
X0206382Y0294212D02*
X0203337Y0294212D01*
X0203732Y0292613D02*
X0205970Y0292613D01*
X0206259Y0291015D02*
X0203460Y0291015D01*
X0202333Y0289416D02*
X0207453Y0289416D01*
X0231285Y0299007D02*
X0238218Y0299007D01*
X0236429Y0300606D02*
X0233074Y0300606D01*
X0233532Y0302204D02*
X0235970Y0302204D01*
X0236213Y0303803D02*
X0233290Y0303803D01*
X0241285Y0299007D02*
X0242909Y0299007D01*
X0265122Y0308598D02*
X0706479Y0308598D01*
X0704444Y0307000D02*
X0267296Y0307000D01*
X0269033Y0305401D02*
X0702734Y0305401D01*
X0701869Y0303803D02*
X0269918Y0303803D01*
X0270783Y0302204D02*
X0534322Y0302204D01*
X0532535Y0300606D02*
X0271261Y0300606D01*
X0134425Y0259044D02*
X0122801Y0259044D01*
X0118769Y0255847D02*
X0111828Y0255847D01*
X0113426Y0254249D02*
X0117892Y0254249D01*
X0117886Y0252650D02*
X0115025Y0252650D01*
X0115989Y0251052D02*
X0118753Y0251052D01*
X0111589Y0233468D02*
X0077517Y0233468D01*
X0078059Y0231870D02*
X0111589Y0231870D01*
X0111589Y0230271D02*
X0077870Y0230271D01*
X0076779Y0228673D02*
X0111589Y0228673D01*
X0111589Y0227074D02*
X0076659Y0227074D01*
X0076659Y0225476D02*
X0111589Y0225476D01*
X0111589Y0223877D02*
X0076785Y0223877D01*
X0077873Y0222279D02*
X0111589Y0222279D01*
X0111589Y0220680D02*
X0078059Y0220680D01*
X0077515Y0219081D02*
X0111589Y0219081D01*
X0069338Y0199899D02*
X0062915Y0199899D01*
X0062856Y0199959D02*
X0059397Y0199959D01*
X0056952Y0197513D01*
X0056952Y0194055D01*
X0059397Y0191609D01*
X0062856Y0191609D01*
X0065301Y0194055D01*
X0065301Y0197513D01*
X0062856Y0199959D01*
X0064514Y0198301D02*
X0067739Y0198301D01*
X0066952Y0196702D02*
X0065301Y0196702D01*
X0065301Y0195104D02*
X0066952Y0195104D01*
X0067501Y0193505D02*
X0064752Y0193505D01*
X0063153Y0191907D02*
X0069100Y0191907D01*
X0059100Y0191907D02*
X0053328Y0191907D01*
X0053328Y0193505D02*
X0057501Y0193505D01*
X0056952Y0195104D02*
X0053328Y0195104D01*
X0053328Y0196702D02*
X0056952Y0196702D01*
X0057739Y0198301D02*
X0053328Y0198301D01*
X0053328Y0199899D02*
X0059338Y0199899D01*
X0053328Y0190308D02*
X0111589Y0190308D01*
X0111589Y0188710D02*
X0053328Y0188710D01*
X0053328Y0187111D02*
X0111589Y0187111D01*
X0111589Y0185513D02*
X0053328Y0185513D01*
X0053328Y0183914D02*
X0111589Y0183914D01*
X0111589Y0182316D02*
X0053328Y0182316D01*
X0053328Y0180717D02*
X0111589Y0180717D01*
X0111589Y0179119D02*
X0053328Y0179119D01*
X0053328Y0177520D02*
X0111435Y0177520D01*
X0110364Y0175922D02*
X0053328Y0175922D01*
X0053328Y0174323D02*
X0110189Y0174323D01*
X0110756Y0172725D02*
X0053328Y0172725D01*
X0053328Y0171126D02*
X0118255Y0171126D01*
X0118255Y0169528D02*
X0053328Y0169528D01*
X0053328Y0167929D02*
X0118255Y0167929D01*
X0118255Y0166331D02*
X0053328Y0166331D01*
X0053328Y0164732D02*
X0118255Y0164732D01*
X0118255Y0163134D02*
X0053328Y0163134D01*
X0116822Y0172725D02*
X0119618Y0172725D01*
X0121217Y0174323D02*
X0117389Y0174323D01*
X0117214Y0175922D02*
X0121854Y0175922D01*
X0122434Y0177520D02*
X0116142Y0177520D01*
X0122655Y0167929D02*
X0125365Y0167929D01*
X0123766Y0166331D02*
X0122655Y0166331D01*
X0122655Y0164732D02*
X0123278Y0164732D01*
X0123278Y0163134D02*
X0122655Y0163134D01*
X0184039Y0127966D02*
X0220032Y0127966D01*
X0216520Y0126368D02*
X0184039Y0126368D01*
X0184039Y0124769D02*
X0214393Y0124769D01*
X0257862Y0194096D02*
X0257862Y0194096D01*
X0262081Y0194446D02*
X0262081Y0194446D01*
X0078709Y0273431D02*
X0053328Y0273431D01*
X0053328Y0275029D02*
X0077479Y0275029D01*
X0077192Y0276628D02*
X0053762Y0276628D01*
X0055360Y0278226D02*
X0077227Y0278226D01*
X0074074Y0271832D02*
X0053328Y0271832D01*
X0053328Y0270234D02*
X0072475Y0270234D01*
X0070877Y0268635D02*
X0053328Y0268635D01*
X0053328Y0267037D02*
X0069278Y0267037D01*
X0067680Y0265438D02*
X0053328Y0265438D01*
X0053328Y0263840D02*
X0064101Y0263840D01*
X0063033Y0262241D02*
X0053328Y0262241D01*
X0053328Y0260643D02*
X0062860Y0260643D01*
X0063432Y0259044D02*
X0053328Y0259044D01*
X0044348Y0259044D02*
X0032397Y0259044D01*
X0032282Y0257446D02*
X0044348Y0257446D01*
X0044348Y0255847D02*
X0031295Y0255847D01*
X0027716Y0254249D02*
X0044348Y0254249D01*
X0044348Y0252650D02*
X0026118Y0252650D01*
X0024665Y0251052D02*
X0044348Y0251052D01*
X0044348Y0249453D02*
X0024665Y0249453D01*
X0024665Y0247855D02*
X0044348Y0247855D01*
X0044348Y0246256D02*
X0024665Y0246256D01*
X0024665Y0244658D02*
X0044348Y0244658D01*
X0044348Y0243059D02*
X0025273Y0243059D01*
X0026065Y0241461D02*
X0044348Y0241461D01*
X0044348Y0239862D02*
X0025983Y0239862D01*
X0025043Y0238264D02*
X0044348Y0238264D01*
X0026953Y0219081D02*
X0019098Y0219081D01*
X0019098Y0217483D02*
X0023562Y0217483D01*
X0021485Y0215884D02*
X0019098Y0215884D01*
X0019098Y0214286D02*
X0020241Y0214286D01*
X0019148Y0212687D02*
X0019098Y0212687D01*
X0019098Y0199899D02*
X0019962Y0199899D01*
X0019098Y0198301D02*
X0021206Y0198301D01*
X0023014Y0196702D02*
X0019098Y0196702D01*
X0019098Y0195104D02*
X0025537Y0195104D01*
X0031687Y0260643D02*
X0044348Y0260643D01*
X0024597Y0286219D02*
X0019098Y0286219D01*
X0019098Y0287817D02*
X0022151Y0287817D01*
X0020767Y0289416D02*
X0019098Y0289416D01*
X0019098Y0291015D02*
X0019523Y0291015D01*
X0081555Y0295810D02*
X0087947Y0295810D01*
X0087609Y0295670D02*
X0086546Y0294606D01*
X0085970Y0293217D01*
X0085970Y0291712D01*
X0086546Y0290323D01*
X0087609Y0289259D01*
X0088999Y0288684D01*
X0090503Y0288684D01*
X0091893Y0289259D01*
X0092957Y0290323D01*
X0093532Y0291712D01*
X0093532Y0293217D01*
X0092957Y0294606D01*
X0091893Y0295670D01*
X0090503Y0296246D01*
X0088999Y0296246D01*
X0087609Y0295670D01*
X0086382Y0294212D02*
X0083120Y0294212D01*
X0083532Y0292613D02*
X0085970Y0292613D01*
X0086259Y0291015D02*
X0083243Y0291015D01*
X0082050Y0289416D02*
X0087453Y0289416D01*
X0092050Y0289416D02*
X0097453Y0289416D01*
X0096259Y0291015D02*
X0093243Y0291015D01*
X0093532Y0292613D02*
X0095970Y0292613D01*
X0096382Y0294212D02*
X0093120Y0294212D01*
X0091555Y0295810D02*
X0097947Y0295810D01*
X0086429Y0300606D02*
X0083290Y0300606D01*
X0083732Y0302204D02*
X0085970Y0302204D01*
X0086213Y0303803D02*
X0083506Y0303803D01*
X0470549Y0295810D02*
X0532856Y0295810D01*
X0535309Y0292613D02*
X0471165Y0292613D01*
X0471173Y0294212D02*
X0568908Y0294212D01*
X0542247Y0292613D02*
X0641494Y0292613D01*
X0644626Y0292613D02*
X0661494Y0292613D01*
X0659482Y0291015D02*
X0646638Y0291015D01*
X0647235Y0289416D02*
X0658885Y0289416D01*
X0658925Y0287817D02*
X0647196Y0287817D01*
X0646440Y0286219D02*
X0659680Y0286219D01*
X0666440Y0286219D02*
X0706735Y0286219D01*
X0704566Y0287817D02*
X0667196Y0287817D01*
X0667235Y0289416D02*
X0702830Y0289416D01*
X0701930Y0291015D02*
X0666638Y0291015D01*
X0664626Y0292613D02*
X0701065Y0292613D01*
X0719250Y0286219D02*
X0721998Y0286219D01*
X0721998Y0287817D02*
X0721697Y0287817D01*
X0721998Y0281423D02*
X0578321Y0281423D01*
X0579540Y0279825D02*
X0721998Y0279825D01*
X0721998Y0278226D02*
X0644482Y0278226D01*
X0644423Y0278285D02*
X0642888Y0278921D01*
X0641227Y0278921D01*
X0639693Y0278285D01*
X0638519Y0277111D01*
X0637883Y0275577D01*
X0637883Y0273916D01*
X0638519Y0272381D01*
X0639693Y0271207D01*
X0641227Y0270571D01*
X0642888Y0270571D01*
X0644423Y0271207D01*
X0645597Y0272381D01*
X0646233Y0273916D01*
X0646233Y0275577D01*
X0645597Y0277111D01*
X0644423Y0278285D01*
X0645797Y0276628D02*
X0721998Y0276628D01*
X0721998Y0275029D02*
X0646233Y0275029D01*
X0646032Y0273431D02*
X0721998Y0273431D01*
X0721998Y0271832D02*
X0645048Y0271832D01*
X0639068Y0271832D02*
X0625048Y0271832D01*
X0626032Y0273431D02*
X0638084Y0273431D01*
X0637883Y0275029D02*
X0626233Y0275029D01*
X0625797Y0276628D02*
X0638318Y0276628D01*
X0639634Y0278226D02*
X0624482Y0278226D01*
X0619634Y0278226D02*
X0579911Y0278226D01*
X0579650Y0276628D02*
X0618318Y0276628D01*
X0617883Y0275029D02*
X0578586Y0275029D01*
X0532826Y0291015D02*
X0470459Y0291015D01*
X0023574Y0043245D02*
X0019098Y0043245D01*
X0019098Y0041647D02*
X0020884Y0041647D01*
X0019371Y0040048D02*
X0019098Y0040048D01*
M02*
