%
M48
M72
T01C0.02362
T02C0.02400
T03C0.03150
T04C0.03200
T05C0.03937
T06C0.04000
T07C0.04300
T08C0.07087
T09C0.07100
T10C0.07800
T11C0.08100
T12C0.09000
T13C0.10827
T14C0.11024
T15C0.13400
T16C0.13780
%
T01
X49751Y292465
X59751Y292465
X69751Y292465
X79751Y292465
X89751Y292465
X99751Y292465
X109751Y292465
X119751Y292465
X129751Y292465
X139751Y292465
X149751Y292465
X159751Y292465
X169751Y292465
X179751Y292465
X189751Y292465
X199751Y292465
X209751Y292465
X219751Y292465
X229751Y292465
X239751Y292465
X239751Y302465
X229751Y302465
X219751Y302465
X209751Y302465
X199751Y302465
X189751Y302465
X179751Y302465
X169751Y302465
X159751Y302465
X149751Y302465
X139751Y302465
X129751Y302465
X119751Y302465
X109751Y302465
X99751Y302465
X89751Y302465
X79751Y302465
X69751Y302465
X59751Y302465
X49751Y302465
T02
X80792Y276439
X101123Y263441
X120788Y262107
X121455Y253441
X136787Y261774
X139120Y283105
X66460Y261107
X28797Y258441
X22465Y240776
X74459Y231444
X74459Y221111
X96124Y214112
X125454Y175449
X113789Y174783
X89125Y158451
X120455Y145119
X89125Y115455
X147452Y99790
X72793Y74459
X166784Y61127
X369430Y149119
X280105Y270773
X477752Y299770
T03
X622058Y274746
X642058Y274746
X643060Y288743
X663060Y288743
X213780Y264111
X203780Y264111
X193780Y264111
X147453Y234114
X137453Y234114
X127453Y234114
X81126Y195784
X71126Y195784
X61126Y195784
X127453Y164114
X137453Y164114
X147453Y164114
X193780Y194111
X203780Y194111
X213780Y194111
X81126Y125784
X71126Y125784
X61126Y125784
T04
X303461Y240809
X303461Y250809
X303461Y260809
X332122Y260809
X332122Y250809
X332122Y240809
X369779Y284138
X369779Y294138
X399779Y294138
X399779Y284138
X431773Y283468
X431773Y293468
X461773Y293468
X461773Y283468
X538778Y288427
X538778Y278427
X573111Y278094
X573111Y288094
X573111Y298094
X538778Y298427
T05
X644442Y243134
X674442Y243134
X704442Y133134
X644442Y133134
X63432Y93793
X53432Y93793
T06
X54798Y56606
X46548Y56606
X38298Y56606
X38298Y46606
X51798Y46606
X59798Y46606
X71298Y46606
X71298Y56606
X63048Y56606
T07
X381423Y196115
X381423Y236115
X521075Y222450
X521075Y182450
T08
X589239Y82665
X616798Y82665
X644358Y82665
T09
X434358Y113803
X406798Y113803
X379239Y113803
X224358Y113803
X196798Y113803
X169239Y113803
T10
X431423Y251115
X571075Y237450
T11
X441423Y181115
X581075Y167450
T12
X26298Y35606
X83298Y35606
T13
X30578Y206913
X30578Y297465
X258924Y297465
X258924Y206913
T14
X30578Y102465
X713019Y102465
X713019Y297465
T15
X485539Y54354
X328058Y54354
X275539Y54354
X118058Y54354
T16
X539043Y53924
X694554Y53924
M30
